<?xml version="1.0" encoding="UTF-8"?>
<svg id="Layer_1" xmlns="http://www.w3.org/2000/svg" version="1.1" viewBox="0 0 375 420">
  <!-- Generator: Adobe Illustrator 29.7.1, SVG Export Plug-In . SVG Version: 2.1.1 Build 8)  -->
  <defs>
    <style>
      .st0 {
        fill: #134b8e;
      }

      .st1 {
        fill: #5fa8a1;
      }

      .st2, .st3, .st4, .st5, .st6, .st7, .st8, .st9, .st10, .st11, .st12, .st13, .st14, .st15, .st16, .st17, .st18 {
        fill: none;
      }

      .st2, .st4, .st7, .st8, .st9, .st10, .st11, .st12, .st16 {
        stroke: #000;
      }

      .st2, .st4, .st7, .st9, .st13, .st14, .st15, .st16, .st17 {
        stroke-miterlimit: 10;
      }

      .st2, .st13 {
        stroke-width: .5px;
      }

      .st19 {
        fill: #25544e;
      }

      .st20 {
        fill: #bf6421;
      }

      .st3, .st5, .st6, .st8, .st10, .st11, .st12, .st18 {
        stroke-linecap: round;
        stroke-linejoin: round;
      }

      .st3, .st5, .st6, .st13, .st14, .st15, .st17, .st18 {
        stroke: #231f20;
      }

      .st3, .st7, .st10 {
        stroke-width: 2px;
      }

      .st21 {
        fill: #fdbb28;
      }

      .st22 {
        fill: #fff;
      }

      .st23 {
        fill: #ddc4ac;
      }

      .st5, .st12 {
        stroke-width: 4px;
      }

      .st24 {
        fill: #44968e;
      }

      .st25 {
        fill: #cecece;
      }

      .st26 {
        fill: #b58304;
      }

      .st6, .st11, .st15, .st16 {
        stroke-width: 3px;
      }

      .st27 {
        fill: #0b283f;
      }

      .st28 {
        fill: #ffe8d7;
      }

      .st29 {
        fill: #23150c;
      }

      .st30 {
        fill: #072f56;
      }

      .st31 {
        fill: #eabb39;
      }

      .st32 {
        fill: #caedef;
        opacity: .56;
      }

      .st9, .st14 {
        stroke-width: .25px;
      }

      .st33 {
        fill: #bc8a26;
      }

      .st34 {
        fill: #3f2919;
      }

      .st35 {
        fill: #1a4672;
      }

      .st36 {
        fill: #194340;
      }

      .st37 {
        fill: #edb38b;
      }

      .st38 {
        fill: #9e836c;
      }

      .st39 {
        fill: #aa821d;
      }

      .st40 {
        fill: #ba9d68;
      }

      .st41 {
        fill: #addcd8;
      }

      .st42 {
        fill: #fb7800;
      }
    </style>
  </defs>
  <path class="st3" d="M370.27,257.19c.84-6.27,1.67-12.53,2.51-18.8l-14.91-5.15"/>
  <path class="st18" d="M140.21,208.33s82.53,50.06,90.15,62.66"/>
  <path class="st18" d="M172.88,236.52c12.72,6.5,27.28,15.2,42.37,26.83,10.1,7.79,18.78,15.62,26.16,23.01"/>
  <path class="st18" d="M344.53,230.09c-11.53,8.43-24.53,19.33-37.58,33.21-8.73,9.29-16.06,18.4-22.18,26.86"/>
  <path class="st3" d="M136.39,196.02s99.83,48.44,128.84,118.87c0,0,64.59-107.83,92.14-105.4l-.23,26.85s-62.72,37.77-84.83,83.08c0,0-5.22,22.54-8.91,3.2,0,0-35.47-63.81-133.04-101.11l6.02-25.48Z"/>
  <path class="st3" d="M199,235.9"/>
  <polyline class="st3" points="353.48 209.8 243.88 229.04 224.27 233.24"/>
  <path class="st3" d="M136.39,196.02s-52.96,48.22-120.31,55.55l.82,25.87s102.62-54.83,113.47-55.94"/>
  <polygon class="st3" points="2.67 285.89 120.34 225.08 121.32 235.66 5.14 297.89 2.67 285.89"/>
  <path class="st6" d="M188.52,157.98c3.32.43,5.48,1.54,5.35,2.73-.07.68-.87,1.31-2.17,1.79-.86.32-1.94.58-3.19.74"/>
  <path class="st6" d="M188.68,157.87c3.32-.43,5.48-1.54,5.35-2.73-.07-.68-.87-1.31-2.17-1.79-.86-.32-1.94-.58-3.19-.74"/>
  <path class="st3" d="M5.14,297.89s72.26,15.03,111.99,59.05c0,0-2.78,8.31,5.97,7.52,12.16-3.41,24.75-6.65,37.74-9.68,37.12-8.65,72.32-14.3,105-17.85,1.63.58,2.92.54,3.79.39,4.16-.7,7.59-5.36,8.54-11.64,0,0,50.82-61.36,90.06-67.99.73-.12,1.43-.24,2.11-.36"/>
  <path class="st3" d="M121.32,235.66s95.58,18.09,135.68,89.92c0,0,.77,9.76,8.84,11.36.95.16,1.91.32,2.86.48"/>
  <path class="st6" d="M238.4,272.12c1.02-1.27,1.7-2.23,1.95-2.58,4.23-4.42,4.13-11.4.04-15.53-4.33-4.37-11.85-4.25-16.19.57-.4.32-.82.66-1.24,1.03"/>
  <path class="st6" d="M235.75,252.04s-.12,7.6-3.18,10.22"/>
  <path class="st6" d="M239.86,255.04s-.13,8.27-3.59,10.53"/>
  <path class="st6" d="M152.04,43.3s7.02-1.51,7.46-7.44c.04-.5.2-1.09.52-1.17,1.08-.24,4.68,5.52,4.06,11.42-.5,4.81-3.63,7.98-4.89,9.13"/>
  <path class="st6" d="M215.85,50.97c-1.68.29-4.84-3.8-5.87-8.53-1.27-5.79,1.68-11.93,2.77-11.8.33.04.55.6.64,1.1,1.09,5.85,8.24,6.57,8.24,6.57,0,0,3.79,11.01-5.78,12.65Z"/>
  <path class="st6" d="M243.89,69.23c8.2-2.53,9.66-19.46,9.66-19.46-1.26-.41-2.52-.83-3.79-1.24"/>
  <path class="st6" d="M244.75,69.79s7.02-7.32,11.66.63c0,0-2.55,8.48-9.04,7.06"/>
  <path class="st6" d="M217.33,36.92c.91-4.62,1.39-10.9-.37-23.79-.53-3.88.72-5.71,1.24-6.35,2.98-3.64,11.21-3.59,19.56,1.92,0,0,18.26,15.34,11.11,44.1,0,0-5.59,15.7-22.31,17.01-1.47.12-3.52-.02-5.85-.96-8.32-3.38-9.93-14.4-10.1-15.71"/>
  <path class="st6" d="M208.51,52.48l2.1.67c1.02-1.35,1.86-2.66,2.57-3.91"/>
  <path class="st15" d="M245.32,18.66s-17.21-4.65-27.27,5.45"/>
  <path class="st15" d="M215.86,42.97"/>
  <path class="st15" d="M250.51,41.04s-15.2-10.49-28.87-2.69"/>
  <path class="st6" d="M160.09,55.96c-3.97-4.2-5.87-8.12-6.88-10.88-1.96-5.36-4.32-10.41-3.87-28.19.1-3.91-1.35-5.6-1.94-6.17-3.37-3.28-11.53-2.32-19.23,4.08,0,0-16.45,17.26-6.15,45.06,0,0,7.29,14.99,24.06,14.44,1.47-.05,3.5-.41,5.71-1.61,7.89-4.28,8.27-15.42,8.3-16.73Z"/>
  <path class="st15" d="M121.77,25.53s16.59-6.52,27.71,2.4"/>
  <path class="st15" d="M119.09,48.34s18.27-15.87,34.65-1.92"/>
  <path class="st17" d="M154.69,149.38c0,3.36-6.89,6.29-12.19,6.91-8.07.95-17.49-2.85-17.56-6.59-.07-3.68,8.9-7.78,16.77-7.23,5.8.41,12.98,3.48,12.98,6.91Z"/>
  <path class="st17" d="M245.08,143.85c-3.13-2.4-9.12-4.25-14.58-3.87-5.8.41-12.98,3.48-12.98,6.91,0,3.36,6.89,6.29,12.19,6.91,4.95.58,10.4-.62,13.9-2.5"/>
  <path class="st2" d="M164.1,130.83c2,.77,3.44,2.45,3.55,4.48.08,1.47-.55,2.84-1.62,3.85"/>
  <path class="st2" d="M157.76,139.81c-1.32-.89-2.2-2.26-2.28-3.83-.12-2.12,1.24-4.02,3.29-4.97"/>
  <path class="st14" d="M156.98,139.17c-.35.33-.75.63-1.19.87"/>
  <path class="st13" d="M155.83,133.94c.65-.54,2.48-1.93,5.24-2.16,3.09-.26,5.34,1.1,6,1.54"/>
  <path class="st2" d="M166.83,138.23c-.15-.26-1.56-2.54-4.32-2.83-2.09-.22-3.6.84-3.97,1.11"/>
  <path class="st2" d="M156.6,135.16c.68-.53,2.27-1.62,4.56-1.84,3.47-.34,5.95,1.56,6.5,1.99"/>
  <path class="st2" d="M166.32,135.25c.03.45-.32.84-.77.86s-.84-.32-.86-.77.32-.84.77-.86.84.32.86.77Z"/>
  <path class="st2" d="M158,135.13c.01.25.23.44.48.43s.44-.23.43-.48-.23-.44-.48-.43-.44.23-.43.48Z"/>
  <path class="st2" d="M156.89,139.08c-.49-.54-1.85-2.27-1.32-4.27.26.07.62.18,1.03.36.26.12.88.41,1.54.98.24.21.55.5.87.89.21-.04.49-.08.83-.1,0,0,.94-.06,1.88.13,1.03.21,2.56.97,3.96,2.41,0,0-.21.2-.61.45"/>
  <circle class="st2" cx="164.73" cy="136.94" r=".34"/>
  <path class="st6" d="M105.83,75.11c-8.5-1.13-11.76-18.26-11.76-18.26,16.25-9.68,25.83,2.62,25.83,2.62,0,0,2.97,17.92-14.08,15.65Z"/>
  <path class="st6" d="M118.81,42.75c-.69-.43-2.06-1.15-3.94-1.31-2.27-.2-4.01.54-4.76.91-.58.22-1.53.7-2.02,1.66-.78,1.53.11,3.33.62,4.36,2.34,4.75,9.03,8.97,10.97,10.15"/>
  <path class="st6" d="M104.24,83.61c-6.21,2.35-9.77-6.01-9.77-6.01,3.73-8.41,11.52-1.92,11.52-1.92,0,0,3.6,5.9-1.76,7.93Z"/>
  <path class="st5" d="M96.78,119.09c-12.21.68-24.43,1.36-36.64,2.04l-1.28.07c-.81.24-1.68.67-2.05,1.47-1.68,3.64,7.78,12.93,17.8,17.17,3.14,1.33,8.33,3.64,15.2,2.98,3.5-.34,6.3-1.32,8.16-2.14"/>
  <path class="st6" d="M94.32,157.67c-3.15.55-11.8,1.59-20.51-3.17-15.6-8.53-16.48-27.52-16.52-28.57"/>
  <path class="st3" d="M72.48,144.62s2.04,5.75,6.02,2.67c.16.4,1.32,3.3,4.3,4.21,2.87.88,6.23-.43,8.09-3.33"/>
  <path class="st3" d="M81.53,120.68c-6.32-2.13-6.81-11.83-6.81-11.83,4.4,5.29,12.64,6.13,12.64,6.13.06.03,1.38.7,1.49,2.18.07.97-.4,1.91-1.24,2.44-2.03.36-4.06.72-6.09,1.09Z"/>
  <path class="st3" d="M167.69,47.78c.22.34,1.86,2.8,5.05,3.2,3.4.43,5.68-1.83,5.94-2.09-.28,3.8-.57,7.6-.85,11.41-.36,0-6.18-.21-9.03-5.08-1.92-3.27-1.3-6.59-1.11-7.45Z"/>
  <path class="st3" d="M207.9,45.81c-.18.37-1.54,2.99-4.67,3.74-3.33.8-5.85-1.19-6.13-1.42.7,3.75,1.4,7.49,2.11,11.24.36-.05,6.11-.9,8.41-6.05,1.55-3.46.56-6.69.28-7.52Z"/>
  <path class="st5" d="M268.09,122.67c4.84-4.73,7.75-9.76,6.41-11.99-.46-.76-1.37-1.09-2.2-1.24l-1.28.07c-7.12.4-14.23.79-21.35,1.19"/>
  <path class="st6" d="M273.44,123.27c.79-4.18.92-7.68.94-9.29"/>
  <path class="st6" d="M256.67,146.47c1.7-.65,3.18-1.44,4.46-2.28,5.01-3.28,8.12-8.13,10.06-13.02"/>
  <path class="st3" d="M261.36,134.24s-1.39,5.94-5.68,3.32"/>
  <path class="st3" d="M249.67,110.7c6.04-2.82,5.45-12.52,5.45-12.52,0,0-1.2,2.41-6.29,6.27"/>
  <path class="st6" d="M188.89,65.34c2.72-.18,5.64-.38,7.68-2.39,2.66-2.64,2.06-6.68,1.67-9.33,0,0-.88-5.93-5.78-10.69-.62-.6-1.46-1.3-1.46-1.3-.94-.77-1.47-1.1-1.7-1.24-.89-.53-1.41-.69-1.93-.7-.22,0-.38.01-.49.02-.69.06-1.3.33-2.44,1.22-1.73,1.34-2.49,2.13-3.17,3.03-3.69,4.86-3.65,10.81-3.65,10.81.02,3.01.04,6.83,2.93,9.08,2.44,1.9,5.63,1.69,8.36,1.5Z"/>
  <path class="st18" d="M180.38,47.55c1.28.55,3.71,1.38,6.83,1.21,3.91-.21,6.68-1.88,7.86-2.69"/>
  <path class="st18" d="M178.47,52.52c1.66.78,4.57,1.87,8.31,1.93,5.32.07,9.24-2.01,10.9-3.02"/>
  <path class="st18" d="M178.42,57.3c1.52.77,5,2.29,9.64,2.04,4.69-.25,8.02-2.17,9.44-3.11"/>
  <path class="st6" d="M154.69,204.2c1.85-2.65,4.2-5.01,7.2-6.83,5.98-3.61,12.85-4.03,15.86-4.22,3.08-.19,9.94-.6,16.26,2.26,11.2,5.08,15.35,17.79,17.65,26.63,2.34,9,2.57,18.45,2.27,25.31"/>
  <path class="st3" d="M228.45,160.76c.22.66.48,1.66.48,2.89,0,1.1-.19,2-.38,2.63"/>
  <path class="st3" d="M222.1,159.13c.22.66.48,1.66.48,2.89,0,1.1-.19,2-.38,2.63"/>
  <path class="st3" d="M215.69,159.77c.22.66.48,1.66.48,2.89,0,1.1-.19,2-.38,2.63"/>
  <path class="st6" d="M106.97,217.18c.52-2.28,1.25-3.87,1.48-4.34,5.37-7.01,10.55-12.22,14.48-15.8,9.98-9.1,15.53-11.04,17.31-11.61,1.47-.47,2.88-.81,4.19-1.06"/>
  <path class="st6" d="M128.21,192.16c-2.38-.88-4.86-1.49-7.4-1.73-16.21-1.51-29.99,11.47-46.26,9.3,7.41,1.85,20.17,7.21,16.66,17.05,1.04-.89,4.35-3.47,9.13-3.5,2.42-.02,4.35.62,5.56,1.15"/>
  <path class="st3" d="M124.81,195.56c-5.84-1.65-12.2-.7-18.04.85-8.14,2.16-16.53,6.65-25.13,5.87"/>
  <path class="st3" d="M122.06,195.03s-21.59,7.98-30.85,21.74"/>
  <path class="st6" d="M169.33,214.38c10.4.77,23.68-.31,36.71-7.18"/>
  <path class="st6" d="M197.3,233.69c4.96-1.5,10.08-3.85,15.17-7.36"/>
  <path class="st11" d="M97.31,66.78c-1.86.82-3.16,1.58-4.08,2.24-5.44,3.92-8.67,8.88-8.67,8.88-2.72,4.08-4.29,10.63-5.47,18.24-.91,5.82-.95,10.96-.69,15.08"/>
  <path class="st11" d="M167.62,54.58c-2.77.27-5.54.53-8.31.8"/>
  <path class="st11" d="M185.81,53.91"/>
  <path class="st11" d="M197.88,181.51l-71.09,3.95c-3.38.28-17.41,1.06-29.85-8.81-8.47-6.72-12-15.04-13.34-18.86"/>
  <path class="st11" d="M252.22,166.01c-.83,1.21-1.75,2.32-2.72,3.33,0,0-4.66,4.39-11.15,7.51"/>
  <path class="st11" d="M254.98,137.66c2.36,8.45,2.3,15.23.8,20.66"/>
  <path class="st11" d="M239.4,65.94c1.5,1.26,2.6,2.47,3.34,3.35,1.07,1.86,2.58,4.83,3.63,8.72.72,2.66.98,4.78,1.11,6.09.63,6.13,1.47,20.68,2.22,39.95.84,1.74,1.6,3.42,2.28,5.05"/>
  <path class="st11" d="M248.36,170.46"/>
  <path class="st6" d="M223.31,255.04l.43-.84.35-2.01c.58-8.33-1.03-16.25-2.57-21.77l-.66-6.3,2.46-1.42c1.94-1.58,4.71-4.15,7.19-7.91,1.03-1.56,4.13-6.55,6.2-19.9.81-5.25,1.58-12.56,1.36-21.39-.3-1.24-2.46-9.65-10.57-13.55-1.49-.71-8.76-3.97-15.47-.38-2.19,1.17-3.66,2.72-4.55,3.85-.42,2.64-.69,5.94-.41,9.71l1.23,18c-.13-.11-.25-.22-.38-.33"/>
  <circle class="st3" cx="268.16" cy="147.63" r="23.89"/>
  <path class="st18" d="M271.47,130.38c5.08,1.01,9.66,4.28,12.16,9.27,4.3,8.58.82,19.02-7.76,23.32-8.58,4.3-19.02.82-23.32-7.76-4.3-8.58-.82-19.02,7.76-23.32,3.59-1.8,7.51-2.24,11.16-1.51"/>
  <rect class="st3" x="235.15" y="155.85" width="15.11" height="9.57" rx="3.84" ry="3.84" transform="translate(277.7 -128.3) rotate(63.41)"/>
  <path class="st3" d="M206.38,173"/>
  <path class="st3" d="M236.01,169.69l.67-.33c2.16-1.08,3.04-3.72,1.96-5.88l-.69-1.37c-1.08-2.16-3.72-3.04-5.88-1.96l-1.61.81"/>
  <path class="st3" d="M206.38,173l-5.75,2.88c-2.11,1.06-2.95,3.67-1.86,5.84l.69,1.37c1.08,2.16,3.68,3.06,5.79,2l2.11-1.06"/>
  <path class="st6" d="M168.85,131.46c.74.24,1.47.48,2.21.72"/>
  <line class="st6" x1="121.15" y1="131.46" x2="168.85" y2="131.46"/>
  <line class="st3" x1="120.55" y1="126.41" x2="143.35" y2="131.46"/>
  <line class="st6" x1="168.01" y1="139.96" x2="169.73" y2="139.29"/>
  <line class="st6" x1="148.56" y1="139.63" x2="168.85" y2="139.63"/>
  <line class="st6" x1="121.15" y1="139.63" x2="148.56" y2="139.63"/>
  <path class="st18" d="M169.27,140.04s-7.45,4.97-10.05,4.51"/>
  <path class="st18" d="M169.93,139.77s-6.22,6.44-8.86,6.54"/>
  <path class="st6" d="M118.28,121.95c10.68-.09,22.64.47,35.55,2.19,4.73.63,9.26,1.37,13.58,2.19"/>
  <path class="st13" d="M199.81,130.83c-2,.77-3.44,2.45-3.55,4.48-.08,1.47.55,2.84,1.62,3.85"/>
  <path class="st13" d="M206.15,139.81c1.32-.89,2.2-2.26,2.28-3.83.12-2.12-1.24-4.02-3.29-4.97"/>
  <path class="st14" d="M206.93,139.17c.35.33.75.63,1.19.87"/>
  <path class="st13" d="M208.08,133.94c-.65-.54-2.48-1.93-5.24-2.16-3.09-.26-5.34,1.1-6,1.54"/>
  <path class="st13" d="M197.08,138.23c.15-.26,1.56-2.54,4.32-2.83,2.09-.22,3.6.84,3.97,1.11"/>
  <path class="st13" d="M207.31,135.16c-.68-.53-2.27-1.62-4.56-1.84-3.47-.34-5.95,1.56-6.5,1.99"/>
  <path class="st13" d="M197.59,135.25c-.03.45.32.84.77.86s.84-.32.86-.77-.32-.84-.77-.86-.84.32-.86.77Z"/>
  <path class="st13" d="M205.91,135.13c-.01.25-.23.44-.48.43s-.44-.23-.43-.48.23-.44.48-.43.44.23.43.48Z"/>
  <path class="st13" d="M207.02,139.08c.49-.54,1.85-2.27,1.32-4.27-.26.07-.62.18-1.03.36-.26.12-.88.41-1.54.98-.24.21-.55.5-.87.89-.21-.04-.49-.08-.83-.1,0,0-.94-.06-1.88.13-1.03.21-2.56.97-3.96,2.41,0,0,.21.2.61.45"/>
  <circle class="st14" cx="199.18" cy="136.94" r=".34"/>
  <path class="st6" d="M195.06,131.46c-.74.24-1.47.48-2.21.72"/>
  <line class="st6" x1="242.76" y1="131.46" x2="195.06" y2="131.46"/>
  <line class="st3" x1="243.36" y1="126.41" x2="220.56" y2="131.46"/>
  <line class="st6" x1="195.9" y1="139.96" x2="194.18" y2="139.29"/>
  <line class="st6" x1="215.34" y1="139.63" x2="195.06" y2="139.63"/>
  <line class="st6" x1="242.76" y1="139.63" x2="215.34" y2="139.63"/>
  <path class="st18" d="M194.64,140.04s7.45,4.97,10.05,4.51"/>
  <path class="st18" d="M193.98,139.77s6.22,6.44,8.86,6.54"/>
  <path class="st6" d="M245.63,121.95c-10.68-.09-22.64.47-35.55,2.19-4.73.63-9.26,1.37-13.58,2.19"/>
  <polygon class="st42" points="119.74 57.01 119.56 46.44 119.56 43.33 111.43 41.82 108 43.96 107.75 46.44 111.1 51.71 115.89 55.83 119.74 57.01"/>
  <polygon class="st42" points="152.59 43.45 156.86 41.27 160.73 36.51 162.34 34.37 162.79 38.74 164.37 42.82 163.35 52.27 161.19 54.05 159.97 56.64 154.95 50.14 152.59 43.45"/>
  <polygon class="st24" points="127.91 196.31 126.01 195.61 116.77 194.19 107.02 196.54 94.01 200.88 87.93 202.32 83.75 202.69 77.77 200.51 92.45 197.9 101.37 194.62 109.24 191.48 122.16 190.98 132.32 193.99 127.91 196.31"/>
  <path class="st21" d="M82.71,202.59l8.74,7.84s-.03,6.03.07,5.88,7.56-2.57,7.56-2.57l7.45.29c2.37-2.1,4.73-4.2,7.1-6.31,1.27-1.78,2.54-3.56,3.81-5.34.2-.53.59-1.35,1.36-2.13,1.23-1.24,2.67-1.6,3.26-1.71.32-.99.64-1.99.96-2.98-1.31-.32-2.62-.64-3.93-.96-2.6.09-5.2.17-7.8.26l-11.97,3.65c-2.18.98-4.9,2-8.09,2.79-3.22.79-6.12,1.15-8.52,1.29Z"/>
  <path class="st24" d="M111.22,63.09c-2.75.52-5.86,1.27-9.21,2.37-3.34,1.1-6.28,2.34-8.79,3.56-2.83,2.87-5.66,5.74-8.49,8.61-1.52,2.98-3.13,6.79-4.32,11.36-.81,3.13-1.27,6.01-1.52,8.53l-.5,13.69c2.54,1.18,5.09,2.36,7.63,3.55.22,9.18.45,18.36.67,27.55-.79,5.79-1.59,11.58-2.38,17.36,1,2.72,2.72,6.41,5.7,10.19,2.05,2.59,4.16,4.55,5.96,5.98,1.62,1.18,3.24,2.35,4.86,3.53,3.25,1.45,6.51,2.91,9.76,4.36,7.12.48,14.24.96,21.36,1.44,17.47-.97,34.94-1.94,52.42-2.91,4.64.04,9.29.08,13.93.11,13.27-1.84,26.54-3.68,39.82-5.53,2.92-1.77,5.85-3.55,8.77-5.32,2.93-3.59,5.86-7.18,8.79-10.77.39-5.39.78-10.78,1.17-16.17-1.62-5.16-3.24-10.32-4.86-15.48-.67-1.2-1.58-3.03-2.3-5.37-1.65-5.39-1.16-9.88-.97-12.08.4-4.63.58-11.46-.36-21.45-.44-3.2-.87-6.4-1.31-9.6l-3.23-7.55c-.36-1.25-.73-2.51-1.09-3.76-1.01-1.13-2.12-2.25-3.34-3.35-8.4-7.58-18.12-10.47-25.07-11.65-3.12-.66-6.43-1.21-9.93-1.61-13.48-1.55-25.38-.33-34.82,1.61-19.45,2.93-38.9,5.87-58.35,8.8Z"/>
  <path class="st24" d="M250.47,109.01l24.57.57.54,4.61-4.56,7.6c-2.41.62-4.99,1.4-7.7,2.39-4.19,1.52-7.86,3.24-11.01,4.93-.96-1.7-1.91-3.41-2.87-5.11l1.02-14.99Z"/>
  <path class="st21" d="M274.57,119.09l-4.05,13.49-7.96,10.85-5.72,3.75c-.15-.37-.3-.75-.45-1.12-.97-2.79-1.67-5.14-2.15-6.94-1.02-3.77-.85-4.06-1.39-5.7-.08-.24-.33-.97-.43-1.96-.08-.76-.04-1.4,0-1.8,2.37-1.46,5.37-3.02,9-4.28,1.97-.68,3.83-1.17,5.52-1.53,2.55-1.59,5.09-3.17,7.64-4.76Z"/>
  <path class="st21" d="M122.92,60.96l3.79,6.01,10.31,6.47,13.23.57,6.73-6.32,2.99-9.83-1.19-2.9-6.81-11.53-1.93-16.5-.96-13.99c-.68-1.02-1.36-2.03-2.04-3.05-2.33-.1-4.66-.19-6.99-.29-2.92.35-5.84.7-8.76,1.05-1.87,2.72-3.74,5.43-5.6,8.15-1.55,3.08-3.1,6.16-4.64,9.24l-2.06,4.17-1.11,18.04,4.07,10.91.96-.21Z"/>
  <path class="st21" d="M248.26,54.09l-3.23,6.33-9.67,7.39-13.12,1.78-7.28-5.68-3.87-9.51.92-2.99,5.73-12.1.41-16.61-.33-14.02c.58-1.07,1.16-2.15,1.75-3.22,2.31-.31,4.62-.62,6.93-.93,2.37.48,4.74.96,7.1,1.45,2.68,2.13,5.36,4.26,8.04,6.39,1.82,2.92,3.65,5.85,5.47,8.77.54,1.48,1.08,2.95,1.61,4.43.62,5.8,1.24,11.59,1.86,17.39-.25,2.67-.5,5.35-.75,8.02-.52,1.04-1.05,2.07-1.57,3.11Z"/>
  <path class="st42" d="M186.4,40.07l-5.87,4.58-2.99,9.31-.43,7.65s2.1,2.18,2.61,2.29,6.68,2.05,6.68,2.05l6-.68,5.9-3.65.77-8.37-6.14-10.88-3.66-2.28h-2.86Z"/>
  <polygon class="st21" points="178.15 61.37 174.88 60.35 171.33 57.94 168.66 54.04 167.45 49.18 167.69 48.88 168.66 48.16 170.87 50.13 173.21 50.36 175.28 50.95 177.28 50.28 178.14 50.91 178.28 58.03 178.15 61.37"/>
  <polygon class="st21" points="198.38 60.03 201.66 59.01 205.2 56.6 207.87 52.7 209.09 47.83 208.84 47.54 207.88 46.82 205.66 48.79 203.32 49.02 201.26 49.61 199.25 48.94 198.39 49.57 198.26 56.68 198.38 60.03"/>
  <path class="st42" d="M108.93,52.73l-9.48.49-4.59,2.08-1.02,1.02.17,2.7,1.82,5.61,3.48,6.98,3.81,2.34,2.96.62c1.14.38,2.28.76,3.41,1.14,2.64-1.06,5.28-2.11,7.91-3.17.95-2.13,1.91-4.25,2.86-6.38v-6.03l-1.62-2.9s-9.28-4.47-9.72-4.51Z"/>
  <polygon class="st42" points="97.68 73.84 95.53 75.32 94.16 78.13 96.68 80.47 100.64 83.2 104.67 83.25 107.5 77.09 101.56 73.84 97.68 73.84"/>
  <polygon class="st42" points="252.82 66.59 254.77 68.35 256 71.68 253.72 74.46 250.13 77.7 246.48 77.76 243.92 70.45 249.3 66.59 252.82 66.59"/>
  <path class="st42" d="M221.21,39.19l-4.14-2.04-3.78-4.41-1.57-1.99-.42,4.04-1.51,3.76,1.03,8.73,2.1,1.65,1.2,2.4c1.03-.12,2.7-.45,4.5-1.42,1.99-1.08,3.2-2.46,3.82-3.28.12-.14,1.96-2.39.96-4.95-.57-1.46-1.76-2.23-2.2-2.49Z"/>
  <polygon class="st42" points="250.69 47.85 254.53 49.5 253 54.99 250.45 62.26 246.23 68.15 241.96 67.83 239.4 64.9 249.56 54.15 250.69 47.85"/>
  <polygon class="st42" points="75.83 109.57 81.33 113.3 88.06 115.51 88.9 118.67 85.44 119.49 79.85 119.96 76.7 116.97 74.69 110.59 75.83 109.57"/>
  <path class="st42" d="M249.67,103.82c.09,0,3.72-2.68,3.72-2.68l1.57-1.61v4.96l-2,3.92-2.16,1.48-1.13-.18v-5.89Z"/>
  <path class="st37" d="M145.34,143.71c.3.21.6.43.89.64.55.47,1.11.94,1.66,1.4.13.87.26,1.74.39,2.61-.34.51-.69,1.03-1.03,1.54-.36.4-.72.81-1.09,1.21l-1.28.64c-1.13.49-2.26.98-3.38,1.47-1.53.34-3.06.68-4.6,1.02-1.32.12-2.63.24-3.95.36l-3.6-.46c-1.48-.39-2.97-.79-4.45-1.18-1.32-.68-2.64-1.36-3.96-2.04-.76-.77-1.52-1.53-2.28-2.3.06-.61.11-1.21.17-1.82l.94-1.64,2.68-1.96,2.02-.9,2.85-.86,3.75-.84c2.07-.13,5.01-.07,8.38.81,2.4.62,4.37,1.5,5.87,2.3Z"/>
  <path class="st37" d="M244.03,143.31c.12.3.23.65.32,1.03.15.61.22,1.16.24,1.63-.06,1.01-.13,2.01-.19,3.02.03.21.06.41.1.62-.1.81-.42,1.29-.62,1.53-.43.52-.96.74-2.01,1.15-.68.27-1.26.44-1.66.54-1.53.34-3.06.68-4.6,1.02-1.32.12-2.63.24-3.95.36l-3.6-.46c-1.48-.39-2.97-.79-4.45-1.18-1.32-.68-2.64-1.36-3.96-2.04-.76-.77-1.52-1.53-2.28-2.3.06-.61.11-1.21.17-1.82l.94-1.64,2.68-1.96,2.02-.9,2.85-.86,3.75-.84c2.07-.13,5.01-.07,8.38.81,2.4.62,4.37,1.5,5.87,2.3Z"/>
  <polygon class="st24" points="55.55 121.94 92.57 119.09 94.07 142.05 72.48 139.6 61.13 130.83 55.55 121.94"/>
  <polygon class="st24" points="238.06 174.97 236.99 193.02 234.78 205.91 224.27 221.9 220.86 224.12 222.35 235.66 224.27 247.36 224.2 254.57 222.96 255.61 213.93 247.36 212.47 223.23 206.03 207.2 198.58 198.54 188.07 193.02 174.78 193.02 161.89 197.37 153.74 205.06 136.39 196.02 106.89 217.54 109.97 210.89 131.95 188.5 140.74 184.38 238.06 174.97"/>
  <polygon class="st24" points="227.12 252.04 236.27 251.57 243.87 258.72 243.24 264.06 239.28 270.99 236.84 270.99 222.96 256.56 227.12 252.04"/>
  <path class="st21" d="M213.6,247.96l.25-13.38-3.57-17.41-6.52-13.64-9.7-8.51-5.98-2.02-15.05.59-12.54,3.96-5.31,5.97-.62,2.36,13.07,7.95,2.82,1.71,17.3,11.88,8.41,6.24,13.99,11.11s2.56,2.37,3.46,3.16Z"/>
  <path class="st21" d="M57.29,123.86l1.11,9.76,6.07,11.92,7.23,7.14,12.39,4.59c3.36.22,6.73.44,10.09.66.54-.41,1.3-1.08,2.04-2.04,1.22-1.6,1.68-3.12,1.98-4.13,1.28-4.36.8-9.77.69-10.98-1.91.51-3.82,1.01-5.74,1.52l-12.04-.77-9.12-5.02-10.27-6.17-4.44-6.49Z"/>
  <path class="st22" d="M121.15,131.46c-.28.93-.53,2.13-.6,3.54-.11,2.11.26,3.86.6,5.04,16.26-.14,32.52-.28,48.78-.41.46-.39,1.02-.96,1.45-1.78,1.26-2.33.55-4.75.36-5.34-16.87-.35-33.73-.7-50.6-1.05Z"/>
  <path class="st22" d="M242.82,131.31c.28.93.53,2.13.6,3.54.11,2.11-.26,3.86-.6,5.04-16.26-.14-32.52-.28-48.78-.41-.46-.39-1.02-.96-1.45-1.78-1.26-2.33-.55-4.75-.36-5.34,16.87-.35,33.73-.7,50.6-1.05Z"/>
  <path class="st36" d="M167.5,135.1c-.17-.69-.35-1.39-.52-2.08-.37-.31-.73-.62-1.1-.93l-8.3.19-1.63,1.16-.3.77-.18.53.98.37.82-.46c.88-.43,1.77-.85,2.65-1.28.85-.05,1.7-.1,2.55-.14.59.07,1.19.14,1.78.2,1.08.56,2.16,1.12,3.25,1.68Z"/>
  <polygon class="st1" points="156.84 135.19 158.15 134.29 160.56 133.28 162.8 133.32 165.15 133.88 167.5 135.1 167.65 136.46 166.96 137.92 166.32 137.53 164.38 135.84 162.12 135.29 159.83 135.79 158.45 136.43 156.84 135.19"/>
  <polygon class="st41" points="166.72 138.01 165.56 136.67 163.87 135.6 160.94 135.37 158.62 136.35 158.91 136.94 160.16 136.94 162.07 137.16 163.93 138.13 164.73 138.72 166.72 138.46 166.72 138.01"/>
  <polygon class="st22" points="155.79 134.8 157.57 135.7 158.97 137.01 161.17 136.94 163.68 137.77 164.38 138.72 161.02 139.46 156.26 138.55 155.79 137.43 155.47 135.56 155.79 134.8"/>
  <polygon class="st22" points="165.51 136.01 166.32 135.56 166.32 134.8 165.34 134.48 164.83 134.64 164.83 135.19 164.93 136.01 165.51 136.01"/>
  <polygon class="st22" points="158.42 135.51 158.85 135.27 158.85 134.87 158.33 134.69 158.06 134.78 158.06 135.07 158.11 135.51 158.42 135.51"/>
  <polygon class="st22" points="164.69 137.31 165.08 137.09 165.08 136.72 164.62 136.56 164.37 136.64 164.37 136.91 164.42 137.31 164.69 137.31"/>
  <path class="st36" d="M196.32,135.1c.17-.69.35-1.39.52-2.08.37-.31.73-.62,1.1-.93l8.3.19c.33.15.73.37,1.14.7.19.15.35.31.49.45.1.26.2.51.3.77l.18.53-.98.37-.82-.46c-.88-.43-1.77-.85-2.65-1.28-.85-.05-1.7-.1-2.55-.14-.59.07-1.19.14-1.78.2-1.08.56-2.16,1.12-3.25,1.68Z"/>
  <polygon class="st1" points="206.95 135.12 205.63 134.23 203.22 133.21 200.98 133.25 198.63 133.81 196.28 135.03 196.13 136.39 196.82 137.85 197.46 137.46 199.4 135.77 201.66 135.23 203.96 135.72 205.33 136.36 206.95 135.12"/>
  <polygon class="st41" points="197.06 137.95 198.22 136.61 199.91 135.53 202.84 135.31 205.16 136.29 204.87 136.87 203.62 136.87 201.72 137.1 199.85 138.07 199.06 138.65 197.06 138.39 197.06 137.95"/>
  <polygon class="st22" points="207.99 134.74 206.22 135.64 204.82 136.94 202.61 136.87 200.1 137.71 199.4 138.65 202.76 139.39 207.52 138.48 207.99 137.36 208.31 135.49 207.99 134.74"/>
  <polygon class="st22" points="198.47 136.08 197.66 135.62 197.66 134.86 198.64 134.54 199.15 134.7 199.15 135.25 199.05 136.08 198.47 136.08"/>
  <polygon class="st22" points="205.43 135.44 205 135.2 205 134.8 205.52 134.62 205.8 134.71 205.8 135 205.75 135.44 205.43 135.44"/>
  <polygon class="st22" points="199.15 137.31 198.77 137.09 198.77 136.72 199.23 136.56 199.47 136.64 199.47 136.91 199.43 137.31 199.15 137.31"/>
  <polygon class="st0" points="5.14 297.89 121.32 235.66 149.74 243.76 176.98 255.04 204.88 269.95 222.96 284.62 243.49 305.65 256.49 324.68 259.08 331.98 264.26 336.48 250.2 338.77 199 346.78 169.33 352.85 122.06 364.51 117.55 362.7 117.08 356.89 99.27 340.23 72.27 322.42 38.38 307.48 5.14 297.89"/>
  <polygon class="st35" points="357.87 233.24 371.56 237.97 372.78 239.06 370.34 257.34 361.72 259.25 342.17 267.46 331.74 274.45 318.74 285.19 295.97 306.28 278.82 324.91 274.55 334.31 268.7 337.93 261.17 334.67 257.63 328.55 255.62 323.4 239.86 300.72 218.4 280.92 191.3 262.69 165.49 249.84 139.44 240.38 121.32 235.66 120.34 225.08 130.37 221.5 165.91 236.73 189.08 251.12 216.65 270.46 244.74 298.03 258.91 316.16 263.38 322.29 265.16 329.69 268.7 329.95 271.15 323.57 274.99 314.3 287.41 296.09 307.62 274.38 330.36 255.04 351.72 240.21 356.18 237.4 357.37 235.9 357.87 233.24"/>
  <path class="st35" d="M3.14,286.54c0,1.03,2,11.35,2,11.35l116.18-62.23-.98-10.58L3.14,286.54Z"/>
  <polygon class="st23" points="357.37 209.48 357.37 235.9 322.28 261.49 294.65 287.59 279.27 307.1 273.14 316.99 272.04 320.48 270.14 327.27 267.65 330.27 264.26 328.86 262.95 321.71 249.59 302.31 224.27 277.43 189.08 251.12 159.98 234.19 131.82 221.89 126.17 222.84 16.79 278.6 16.08 251.18 26.95 249.91 54.96 242.8 90.05 227.52 113.77 213.23 135.33 197.57 136.39 196.02 185.76 225.08 228.65 261.49 253.93 293.18 265.67 314.76 293.12 270.99 325.93 230.01 348.14 210.89 357.37 209.48"/>
  <polygon class="st28" points="223.42 233.24 348.14 210.89 333.76 223.28 313.81 245.15 290.05 275.88 274.46 300.09 265.93 313.48 263.63 311.82 251.52 290.17 238.52 272.92 243.49 264.72 242.61 257.34 237.21 250.83 226.61 251.57 223.93 252.72 222.96 235.9 223.42 233.24"/>
  <polygon class="st34" points="206.95 173 198.4 177.4 199.12 182.42 201.23 185.54 207.85 184.38 206.95 173"/>
  <polygon class="st34" points="230.36 160.76 236.36 170.46 239.1 165.61 235.55 159.68 230.36 160.76"/>
  <path class="st31" d="M244.36,153.95l4.7,10.7-5.61,3.58h-2.47l-4.57-9.91s.16-3.1.45-3.08,4.69-2.18,4.69-2.18l2.81.9Z"/>
  <polygon class="st31" points="253.34 166.93 260.01 162.81 255.23 159.13 251.12 151.93 251.12 143.66 254.22 136.23 261.21 131.46 267.72 130.04 276.56 132.25 278.63 125.44 270.65 123.73 261.36 124.14 253.08 129.25 247.67 135.01 244.3 146.47 246.01 156.27 249.67 162.75 253.34 166.93"/>
  <polygon class="st31" points="276.52 124.67 274.57 131.46 280.74 135.51 283.41 139.23 284.93 143.12 285.47 149.18 284.38 153.47 280.74 159.34 275.59 163.1 268.61 164.68 265.22 164.56 258.08 161.89 251.98 164.81 260.58 170.28 271.74 171.53 282.97 166.38 290.45 156.23 292.48 145.33 288.58 135.22 279.65 126.41 276.52 124.67"/>
  <polygon class="st32" points="271.55 130.42 278.63 133.42 284.12 140.17 285.36 147.99 283.55 155.82 279.24 160.76 272.23 164.3 263.95 164.3 256.67 160.53 252.22 155.06 250.7 147.99 251.18 141.65 254.98 136 259.86 131.95 263.47 130.67 269.44 130.1 271.55 130.42"/>
  <path class="st19" d="M199.92,182.69c.15,1.34-8.29,3.82-9.19,4.08-3.3.96-13.04,3.46-27.77.95-1.34-.23-11.1-1.89-11.09-3.16,0-1,6.01-1.02,23.98-1.76,17.86-.74,23.95-1.22,24.07-.09Z"/>
  <path class="st19" d="M162.64,182.2c-43.14-.88-50.34-2.94-58.19-7.33-8.56-4.78-14.48-10.41-17.93-14.1.4,2.15,1.28,5.37,3.36,8.73.91,1.47,4.26,6.53,12.77,10.6,9.35,4.48,18.08,4.5,20.61,4.5,8.67.02,20.81.11,35.8.14"/>
  <path class="st33" d="M56.41,129.47c2.12,3.19,4.15,5.66,5.75,7.44.86.95,6.97,7.69,13,10.7.72.36,2.18,1.03,3.74,1.69,2.04.86,3.1,1.31,4.49,1.68.48.13.93.23,1.35.31,0,0,1.43.28,3.1.37,1.6.09,5.42.04,10.49-.34.25-1.1.48-2.33.62-3.68.24-2.27.18-4.29.02-5.98-4.38.51-9.54.75-15.3.34-3.06-.22-5.9-.59-8.49-1.05-5.69-2.91-11.45-6.33-17.18-10.35-.53-.38-1.06-.75-1.59-1.13Z"/>
  <path class="st33" d="M158.41,52.87c-.29,1.34-2.49,10.67-10.33,14.14-8.71,3.85-21.34-.89-27.53-12.87,1.65,3.63,3.3,7.26,4.94,10.89l13.04,8,9.4,1.21,8.93-4.01,3.85-9.26c-.06-1.58-.12-3.16-.18-4.74-.71-1.12-1.41-2.25-2.12-3.37Z"/>
  <path class="st33" d="M213.87,50.29c.28,1.25,2.34,10,9.68,13.24,8.16,3.61,19.98-.83,25.79-12.05-1.54,3.4-3.09,6.8-4.63,10.2l-12.21,7.49-8.8,1.14-8.36-3.76-3.6-8.67-1.02-4.53,3.17-3.07Z"/>
  <path class="st33" d="M206.81,55.29c-1.15.5-2.4.52-3.51.1-.85-.32-1.4-.83-1.76-1.18-2-2-2.06-4.89-2.5-4.85-.09,0-.19.14-.28.65.33,1,.38,1.8.36,2.35-.01.4-.09.52-.1,1.22-.01.68-.02,1.35-.04,2.03-.03,1.04-.06,2.08-.09,3.11,1.14-.4,2.34-.86,3.57-1.39,1.56-.66,3-1.36,4.33-2.05Z"/>
  <path class="st33" d="M167.89,55.84c1.28.56,2.68.58,3.91.11.95-.36,1.56-.93,1.95-1.32,2.22-2.23,2.29-5.45,2.78-5.4.1.01.22.15.32.73-.37,1.12-.42,2.01-.41,2.62.01.45.1.58.11,1.36.01.75.03,1.51.04,2.26.03,1.16.06,2.31.1,3.47-1.27-.45-2.6-.96-3.98-1.55-1.73-.74-3.34-1.51-4.82-2.28Z"/>
  <path class="st20" d="M177.84,57.05c.43.54,4.6,5.69,11.61,5.46,6.43-.21,10.15-4.8,10.66-5.45-.75,2.49-1.5,4.98-2.24,7.47l-13.48,1.14-6.79-3.41.24-5.22Z"/>
  <path class="st20" d="M99.08,67.71c5.01,2.76,10.88,2.08,14.28-1.37,3.18-3.24,2.98-7.67,2.92-8.53,1.04.94,2.07,1.88,3.11,2.82-.13,2.14-.26,4.28-.39,6.42-1.25,1.77-2.5,3.55-3.75,5.32-2.22.68-4.44,1.35-6.66,2.03-1.1-.14-2.2-.28-3.3-.42-.91-.45-2.1-1.17-3.3-2.27-.92-.85-1.6-1.7-2.09-2.42-.27-.53-.54-1.05-.82-1.58Z"/>
  <path class="st20" d="M96.56,80.43c2.59,1.46,5.63,1.1,7.38-.73,1.65-1.71,1.54-4.05,1.51-4.51.54.5,1.07.99,1.61,1.49-.07,1.13-.13,2.26-.2,3.39-.65.94-1.29,1.87-1.94,2.81-1.15.36-2.29.71-3.44,1.07-.57-.07-1.14-.15-1.71-.22-.47-.24-1.09-.62-1.71-1.2-.48-.45-.83-.9-1.08-1.28-.14-.28-.28-.55-.42-.83Z"/>
  <path class="st20" d="M115.62,54.28c.5-.06,1.82-.3,2.94-1.39,1.76-1.69,1.59-4.02,1.56-4.35v8.38c-.68-.06-1.36-.13-2.03-.19-.82-.82-1.65-1.64-2.47-2.45Z"/>
  <path class="st20" d="M251.99,74.69c-.47.01-2.71.03-4.64-1.69-1.94-1.73-2.16-3.97-2.2-4.44l-1.78,1.38.91,2.16c.44.8.88,1.6,1.31,2.4.44.63.87,1.27,1.31,1.9.64.47,1.28.93,1.92,1.4l1.77-.6c.47-.83.93-1.67,1.4-2.5Z"/>
  <path class="st20" d="M249.92,64.46c-.86.26-3.42.89-6.16-.3-1.2-.52-2.07-1.24-2.63-1.8-.14,2.07-.27,4.13-.41,6.2,1.32-.07,2.64-.14,3.96-.2,1.74-1.3,3.49-2.6,5.23-3.89Z"/>
  <path class="st20" d="M221.82,41.67c-.2.44-1.65,3.56-5.16,4.51-2.47.67-4.53-.13-5.18-.41.39,1.62.77,3.24,1.16,4.86,2.51-.73,5.02-1.46,7.52-2.19.75-1.54,1.51-3.08,2.26-4.63-.2-.71-.4-1.42-.6-2.14Z"/>
  <path class="st20" d="M153.18,41.69c.13.73.91,4.89,4.75,7.3,2.17,1.36,4.32,1.54,5.37,1.56-1.01,1.49-2.01,2.97-3.02,4.46l-5.94-7.16-2.29-4.37,1.13-1.78Z"/>
  <path class="st33" d="M119.4,199.78c-1.25-.73-3.23-1.68-5.76-2.03-5.12-.72-8.62,1.53-15.17,3.71-2.66.88-6.57,2.01-11.54,2.79-.72-.57-1.45-1.15-2.17-1.72,2.76-.26,6.18-.84,9.95-2.09,2.65-.87,4.93-1.9,6.84-2.9,4.25-1.08,8.5-2.15,12.74-3.23,2.87.58,5.74,1.17,8.61,1.75-.55.6-1.1,1.2-1.67,1.8-.61.65-1.22,1.29-1.83,1.92Z"/>
  <path class="st20" d="M75.17,109.28c.83,1.39,2.14,3.21,4.14,4.91,3.77,3.21,7.83,4.15,9.84,4.47h-10.65l-2.59-5.27-.74-4.11Z"/>
  <path class="st20" d="M254.21,99.93c-.39,1.3-1,3-1.94,4.59-1.76,3-3.66,3.88-4.6,4.18,1.66,0,3.32,0,4.98,0l1.21-4.92.35-3.84Z"/>
  <path class="st33" d="M118.26,198.03c-3.18,1.47-6.82,3.41-10.64,6.01-4.52,3.07-8.12,6.24-10.91,9.05-.7-.19-1.41-.39-2.11-.58l20.83-15.12,2.83.65Z"/>
  <polygon class="st30" points="249.06 316.81 115.99 355.71 257 325.58 250.7 316.21 249.06 316.81"/>
  <path class="st38" d="M241.41,265.99c2.94,3.04,8.96,8.4,18.17,11.12,16.25,4.78,29.93-2.35,32.9-3.99-8.85,13.45-17.7,26.91-26.55,40.36l-16.87-26.41-10.53-14.15c.96-2.31,1.92-4.62,2.88-6.93Z"/>
  <path class="st38" d="M16.62,268.69c17.07-7.07,34.58-14.72,52.49-22.99,22.17-10.24,43.25-20.67,63.21-31.11-.65,2.3-1.3,4.6-1.95,6.91l-28.58,11.83-84.89,44.11-.28-8.74Z"/>
  <path class="st38" d="M132.32,214.59c17.18,5.72,38.74,14.94,61.19,30.16,40.81,27.66,64.37,61.44,76.63,82.52-1.26,1-2.52,2-3.79,3-1.34-3.15-2.69-6.31-4.03-9.46-11-15.83-28.02-36.62-52.92-56.33-29.84-23.62-59.03-36.18-79.04-42.98.65-2.3,1.3-4.6,1.95-6.91Z"/>
  <path class="st38" d="M140.21,208.33h0c17.85,8.54,32.24,16.77,42.87,23.3,17.09,10.49,24.65,16.71,29.33,20.84,7.95,7.02,13.9,13.64,17.95,18.52h0c-2.28-2.48-5.69-5.96-10.18-9.73-3.31-2.78-5.94-4.65-8.28-6.3-12.61-8.9-22.88-15.64-22.88-15.64-8.56-5.62-12.84-8.43-19-12.38-7.82-5.01-17.9-11.36-29.82-18.61Z"/>
  <path class="st38" d="M334.79,236.99c-.16-.2-11.58,8.15-24.28,20.12-8.96,8.44-12.86,13.32-15.24,16.52-5.31,7.16-8.59,13.5-8.54,13.53.04.02,2.44-3.91,5.28-7.18.67-.77,1.47-1.66,1.47-1.66,1.62-1.8,2.85-3.06,3.15-3.37,1.17-1.21,3.96-4.24,11.27-12.44,2.25-2.27,3.95-3.98,5.48-5.52,0,0,2.45-2.45,4.54-4.52,7.11-7.02,17.02-15.3,16.87-15.49Z"/>
  <path class="st38" d="M355.71,235.9s-22.86,12.02-49,35.36c-2.72,2.43-15.64,14.09-26.53,29.47,0,0-8.21,11.61-12.81,28.43-.08.3-.39,1.45-.26,1.5.35.13,3.15-7.34,8.07-17.65.79-1.65,1.45-2.99,1.89-3.89,1.16-1.33,2.77-3.13,4.76-5.24.38-.4.63-.67.72-.77,3.3-3.5,7.87-9.85,9.64-12.15,2.07-2.69,1.97-2.02,9.99-10.04,4.19-4.19,7.49-7.65,9.55-9.84,0,0,.03-.03.08-.08,4.44-4.54,7.78-7.92,7.83-7.97,5.19-5.25,36.03-27.17,36.06-27.13Z"/>
  <path class="st19" d="M219.84,223.4c14.72-21.05,18.05-43.81,8.2-56.99-1.99-2.65-5.18-5.81-10.46-8.35,3.22.3,6.44.6,9.65.9,1.73,1.47,3.45,2.94,5.18,4.41l6.67,9.47.23,4.32-2.56,19.74-6.96,21c-2.61,2.12-5.22,4.23-7.83,6.35-.71-.29-1.41-.57-2.12-.86Z"/>
  <path class="st33" d="M213.8,236.99c-.08,2.4-1.49,4.45-3.5,5.14-1.85.64-3.51-.11-3.92-.31,2.52,1.85,5.03,3.7,7.55,5.54l-.13-10.37Z"/>
  <path class="st19" d="M224.97,253.8c1.5,2.6,4.19,6.47,8.66,9.9,2.84,2.18,5.59,3.57,7.77,4.46-1.19,1.32-2.39,2.64-3.58,3.95l-15.86-16.31,3.01-2.01Z"/>
  <path class="st29" d="M199.36,181.5c.21.21,1.78,1.7,4.07,1.44,1.82-.2,3.4-1.44,4.11-3.2-.19,1.5-.38,2.99-.57,4.49l-5.26,1.37-2.93-3.89.59-.21Z"/>
  <path class="st29" d="M233.02,165.03c.2.16,1.68,1.31,3.2.63,1.21-.54,1.98-2.03,2.01-3.86.26,1.48.52,2.96.78,4.44l-3.29,2.31-3.05-3.2.35-.31Z"/>
  <path class="st26" d="M246.08,158.32c1.21,1.96.92,4.47-.64,6.04-1.42,1.42-3.64,1.8-5.52.93.81.98,1.62,1.96,2.43,2.94,0,0,6.72-2.62,6.71-2.75,0-.13.14-3.32.14-3.32l-3.11-3.84Z"/>
  <path class="st39" d="M249.19,161.31c.77.61,12.01,9.26,25.71,4.61,12.3-4.17,16.44-15.62,16.91-16.99-1.2,3.9-2.4,7.81-3.61,11.71l-7.93,7.59-8.54,3.3-13.69-1.84-7.71-6.17-1.14-2.21Z"/>
  <path class="st40" d="M266.47,130.38c-.8,1.29-1.8,2.7-3.06,4.13-2.68,3.05-5.51,5.05-7.73,6.35-.55-1.39-1.1-2.78-1.65-4.18l7.33-5.51,5.11-.79Z"/>
  <polygon class="st33" points="267.67 123.27 273.91 124.01 272.84 119.32 267.67 123.27"/>
  <path class="st27" d="M357.37,232.59l14.44,5.6s-70.92,31.09-101.02,86.77l6.27-14.29,14.31-19.01,20.36-20.58,18.12-15.65,26.99-18.92.53-3.93Z"/>
  <path class="st25" d="M306.08,403.92c-.26-6.18-94.1-6.32-101.39-6.32-6.42,0-101.14.11-101.39,6.32-.19,4.52,49.79,12.36,100.28,12.47,51.79.11,102.7-7.9,102.51-12.47Z"/>
  <path class="st7" d="M370.29,257.05c.83-6.22,1.66-12.44,2.49-18.66l-14.91-5.15"/>
  <path class="st8" d="M140.21,208.33s82.53,50.06,90.15,62.66"/>
  <path class="st8" d="M172.88,236.52c12.72,6.5,27.28,15.2,42.37,26.83,10.1,7.79,18.78,15.62,26.16,23.01"/>
  <path class="st8" d="M344.53,230.09c-11.53,8.43-24.53,19.33-37.58,33.21-8.73,9.29-16.06,18.4-22.18,26.86"/>
  <path class="st10" d="M136.39,196.02s99.83,48.44,128.84,118.87c0,0,64.59-107.83,92.14-105.4l-.23,26.85s-62.72,37.77-84.83,83.08c0,0-5.22,22.54-8.91,3.2,0,0-35.47-63.81-133.04-101.11l6.02-25.48Z"/>
  <path class="st10" d="M199,235.9"/>
  <polyline class="st10" points="353.48 209.8 243.88 229.04 224.27 233.24"/>
  <path class="st10" d="M136.39,196.02s-52.96,48.22-120.31,55.55l.82,25.87s102.62-54.83,113.47-55.94"/>
  <polygon class="st10" points="2.67 285.89 120.34 225.08 121.32 235.66 5.14 297.89 2.67 285.89"/>
  <path class="st11" d="M188.52,157.98c3.32.43,5.48,1.54,5.35,2.73-.07.68-.87,1.31-2.17,1.79-.86.32-1.94.58-3.19.74"/>
  <path class="st11" d="M188.68,157.87c3.32-.43,5.48-1.54,5.35-2.73-.07-.68-.87-1.31-2.17-1.79-.86-.32-1.94-.58-3.19-.74"/>
  <path class="st10" d="M5.14,297.89s72.26,15.03,111.99,59.05c0,0-2.78,8.31,5.97,7.52,12.16-3.41,24.75-6.65,37.74-9.68,37.12-8.65,72.32-14.3,105-17.85,1.63.58,2.92.54,3.79.39,4.16-.7,7.59-5.36,8.54-11.64,0,0,50.82-61.36,90.06-67.99.73-.12,1.43-.24,2.11-.36"/>
  <path class="st10" d="M121.32,235.66s95.58,18.09,135.68,89.92c0,0,.77,9.76,8.84,11.36.95.16,1.91.32,2.86.48"/>
  <path class="st11" d="M238.4,272.12c1.02-1.27,1.7-2.23,1.95-2.58,4.23-4.42,4.13-11.4.04-15.53-4.33-4.37-11.85-4.25-16.19.57-.4.32-.82.66-1.24,1.03"/>
  <path class="st11" d="M235.75,252.04s-.12,7.6-3.18,10.22"/>
  <path class="st11" d="M239.86,255.04s-.13,8.27-3.59,10.53"/>
  <path class="st11" d="M152.04,43.3s7.02-1.51,7.46-7.44c.04-.5.2-1.09.52-1.17,1.08-.24,4.68,5.52,4.06,11.42-.5,4.81-3.63,7.98-4.89,9.13"/>
  <path class="st11" d="M215.85,50.97c-1.68.29-4.84-3.8-5.87-8.53-1.27-5.79,1.68-11.93,2.77-11.8.33.04.55.6.64,1.1,1.09,5.85,8.24,6.57,8.24,6.57,0,0,3.79,11.01-5.78,12.65Z"/>
  <path class="st11" d="M243.89,69.23c8.2-2.53,9.66-19.46,9.66-19.46-1.26-.41-2.52-.83-3.79-1.24"/>
  <path class="st11" d="M244.75,69.79s7.02-7.32,11.66.63c0,0-2.55,8.48-9.04,7.06"/>
  <path class="st11" d="M217.33,36.92c.91-4.62,1.39-10.9-.37-23.79-.53-3.88.72-5.71,1.24-6.35,2.98-3.64,11.21-3.59,19.56,1.92,0,0,18.26,15.34,11.11,44.1,0,0-5.59,15.7-22.31,17.01-1.47.12-3.52-.02-5.85-.96-8.32-3.38-9.93-14.4-10.1-15.71"/>
  <path class="st11" d="M208.51,52.48l2.1.67c1.02-1.35,1.86-2.66,2.57-3.91"/>
  <path class="st16" d="M245.32,18.66s-17.21-4.65-27.27,5.45"/>
  <path class="st16" d="M215.86,42.97"/>
  <path class="st16" d="M250.51,41.04s-15.2-10.49-28.87-2.69"/>
  <path class="st11" d="M160.09,55.96c-3.97-4.2-5.87-8.12-6.88-10.88-1.96-5.36-4.32-10.41-3.87-28.19.1-3.91-1.35-5.6-1.94-6.17-3.37-3.28-11.53-2.32-19.23,4.08,0,0-16.45,17.26-6.15,45.06,0,0,7.29,14.99,24.06,14.44,1.47-.05,3.5-.41,5.71-1.61,7.89-4.28,8.27-15.42,8.3-16.73Z"/>
  <path class="st16" d="M121.77,25.53s16.59-6.52,27.71,2.4"/>
  <path class="st16" d="M119.09,48.34s18.27-15.87,34.65-1.92"/>
  <path class="st4" d="M148.42,147.54c0,3.36-6.89,6.29-12.19,6.91-8.07.95-17.49-2.85-17.56-6.59-.07-3.68,8.9-7.78,16.77-7.23,5.8.41,12.98,3.48,12.98,6.91Z"/>
  <path class="st4" d="M244.92,144.09c-3.13-2.4-9.12-4.26-14.58-3.87-5.8.41-12.97,3.48-12.98,6.91,0,3.35,7.12,6.22,12.19,6.91,6.62.9,11.96-1.6,14.32-2.91"/>
  <path class="st2" d="M164.1,130.83c2,.77,3.44,2.45,3.55,4.48.08,1.47-.55,2.84-1.62,3.85"/>
  <path class="st2" d="M157.76,139.81c-1.32-.89-2.2-2.26-2.28-3.83-.12-2.12,1.24-4.02,3.29-4.97"/>
  <path class="st9" d="M156.98,139.17c-.35.33-.75.63-1.19.87"/>
  <path class="st2" d="M155.83,133.94c.65-.54,2.48-1.93,5.24-2.16,3.09-.26,5.34,1.1,6,1.54"/>
  <path class="st2" d="M166.83,138.23c-.15-.26-1.56-2.54-4.32-2.83-2.09-.22-3.6.84-3.97,1.11"/>
  <path class="st2" d="M156.6,135.16c.68-.53,2.27-1.62,4.56-1.84,3.47-.34,5.95,1.56,6.5,1.99"/>
  <path class="st2" d="M166.32,135.25c.03.45-.32.84-.77.86s-.84-.32-.86-.77.32-.84.77-.86.84.32.86.77Z"/>
  <path class="st2" d="M158,135.13c.01.25.23.44.48.43s.44-.23.43-.48-.23-.44-.48-.43-.44.23-.43.48Z"/>
  <path class="st2" d="M156.89,139.08c-.49-.54-1.85-2.27-1.32-4.27.26.07.62.18,1.03.36.26.12.88.41,1.54.98.24.21.55.5.87.89.21-.04.49-.08.83-.1,0,0,.94-.06,1.88.13,1.03.21,2.56.97,3.96,2.41,0,0-.21.2-.61.45"/>
  <circle class="st2" cx="164.73" cy="136.94" r=".34"/>
  <path class="st11" d="M105.83,75.11c-8.5-1.13-11.76-18.26-11.76-18.26,16.25-9.68,25.83,2.62,25.83,2.62,0,0,2.97,17.92-14.08,15.65Z"/>
  <path class="st11" d="M118.81,42.75c-.69-.43-2.06-1.15-3.94-1.31-2.27-.2-4.01.54-4.76.91-.58.22-1.53.7-2.02,1.66-.78,1.53.11,3.33.62,4.36,2.34,4.75,9.03,8.97,10.97,10.15"/>
  <path class="st11" d="M104.24,83.61c-6.21,2.35-9.77-6.01-9.77-6.01,3.73-8.41,11.52-1.92,11.52-1.92,0,0,3.6,5.9-1.76,7.93Z"/>
  <path class="st12" d="M96.78,119.09c-12.21.68-24.43,1.36-36.64,2.04l-1.28.07c-.81.24-1.68.67-2.05,1.47-1.68,3.64,7.78,12.93,17.8,17.17,3.14,1.33,8.33,3.64,15.2,2.98,3.5-.34,6.3-1.32,8.16-2.14"/>
  <path class="st11" d="M94.32,157.67c-3.15.55-11.8,1.59-20.51-3.17-15.6-8.53-16.48-27.52-16.52-28.57"/>
  <path class="st10" d="M72.48,144.62s2.04,5.75,6.02,2.67c.16.4,1.32,3.3,4.3,4.21,2.87.88,6.23-.43,8.09-3.33"/>
  <path class="st10" d="M81.53,120.68c-6.32-2.13-6.81-11.83-6.81-11.83,4.4,5.29,12.64,6.13,12.64,6.13.06.03,1.38.7,1.49,2.18.07.97-.4,1.91-1.24,2.44-2.03.36-4.06.72-6.09,1.09Z"/>
  <path class="st10" d="M167.69,47.78c.22.34,1.86,2.8,5.05,3.2,3.4.43,5.68-1.83,5.94-2.09-.28,3.8-.57,7.6-.85,11.41-.36,0-6.18-.21-9.03-5.08-1.92-3.27-1.3-6.59-1.11-7.45Z"/>
  <path class="st10" d="M207.9,45.81c-.18.37-1.54,2.99-4.67,3.74-3.33.8-5.85-1.19-6.13-1.42.7,3.75,1.4,7.49,2.11,11.24.36-.05,6.11-.9,8.41-6.05,1.55-3.46.56-6.69.28-7.52Z"/>
  <path class="st12" d="M268.09,122.67c4.84-4.73,7.75-9.76,6.41-11.99-.46-.76-1.37-1.09-2.2-1.24l-1.28.07c-7.12.4-14.23.79-21.35,1.19"/>
  <path class="st11" d="M273.44,123.27c.79-4.18.92-7.68.94-9.29"/>
  <path class="st11" d="M256.67,146.47c1.7-.65,3.18-1.44,4.46-2.28,5.01-3.28,8.12-8.13,10.06-13.02"/>
  <path class="st10" d="M261.36,134.24s-1.39,5.94-5.68,3.32"/>
  <path class="st10" d="M249.67,110.7c6.04-2.82,5.45-12.52,5.45-12.52,0,0-1.2,2.41-6.29,6.27"/>
  <path class="st11" d="M188.89,65.34c2.72-.18,5.64-.38,7.68-2.39,2.66-2.64,2.06-6.68,1.67-9.33,0,0-.88-5.93-5.78-10.69-.62-.6-1.46-1.3-1.46-1.3-.94-.77-1.47-1.1-1.7-1.24-.89-.53-1.41-.69-1.93-.7-.22,0-.38.01-.49.02-.69.06-1.3.33-2.44,1.22-1.73,1.34-2.49,2.13-3.17,3.03-3.69,4.86-3.65,10.81-3.65,10.81.02,3.01.04,6.83,2.93,9.08,2.44,1.9,5.63,1.69,8.36,1.5Z"/>
  <path class="st8" d="M180.38,47.55c1.28.55,3.71,1.38,6.83,1.21,3.91-.21,6.68-1.88,7.86-2.69"/>
  <path class="st8" d="M178.47,52.52c1.66.78,4.57,1.87,8.31,1.93,5.32.07,9.24-2.01,10.9-3.02"/>
  <path class="st8" d="M178.42,57.3c1.52.77,5,2.29,9.64,2.04,4.69-.25,8.02-2.17,9.44-3.11"/>
  <path class="st11" d="M154.69,204.2c1.85-2.65,4.2-5.01,7.2-6.83,5.98-3.61,12.85-4.03,15.86-4.22,3.08-.19,9.94-.6,16.26,2.26,11.2,5.08,15.35,17.79,17.65,26.63,2.34,9,2.57,18.45,2.27,25.31"/>
  <path class="st10" d="M228.45,160.76c.22.66.48,1.66.48,2.89,0,1.1-.19,2-.38,2.63"/>
  <path class="st10" d="M222.1,159.13c.22.66.48,1.66.48,2.89,0,1.1-.19,2-.38,2.63"/>
  <path class="st10" d="M215.69,159.77c.22.66.48,1.66.48,2.89,0,1.1-.19,2-.38,2.63"/>
  <path class="st11" d="M107.02,216.97c.52-2.16,1.21-3.67,1.43-4.13,5.37-7.01,10.55-12.22,14.48-15.8,9.98-9.1,15.53-11.04,17.31-11.61,1.47-.47,2.88-.81,4.19-1.06"/>
  <path class="st11" d="M107,217.04s.01-.04.02-.07"/>
  <path class="st11" d="M106.99,217.1s.01-.04.02-.07"/>
  <path class="st11" d="M128.21,192.16c-2.38-.88-4.86-1.49-7.4-1.73-16.21-1.51-29.99,11.47-46.26,9.3,7.41,1.85,20.17,7.21,16.66,17.05,1.04-.89,4.35-3.47,9.13-3.5,2.42-.02,4.35.62,5.56,1.15"/>
  <path class="st10" d="M124.81,195.56c-5.84-1.65-12.2-.7-18.04.85-8.14,2.16-16.53,6.65-25.13,5.87"/>
  <path class="st10" d="M122.06,195.03s-21.59,7.98-30.85,21.74"/>
  <path class="st11" d="M169.33,214.38c10.4.77,23.68-.31,36.71-7.18"/>
  <path class="st11" d="M197.3,233.69c4.96-1.5,10.08-3.85,15.17-7.36"/>
  <path class="st11" d="M97.31,66.78c-1.86.82-3.16,1.58-4.08,2.24-5.44,3.92-8.67,8.88-8.67,8.88-2.72,4.08-4.29,10.63-5.47,18.24-.91,5.82-.95,10.96-.69,15.08"/>
  <path class="st11" d="M167.62,54.58c-2.77.27-5.54.53-8.31.8"/>
  <path class="st11" d="M185.81,53.91"/>
  <path class="st11" d="M197.69,181.52l-70.9,3.94c-3.38.28-17.41,1.06-29.85-8.81-8.47-6.72-12-15.04-13.34-18.86"/>
  <line class="st11" x1="198.07" y1="181.5" x2="197.69" y2="181.52"/>
  <path class="st11" d="M252.22,166.01c-.83,1.21-1.75,2.32-2.72,3.33,0,0-4.66,4.39-11.15,7.51"/>
  <path class="st11" d="M254.98,137.66c2.36,8.45,2.3,15.23.8,20.66"/>
  <path class="st11" d="M239.4,65.94c1.5,1.26,2.6,2.47,3.34,3.35,1.07,1.86,2.58,4.83,3.63,8.72.72,2.66.98,4.78,1.11,6.09.63,6.13,1.47,20.68,2.22,39.95.84,1.74,1.6,3.42,2.28,5.05"/>
  <path class="st11" d="M248.36,170.46"/>
  <path class="st11" d="M207.93,190.81c.13.11.26.21.38.33l-1.23-18c-.28-3.77-.01-7.07.41-9.71.89-1.13,2.36-2.67,4.55-3.85,6.71-3.59,13.98-.33,15.47.38,8.11,3.9,10.27,12.3,10.57,13.55.22,8.83-.55,16.14-1.36,21.39-2.06,13.34-5.17,18.34-6.2,19.9-2.48,3.76-5.25,6.33-7.19,7.91l-2.46,1.42.66,6.3c1.53,5.52,3.14,13.44,2.57,21.77l.18,1.61"/>
  <circle class="st10" cx="268.16" cy="147.63" r="23.89"/>
  <path class="st8" d="M271.47,130.38c5.08,1.01,9.66,4.28,12.16,9.27,4.3,8.58.82,19.02-7.76,23.32-8.58,4.3-19.02.82-23.32-7.76-4.3-8.58-.82-19.02,7.76-23.32,3.59-1.8,7.51-2.24,11.16-1.51"/>
  <rect class="st10" x="235.15" y="155.85" width="15.11" height="9.57" rx="3.84" ry="3.84" transform="translate(277.7 -128.3) rotate(63.41)"/>
  <path class="st10" d="M206.38,173"/>
  <path class="st10" d="M236.01,169.69l.67-.33c2.16-1.08,3.04-3.72,1.96-5.88l-.69-1.37c-1.08-2.16-3.72-3.04-5.88-1.96l-1.61.81"/>
  <path class="st10" d="M206.38,173l-5.75,2.88c-2.11,1.06-2.95,3.67-1.86,5.84l.69,1.37c1.08,2.16,3.68,3.06,5.79,2l2.11-1.06"/>
  <path class="st11" d="M168.85,131.46c.74.24,1.47.48,2.21.72"/>
  <line class="st11" x1="121.15" y1="131.46" x2="168.85" y2="131.46"/>
  <line class="st10" x1="120.55" y1="126.41" x2="143.35" y2="131.46"/>
  <line class="st11" x1="168.01" y1="139.96" x2="169.73" y2="139.29"/>
  <line class="st11" x1="148.56" y1="139.63" x2="168.85" y2="139.63"/>
  <line class="st11" x1="121.15" y1="139.63" x2="148.56" y2="139.63"/>
  <path class="st8" d="M169.27,140.04s-7.45,4.97-10.05,4.51"/>
  <path class="st8" d="M169.93,139.77s-6.22,6.44-8.86,6.54"/>
  <path class="st11" d="M118.28,121.95c10.68-.09,22.64.47,35.55,2.19,4.73.63,9.26,1.37,13.58,2.19"/>
  <path class="st2" d="M199.81,130.83c-2,.77-3.44,2.45-3.55,4.48-.08,1.47.55,2.84,1.62,3.85"/>
  <path class="st2" d="M206.15,139.81c1.32-.89,2.2-2.26,2.28-3.83.12-2.12-1.24-4.02-3.29-4.97"/>
  <path class="st9" d="M206.93,139.17c.35.33.75.63,1.19.87"/>
  <path class="st2" d="M208.08,133.94c-.65-.54-2.48-1.93-5.24-2.16-3.09-.26-5.34,1.1-6,1.54"/>
  <path class="st2" d="M197.08,138.23c.15-.26,1.56-2.54,4.32-2.83,2.09-.22,3.6.84,3.97,1.11"/>
  <path class="st2" d="M207.31,135.16c-.68-.53-2.27-1.62-4.56-1.84-3.47-.34-5.95,1.56-6.5,1.99"/>
  <path class="st2" d="M197.59,135.25c-.03.45.32.84.77.86s.84-.32.86-.77-.32-.84-.77-.86-.84.32-.86.77Z"/>
  <path class="st2" d="M205.91,135.13c-.01.25-.23.44-.48.43s-.44-.23-.43-.48.23-.44.48-.43.44.23.43.48Z"/>
  <path class="st2" d="M207.02,139.08c.49-.54,1.85-2.27,1.32-4.27-.26.07-.62.18-1.03.36-.26.12-.88.41-1.54.98-.24.21-.55.5-.87.89-.21-.04-.49-.08-.83-.1,0,0-.94-.06-1.88.13-1.03.21-2.56.97-3.96,2.41,0,0,.21.2.61.45"/>
  <circle class="st9" cx="199.18" cy="136.94" r=".34"/>
  <path class="st11" d="M195.06,131.46c-.74.24-1.47.48-2.21.72"/>
  <line class="st11" x1="242.76" y1="131.46" x2="195.06" y2="131.46"/>
  <line class="st10" x1="243.36" y1="126.41" x2="220.56" y2="131.46"/>
  <line class="st11" x1="195.9" y1="139.96" x2="194.18" y2="139.29"/>
  <line class="st11" x1="215.34" y1="139.63" x2="195.06" y2="139.63"/>
  <line class="st11" x1="242.76" y1="139.63" x2="215.34" y2="139.63"/>
  <path class="st8" d="M194.64,140.04s7.45,4.97,10.05,4.51"/>
  <path class="st8" d="M193.98,139.77s6.22,6.44,8.86,6.54"/>
  <path class="st11" d="M245.63,121.95c-10.68-.09-22.64.47-35.55,2.19-4.73.63-9.26,1.37-13.58,2.19"/>
  <path class="st10" d="M253.34,138.23"/>
</svg>