<?xml version="1.0" encoding="UTF-8"?>
<svg id="Layer_1" xmlns="http://www.w3.org/2000/svg" version="1.1" viewBox="0 0 365 335">
  <!-- Generator: Adobe Illustrator 29.7.1, SVG Export Plug-In . SVG Version: 2.1.1 Build 8)  -->
  <defs>
    <style>
      .st0 {
        fill: #5fa8a1;
      }

      .st1, .st2, .st3, .st4, .st5, .st6, .st7, .st8, .st9, .st10, .st11, .st12, .st13, .st14, .st15, .st16 {
        fill: none;
      }

      .st1, .st3, .st4, .st7, .st8, .st9, .st10, .st13 {
        stroke: #000;
      }

      .st1, .st3, .st4, .st11, .st12, .st13, .st14, .st15 {
        stroke-miterlimit: 10;
      }

      .st1, .st11 {
        stroke-width: .5px;
      }

      .st17 {
        fill: #25544e;
      }

      .st18 {
        fill: #bf6421;
      }

      .st2, .st5, .st6, .st7, .st8, .st9, .st10, .st16 {
        stroke-linecap: round;
        stroke-linejoin: round;
      }

      .st2, .st5, .st6, .st11, .st12, .st14, .st15, .st16 {
        stroke: #231f20;
      }

      .st2, .st8 {
        stroke-width: 2px;
      }

      .st19 {
        fill: #fdbb28;
      }

      .st4, .st14 {
        stroke-width: .75px;
      }

      .st20 {
        fill: #fff;
      }

      .st5, .st10 {
        stroke-width: 4px;
      }

      .st21 {
        fill: #44968e;
      }

      .st6, .st9, .st12, .st13 {
        stroke-width: 3px;
      }

      .st22 {
        fill: #0f2d29;
      }

      .st23 {
        fill: #bc8a26;
      }

      .st24 {
        fill: #fb7300;
      }

      .st25 {
        fill: #194340;
      }

      .st26 {
        fill: #edb38b;
      }

      .st27 {
        fill: #addcd8;
      }
    </style>
  </defs>
  <path class="st6" d="M258.64,166.3c1.56,3.53,4.96,5.62,7.96,5.27,2.22-.26,3.81-1.82,4.16-2.17,1.62-1.66,1.81-3.51,1.84-4.1"/>
  <path class="st6" d="M235.04,36.8c-1.07-4.55-1.82-10.77-.87-23.7.29-3.89-.95-5.64-1.46-6.25-2.91-3.46-10.4-2.95-17.74,2.99,0,0-15.88,16.28-7.89,44.51.29,1.68,1.6,7.72,8.03,11.9,4.19,2.72,8.51,3.33,9.6,3.46,2.2.27,5.95.73,9.5-1.02.66-.32,2.1-1.05,3.24-2.44,2.33-2.84,1.67-6.33.41-12.42-.28-1.35-.56-2.45-.75-3.14"/>
  <path class="st12" d="M208.48,20.54s15.65-5.99,25.48,4.2"/>
  <path class="st12" d="M204.84,42.75s13.5-12.11,26.53-4.6"/>
  <path class="st5" d="M217.9,107.75c2.17-1.7,6.05-4.12,10.86-4.1,9.75.05,17.51,10.16,17.5,18.66,0,8.8-8.34,18.9-17.5,18.66-4.74-.13-8.4-2.98-10.35-4.84"/>
  <path class="st15" d="M216.25,115.15c1.65-1.78,6.33-6.35,13.09-6.64,7.59-.32,12.88,4.94,14.45,6.64"/>
  <path class="st15" d="M242.52,132.5c-.34-.95-3.45-9.3-10.16-10.87-5.06-1.18-8.9,2.27-9.83,3.17"/>
  <path class="st15" d="M217.96,119.61c1.74-1.75,5.77-5.29,11.39-5.64,8.52-.53,14.32,6.68,15.59,8.34"/>
  <path class="st15" d="M240.76,150.57c-.21,3.85-8.29,6.77-14.4,7.14-9.31.57-19.86-4.38-19.7-8.67.15-4.22,10.7-8.35,19.68-7.21,6.62.84,14.64,4.82,14.43,8.74Z"/>
  <path class="st14" d="M241.69,120.83c0,1.6-.9,2.9-2,2.9s-2-1.3-2-2.9.9-2.9,2-2.9,2,1.3,2,2.9Z"/>
  <path class="st11" d="M221.39,119.76c0,.9.5,1.62,1.12,1.62s1.12-.73,1.12-1.62-.5-1.62-1.12-1.62-1.12.73-1.12,1.62Z"/>
  <path class="st15" d="M215.49,118.14c.64.3,1.5.77,2.47,1.53.62.48,2.08,1.7,3.63,3.91.56.81,1.28,1.95,2,3.45.51-.1,1.21-.2,2.04-.22,0,0,2.31-.04,4.58.87,2.49,1,6.11,4.09,9.35,9.68,0,0-9.24,11.66-21.02-2.56,0,0-4.92-7.86-3.04-16.66Z"/>
  <ellipse class="st11" cx="237.57" cy="127.5" rx=".84" ry="1.22"/>
  <path class="st6" d="M239.17,56.82c1.99.51,3.99,1.02,5.98,1.53"/>
  <path class="st6" d="M259.42,73.51c7.87,25.81,7.7,40.53,5.81,49.35-.55,2.54-1.71,6.82-.95,12.6,1.34,10.14,7.59,13.26,8.86,21.93,1.15,7.81-1.21,14.64-3.42,19.22h0c-.03.07-2.21,5.26-7.03,10.76,0,0-1.72,2.03-5.71,4.41-7.92,4.72-15.43,5.99-19.33,6.48-10.77,1.35-45.01,2.08-91.42.26-2.82-.38-7.01-1.17-11.82-2.94-14.84-5.47-23.01-15.75-25.68-19.21-6.74-8.75-9.39-16.98-10.62-22.85-1.35-6.43-2.05-15.76-2.05-28.16,2.95-41.41,12.3-52.41,12.3-52.41,2.8-3.29,5.52-5.47,7.11-6.64,9.1-6.68,20.46-9.39,70.45-9.69"/>
  <path class="st6" d="M179.48,205.45c-1.11,2.75-2.19,5.67-3.18,8.76-2.83,8.79-4.42,17-5.27,24.25.13,1.47,1.2,11.46,9.98,17.29,1.61,1.07,9.53,6.02,17.96,3.05,2.76-.97,4.73-2.49,5.96-3.63,1.29-4.05,2.68-10.23,2.17-17.73-.3-4.43-1.17-8.22-2.11-11.19"/>
  <path class="st2" d="M179.02,254.62c-.15-.8-.27-1.98-.06-3.39.18-1.26.57-2.26.9-2.95"/>
  <path class="st2" d="M186.13,257.56c-.15-.8-.27-1.98-.06-3.39.18-1.26.57-2.26.9-2.95"/>
  <path class="st2" d="M194.2,258.62c-.15-.8-.27-1.98-.06-3.39.18-1.26.57-2.26.9-2.95"/>
  <path class="st6" d="M186.39,50.12c.04-1.15.13-2.22.25-3.13.3-2.19.82-3.92,1.15-4.87,2.33-.46,4.04-.27,5.17,0,0,0,2.51.59,8.6,5.89h0c.65,1.05,2.97,5.09,1.2,9.62-.3.77-2.19,5.59-6.86,6.46-.51.1-2.18.41-3.94-.21-4.73-1.66-5.74-8.56-5.57-13.77"/>
  <path class="st6" d="M204.64,34.41c-.43-.5-1.28-1.35-2.48-1.63-1.45-.34-2.6.34-3.09.69-.38.2-1.01.65-1.36,1.65-.55,1.59-.05,3.56.24,4.69,1.34,5.21,5.48,10.11,6.69,11.49"/>
  <path class="st6" d="M186.33,68.7c-.45.19-.83.36-1.33.34-1.66-.06-3.22-2.09-3.97-5.12-.73-4.11.81-7.05,2.49-7.31,1.34-.21,3.02,1.22,4.21,3.11.38.35,1.93,1.83,1.92,4.06-.01,2.04-1.33,4.07-3.33,4.92Z"/>
  <path class="st2" d="M209.21,320.31c.2-.32,1.32-2.18.7-4.49-.47-1.74-1.65-2.72-2.06-3.03"/>
  <path class="st2" d="M205.51,326.45c.2-.32,1.32-2.18.7-4.49-.47-1.74-1.65-2.72-2.06-3.03"/>
  <path class="st6" d="M226.95,297.41c-1.27-.83-3.09-2.19-4.79-4.26-4.05-4.93-4.89-10.81-4.8-21.79.09-12.22.14-18.32,1.81-25.78,2.21-9.85,5.82-25.97,18.77-33.07.17-.09.33-.18.49-.26"/>
  <path class="st6" d="M226.36,226.27c3.07,1.33,6.96,2.7,11.61,3.65,1.76.36,3.44.62,5.01.81"/>
  <path class="st6" d="M219.51,248.98s10.66,5.03,26.93,7.58"/>
  <path class="st6" d="M217.72,271.83s9.84,4.23,25.26,6.91"/>
  <polygon class="st2" points="259.15 175.99 265.72 172.38 260.37 168.45 259.15 175.99"/>
  <path class="st16" d="M156.23,118.87c-.91,11.2-.91,16.87,0,17,.43.06,1.05-1.1,1.88-3.48-.35,3.81-.97,12.94,1.18,18.97.38,1.05.7,1.62,1.06,1.62,1.32,0,2.35-7.59,3-13.8"/>
  <path class="st2" d="M145.73,116.39c-7.1-2.85-7.05-13.99-7.05-13.99,4.71,6.34,14.09,7.83,14.09,7.83.1,2.43-1.07,4.66-3.02,5.7-1.74.93-3.49.59-4.03.46Z"/>
  <path class="st6" d="M170.19,301.87c-3.84,11.2-1.92,22.09,4.67,26.89,4.32,3.14,9.77,3.03,13.96,2.94,4.51-.1,12.57-.27,17.64-6.27.96-1.13,4.55-5.73,3.71-12.02-.66-4.89-3.6-7.95-4.6-8.91,0,0-2.01-2.62-5.02-2.62"/>
  <path class="st16" d="M258.32,50.34c-.13.41-1.03,3.37-.33,5.21.74,1.95,2.66.97,2.88.85,0,1.1-.17,3.1-1.36,5.27-.86,1.57-1.94,2.66-2.72,3.33-.15.08-1.86.97-2.91.29-.57-.37-.69-1.04-.75-1.52-.32-2.77,1.03-5.57,1.34-6.21,1.17-2.38,2.45-4.79,3.85-7.22Z"/>
  <path class="st6" d="M246.35,55.05c-1.35,2.65-1.26,5.02-1.2,5.77.09,1.22.57,4.74,3.76,7.53,4.76,4.15,11.21,2.85,11.47,2.79,5.92-1.29,8.31-6.02,8.58-6.57,0,0,3.69-5.51,2.84-12.83-.11-.93-.35-2.08-.35-2.08-.27-1.28-.5-1.93-.61-2.2-.4-1.05-.76-1.54-1.22-1.91-.19-.16-.36-.25-.46-.32-.67-.43-1.43-.62-3.14-.68-2.58-.09-3.87.05-5.18.32-3.44.72-8.32,3.1-11.49,6.43h0c-.82.7-2.07,1.93-3,3.76Z"/>
  <path class="st16" d="M257.35,47.24c.75,1.34,2.33,3.71,5.28,5.71,3.71,2.52,7.49,3.05,9.17,3.19"/>
  <path class="st16" d="M261.02,58.22c3.76,2.23,7.31,2.94,9.1,3.19"/>
  <path class="st16" d="M251.84,50.03c.66,1.29,1.78,3.15,3.6,5.07"/>
  <path class="st16" d="M258.27,63.92c3.55,1.93,6.8,2.46,8.42,2.64"/>
  <path class="st16" d="M247.75,53.96c.67,1.42,2.21,4.26,5.33,6.91"/>
  <path class="st6" d="M197.06,211.72"/>
  <path class="st6" d="M217,107.49c-1.44,3.37-3.07,8.5-2.88,14.82.16,5.34,1.56,9.73,2.88,12.82"/>
  <path class="st6" d="M150.08,286.26"/>
  <path class="st6" d="M135.49,252.08c-.53-.26-1.3-.62-2.25-1-7.38-2.9-14.11-1.95-15.95-1.66-7.35,1.15-12.52,5.15-23.07,12.87-8.21,6.01-7.82,7.11-11.91,9.25-12.52,6.54-24.76,4.85-29.3,3.99,0,0-1.6,4.92,3.76,9.42,9.22,7.74,22.47,8.36,36.58,7.27,7.56-.59,10.52-1.94,12.45-3.13,2.12-1.31,3.31-2.64,7.78-5.37,3.38-2.06,4.96-2.69,5.96-3.03,3.15-1.1,5.82-1.28,7.12-1.32,1.13-.03,3.12,0,6.39.71.65.14,1.24.29,1.78.44.93.25,1.72.51,2.33.72"/>
  <path class="st6" d="M53.74,275.65c.45-1.6,1.26-3.9,2.75-6.42,1.46-2.47,2.3-3.72,3.35-3.94,2.15-.45,5.21,3.61,7.78,9.61"/>
  <path class="st6" d="M69.34,274.95c-.01-1.66.11-4.1.84-6.94.71-2.78,1.17-4.21,2.11-4.72,1.94-1.03,6.01,2.01,10.16,7.05"/>
  <path class="st6" d="M83.53,270.5c-.65-1.52-1.48-3.82-1.9-6.72-.42-2.83-.55-4.34.12-5.16,1.39-1.7,6.32-.47,12.09,2.58"/>
  <path class="st6" d="M94.73,261.45c-.52-1.57-1.15-3.93-1.34-6.86-.18-2.86-.19-4.37.55-5.14,1.52-1.58,6.34.06,11.83,3.58"/>
  <path class="st6" d="M107.22,252.95c-.06-1.66,0-4.1.66-6.95.64-2.79,1.06-4.24,1.99-4.77,1.91-1.08,6.06,1.85,10.33,6.78"/>
  <path class="st6" d="M121.86,247.67c.78-1.46,2.07-3.54,4.07-5.68,1.96-2.09,3.05-3.13,4.12-3.12,2.19.03,4.31,4.65,5.52,11.06"/>
  <path class="st2" d="M73.12,204.14c10.91,1.62,20.77-5.36,34.54-5.95,4.07-.17,6.87.47,8.92.96,6.62,1.57,12.67,5.77,12.67,5.77,3.24,2.16,9.07,5.74,16.89,10.47"/>
  <path class="st2" d="M116.31,199.61s-22.9,7.05-33.33,20.83"/>
  <path class="st2" d="M103.73,226.42s1.6-12.92,13.94-26.47c0,0,5.7,26.77,4.62,32.94"/>
  <path class="st6" d="M111.22,225.1c1.84-.06,3.66.31,5.31,1.13,3.97,1.96,5.43,5.72,5.76,6.65.48-1.08,1.92-3.9,5.15-5.7,2.56-1.43,4.94-1.49,5.99-1.5,3.56-.05,6.21,1.33,7.38,2.04.24-.28.53-.6.89-.95"/>
  <path class="st6" d="M134.13,203.87l-1.09-.55s-10.23-8.26-19.87-9.05c-9.64-.79-35.81,9.64-46.64,7.48,0,0,21.45,6.3,16.33,18.69,0,0,17.71-9.64,21.06,7.28,2.2-1.65,4.77-2.54,7.31-2.62"/>
  <path class="st6" d="M147.58,213.1c-5.3-3.83-10.47-7.31-15.45-10.48"/>
  <path class="st2" d="M117.67,199.94s20.61,13.33,23.14,27.78"/>
  <polyline class="st16" points="157.94 115.56 170.29 130.31 180.58 142.59"/>
  <path class="st6" d="M179.57,142.74c-1.66-.09-8.81-.71-14.82-8.54-5.19-6.75-6.37-14.73-6.66-17.25.14.18.29.36.43.53"/>
  <path class="st6" d="M154.47,160.6c-1.5-1.72-7.74-9.31-6.57-22.42,1.01-11.29,6.91-19.76,8.84-22.36-.02.31-.04.61-.06.92"/>
  <path class="st6" d="M206.4,304.04c2.89-.43,22.91-3.62,33.13-16.78,4.02-5.17,6-10.9,6-10.9.87-2.51,1.4-4.96,1.7-7.42.39-3.34.31-5.94.22-7.49-1.54-26.53-6.24-42.4-6.24-42.4-2.41-6.56-4.82-13.13-7.23-19.69"/>
  <path class="st6" d="M147.78,213.16c-2.8,8.23-5.15,14.83-7,19.92-1.24,3.4-3.38,9.19-4.93,17.24-1.42,7.33-2.36,12.49-1.27,19.02,1.62,9.63,6.66,16.16,8.23,18.06,9.83,11.97,23.94,14.06,27.38,14.47"/>
  <path class="st6" d="M152.8,199.41c-1.7,4.88-3.29,9.39-4.77,13.55"/>
  <polygon class="st21" points="182.57 57.23 138.69 59.7 125.32 61.95 117.67 66.33 109.76 72.46 104.42 81.66 100.33 97.22 97.74 116.23 96.05 126.43 96.05 141.07 98.89 157.87 107.26 175.46 119.46 188.32 125.88 192.65 138.69 198.04 171.03 200.44 197.06 200.44 225.85 200.19 244.94 197.93 262.69 188.46 272.6 173.31 273.44 160.03 266.7 142.72 264.28 136.55 264.58 126.13 266.7 114.26 264.71 96.11 260.87 80.56 259.15 73.48 248.92 69.43 244.94 63.9 243.8 59.02 239.18 56.91 182.57 57.23"/>
  <path class="st21" d="M152.74,199.6l-4.71,13.36-10.89,28.9-3.03,16.77,3.84,21.11,9.64,12.88,10.8,6.13,8.09,2.5,3.71.61-1.96,12.76v5.69l5.13,7.16,7.23,3.73,16.47-.34,10.8-7.36,3.24-6.95-3.24-9.3-2.68-3.21,5.92-.89,15.85-5.74-7.44-7.31-3.05-13.39.89-25.48c1.27-6.13,2.53-12.27,3.8-18.4,2.65-4.53,5.3-9.06,7.95-13.59l7.09-3.85,2.25-4.42-3.77-11.03-3.27-.98-78.66.64Z"/>
  <polygon class="st21" points="137.14 251.23 124.36 249.11 117.28 249.41 108 252.78 99.54 258.62 88.55 267.32 81.28 273.08 72.01 275.28 65.37 276.25 57.53 276.25 52.84 276.25 53.74 281.25 63.24 289 73.12 292.62 82.98 293.46 99.54 291.39 108.58 287.08 114.53 283.13 119.52 280.68 126.64 279.36 132.13 279.88 139.25 281.48 139.25 265.26 137.14 251.23"/>
  <polygon class="st21" points="148.03 213.83 139.25 207.28 125.76 199.41 115.67 195.65 105.21 194.22 97.69 196.7 80.13 200.82 71.25 204.03 74.19 204.58 85.67 202.92 97.96 199.6 107.2 198.16 114.89 198.76 122.43 201.17 132.13 206.28 135.57 208.94 145.11 214.76 146.73 216.41 148.03 213.83"/>
  <polygon class="st24" points="246.26 63.92 246.62 53.96 252.27 49.3 263.28 44.51 268.64 45.87 271.04 50.34 270.71 60.86 267.24 67.09 260.03 71.37 248.92 69.43 246.26 63.92"/>
  <path class="st19" d="M76.61,206.19l7.53,8.22s-2.11,4.85-1.69,4.85,11.39-1.54,11.39-1.54l6.48,2.63,3.41,6.06,4.63-.89,8.17.7,5.33,3.24.43,3.41,4.17-4.38,5.66-3.4,7.12.68,3.47,1.95,3.09-8.71,1.22-3.62-6.21-3.67-14.85-8.69-8.12-3.09-8.21-1.59-3.85-.19-4.8.81-17.22,4.23-7.87,2.12.72.87Z"/>
  <polygon class="st19" points="228.7 296.44 225.96 296.44 219.51 287.82 217.72 271.29 218.95 251.23 221.05 237.85 228.7 220.44 237.53 212.75 241.16 217.16 245.79 243.39 248.06 267.04 242.41 284.94 236.79 290.34 228.7 296.44"/>
  <path class="st19" d="M156.74,116.55l-4.49,6.64-4.49,17.78,1.37,10.37,3.66,7.09,1.57,2.87s13.02,8.04,25.21-18l-10.74-3.79-5.47-8.47-4.25-8.73-2.36-5.76Z"/>
  <polygon class="st19" points="237.57 48.71 238.41 56.61 239 65.54 233.43 69.04 223.62 69.98 212.55 64.26 206.19 55.1 204.9 41.32 207.33 20.24 214.36 11.94 221.22 6.84 231.1 5.56 233.72 8.67 233.86 18.54 234.92 37.34 237.57 48.71"/>
  <polygon class="st19" points="257.55 51.69 257.55 53.96 258.53 56.14 259.2 56.61 261.02 56.61 260.87 58.67 259.4 61.86 257.12 64.95 255.22 65.52 253.64 65.4 252.84 63.92 253.46 60.22 255.71 55.1 257.55 51.69"/>
  <polygon class="st24" points="185.25 57.59 190.09 62.82 188.5 68.18 184.74 69.04 180.27 64.73 181.07 59.82 182.57 57.23 185.25 57.59"/>
  <polygon class="st24" points="186.51 53.96 186.38 44.51 189.75 41.84 193.52 42.24 196.93 44.14 202.71 49.3 203.42 55.1 201.06 59.08 198.21 63.92 191.12 64.26 186.38 57.41 186.51 53.96"/>
  <polygon class="st24" points="206.02 50.03 203.92 32.69 201.05 32.71 197.5 36.16 199.13 42 202.27 49.3 206.02 50.03"/>
  <polygon class="st24" points="236.95 49.12 241.46 43.35 242.16 35.05 239.17 31.5 235.51 37.77 231.78 38.78 231.37 42.73 232.97 47.24 236.95 49.12"/>
  <path class="st24" d="M148.2,116.95c.77-.71,4.83-4.92,4.83-4.92l-1.58-1.72-10.47-5.27-1.88-1.72-.41,4.4,1.85,5.07,4.5,2.77,3.16,1.39Z"/>
  <polygon class="st24" points="54.27 275.65 65.57 276.71 67.61 276.04 64.95 269.69 60.68 265.33 56.26 269.63 54.27 275.65"/>
  <polygon class="st24" points="69.34 275.8 79.88 272.69 83.53 270.5 75.9 265.08 73.12 264.17 70.36 267.35 69.34 275.8"/>
  <polygon class="st24" points="85.19 269.98 93.3 262.25 92.14 260.34 82.98 257.94 81.28 259.74 82.45 267.5 83.53 270.5 85.19 269.98"/>
  <polygon class="st24" points="96.05 259.74 105.78 254.1 104.25 252.95 97.45 248.29 94.48 248.29 93.84 251.45 93.94 258.55 96.05 259.74"/>
  <polygon class="st24" points="110.19 251.45 119.19 249.03 119.19 246.98 114.69 242.74 112.07 241.27 109.63 241.4 107.67 246.98 107.21 251.45 110.19 251.45"/>
  <polygon class="st24" points="122.43 248.85 128.19 249.52 134.6 252.01 135.4 249.11 133.44 242.59 130.96 238.12 129.24 239.06 126.46 241 123.69 245.69 122.43 248.85"/>
  <path class="st26" d="M236.31,145.41l1.03.95c.95.74,1.91,1.48,2.86,2.21v2.33l-.89,2.17-1.85.99-1.15.67-3.86,1.77-5.16,1.04h-4.41l-4.03-.52-4.93-1.72-4.72-2.51-1.9-2.34-.25-1.66,1.06-1.84c.34-.4.76-.84,1.28-1.29.73-.63,1.44-1.08,2.04-1.4.65-.17,1.3-.34,1.95-.51l3.19-.97,4.21-.94c1.67-.3,4.36-.58,7.57.06,3.81.76,6.52,2.45,7.97,3.51Z"/>
  <polygon class="st22" points="218.86 108.06 217 112.32 217 114.38 224.09 109.51 227.6 108.71 231.65 108.71 234.24 109.12 239.28 111.33 240.37 111.68 239.7 108.31 229.2 105.04 222.94 105.04 218.86 108.06"/>
  <polygon class="st25" points="245.33 120.83 244.66 121.39 241.69 118.82 237.19 115.76 231.45 113.95 227.3 114.25 221.39 116.78 219 118.78 218.07 119.76 216.25 118.14 216.31 114.38 219.09 112.7 223.36 109.83 228.24 108.71 234.89 108.92 237.91 110.31 243.79 112.75 245.33 120.83"/>
  <polygon class="st0" points="222.5 124.67 224.46 123.28 227.57 121.79 230.39 121.41 233.79 121.9 237.7 124.73 239.7 127.11 241.45 130.36 242.74 131.46 246.14 121.03 244.93 121.7 243.03 120.17 238.96 116.72 233.7 114.38 229.81 114.07 224.74 114.85 222.52 116.29 219.42 118.42 218.07 119.76 219.33 121.08 221.69 123.73 222.5 124.67"/>
  <polygon class="st27" points="242.15 130.96 238.78 126.02 235.1 122.32 229.16 121.31 224.89 122.77 222.75 124.12 222.5 124.67 223.14 126.14 223.48 127.22 226.2 126.55 229.48 127.16 232.52 129.02 235.58 131.75 237.7 134.31 239.03 135.74 241.69 132.96 242.15 130.96"/>
  <polygon class="st20" points="215.74 118.78 217.56 119.3 220.07 121.9 223.14 126.14 223.71 126.94 227.3 126.94 231.09 128.11 234.22 130.46 239.03 135.74 236.72 137.4 231.45 139.7 225.94 139.7 218.9 135.74 215.55 128.11 215.74 118.78"/>
  <polygon class="st20" points="221.55 119 222.05 118.24 223 118.24 223.39 118.78 223.74 120.18 223.13 121.01 222.43 121.51 222.08 121.24 221.55 120.45 221.55 119"/>
  <path class="st20" d="M241.63,122.17v-2.98l-1.5-1.15-1.27.14-.78,1.29s-.18,1.8-.18,1.84.39,1.63.39,1.63l.9.79,1.77-.34.66-1.22Z"/>
  <polygon class="st20" points="238.23 126.88 238.32 127.96 237.7 128.58 236.87 128.36 236.72 127.55 236.89 126.49 237.7 126.29 238.23 126.88"/>
  <polygon class="st20" points="260.31 170.05 263.47 171.6 264.53 172.73 261.46 174.26 259.74 175.7 259.15 173.98 260.31 170.05"/>
  <path class="st18" d="M188.22,57.8c3.95,2.87,8.58,2.17,11.26-1.43,2.51-3.37,2.35-7.99,2.3-8.89.82.98,1.64,1.96,2.45,2.94-.1,2.23-.21,4.46-.31,6.68-.99,1.85-1.97,3.7-2.96,5.54-1.75.7-3.5,1.41-5.25,2.11-.87-.15-1.74-.29-2.6-.44-.72-.47-1.66-1.21-2.61-2.36-.73-.89-1.26-1.77-1.65-2.52-.21-.55-.43-1.09-.64-1.64Z"/>
  <path class="st18" d="M181.71,64.5c1.74,1.71,3.77,1.29,4.95-.85,1.1-2.01,1.03-4.76,1.01-5.29.36.58.72,1.17,1.08,1.75-.05,1.33-.09,2.65-.14,3.98-.43,1.1-.87,2.2-1.3,3.3-.77.42-1.54.84-2.31,1.26-.38-.09-.76-.17-1.14-.26-.32-.28-.73-.72-1.15-1.41-.32-.53-.56-1.06-.73-1.5-.09-.33-.19-.65-.28-.98Z"/>
  <path class="st17" d="M234.67,201.24c.79,1.05,1.47,2.92.74,4.21-1.93,3.38-12.57.66-17.51-.61-4.07-1.04-11.41-2.92-11.24-4.49.11-1,6.54-1.11,19.42-1.35,3.36-.06,6.85-.08,8.59,2.24Z"/>
  <path class="st17" d="M266.69,182.34c-3.16,1.34-7.92,3.21-13.85,4.98-13.67,4.08-24.64,4.97-43.66,5.64-47.88,1.68-64.84-.93-78.95-7.05-2.78-1.21-4.47-2.13-5.53-2.73-16.51-9.43-24.06-25.56-27.62-35.94.51,11.77,4.29,19.35,6.67,23.21,1.51,2.44,3.06,4.38,4,5.55,2.3,2.87,6.96,8.59,14.76,13.65,8.98,5.83,17.3,7.65,21.45,8.52,2.35.49,4.56.83,8.83,1.26,15.06,1.51,27.22,1.34,28.72,1.32,34.74-.59,48.22-1.95,59.24-4.16,4.82-.97,13.19-2.9,20.98-9.36,2.27-1.88,3.92-3.67,4.94-4.87Z"/>
  <path class="st18" d="M199.11,45.09c.66-.08,2.39-.38,3.87-1.76,2.32-2.14,2.09-5.1,2.05-5.51v10.61c-.89-.08-1.79-.16-2.68-.24-1.08-1.04-2.17-2.07-3.25-3.11Z"/>
  <path class="st23" d="M320.17,117.43"/>
  <path class="st17" d="M169.6,301.77c6.68-.04,8.27.54,8.36,1.12.09.6-1.45,1.15-3.32,2.39-2.94,1.95-4.79,4.38-5.94,6.25.3-3.25.6-6.51.9-9.76Z"/>
  <path class="st17" d="M176.17,217.13c-.32,1.32-4.68,20.8,8.3,33.45,5.5,5.36,11.85,7.29,15.45,8.05-1.97.55-3.93,1.1-5.9,1.65l-15.01-5.66-7.16-11.84-.05-9.9,4.37-15.75Z"/>
  <path class="st17" d="M134.48,256.57c-3.15,4.56-8.97,11.79-18.43,17.88-9.14,5.89-17.5,8.03-21.09,8.81-5.18,1.12-19.09,3.94-34.01-2.3-3.47-1.45-6.17-3.05-8.01-4.25.47,1.66,1.22,3.72,2.49,5.9.75,1.3,1.55,2.41,2.29,3.33,5.58,2.04,11.16,4.08,16.74,6.13h23.6l15.03-8.05,10.37-4.33,15.33,1.7c-1.16-2.39-2.35-5.35-3.22-8.84-1.61-6.45-1.5-12.07-1.09-15.97Z"/>
  <path class="st23" d="M78.1,206.77c1.62-.3,4.02-.73,6.93-1.2,19.89-3.18,29.83-4.77,38.46-1.21,1.61.67,5.32,2.81,12.73,7.09,4.1,2.36,7.41,4.36,9.57,5.68.12-.58.23-1.16.35-1.74l-16.89-10.47-12.67-5.77-8.92-.96-13.82,1.76-10.31,3.58-8.59.81,3.16,2.44Z"/>
  <path class="st23" d="M217.35,275.85c1.95,7.72,7.79,13.22,14.35,13.79,4.78.42,8.5-1.91,9.96-2.94-4.04,3.04-8.08,6.07-12.13,9.11l-3.57.63-6.75-7.66c-.62-4.31-1.24-8.62-1.86-12.93Z"/>
  <path class="st23" d="M208.98,56.61c6.25,5.99,14.57,8.26,21.45,5.67,4-1.51,6.54-4.3,7.9-6.13v10.92l-7.54,1.98-15.24-1.31-5.5-6.32-1.06-4.81Z"/>
  <path class="st23" d="M254.84,57.23c-.71,1.81-.45,3.79.7,5.15.96,1.13,2.24,1.45,2.72,1.55-.92.44-1.84.88-2.76,1.32l-2.13-.32-.54-2.48,2-5.21Z"/>
  <path class="st23" d="M173.99,152.97c-1.77-.46-11.67-3.23-17.25-13.27-4.7-8.45-3.34-16.65-2.89-18.87,1.14-1.67,2.29-3.33,3.43-5l4.98,15.64,8.08,8.05,8.26,2.34.97,1.45c-.61,1.4-1.35,2.9-2.23,4.47-1.11,1.97-2.25,3.7-3.35,5.19Z"/>
  <path class="st18" d="M232.86,39.22c-.15,2.86,1.88,5.18,4.22,5.39,1.75.16,3.53-.88,4.5-2.61-.8,2.27-1.6,4.54-2.4,6.81h-5.22l-3.33-6.06c.74-1.18,1.49-2.35,2.23-3.53Z"/>
  <path class="st18" d="M246.9,53.05c.63,5.4,2.25,11.08,6.45,13.12,6.81,3.31,17.03-4.63,17.69-3.58.32.51-1.81,2.75-10.8,9.45l-8.19-2.07-6.48-5.21-.41-6.16,1.47-4.65c.09-.3.18-.6.28-.91Z"/>
  <path class="st18" d="M139.49,103.67c.43,1.29,1.61,4.27,4.59,6.79,3.12,2.64,6.43,3.27,7.77,3.45-1.37.87-2.73,1.74-4.1,2.61l-5.84-2.54-2.63-6.72c.07-1.2.14-2.39.21-3.59Z"/>
  <path class="st9" d="M258.64,166.3c1.64,3.53,5.19,5.62,8.33,5.27,2.32-.26,3.98-1.82,4.35-2.17,1.69-1.66,1.89-3.51,1.92-4.1"/>
  <path class="st9" d="M237.16,49.29c1.47.17,4.02-3.53,4.69-7.68.82-5.09-2.03-10.27-2.98-10.11-.28.05-.45.55-.5.99-.66,5.13-6.84,6.1-6.84,6.1,0,0-2.76,9.74,5.63,10.7Z"/>
  <path class="st9" d="M235.04,36.8c-1.07-4.55-1.82-10.77-.87-23.7.29-3.89-.95-5.64-1.46-6.25-2.91-3.46-10.4-2.95-17.74,2.99,0,0-15.88,16.28-7.89,44.51.29,1.68,1.6,7.72,8.03,11.9,4.19,2.72,8.51,3.33,9.6,3.46,2.2.27,5.95.73,9.5-1.02.66-.32,2.1-1.05,3.24-2.44,2.33-2.84,1.67-6.33.41-12.42-.28-1.35-.56-2.45-.75-3.14"/>
  <path class="st13" d="M208.48,20.17s15.65-5.58,25.48,3.91"/>
  <path class="st13" d="M204.84,42.73s13.5-11.29,26.53-4.29"/>
  <path class="st10" d="M217.9,107.75c2.17-1.7,6.05-4.12,10.86-4.1,9.75.05,17.51,10.16,17.5,18.66,0,8.8-8.34,18.9-17.5,18.66-4.74-.13-8.4-2.98-10.35-4.84"/>
  <path class="st3" d="M216.25,115.15c1.65-1.78,6.33-6.35,13.09-6.64,7.59-.32,12.88,4.94,14.45,6.64"/>
  <path class="st3" d="M242.52,132.5c-.34-.95-3.45-9.3-10.16-10.87-5.06-1.18-8.9,2.27-9.83,3.17"/>
  <path class="st3" d="M217.96,119.61c1.74-1.75,5.77-5.29,11.39-5.64,8.52-.53,14.32,6.68,15.59,8.34"/>
  <path class="st3" d="M240.76,150.57c-.21,3.85-8.29,6.77-14.4,7.14-9.31.57-19.86-4.38-19.7-8.67.15-4.22,10.7-8.35,19.68-7.21,6.62.84,14.64,4.82,14.43,8.74Z"/>
  <path class="st4" d="M241.69,120.83c0,1.6-.9,2.9-2,2.9s-2-1.3-2-2.9.9-2.9,2-2.9,2,1.3,2,2.9Z"/>
  <path class="st1" d="M221.39,119.76c0,.9.5,1.62,1.12,1.62s1.12-.73,1.12-1.62-.5-1.62-1.12-1.62-1.12.73-1.12,1.62Z"/>
  <path class="st3" d="M215.49,118.14c.64.3,1.5.77,2.47,1.53.62.48,2.08,1.7,3.63,3.91.56.81,1.28,1.95,2,3.45.51-.1,1.21-.2,2.04-.22,0,0,2.31-.04,4.58.87,2.49,1,6.11,4.09,9.35,9.68,0,0-9.24,11.66-21.02-2.56,0,0-4.92-7.86-3.04-16.66Z"/>
  <ellipse class="st1" cx="237.57" cy="127.5" rx=".84" ry="1.22"/>
  <path class="st9" d="M239.17,56.82c1.99.51,3.99,1.02,5.98,1.53"/>
  <path class="st9" d="M153.03,198.76c-2.24-.08-4.5-.16-6.8-.25-2.82-.38-7.01-1.17-11.82-2.94-14.84-5.47-23.01-15.75-25.68-19.21-6.74-8.75-9.39-16.98-10.62-22.85-1.35-6.43-2.05-15.76-2.05-28.16,2.95-41.41,12.3-52.41,12.3-52.41,2.8-3.29,5.52-5.47,7.11-6.64,9.1-6.68,20.46-9.39,70.45-9.69"/>
  <path class="st9" d="M259.42,73.51c7.87,25.81,7.7,40.53,5.81,49.35-.55,2.54-1.71,6.82-.95,12.6,1.34,10.14,7.59,13.26,8.86,21.93,1.15,7.81-1.21,14.64-3.42,19.22h0c-.03.07-2.21,5.26-7.03,10.76,0,0-1.72,2.03-5.71,4.41-7.92,4.72-15.43,5.99-19.33,6.48-10.23,1.29-41.68,2.01-84.62.51"/>
  <path class="st9" d="M179.48,205.45c-1.11,2.75-2.19,5.67-3.18,8.76-2.83,8.79-4.42,17-5.27,24.25.13,1.47,1.2,11.46,9.98,17.29,1.61,1.07,9.53,6.02,17.96,3.05,2.76-.97,4.73-2.49,5.96-3.63,1.29-4.05,2.68-10.23,2.17-17.73-.3-4.43-1.17-8.22-2.11-11.19"/>
  <path class="st8" d="M179.02,254.62c-.15-.8-.27-1.98-.06-3.39.18-1.26.57-2.26.9-2.95"/>
  <path class="st8" d="M186.13,257.56c-.15-.8-.27-1.98-.06-3.39.18-1.26.57-2.26.9-2.95"/>
  <path class="st8" d="M194.2,258.62c-.15-.8-.27-1.98-.06-3.39.18-1.26.57-2.26.9-2.95"/>
  <path class="st9" d="M186.4,50.12c.04-1.15.14-2.22.26-3.13.31-2.19.86-3.92,1.2-4.87,2.44-.46,4.23-.27,5.42,0,0,0,2.63.59,9.01,5.89h0c.69,1.05,3.11,5.09,1.25,9.62-.31.77-2.29,5.59-7.19,6.46-.54.1-2.29.41-4.13-.21-4.96-1.66-6.01-8.56-5.84-13.77"/>
  <path class="st9" d="M204.64,34.41c-.43-.5-1.28-1.35-2.48-1.63-1.45-.34-2.6.34-3.09.69-.38.2-1.01.65-1.36,1.65-.55,1.59-.05,3.56.24,4.69,1.34,5.21,5.48,10.11,6.69,11.49"/>
  <path class="st9" d="M186.33,68.7c-.45.19-.83.36-1.33.34-1.66-.06-3.22-2.09-3.97-5.12-.73-4.11.81-7.05,2.49-7.31,1.34-.21,3.02,1.22,4.21,3.11.38.35,1.93,1.83,1.92,4.06-.01,2.04-1.33,4.07-3.33,4.92Z"/>
  <path class="st8" d="M209.21,320.31c.2-.32,1.32-2.18.7-4.49-.47-1.74-1.65-2.72-2.06-3.03"/>
  <path class="st8" d="M205.51,326.45c.2-.32,1.32-2.18.7-4.49-.47-1.74-1.65-2.72-2.06-3.03"/>
  <path class="st9" d="M226.95,297.41c-1.27-.83-3.09-2.19-4.79-4.26-4.05-4.93-4.89-10.81-4.8-21.79.09-12.22.14-18.32,1.81-25.78,2.21-9.85,5.82-25.97,18.77-33.07.17-.09.33-.18.49-.26"/>
  <path class="st9" d="M226.36,226.27c3.07,1.33,6.96,2.7,11.61,3.65,1.76.36,3.44.62,5.01.81"/>
  <path class="st9" d="M219.51,248.98s10.66,5.03,26.93,7.58"/>
  <path class="st9" d="M217.72,271.83s9.84,4.23,25.26,6.91"/>
  <polygon class="st8" points="259.15 175.99 265.72 172.38 260.37 168.45 259.15 175.99"/>
  <path class="st7" d="M156.23,118.87c-.91,11.2-.91,16.87,0,17,.43.06,1.05-1.1,1.88-3.48-.35,3.81-.97,12.94,1.18,18.97.38,1.05.7,1.62,1.06,1.62,1.32,0,2.35-7.59,3-13.8"/>
  <path class="st8" d="M145.73,116.39c-7.1-2.85-7.05-13.99-7.05-13.99,4.71,6.34,14.09,7.83,14.09,7.83.1,2.43-1.07,4.66-3.02,5.7-1.74.93-3.49.59-4.03.46Z"/>
  <path class="st9" d="M170.19,301.87c-3.84,11.2-1.92,22.09,4.67,26.89,4.32,3.14,9.77,3.03,13.96,2.94,4.51-.1,12.57-.27,17.64-6.27.96-1.13,4.55-5.73,3.71-12.02-.66-4.89-3.6-7.95-4.6-8.91,0,0-2.01-2.62-5.02-2.62"/>
  <path class="st7" d="M258.32,50.34c-.13.41-1.03,3.37-.33,5.21.74,1.95,2.66.97,2.88.85,0,1.1-.17,3.1-1.36,5.27-.86,1.57-1.94,2.66-2.72,3.33-.15.08-1.86.97-2.91.29-.57-.37-.69-1.04-.75-1.52-.32-2.77,1.03-5.57,1.34-6.21,1.17-2.38,2.45-4.79,3.85-7.22Z"/>
  <path class="st9" d="M246.35,55.05c-1.35,2.65-1.26,5.02-1.2,5.77.09,1.22.57,4.74,3.76,7.53,4.76,4.15,11.21,2.85,11.47,2.79,5.92-1.29,8.31-6.02,8.58-6.57,0,0,3.69-5.51,2.84-12.83-.11-.93-.35-2.08-.35-2.08-.27-1.28-.5-1.93-.61-2.2-.4-1.05-.76-1.54-1.22-1.91-.19-.16-.36-.25-.46-.32-.67-.43-1.43-.62-3.14-.68-2.58-.09-3.87.05-5.18.32-3.44.72-8.32,3.1-11.49,6.43h0c-.82.7-2.07,1.93-3,3.76Z"/>
  <path class="st7" d="M257.35,47.24c.75,1.34,2.33,3.71,5.28,5.71,3.71,2.52,7.49,3.05,9.17,3.19"/>
  <path class="st7" d="M261.02,58.22c3.76,2.23,7.31,2.94,9.1,3.19"/>
  <path class="st7" d="M251.84,50.03c.66,1.29,1.78,3.15,3.6,5.07"/>
  <path class="st7" d="M258.27,63.92c3.55,1.93,6.8,2.46,8.42,2.64"/>
  <path class="st7" d="M247.75,53.96c.67,1.42,2.21,4.26,5.33,6.91"/>
  <path class="st9" d="M197.06,211.72"/>
  <path class="st9" d="M217.55,108.06c-1.33,3.62-2.65,8.75-2.48,14.92.14,5.16,1.29,9.5,2.49,12.76"/>
  <path class="st9" d="M150.08,286.26"/>
  <path class="st9" d="M135.49,252.08c-.53-.26-1.3-.62-2.25-1-7.38-2.9-14.11-1.95-15.95-1.66-7.35,1.15-12.52,5.15-23.07,12.87-8.21,6.01-7.82,7.11-11.91,9.25-12.52,6.54-24.76,4.85-29.3,3.99,0,0-1.6,4.92,3.76,9.42,9.22,7.74,22.47,8.36,36.58,7.27,7.56-.59,10.52-1.94,12.45-3.13,2.12-1.31,3.31-2.64,7.78-5.37,3.38-2.06,4.96-2.69,5.96-3.03,3.15-1.1,5.82-1.28,7.12-1.32,1.13-.03,3.12,0,6.39.71.65.14,1.24.29,1.78.44.93.25,1.72.51,2.33.72"/>
  <path class="st9" d="M53.74,275.65c.45-1.6,1.26-3.9,2.75-6.42,1.46-2.47,2.3-3.72,3.35-3.94,2.15-.45,5.21,3.61,7.78,9.61"/>
  <path class="st9" d="M69.34,274.95c-.01-1.66.11-4.1.84-6.94.71-2.78,1.17-4.21,2.11-4.72,1.94-1.03,6.01,2.01,10.16,7.05"/>
  <path class="st9" d="M83.53,270.5c-.65-1.52-1.48-3.82-1.9-6.72-.42-2.83-.55-4.34.12-5.16,1.39-1.7,6.32-.47,12.09,2.58"/>
  <path class="st9" d="M94.73,261.45c-.52-1.57-1.15-3.93-1.34-6.86-.18-2.86-.19-4.37.55-5.14,1.52-1.58,6.34.06,11.83,3.58"/>
  <path class="st9" d="M107.22,252.95c-.06-1.66,0-4.1.66-6.95.64-2.79,1.06-4.24,1.99-4.77,1.91-1.08,6.06,1.85,10.33,6.78"/>
  <path class="st9" d="M121.86,247.67c.78-1.46,2.07-3.54,4.07-5.68,1.96-2.09,3.05-3.13,4.12-3.12,2.19.03,4.31,4.65,5.52,11.06"/>
  <path class="st8" d="M73.12,204.14c10.91,1.62,20.77-5.36,34.54-5.95,4.07-.17,6.87.47,8.92.96,6.62,1.57,12.67,5.77,12.67,5.77,3.24,2.16,9.07,5.74,16.89,10.47"/>
  <path class="st8" d="M116.31,199.61s-22.9,7.05-33.33,20.83"/>
  <path class="st8" d="M103.73,226.42s1.6-12.92,13.94-26.47c0,0,5.7,26.77,4.62,32.94"/>
  <path class="st9" d="M111.22,225.1c1.84-.06,3.66.31,5.31,1.13,3.97,1.96,5.43,5.72,5.76,6.65.48-1.08,1.92-3.9,5.15-5.7,2.56-1.43,4.94-1.49,5.99-1.5,3.56-.05,6.21,1.33,7.38,2.04.24-.28.53-.6.89-.95"/>
  <path class="st9" d="M134.13,203.87l-1.09-.55s-10.23-8.26-19.87-9.05c-9.64-.79-35.81,9.64-46.64,7.48,0,0,21.45,6.3,16.33,18.69,0,0,17.71-9.64,21.06,7.28,2.2-1.65,4.77-2.54,7.31-2.62"/>
  <path class="st9" d="M147.58,213.1c-5.3-3.83-10.47-7.31-15.45-10.48"/>
  <path class="st8" d="M117.67,199.94s20.61,13.33,23.14,27.78"/>
  <polyline class="st7" points="157.94 115.56 170.29 130.31 180.58 142.59"/>
  <path class="st9" d="M179.57,142.74c-1.66-.09-8.81-.71-14.82-8.54-5.19-6.75-6.37-14.73-6.66-17.25.14.18.29.36.43.53"/>
  <path class="st9" d="M154.47,160.6c-1.5-1.72-7.74-9.31-6.57-22.42,1.01-11.29,6.91-19.76,8.84-22.36-.02.31-.04.61-.06.92"/>
  <path class="st9" d="M206.4,304.04c2.89-.43,22.91-3.62,33.13-16.78,4.02-5.17,6-10.9,6-10.9.87-2.51,1.4-4.96,1.7-7.42.39-3.34.31-5.94.22-7.49-1.54-26.53-6.24-42.4-6.24-42.4-2.38-6.48-4.76-12.96-7.13-19.44"/>
  <path class="st9" d="M147.78,213.16c-2.8,8.23-5.15,14.83-7,19.92-1.24,3.4-3.38,9.19-4.93,17.24-1.42,7.33-2.36,12.49-1.27,19.02,1.62,9.63,6.66,16.16,8.23,18.06,9.83,11.97,23.94,14.06,27.38,14.47"/>
  <path class="st9" d="M152.74,199.6c-1.67,4.8-3.24,9.25-4.71,13.36"/>
  <line class="st13" x1="203.63" y1="56.59" x2="206.64" y2="56.59"/>
</svg>