<?xml version="1.0" encoding="UTF-8"?>
<svg id="Layer_1" xmlns="http://www.w3.org/2000/svg" version="1.1" viewBox="0 0 365 335">
  <!-- Generator: Adobe Illustrator 29.7.1, SVG Export Plug-In . SVG Version: 2.1.1 Build 8)  -->
  <defs>
    <style>
      .st0 {
        fill: #25544e;
      }

      .st1 {
        fill: #bf6421;
      }

      .st2, .st3, .st4, .st5, .st6, .st7, .st8, .st9 {
        fill: none;
        stroke-linecap: round;
        stroke-linejoin: round;
      }

      .st2, .st3, .st4, .st9 {
        stroke: #231f20;
      }

      .st2, .st6 {
        stroke-width: 2px;
      }

      .st10 {
        fill: #fdbb28;
      }

      .st3, .st8 {
        stroke-width: 4px;
      }

      .st11 {
        fill: #44968e;
      }

      .st4, .st7 {
        stroke-width: 3px;
      }

      .st5, .st6, .st7, .st8 {
        stroke: #000;
      }

      .st12 {
        fill: #bc8a26;
      }

      .st13 {
        fill: #fb7300;
      }
    </style>
  </defs>
  <path class="st3" d="M277.93,123.84c9.96,0,19.93,0,29.89,0h1.43c.92.22,1.91.64,2.38,1.51,2.1,3.95-7.88,14.89-18.78,20.24-6.56,3.22-12.72,4.06-16.76,4.27"/>
  <path class="st4" d="M271.99,166.69c3.55.41,13.25,1.05,22.67-4.81,16.86-10.48,16.67-31.7,16.64-32.87"/>
  <path class="st2" d="M295.53,150.79s-1.91,6.54-6.54,3.35c-.15.46-1.27,3.76-4.53,4.96-3.14,1.16-6.97-.1-9.22-3.21"/>
  <path class="st4" d="M253.14,59.44s9.92-14.3,28.63-4.51c0,0-2.68,18.78-11.98,21.09"/>
  <path class="st4" d="M255.56,39.19c.75-.52,2.23-1.41,4.31-1.7,2.52-.36,4.51.35,5.36.72.67.21,1.75.68,2.35,1.73.96,1.66.09,3.72-.42,4.89-2.32,5.44-9.51,10.56-11.6,12"/>
  <path class="st4" d="M270.73,76.69s8.28-7.72,12.96,1.42c0,0-3.37,9.3-10.51,7.3"/>
  <path class="st2" d="M277.1,117.84s9.13-1.45,13.71-7.61c0,0,.06,10.84-6.86,13.61"/>
  <path class="st4" d="M250.98,22.25s-18.89-6.25-30.74,4.39"/>
  <path class="st4" d="M255.38,47.51s-21.35-16.56-38.74,0"/>
  <path class="st4" d="M217.81,43.83s-7.92-1.24-8.77-7.84c-.07-.56-.29-1.21-.65-1.27-1.21-.21-4.87,6.45-3.82,12.98.86,5.33,4.54,8.67,6.02,9.87"/>
  <path class="st4" d="M210.15,58.54c4.16-4.93,6.04-9.42,6.99-12.55,1.85-6.1,4.17-11.87,2.56-31.66-.35-4.35,1.16-6.32,1.78-7,3.55-3.87,12.71-3.3,21.68,3.35,0,0,19.4,18.23,9.65,49.84"/>
  <path class="st4" d="M147.19,44.4s7.92-1.24,8.77-7.84c.85-6.59,11.49,13.82-2.98,22.54h1.06"/>
  <path class="st2" d="M200.66,59.12c.15-.29.34-.68.53-1.15,0,0,.31-.8.5-1.66.9-4.18-.86-7.47-1.33-8.3-.05.24-.84,3.79-4.3,5.12-2.37.91-5.07.43-7.02-1.24.46.84.92,1.7,1.37,2.57.67,1.28,1.01,1.78,1.36,2.66.34.84.53,1.55.64,2.03"/>
  <path class="st2" d="M170.53,60.42"/>
  <path class="st2" d="M165.3,59.2c-.3-.24-.72-.64-1.04-1.23,0,0-.29-.72-.49-1.65-.9-4.18.86-7.47,1.33-8.3.42,2.4,2.07,4.37,4.3,5.12,2.72.91,5.04-.44,5.39-.65-1.04,1.06-2.79,3.14-3.81,6.28-.11.35-.21.71-.21.71h0"/>
  <path class="st3" d="M86.11,124.04h-31.32c-.92.22-1.91.64-2.38,1.51-2.1,3.95,7.88,14.89,18.78,20.24,6.56,3.22,12.72,4.06,16.76,4.27"/>
  <path class="st4" d="M92.05,166.89c-3.55.41-13.25,1.05-22.67-4.81-16.86-10.48-16.67-31.7-16.64-32.87"/>
  <path class="st2" d="M68.51,150.99s1.91,6.54,6.54,3.35c.15.46,1.27,3.76,4.53,4.96,3.14,1.16,6.97-.1,9.22-3.21"/>
  <path class="st4" d="M153.05,58.74c-4.16-4.93-6.04-9.42-6.99-12.55-1.85-6.1-4.17-11.87-2.56-31.66.35-4.35-1.16-6.32-1.78-7-3.55-3.87-12.71-3.3-21.68,3.35,0,0-19.4,18.23-9.65,49.84"/>
  <path class="st2" d="M86.11,118.04s-9.13-1.45-13.71-7.61c0,0-.06,10.84,6.86,13.61"/>
  <path class="st4" d="M112.22,22.45s18.89-6.25,30.74,4.39"/>
  <path class="st4" d="M107.83,47.71s21.35-16.56,38.74,0"/>
  <g>
    <path class="st4" d="M192.41,59.14"/>
    <path class="st4" d="M171.33,58.93c.83-2.36,2.25-5.28,4.74-8,.51-.56,1.03-1.07,1.55-1.53,1-.92,1.57-1.32,1.82-1.49.96-.65,1.53-.85,2.11-.9.24-.02.43,0,.55,0,.77.02,1.47.29,2.8,1.21,1.48,1.02,2.35,1.73,3.03,2.43.28.28.46.49.69.76,1,1.15,1.97,2.24,2.66,3.58.39.75.86,1.91,1.06,3.5"/>
  </g>
  <path class="st4" d="M252.82,60.53H110.92c-3.81,1.89-9.63,5.4-14.49,11.58-5.09,6.48-9.05,15.8-8.78,50.44.08,9.7.5,23.12,2.03,39.19,1.31,4.04,3.91,10.42,9.22,16.56,11.71,13.54,28.57,16.58,46.96,19.9,7.5,1.35,18.57,2.82,32.25,2.65h7.5c13.68.17,24.75-1.3,32.25-2.65,18.4-3.32,35.25-6.36,46.96-19.9,5.31-6.14,7.91-12.52,9.22-16.56,1.53-16.07,1.95-29.49,2.03-39.19.27-34.64-3.68-43.96-8.78-50.44-4.86-6.18-10.68-9.68-14.49-11.58"/>
  <path class="st9" d="M181.65,47.37"/>
  <path class="st4" d="M197.98,301.43s-7.71,16.96,4.47,26.16c1.73,1.22,6.72,4.42,13.73,4.27,9.46-.2,15.37-6.33,16.47-7.52.63-.74,4.39-5.3,3.54-11.69-.63-4.76-3.44-7.74-4.39-8.67,0,0,3.88-3.25,6.02-11.31"/>
  <path class="st4" d="M135.04,206.03c5.31-3.43,8.73-4.67,10.5-5.19.36-.11.65-.18.73-.2,4.26-1.12,7.91-1.11,10.62-.83"/>
  <path class="st4" d="M142.44,237.54c-.85,2.91-2.19,6.44-4.35,10.18-3.65,6.35-8.08,10.62-11.29,13.21-1.59.27-3.98.46-6.7-.21-8.31-2.06-11.94-10.26-12.65-11.98-3.84-9.37.69-18.02,1.37-19.29.48-.56.97-1.12,1.45-1.66"/>
  <path class="st4" d="M164.99,301.34s7.71,16.96-4.47,26.16c-1.73,1.22-6.72,4.42-13.73,4.27-9.46-.2-15.37-6.33-16.47-7.52-.63-.74-4.39-5.3-3.54-11.69.63-4.76,3.44-7.74,4.39-8.67,0,0-13.19-11.06-4.36-42.96"/>
  <path class="st4" d="M206.94,215.27"/>
  <path class="st4" d="M181.92,258.19c2.47-.39,6.21-1.14,10.53-2.75,6.59-2.45,8.77-4.74,13.58-6.62,7.76-3.04,15.07-2.14,17.24-1.8,7.94,1.24,13.53,5.56,24.94,13.91,8.87,6.49,8.46,7.69,12.88,9.99,13.54,7.07,26.76,5.25,31.67,4.31,0,0,1.73,5.32-4.06,10.18-11.31,9.5-30.16,9.02-39.53,7.86-4.82-.6-8.73-1.51-11.34-2.21-1.19-.64-2.99-1.66-5.09-3.07-2.54-1.72-3.38-2.57-5.44-3.9-1.6-1.04-3.58-2.28-6.44-3.28-3.4-1.19-6.29-1.39-7.7-1.43-1.22-.03-3.37,0-6.9.76-6.43,1.4-8.02,3.19-11.59,4-2.95.67-7.46.7-13.8-2.68"/>
  <path class="st4" d="M153.69,296.31c1.49,1.12,2.86,1.84,3.79,2.28,4.71,2.05,13.27,5.06,24.34,4.97,11.31-.09,19.98-3.38,24.66-5.55.85-.47,1.95-1.14,3.12-2.05"/>
  <path class="st2" d="M63.1,204.89c11.8,1.75,22.45-5.79,37.34-6.43,4.4-.19,7.43.51,9.64,1.03,7.16,1.7,13.69,6.24,13.69,6.24,6.35,4.23,21.84,13.49,42.79,26.07"/>
  <path class="st2" d="M109.78,199.99s-24.76,7.62-36.03,22.51"/>
  <path class="st2" d="M96.19,228.97s1.73-13.97,15.07-28.61c0,0,6.16,28.93,5,35.6"/>
  <path class="st4" d="M104.28,225.55c1.98-.06,3.95.34,5.74,1.22,4.29,2.12,5.87,6.18,6.22,7.18.52-1.16,2.07-4.21,5.57-6.16,2.77-1.54,5.34-1.61,6.48-1.62,3.85-.05,6.71,1.44,7.97,2.2,1.08-1.26,3.36-3.51,6.73-4.07.97-.16,3.26-.33,10.69,3.49,2.23,1.15,5.23,2.81,8.66,5.1"/>
  <path class="st4" d="M129.04,204.6l-1.18-.6s-11.06-8.93-21.48-9.78c-10.42-.85-38.71,10.42-50.41,8.08,0,0,23.18,6.81,17.65,20.21,0,0,19.14-10.42,22.76,7.87,2.38-1.78,5.15-2.75,7.9-2.83"/>
  <path class="st4" d="M166.56,232.78c-6.31-5.46-13.29-11.1-20.97-16.74-6.43-4.72-12.69-8.96-18.71-12.78"/>
  <path class="st2" d="M107.27,247.37c.31-.72.85-1.75,1.77-2.78.82-.92,1.67-1.53,2.3-1.91"/>
  <path class="st2" d="M111.35,253.51c.31-.72.85-1.75,1.77-2.78.82-.92,1.67-1.53,2.3-1.91"/>
  <path class="st4" d="M225.73,207.03c-5.31-3.43-8.73-4.67-10.5-5.19-.11-.03-.35-.1-.73-.2-4.05-1.08-7.22-1.49-9.32-1.65"/>
  <path class="st4" d="M253.31,250.21c1.08-2.32,3.29-7.91,1.88-14.65-.52-2.5-1.42-4.54-2.27-6.1-.48-.55-.97-1.11-1.45-1.66"/>
  <path class="st4" d="M253.5,250.45"/>
  <path class="st4" d="M245.68,259.09"/>
  <path class="st2" d="M254.48,247.37c-.31-.72-.85-1.75-1.77-2.78-.82-.92-1.67-1.53-2.3-1.91"/>
  <path class="st2" d="M255.05,239.88c-.31-.72-.85-1.75-1.77-2.78-.82-.92-1.67-1.53-2.3-1.91"/>
  <path class="st2" d="M117.19,258.64c.31-.72.85-1.75,1.77-2.78.82-.92,1.67-1.53,2.3-1.91"/>
  <path class="st4" d="M108.76,59.65s-9.92-14.3-28.63-4.51c0,0,2.68,18.78,11.98,21.09"/>
  <path class="st4" d="M106.34,39.4c-.75-.52-2.23-1.41-4.31-1.7-2.52-.36-4.51.35-5.36.72-.67.21-1.75.68-2.35,1.73-.96,1.66-.09,3.72.42,4.89,2.32,5.44,9.51,10.56,11.6,12"/>
  <path class="st4" d="M92.17,76.9s-8.28-7.72-12.96,1.42c0,0,3.37,9.3,10.51,7.3"/>
  <path class="st4" d="M286.29,19.55"/>
  <path class="st2" d="M111.25,198.35s22.27,14.41,25.01,30.02"/>
  <path class="st2" d="M299.93,205.89c-11.8,1.75-22.45-5.79-37.34-6.43-4.4-.19-7.43.51-9.64,1.03-7.16,1.7-13.69,6.24-13.69,6.24-6.35,4.23-21.84,13.49-42.79,26.07"/>
  <path class="st2" d="M253.25,199.99s24.76,7.62,36.03,22.51"/>
  <path class="st2" d="M266.85,228.97s-1.73-13.97-15.07-28.61c0,0-6.16,28.93-5,35.6"/>
  <path class="st4" d="M258.75,227.55c-1.98-.06-3.95.34-5.74,1.22-4.29,2.12-5.87,6.18-6.22,7.18-.52-1.16-2.07-4.21-5.57-6.16-2.77-1.54-5.34-1.61-6.48-1.62-3.85-.05-6.71,1.44-7.97,2.2-1.08-1.26-3.36-3.51-6.73-4.07-.97-.16-3.26-.33-10.69,3.49-2.23,1.15-5.23,2.81-8.66,5.1"/>
  <path class="st4" d="M234,204.6l1.18-.6s11.06-8.93,21.48-9.78c10.42-.85,38.71,10.42,50.41,8.08,0,0-23.18,6.81-17.65,20.21,0,0-19.14-10.42-22.76,7.87-2.38-1.78-5.15-2.75-7.9-2.83"/>
  <path class="st4" d="M196.48,232.78c6.31-5.46,13.29-11.1,20.97-16.74,6.43-4.72,12.69-8.96,18.71-12.78"/>
  <path class="st2" d="M251.78,200.35s-22.27,14.41-25.01,30.02"/>
  <path class="st4" d="M291.27,274.19c-.44-1.55-1.22-3.79-2.67-6.25-1.42-2.4-2.24-3.62-3.25-3.83-2.09-.44-5.07,3.51-7.56,9.35"/>
  <path class="st4" d="M276.09,273.51c.01-1.61-.11-3.98-.82-6.75-.69-2.7-1.13-4.1-2.05-4.59-1.88-1.01-5.85,1.95-9.88,6.85"/>
  <path class="st4" d="M262.29,269.18c.64-1.48,1.44-3.72,1.85-6.54.41-2.76.54-4.22-.12-5.02-1.35-1.65-6.15-.46-11.76,2.51"/>
  <path class="st4" d="M251.39,260.37c.51-1.53,1.12-3.82,1.3-6.67.17-2.78.18-4.25-.54-5-1.48-1.54-6.17.06-11.51,3.48"/>
  <path class="st4" d="M239.24,252.1c.06-1.61,0-3.99-.64-6.77-.62-2.72-1.03-4.13-1.93-4.64-1.86-1.05-5.9,1.8-10.05,6.6"/>
  <path class="st4" d="M226.79,246.85c-.38-1.57-1.07-3.84-2.43-6.35-1.32-2.45-2.09-3.7-3.1-3.95-2.07-.52-5.2,3.31-7.92,9.05"/>
  <path class="st4" d="M213.18,246.88c-.91-1.33-2.37-3.2-4.53-5.07-2.11-1.82-3.27-2.71-4.31-2.59-2.12.25-3.68,4.95-4.18,11.27"/>
  <path class="st4" d="M199.82,250.29c-1.07-1.21-2.74-2.89-5.11-4.48-2.32-1.55-3.58-2.29-4.59-2.05-2.07.51-3.05,5.36-2.78,11.7"/>
  <path class="st11" d="M121.6,59.47l-10.44,1.26-7.09,4.81-7.64,6.57-5.26,11.91-1.95,7.25-.85,13.91-.73,13.12s-.06,21.16,0,22.12,3.6,25.51,3.6,25.51l3.6,6.9,9.76,10.29,14.31,8.62,27.8,6.62,29.93,2.51,36.85-1.94,27.4-5.85,6.1-2.21,17.16-10.82,9.95-18.79,1.98-39.9-1.05-26.07-4.05-18.83-10.87-12.16-11.57-4.4-51.61.86-75.35-1.28Z"/>
  <polygon class="st11" points="88.72 150.06 87.62 124.04 53.48 124.52 53.48 129.22 59.74 137.93 74.2 148.18 88.72 150.06"/>
  <polygon class="st11" points="277.1 149.03 286.01 148.22 306.19 137.54 311.3 127.77 310.4 123.84 286.18 123.84 275.23 123.84 275.23 148.55 277.1 149.03"/>
  <path class="st11" d="M66.73,205.15l-7.28-1.89,11.01-1.6,18.34-3.9s7.9-2.01,8.28-2.01,10.34-1.57,10.34-1.57l16.34,5.82,5.59,4.84,9,4.88,7.61,6.59,10.92,7.29-13.03-5.45-13.83-8.15-10.05-5.94-7.47-4.08-11.3-1.57-10.63,1.57-11.3,3.26-9.41,1.72-3.13.17Z"/>
  <polygon class="st11" points="213.33 221.8 214.95 222.88 227.63 215.39 238.95 207.42 251.47 200.61 260.71 198.42 280.81 203.09 291.64 206.11 302.17 206.28 304.34 204.39 283.12 200.72 266.85 195.51 253.01 194.17 242.56 199.73 213.33 221.8"/>
  <polygon class="st11" points="124.75 261.72 113.23 257.03 106.29 246.29 107.71 229.8 111.35 228.37 116.37 232.72 124.19 227.8 134.24 227.34 141.8 225.53 148.5 225.53 161.81 233.38 172.68 302.93 157.89 298.76 165.45 302.49 167.39 314.09 162.21 326.06 153.69 330.08 149.84 331.63 135.75 328.58 128.58 320.22 126.77 310.07 131.46 303.94 125.53 293.89 123.77 284.32 126.19 263.16 124.75 261.72"/>
  <polygon class="st11" points="135.04 206.03 138.81 203 151.76 199.98 191.17 200.86 212.59 200.86 224.6 206.03 226.6 207.91 223.11 210.27 202.38 226.58 183.8 240.48 176.14 295.13 178.63 302.6 167.02 300.88 135.04 206.03"/>
  <path class="st11" d="M174.83,302.6l14.36.96,18.45-6.25-11.17,6.25-.73,12.27,4.07,10.32,9.78,4.02,8.7,2.23,14.64-8.3,3.36-10.09-3.36-9.45s1.88-5.07,2.37-5.41,3.96-7.73,3.96-7.73l13.53,1.23h23.3l15.18-8.51,1.72-7.91-3.71-1.53-13.19.98-9.92-2.18-15.19-9.43-8.55-7.37-13.91-8.59-12.19-1.48-14.59,4.25-9.28,4.56-10.15,2.03-1.63.26-5.84,44.87Z"/>
  <path class="st11" d="M196.48,230.42l4.21,2.48,17.06-8.49,6.61,1.73s5.14-.07,6.75.44,10.04,2.07,10.04,2.07l6.07,4.24,5.57-4.52,1.69,5.99v13l-2.33,1.34h-7.68l-3.83,2.59-2.82-10.29-9.09,4.01-2.11-.16-4.23-8.35-4.72,2.08-3.97,6.27-5.74-2.18-2.77-3.34-3.74,2.34.13,5.69-2.94.75-5.09-1.82-2.18-2.4-3.46.43-.62,9.92-1.3,3.74-4.36.51-1.9-7.2,5.36-17.34,11.37-3.53Z"/>
  <polygon class="st11" points="149.55 220.35 121.27 203.25 111.25 200.35 105.94 198.42 89.62 199.99 68.51 203.25 64.53 206.92 68.94 208.89 72.4 213.26 75.36 221.69 80.04 219.68 91.28 221.42 96.19 227.53 96.38 230.37 102.83 227.82 110.03 228.77 115.43 234.11 121.27 230.12 130.05 228.26 134.24 229.34 145.97 226.24 149.55 220.35"/>
  <path class="st11" d="M193.15,234.11l30.37-22.17,17.38-9.08,11.59-4.44,26.43,1.57,20.18,4.84-8.02,6.41-2.69,6.02.16,3.27-6.3-.57-7.58-.06-5.65,2.6-2.63,5.85-.51,2.02-3.39-1.86-6.75-.99-7.09,3.57-2.66,3.8-8.14-5.98-9.76-.58-4.08.95-6.83-3.05-10.63,3.91c-1.19,3.2-3.99,5.46-7.2,5.81-3.26.35-5.66-1.42-6.21-1.84Z"/>
  <polygon class="st10" points="54.61 132.35 70.04 145.23 84.69 149.03 88.72 150.06 89.5 159.73 91.24 165.92 82.76 166.81 73.57 164.28 59.46 153.05 55.4 140.28 53.48 132.35 54.61 132.35"/>
  <polygon class="st10" points="310.21 132.08 311.3 136.43 307.79 146.14 299.93 158.41 289.67 164.41 276.09 166.94 271.99 165.26 275.23 153.72 275.23 149.03 289.28 146.49 307.06 134.99 310.21 132.08"/>
  <polygon class="st10" points="153.86 60.53 144.77 43.83 142.98 28.46 143.5 14.53 141.72 7.53 137.74 5.12 125.11 6.37 118.32 12.76 109.46 29.91 107.64 43.83 107.64 50.16 109.79 60.42 113.74 61.26 153.86 60.53"/>
  <polygon class="st10" points="210.36 60.53 250.98 60.53 254.52 53.74 255.56 33.19 250.98 20.42 240.41 8.83 229.66 4.92 221.15 7.74 219.32 13.77 220.24 27.56 220.24 39.3 216.46 48.01 210.36 60.53"/>
  <polygon class="st10" points="173.67 53.74 168.93 52.95 165.6 49.65 163.9 50.95 163.64 55.65 164.42 59.47 166.85 60.24 170.53 60.42 173.67 53.74"/>
  <polygon class="st10" points="189.94 53.58 192.34 58.46 192.41 60.53 199.15 60.42 201.93 58.33 201.93 50.79 201.12 49.65 196.46 52.95 192.41 53.74 189.94 53.58"/>
  <polygon class="st13" points="188.07 256.32 199.82 251.83 196.98 246.63 189.38 244.86 187.29 249.6 188.07 256.32"/>
  <polygon class="st13" points="200.94 251.34 212.69 246.84 209.85 241.65 202.26 239.88 200.16 244.62 200.94 251.34"/>
  <polygon class="st13" points="213.61 246.17 226.18 246.73 225.65 240.83 219.39 236.18 215.58 239.69 213.61 246.17"/>
  <polygon class="st13" points="227.1 247.04 238.32 252.72 240.26 247.13 236.47 240.31 231.56 241.94 227.1 247.04"/>
  <polygon class="st13" points="240.1 253.36 249.65 261.59 252.98 256.61 251.01 249.05 245.77 249.46 240.1 253.36"/>
  <polygon class="st13" points="250.32 261.62 260.77 270.01 264.79 264.51 262.9 256.5 256.94 257.19 250.32 261.62"/>
  <polygon class="st13" points="262.29 271.66 275.35 274.67 276.57 267.97 271.4 261.58 266.32 264.79 262.29 271.66"/>
  <polygon class="st13" points="277.15 275.47 290.55 275.82 290.42 269.02 284.07 263.78 279.74 267.94 277.15 275.47"/>
  <polyline class="st13" points="87.03 123.08 87.03 118.68 77.16 114.66 74.11 111.21 72.36 111.59 72.36 114.85 75.44 120.99 77.07 123.08 87.62 123.08"/>
  <polygon class="st13" points="276.1 118.2 279.37 117.31 286.87 113.92 290.11 110.22 290.81 112.84 289.65 117.03 287.52 121.11 285.38 124.23 278.14 124.23 276.1 118.2"/>
  <polygon class="st13" points="269.33 76.74 273.6 86.27 281.02 82.62 283.69 76.74 278 73.66 270.73 75.21 269.33 76.74"/>
  <polygon class="st13" points="276.51 71.86 280.69 60.06 280.69 54.38 271.13 52.52 262.72 51.5 256.98 56.82 253.14 59.44 256.4 62.51 266.92 71.62 272.3 76.01 276.51 71.86"/>
  <path class="st13" d="M265.27,48.01l3.58-7.37-3.06-3.26s-5.4.04-5.66.07-3.91.41-3.91.41l-.65,1.82-.31,9.21-1.74,9.24,11.76-10.12Z"/>
  <polygon class="st13" points="217.15 44.03 210.9 40.15 209.04 35.99 205.75 36.82 203.55 46.15 206.04 53.58 210.15 58.54 214.95 52.95 217.15 44.03"/>
  <polygon class="st13" points="191.87 60.42 192.34 54.53 188.41 51.13 182.49 46.1 179.28 48.01 173.67 53.74 171.33 58.71 171.33 60.42 191.87 60.42"/>
  <polygon class="st13" points="154.41 58.16 158.94 51.18 160.53 44.86 159.99 37.96 157.81 35.98 153.86 38.92 151.1 43.04 148.31 44.86 146.56 45.15 149.36 54.62 154.41 58.16"/>
  <polygon class="st13" points="106.95 39.89 100.11 37.11 95.89 38.74 93.89 40.94 97.53 49.36 102.25 53.09 107.64 57.47 110.33 58.53 106.95 39.89"/>
  <polygon class="st13" points="93.47 74.66 101.04 65.19 107.83 60.21 109.69 57.93 96.74 52.12 90.77 52.12 82.34 53.09 80.13 55.14 80.52 59.26 84.25 70.34 89.01 75.34 93.47 74.66"/>
  <polygon class="st13" points="91.03 84.77 87.85 85.91 82.67 85.34 81.13 81.86 79.21 78.33 81.13 75.63 83.74 74.07 87.65 74.25 92.63 76.23 91.03 84.77"/>
  <path class="st1" d="M85.92,68.56c.98.14,6.66.88,11.71-3.09,4.5-3.53,5.46-8.41,5.66-9.57,2.02,1.48,2.93,2.12,3.36,2.42.06.04.3.2.63.43.45.32.82.58,1.05.75-.69,1.31-1.38,2.63-2.08,3.94l-6.67,2.72-3.31,5.57-2.78,4.49c-1.11-.55-2.57-1.43-4.03-2.78-1.13-1.04-1.96-2.08-2.55-2.96-.33-.64-.66-1.29-.99-1.93Z"/>
  <path class="st1" d="M276.51,68.25c-.98.14-6.66.88-11.71-3.09-4.5-3.53-5.46-8.41-5.66-9.57-2.02,1.48-2.93,2.12-3.36,2.42-.06.04-.3.2-.63.43-.45.32-.82.58-1.05.75.69,1.31,1.38,2.63,2.08,3.94l6.67,2.72,3.31,5.57,2.78,4.49c1.11-.55,2.57-1.43,4.03-2.78,1.13-1.04,1.96-2.08,2.55-2.96.33-.64.66-1.29.99-1.93Z"/>
  <path class="st0" d="M207.13,200.18c.33,1.87-12.61,7.47-27.14,7.67-16.38.23-30.83-6.46-30.44-8.43.27-1.36,7.54.01,30.02.23,20.33.19,27.32-.81,27.55.53Z"/>
  <path class="st0" d="M275.28,152.71c-3.86,7.67-10.79,18.73-22.89,27.64-18.95,13.95-38.88,14.04-69.09,14.17-30.23.13-50.1.21-69.26-13.48-12.6-9.01-19.85-20.36-23.88-28.23-.05,4.14.46,12.95,6.05,21.59,5.28,8.16,12.29,12.04,15.41,13.53,9.75,4.76,18.21,7.27,24.25,8.68,11.13,2.61,20.2,2.93,33.85,3.43,8.87.32,16.26.24,21.46.1,5.8-.33,11.6-.65,17.41-.98,9.8-1.33,19.61-2.66,29.41-3.99,4.67-1.17,13.58-4.1,21.83-11.79,12.5-11.65,14.91-26.23,15.47-30.66Z"/>
  <path class="st12" d="M52.83,134.32c1.43,2.44,3.48,5.6,6.32,9.01,1.96,2.36,5.48,6.54,10.72,10.33,3.48,2.51,9.95,6.45,19.5,8.37-.68-3.96-1.35-7.92-2.03-11.89l-17.84-4.82c-4.37-3.26-9.1-6.47-14.19-9.53-.83-.5-1.66-.99-2.49-1.47Z"/>
  <path class="st12" d="M310.68,134.12c-1.43,2.44-3.48,5.6-6.32,9.01-1.96,2.36-5.48,6.54-10.72,10.33-3.48,2.51-9.95,6.45-19.5,8.37.68-3.96,1.35-7.92,2.03-11.89l17.84-4.82c4.37-3.26,9.1-6.47,14.19-9.53.83-.5,1.66-.99,2.49-1.47Z"/>
  <path class="st12" d="M201.94,58.31c-1.33.35-2.81.29-4.15-.11-1.03-.31-1.71-.76-2.14-1.07-2.47-1.75-2.71-4.12-3.23-4.11-.1,0-.22.1-.3.52.45.84.55,1.5.56,1.95,0,.33-.08.42-.05.99.02.55.05,1.11.07,1.66.02.85.05,1.7.07,2.54,1.33-.27,2.72-.58,4.15-.94,1.81-.46,3.48-.94,5.01-1.44Z"/>
  <path class="st12" d="M163.2,58.24c1.22.38,2.57.34,3.78-.05.93-.3,1.54-.75,1.94-1.06,2.23-1.75,2.4-4.17,2.87-4.15.09,0,.2.11.28.54-.39.85-.48,1.52-.48,1.98,0,.34.08.43.06,1.02-.01.57-.02,1.13-.04,1.7,0,.87-.01,1.74-.02,2.6-1.22-.3-2.49-.64-3.8-1.03-1.65-.5-3.19-1.02-4.59-1.56Z"/>
  <path class="st1" d="M83.63,82.6c.51-.03,2.91-.22,4.82-2.24,1.92-2.04,1.95-4.46,1.95-4.97l2.04,1.31-.77,2.4c-.4.9-.79,1.8-1.19,2.7-.41.72-.82,1.44-1.22,2.16-.64.56-1.29,1.12-1.93,1.67l-1.95-.48c-.58-.85-1.15-1.7-1.73-2.56Z"/>
  <path class="st1" d="M102.52,53.94c.59-.08,2.13-.36,3.46-1.63,2.07-1.99,1.87-4.73,1.83-5.11v9.84c-.8-.07-1.59-.15-2.39-.22-.97-.96-1.93-1.92-2.9-2.88Z"/>
  <path class="st1" d="M147.12,44.92c.13.73.93,4.89,4.99,7.27,2.3,1.35,4.58,1.51,5.71,1.51-1.08,1.49-2.17,2.99-3.25,4.48l-6.27-7.12-2.41-4.36,1.22-1.79Z"/>
  <path class="st1" d="M279.37,82.01c-.51-.03-2.91-.22-4.82-2.24-1.92-2.04-1.95-4.46-1.95-4.97l-2.04,1.31.77,2.4c.4.9.79,1.8,1.19,2.7.41.72.82,1.44,1.22,2.16.64.56,1.29,1.12,1.93,1.67l1.95-.48c.58-.85,1.15-1.7,1.73-2.56Z"/>
  <path class="st1" d="M260.49,53.35c-.59-.08-2.13-.36-3.46-1.63-2.07-1.99-1.87-4.73-1.83-5.11,0,3.28,0,6.56,0,9.84.8-.07,1.59-.15,2.39-.22.97-.96,1.93-1.92,2.9-2.88Z"/>
  <path class="st1" d="M216.59,44.87c-.13.73-.93,4.89-4.99,7.27-2.3,1.35-4.58,1.51-5.71,1.51,1.08,1.49,2.17,2.99,3.25,4.48l6.27-7.12,2.41-4.36-1.22-1.79Z"/>
  <path class="st0" d="M113.8,257.41c4.28.57,7.44-.13,9.3-.72,0,0,8.82-2.82,17.08-16.23.09-.15,1.83-2.99,1.83-2.99h0c.21-.05.47-.09.78-.07.12,0,.23.02.34.04-.16.46-.42,1.19-.78,2.05-1.06,2.55-2.06,4.39-2.78,5.42-3.42,4.94-6.84,9.88-10.26,14.82l-8.69,1.29-5.85-2.89-.97-.72Z"/>
  <path class="st1" d="M87.99,121.2c-.8.13-6.81,1.04-11.17-3.18-1.97-1.91-2.82-4.11-3.19-5.39-.15,1.02-.3,3.03.49,5.36.71,2.11,1.87,3.52,2.56,4.24,3.19.45,6.37.9,9.56,1.36l1.76-2.38Z"/>
  <path class="st1" d="M275.59,120.65c.8.13,6.81,1.04,11.17-3.18,1.97-1.91,2.82-4.11,3.19-5.39.15,1.02.3,3.03-.49,5.36-.71,2.11-1.87,3.52-2.56,4.24-3.19.45-6.37.9-9.56,1.36l-1.76-2.38Z"/>
  <path class="st0" d="M180.82,280.36c2.9-.31,7.19-.84,12.33-1.78,10.2-1.87,14.84-3.71,18.5-4.48,14.75-3.11,22.91,9.19,38.67,12.78,8.85,2.01,22.7,1.87,42.63-10.47-.38,1.77-.77,3.53-1.15,5.3l-8.71,7.37-11.82,3.59-21.7,1.22-15.89-5.26-10.79-7.11-10.72-2.43-11.47,2.74-7.54,2.59c-1.83-.26-4-.7-6.39-1.49-2.35-.77-4.33-1.69-5.94-2.55Z"/>
  <path class="st0" d="M153.69,295.3c6.83,1.84,16.09,3.62,27.13,3.7,11.81.09,21.67-1.79,28.78-3.7-3.87,2.04-7.75,4.09-11.62,6.13l-25.3,2.13-17.45-5.32-1.54-2.94Z"/>
  <path class="st0" d="M153.75,297.34c.94.83,2.22,2.03,3.64,3.57,1.75,1.91,3.86,4.51,4.95,6.38,3.02,5.17,2.22,11.59,1.54,14.89l3.51-8.1v-8.96l-5.97-5.37c-2.56-.81-5.11-1.61-7.67-2.42Z"/>
  <path class="st0" d="M209.21,297.34c-.94.83-2.22,2.03-3.64,3.57-1.75,1.91-3.86,4.51-4.95,6.38-3.02,5.17-2.22,11.59-1.54,14.89l-3.51-8.1v-8.96s5.97-5.37,5.97-5.37c2.56-.81,5.11-1.61,7.67-2.42Z"/>
  <path class="st0" d="M143.13,240.48c-.88,3.96-2.73,9.97-6.86,16.3-3.45,5.28-7.29,8.95-10.18,11.3l1.82-9.43c1.9-1.77,3.87-3.74,5.84-5.92,3.84-4.25,6.92-8.43,9.38-12.24Z"/>
  <path class="st0" d="M107.75,232.11c.83-.08,2.2-.06,3.51.91,2.88,2.13,2.39,6.56,4.17,7.35,2.67,1.18,4.9-8.17,10.66-9.2,4.09-.73,7.91,1.3,7.91,1.3,0,0,0,0,0,0,.41.24,1.47.92,2.68.55.97-.3,1.45-1.08,2.2-1.85,1.54-1.19,3.01-1.84,4.24-2.21,9.32-2.79,18.43,6.51,19.11,7.24-.21-.72-.41-1.43-.62-2.15-5.75-2.77-11.5-5.53-17.25-8.3-2.7,1.18-5.4,2.37-8.11,3.55l-6.19-1.27-12.73,4.48-3.1,2.44-4.22-6.86c-.76,1.34-1.52,2.68-2.28,4.01Z"/>
  <path class="st0" d="M255.65,232.11c-.92-.05-2.21.06-3.51.91-3.25,2.13-3.04,6.59-4.98,7.25-2.82.95-4.36-8.01-9.85-9.09-.8-.16-4.61-1.61-7.91,1.3,0,0,0,0,0,0-.41.24-1.47.92-2.68.55-.97-.3-1.45-1.08-2.2-1.85-1.53-1.18-3-1.83-4.24-2.21-9.5-2.89-18.87,6.54-19.62,7.32-.07-.18-.14-.44-.11-.74.1-.99,1.18-1.46,1.24-1.49l17.15-8.53,8.2,3.78,6.19-1.27,12.73,4.48c.72.89,1.44,1.78,2.16,2.67,1.72-2.36,3.44-4.73,5.16-7.09.76,1.34,1.52,2.68,2.28,4.01Z"/>
  <path class="st8" d="M277.93,123.84c9.96,0,19.93,0,29.89,0h1.43c.92.22,1.91.64,2.38,1.51,2.1,3.95-7.88,14.89-18.78,20.24-6.56,3.22-12.72,4.06-16.76,4.27"/>
  <path class="st7" d="M272.37,166.73c3.83.41,13.19.81,22.29-4.85,16.86-10.48,16.67-31.7,16.64-32.87"/>
  <path class="st6" d="M295.53,150.79s-1.91,6.54-6.54,3.35c-.15.46-1.27,3.76-4.53,4.96-3.14,1.16-6.97-.1-9.22-3.21"/>
  <path class="st7" d="M253.14,59.44s9.92-14.3,28.63-4.51c0,0-2.61,18.29-11.61,20.99"/>
  <path class="st7" d="M255.56,39.19c.75-.52,2.23-1.41,4.31-1.7,2.52-.36,4.51.35,5.36.72.67.21,1.75.68,2.35,1.73.96,1.66.09,3.72-.42,4.89-2.32,5.44-9.51,10.56-11.6,12"/>
  <path class="st7" d="M271.13,76.34c1.72-1.4,8.49-6.16,12.56,1.77,0,0-3.24,8.92-10.08,7.41"/>
  <path class="st6" d="M277.1,117.84s9.13-1.45,13.71-7.61c0,0,.06,10.84-6.86,13.61"/>
  <path class="st7" d="M250.98,22.25s-18.89-6.25-30.74,4.39"/>
  <path class="st7" d="M255.38,47.51s-21.35-16.56-38.74,0"/>
  <path class="st7" d="M217.81,43.83s-7.92-1.24-8.77-7.84c-.07-.56-.29-1.21-.65-1.27-1.21-.21-4.87,6.45-3.82,12.98.86,5.33,4.54,8.67,6.02,9.87"/>
  <path class="st7" d="M210.15,58.54c4.16-4.93,6.04-9.42,6.99-12.55,1.85-6.1,4.17-11.87,2.56-31.66-.35-4.35,1.16-6.32,1.78-7,3.55-3.87,12.71-3.3,21.68,3.35,0,0,19.4,18.23,9.65,49.84"/>
  <path class="st7" d="M147.19,44.4s7.92-1.24,8.77-7.84c.85-6.59,11.49,13.82-2.98,22.54h1.06"/>
  <path class="st6" d="M200.66,59.12c.15-.29.34-.68.53-1.15,0,0,.31-.8.5-1.66.9-4.18-.86-7.47-1.33-8.3-.05.24-.84,3.79-4.3,5.12-2.37.91-5.07.43-7.02-1.24.46.84.92,1.7,1.37,2.57.67,1.28,1.01,1.78,1.36,2.66.34.84.53,1.55.64,2.03"/>
  <path class="st6" d="M170.53,60.42"/>
  <path class="st6" d="M165.89,59.93c-.35-.34-.73-.74-1.11-1.22-.2-.26-.38-.51-.53-.75,0,0-.29-.72-.49-1.65-.9-4.18.86-7.47,1.33-8.3.42,2.4,2.07,4.37,4.3,5.12,2.72.91,5.04-.44,5.39-.65-1.51,1.6-2.96,3.67-3.81,6.28-.08.24-.15.47-.21.71"/>
  <path class="st8" d="M86.11,124.04h-31.32c-.92.22-1.91.64-2.38,1.51-2.1,3.95,7.88,14.89,18.78,20.24,6.56,3.22,12.72,4.06,16.76,4.27"/>
  <path class="st7" d="M91.28,166.97c-4.04.39-13.09.58-21.9-4.89-16.86-10.48-16.67-31.7-16.64-32.87"/>
  <path class="st6" d="M68.51,150.99s1.91,6.54,6.54,3.35c.15.46,1.27,3.76,4.53,4.96,3.14,1.16,6.97-.1,9.22-3.21"/>
  <path class="st7" d="M153.05,58.74c-4.16-4.93-6.04-9.42-6.99-12.55-1.85-6.1-4.17-11.87-2.56-31.66.35-4.35-1.16-6.32-1.78-7-3.55-3.87-12.71-3.3-21.68,3.35,0,0-19.4,18.23-9.65,49.84"/>
  <path class="st6" d="M86.11,118.04s-9.13-1.45-13.71-7.61c0,0-.06,10.84,6.86,13.61"/>
  <path class="st7" d="M112.22,22.45s18.89-6.25,30.74,4.39"/>
  <path class="st7" d="M107.83,47.71s21.35-16.56,38.74,0"/>
  <g>
    <path class="st7" d="M192.41,59.14"/>
    <path class="st7" d="M171.33,58.93c.83-2.36,2.25-5.28,4.74-8,.51-.56,1.03-1.07,1.55-1.53,1-.92,1.57-1.32,1.82-1.49.96-.65,1.53-.85,2.11-.9.24-.02.43,0,.55,0,.77.02,1.47.29,2.8,1.21,1.48,1.02,2.35,1.73,3.03,2.43.28.28.46.49.69.76,1,1.15,1.97,2.24,2.66,3.58.39.75.86,1.91,1.06,3.5"/>
  </g>
  <path class="st7" d="M252.82,60.53H110.92c-3.81,1.89-9.63,5.4-14.49,11.58-5.09,6.48-9.05,15.8-8.78,50.44.08,9.7.5,23.12,2.03,39.19,1.31,4.04,3.91,10.42,9.22,16.56,11.71,13.54,28.57,16.58,46.96,19.9,7.5,1.35,18.57,2.82,32.25,2.65h7.5c13.68.17,24.75-1.3,32.25-2.65,18.4-3.32,35.25-6.36,46.96-19.9,5.31-6.14,7.91-12.52,9.22-16.56,1.53-16.07,1.95-29.49,2.03-39.19.27-34.64-3.68-43.96-8.78-50.44-4.86-6.18-10.68-9.68-14.49-11.58"/>
  <path class="st5" d="M181.65,47.37"/>
  <path class="st7" d="M197.98,301.43s-7.71,16.96,4.47,26.16c1.73,1.22,6.72,4.42,13.73,4.27,9.46-.2,15.37-6.33,16.47-7.52.63-.74,4.39-5.3,3.54-11.69-.63-4.76-3.44-7.74-4.39-8.67,0,0,3.88-3.25,6.02-11.31"/>
  <path class="st7" d="M156.89,199.8c-2.71-.28-6.36-.28-10.62.83-.08.02-.37.1-.73.2-1.77.52-5.18,1.76-10.5,5.19l-1.08.8"/>
  <path class="st7" d="M142.44,237.54c-.85,2.91-2.19,6.44-4.35,10.18-3.65,6.35-8.08,10.62-11.29,13.21-1.59.27-3.98.46-6.7-.21-8.31-2.06-11.94-10.26-12.65-11.98-3.84-9.37.69-18.02,1.37-19.29.1-.12.21-.24.31-.36"/>
  <path class="st7" d="M164.99,301.34s7.71,16.96-4.47,26.16c-1.73,1.22-6.72,4.42-13.73,4.27-9.46-.2-15.37-6.33-16.47-7.52-.63-.74-4.39-5.3-3.54-11.69.63-4.76,3.44-7.74,4.39-8.67,0,0-13.19-11.06-4.36-42.96"/>
  <path class="st7" d="M206.94,215.27"/>
  <path class="st7" d="M181.92,258.19c2.47-.39,6.21-1.14,10.53-2.75,6.59-2.45,8.77-4.74,13.58-6.62,7.76-3.04,15.07-2.14,17.24-1.8,7.94,1.24,13.53,5.56,24.94,13.91,8.87,6.49,8.46,7.69,12.88,9.99,13.54,7.07,26.76,5.25,31.67,4.31,0,0,1.73,5.32-4.06,10.18-11.31,9.5-30.16,9.02-39.53,7.86-4.82-.6-8.73-1.51-11.34-2.21-1.19-.64-2.99-1.66-5.09-3.07-2.54-1.72-3.38-2.57-5.44-3.9-1.6-1.04-3.58-2.28-6.44-3.28-3.4-1.19-6.29-1.39-7.7-1.43-1.22-.03-3.37,0-6.9.76-6.43,1.4-8.02,3.19-11.59,4-2.95.67-7.46.7-13.8-2.68"/>
  <path class="st7" d="M153.69,296.31c1.49,1.12,2.86,1.84,3.79,2.28,4.71,2.05,13.27,5.06,24.34,4.97,11.31-.09,19.98-3.38,24.66-5.55.85-.47,1.95-1.14,3.12-2.05"/>
  <path class="st6" d="M63.1,205.89c11.8,1.75,22.45-5.79,37.34-6.43,4.4-.19,7.43.51,9.64,1.03,7.16,1.7,13.69,6.24,13.69,6.24,6.35,4.23,21.84,13.49,42.79,26.07"/>
  <path class="st6" d="M109.78,200.99s-24.22,7.28-35.25,21.51"/>
  <path class="st6" d="M96.19,229.16s1.73-13.57,15.07-27.81c0,0,6.16,28.12,5,34.6"/>
  <path class="st7" d="M104.28,227.55c1.98-.06,3.95.34,5.74,1.22,4.29,2.12,5.87,6.18,6.22,7.18.52-1.16,2.07-4.21,5.57-6.16,2.77-1.54,5.34-1.61,6.48-1.62,3.85-.05,6.71,1.44,7.97,2.2,1.08-1.26,3.36-3.51,6.73-4.07.97-.16,3.26-.33,10.69,3.49,2.23,1.15,5.23,2.81,8.66,5.1"/>
  <path class="st7" d="M129.04,204.6l-1.18-.6s-11.06-8.93-21.48-9.78c-10.42-.85-38.71,10.42-50.41,8.08,0,0,23.18,6.81,17.65,20.21,0,0,19.14-10.42,22.76,7.87,2.38-1.78,5.15-2.75,7.9-2.83"/>
  <path class="st7" d="M166.56,232.78c-6.31-5.46-13.29-11.1-20.97-16.74-6.43-4.72-12.69-8.96-18.71-12.78"/>
  <path class="st6" d="M107.27,247.37c.31-.72.85-1.75,1.77-2.78.82-.92,1.67-1.53,2.3-1.91"/>
  <path class="st6" d="M111.35,253.51c.31-.72.85-1.75,1.77-2.78.82-.92,1.67-1.53,2.3-1.91"/>
  <path class="st7" d="M205.18,199.98c2.1.17,5.27.57,9.32,1.65.38.1.62.17.73.2,1.77.52,5.18,1.76,10.5,5.19l1.5.9"/>
  <path class="st7" d="M253.2,250.45c1.11-2.32,3.43-8.02,1.99-14.9-.52-2.49-1.41-4.54-2.27-6.1-.03-.04-.07-.08-.1-.12"/>
  <path class="st7" d="M253.5,250.45"/>
  <path class="st7" d="M245.68,259.09"/>
  <path class="st6" d="M254.48,247.37c-.31-.72-.85-1.75-1.77-2.78-.82-.92-1.67-1.53-2.3-1.91"/>
  <path class="st6" d="M255.05,239.88c-.31-.72-.85-1.75-1.77-2.78-.82-.92-1.67-1.53-2.3-1.91"/>
  <path class="st6" d="M117.19,258.64c.31-.72.85-1.75,1.77-2.78.82-.92,1.67-1.53,2.3-1.91"/>
  <path class="st7" d="M108.76,59.65s-9.92-14.3-28.63-4.51c0,0,2.68,18.78,11.98,21.09"/>
  <path class="st7" d="M106.34,39.4c-.75-.52-2.23-1.41-4.31-1.7-2.52-.36-4.51.35-5.36.72-.67.21-1.75.68-2.35,1.73-.96,1.66-.09,3.72.42,4.89,2.32,5.44,9.51,10.56,11.6,12"/>
  <path class="st7" d="M92.17,76.9s-8.28-7.72-12.96,1.42c0,0,3.37,9.3,10.51,7.3"/>
  <path class="st7" d="M286.29,19.55"/>
  <path class="st6" d="M111.25,201.35s22.27,13.93,25.01,29.02"/>
  <path class="st6" d="M299.93,205.89c-11.8,1.75-22.45-5.79-37.34-6.43-4.4-.19-7.43.51-9.64,1.03-7.16,1.7-13.69,6.24-13.69,6.24-6.35,4.23-21.84,13.49-42.79,26.07"/>
  <path class="st6" d="M253.38,200.99s24.88,7.49,36.21,22.13"/>
  <path class="st6" d="M266.85,229.38s-1.73-13.68-15.07-28.02c0,0-6.16,28.34-5,34.87"/>
  <path class="st7" d="M258.75,227.55c-1.98-.06-3.95.34-5.74,1.22-4.29,2.12-5.87,6.18-6.22,7.18-.52-1.16-2.07-4.21-5.57-6.16-2.77-1.54-5.34-1.61-6.48-1.62-3.85-.05-6.71,1.44-7.97,2.2-1.08-1.26-3.36-3.51-6.73-4.07-.97-.16-3.26-.33-10.69,3.49-2.23,1.15-5.23,2.81-8.66,5.1"/>
  <path class="st7" d="M234,204.6l1.18-.6s11.06-8.93,21.48-9.78c10.42-.85,38.71,10.42,50.41,8.08,0,0-23.18,6.81-17.65,20.21,0,0-19.14-10.42-22.76,7.87-2.38-1.78-5.15-2.75-7.9-2.83"/>
  <path class="st7" d="M196.48,232.78c6.31-5.46,13.29-11.1,20.97-16.74,6.43-4.72,12.69-8.96,18.71-12.78"/>
  <path class="st6" d="M251.91,201.35s-22.38,14.17-25.14,29.51"/>
  <path class="st7" d="M291.27,274.19c-.44-1.55-1.22-3.79-2.67-6.25-1.42-2.4-2.24-3.62-3.25-3.83-2.09-.44-5.07,3.51-7.56,9.35"/>
  <path class="st7" d="M276.09,273.51c.01-1.61-.11-3.98-.82-6.75-.69-2.7-1.13-4.1-2.05-4.59-1.88-1.01-5.85,1.95-9.88,6.85"/>
  <path class="st7" d="M262.29,269.18c.64-1.48,1.44-3.72,1.85-6.54.41-2.76.54-4.22-.12-5.02-1.35-1.65-6.15-.46-11.76,2.51"/>
  <path class="st7" d="M251.39,260.37c.51-1.53,1.12-3.82,1.3-6.67.17-2.78.18-4.25-.54-5-1.48-1.54-6.17.06-11.51,3.48"/>
  <path class="st7" d="M239.24,252.1c.06-1.61,0-3.99-.64-6.77-.62-2.72-1.03-4.13-1.93-4.64-1.86-1.05-5.9,1.8-10.05,6.6"/>
  <path class="st7" d="M226.79,246.85c-.38-1.57-1.07-3.84-2.43-6.35-1.32-2.45-2.09-3.7-3.1-3.95-2.07-.52-5.2,3.31-7.92,9.05"/>
  <path class="st7" d="M213.18,246.88c-.91-1.33-2.37-3.2-4.53-5.07-2.11-1.82-3.27-2.71-4.31-2.59-2.12.25-3.68,4.95-4.18,11.27"/>
  <path class="st7" d="M199.82,250.29c-1.07-1.21-2.74-2.89-5.11-4.48-2.32-1.55-3.58-2.29-4.59-2.05-2.07.51-3.05,5.36-2.78,11.7"/>
</svg>