<?xml version="1.0" encoding="UTF-8"?>
<svg id="Layer_1" xmlns="http://www.w3.org/2000/svg" version="1.1" viewBox="0 0 512 512">
  <!-- Generator: Adobe Illustrator 29.7.1, SVG Export Plug-In . SVG Version: 2.1.1 Build 8)  -->
  <defs>
    <style>
      .st0 {
        fill: #fdbb28;
      }

      .st1 {
        fill: #44968e;
      }

      .st2 {
        fill: #fb7800;
      }
    </style>
  </defs>
  <path class="st1" d="M433.03,307.71c18.81,0,37.62,0,56.43,0,.9,0,1.8,0,2.69,0,1.74.41,3.61,1.21,4.49,2.86,3.96,7.46-14.87,28.11-35.46,38.22-12.39,6.08-24.02,7.66-31.64,8.05"/>
  <path class="st1" d="M421.81,388.62c6.7.78,25.01,1.98,42.8-9.08,31.83-19.78,31.47-59.85,31.42-62.05"/>
  <path class="st1" d="M471.92,358.61s-3.61,12.35-12.35,6.32c-.28.87-2.4,7.09-8.56,9.37-5.94,2.2-13.16-.18-17.41-6.07"/>
  <path class="st1" d="M388.12,186.13s18.72-27,54.06-8.52c0,0-5.06,35.45-22.61,39.81"/>
  <path class="st1" d="M396.46,147.89c1.41-.98,4.21-2.65,8.13-3.21,4.76-.68,8.51.67,10.11,1.36,1.26.4,3.3,1.29,4.44,3.26,1.81,3.14.16,7.02-.79,9.24-4.37,10.28-17.95,19.93-21.9,22.65"/>
  <path class="st1" d="M421.32,216.81s15.64-14.57,24.47,2.69c0,0-6.37,17.55-19.85,13.79"/>
  <path class="st1" d="M422.02,298.27s17.24-2.73,25.89-14.37c0,0,.1,20.47-12.94,25.7"/>
  <path class="st1" d="M387.81,115.91s-35.67-11.79-58.03,8.29"/>
  <path class="st1" d="M396.12,163.61s-40.31-31.26-73.14,0"/>
  <path class="st1" d="M327.61,160.65s-14.96-2.35-16.56-14.8c-.14-1.06-.54-2.28-1.22-2.39-2.29-.39-9.2,12.17-7.21,24.51,1.62,10.06,8.57,16.37,11.36,18.63"/>
  <path class="st1" d="M310.73,184.43c7.86-9.31,11.41-17.78,13.2-23.69,3.49-11.52,7.86-22.42,4.84-59.78-.66-8.22,2.19-11.93,3.36-13.21,6.71-7.31,24-6.23,40.94,6.33,0,0,36.63,34.41,18.21,94.1"/>
  <path class="st2" d="M187.16,159.76s14.96-2.35,16.56-14.8c1.61-12.45,21.68,26.1-5.62,42.57l2.01-.02"/>
  <path class="st1" d="M290.27,186.77c.29-.55.65-1.28.99-2.18,0,0,.59-1.51.94-3.13,1.71-7.88-1.62-14.11-2.52-15.67-.09.45-1.58,7.15-8.11,9.66-4.47,1.72-9.57.81-13.26-2.35.86,1.59,1.73,3.2,2.59,4.85,1.26,2.41,1.9,3.35,2.58,5.02.64,1.58,1,2.93,1.21,3.83"/>
  <path class="st1" d="M235.91,187.98"/>
  <path class="st0" d="M227.93,186.33c-.56-.45-1.35-1.2-1.97-2.32,0,0-.55-1.36-.93-3.12-1.71-7.88,1.62-14.11,2.52-15.67.8,4.53,3.91,8.26,8.11,9.66,5.14,1.72,9.52-.84,10.17-1.23-1.96,2.01-5.28,5.94-7.19,11.86-.21.66-.4,1.34-.4,1.34h0"/>
  <path class="st1" d="M80.3,308.09H21.17c-1.74.41-3.61,1.21-4.49,2.86-3.96,7.46,14.87,28.11,35.46,38.22,12.39,6.08,24.02,7.66,31.64,8.05"/>
  <path class="st1" d="M91.53,389c-6.7.78-25.01,1.98-42.8-9.08-31.83-19.78-31.47-59.85-31.42-62.05"/>
  <path class="st1" d="M43.3,358.99s3.61,12.35,12.35,6.32c.28.87,2.4,7.09,8.56,9.37,5.94,2.2,13.16-.18,17.41-6.07"/>
  <path class="st1" d="M202.92,184.81c-7.86-9.31-11.41-17.78-13.2-23.69-3.49-11.52-7.86-22.42-4.84-59.78.66-8.22-2.19-11.93-3.36-13.21-6.71-7.31-24-6.23-40.94,6.33,0,0-36.63,34.41-18.21,94.1"/>
  <path class="st1" d="M90.57,298.69s-17.24-2.73-25.89-14.37c0,0-.1,20.47,12.94,25.7"/>
  <path class="st1" d="M125.83,116.29s35.67-11.79,58.03,8.29"/>
  <path class="st1" d="M117.53,163.99s40.31-31.26,73.14,0"/>
  <g>
    <path class="st1" d="M277.22,185.56"/>
    <path class="st1" d="M237.43,185.16c1.57-4.45,4.25-9.96,8.95-15.1.97-1.06,1.95-2.02,2.93-2.9,1.88-1.73,2.97-2.49,3.44-2.82,1.8-1.23,2.89-1.61,3.98-1.71.46-.04.8-.02,1.03-.01,1.45.04,2.77.55,5.29,2.28,2.79,1.92,4.44,3.28,5.73,4.58.52.53.87.93,1.3,1.43,1.9,2.17,3.71,4.23,5.02,6.77.73,1.41,1.62,3.6,2,6.6"/>
  </g>
  <path class="st1" d="M391.29,188.19H123.38c-7.19,3.58-18.18,10.19-27.36,21.86-9.61,12.23-17.09,29.82-16.57,95.23.14,18.32.94,43.66,3.83,74,2.48,7.63,7.39,19.68,17.41,31.27,22.11,25.56,53.93,31.3,88.66,37.56,14.16,2.55,35.06,5.32,60.9,5.01h14.17c25.84.31,46.73-2.45,60.9-5.01,34.73-6.26,66.55-12,88.66-37.56,10.02-11.59,14.93-23.64,17.41-31.27,2.88-30.34,3.68-55.68,3.83-74,.52-65.41-6.96-83-16.57-95.23-9.18-11.67-20.17-18.28-27.36-21.86"/>
  <path class="st1" d="M256.92,163.35"/>
  <path class="st1" d="M123.07,186.58s-18.72-27-54.06-8.52c0,0,5.06,35.45,22.61,39.81"/>
  <path class="st1" d="M115.08,148.81c-1.41-.98-4.21-2.65-8.13-3.21-4.76-.68-8.51.67-10.11,1.36-1.26.4-3.3,1.29-4.44,3.26-1.81,3.14-.16,7.02.79,9.24,4.37,10.28,17.95,19.93,21.9,22.65"/>
  <path class="st1" d="M91.22,216.39s-15.64-14.57-24.47,2.69c0,0,6.37,17.55,19.85,13.79"/>
  <path class="st2" d="M123.07,186.58s-18.72-27-54.06-8.52c0,0,5.06,35.45,22.61,39.81"/>
  <path class="st2" d="M114.72,148.34c-1.41-.98-4.21-2.65-8.13-3.21-4.76-.68-8.51.67-10.11,1.36-1.26.4-3.3,1.29-4.44,3.26-1.81,3.14-.16,7.02.79,9.24,4.37,10.28,17.95,19.93,21.9,22.65l11.11,18.01,28.27-10.85-39.38-40.46Z"/>
  <path class="st2" d="M91.22,216.39s-15.64-14.57-24.47,2.69c0,0,6.37,17.55,19.85,13.79"/>
  <path class="st1" d="M125.83,116.29s35.67-11.79,58.03,8.29"/>
  <path class="st1" d="M117.53,163.99s40.31-31.26,73.14,0"/>
  <path class="st1" d="M433.03,307.71c18.81,0,37.62,0,56.43,0,.9,0,1.8,0,2.69,0,1.74.41,3.61,1.21,4.49,2.86,3.96,7.46-14.87,28.11-35.46,38.22-12.39,6.08-24.02,7.66-31.64,8.05"/>
  <path class="st1" d="M422.53,388.7c7.22.77,24.9,1.52,42.08-9.16,31.83-19.78,31.47-59.85,31.42-62.05"/>
  <path class="st1" d="M471.92,358.61s-3.61,12.35-12.35,6.32c-.28.87-2.4,7.09-8.56,9.37-5.94,2.2-13.16-.18-17.41-6.07"/>
  <path class="st2" d="M388.12,186.13s18.72-27,54.06-8.52c0,0-4.93,34.53-21.93,39.62"/>
  <path class="st2" d="M396.46,147.89c1.41-.98,4.21-2.65,8.13-3.21,4.76-.68,8.51.67,10.11,1.36,1.26.4,3.3,1.29,4.44,3.26,1.81,3.14.16,7.02-.79,9.24-4.37,10.28-17.95,19.93-21.9,22.65l-15.67,4.38,15.67-37.67Z"/>
  <path class="st2" d="M422.09,216.15c3.25-2.64,16.04-11.64,23.7,3.34,0,0-6.11,16.85-19.04,13.99"/>
  <path class="st2" d="M422.02,298.27s17.24-2.73,25.89-14.37c0,0,.1,20.47-12.94,25.7"/>
  <path class="st1" d="M387.81,115.91s-35.67-11.79-58.03,8.29"/>
  <path class="st1" d="M396.12,163.61s-40.31-31.26-73.14,0"/>
  <path class="st2" d="M327.61,160.65s-14.96-2.35-16.56-14.8c-.14-1.06-.54-2.28-1.22-2.39-2.29-.39-9.2,12.17-7.21,24.51,1.62,10.06,8.57,16.37,11.36,18.63"/>
  <path class="st0" d="M310.73,184.43c7.86-9.31,11.41-17.78,13.2-23.69,3.49-11.52,7.86-22.42,4.84-59.78-.66-8.22,2.19-11.93,3.36-13.21,6.71-7.31,24-6.23,40.94,6.33,0,0,36.63,34.41,18.21,94.1"/>
  <path class="st2" d="M187.16,159.76s14.96-2.35,16.56-14.8c1.61-12.45,21.68,26.1-5.62,42.57l2.01-.02"/>
  <path class="st0" d="M290.27,186.77c.29-.55.65-1.28.99-2.18,0,0,.59-1.51.94-3.13,1.71-7.88-1.62-14.11-2.52-15.67-.09.45-1.58,7.15-8.11,9.66-4.47,1.72-9.57.81-13.26-2.35.86,1.59,1.73,3.2,2.59,4.85,1.26,2.41,1.9,3.35,2.58,5.02.64,1.58,1,2.93,1.21,3.83"/>
  <path class="st1" d="M235.91,187.98"/>
  <path class="st1" d="M80.3,308.09H21.17c-1.74.41-3.61,1.21-4.49,2.86-3.96,7.46,14.87,28.11,35.46,38.22,12.39,6.08,24.02,7.66,31.64,8.05"/>
  <path class="st1" d="M90.07,389.16c-7.63.73-24.72,1.1-41.34-9.23-31.83-19.78-31.47-59.85-31.42-62.05"/>
  <path class="st1" d="M43.3,358.99s3.61,12.35,12.35,6.32c.28.87,2.4,7.09,8.56,9.37,5.94,2.2,13.16-.18,17.41-6.07"/>
  <path class="st0" d="M202.92,184.81c-7.86-9.31-11.41-17.78-13.2-23.69-3.49-11.52-7.86-22.42-4.84-59.78.66-8.22-2.19-11.93-3.36-13.21-6.71-7.31-24-6.23-40.94,6.33,0,0-36.63,34.41-18.21,94.1"/>
  <path class="st2" d="M90.57,298.69s-17.24-2.73-25.89-14.37c0,0-.1,20.47,12.94,25.7"/>
  <g>
    <path class="st2" d="M277.22,185.56"/>
    <path class="st2" d="M237.43,185.16c1.57-4.45,4.25-9.96,8.95-15.1.97-1.06,1.95-2.02,2.93-2.9,1.88-1.73,2.97-2.49,3.44-2.82,1.8-1.23,2.89-1.61,3.98-1.71.46-.04.8-.02,1.03-.01,1.45.04,2.77.55,5.29,2.28,2.79,1.92,4.44,3.28,5.73,4.58.52.53.87.93,1.3,1.43,1.9,2.17,3.71,4.23,5.02,6.77.73,1.41,1.62,3.6,2,6.6"/>
  </g>
  <path class="st1" d="M391.29,188.19c-41.42-3.45-86.35-5.58-134.37-5.57-47.7.01-92.36,2.14-133.54,5.57-7.19,3.58-18.18,10.19-27.36,21.86-9.61,12.23-17.09,29.82-16.57,95.23.14,18.32.94,43.66,3.83,74,2.48,7.63,7.39,19.68,17.41,31.27,22.11,25.56,53.93,31.3,88.66,37.56,14.16,2.55,35.06,5.32,60.9,5.01h14.17c25.84.31,46.73-2.45,60.9-5.01,34.73-6.26,66.55-12,88.66-37.56,10.02-11.59,14.93-23.64,17.41-31.27,2.88-30.34,3.68-55.68,3.83-74,.52-65.41-6.96-83-16.57-95.23-9.18-11.68-20.17-18.28-27.36-21.86"/>
  <path class="st1" d="M256.92,163.35"/>
  <polygon class="st1" points="34.85 339.78 102.97 347.06 102.97 369.89 83.78 383.46 34.85 339.78"/>
  <polyline class="st1" points="430.92 383.46 479.85 339.78 411.73 347.06"/>
</svg>