<?xml version="1.0" encoding="UTF-8"?>
<svg id="Layer_1" xmlns="http://www.w3.org/2000/svg" version="1.1" viewBox="0 0 325 465">
  <!-- Generator: Adobe Illustrator 29.7.1, SVG Export Plug-In . SVG Version: 2.1.1 Build 8)  -->
  <defs>
    <style>
      .st0 {
        fill: #ffd252;
      }

      .st0, .st1, .st2, .st3, .st4, .st5, .st6, .st7, .st8, .st9, .st10, .st11, .st12, .st13, .st14 {
        stroke-linecap: round;
        stroke-linejoin: round;
      }

      .st0, .st1, .st2, .st3, .st5, .st8, .st11, .st12, .st13 {
        stroke-width: 2px;
      }

      .st0, .st1, .st4, .st6, .st14 {
        stroke: #231f20;
      }

      .st15 {
        fill: #25544e;
      }

      .st16 {
        fill: #bf6421;
      }

      .st1, .st4, .st6, .st7, .st8, .st9, .st10, .st14 {
        fill: none;
      }

      .st17 {
        fill: #fdbb28;
      }

      .st2 {
        fill: #ff64c4;
      }

      .st2, .st3, .st5, .st7, .st8, .st9, .st10, .st11, .st12, .st13 {
        stroke: #000;
      }

      .st3 {
        fill: #64a0ff;
      }

      .st18 {
        fill: #fff;
      }

      .st4, .st10 {
        stroke-width: 4px;
      }

      .st19 {
        fill: #44968e;
      }

      .st20 {
        fill: #cecece;
      }

      .st5 {
        fill: #79db93;
      }

      .st6, .st9 {
        stroke-width: 3px;
      }

      .st21 {
        fill: #231f20;
      }

      .st22 {
        fill: #bc8a26;
      }

      .st11 {
        fill: #7fff85;
      }

      .st23 {
        fill: #edb38b;
      }

      .st24 {
        fill: #cc6274;
      }

      .st12 {
        fill: #d388ff;
      }

      .st13 {
        fill: #f44e4e;
      }

      .st25 {
        fill: #ef9eb0;
      }

      .st26 {
        fill: #fb7800;
      }
    </style>
  </defs>
  <path class="st6" d="M212.41,201.85h-56.94c.08,2.4.73,14.49,10.56,23.21,1.97,1.75,8.22,7.12,17.91,7.6,2.42.12,10.94.24,18.48-5.79,11.39-9.1,10.11-23.89,9.99-25.02Z"/>
  <path class="st1" d="M163.87,222.93c3.43-1.85,10.95-5.31,21.07-5.22,10.19.09,17.69,3.72,21.08,5.63"/>
  <path class="st21" d="M161.36,175.7c-8.51-2.17-17.38-2.71-25.95-.89-4.92,1.54-9.72,2.73-14.88,3.28,0,0-1.13-5.33-1.13-5.33,2.06.58,4.12,1.3,6.01,2.36.22.13.3.41.17.63-1.82,1.27-4.07,1.91-6.16,2.57-2.65.78-4.43-2.75-2.28-4.43,0,0,1.15-.91,1.15-.91,4.6-3.77,10.5-5.43,16.38-5.05,5.71-.06,11.5.62,16.89,2.41,3.57,1.15,6.98,2.7,10.12,4.62.38.23.13.86-.31.74h0Z"/>
  <polygon class="st1" points="171.06 209.08 176.13 202.28 168.84 202.53 171.06 209.08"/>
  <polygon class="st1" points="197.07 209.08 192 202.28 199.29 202.53 197.07 209.08"/>
  <path class="st1" d="M106.39,353.39c-.33-.16-2.2-1.12-2.89-3.34-.52-1.67-.08-3.08.09-3.54"/>
  <path class="st1" d="M111.17,349.47c-.33-.16-2.2-1.12-2.89-3.34-.52-1.67-.08-3.08.09-3.54"/>
  <path class="st1" d="M264.03,353.39c.33-.16,2.2-1.12,2.89-3.34.52-1.67.08-3.08-.09-3.54"/>
  <path class="st1" d="M259.25,349.47c.33-.16,2.2-1.12,2.89-3.34.52-1.67.08-3.08-.09-3.54"/>
  <path class="st6" d="M126.96,260.59c-2.6,10.07-5.73,22.36-9.15,36.24-.5,2.03-1.62,6.69-1.94,12.91-.25,4.86-.47,10.11,1.47,16.24.93,2.96,2.99,8.1,7.7,13.27"/>
  <path class="st6" d="M243.71,340.46c5.2-5.35,7.43-10.71,8.43-13.8,2.07-6.41,1.74-11.91,1.39-17.02-.46-6.54-1.79-11.44-2.38-13.58-3.7-13.34-7.11-25.28-10.02-35.32"/>
  <path class="st1" d="M55.64,219.95c7.39,3.31,15.43,2.36,24.37,2.47"/>
  <path class="st1" d="M83.96,230.24c-7.65,1.7-16.3,4.6-22.83,9.55"/>
  <path class="st1" d="M101.66,246.45c-.82,7.45-1.94,15.02-3.26,17.79"/>
  <path class="st1" d="M80.98,252.08s2.71-6.45,10.19-13.92"/>
  <path class="st6" d="M89.16,252.91c1.93.48,3.71,1.4,5.2,2.73,3.56,3.2,3.98,7.54,4.05,8.6.82-.98,3.14-3.49,7.03-4.42,2.42-.58,4.42-.21,6.68.19,3.18.56,5.66,1.58,7.3,2.38"/>
  <path class="st6" d="M79.69,219.27c-11.48-.36-24.1-.62-30.21-3.74,0,0,20.48,12.83,11.53,24.23,0,0,21.25-4.85,19.78,13.73,2.77-1.07,5.71-1.25,8.37-.58"/>
  <path class="st1" d="M312.24,219.95c-7.39,3.31-15.43,2.36-24.37,2.47"/>
  <path class="st1" d="M283.92,230.24c7.65,1.7,16.3,4.6,22.83,9.55"/>
  <path class="st1" d="M266.22,246.45c.82,7.45,1.94,15.02,3.26,17.79"/>
  <path class="st1" d="M286.9,252.08s-2.71-6.45-10.19-13.92"/>
  <path class="st6" d="M278.73,252.91c-1.93.48-3.71,1.4-5.2,2.73-3.56,3.2-3.98,7.54-4.05,8.6-.82-.98-3.14-3.49-7.03-4.42-2.42-.58-4.42-.21-6.68.19-3.18.56-5.66,1.58-7.3,2.38"/>
  <path class="st6" d="M288.19,219.27c11.48-.36,24.1-.62,30.21-3.74,0,0-20.48,12.83-11.53,24.23,0,0-21.25-4.85-19.78,13.73-2.77-1.07-5.71-1.25-8.37-.58"/>
  <path class="st6" d="M171.45,364.74c1.93,4.49,4.76,12.77,4.18,23.3-.85,15.47-8.51,26.08-11.6,29.92,1.13.38,2.8.83,4.84.94,1.53.08,7.41.19,16.09-6.48,7.22-5.54,11.26-11.83,13.07-14.84,8.12-13.45,11.94-27.59,13.77-38.78"/>
  <path class="st6" d="M165.19,417.21c-1.17-1.11-2.78-2.86-4.27-5.29-1.45-2.38-2.15-3.67-1.86-4.67.59-2.05,5.48-2.83,11.8-2.3"/>
  <path class="st6" d="M171.7,403.48c-1.43-.74-3.47-1.96-5.58-3.88-2.06-1.88-3.09-2.92-3.09-3.96,0-2.14,4.47-4.25,10.68-5.52"/>
  <path class="st6" d="M175.46,388.89c-1.58-.31-3.88-.92-6.44-2.17-2.5-1.22-3.78-1.94-4.08-2.94-.6-2.05,3.1-5.33,8.71-8.29"/>
  <path class="st6" d="M174.11,374.97c-1.61-.1-3.97-.39-6.67-1.29-2.65-.88-4.01-1.42-4.43-2.37-.73-1.64,1.44-4.56,5.23-7.64"/>
  <path class="st4" d="M88.92,167.73h-30.91c-.91.22-1.89.64-2.35,1.51-2.07,3.95,7.77,14.88,18.54,20.23,6.48,3.22,12.56,4.06,16.54,4.26"/>
  <path class="st6" d="M80.01,209.26c-2.46-.77-5.04-1.89-7.59-3.49-16.64-10.47-16.46-31.68-16.43-32.85"/>
  <path class="st1" d="M71.55,194.68s1.89,6.54,6.46,3.35c.15.46,1.25,3.75,4.48,4.96"/>
  <path class="st6" d="M155.83,102.47c-4.11-4.93-5.97-9.41-6.9-12.54-1.83-6.1-4.11-11.87-2.53-31.65.35-4.35-1.14-6.32-1.76-6.99-3.51-3.87-12.55-3.3-21.4,3.35,0,0-19.15,18.22-9.52,49.82,0,0,7.11,17.15,25.58,17.57,1.63.04,3.87-.23,6.38-1.43,8.94-4.28,10.05-16.66,10.16-18.12"/>
  <path class="st6" d="M113.39,103.37s-9.79-14.29-28.26-4.51c0,0,2.65,18.77,11.82,21.08"/>
  <path class="st6" d="M111,83.12c-.74-.52-2.2-1.41-4.25-1.7-2.49-.36-4.45.35-5.29.72-.66.21-1.73.68-2.32,1.73-.95,1.66-.08,3.71.41,4.89,2.29,5.44,9.38,10.55,11.45,11.99"/>
  <path class="st6" d="M96.03,120.61s-8.18-7.72-12.79,1.42c0,0,3.33,9.29,10.38,7.3"/>
  <path class="st1" d="M89.74,161.74s-9.01-1.44-13.53-7.61c0,0-.05,10.84,6.77,13.61"/>
  <path class="st1" d="M278.21,161.74s9.01-1.44,13.53-7.61c0,0,.05,10.84-6.77,13.61"/>
  <path class="st6" d="M115.52,66.19s18.65-6.24,30.34,4.39"/>
  <path class="st6" d="M111.18,91.45s21.08-16.55,38.24,0"/>
  <path class="st6" d="M148.27,87.77s7.82-1.24,8.66-7.83c.07-.56.28-1.21.64-1.27,1.2-.21,4.81,6.44,3.77,12.98-.85,5.33-4.48,8.67-5.94,9.86"/>
  <path class="st6" d="M217.97,88.34s-7.82-1.24-8.66-7.83c-.84-6.59-11.34,13.82,2.94,22.53"/>
  <path class="st1" d="M165.8,86.1c.05.24.8,3.78,4.13,5.11,2.28.91,4.87.43,6.75-1.24-.88,1.68-1.76,3.42-2.63,5.22-1.2,2.49-2.31,4.92-3.33,7.28-.58-.29-5.07-2.67-6.2-8.08-.87-4.17.82-7.47,1.28-8.29Z"/>
  <path class="st1" d="M200.31,86.1c-.42,2.4-2.04,4.37-4.24,5.11-2.69.91-4.98-.44-5.32-.65,1.03,1.06,2.76,3.14,3.76,6.28.73,2.29.8,4.3.74,5.63.6-.29,5.21-2.67,6.37-8.08.89-4.17-.85-7.47-1.32-8.29Z"/>
  <path class="st14" d="M144.63,198.22c2.95,1.59,5.06,3.63,4.95,5.65-.2,3.75-7.96,6.58-13.83,6.95-8.94.56-19.07-4.26-18.92-8.43.15-4.1,10.27-8.12,18.9-7.02,2.99.38,6.29,1.44,8.91,2.86"/>
  <path class="st4" d="M278.27,167.93c9.83,0,19.67,0,29.5,0h1.41c.91.22,1.89.64,2.35,1.51,2.07,3.95-7.77,14.88-18.54,20.23-6.48,3.22-12.56,4.06-16.54,4.26"/>
  <path class="st6" d="M290.05,208.42c1.56-.65,3.15-1.46,4.73-2.45,16.64-10.47,16.46-31.68,16.43-32.85"/>
  <path class="st1" d="M295.64,194.88s-1.89,6.54-6.46,3.35c-.12.39-.92,2.76-3.07,4.23"/>
  <path class="st6" d="M212.19,102.67c4.11-4.93,5.97-9.41,6.9-12.54,1.83-6.1,4.11-11.87,2.53-31.65-.35-4.35,1.14-6.32,1.76-6.99,3.51-3.87,12.55-3.3,21.4,3.35,0,0,19.15,18.22,9.52,49.82,0,0-7.11,17.15-25.58,17.57-1.63.04-3.87-.23-6.38-1.43-8.94-4.28-10.05-16.66-10.16-18.12Z"/>
  <path class="st6" d="M252.49,66.39s-18.65-6.24-30.34,4.39"/>
  <path class="st6" d="M256.83,91.65s-21.08-16.55-38.24,0"/>
  <path class="st14" d="M218.44,204.07c.2,3.75,7.96,6.58,13.83,6.95,8.94.56,19.07-4.26,18.92-8.43-.15-4.1-10.27-8.12-18.9-7.02-6.36.81-14.06,4.68-13.86,8.5Z"/>
  <path class="st6" d="M184.18,113.76c3.01-.04,6.23-.07,8.59-2.19,3.09-2.77,2.68-7.31,2.41-10.29,0,0-.61-6.66-5.71-12.27-.65-.71-1.53-1.53-1.53-1.53-.98-.92-1.55-1.32-1.8-1.49-.94-.65-1.51-.85-2.08-.9-.24-.02-.42,0-.54,0-.76.02-1.45.29-2.76,1.21-1.99,1.38-2.86,2.22-3.68,3.18-4.35,5.19-4.67,11.82-4.67,11.82-.16,3.36-.37,7.61,2.67,10.29,2.56,2.26,6.09,2.23,9.1,2.19Z"/>
  <path class="st14" d="M175.91,93.41c1.34.67,3.96,1.76,7.44,1.78,3.54.01,6.22-1.11,7.56-1.78"/>
  <path class="st14" d="M173.62,98.32c1.44.96,4.89,2.98,9.72,3.17,5.17.21,8.96-1.78,10.43-2.66"/>
  <path class="st14" d="M173.15,104.16c1.62.95,5.36,2.86,10.48,2.87,5.17.01,8.95-1.92,10.57-2.88"/>
  <path class="st6" d="M92.16,196.9c-1.12-12.7-1.38-23.18-1.41-30.45-.17-37.29,5.55-46.38,8.66-50.41,4.82-6.24,10.64-9.73,14.3-11.57"/>
  <path class="st6" d="M228.01,240.29c-2.81.64-5.72,1.24-8.73,1.77-11.5,2.03-22.22,2.72-31.84,2.65h-7.41c-9.8-.02-20.48-.76-31.84-2.65-2.5-.42-4.94-.87-7.32-1.36"/>
  <path class="st6" d="M253.78,104.46c3.76,1.89,9.51,5.39,14.3,11.57,3.39,4.37,8.73,13.32,8.66,50.41-.01,7.29-.24,17.76-1.27,30.45"/>
  <path class="st6" d="M172.2,102.47h-16.38"/>
  <path class="st14" d="M183.96,85.45"/>
  <path class="st6" d="M115.71,340.12c-.72,0-8.25.11-12.32,6.14-3.27,4.85-2.2,10.24-1.59,12.1.51,1.53,3.33,9.51,11.77,13.5,1.84.87,7.5,3.53,14.12,1.64,10.44-2.98,13.58-14.51,13.74-15.17l4.73-6.14"/>
  <path class="st6" d="M196.05,102.38c5.05.03,10.1.06,15.15.09"/>
  <path class="st6" d="M92.12,198.37c-1.45.38-3.25,1.06-5.04,2.32-6.93,4.85-7.35,13.79-7.38,15.64-.14,7.26,4.09,12.41,8.15,17.52,3.91,4.92,7.76,7.85,9.27,9.01,6.77,5.2,15.85,12.5,28.41,23.29"/>
  <path class="st6" d="M92.16,198.83c1.3-.33,3.24-.67,5.54-.47,9.4.82,14.83,9.81,23.74,21.05,4.32,5.45,10.59,12.84,19.02,21.19"/>
  <path class="st6" d="M158.03,259.12"/>
  <path class="st6" d="M183.94,254.34c3.43-.02,11.06-.06,17.89,3.56,12.11,6.4,15.93,20.94,17.94,31.01,3.83,19.2-.68,39.75-.68,39.75-.43,1.72-1.28,4.21-3.06,6.78-2.81,4.07-6.38,6.09-8.21,6.96-4.64,2.05-13.1,5.06-24.03,4.97-11.16-.09-19.72-3.38-24.34-5.55-2.14-1.19-5.78-3.65-8.46-8.11-1.05-1.75-1.73-3.43-2.17-4.87,0,0,0,0,0,0-1.36-6.03-4.85-22.24-.68-39.75,2.37-9.97,5.84-24.51,17.94-31.01,6.86-3.69,14.5-3.73,17.86-3.75Z"/>
  <path class="st6" d="M153.31,272.93s30.44,14.62,61.2,0"/>
  <path class="st6" d="M147.23,295.03s35.81,19.92,73.23-.2"/>
  <path class="st6" d="M147.14,317.26s35.81,19.92,73.23-.2"/>
  <path class="st6" d="M276.03,198.37c1.45.38,3.25,1.06,5.04,2.32,6.93,4.85,7.35,13.79,7.38,15.64.14,7.26-4.09,12.41-8.15,17.52-3.91,4.92-7.76,7.85-9.27,9.01-6.47,4.97-15.04,11.85-26.75,21.87"/>
  <path class="st6" d="M275.99,198.83c-1.3-.33-3.24-.67-5.54-.47-9.4.82-14.83,9.81-23.74,21.05-4.27,5.38-10.43,12.65-18.7,20.87"/>
  <path class="st1" d="M286.66,211.04c-.38.68-1.02,1.64-2.04,2.57-.91.83-1.8,1.34-2.47,1.66"/>
  <path class="st1" d="M283.33,204.5c-.38.68-1.02,1.64-2.04,2.57-.91.83-1.8,1.34-2.47,1.66"/>
  <path class="st1" d="M278.15,198.77c-.38.68-1.02,1.64-2.04,2.57-.91.83-1.8,1.34-2.47,1.66"/>
  <path class="st1" d="M81.72,211.1c.38.68,1.02,1.64,2.04,2.57.91.83,1.8,1.34,2.47,1.66"/>
  <path class="st1" d="M85.05,204.56c.38.68,1.02,1.64,2.04,2.57.91.83,1.8,1.34,2.47,1.66"/>
  <path class="st1" d="M90.23,198.83c.38.68,1.02,1.64,2.04,2.57.91.83,1.8,1.34,2.47,1.66"/>
  <path class="st6" d="M255.91,103.58s9.79-14.29,28.26-4.51c0,0-2.65,18.77-11.82,21.08"/>
  <path class="st6" d="M257.3,83.34c.74-.52,2.2-1.41,4.25-1.7,2.49-.36,4.45.35,5.29.72.66.21,1.73.68,2.32,1.73.95,1.66.08,3.71-.41,4.89-2.29,5.44-9.38,10.55-11.45,11.99"/>
  <path class="st6" d="M272.27,120.82s8.18-7.72,12.79,1.42c0,0-3.33,9.29-10.38,7.3"/>
  <path class="st6" d="M123.38,180.94c.99-.87,2.58-2.12,4.94-3.51,5.2-3.06,10.43-4.6,12.15-5.07"/>
  <path class="st21" d="M209.39,175.36c8.01-4.95,17.57-7.21,27.01-7.03,5.88-.37,11.78,1.28,16.38,5.05,0,0,1.15.9,1.15.9,2.17,1.71.34,5.2-2.28,4.43-2.05-.6-4.11-1.33-6-2.41-.22-.13-.29-.42-.16-.64,1.83-1.26,4.09-1.88,6.18-2.53,0,0-1.13,5.33-1.13,5.33-5.17-.55-9.96-1.74-14.88-3.28-3.34-.79-6.76-1-10.2-1.08-5.32-.05-10.53.63-15.75,1.98-.42.13-.71-.51-.31-.74h0Z"/>
  <path class="st6" d="M247.69,181.34c-.99-.87-2.58-2.12-4.94-3.51-5.2-3.06-10.43-4.6-12.15-5.07"/>
  <path class="st6" d="M143.32,349.47c8.43,6.3,22.27,14.43,39.83,15.09,19.97.75,35.6-8.5,44.43-15.09"/>
  <path class="st6" d="M112.31,339.94s3-6.47,6.75-9.58"/>
  <path class="st6" d="M254.59,340.12c.72,0,8.25.11,12.32,6.14,3.27,4.85,2.2,10.24,1.59,12.1-.51,1.53-3.33,9.51-11.77,13.5-1.84.87-7.5,3.53-14.12,1.64-10.44-2.98-13.58-14.51-13.74-15.17l-4.73-6.14"/>
  <path class="st6" d="M257.99,339.94s-3-6.47-6.75-9.58"/>
  <polygon class="st0" points="54.57 129.27 40.29 120.16 27.21 130.93 31.46 114.53 17.18 105.42 34.09 104.4 38.34 88 44.54 103.77 61.45 102.74 48.37 113.51 54.57 129.27"/>
  <polygon class="st1" points="130.5 32.95 120.11 26.33 110.6 34.16 113.69 22.23 103.31 15.6 115.6 14.86 118.7 2.93 123.2 14.4 135.5 13.66 125.99 21.49 130.5 32.95"/>
  <polygon class="st0" points="316.49 148.98 308.25 143.72 300.7 149.94 303.16 140.48 294.92 135.22 304.67 134.63 307.13 125.17 310.7 134.27 320.46 133.68 312.91 139.89 316.49 148.98"/>
  <polygon class="st0" points="73.94 300.33 65.65 295.05 58.07 301.29 60.54 291.78 52.25 286.49 62.06 285.9 64.53 276.39 68.12 285.54 77.93 284.94 70.34 291.19 73.94 300.33"/>
  <polygon class="st0" points="278.04 326.23 271.56 322.1 265.63 326.98 267.56 319.55 261.08 315.41 268.75 314.95 270.68 307.52 273.49 314.67 281.16 314.2 275.23 319.08 278.04 326.23"/>
  <path class="st1" d="M35.71,191.88c-.84-1.25-6.16-8.89-16.18-10.25-7.39-1-13.02,2.01-14.81,3.06-.34-5.29-.68-10.58-1.02-15.87,3.78-.32,9.91-.35,16.98,1.83,8.35,2.57,14.01,7,16.98,9.7-.65,3.84-1.3,7.68-1.95,11.53Z"/>
  <path class="st0" d="M82.7,319.54c-1.2-.18-8.59-1.18-12.45,4.63-2.85,4.28-2.11,9.75-1.8,11.55-4.18-2.89-8.35-5.77-12.53-8.66.82-2.68,2.51-6.73,6.18-10.1,4.33-3.98,9.34-5.11,12.25-5.48,2.78,2.69,5.56,5.37,8.34,8.06Z"/>
  <path class="st1" d="M274.45,285.97c.7-.12,5.02-.9,6.13-4.86.82-2.91-.59-5.84-1.09-6.79,2.86.86,5.73,1.71,8.59,2.57.03,1.65-.18,4.23-1.62,6.78-1.7,3.02-4.3,4.56-5.86,5.29-2.05-1-4.09-2-6.14-3Z"/>
  <path class="st1" d="M290.79,90.06c1.32-.67,9.4-4.97,11.7-14.55,1.7-7.07-.74-12.88-1.62-14.74,5.27.27,10.55.55,15.82.82-.05,3.71-.6,9.67-3.44,16.29-3.35,7.82-8.28,12.82-11.23,15.39-3.74-1.07-7.49-2.14-11.23-3.21Z"/>
  <path class="st26" d="M276.74,162.14c1.76-.41,3.52-.82,5.28-1.22l6.17-3.06,2-1.61,1.73-1.93-.48,4.28c-1.18,2.2-2.36,4.41-3.54,6.61-2.33.93-4.66,1.85-6.99,2.78-1.04-.29-2.09-.57-3.13-.86-.34-1.66-.69-3.32-1.03-4.98Z"/>
  <path class="st26" d="M90.11,162.06l-3.88-1.96-6.17-3.06-2-1.61-1.73-1.93.48,4.28,2.71,6.48,5.84,4.1c1.37-.23,2.73-.47,4.1-.7l.65-5.6Z"/>
  <polygon class="st26" points="254.88 101.24 256.5 87.62 256.92 83.6 266.2 82.59 269.76 85.75 269.7 88.99 265.25 95.39 259.34 100.15 254.88 101.24"/>
  <polygon class="st26" points="111.38 99.56 111.2 86.97 111.2 83.26 102.75 81.46 99.18 84 98.92 86.97 102.41 93.23 107.38 98.14 111.38 99.56"/>
  <polygon class="st26" points="149.01 87.59 153.47 85.86 157.82 81.53 159.63 79.55 159.63 83.95 160.78 88.17 158.81 97.47 156.48 99.01 154.99 101.46 150.67 94.49 149.01 87.59"/>
  <path class="st26" d="M218.92,90.36l-4.58-2.37-4.1-4.92-1.7-2.22c-.9,1.16-1.8,2.31-2.69,3.47.1,1.64.2,3.27.31,4.91l.89,9.5,2.3,1.87,1.27,2.64,5.59-6.28,2.71-6.6Z"/>
  <path class="st26" d="M100.69,95.84l-9.78.55-4.74,2.3-1.05,1.13.17,2.99,1.88,6.21,3.59,7.73,3.93,2.59,3.06.69,2.94-4.9,3.81-5.06,5.38-4.27,2.52-1.75-1.67-3.21s-9.59-4.95-10.04-5Z"/>
  <polygon class="st26" points="282.11 118.47 284.26 120.23 285.63 123.56 283.11 126.33 279.15 129.57 275.12 129.63 272.29 122.33 278.23 118.47 282.11 118.47"/>
  <polygon class="st26" points="86.78 118.08 84.63 119.84 83.27 123.17 85.78 125.95 89.75 129.18 93.78 129.25 96.6 121.94 90.66 118.08 86.78 118.08"/>
  <path class="st19" d="M190.01,364.43c5.17-.95,10.33-1.9,15.5-2.86,1.8-.79,3.59-1.58,5.39-2.37-.15,3.18-.57,7.04-1.6,11.34-1.06,4.44-2.49,8.19-3.84,11.15-3.1,6.24-6.19,12.47-9.29,18.71-5.56,5.2-11.12,10.39-16.68,15.59-4.44.98-8.89,1.95-13.33,2.93v-2.33c1.07-1.79,2.15-3.59,3.22-5.38,1.43-4.18,2.86-8.36,4.28-12.54.74-5.12,1.48-10.23,2.21-15.35-.23-2.34-.46-4.69-.68-7.03-1.19-4.29-2.38-8.58-3.57-12.86,1.28.28,2.56.55,3.85.83,1.78.06,3.56.11,5.34.17,3.07,0,6.14,0,9.21,0Z"/>
  <path class="st17" d="M92.03,194.46c-1.82-.66-3.63-1.32-5.45-1.98l-11.88-4.09-9.33-6.12-7.93-4.48c-.23,1.83-.47,3.66-.7,5.49,2.13,4.56,4.27,9.12,6.4,13.67,2.44,2.54,4.88,5.08,7.33,7.62,2.14,1.27,4.84,2.64,8.05,3.81,2.9,1.05,5.56,1.7,7.84,2.12,3.65-.21,7.31-.43,10.96-.64-1.76-5.13-3.52-10.27-5.28-15.4Z"/>
  <path class="st17" d="M275.04,194.73c1.82-.66,3.63-1.32,5.45-1.98l11.88-4.09,9.33-6.12,7.93-4.48c.23,1.83.47,3.66.7,5.49-2.13,4.56-4.27,9.12-6.4,13.67-2.44,2.54-4.88,5.08-7.33,7.62-2.14,1.27-4.84,2.64-8.05,3.81-2.9,1.05-5.56,1.7-7.84,2.12-3.65-.21-7.31-.43-10.96-.64,1.76-5.13,3.52-10.27,5.28-15.4Z"/>
  <polygon class="st26" points="164.11 415.74 169.91 407.86 171.18 404.9 164.64 404.79 158.69 406.81 159.58 409.85 164.11 415.74"/>
  <polygon class="st26" points="171.85 402.25 175.06 393 175.39 389.8 169.11 391.64 164.03 395.32 165.78 397.97 171.85 402.25"/>
  <polygon class="st26" points="173.81 388.6 175.69 378.99 175.54 375.78 169.33 378.46 164.66 382.8 166.88 385.19 173.81 388.6"/>
  <polygon class="st26" points="173.24 374.43 172.47 364.67 171.46 361.61 166.2 365.85 162.86 371.3 165.64 373 173.24 374.43"/>
  <path class="st19" d="M124.32,101.17l-10.36,1.32-7.02,4.91c-1.98,2.41-3.95,4.83-5.93,7.24-1.55,2.38-3.17,5.17-4.69,8.38-1.82,3.83-3.11,7.42-4.03,10.55-.26,4.71-.53,9.42-.79,14.12-.59,5.09-1.18,10.18-1.77,15.26.31,6.7.7,13.54,1.2,20.5.36,5.05.75,10.02,1.19,14.92,4.56.66,9.13,1.32,13.69,1.97,5.53,7.23,11.06,14.47,16.6,21.7,3.17,3.55,6.34,7.1,9.51,10.65,2.99,2.67,5.98,5.33,8.97,8,12.91,1.24,25.82,2.49,38.74,3.73l36.6-2.12c2.22-.08,5.51-.46,9.2-1.89,4.15-1.6,7.07-3.84,8.81-5.41,3.15-4.15,6.3-8.31,9.45-12.46,6.02-7.06,10.28-12.17,13.4-15.96,3.76-4.56,5.38-6.6,8.55-7.53,4.13-1.21,7.99.3,9.84-2.17.55-.73.7-1.72,1.01-3.71.51-3.24.26-5.76.23-6.13-.4-4.29.46-6.2.26-24-.08-7.47-.34-16.13-.9-25.76-1.7-5.91-3.41-11.81-5.11-17.72-3.44-4.3-6.89-8.61-10.33-12.91-3.39-1.87-6.78-3.74-10.17-5.61l-51.27,1.09-74.87-.99Z"/>
  <polygon class="st19" points="89.47 167.66 57.22 167.46 54.84 168.97 57.07 174.16 67.03 186.25 79.63 191.6 91.29 194.42 89.47 167.66"/>
  <polygon class="st19" points="277.73 168.08 309.98 167.88 312.35 169.39 310.12 174.58 300.16 186.67 287.56 192.02 275.91 194.84 277.73 168.08"/>
  <polygon class="st17" points="115.33 106.45 119.25 113.05 130.3 120.42 144.81 121.58 152.47 115.06 156.16 104.64 154.98 101.48 147.97 88.83 146.54 71.05 146.07 55.99 144.82 51.74 136.87 49.33 126.63 52.81 119.09 60.07 114.65 71.05 112.22 75.44 110.25 94.76 114.27 106.64 115.33 106.45"/>
  <polygon class="st17" points="252.48 106.65 248.56 113.25 237.5 120.62 222.99 121.78 215.33 115.26 211.65 104.84 212.83 101.68 219.83 89.03 221.27 71.25 221.74 56.19 222.98 51.94 230.94 49.53 241.17 53.01 248.72 60.27 253.15 71.25 255.59 75.64 257.56 94.96 253.54 106.84 252.48 106.65"/>
  <path class="st23" d="M145.8,198.75l1.02.95,1.48,1.29,1.36,3.25-.89,2.17-1.84.99-1.14.67-3.84,1.77-5.13,1.04h-4.38l-4-.52-4.89-1.73-4.69-2.51-1.89-2.34-.25-1.66,1.05-1.84,2.98-2.2,2.25-1.01,3.17-.97,4.18-.94c2.18-.09,5.2.02,8.66.91,2.81.72,5.08,1.75,6.77,2.66Z"/>
  <path class="st23" d="M222.21,198.95l-1.02.95-1.48,1.29-1.36,3.25.89,2.17,1.84.99,1.14.67,3.84,1.77,5.13,1.04h4.38s4-.52,4-.52l4.89-1.73,4.69-2.51,1.89-2.34.25-1.66-1.05-1.84-2.98-2.2-2.25-1.01-3.17-.97-4.18-.94c-2.18-.09-5.2.02-8.66.91-2.81.72-5.08,1.75-6.77,2.66Z"/>
  <path class="st26" d="M181.2,86.41l-5.68,5.23-2.4,10,.11,8.08s2.31,2.14,2.83,2.22,6.99,1.68,6.99,1.68l6.09-1.14,5.79-4.25.19-8.86-7.08-11.02-3.92-2.14-2.93.2Z"/>
  <polygon class="st17" points="170.46 102.89 167.76 100.78 165.31 97.26 164.21 92.66 164.81 87.68 165.14 87.5 166.3 87.16 167.67 89.79 169.77 90.85 171.49 92.13 173.6 92.22 174.18 93.11 171.77 99.81 170.46 102.89"/>
  <polygon class="st17" points="196.02 102.65 198.67 100.49 201.06 96.93 202.08 92.31 201.39 87.34 201.05 87.16 199.88 86.86 198.57 89.51 196.49 90.6 194.79 91.92 192.68 92.05 192.11 92.95 194.65 99.6 196.02 102.65"/>
  <path class="st24" d="M167.65,202.16h-11.78l1.24,7.91,4.64,10.79,2.35,2.11s5.07-2.6,5.45-2.82,7.09-2.13,7.09-2.13l7.62-.68,10.73,1.3,10.03,3.21,3.47-2.66,3.77-12.65v-5.65l-44.62,1.28Z"/>
  <polygon class="st25" points="164.11 222.97 167.45 226.06 179.96 231.86 192.66 231.64 201.85 225.99 205.42 222.93 195.48 218.85 186.34 217.44 174.02 218.33 164.7 221.72 164.11 222.97"/>
  <polygon class="st18" points="169.36 202.59 170.99 208.14 176.83 201.92 169.36 202.59"/>
  <polygon class="st18" points="192.08 202.36 197.15 209.16 199.37 202.36 192.08 202.36"/>
  <polygon class="st19" points="79.69 219.27 53.21 216.91 58 221.85 79.69 222.46 79.69 219.27"/>
  <polygon class="st19" points="288.46 219.53 314.94 217.17 310.15 222.11 288.46 222.73 288.46 219.53"/>
  <polygon class="st17" points="55.98 221.21 61.5 227.47 63.26 233.91 61.13 239.79 70.06 239.41 79.69 243.87 80.98 252.08 80.78 253.49 87.31 252.08 94.35 255.64 97 259.12 97.89 264.24 102.61 260.59 108.1 259.52 116.83 260.59 122.09 263.59 87.84 233.85 81.72 226 80.98 221.21 79.69 222.46 70.06 222.46 59.15 221.21 55.98 221.21"/>
  <polygon class="st17" points="311.87 221.21 306.36 227.47 304.6 233.91 306.72 239.79 297.79 239.41 288.17 243.87 286.88 252.08 287.07 253.49 280.55 252.08 273.5 255.64 270.86 259.12 269.96 264.24 265.25 260.59 259.75 259.52 251.03 260.59 245.77 263.59 280.01 233.85 286.14 226 286.88 221.21 288.17 222.46 297.79 222.46 308.71 221.21 311.87 221.21"/>
  <polyline class="st17" points="59.15 221.21 55.98 221.21 61.5 227.47"/>
  <path class="st19" d="M125.52,266.15l-16-13.43-17.04-13.79-10.77-12.93-2.02-9.67.85-7.24,4.62-6.8,8.18-3.97,6.69.36,7.99,4.32,15.87,19.48,14.13,15.7,2.86,2.54,27.96,3.73,42.8-1.2,16.36-2.94,15.67-17.74,13.88-17.52s6.42-6.99,8.08-5.97,8.81-2.17,8.81-2.17l10.53,8.13,3.48,11.3-2.32,9.67-14.65,16.51-21.81,16.62-5.4,5.6-2.39,1.08,8.54,27.69,4.18,23.01-3.37,12.61,7.12,11.34,7.23,4.16,2.52,3.91,1.04,8.61-6.77,11.46-12.07,5.83-12.65-3.26-7.01-9.09-6.52-9.9-19.7,9.42-21.52,2.82-19.38-3.81-13.61-6.65-3.99-1.48-4.95,7.28-5.02,8.51-8.27,5.22-11.27-.47-8.39-4.96-5.75-8.45-1.14-8,2.12-6.51,7.91-4.29,2.56-2.86,4.09-5.74,1.02-2.55-3.15-9.19.06-7.92,1.59-13.71,4-16.19,4.19-16.5Z"/>
  <polygon class="st17" points="169.89 344.28 159.42 341.22 149.08 331.64 146.85 319.87 145.85 308.31 148.06 286.07 155.85 266.28 165.45 258.12 179.46 254.06 190.82 254.79 202.19 257.73 206.78 261.3 215.08 271.61 219.29 285.47 221.97 299.17 221.59 316.32 219.8 330.11 213.44 338.78 201.93 345.3 187.38 347.14 169.89 344.28"/>
  <path class="st26" d="M267.37,95.94l9.78.55,4.74,2.3,1.05,1.13-.17,2.99-1.88,6.21-3.59,7.73-3.93,2.59-3.06.69-2.94-4.9-3.81-5.06-5.38-4.27-2.52-1.75,1.67-3.21s9.59-4.95,10.04-5Z"/>
  <path class="st15" d="M222.52,241.37c.28,1.33-16.88,8.75-38.08,8.9-22.45.16-40.85-7.88-40.57-9.17.23-1.06,13.16,2.78,34.92,3.28,26.63.61,43.45-4.31,43.72-3.01Z"/>
  <path class="st15" d="M212.27,360.03c.95,1.91-8.46,11.68-20.49,12.57-12.49.93-23.58-8.03-22.87-10.03.55-1.55,7.93,1.78,21.41,1.04,13.89-.76,21.17-5.14,21.95-3.59Z"/>
  <path class="st15" d="M135.57,235.4c.78,1.05,2.06,2.55,3.93,3.93,4.76,3.51,9.97,3.76,13.21,3.93,27.14,1.36,22.77,1.53,31.13,1.46,6.94-.06,11.75-.18,15-.29,16.65-.53,21.98-1.4,27.31-4.3,3.61-1.96,6.13-4.25,7.59-5.73-12.86,3-29.44,5.68-48.8,5.9-19.58.22-36.36-2.13-49.38-4.89Z"/>
  <path class="st15" d="M139.79,239.94c1.24.34,2.42.63,3.51.88,11.04,2.59,20.03,2.92,33.56,3.42,8.79.32,16.12.25,21.27.11,5.75-.32,11.51-.64,17.26-.96,4.04-.54,8.07-1.09,12.11-1.63"/>
  <path class="st22" d="M217.92,328.77c-3.62,2.83-17.02,12.6-36.44,11.94-17.09-.58-28.75-8.9-32.64-11.94.93,2.34,2.48,5.47,5.06,8.68,1.96,2.44,3.98,4.25,5.66,5.55,6.69,1.25,13.37,2.49,20.06,3.74l21.8-1.94,12.33-6.61c1.39-3.14,2.78-6.28,4.17-9.42Z"/>
  <path class="st22" d="M55.9,178.09c1.43,2.44,3.48,5.6,6.32,9.01,2.31,2.79,5.53,6.62,10.72,10.33,2.7,1.93,6.73,4.39,12.11,6.32.73-.95,1.79-2.19,3.23-3.49,2.12-1.91,3.62-2.64,3.66-3.95.02-.6-.27-1.42-1.52-2.4-5.95-1.61-11.89-3.21-17.84-4.82-4.37-3.26-9.1-6.47-14.19-9.53-.83-.5-1.66-.99-2.49-1.47Z"/>
  <path class="st22" d="M311.94,177.93c-1.43,2.44-3.48,5.6-6.32,9.01-2.31,2.79-5.53,6.62-10.72,10.33-2.7,1.93-6.73,4.39-12.11,6.32-.73-.95-1.79-2.19-3.23-3.49-2.12-1.91-3.62-2.64-3.66-3.95-.02-.6.27-1.42,1.52-2.4,5.95-1.61,11.89-3.21,17.84-4.82,4.37-3.26,9.1-6.47,14.19-9.53.83-.5,1.66-.99,2.49-1.47Z"/>
  <path class="st22" d="M152,100.08c-.31,1.4-2.61,11.17-10.82,14.8-9.12,4.04-22.34-.93-28.82-13.47,1.73,3.8,3.45,7.6,5.18,11.4l13.65,8.38,9.84,1.27,9.34-4.2,4.03-9.69,1.14-5.06-3.54-3.43Z"/>
  <path class="st22" d="M216.26,100.08c.31,1.4,2.61,11.17,10.82,14.8,9.12,4.04,22.34-.93,28.82-13.47-1.73,3.8-3.45,7.6-5.18,11.4l-13.65,8.38-9.84,1.27-9.34-4.2-4.03-9.69-1.14-5.06,3.54-3.43Z"/>
  <path class="st16" d="M90.46,111.9c.96.14,6.49.84,11.41-2.97,4.39-3.4,5.32-8.08,5.51-9.2,1.97,1.42,2.85,2.04,3.28,2.32.06.04.29.2.61.42.44.3.8.56,1.03.72-.67,1.26-1.35,2.53-2.02,3.79l-6.5,2.62-3.22,5.35-2.71,4.31c-1.09-.53-2.5-1.37-3.93-2.67-1.1-1-1.91-2-2.49-2.84-.32-.62-.65-1.24-.97-1.85Z"/>
  <path class="st16" d="M87.3,126.02c.51.02,2.92.03,4.99-1.82,2.09-1.86,2.33-4.28,2.37-4.78l1.91,1.48-.98,2.33c-.47.86-.94,1.72-1.41,2.59-.47.68-.94,1.36-1.41,2.05-.69.5-1.38,1-2.07,1.5l-1.9-.65c-.5-.9-1-1.8-1.5-2.7Z"/>
  <path class="st16" d="M106.07,96.01c.59-.08,2.13-.36,3.46-1.63,2.07-1.99,1.87-4.73,1.83-5.11v9.84c-.8-.07-1.59-.15-2.39-.22-.97-.96-1.93-1.92-2.9-2.88Z"/>
  <path class="st16" d="M278.67,112.87c-.98.14-6.63.87-11.66-3.07-4.49-3.51-5.44-8.36-5.63-9.51-2.01,1.47-2.91,2.11-3.35,2.4-.06.04-.3.2-.63.43-.45.31-.82.58-1.05.74.69,1.31,1.38,2.61,2.07,3.92l6.64,2.7,3.29,5.53,2.77,4.46c1.11-.55,2.56-1.42,4.02-2.76,1.12-1.03,1.95-2.07,2.54-2.94.33-.64.66-1.28.99-1.92Z"/>
  <path class="st16" d="M280.88,126.8c-.51.02-2.92.03-4.99-1.82-2.09-1.86-2.33-4.28-2.37-4.78-.64.49-1.28.99-1.91,1.48l.98,2.33c.47.86.94,1.72,1.41,2.59.47.68.94,1.36,1.41,2.05.69.5,1.38,1,2.07,1.5l1.9-.65c.5-.9,1-1.8,1.5-2.7Z"/>
  <path class="st16" d="M262.14,96.98c-.59-.08-2.13-.36-3.46-1.63-2.07-1.99-1.87-4.73-1.83-5.11,0,3.28,0,6.56,0,9.84.8-.07,1.59-.15,2.39-.22.97-.96,1.93-1.92,2.9-2.88Z"/>
  <path class="st16" d="M173.11,104.64c.43.54,4.61,5.69,11.61,5.45,6.43-.22,10.15-4.8,10.66-5.45-.75,2.49-1.49,4.98-2.24,7.47l-13.48,1.15-6.79-3.4.24-5.22Z"/>
  <path class="st22" d="M164.62,95.66c1.33,1.62,3.51,2.28,5.48,1.66,2.07-.65,3.51-2.56,3.58-4.76.01.64.03,1.29.05,1.94.01.42.03.84.04,1.26-.33.76-.67,1.51-1,2.27-.32.61-.64,1.21-.96,1.82-.48.94-.96,1.87-1.44,2.81-.88-.93-1.78-1.93-2.69-3.02-1.14-1.36-2.16-2.7-3.08-3.98Z"/>
  <path class="st22" d="M202.08,95.14c-1.33,1.62-3.51,2.28-5.48,1.66-2.07-.65-3.51-2.56-3.58-4.76-.01.64-.03,1.29-.05,1.94-.01.42-.03.84-.04,1.26.33.76.67,1.51,1,2.27.32.61.64,1.21.96,1.82.48.94.96,1.87,1.44,2.81.88-.93,1.78-1.93,2.69-3.02,1.14-1.36,2.16-2.7,3.08-3.98Z"/>
  <path class="st16" d="M150.22,87.94c.09.73.69,4.93,4.41,7.51,2.1,1.46,4.24,1.74,5.3,1.8-1.07,1.44-2.14,2.88-3.22,4.31l-5.61-7.42-2.09-4.47,1.21-1.72Z"/>
  <path class="st16" d="M217.38,88.84c-.09.73-.69,4.93-4.41,7.51-2.1,1.46-4.24,1.74-5.3,1.8,1.07,1.44,2.14,2.88,3.22,4.31l5.61-7.42,2.09-4.47-1.21-1.72Z"/>
  <path class="st16" d="M90.31,165.38c-.79.04-6.69.25-10.43-4.25-1.69-2.04-2.27-4.22-2.49-5.49-.25.95-.62,2.85-.12,5.16.45,2.09,1.42,3.55,2,4.32,3.02.78,6.05,1.56,9.07,2.34l1.96-2.08Z"/>
  <path class="st16" d="M277.37,165.15c.79.06,6.68.41,10.53-4.01,1.74-2,2.37-4.16,2.62-5.43.23.96.56,2.87,0,5.16-.5,2.08-1.5,3.52-2.11,4.27-3.04.71-6.09,1.42-9.13,2.12l-1.91-2.12Z"/>
  <path class="st15" d="M126.96,264.24c-3.29-2.97-7.91-7.22-13.33-12.43-22.57-21.67-25.71-28.02-26.81-34.1-.66-3.66-.98-9.44,1.68-17.05-2.23,1.65-6.97,5.69-8.48,12.29-.32,1.41-.46,2.74-.47,3.95,1.42,3.87,2.84,7.73,4.27,11.6l14.6,15.21,25.28,19.72,3.28.81Z"/>
  <path class="st15" d="M241.55,263.65c3.29-2.97,7.91-7.22,13.33-12.43,22.57-21.67,25.71-28.02,26.81-34.1.66-3.66.98-9.44-1.68-17.05,2.23,1.65,6.97,5.69,8.48,12.29.32,1.41.46,2.74.47,3.95-1.42,3.87-2.84,7.73-4.27,11.6l-14.6,15.21-25.28,19.72-3.28.81Z"/>
  <path class="st15" d="M117.98,331.79c6.12,15.75,15.64,25.03,22.84,23.68,1.46-.27,3.5-1.11,5.68-3.73-3.93-1.92-8.24-4.3-12.73-7.28-6.41-4.25-11.63-8.67-15.78-12.67Z"/>
  <path class="st15" d="M252.65,330.68c-6.12,15.75-15.64,25.03-22.84,23.68-1.46-.27-3.5-1.11-5.68-3.73,3.93-1.92,8.24-4.3,12.73-7.28,6.41-4.25,11.63-8.67,15.78-12.67Z"/>
  <path class="st15" d="M140.19,357.77c-.43.79-1.07,1.87-1.97,3.06-.94,1.24-5.11,6.71-11.44,8.28-10.35,2.57-19.49-7.03-20.38-7.99-3.29-3.56-4.58-7.17-4.9-7-.42.21,1.23,6.25,5.37,11.31,4.4,5.38,9.97,7.63,12.87,8.56,3.62-.2,7.25-.4,10.87-.6,1.39-1.15,2.98-2.68,4.49-4.66,3.14-4.13,4.48-8.28,5.1-10.97Z"/>
  <path class="st15" d="M230.02,357.94c.43.79,1.07,1.87,1.97,3.06.94,1.24,5.11,6.71,11.44,8.28,10.35,2.57,19.49-7.03,20.38-7.99,3.29-3.56,4.58-7.17,4.9-7,.42.21-1.23,6.25-5.37,11.31-4.4,5.38-9.97,7.63-12.87,8.56-3.62-.2-7.25-.4-10.87-.6-1.39-1.15-2.98-2.68-4.49-4.66-3.14-4.13-4.48-8.28-5.1-10.97Z"/>
  <path class="st22" d="M59.82,223.14c3.89,1.1,8.55,2.09,13.87,2.59,3.33.31,6.42.38,9.2.3-.52-1.34-1.04-2.68-1.57-4.03-.64.03-1.6.08-2.75.19-3.65.34-6.27,1.07-6.9,1.04-2.89-.14-7.32-.58-12.93-2.03.36.64.72,1.29,1.08,1.93Z"/>
  <path class="st22" d="M310.14,222.86c-3.89,1.1-8.55,2.09-13.87,2.59-3.33.31-6.42.38-9.2.3.52-1.34,1.04-2.68,1.57-4.03.64.03,1.6.08,2.75.19,3.65.34,6.27,1.07,6.9,1.04,2.89-.14,7.32-.58,12.93-2.03-.36.64-.72,1.29-1.08,1.93Z"/>
  <path class="st9" d="M212.41,201.85h-56.94c.08,2.4.73,14.49,10.56,23.21,1.97,1.75,8.22,7.12,17.91,7.6,2.42.12,10.94.24,18.48-5.79,11.39-9.1,10.11-23.89,9.99-25.02Z"/>
  <path class="st8" d="M163.87,222.93c3.43-1.85,10.95-5.31,21.07-5.22,10.19.09,17.69,3.72,21.08,5.63"/>
  <path d="M161.36,175.7c-8.51-2.17-17.38-2.71-25.95-.89-4.92,1.54-9.72,2.73-14.88,3.28,0,0-1.13-5.33-1.13-5.33,2.06.58,4.12,1.3,6.01,2.36.22.13.3.41.17.63-1.82,1.27-4.07,1.91-6.16,2.57-2.65.78-4.43-2.75-2.28-4.43,0,0,1.15-.91,1.15-.91,4.6-3.77,10.5-5.43,16.38-5.05,5.71-.06,11.5.62,16.89,2.41,3.57,1.15,6.98,2.7,10.12,4.62.38.23.13.86-.31.74h0Z"/>
  <polygon class="st8" points="171.06 209.08 176.13 202.28 168.84 202.53 171.06 209.08"/>
  <polygon class="st8" points="197.07 209.08 192 202.28 199.29 202.53 197.07 209.08"/>
  <path class="st8" d="M106.39,353.39c-.33-.16-2.2-1.12-2.89-3.34-.52-1.67-.08-3.08.09-3.54"/>
  <path class="st8" d="M111.17,349.47c-.33-.16-2.2-1.12-2.89-3.34-.52-1.67-.08-3.08.09-3.54"/>
  <path class="st8" d="M264.03,353.39c.33-.16,2.2-1.12,2.89-3.34.52-1.67.08-3.08-.09-3.54"/>
  <path class="st8" d="M259.25,349.47c.33-.16,2.2-1.12,2.89-3.34.52-1.67.08-3.08-.09-3.54"/>
  <path class="st9" d="M126.96,260.59c-2.6,10.07-5.73,22.36-9.15,36.24-.5,2.03-1.62,6.69-1.94,12.91-.25,4.86-.47,10.11,1.47,16.24.93,2.96,2.99,8.1,7.7,13.27"/>
  <path class="st9" d="M243.71,340.46c5.2-5.35,7.43-10.71,8.43-13.8,2.07-6.41,1.74-11.91,1.39-17.02-.46-6.54-1.79-11.44-2.38-13.58-3.7-13.34-7.11-25.28-10.02-35.32"/>
  <path class="st9" d="M257.59,83.58c.74-.52,2.2-1.41,4.25-1.7,2.49-.36,4.45.35,5.29.72.66.21,1.73.68,2.32,1.73.95,1.66.08,3.71-.41,4.89-2.29,5.44-9.38,10.55-11.45,11.99"/>
  <path class="st8" d="M55.64,219.95c7.39,3.31,15.43,2.36,24.37,2.47"/>
  <path class="st8" d="M83.96,230.24c-7.65,1.7-16.3,4.6-22.83,9.55"/>
  <path class="st8" d="M101.66,246.45c-.82,7.45-1.94,15.02-3.26,17.79"/>
  <path class="st8" d="M80.98,252.08s2.71-6.45,10.19-13.92"/>
  <path class="st9" d="M89.16,252.91c1.93.48,3.71,1.4,5.2,2.73,3.56,3.2,3.98,7.54,4.05,8.6.82-.98,3.14-3.49,7.03-4.42,2.42-.58,4.42-.21,6.68.19,3.18.56,5.66,1.58,7.3,2.38l2.68,1.2,1.6.97"/>
  <path class="st9" d="M79.69,219.27c-11.48-.36-24.1-.62-30.21-3.74,0,0,20.48,12.83,11.53,24.23,0,0,21.25-4.85,19.78,13.73,2.77-1.07,5.71-1.25,8.37-.58"/>
  <path class="st8" d="M312.24,219.95c-7.39,3.31-15.43,2.36-24.37,2.47"/>
  <path class="st8" d="M283.92,230.24c7.65,1.7,16.3,4.6,22.83,9.55"/>
  <path class="st8" d="M266.22,246.45c.82,7.45,1.94,15.02,3.26,17.79"/>
  <path class="st8" d="M286.9,252.08s-2.71-6.45-10.19-13.92"/>
  <path class="st9" d="M278.73,252.91c-1.93.48-3.71,1.4-5.2,2.73-3.56,3.2-3.98,7.54-4.05,8.6-.82-.98-3.14-3.49-7.03-4.42-2.42-.58-4.42-.21-6.68.19-3.18.56-5.66,1.58-7.3,2.38l-3.55,1.78"/>
  <path class="st9" d="M288.19,219.27c11.48-.36,24.1-.62,30.21-3.74,0,0-20.48,12.83-11.53,24.23,0,0-21.25-4.85-19.78,13.73-2.77-1.07-5.71-1.25-8.37-.58"/>
  <path class="st9" d="M211.8,358.81c-1.82,11.19-5.64,25.33-13.77,38.78-1.82,3.01-5.85,9.3-13.07,14.84-8.69,6.67-14.57,6.56-16.09,6.48-2.04-.11-3.71-.56-4.84-.94,3.09-3.84,10.75-14.45,11.6-29.92.58-10.54-2.25-18.82-4.18-23.3-.18-.29-.52-.76-1.09-1.17-.63-.45-1.25-.61-1.6-.67"/>
  <path class="st9" d="M165.19,417.21c-1.17-1.11-2.78-2.86-4.27-5.29-1.45-2.38-2.15-3.67-1.86-4.67.59-2.05,5.48-2.83,11.8-2.3"/>
  <path class="st9" d="M171.7,403.48c-1.43-.74-3.47-1.96-5.58-3.88-2.06-1.88-3.09-2.92-3.09-3.96,0-2.14,4.47-4.25,10.68-5.52"/>
  <path class="st9" d="M175.46,388.89c-1.58-.31-3.88-.92-6.44-2.17-2.5-1.22-3.78-1.94-4.08-2.94-.6-2.05,3.1-5.33,8.71-8.29"/>
  <path class="st9" d="M174.11,374.97c-1.61-.1-3.97-.39-6.67-1.29-2.65-.88-4.01-1.42-4.43-2.37-.73-1.64,1.44-4.56,5.23-7.64"/>
  <path class="st10" d="M88.92,167.73h-30.91c-.91.22-1.89.64-2.35,1.51-2.07,3.95,7.77,14.88,18.54,20.23,6.48,3.22,12.56,4.06,16.54,4.26"/>
  <path class="st9" d="M80.01,209.26c-2.46-.77-5.04-1.89-7.59-3.49-16.64-10.47-16.46-31.68-16.43-32.85"/>
  <path class="st8" d="M71.55,194.68s1.89,6.54,6.46,3.35c.15.46,1.25,3.75,4.48,4.96"/>
  <path class="st9" d="M155.83,102.47c-4.11-4.93-5.97-9.41-6.9-12.54-1.83-6.1-4.11-11.87-2.53-31.65.35-4.35-1.14-6.32-1.76-6.99-3.51-3.87-12.55-3.3-21.4,3.35,0,0-19.15,18.22-9.52,49.82,0,0,7.11,17.15,25.58,17.57,1.63.04,3.87-.23,6.38-1.43,8.94-4.28,10.05-16.66,10.16-18.12"/>
  <path class="st9" d="M113.39,103.37s-9.79-14.29-28.26-4.51c0,0,2.65,18.77,11.82,21.08"/>
  <path class="st9" d="M111,83.12c-.74-.52-2.2-1.41-4.25-1.7-2.49-.36-4.45.35-5.29.72-.66.21-1.73.68-2.32,1.73-.95,1.66-.08,3.71.41,4.89,2.29,5.44,9.38,10.55,11.45,11.99"/>
  <path class="st9" d="M96.03,120.61s-8.18-7.72-12.79,1.42c0,0,3.33,9.29,10.38,7.3"/>
  <path class="st8" d="M89.74,161.74s-9.01-1.44-13.53-7.61c0,0-.05,10.84,6.77,13.61"/>
  <path class="st8" d="M278.21,161.74s9.01-1.44,13.53-7.61c0,0,.05,10.84-6.77,13.61"/>
  <path class="st9" d="M115.52,66.19s18.65-6.24,30.34,4.39"/>
  <path class="st9" d="M111.18,91.45s21.08-16.55,38.24,0"/>
  <path class="st9" d="M148.27,87.77s7.82-1.24,8.66-7.83c.07-.56.28-1.21.64-1.27,1.2-.21,4.81,6.44,3.77,12.98-.85,5.33-4.48,8.67-5.94,9.86"/>
  <path class="st9" d="M217.97,88.34s-7.82-1.24-8.66-7.83c-.84-6.59-11.34,13.82,2.94,22.53"/>
  <path class="st8" d="M165.8,86.1c.05.24.8,3.78,4.13,5.11,2.28.91,4.87.43,6.75-1.24-.88,1.68-1.76,3.42-2.63,5.22-1.2,2.49-2.31,4.92-3.33,7.28-.58-.29-5.07-2.67-6.2-8.08-.87-4.17.82-7.47,1.28-8.29Z"/>
  <path class="st8" d="M200.31,86.1c-.42,2.4-2.04,4.37-4.24,5.11-2.69.91-4.98-.44-5.32-.65,1.03,1.06,2.76,3.14,3.76,6.28.73,2.29.8,4.3.74,5.63.6-.29,5.21-2.67,6.37-8.08.89-4.17-.85-7.47-1.32-8.29Z"/>
  <path class="st7" d="M144.63,198.22c2.95,1.59,5.06,3.63,4.95,5.65-.2,3.75-7.96,6.58-13.83,6.95-8.94.56-19.07-4.26-18.92-8.43.15-4.1,10.27-8.12,18.9-7.02,2.99.38,6.29,1.44,8.91,2.86"/>
  <path class="st10" d="M278.27,167.93c9.83,0,19.67,0,29.5,0h1.41c.91.22,1.89.64,2.35,1.51,2.07,3.95-7.77,14.88-18.54,20.23-6.48,3.22-12.56,4.06-16.54,4.26"/>
  <path class="st9" d="M311.21,173.11c.03,1.17.21,22.38-16.43,32.85-1.58.99-3.17,1.8-4.73,2.45l-2.18.75"/>
  <path class="st8" d="M295.64,194.88s-1.89,6.54-6.46,3.35c-.12.39-.92,2.76-3.07,4.23l-1.71,1.01"/>
  <path class="st9" d="M212.19,102.67c4.11-4.93,5.97-9.41,6.9-12.54,1.83-6.1,4.11-11.87,2.53-31.65-.35-4.35,1.14-6.32,1.76-6.99,3.51-3.87,12.55-3.3,21.4,3.35,0,0,19.15,18.22,9.52,49.82,0,0-7.11,17.15-25.58,17.57-1.63.04-3.87-.23-6.38-1.43-8.94-4.28-10.05-16.66-10.16-18.12Z"/>
  <path class="st9" d="M252.49,66.39s-18.65-6.24-30.34,4.39"/>
  <path class="st9" d="M256.83,91.65s-21.08-16.55-38.24,0"/>
  <path class="st7" d="M218.44,204.07c.2,3.75,7.96,6.58,13.83,6.95,8.94.56,19.07-4.26,18.92-8.43-.15-4.1-10.27-8.12-18.9-7.02-6.36.81-14.06,4.68-13.86,8.5Z"/>
  <path class="st9" d="M184.18,113.76c3.01-.04,6.23-.07,8.59-2.19,3.09-2.77,2.68-7.31,2.41-10.29,0,0-.61-6.66-5.71-12.27-.65-.71-1.53-1.53-1.53-1.53-.98-.92-1.55-1.32-1.8-1.49-.94-.65-1.51-.85-2.08-.9-.24-.02-.42,0-.54,0-.76.02-1.45.29-2.76,1.21-1.99,1.38-2.86,2.22-3.68,3.18-4.35,5.19-4.67,11.82-4.67,11.82-.16,3.36-.37,7.61,2.67,10.29,2.56,2.26,6.09,2.23,9.1,2.19Z"/>
  <path class="st7" d="M175.91,93.41c1.34.67,3.96,1.76,7.44,1.78,3.54.01,6.22-1.11,7.56-1.78"/>
  <path class="st7" d="M173.62,98.32c1.44.96,4.89,2.98,9.72,3.17,5.17.21,8.96-1.78,10.43-2.66"/>
  <path class="st7" d="M173.15,104.16c1.62.95,5.36,2.86,10.48,2.87,5.17.01,8.95-1.92,10.57-2.88"/>
  <path class="st9" d="M92.16,196.9c-1.12-12.7-1.38-23.18-1.41-30.45-.17-37.29,5.55-46.38,8.66-50.41,4.82-6.24,10.64-9.73,14.3-11.57"/>
  <path class="st9" d="M228.01,240.29c-2.81.64-5.72,1.24-8.73,1.77-11.5,2.03-22.22,2.72-31.84,2.65h-7.41c-9.8-.02-20.48-.76-31.84-2.65-2.5-.42-4.94-.87-7.32-1.36"/>
  <path class="st9" d="M254.21,104.67c3.76,1.94,9.25,5.4,13.87,11.35,3.39,4.37,8.73,13.32,8.66,50.41-.01,7.29-.24,17.76-1.27,30.45"/>
  <path class="st9" d="M172.2,102.47h-16.38"/>
  <path class="st7" d="M183.96,85.45"/>
  <path class="st9" d="M115.71,340.12c-.72,0-8.25.11-12.32,6.14-3.27,4.85-2.2,10.24-1.59,12.1.51,1.53,3.33,9.51,11.77,13.5,1.84.87,7.5,3.53,14.12,1.64,10.44-2.98,13.58-14.51,13.74-15.17l4.73-6.14"/>
  <path class="st9" d="M196.05,102.38c5.05.03,10.1.06,15.15.09"/>
  <path class="st9" d="M92.12,198.37c-1.45.38-3.25,1.06-5.04,2.32-6.93,4.85-7.35,13.79-7.38,15.64-.14,7.26,4.09,12.41,8.15,17.52,3.91,4.92,7.76,7.85,9.27,9.01,6.77,5.2,15.85,12.5,28.41,23.29"/>
  <path class="st9" d="M92.16,198.83c1.3-.33,3.24-.67,5.54-.47,9.4.82,14.83,9.81,23.74,21.05,4.32,5.45,10.59,12.84,19.02,21.19"/>
  <path class="st9" d="M158.03,259.12"/>
  <path class="st9" d="M183.94,254.34c3.43-.02,11.06-.06,17.89,3.56,12.11,6.4,15.93,20.94,17.94,31.01,3.83,19.2-.68,39.75-.68,39.75-.43,1.72-1.28,4.21-3.06,6.78-2.81,4.07-6.38,6.09-8.21,6.96-4.64,2.05-13.1,5.06-24.03,4.97-11.16-.09-19.72-3.38-24.34-5.55-2.14-1.19-5.78-3.65-8.46-8.11-1.05-1.75-1.73-3.43-2.17-4.87,0,0,0,0,0,0-1.36-6.03-4.85-22.24-.68-39.75,2.37-9.97,5.84-24.51,17.94-31.01,6.86-3.69,14.5-3.73,17.86-3.75Z"/>
  <path class="st9" d="M153.31,272.93s30.44,14.62,61.2,0"/>
  <path class="st9" d="M147.23,295.03s35.81,19.92,73.23-.2"/>
  <path class="st9" d="M147.14,317.26s35.81,19.92,73.23-.2"/>
  <path class="st9" d="M276.03,198.37c1.45.38,3.25,1.06,5.04,2.32,6.93,4.85,7.35,13.79,7.38,15.64.14,7.26-4.09,12.41-8.15,17.52-3.91,4.92-7.76,7.85-9.27,9.01-6.47,4.97-15.04,11.85-26.75,21.87l-1.7,1.08"/>
  <path class="st9" d="M275.99,198.83c-1.3-.33-3.24-.67-5.54-.47-9.4.82-14.83,9.81-23.74,21.05-4.27,5.38-10.43,12.65-18.7,20.87"/>
  <path class="st8" d="M286.66,211.04c-.38.68-1.02,1.64-2.04,2.57-.91.83-1.8,1.34-2.47,1.66"/>
  <path class="st8" d="M283.33,204.5c-.38.68-1.02,1.64-2.04,2.57-.91.83-1.8,1.34-2.47,1.66"/>
  <path class="st8" d="M278.15,198.77c-.38.68-1.02,1.64-2.04,2.57-.91.83-1.8,1.34-2.47,1.66"/>
  <path class="st8" d="M81.72,211.1c.38.68,1.02,1.64,2.04,2.57.91.83,1.8,1.34,2.47,1.66"/>
  <path class="st8" d="M85.05,204.56c.38.68,1.02,1.64,2.04,2.57.91.83,1.8,1.34,2.47,1.66"/>
  <path class="st8" d="M90.23,198.83c.38.68,1.02,1.64,2.04,2.57.91.83,1.8,1.34,2.47,1.66"/>
  <path class="st9" d="M255.91,103.58s9.79-14.29,28.26-4.51c0,0-2.65,18.77-11.82,21.08"/>
  <path class="st9" d="M257.3,83.34c.74-.52,2.2-1.41,4.25-1.7,2.49-.36,4.45.35,5.29.72.66.21,1.73.68,2.32,1.73.95,1.66.08,3.71-.41,4.89-2.29,5.44-9.38,10.55-11.45,11.99"/>
  <path class="st9" d="M272.27,120.82s8.18-7.72,12.79,1.42c0,0-3.33,9.29-10.38,7.3"/>
  <path class="st9" d="M123.38,180.94c.99-.87,2.58-2.12,4.94-3.51,5.2-3.06,10.43-4.6,12.15-5.07"/>
  <path d="M209.39,175.36c8.01-4.95,17.57-7.21,27.01-7.03,5.88-.37,11.78,1.28,16.38,5.05,0,0,1.15.9,1.15.9,2.17,1.71.34,5.2-2.28,4.43-2.05-.6-4.11-1.33-6-2.41-.22-.13-.29-.42-.16-.64,1.83-1.26,4.09-1.88,6.18-2.53,0,0-1.13,5.33-1.13,5.33-5.17-.55-9.96-1.74-14.88-3.28-3.34-.79-6.76-1-10.2-1.08-5.32-.05-10.53.63-15.75,1.98-.42.13-.71-.51-.31-.74h0Z"/>
  <path class="st9" d="M247.69,181.34c-.99-.87-2.58-2.12-4.94-3.51-5.2-3.06-10.43-4.6-12.15-5.07"/>
  <path class="st9" d="M143.32,349.47c8.43,6.3,22.27,14.43,39.83,15.09,19.97.75,35.6-8.5,44.43-15.09"/>
  <path class="st9" d="M112.31,339.94s3-6.47,6.75-9.58"/>
  <path class="st9" d="M254.59,340.12c.72,0,8.25.11,12.32,6.14,3.27,4.85,2.2,10.24,1.59,12.1-.51,1.53-3.33,9.51-11.77,13.5-1.84.87-7.5,3.53-14.12,1.64-10.44-2.98-13.58-14.51-13.74-15.17l-4.73-6.14"/>
  <path class="st9" d="M257.99,339.94s-3-6.47-6.75-9.58"/>
  <ellipse class="st20" cx="183.38" cy="446.18" rx="83.44" ry="16.6"/>
  <polygon class="st11" points="54.57 129.27 40.29 120.16 27.21 130.93 31.46 114.53 17.18 105.42 34.09 104.4 38.34 88 44.54 103.77 61.45 102.74 48.37 113.51 54.57 129.27"/>
  <polygon class="st13" points="130.5 32.95 120.11 26.33 110.6 34.16 113.69 22.23 103.31 15.6 115.6 14.86 118.7 2.93 123.2 14.4 135.5 13.66 125.99 21.49 130.5 32.95"/>
  <polygon class="st2" points="316.49 148.98 308.25 143.72 300.7 149.94 303.16 140.48 294.92 135.22 304.67 134.63 307.13 125.17 310.7 134.27 320.46 133.68 312.91 139.89 316.49 148.98"/>
  <polygon class="st12" points="73.94 300.33 65.65 295.05 58.07 301.29 60.54 291.78 52.25 286.49 62.06 285.9 64.53 276.39 68.12 285.54 77.93 284.94 70.34 291.19 73.94 300.33"/>
  <polygon class="st12" points="278.04 326.23 271.56 322.1 265.63 326.98 267.56 319.55 261.08 315.41 268.75 314.95 270.68 307.52 273.49 314.67 281.16 314.2 275.23 319.08 278.04 326.23"/>
  <path class="st3" d="M35.71,191.88c-.84-1.25-6.16-8.89-16.18-10.25-7.39-1-13.02,2.01-14.81,3.06-.34-5.29-.68-10.58-1.02-15.87,3.78-.32,9.91-.35,16.98,1.83,8.35,2.57,14.01,7,16.98,9.7-.65,3.84-1.3,7.68-1.95,11.53Z"/>
  <path class="st2" d="M82.7,319.54c-1.2-.18-8.59-1.18-12.45,4.63-2.85,4.28-2.11,9.75-1.8,11.55-4.18-2.89-8.35-5.77-12.53-8.66.82-2.68,2.51-6.73,6.18-10.1,4.33-3.98,9.34-5.11,12.25-5.48,2.78,2.69,5.56,5.37,8.34,8.06Z"/>
  <path class="st5" d="M274.45,285.97c.7-.12,5.02-.9,6.13-4.86.82-2.91-.59-5.84-1.09-6.79,2.86.86,5.73,1.71,8.59,2.57.03,1.65-.18,4.23-1.62,6.78-1.7,3.02-4.3,4.56-5.86,5.29-2.05-1-4.09-2-6.14-3Z"/>
  <path class="st12" d="M290.79,90.06c1.32-.67,9.4-4.97,11.7-14.55,1.7-7.07-.74-12.88-1.62-14.74,5.27.27,10.55.55,15.82.82-.05,3.71-.6,9.67-3.44,16.29-3.35,7.82-8.28,12.82-11.23,15.39-3.74-1.07-7.49-2.14-11.23-3.21Z"/>
</svg>