<?xml version="1.0" encoding="UTF-8"?>
<svg id="Layer_1" xmlns="http://www.w3.org/2000/svg" version="1.1" viewBox="0 0 393 340">
  <!-- Generator: Adobe Illustrator 29.7.1, SVG Export Plug-In . SVG Version: 2.1.1 Build 8)  -->
  <defs>
    <style>
      .st0 {
        fill: #5fa8a1;
      }

      .st1, .st2, .st3, .st4, .st5, .st6, .st7, .st8, .st9, .st10, .st11, .st12, .st13, .st14, .st15, .st16, .st17, .st18, .st19, .st20, .st21 {
        fill: none;
      }

      .st1, .st3, .st4, .st5, .st9, .st14, .st15, .st16, .st17, .st18, .st19, .st20 {
        stroke-miterlimit: 10;
      }

      .st1, .st3, .st5, .st9, .st10, .st11, .st12, .st13, .st16, .st18, .st22, .st23 {
        stroke: #000;
      }

      .st1, .st14 {
        stroke-width: .5px;
      }

      .st24 {
        fill: #25544e;
      }

      .st25 {
        fill: #bf6421;
      }

      .st2, .st6, .st7, .st8, .st10, .st11, .st12, .st13, .st22, .st23, .st21 {
        stroke-linecap: round;
        stroke-linejoin: round;
      }

      .st2, .st6, .st7, .st14, .st15, .st17, .st19, .st20, .st21 {
        stroke: #231f20;
      }

      .st2, .st9, .st11, .st23 {
        stroke-width: 2px;
      }

      .st26 {
        fill: #fdbb28;
      }

      .st27 {
        fill: #ffe443;
      }

      .st4 {
        stroke: #020202;
      }

      .st5, .st19 {
        stroke-width: .75px;
      }

      .st28 {
        fill: #ff6700;
      }

      .st29 {
        fill: #fff;
      }

      .st6, .st8, .st13, .st15, .st16 {
        stroke-width: 4px;
      }

      .st30 {
        fill: #44968e;
      }

      .st31 {
        fill: #f73c23;
      }

      .st7, .st12, .st17, .st18 {
        stroke-width: 3px;
      }

      .st8 {
        stroke: #e23700;
      }

      .st32 {
        fill: #bc8a26;
      }

      .st33 {
        fill: #194340;
      }

      .st34 {
        fill: #edb38b;
      }

      .st35 {
        fill: #cc6274;
      }

      .st22 {
        fill: #1a2120;
      }

      .st36 {
        fill: #addcd8;
      }

      .st37 {
        fill: #ef9eb0;
      }

      .st38 {
        fill: #fb7800;
      }
    </style>
  </defs>
  <path class="st7" d="M95.14,59.99s7.42-2.89,6.85-9.47c-.05-.56.02-1.23.36-1.37,1.13-.46,6.1,5.22,6.46,11.79.28,5.04-2.24,8.9-3.52,10.57"/>
  <path class="st7" d="M166.35,57.13c-1.79.61-5.97-3.31-7.93-8.3-2.41-6.12-.27-13.35.95-13.41.36-.02.71.56.9,1.09,2.22,6.22,10.18,5.74,10.18,5.74,0,0,6.09,11.38-4.09,14.87Z"/>
  <path class="st7" d="M200.27,72.17c8.53-4.21,7.15-23,7.15-23-1.45-.23-2.91-.46-4.36-.69"/>
  <path class="st7" d="M201.31,72.63s6.4-9.25,12.88-1.37c0,0-1.3,9.74-8.65,9.32"/>
  <path class="st7" d="M165.49,41.49c.19-5.22-.4-12.18-4.61-25.98-1.27-4.15-.22-6.38.24-7.17,2.63-4.51,11.64-5.9,21.75-1.35,0,0,22.7,13.57,19.94,46.32,0,0-3.35,18.17-21.42,22.56-1.59.39-3.86.6-6.57-.02-9.7-2.23-13.41-14.02-13.83-15.41"/>
  <path class="st7" d="M158.58,60.08l2.41.37c.88-1.66,1.57-3.24,2.12-4.73"/>
  <path class="st17" d="M192.91,16.56s-19.66-2.05-28.9,10.78"/>
  <path class="st17" d="M164.95,48.36"/>
  <path class="st17" d="M202.54,40.14s-18.5-8.81-32.08,2.14"/>
  <path class="st7" d="M106.18,72.43c-5.09-3.9-7.86-7.86-9.45-10.69-3.09-5.53-6.56-10.64-9.21-30.18-.58-4.3-2.47-5.89-3.21-6.41-4.27-3-13.04-.51-20.33,7.86,0,0-14.96,21.8,1.22,50.41,0,0,10.63,15.12,28.88,11.56,1.61-.31,3.76-1.06,5.96-2.76,7.88-6.08,6.34-18.34,6.14-19.78Z"/>
  <path class="st17" d="M58.86,45.88s17.01-10.07,30.76-2.26"/>
  <path class="st17" d="M59.95,71.33s17.2-20.6,37.59-8.22"/>
  <path class="st15" d="M126.71,149.5c1.08,9.21-6.15,18.21-16.84,20.54-11.28,2.47-22.16-3.42-24.29-13.15-.07-.31-.2-1.1-.31-2.08-.49-4.54.27-8.29.98-10.72"/>
  <path class="st15" d="M126.2,146.99c.09.32.17.64.24.97.11.51.2,1.03.26,1.54"/>
  <path class="st20" d="M125.24,158.3c-.66-.8-6.66-7.75-16.17-7.21-7.18.4-11.72,4.81-12.82,5.93"/>
  <path class="st20" d="M123.59,146.53c1.36.59,2.34,1.13,2.86,1.43"/>
  <path class="st20" d="M88.93,153.5c1.73-1.87,5.51-5.48,11.37-7.74"/>
  <path class="st20" d="M116.58,174.53c.6,3.68-6.43,8.1-12.12,9.72-8.67,2.46-19.66-.04-20.39-4.12-.73-4.02,8.37-10.09,17.09-10.87,6.42-.58,14.82,1.52,15.43,5.28Z"/>
  <path class="st19" d="M121.91,148.47c.33,1.51-.63,3.01-2.14,3.34s-3.01-.63-3.34-2.14.63-3.01,2.14-3.34,3.01.63,3.34,2.14Z"/>
  <path class="st14" d="M93.65,152.61c.18.85,1.02,1.38,1.87,1.2s1.38-1.02,1.2-1.87-1.02-1.38-1.87-1.2-1.38,1.02-1.2,1.87Z"/>
  <path class="st20" d="M85.23,152.84c.93.08,2.21.26,3.69.65.95.25,3.19.92,5.75,2.47.93.57,2.14,1.39,3.43,2.54.68-.24,1.61-.55,2.75-.81,0,0,3.16-.73,6.44-.58,3.61.16,9.19,1.89,14.74,6.01,0,0-10.34,13.39-29.31,3.96,0,0-8.31-5.68-7.48-14.25"/>
  <circle class="st14" cx="117.42" cy="155.06" r="1.18"/>
  <path class="st15" d="M165.31,141.06c2.87,8.82,13.19,13.98,23.88,11.64,11.28-2.47,18.71-12.36,16.58-22.08-.07-.31-.27-1.09-.59-2.02-1.45-4.33-3.7-7.42-5.36-9.33"/>
  <path class="st15" d="M164.72,138.57c.05.33.11.66.18.98.11.51.25,1.02.41,1.51"/>
  <path class="st20" d="M170.32,148.44c.27-1,2.81-9.82,11.68-13.3,6.69-2.63,12.66-.52,14.13.04"/>
  <path class="st20" d="M166.9,137.06c-.99,1.11-1.65,2-2,2.49"/>
  <path class="st20" d="M201.31,128.92c-2.36-.97-7.3-2.68-13.56-2.29"/>
  <path class="st19" d="M169.24,138.12c.33,1.51,1.83,2.47,3.34,2.14s2.47-1.83,2.14-3.34c-.33-1.51-1.83-2.47-3.34-2.14s-2.47,1.83-2.14,3.34Z"/>
  <path class="st14" d="M196.64,130.08c.18.85-.35,1.68-1.2,1.87s-1.68-.35-1.87-1.2.35-1.68,1.2-1.87,1.68.35,1.87,1.2Z"/>
  <path class="st20" d="M204.39,126.78c-.81.46-1.9,1.15-3.08,2.13-.75.62-2.51,2.17-4.19,4.64-.61.9-1.37,2.16-2.05,3.74-.72.06-1.69.18-2.84.41,0,0-3.18.66-6.1,2.16-3.22,1.65-7.56,5.55-10.88,11.61,0,0,14.99,7.85,28.29-8.63,0,0,5.18-8.63.85-16.08"/>
  <circle class="st14" cx="176.07" cy="142.23" r="1.18"/>
  <path class="st20" d="M205.99,147.24c-2.38-.13-5.94-.01-9.86,1.44-5.75,2.13-12.74,7.31-11.82,11.24.18.75.72,1.8,2.5,2.83"/>
  <path class="st2" d="M182.53,334.2c.19-.31,1.27-2.11.67-4.34-.45-1.68-1.59-2.63-1.98-2.93"/>
  <path class="st2" d="M168.42,328.36c.3.6.8,1.81.79,3.41-.01,1.77-.65,3.07-.99,3.66"/>
  <path class="st7" d="M153.37,309.37c-2.74,8.98-.64,18.21,5.41,23.31,5.22,4.4,11.64,4.29,13.64,4.24,9.39-.19,15.27-6.29,16.36-7.47.63-.74,4.36-5.27,3.52-11.62-.63-4.72-3.41-7.69-4.36-8.61.79-1,1.51-2.01,2.17-3.02,9.86-15.27,6.61-34.17,3.63-44.92"/>
  <path class="st2" d="M95.36,333.75c-.19-.31-1.27-2.11-.67-4.34.45-1.68,1.59-2.63,1.98-2.93"/>
  <path class="st2" d="M109.46,327.91c-.3.6-.8,1.81-.79,3.41.01,1.77.65,3.07.99,3.66"/>
  <path class="st7" d="M123.54,306.25s7.66,16.85-4.44,25.99c-1.71,1.21-6.68,4.39-13.64,4.24-9.39-.19-15.27-6.29-16.36-7.47-.63-.74-4.36-5.27-3.52-11.62.63-4.72,3.41-7.69,4.36-8.61-2.55-1.89-10.43-8.22-13.75-19.81-3.19-11.11-.25-20.29.87-23.32"/>
  <path class="st7" d="M144.46,216.92c3.45-.02,11.13-.06,18.01,3.53,12.18,6.37,16.03,20.81,18.05,30.82,3.85,19.09-.69,39.51-.69,39.51-.43,1.71-1.29,4.18-3.07,6.74-2.83,4.05-6.42,6.05-8.26,6.91-4.67,2.04-13.18,5.03-24.18,4.94-11.23-.09-19.84-3.36-24.5-5.51-2.15-1.19-5.82-3.62-8.51-8.06-1.06-1.74-1.74-3.41-2.19-4.84,0,0,0,0,0,0-1.37-6-4.88-22.1-.69-39.5,2.39-9.9,5.87-24.35,18.05-30.82,6.9-3.66,14.59-3.7,17.97-3.72Z"/>
  <path class="st7" d="M165.02,204.24c3.3.03,8.27.4,14.64,2.11,0,0,.4.1.72.2,2.59.76,8.77,3.09,19.32,11.68,4.61,3.76,10.71,9.25,17.14,16.74.68,1.26,5.18,9.85,1.36,19.16-.7,1.71-4.31,9.86-12.56,11.9-2.7.67-5.07.48-6.65.21-2.54-2.59-5.07-5.17-7.61-7.76"/>
  <path class="st2" d="M218.39,252.77c-.31-.72-.85-1.73-1.76-2.76-.82-.91-1.66-1.52-2.29-1.9"/>
  <path class="st2" d="M214.34,258.87c-.31-.72-.85-1.73-1.76-2.76-.82-.91-1.66-1.52-2.29-1.9"/>
  <path class="st2" d="M208.53,263.14c-.31-.72-.85-1.73-1.76-2.76-.82-.91-1.66-1.52-2.29-1.9"/>
  <path class="st7" d="M99.24,242.62c-.85,2.89-2.18,6.39-4.32,10.11-3.62,6.3-8.03,10.54-11.21,13.13-1.58.27-3.96.46-6.65-.21-8.25-2.04-11.86-10.19-12.56-11.9-3.81-9.31.68-17.9,1.36-19.16,4.43-5.16,8.7-9.37,12.44-12.72"/>
  <path class="st2" d="M64.31,252.38c.31-.72.85-1.73,1.76-2.76.82-.91,1.66-1.52,2.29-1.9"/>
  <path class="st2" d="M68.36,258.49c.31-.72.85-1.73,1.76-2.76.82-.91,1.66-1.52,2.29-1.9"/>
  <path class="st2" d="M74.17,262.76c.31-.72.85-1.73,1.76-2.76.82-.91,1.66-1.52,2.29-1.9"/>
  <path class="st7" d="M50.16,102.98c-9.51.26-16.1-17.92-16.1-17.92,16.09-13.47,28.74-1.7,28.74-1.7,0,0,6.42,19.1-12.65,19.62Z"/>
  <path class="st7" d="M58.66,65.26c-.84-.35-2.46-.89-4.54-.74-2.53.19-4.3,1.3-5.05,1.84-.6.35-1.55,1.03-1.92,2.17-.58,1.82.71,3.62,1.44,4.66,3.4,4.79,11.46,8.23,13.8,9.18"/>
  <path class="st7" d="M49.92,112.56c-6.39,3.67-11.75-4.86-11.75-4.86,2.6-9.86,12.28-4.13,12.28-4.13,0,0,4.98,5.83-.52,8.99Z"/>
  <path class="st6" d="M48.02,152.71c-13.25,2.9-26.5,5.8-39.75,8.69l-1.38.3c-.85.41-1.72,1.03-1.99,1.97-1.2,4.28,10.8,12.78,22.52,15.66,3.67.9,9.77,2.52,17.17.58,3.77-.99,6.66-2.56,8.56-3.78"/>
  <path class="st7" d="M52.13,195.39c-3.36,1.15-12.63,3.83-23.02.15-18.58-6.59-22.9-27.22-23.12-28.36"/>
  <path class="st2" d="M25.91,184.96s3.25,5.94,7.06,1.86c.24.42,2.03,3.37,5.45,3.85,3.3.46,6.74-1.57,8.27-5.08"/>
  <path class="st2" d="M31.6,157.15c-7.29-1.22-9.54-11.75-9.54-11.75,5.75,5.01,14.92,4.48,14.92,4.48.07.02,1.63.52,2.02,2.12.25,1.05-.1,2.17-.92,2.89-2.16.75-4.32,1.51-6.48,2.26Z"/>
  <path class="st2" d="M113.06,62.14c.3.34,2.53,2.74,6.1,2.62,3.8-.13,5.9-3,6.13-3.33.36,4.21.72,8.42,1.08,12.64-.4.06-6.8.86-10.78-3.96-2.68-3.24-2.59-6.98-2.53-7.96Z"/>
  <path class="st2" d="M156.73,52.89c-.13.43-1.15,3.54-4.45,4.92-3.51,1.47-6.61-.27-6.96-.47,1.43,3.98,2.86,7.96,4.29,11.93.39-.11,6.54-2.06,8.14-8.1,1.08-4.06-.57-7.43-1.02-8.29Z"/>
  <path class="st6" d="M237.53,126.14c4.31-6.26,5.64-11.9,3.55-14-.43-.43-1.19-.9-2.63-.96-.46.1-.92.2-1.38.3-7.72,1.69-15.44,3.38-23.16,5.07"/>
  <path class="st7" d="M242.75,124.17c-.38-4.22-.91-7.57-1.21-9.39"/>
  <path class="st2" d="M213.91,116.55c6.12-4.15,3.76-14.66,3.76-14.66,0,0-.89,2.85-5.78,7.97"/>
  <path class="st7" d="M139.37,77.62c2.95-.68,6.11-1.41,7.98-3.97,2.45-3.36,1.08-7.67.18-10.51,0,0-2.01-6.34-8.22-10.69-.78-.55-1.83-1.16-1.83-1.16-1.16-.68-1.81-.95-2.09-1.06-1.06-.43-1.66-.5-2.24-.43-.24.03-.41.08-.53.11-.74.18-1.36.59-2.46,1.77-1.66,1.77-2.35,2.77-2.94,3.88-3.18,5.97-2.08,12.48-2.08,12.48.55,3.3,1.25,7.47,4.81,9.42,3,1.65,6.46.85,9.41.17Z"/>
  <path class="st21" d="M126.92,59.64c1.5.37,4.31.86,7.69.12,4.24-.92,6.98-3.24,8.13-4.33"/>
  <path class="st21" d="M125.69,65.43c1.96.56,5.33,1.25,9.44.64,5.84-.86,9.76-3.83,11.4-5.23"/>
  <path class="st21" d="M126.49,70.67c1.8.58,5.88,1.62,10.91.53,5.09-1.1,8.39-3.79,9.79-5.07"/>
  <path class="st7" d="M55.13,214.32c-8.61,2.66-17.21,5.25-26.29,3.52,8.15,2.53,22.07,9.3,17.54,20.07,1.21-.92,5.07-3.6,10.41-3.35,2.7.13,4.82.97,6.14,1.63"/>
  <path class="st2" d="M60.75,217.41c-7.79,2.11-15.82,5.03-23.79,3.87"/>
  <path class="st2" d="M69.51,220.68c-7.75,3.73-17.28,9.5-23.14,17.24"/>
  <path class="st7" d="M113.57,234.34s30.63,14.53,61.59,0"/>
  <path class="st7" d="M107.45,256.31s36.04,19.79,73.7-.2"/>
  <path class="st7" d="M107.35,278.4s36.04,19.79,73.7-.2"/>
  <path class="st7" d="M71.01,263.24c-3.46,4.95-6.93,9.9-10.39,14.85-2.17,3.31-6.02,8.16-12.27,11.97-13.65,8.31-28.05,5.13-31.45,4.28.29,2.43,1.14,6.45,4.04,10.11,1.04,1.31,4.34,5.12,14.42,7.71,5.27,1.35,14.63,2.94,26.8.64,3.03-.54,6.92-1.52,11.18-3.42,3.75-1.67,6.76-3.59,9.03-5.28"/>
  <path class="st7" d="M18.33,294.35c.37-1.56,1.06-3.82,2.39-6.31,1.31-2.44,2.07-3.68,3.07-3.94,2.06-.52,5.18,3.28,7.9,8.96"/>
  <path class="st7" d="M33.37,294.01c-.08-1.6-.06-3.96.53-6.73.57-2.71.96-4.11,1.85-4.64,1.83-1.08,5.89,1.7,10.09,6.39"/>
  <path class="st7" d="M47.86,289.14c-.69-1.44-1.58-3.63-2.11-6.41-.52-2.72-.71-4.16-.09-4.99,1.27-1.7,6.08-.71,11.78,2"/>
  <path class="st7" d="M57.17,278.84c-.81-1.38-1.88-3.49-2.64-6.22-.74-2.67-1.05-4.09-.5-4.97,1.13-1.8,6-1.21,11.9,1.01"/>
  <path class="st7" d="M65.54,268.98c-.77-1.4-1.78-3.54-2.46-6.29-.66-2.69-.93-4.12-.36-4.98.44-.66,1.4-.97,2.73-.98"/>
  <path class="st2" d="M142.48,169.85l-6.08,6.55s-13.97,14.46,5.34,24.4c0,0,2.94,1.39,7.75,1.12"/>
  <polyline class="st2" points="160.85 168.89 153.43 165.19 147.56 173.96 142.71 169.61 142.48 169.85"/>
  <polyline class="st2" points="175.63 168.31 169.88 162.33 161.4 168.62"/>
  <polyline class="st2" points="176.4 189.4 168.97 185.71 163.1 194.47"/>
  <polyline class="st2" points="149.5 201.91 154.15 192.24 162.13 195.81 168.65 186.9"/>
  <path class="st21" d="M133.19,194.66s10.68-23.98,33.74-7.38"/>
  <ellipse class="st21" cx="149.74" cy="162.32" rx=".82" ry="2.19" transform="translate(-61.25 97.09) rotate(-30.13)"/>
  <ellipse class="st21" cx="157.68" cy="160.58" rx="2.19" ry=".82" transform="translate(-6.11 314.93) rotate(-88.82)"/>
  <path class="st12" d="M39.36,95.35c-1.89,1.23-3.18,2.28-4.07,3.18-5.26,5.25-7.92,11.25-7.92,11.25-2.26,4.94-2.82,12.4-2.77,20.94.04,6.53.89,12.16,1.9,16.63"/>
  <path class="st12" d="M114.19,69.6c-2.99.78-5.97,1.56-8.96,2.34"/>
  <path class="st12" d="M133.98,65.65"/>
  <path class="st12" d="M220.88,139.55c-.49-1.41-1.18-3.06-2.18-4.82-.79-1.39-1.62-2.58-2.4-3.56-4.22-20.97-7.71-36.74-9.48-43.35-.38-1.41-1.03-3.7-2.29-6.48-1.85-4.07-4.02-7.06-5.52-8.91-1.42-1.03-2.83-2.05-4.25-3.08"/>
  <path class="st12" d="M40.41,197.41c2.15,3.95,7.48,12.43,17.94,18.29,15.36,8.61,30.58,5.28,34.24,4.38l109.39-23.92c3.35-.95,8.73-2.94,14.18-7.25,4.68-3.7,7.62-7.71,9.34-10.49"/>
  <polyline class="st2" points="102.33 144.96 79.12 143.35 81 132.51 136.14 142.1 132.47 147.05 103.07 145.01"/>
  <line class="st2" x1="101.37" y1="145.09" x2="100.66" y2="145.05"/>
  <polyline class="st2" points="185.17 127.02 205.99 115.6 199.75 106.53 152.71 138.91 158.16 141.85 184.52 127.38"/>
  <line class="st2" x1="186.49" y1="126.48" x2="187.12" y2="126.14"/>
  <path class="st2" d="M149.67,135.65s-1.23,6.08,1.67,7.77"/>
  <path class="st2" d="M137.89,138.23s3.66,5.01,1.73,7.76"/>
  <polyline class="st13" points="60.81 119.5 70.71 119.5 70.71 128.42"/>
  <polyline class="st13" points="92.96 119.5 83.06 119.5 83.06 128.42"/>
  <polyline class="st13" points="92.96 110.39 83.06 110.39 83.06 101.47"/>
  <polyline class="st13" points="60.81 110.39 70.71 110.39 70.71 101.47"/>
  <path class="st4" d="M226.27,177.6c-.98.04-1.24.19-1.24.19-6.88,7.59-18.73,3.35-18.73,3.35-6.46,4.07-9.16,2.64-9.16,2.64l-9.26-3.16c-4.31,1.27-8.62,2.54-12.94,3.81l-5.01,1.64"/>
  <path class="st4" d="M243.88,124.93c1.49-.23,3.01-.24,4.54.04,0,0,17.61-1.32,16.19-9.85,0,0-1.67-6.2,6.52-1.83,8.19,4.36,10.75-24.02-.52-16,0,0,.62-5.96,10.96-1.15,0,0-6.01-17.58-17.69-7.56,0,0,3.57-13.02,18.02-2.53,0,0,2.74-1.76,1.86-3.94,0,0,10.75,9.52,5.98,22.93,0,0,22.72-15.71,1.11-25.65,0,0-10.98-14.42-19.69-5.28,0,0,22.47-20.56,37.65,6.91,0,0,4.36,12.57.25,15.21,0,0,13.58,5.1,1.41-19.38,0,0,2.66-3.13,8.6,2.35,0,0,6.84-.39-4.16-8.37,0,0-6.54-22.85-21.12-10.59,0,0,11.47-19.75,24.69-.82,0,0,5.79,1.14,1.22-6.83,0,0,18.39,11.54,19.29,36.8,0,0,8.2,1.15,2.6-11.73,0,0,1.76-14.93-3.35-12.39,0,0,5.64-4.81,6.82,5.24,0,0,10.52,4.61,5.92,12.72,0,0,8.26,11.36,3.18,16.09,0,0,12.56-6.24,8.49-17.27,0,0,7.46,8.14,4.47,15.45,4.06-5.89,7.98-8.04,10.9-8.87,2.02-.58,4.75-.87,6.14-3.08,1.08-1.72,1.53-4.91,1.54-4.94h0c2.36,1.06,3.92,3.24,3.97,5.59.05,2.11-1.13,3.6-1.51,4.05-.35.75-.86,1.63-1.63,2.48-2.48,2.73-5.81,3.22-6.97,3.33,0,0-8.87-.08-8.52,4.71,0,0,12.77,9.04,16.79,1.96,0,0,1.88,7.89-4.03,7.65-1.03.24-2.26.42-3.65.38-4.92-.14-8.41-2.88-9.78-4.09,5.03,3.77,6.47,6.92,6.82,9.14.17,1.05.6,5.11.6,5.13h0c-4.66-10.79-18.06-6.65-18.06-6.65,6.94-.08,8.8,13.84,8.8,13.84,8.93,2.7,4.49,13.29,4.49,13.29,6.08,8.09-1.32,8.5-1.32,8.5,5.44-1.69-6.12-11.28-6.12-11.28-4.83-13.19-9.98-6.7-9.98-6.7,16.76,18.91,11.42,39.95,11.42,39.95-2.19-8.92-5.6-4.1-5.6-4.1,3.48,22.83-18.44,16.43-18.44,16.43,19.02-1.18,7.99-22.23,7.99-22.23,2.45-13.37-2.76-8.93-2.76-8.93-.52,8.07-4.6,7.63-4.6,7.63-8.08-26.11-14.39-13.05-14.39-13.05,4.8-.92,10.31,11.19,10.31,11.19,7.96,30.36-22.49,30.98-22.49,30.98,12.61.62,10.62-17.4,10.62-17.4,8.79-22.1-18.49-17.81-18.49-17.81,12.71,6.42,11.49,20.73,11.49,20.73-.86-2.18-4.06-1.57-4.06-1.57-3.23,17.56-14.79,10.6-14.79,10.6,15.37-.8,7.6-17.68,7.6-17.68-4.16,10.62-8.73,6.73-8.73,6.73,13.69-1.98-7.74-20.76-10.66-11.95-2.92,8.81-5.98,3.17-5.98,3.17-4.85-7.16-18.52,4.03-18.52,4.03-7.27,9.97-26.76,6.58-26.76,6.58-6.36-.48-1.9,3.6-1.9,3.6-6.09-1.15-9.12-1.3-10.57-1.24"/>
  <path class="st4" d="M203.96,148.81c2.39-1.63,5.36-2.79,8.87-2.53,0,0,1.77-.48,7.82-8.91,0,0-.42,6.03,3.86,1.3,0,0,9-12.15,19.38-13.73"/>
  <path class="st4" d="M203.96,148.81c-4.56,3.12-7,7.96-7,7.96-7.48,1.51-8.45,4.4-8.45,4.4l-4.52,8.67-12,6.16c-4.67,1.94-9.34,3.89-14.01,5.83"/>
  <path class="st4" d="M189.37,167.57s25.32-12.2,35.08-23.05,18.31-4.35,18.31-4.35c0,0,8.02-2.1,5.85-7.9-2.17-5.8,12.52.56,12.52.56,0,0,25.8-5.13,22.26-10.22-3.55-5.1,11.15-7.3,4.03-14.6,0,0,7.95,3.76,5.81,14.92,0,0,18.53-11.82,12.79-17.09,0,0,8.68,12.45,2.07,11.62,0,0,29.64-5.02,23.92-23,0,0,8.64,11.92,1.25,19.51-7.39,7.59.05,2.2.05,2.2,0,0,23.05-4.63,14.05-14.22,0,0,10.48,5.67,7.45,11.37,0,0-10.64,8.26-17.72,6.46,0,0,17.7-.35,19.23,7.28,0,0-16-4.2-16.79.67,0,0,10.47,5.72,5.47,15.04,0,0-2.11-9.44-11.86-11.43,0,0-11.96-1.99-2.46,9.15"/>
  <path class="st4" d="M198.56,174.54c27.99-7.45,41.34-9.02,48.14-8.58,1.88.12,8.18.71,12.55-3.17,2.93-2.6,3.6-5.78,3.6-5.78,0,0,7.19-3.77,9.22,1.95,2.03,5.73,8.83-8.73,8.83-8.73,0,0,22.13-13.35,22.71-7.23.57,6.12,12.74-2.01,12.06,8.11,0,0,3.49-8.05-5.05-14.88,6.68,1.38,13.37,2.75,20.05,4.13"/>
  <path class="st4" d="M314.45,115.63s1.99-1.67,4.45-4.37c4.51-4.95,10.64-13.37,9.11-21.33,0,0,18.14-2.94,15.19,12.18"/>
  <path class="st4" d="M328.25,137.24c1.59-.39,5.3-1.05,8.83.85.67.36,1.25.77,1.75,1.19,1.19.62,2.68,1.64,3.64,3.36,1.72,3.09.47,6.19,1.41,6.64.69.33,2.38-.84,6.65-7,.44-.67,2.01-3.25,1.43-6.53-.82-4.66-7.28-6.44-6.91-7.27.3-.67,4.08,1.1,9.13.72,2.53-.19,4.57-.87,5.9-1.41-.56-1.4-1.55-3.42-3.29-5.47-1.79-2.11-3.68-3.43-4.99-4.21,0,0,17.2-7.75-2.64-18.65,0,0-1.51-.96-3.14-.43-1.44.47-2.56,1.72-2.84,3.32"/>
  <polygon class="st38" points="63.01 80.72 59.29 68.77 58.25 65.24 49.7 65.9 47.01 69.33 47.6 72.22 52.68 77.22 58.8 80.49 63.01 80.72"/>
  <polygon class="st38" points="96.34 60.37 99.92 57.24 102.52 51.73 103.55 49.27 105.03 53.37 107.54 56.93 108.83 66.28 107.18 68.51 106.62 71.3 100.22 66.25 96.34 60.37"/>
  <polygon class="st38" points="16.97 295.08 26.07 296.21 32.25 296.21 31.52 294.64 26.88 286.68 23.34 284.27 20.84 287.92 16.97 295.08"/>
  <polygon class="st38" points="32.93 295.19 41.65 292.36 47.25 289.75 45.93 288.64 38.36 283.39 34.14 282.7 33.41 287.06 32.93 295.19"/>
  <polygon class="st38" points="46.55 289.98 54 284.64 58.54 280.44 56.94 279.79 48.13 277.09 43.9 277.72 44.53 282.1 46.55 289.98"/>
  <polygon class="st38" points="57.2 279.98 63.34 273.16 66.88 268.1 65.18 267.8 56 267.04 52 268.56 53.55 272.7 57.2 279.98"/>
  <path class="st38" d="M63.06,257.29l.74,6.73,1.16,4.4c.79-.43,1.57-.87,2.36-1.3.68-1.13,1.36-2.25,2.04-3.38.44-1.11.89-2.22,1.33-3.33-.26-.66-.52-1.33-.78-1.99l-6.86-1.14Z"/>
  <path class="st30" d="M101.89,205.11l-15.25,9.9-9.54,7.96-12.77,12.82-1.22,12.31,1.98,6.92,9.1,9.59c2.67.35,5.34.69,8.01,1.04,1.45-.75,2.9-1.51,4.36-2.26l-.74,1.97c-2.53.58-5.06,1.16-7.6,1.74-.79.86-1.59,1.73-2.38,2.59-.55,2.4-1.1,4.8-1.65,7.2l2.02,17.12,11.75,13.17,1.38,2.19-3.8,8.81,3.45,8.75,3.02,3.64,5.94,4.41,12.89,1.51,4.95-2.73,7.98-6.82,2.05-6.64-1.85-14.71,10.84,3.79,19.43-.76-52.34-103.5Z"/>
  <polyline class="st30" points="153.85 308.62 151.83 320.23 154.77 330.57 160.47 332.78 166.52 336.48 176.02 336.48 186.33 331.44 191.77 322.55 191.27 315.01 188.43 308.12 193.79 297.91 196.38 278.2 194.98 268.05 193.9 263.24 191.01 258.48 198.62 266.25 208.17 265.65 216.89 256.16 220.2 244.14 218.03 235.8 208.8 226.74 190.47 211.72 181.71 207.12 170.75 205.13 101.51 205.11"/>
  <path class="st26" d="M124.02,221.73l15.67-5.44,13.39.58,9.03,2.95,7.38,5.2,7.07,13.24,4.04,18.61.78,20.18c.32,8.15-1.74,13.88-3.94,17.75-.16.27-.31.54-.48.81-.82,1.32-2.01,2.95-3.69,4.57-2.15,2.07-4.31,3.38-5.91,4.18-4.11,1.3-8.23,2.6-12.34,3.9l-22.07-.75-9.47-3.15-8.51-5.1-2.85-3.59-3.49-7.4-1.61-19.41.93-12.82,1.26-6.2,1.3-7.7,2.74-5.74s9.91-14.72,10.75-14.69Z"/>
  <path class="st30" d="M34.06,99.82c-2.54,4.14-5.08,8.28-7.62,12.42-.2,5.05-.4,10.1-.6,15.15l.81,17.3,2.21,12.42c3.32-1.08,6.64-2.16,9.95-3.24,1.35-.01,2.7-.03,4.05-.04,1.52-.33,3.03-.66,4.55-1,1,2.58,2,5.15,2.99,7.73-3,12.87-5.99,25.75-8.98,38.62,3.08,4.66,10.26,14,22.86,18.9,7.74,3.01,14.41,3.13,19.91,3.17,11.91.1,18.97-2.67,33.23-6.49,7.73-2.07,18.84-4.79,32.64-7.27,2.26-.49,4.53-.99,6.79-1.48,1.08-.24,2.15-.47,3.23-.71,14.29-3.15,28.59-6.31,42.88-9.46,5.97-3.26,11.95-6.53,17.92-9.79,3.26-4.35,6.52-8.71,9.79-13.06l.8-17.28-7.41-15.74-6.88-10.34-12.04-43.59-4.04-8.16c-.7-1.82-1.39-3.63-2.09-5.45-1.49-1.45-2.99-2.91-4.48-4.36-11.18-2.55-22.36-5.09-33.53-7.64-18.19,3.63-36.37,7.26-54.56,10.89-12.36,3.29-26.06,7.69-40.63,13.62-11.72,4.77-22.31,9.85-31.74,14.87Z"/>
  <path class="st30" d="M34.52,219.02c.67.53,1.64,1.16,2.89,1.66,1.7.68,3.23.84,4.23.86,4.04-.69,8.08-1.38,12.12-2.07,2.01-.8,4.02-1.6,6.02-2.4-1.55-.92-3.1-1.84-4.66-2.76-6.87,1.57-13.74,3.13-20.61,4.7Z"/>
  <path class="st30" d="M16.97,295.11h7.45l13.65-1.03,13-6.18,6.85-6.52,7.5-10.54c2.13-2.53,4.26-5.07,6.39-7.6,1.75.8,3.49,1.6,5.24,2.41-.45,7.16-.9,14.32-1.35,21.49,2.19,4.51,4.39,9.02,6.58,13.53v3.16l-16.91,9.08-13.98.76-16.2-1.14-13.09-6.97-4.3-7.06-.84-3.39Z"/>
  <polygon class="st30" points="6.37 163.18 48.35 151.89 54.34 167.72 54.75 175.69 39.4 181.09 17.03 174.99 7.93 168.98 6.37 163.18"/>
  <path class="st30" d="M236.61,128.13l2.81-2.37,3.73-8.65-1.45-4.58-27.64,4.32,1.57,15.45,6.03,8.41,14.6-12.31c.11-.1.22-.2.34-.29Z"/>
  <path class="st26" d="M41.99,223.51l4.37,6.66,2.29,6.53s5.1-1.33,5.45-1.41,6.75.22,6.75.22l4.35,1.19c1.99-2.65,3.98-5.29,5.97-7.94,1.86-2.07,3.72-4.13,5.58-6.2-5.52-1.67-11.04-3.33-16.56-5-6.75,1.6-13.5,3.21-20.24,4.81.68.38,1.37.76,2.05,1.14Z"/>
  <path class="st26" d="M67.81,84.95l5.08,5.77,11.98,5.11,13.96-1.73,5.89-7.97,1.32-11.07-1.78-2.9-9.25-11.15-5.06-17.34-3.57-14.83-2.06-3.96-8.02-.81-8.95,5.47-5.62,8.7c-.95,3.85-1.9,7.7-2.85,11.54-.15,1.68-.3,3.37-.44,5.05l2.16,19.54,6.27,10.98.96-.4Z"/>
  <polygon class="st26" points="201.36 55.97 198.89 63.19 189.63 72.59 175.76 76.66 166.99 71.88 161.29 62.49 161.8 59.18 166.04 45.46 163.83 27.88 161.23 13.14 161.58 8.76 168.83 4.8 179.49 6.1 188.3 11.63 194.84 21.41 198.1 25.19 203.93 43.57 202.43 55.94 201.36 55.97"/>
  <path class="st38" d="M132.26,50.33l-5.24,5.93-1.32,10.3,1.04,8.08s2.62,1.87,3.17,1.88,7.38.84,7.38.84l6.13-1.88,5.46-4.96-.82-8.9-8.53-10.18-4.27-1.67-2.99.56Z"/>
  <polygon class="st26" points="149.63 69.31 152.87 67.59 156.02 64.45 157.83 60.07 157.82 55.09 157.47 54.86 156.24 54.38 154.4 56.79 151.95 57.54 149.89 58.58 147.55 58.38 146.8 59.18 148.58 66.1 149.63 69.31"/>
  <polygon class="st26" points="125.8 74.43 122.15 74.15 118 72.54 114.59 69.24 112.62 64.66 112.84 64.32 113.78 63.38 116.43 64.86 118.98 64.57 121.28 64.7 123.35 63.59 124.36 64.02 125.48 71.08 125.8 74.43"/>
  <path class="st38" d="M49.99,79.04l-9.48,2.22-4.24,3.07-.84,1.28.68,2.9,2.91,5.75,4.85,6.94,4.29,1.85,3.11.14c1.22.21,2.44.42,3.67.62,2.46-1.61,4.92-3.23,7.39-4.84.56-2.47,1.11-4.94,1.67-7.42-.38-2.18-.77-4.35-1.15-6.53l-2.19-2.85s-10.23-3.18-10.68-3.16Z"/>
  <polygon class="st38" points="42.85 102.15 40.72 103.9 39.36 107.21 41.86 109.96 45.8 113.18 49.8 113.24 52.61 105.98 46.71 102.15 42.85 102.15"/>
  <polygon class="st38" points="209.93 68.28 212.38 69.57 214.36 72.54 212.46 75.74 209.24 79.67 205.32 80.53 201.14 73.97 206.16 69.05 209.93 68.28"/>
  <path class="st38" d="M169.18,43.53l-4.41-1.79-4.25-4.36-1.78-1.98-.06,4.36-1.2,4.18,1.83,9.26,2.29,1.57,1.44,2.45c1.04-.23,2.72-.74,4.46-1.96,1.93-1.35,3.04-2.94,3.6-3.88.11-.16,1.78-2.75.54-5.39-.71-1.51-1.99-2.22-2.46-2.45Z"/>
  <polygon class="st38" points="203.56 49.31 207.95 50.57 207 56.66 205.17 64.79 201.34 71.65 196.65 71.87 193.47 69.07 203.14 56.22 203.56 49.31"/>
  <polygon class="st38" points="23.67 147.05 30.25 149.74 37.76 150.57 39.36 153.72 35.95 155.37 30.23 157.13 26.27 154.68 22.71 148.38 23.67 147.05"/>
  <path class="st38" d="M212.5,108.72c.09-.01,3.68-3.64,3.68-3.64l1.47-2.08.35,2.44.46,3.19-1.57,4.77-2.14,2.02-1.28-.02-.96-6.68Z"/>
  <path class="st34" d="M112.56,170.89c.37.16.74.33,1.1.49.7.38,1.39.76,2.09,1.14.32.89.63,1.78.95,2.67-.27.61-.55,1.22-.82,1.84-.32.5-.63,1-.95,1.5l-1.27.94c-1.14.75-2.27,1.5-3.41,2.24-1.61.67-3.21,1.35-4.82,2.02-1.42.4-2.83.8-4.25,1.2l-4.02.26c-1.7-.11-3.4-.22-5.1-.33-1.58-.45-3.15-.89-4.73-1.34-.98-.65-1.97-1.3-2.95-1.95-.06-.65-.12-1.3-.18-1.95l.71-1.93,2.54-2.61,2.03-1.36,2.94-1.5,3.94-1.66c2.24-.56,5.47-1.1,9.32-.88,2.75.16,5.08.68,6.87,1.21Z"/>
  <path class="st26" d="M8.55,171.06l3.26,9.2,8.54,10.18,8.6,5.29,13.01,1.67c3.31-.54,6.61-1.08,9.92-1.61.43-.52,1.02-1.33,1.51-2.43.83-1.82.93-3.39.99-4.44.26-4.51-1.4-9.64-1.79-10.78-1.74.92-3.47,1.83-5.21,2.75l-11.82,1.94-9.95-2.82-11.32-3.67-5.75-5.28Z"/>
  <polygon class="st26" points="238.46 126.57 241.39 118.66 243.16 124.19 241.72 125.62 238.46 126.57"/>
  <polygon class="st34" points="196.96 150.12 185.83 155.06 184.63 158.37 184.63 160.73 186.5 162.55 187.49 163.11 190.12 159.39 196.12 156.95 197.88 155.61 201.68 150.38 205.53 147.86 205.36 147.33 202.67 147.15 196.96 150.12"/>
  <path class="st37" d="M133.19,194.79s2.08-4.22,2.17-4.25,6.63-6.44,6.63-6.44l8.43-2.95,5.7.82,7.68,2.86,3.88,2.8-4.86,7.02-4.85.14-3.52-2.03-5.26,9.45-8.68-1.52-7.32-5.9Z"/>
  <path class="st35" d="M169.59,176.47c2.22-5.99,3.96-8.89,5.21-8.69,1.87.29,2.65,7.51,2.35,21.65-2.72-1.24-5.45-2.49-8.17-3.73l-.45-8.74c-3.61,1.66-7.23,3.32-10.84,4.97l-5.73-.51-6,.62-4.36,2.57-4.53,4.14-3,4.48-1.11-.3-1.8-7.04,5.48-9.74,5.55-5.55,2.35.63,3.45,2.72,5.18-7.37.5-.57,7.51,3.4,8.32-6.42,6.14,5.8c.27.43.66,1.19.83,2.21.17,1.01.05,1.84-.06,2.33-2.31,1.06-4.63,2.12-6.94,3.18"/>
  <polygon class="st33" points="99.98 145.99 92.96 149.85 89.33 153.5 86.2 152.95 86.72 143.88 99.47 145.05 99.98 145.99"/>
  <path class="st0" d="M96.25,156.53l4.76-3.03,6.32-2.44,6.45.38,7.88,3.25,2.3,2.28,2.23-3.45-.61-7.74-23.6-.82-5.03,2.34-4.94,3.3s-3.2,2.65-3.11,2.72,7.33,3.23,7.33,3.23Z"/>
  <polygon class="st36" points="96.75 156.75 98.76 158.39 105.96 157.11 112.97 158.3 116.79 159.9 122.03 163.13 124.58 156.95 118.81 153.34 113.87 151.54 108.15 151.05 99.24 154.11 96.75 156.75"/>
  <path class="st29" d="M117.2,153.91l-.64.56-.17.79.33.92h1.1s.69-.24.69-.24l.08-.98s-.27-.69-.35-.75-1.03-.3-1.03-.3Z"/>
  <path class="st29" d="M95.56,153.67l1.02-.64-.04-1.63s-.7-.59-.77-.67-.83-.04-.83-.04l-.8.28-.41.28-.11.6.07.88.52.68.78.46.57-.2Z"/>
  <polygon class="st29" points="119.71 146.56 117.99 146.64 117 147.36 116.24 149.21 116.91 150.71 118.57 151.98 120.33 151.62 121.67 150.68 121.84 149.34 121.79 147.79 120.3 146.66 119.71 146.56"/>
  <path class="st29" d="M86.2,155.04l4.53,11.06s11.16,5.58,11.48,5.58,15.72-4.69,15.72-4.69l3.91-4.66-6.16-2.9-5.33-1.79-4.91-.82-7.01,1.55-.57-.07-5.65-3.62-5.29-1.67-1.39,2.03h.67Z"/>
  <polygon class="st33" points="188.4 126.79 196.4 127.17 201.27 128.85 203.84 126.98 199.38 119.06 188.44 125.72 188.4 126.79"/>
  <path class="st0" d="M196.2,134.62l-5.62-.57-6.75.66-5.59,3.23-5.58,6.44-1.04,3.07-3.55-2.08-2.94-7.19,20.71-11.34,5.55-.17,5.9.73s4.05.93,4,1.04-5.1,6.17-5.1,6.17Z"/>
  <path class="st36" d="M196.72,135.62l-1.31,2.24-7.19,1.32-6.15,3.57-3.02,2.84-3.77,4.86c-1.52-1.1-3.04-2.2-4.56-3.3,1.38-2.33,2.76-4.67,4.14-7l4-3.42,5.19-2.45,9.42-.25,3.25,1.6Z"/>
  <path class="st29" d="M175.81,141.03l.82.22.5.64.11.97-.98.49-.72.08-.5-.85s-.06-.74,0-.83.79-.72.79-.72Z"/>
  <path class="st29" d="M195.42,131.94l-1.2-.13-.68-1.49s.37-.84.4-.94.73-.4.73-.4l.85-.1.49.07.36.49.32.82-.16.84-.5.75-.6.07Z"/>
  <polygon class="st29" points="170.48 135.46 172.06 134.77 173.26 134.98 174.75 136.31 174.81 137.95 173.88 139.82 172.14 140.28 170.52 140.01 169.78 138.89 169.14 137.47 169.98 135.81 170.48 135.46"/>
  <path class="st29" d="M204.25,128.89l.8,11.92s-7.57,9.92-7.85,10.06-16.19,2.7-16.19,2.7l-5.56-2.46,4.26-5.32,3.99-3.95,4.05-2.9,6.98-1.69.48-.31,3.48-5.74,4.02-3.82,2.15,1.21-.6.3Z"/>
  <polygon class="st31" points="170.32 186.07 187.75 180.66 198.11 184 200.29 183.86 206.37 181.16 213.03 182.4 220.52 181.26 225.49 178.02 227.46 177.29 237.19 178.97 235.47 177.01 235.79 175.17 238.46 175.17 247.65 175.77 255.52 174.75 261.9 172.04 267.24 167.35 272.57 164.14 278.78 161.98 283.16 163.63 284.84 165.69 286.74 166.35 288.89 164.14 290.7 160.18 292.44 159.2 296.3 159.83 300.45 162.4 304.48 167.17 305.48 169.84 304.67 171.47 302.33 173.03 301.53 173.88 304.51 173.63 306.52 171.91 309.38 166.67 310.69 170.51 311.13 172.63 311.44 177.83 310.12 180.31 306.89 183.19 303 184.25 303.32 185.05 305.8 185.65 310.13 184.99 314.03 182.02 316.24 175.37 316.58 173.75 318.23 173.71 320.67 174.54 320.67 170.73 319.17 164.9 313.93 157.9 309.64 154.85 313.02 154.27 320.67 154.94 325.66 157.06 327.51 158.79 329.3 163.24 329.3 167.94 327.76 172.1 327.71 176.69 326.67 182.7 323.93 187.98 322.21 189.12 325.88 188.13 332.49 184.9 337.32 180.2 340.01 174.54 340.82 169.08 340.3 162.43 338.83 157.44 334.89 151.17 332.42 148.67 330.37 147.66 329.43 147.22 331.66 144.42 334.2 144.48 336.17 145.61 339.59 150.39 342.12 156.3 343.77 160.97 345.18 160.25 347.46 157.1 348.12 153.93 348.19 153.05 350.21 152.4 351.76 154.18 351.01 161.67 353.94 171.23 353.88 176.52 352.26 180.22 348.75 182.94 345.28 183.96 343.8 184.43 347.96 185.01 353.18 184.64 357.44 182.78 360.46 179.12 361.77 173.08 361.49 168.38 361.41 167.79 363.42 166.49 365.1 167.36 366.91 171.52 367.43 169.57 367.82 163.76 367.49 158.16 366.22 151.49 363.56 144.09 359.32 136.68 355.71 131.81 357.85 130.15 361.14 131.01 365.07 137.35 366.13 139.13 369.34 142.18 372.87 146.98 372.87 149.15 373.46 149.49 375.3 147.59 375.3 145.43 373.02 141.42 374.09 136.62 373.51 132.36 371.16 129.39 368.53 128.13 367.02 121.98 364.33 116.77 360.93 114.42 363.93 113.22 370.41 114.21 375.3 116.77 377.6 120.53 377.6 116.46 376.23 113.01 374.17 109.24 379.95 110.75 385.08 110.28 386.95 109.24 388.34 106.19 387.91 103.21 385.3 105.23 380.56 105.19 373.7 102.66 371.03 100.78 371.94 98.28 375.32 96.59 381.84 95.61 386.7 93.12 389.05 88.88 389.66 86.21 388.42 82.78 386.39 80.99 385.69 80.62 384.35 85.58 381.81 87.35 378 88.64 374.33 90.27 367.8 96.04 367.26 90.24 363.98 83.76 363.47 83.07 362.73 90.65 359.11 95.91 354.36 99.21 355.76 95.95 355.18 91.49 351.1 83 352.46 78.67 350.34 74.53 348.2 72.45 345.05 70.52 344.17 66.72 342.33 64.43 339.68 64.43 340.03 65.35 340.92 66.18 342.06 72.39 341.62 77.84 343.53 84.56 342.88 88.31 340.2 89.38 338.96 89 337.75 79.96 334.66 70.86 329.23 61.84 322.34 54.13 320.71 53.32 321.33 58 320.69 59.33 318.92 59.49 316.18 56.53 313.15 53.69 308.46 51.24 303.68 51.66 299.26 54.03 296.15 56.73 295.52 58.44 296.41 58.51 300.09 56.48 305.73 57.11 310.55 61.42 313.84 67.64 314.45 70.68 316.82 72.14 320.76 76.51 321.14 78.35 319.43 79.17 316.89 77.49 312.58 75.69 310.66 76.68 311.12 78.41 314.86 88.11 315.49 93.63 313.97 96.29 310.14 96.54 309.04 96.25 310.44 94.21 310.59 88.57 308.64 80.77 303.9 74 298.24 69.27 292.14 67.01 285.69 66.68 281.17 68.2 275.51 70.95 278.08 71.19 283.54 72.45 288.1 76 290.96 79.37 297.61 83.49 299.96 88.24 299.77 92.36 299.01 95.15 296.15 99.72 290.38 104.35 290.78 95.65 289.08 89.7 284.92 83.31 284.15 82.5 283.66 84.25 281.95 85.77 275.11 82.46 269.82 82.24 265.82 84.94 264.01 88.69 267.24 86.28 272.31 85.64 275.99 87.04 278.04 89.7 281.32 95.53 279.28 95.18 274.09 94.3 271.63 95.35 270.79 96.99 272.84 96.09 275.93 96.42 277.45 98.13 278.27 104.28 276.27 111.18 273.2 113.86 268.97 112.28 265.86 111.81 264.45 113.16 264.77 116.33 264.14 117.98 261.28 121.59 252.66 124.17 247.78 124.93 244.42 124.86 240.81 125.88 234.97 128.5 228.6 134.02 222.92 140.11 220.88 140.47 219.94 138.77 218.46 140.07 212.78 146.38 209.04 146.45 202.25 150.12 196.86 156.72 191.73 158.37 189.37 159.38 186.02 165.93 183.72 169.98 173.34 175.49 157.68 181.94 166.41 186.9 167.2 187.29 170.32 186.07"/>
  <path class="st28" d="M315.41,114.78c-.03.08-.01.11,0,.12.24.19,3.4-3.27,5.91-6.38,1.01-1.25,1.78-2.28,2.23-2.89.86-1.35,1.75-2.89,2.59-4.62.63-1.29,1.15-2.54,1.6-3.7.2-.77.37-1.65.48-2.61.19-1.66.16-3.13.04-4.33.02-.02.05-.05.07-.07.07-.09.17-.22.32-.36.14-.12.21-.18.3-.2.2-.04.3.13.55.16.22.03.37-.06.5-.11.47-.19.98-.04,1.38.02.47.08,1.29.14,2.79.04,2.36.92,4.71,1.83,7.07,2.75l2.57,5.04-.71,4.14,2.28-2.66,2.85-.1,5.89,3.64c1.47,1.91,2.93,3.83,4.4,5.74-.2,1.49-.4,2.99-.61,4.48-1.59,1.58-3.19,3.15-4.78,4.73l-1.14.48,5.42,4.95,2.52,4.47v.34c-2.23.47-4.47.93-6.7,1.4l-7.19-.79-.62.48c1.56,1.14,3.12,2.27,4.68,3.41.7,1.42,1.4,2.83,2.1,4.25-.59,1.94-1.17,3.88-1.76,5.82-1.61,1.91-3.22,3.83-4.84,5.74-.39.3-.77.61-1.16.91-.5-.21-.68-.48-.76-.68-.15-.41-.02-.76.05-1.26.06-.43.07-1.04-.15-1.82-.5-1.27-.99-2.54-1.49-3.8-1.79-1.28-3.57-2.56-5.36-3.84-.61-.27-1.45-.56-2.46-.74-1.02-.17-1.91-.17-2.58-.11-1.11.07-2.21.15-3.32.22-.05.04-.5.41-.86.25-.13-.06-.24-.19-.38-.71-.09-.35-.19-.87-.17-1.54.27-1.13.54-2.25.81-3.38l3.95-.63,6.8,2.34,5.28,6.42,1.09,2.9,1.76-4.04-2.09-6.75-5.09-3.99.95-1.66,6.56-.95,8.8,1.57-.19-1.43-3.14-3.04-6.48-1.84-5.84-.82,4.8-1s8.46-4.42,8.65-4.47c.19-.05,1.05-.86,1.05-.86l.76-3.04-3.42-5.42c-1.06-.7-2.13-1.4-3.19-2.1.3,1.11.61,2.22.91,3.33l-2,3.76-7.47,4.52-7.37,2-2.2,1.41-.23-.89,4.57-5.52,1.47-4.85-1.66-7.47-2.09-3.8v4.09l-1.38,5.52-3.61,4.28-4.76,3.38-6.18,2.38-1.38-.17Z"/>
  <path class="st27" d="M189.37,167.57c-2.57,2.07-5.15,4.13-7.72,6.2-5.45,3.1-9.14,4.49-11.56,5.19-.37.11-1.92.66-5.01,1.78-2.93,1.05-4.57,1.67-4.54,2.37.02.37.5.65.86.82,0,0,.88.56,2.14.57,1.44,0,9.23-2.24,19.75-5.83,6-1.57,12-3.13,18-4.7l21.91-5.34,15.79-2.36,13.92-.6,5.29-2.03,4.09-4.47.98-2.76,4.95-.63,3.49,1.62.57,2.38,1.38.73,4.7-5.1,3.04-5.68,15.57-7.58,4.63-.7,2.03,1.01.38,1.9,3.11,1.27,4.31.25,3.17.76,1.03,2.69.93-1.61-.44-3.55-2.73-5.39-1.97-2.16,2.85.44,15.85,3.3v-.5c-.99-1.02-1.99-2.04-2.98-3.06,0-.38-.01-.76-.01-1.14,0-1.07,0-2.12.02-3.16.99-.49,1.99-.99,2.98-1.48l7.53,1.67,4.33,3.93,2.92,6.47,1.37-3.6v-4.9l-5.05-5.71-1.27-.95.46-1.71,4.99-.95,10.89,1.97-.3-1.59-4.72-3.46-7.34-1.95s-.53-.86-.42-.91c.12-.05,8.8-4.21,8.8-4.21l3.2-2.92-1.3-4.98-5.07-4.17-.03,2.62-.1,2.82-4.12,3.58-4.88,2-7.16,2.35-1.65,1.43h-.86l3.14-4.22,2.79-4.5-.51-7.35-2.24-4.98-.55.16-.6,5.7-4.66,6.53-8.05,4.63-6.66,2.44-4.79,1.2,2.57-1.2-1.78-5.14-1.39-2.66-.7.38-1.59,4.06-1.84,1.97-3.8,3.11-4.95,3.74-1.59,1.52.7-5.64c-.05-.81-.2-1.91-.65-3.13-.66-1.78-1.66-3.01-2.33-3.72-.53-.4-1.06-.8-1.59-1.2l-.19,2.54-.7,2.54-5.44,5.56.65,3.91-2.31,2.13-1.27,1.01-4.18,1.46-9.38,3.17-5.01,1.14-5.77-1.99-5.77-1.24-1.26.65.25,2.65-.19,2.54-1.14,2.28-3.71,2.18-2.14-.52-4.05-1.41-5.44.8-5.02,2.9-3.62,3.78-8.81,7.04-8.05,5.39-17.38,9.52Z"/>
  <path class="st24" d="M167.67,203.76c.32,1.11-8.58,4.79-9.53,5.18-3.48,1.43-13.8,5.37-30.14,5.96-1.49.05-12.31.44-12.46-.64-.12-.85,6.42-1.98,25.91-5.95,19.37-3.94,25.94-5.48,26.22-4.55Z"/>
  <path class="st24" d="M167.12,200.65c-24.2,4.37-66.64,14.07-89.18,11.76-8.21-.84-12.43-2.94-13.96-3.94-4.44-2.92-8.15-7.18-8.15-7.18-2.41-2.41-2.94-5.32-5.52-5.9-.95-.21-2.02,0-4.14.43-2.45.5-4.42,1.12-5.77,1.59,1.98,2.78,4.97,6.52,9.19,10.33,4.47,4.04,10.16,9.23,18.84,11.73,9.51,2.75,18.15,1.32,27.19-.18,2.16-.36,3.77-.7,4.28-.81,35.51-7.62,103.17-20.86,102.88-22.41-.15-.8-18.33,1.44-35.67,4.57Z"/>
  <path class="st32" d="M4.81,168.21c2.55,3.41,4.97,6.04,6.87,7.91,1.02,1.01,8.27,8.13,15.28,11.13.83.36,2.54,1.03,4.34,1.67,2.36.85,3.59,1.28,5.2,1.63,2.15.46,3.82.5,5.11.53,5.13.11,10.05-.95,12.71-1.61.11-1.19.15-2.52.09-3.97-.13-2.8-.63-5.21-1.19-7.11-4.4,1.18-10.1,2.22-16.76,2.23-3.6,0-6.87-.29-9.74-.72-6.62-2.92-13.33-6.39-20.04-10.54-.63-.39-1.25-.78-1.86-1.17Z"/>
  <path class="st32" d="M101.79,69.91c.09,1.42.61,11.38-6.22,17.12-7.58,6.38-21.57,5.3-31.23-4.86,2.7,3.15,5.4,6.3,8.1,9.44l15.35,4.2,9.74-1.52,7.75-6.6,1.16-10.36-.31-5.14-4.33-2.29Z"/>
  <path class="st32" d="M163.79,57.55c.68,1.25,5.59,9.93,14.42,11.12,9.82,1.32,21.05-7.08,23.76-20.84-.59,4.1-1.18,8.21-1.77,12.31l-10.7,11.78-9.04,3.94-10.08-1.42-6.53-8.13-2.49-4.51,2.43-4.25Z"/>
  <path class="st32" d="M158.17,62.67c-1.2,1.04-2.7,1.52-4.19,1.43-1.15-.07-2-.48-2.56-.77-3.15-1.66-4.31-5.12-4.82-4.9-.1.04-.18.24-.1.89.77,1.08,1.13,2.03,1.32,2.7.14.49.09.66.34,1.51.24.82.48,1.64.72,2.46.35,1.26.71,2.52,1.06,3.78,1.23-.91,2.49-1.92,3.78-3.01,1.63-1.38,3.11-2.76,4.45-4.09Z"/>
  <path class="st32" d="M114.54,69.41c-.2-.13,1.83.77,4.39.6,1.03-.07,1.92-.13,2.78-.73.99-.7,1.43-1.76,2.28-3.87.56-1.38.84-2.42,1.09-2.38.16.02.23.46.27.86.44,1.3.27,2.01,0,2.42-.22.34-.63.67-.78,1.35-.06.29-.05.53-.04.68.12,1.59.43,2.97.43,2.97.15.66.32,1.62.38,2.83-.84.08-2.1.09-3.47-.39-.9-.31-1.4-.74-2.18-1.18-1.86-1.04-3.58-2.11-5.15-3.16Z"/>
  <path class="st25" d="M126.92,71.59c.55.42,5.85,4.32,12.53,2.34,6.13-1.82,8.56-7.15,8.88-7.91-.1,2.58-.19,5.16-.29,7.74l-12.67,4.48-7.38-1.57-1.07-5.08Z"/>
  <path class="st25" d="M41.43,97.92c6.5,1.5,12.88-1.12,15.59-6.08,2.55-4.65.9-9.56.57-10.51,1.46.73,2.93,1.45,4.39,2.18.53,2.44,1.07,4.88,1.6,7.33-.84,2.39-1.68,4.78-2.52,7.17-2.28,1.46-4.55,2.93-6.83,4.39-1.28.19-2.56.38-3.84.58-1.17-.22-2.73-.64-4.43-1.5-1.31-.66-2.34-1.4-3.12-2.05-.47-.5-.94-1.01-1.42-1.51Z"/>
  <path class="st25" d="M40.26,110.7c3.37.81,6.67-.55,8.06-3.16,1.3-2.44.44-5.04.26-5.54.76.39,1.52.78,2.28,1.16.28,1.29.57,2.58.85,3.87-.43,1.26-.86,2.52-1.29,3.77-1.17.77-2.35,1.53-3.52,2.3-.66.1-1.32.2-1.99.29-.61-.12-1.42-.35-2.3-.8-.68-.35-1.22-.75-1.62-1.09-.25-.27-.49-.53-.74-.8Z"/>
  <path class="st25" d="M56.51,79.36c.54-.23,1.94-.92,2.86-2.49,1.44-2.46.5-5.02.37-5.38.89,3.13,1.77,6.27,2.66,9.4-.78.15-1.56.29-2.34.44-1.18-.66-2.37-1.31-3.55-1.97Z"/>
  <path class="st25" d="M204.83,67.09c-.85.25-3.4.89-6.11-.3-1.2-.52-2.05-1.23-2.61-1.79-.14,2.05-.27,4.1-.41,6.16,1.31-.07,2.62-.14,3.94-.2,1.73-1.29,3.46-2.58,5.19-3.87Z"/>
  <path class="st25" d="M97.74,58.17c.18.71,1.27,4.77,5.25,6.87,2.25,1.19,4.39,1.21,5.44,1.14-.89,1.55-1.77,3.09-2.66,4.64l-6.42-6.65-2.6-4.16.99-1.84Z"/>
  <path class="st25" d="M171.26,45.07c-.05.51-.51,4.16-3.77,6.28-2.3,1.49-4.65,1.36-5.41,1.28.92,1.52,1.85,3.05,2.77,4.57,2.31-1.57,4.62-3.13,6.94-4.7.26-1.82.52-3.63.78-5.45-.44-.66-.88-1.32-1.31-1.98Z"/>
  <path class="st24" d="M18.01,295.84c10.89,8.81,19.41,10.48,24.74,10.55.1,0,.39,0,.81,0,3.56-.03,15.1-.62,22.05-7.92,3.1-3.26,4.74-7.27,5.31-8.68,1.06-2.6,1.8-5.82,3.32-12.14.92-3.84,1.3-5.7,1.5-5.68.33.04-.87,5.21-.13,12.39.08.78.54,4.96,2.35,9.98.83,2.31,1.49,3.53,2.09,4.47,1.53,2.39,3.35,4.06,4.65,5.09-8.3,3-16.6,5.99-24.9,8.99-4.99.3-11.34.25-18.56-.86-5.1-.78-9.54-1.92-13.22-3.1-2.33-1.63-4.67-3.27-7-4.9-1-2.73-2.01-5.46-3.01-8.19Z"/>
  <path class="st24" d="M71.29,262.29c2.39.14,5.65.01,9.17-1.22,10.84-3.81,16.31-15.39,17.49-14.63.49.32-.3,2.44-.74,3.62-.93,2.49-2.25,4.16-3.23,5.34-1.6,1.91-4.16,4.68-7.9,7.73-.73.53-1.98,1.28-3.7,1.69-2.19.52-4.02.19-4.96-.05-2.04-.83-4.08-1.65-6.12-2.48Z"/>
  <path class="st24" d="M191.18,257.41c1.84,2.33,4.17,5.19,6.86,8.39,2.91.04,5.82.08,8.73.12,2.76-2,5.52-3.99,8.27-5.99-1.09.61-2.68,1.35-4.69,1.84-.99.24-3.43.81-6.44.41-2.86-.38-5.53-1.75-10.87-4.5-.34-.17-.61-.32-.79-.41"/>
  <path class="st32" d="M179.44,289.94c-3.43,3.24-13.52,11.89-28.91,13.44-23.51,2.38-39.51-13.82-41.56-15.96,1.04,3.27,3.06,8.11,7.12,12.82,1.97,2.29,3.99,4.04,5.77,5.37,6.67,1.06,13.35,2.13,20.02,3.19l21.6-2.5,12.07-6.89c1.3-3.16,2.59-6.31,3.89-9.47Z"/>
  <path class="st24" d="M110.13,293.87c.76,1.31,1.91,3.29,3.36,5.67,4.43,7.27,4.95,7.37,6.07,9.63,4.1,8.19,2.1,16.37,3.12,16.49.49.06,1.19-2.26,1.67-4.49.72-3.38,1.33-8.45.35-14.91-3.31-1.53-6.63-3.05-9.94-4.58-1.54-2.6-3.09-5.21-4.63-7.81Z"/>
  <path class="st24" d="M173.27,301.07c-1.89,1.23-4.52,3.04-7.49,5.41-4.75,3.78-5.77,4.61-6.61,5.83-2.22,3.22-2.68,6.49-2.83,7.67-.73,5.63,1.42,9.67.86,9.89-.53.21-2.87-3.18-4.1-7.42-1.6-5.49-.76-10.4,0-13.29,3.98-1.04,7.96-2.08,11.95-3.12l8.23-4.97Z"/>
  <path class="st24" d="M82.84,299.83c.27-.23,2.45,2.9,7.03,5.52,3.68,2.1,6.92,2.74,6.79,3.52-.08.49-1.42.66-2.56.8-1.93.25-3.53-.02-4.52-.26-5.87-7.57-6.94-9.4-6.74-9.57Z"/>
  <path class="st25" d="M23.14,146.8c1.2,1.45,3.02,3.31,5.61,4.91,4.89,3.02,9.71,3.39,12.07,3.4l-12.22,1.87-3.89-5.59-1.57-4.59Z"/>
  <path class="st25" d="M209.78,77.98c-.51.02-2.9.03-4.96-1.81-2.07-1.85-2.31-4.25-2.35-4.75l-1.9,1.47.97,2.31c.47.86.94,1.71,1.41,2.57.47.68.93,1.35,1.4,2.03.69.5,1.37.99,2.06,1.49l1.89-.64c.5-.89,1-1.78,1.49-2.68Z"/>
  <path class="st25" d="M217.23,103.75c-.14,1.68-.46,3.9-1.2,6.07-1.39,4.09-3.47,5.64-4.54,6.24,2.02-.42,4.04-.84,6.06-1.25l.23-6.3-.55-4.76Z"/>
  <path class="st32" d="M42.22,224.67c4.8-1.62,11.79-3.35,20.2-3.12,8.43.23,15.11,2.34,15.22,1.93.08-.28-3.05-1.54-17.46-5.91l-21.09,4.31,3.13,2.79Z"/>
  <path class="st12" d="M95.14,59.99s7.42-2.89,6.85-9.47c-.05-.56.02-1.23.36-1.37,1.13-.46,6.1,5.22,6.46,11.79.28,4.96-2.16,8.77-3.46,10.48"/>
  <path class="st12" d="M166.35,57.13c-1.79.61-5.97-3.31-7.93-8.3-2.41-6.12-.27-13.35.95-13.41.36-.02.71.56.9,1.09,2.22,6.22,10.18,5.74,10.18,5.74,0,0,6.09,11.38-4.09,14.87Z"/>
  <path class="st12" d="M200.27,72.17c8.53-4.21,7.15-23,7.15-23-1.45-.23-2.91-.46-4.36-.69"/>
  <path class="st12" d="M201.31,72.63s6.4-9.25,12.88-1.37c0,0-1.3,9.74-8.65,9.32"/>
  <path class="st12" d="M165.49,41.49c.19-5.22-.4-12.18-4.61-25.98-1.27-4.15-.22-6.38.24-7.17,2.63-4.51,11.64-5.9,21.75-1.35,0,0,22.7,13.57,19.94,46.32,0,0-3.35,18.17-21.42,22.56-1.59.39-3.86.6-6.57-.02-9.7-2.23-13.41-14.02-13.83-15.41"/>
  <path class="st12" d="M158.58,60.08l2.41.37c.88-1.66,1.57-3.24,2.12-4.73"/>
  <path class="st18" d="M192.91,16.56s-19.66-2.05-28.9,10.78"/>
  <path class="st18" d="M164.95,48.36"/>
  <path class="st18" d="M202.54,40.14s-18.5-8.81-32.08,2.14"/>
  <path class="st12" d="M106.18,72.43c-5.09-3.9-7.86-7.86-9.45-10.69-3.09-5.53-6.56-10.64-9.21-30.18-.58-4.3-2.47-5.89-3.21-6.41-4.27-3-13.04-.51-20.33,7.86,0,0-14.96,21.8,1.22,50.41,0,0,10.63,15.12,28.88,11.56,1.61-.31,3.76-1.06,5.96-2.76,7.88-6.08,6.34-18.34,6.14-19.78Z"/>
  <path class="st18" d="M58.86,45.88s17.01-10.07,30.76-2.26"/>
  <path class="st18" d="M59.95,71.33s17.2-20.6,37.59-8.22"/>
  <path class="st16" d="M126.71,149.5c1.08,9.21-6.15,18.21-16.84,20.54-11.28,2.47-22.16-3.42-24.29-13.15-.07-.31-.2-1.1-.31-2.08-.49-4.54.27-8.29.98-10.72"/>
  <path class="st16" d="M126.2,146.99c.09.32.17.64.24.97.11.51.2,1.03.26,1.54"/>
  <path class="st3" d="M125.24,158.3c-.66-.8-6.66-7.75-16.17-7.21-7.18.4-11.72,4.81-12.82,5.93"/>
  <path class="st3" d="M123.59,146.53c1.36.59,2.34,1.13,2.86,1.43"/>
  <path class="st3" d="M88.93,153.5c1.73-1.87,5.51-5.48,11.37-7.74l2.3-.71"/>
  <path class="st3" d="M116.58,174.53c.6,3.68-6.43,8.1-12.12,9.72-8.67,2.46-19.66-.04-20.39-4.12-.73-4.02,8.37-10.09,17.09-10.87,6.42-.58,14.82,1.52,15.43,5.28Z"/>
  <path class="st5" d="M121.91,148.47c.33,1.51-.63,3.01-2.14,3.34s-3.01-.63-3.34-2.14.63-3.01,2.14-3.34,3.01.63,3.34,2.14Z"/>
  <path class="st1" d="M93.65,152.61c.18.85,1.02,1.38,1.87,1.2s1.38-1.02,1.2-1.87-1.02-1.38-1.87-1.2-1.38,1.02-1.2,1.87Z"/>
  <path class="st3" d="M85.23,152.84c.93.08,2.21.26,3.69.65.95.25,3.19.92,5.75,2.47.93.57,2.14,1.39,3.43,2.54.68-.24,1.61-.55,2.75-.81,0,0,3.16-.73,6.44-.58,3.61.16,9.19,1.89,14.74,6.01,0,0-10.34,13.39-29.31,3.96,0,0-8.31-5.68-7.48-14.25"/>
  <circle class="st1" cx="117.42" cy="155.06" r="1.18"/>
  <path class="st16" d="M165.31,141.06c2.87,8.82,13.19,13.98,23.88,11.64,11.28-2.47,18.71-12.36,16.58-22.08-.07-.31-.27-1.09-.59-2.02-1.45-4.33-3.7-7.42-5.36-9.33"/>
  <path class="st16" d="M164.72,138.57c.05.33.11.66.18.98.11.51.25,1.02.41,1.51"/>
  <path class="st3" d="M170.32,148.44c.27-1,2.81-9.82,11.68-13.3,6.69-2.63,12.66-.52,14.13.04"/>
  <path class="st3" d="M166.9,137.06c-.99,1.11-1.65,2-2,2.49"/>
  <path class="st3" d="M201.31,128.92c-2.36-.97-7.3-2.68-13.56-2.29l-1.73.05"/>
  <path class="st5" d="M169.24,138.12c.33,1.51,1.83,2.47,3.34,2.14s2.47-1.83,2.14-3.34c-.33-1.51-1.83-2.47-3.34-2.14s-2.47,1.83-2.14,3.34Z"/>
  <path class="st1" d="M196.64,130.08c.18.85-.35,1.68-1.2,1.87s-1.68-.35-1.87-1.2.35-1.68,1.2-1.87,1.68.35,1.87,1.2Z"/>
  <path class="st3" d="M204.39,126.78c-.81.46-1.9,1.15-3.08,2.13-.75.62-2.51,2.17-4.19,4.64-.61.9-1.37,2.16-2.05,3.74-.72.06-1.69.18-2.84.41,0,0-3.18.66-6.1,2.16-3.22,1.65-7.56,5.55-10.88,11.61,0,0,14.99,7.85,28.29-8.63,0,0,5.18-8.63.85-16.08"/>
  <circle class="st1" cx="176.07" cy="142.23" r="1.18"/>
  <path class="st10" d="M206.37,147.2c-2.45-.15-6.16-.05-10.25,1.48-5.64,2.11-12.72,7.23-11.82,11.24.18.79.76,1.94,2.8,3.06"/>
  <path class="st11" d="M182.53,334.2c.19-.31,1.27-2.11.67-4.34-.45-1.68-1.59-2.63-1.98-2.93"/>
  <path class="st11" d="M168.42,328.36c.3.6.8,1.81.79,3.41-.01,1.77-.65,3.07-.99,3.66"/>
  <path class="st12" d="M153.37,309.37c-2.74,8.98-.64,18.21,5.41,23.31,5.22,4.4,11.64,4.29,13.64,4.24,9.39-.19,15.27-6.29,16.36-7.47.63-.74,4.36-5.27,3.52-11.62-.63-4.72-3.41-7.69-4.36-8.61.79-1,1.51-2.01,2.17-3.02,9.86-15.27,6.61-34.17,3.63-44.92"/>
  <path class="st11" d="M95.36,333.75c-.19-.31-1.27-2.11-.67-4.34.45-1.68,1.59-2.63,1.98-2.93"/>
  <path class="st11" d="M109.46,327.91c-.3.6-.8,1.81-.79,3.41.01,1.77.65,3.07.99,3.66"/>
  <path class="st12" d="M123.54,306.25s7.66,16.85-4.44,25.99c-1.71,1.21-6.68,4.39-13.64,4.24-9.39-.19-15.27-6.29-16.36-7.47-.63-.74-4.36-5.27-3.52-11.62.63-4.72,3.41-7.69,4.36-8.61-2.55-1.89-10.43-8.22-13.75-19.81-3.19-11.11-.25-20.29.87-23.32"/>
  <path class="st12" d="M144.46,216.92c3.45-.02,11.13-.06,18.01,3.53,12.18,6.37,16.03,20.81,18.05,30.82,3.85,19.09-.69,39.51-.69,39.51-.43,1.71-1.29,4.18-3.07,6.74-2.83,4.05-6.42,6.05-8.26,6.91-4.67,2.04-13.18,5.03-24.18,4.94-11.23-.09-19.84-3.36-24.5-5.51-2.15-1.19-5.82-3.62-8.51-8.06-1.06-1.74-1.74-3.41-2.19-4.84,0,0,0,0,0,0-1.37-6-4.88-22.1-.69-39.5,2.39-9.9,5.87-24.35,18.05-30.82,6.9-3.66,14.59-3.7,17.97-3.72Z"/>
  <path class="st12" d="M165.02,204.24c3.3.03,8.27.4,14.64,2.11,0,0,.4.1.72.2,2.59.76,8.77,3.09,19.32,11.68,4.61,3.76,10.71,9.25,17.14,16.74.68,1.26,5.18,9.85,1.36,19.16-.7,1.71-4.31,9.86-12.56,11.9-2.7.67-5.07.48-6.65.21-2.54-2.59-5.07-5.17-7.61-7.76"/>
  <path class="st11" d="M218.39,252.77c-.31-.72-.85-1.73-1.76-2.76-.82-.91-1.66-1.52-2.29-1.9"/>
  <path class="st11" d="M214.34,258.87c-.31-.72-.85-1.73-1.76-2.76-.82-.91-1.66-1.52-2.29-1.9"/>
  <path class="st11" d="M208.53,263.14c-.31-.72-.85-1.73-1.76-2.76-.82-.91-1.66-1.52-2.29-1.9"/>
  <path class="st12" d="M99.24,242.62c-.85,2.89-2.18,6.39-4.32,10.11-3.62,6.3-8.03,10.54-11.21,13.13-1.58.27-3.96.46-6.65-.21-8.25-2.04-11.86-10.19-12.56-11.9-3.81-9.31.68-17.9,1.36-19.16,4.43-5.16,8.7-9.37,12.44-12.72"/>
  <path class="st11" d="M64.31,252.38c.31-.72.85-1.73,1.76-2.76.82-.91,1.66-1.52,2.29-1.9"/>
  <path class="st11" d="M68.36,258.49c.31-.72.85-1.73,1.76-2.76.82-.91,1.66-1.52,2.29-1.9"/>
  <path class="st11" d="M74.17,262.76c.31-.72.85-1.73,1.76-2.76.82-.91,1.66-1.52,2.29-1.9"/>
  <path class="st12" d="M50.16,102.98c-9.51.26-16.1-17.92-16.1-17.92,16.09-13.47,28.74-1.7,28.74-1.7,0,0,6.42,19.1-12.65,19.62Z"/>
  <path class="st12" d="M58.34,65.13c-.9-.34-2.38-.75-4.22-.61-2.53.19-4.3,1.3-5.05,1.84-.6.35-1.55,1.03-1.92,2.17-.58,1.82.71,3.62,1.44,4.66,3.4,4.79,11.46,8.23,13.8,9.18"/>
  <path class="st12" d="M49.92,112.56c-6.39,3.67-11.75-4.86-11.75-4.86,2.6-9.86,12.28-4.13,12.28-4.13,0,0,4.98,5.83-.52,8.99Z"/>
  <path class="st13" d="M48.02,152.71c-13.25,2.9-26.5,5.8-39.75,8.69l-1.38.3c-.85.41-1.72,1.03-1.99,1.97-1.2,4.28,10.8,12.78,22.52,15.66,3.67.9,9.77,2.52,17.17.58,3.77-.99,6.66-2.56,8.56-3.78"/>
  <path class="st12" d="M52.13,195.39c-3.36,1.15-12.63,3.83-23.02.15-18.58-6.59-22.9-27.22-23.12-28.36"/>
  <path class="st11" d="M25.91,184.96s3.25,5.94,7.06,1.86c.24.42,2.03,3.37,5.45,3.85,3.3.46,6.74-1.57,8.27-5.08"/>
  <path class="st11" d="M31.6,157.15c-7.29-1.22-9.54-11.75-9.54-11.75,5.75,5.01,14.92,4.48,14.92,4.48.07.02,1.63.52,2.02,2.12.25,1.05-.1,2.17-.92,2.89-2.16.75-4.32,1.51-6.48,2.26Z"/>
  <path class="st11" d="M113.06,62.14c.3.34,2.53,2.74,6.1,2.62,3.8-.13,5.9-3,6.13-3.33.36,4.21.72,8.42,1.08,12.64-.4.06-6.8.86-10.78-3.96-2.68-3.24-2.59-6.98-2.53-7.96Z"/>
  <path class="st11" d="M156.73,52.89c-.13.43-1.15,3.54-4.45,4.92-3.51,1.47-6.61-.27-6.96-.47,1.43,3.98,2.86,7.96,4.29,11.93.39-.11,6.54-2.06,8.14-8.1,1.08-4.06-.57-7.43-1.02-8.29Z"/>
  <path class="st13" d="M234.21,131.48"/>
  <path class="st13" d="M236.77,127.37"/>
  <path class="st13" d="M213.91,116.55c7.72-1.69,15.44-3.38,23.16-5.07.46-.1.92-.2,1.38-.3,1.44.06,2.2.53,2.63.96,2.09,2.1.76,7.73-3.55,14l-.27.43"/>
  <path class="st12" d="M243.7,124.2c-.65-3.31-1.38-5.91-1.79-7.31"/>
  <path class="st11" d="M213.91,116.55c6.12-4.15,3.76-14.66,3.76-14.66,0,0-.89,2.85-5.78,7.97"/>
  <path class="st12" d="M139.37,77.62c2.95-.68,6.11-1.41,7.98-3.97,2.45-3.36,1.08-7.67.18-10.51,0,0-2.01-6.34-8.22-10.69-.78-.55-1.83-1.16-1.83-1.16-1.16-.68-1.81-.95-2.09-1.06-1.06-.43-1.66-.5-2.24-.43-.24.03-.41.08-.53.11-.74.18-1.36.59-2.46,1.77-1.66,1.77-2.35,2.77-2.94,3.88-3.18,5.97-2.08,12.48-2.08,12.48.55,3.3,1.25,7.47,4.81,9.42,3,1.65,6.46.85,9.41.17Z"/>
  <path class="st10" d="M126.92,59.64c1.5.37,4.31.86,7.69.12,4.24-.92,6.98-3.24,8.13-4.33"/>
  <path class="st10" d="M125.69,65.43c1.96.56,5.33,1.25,9.44.64,5.84-.86,9.76-3.83,11.4-5.23"/>
  <path class="st10" d="M126.49,70.67c1.8.58,5.88,1.62,10.91.53,5.09-1.1,8.39-3.79,9.79-5.07"/>
  <path class="st12" d="M55.13,214.32c-8.61,2.66-17.21,5.25-26.29,3.52,8.15,2.53,22.07,9.3,17.54,20.07,1.21-.92,5.07-3.6,10.41-3.35,2.7.13,4.82.97,6.14,1.63"/>
  <path class="st11" d="M60.75,217.41c-7.79,2.11-15.82,5.03-23.79,3.87"/>
  <path class="st11" d="M69.51,220.68c-7.75,3.73-17.28,9.5-23.14,17.24"/>
  <path class="st12" d="M114.08,234.58c4.14,1.81,32.47,13.2,61.07-.23"/>
  <path class="st12" d="M107.45,256.31s36.04,19.79,73.7-.2"/>
  <path class="st12" d="M107.35,278.4s36.04,19.79,73.7-.2"/>
  <path class="st12" d="M71.01,263.24c-3.46,4.95-6.93,9.9-10.39,14.85-2.17,3.31-6.02,8.16-12.27,11.97-13.65,8.31-28.05,5.13-31.45,4.28.29,2.43,1.14,6.45,4.04,10.11,1.04,1.31,4.34,5.12,14.42,7.71,5.27,1.35,14.63,2.94,26.8.64,3.03-.54,6.92-1.52,11.18-3.42,3.75-1.67,6.76-3.59,9.03-5.28"/>
  <path class="st12" d="M18.33,294.35c.37-1.56,1.06-3.82,2.39-6.31,1.31-2.44,2.07-3.68,3.07-3.94,2.06-.52,5.18,3.28,7.9,8.96"/>
  <path class="st12" d="M33.37,294.01c-.08-1.6-.06-3.96.53-6.73.57-2.71.96-4.11,1.85-4.64,1.83-1.08,5.89,1.7,10.09,6.39"/>
  <path class="st12" d="M47.86,289.14c-.69-1.44-1.58-3.63-2.11-6.41-.52-2.72-.71-4.16-.09-4.99,1.27-1.7,6.08-.71,11.78,2"/>
  <path class="st12" d="M57.17,278.84c-.81-1.38-1.88-3.49-2.64-6.22-.74-2.67-1.05-4.09-.5-4.97,1.13-1.8,6-1.21,11.9,1.01"/>
  <path class="st12" d="M65.54,268.98c-.77-1.4-1.78-3.54-2.46-6.29-.66-2.69-.93-4.12-.36-4.98.44-.66,1.4-.97,2.73-.98"/>
  <path class="st11" d="M142.48,169.85l-6.08,6.55s-13.97,14.46,5.34,24.4c0,0,2.94,1.39,7.75,1.12"/>
  <polyline class="st11" points="160.85 168.89 153.43 165.19 147.56 173.96 142.71 169.61 142.48 169.85"/>
  <polyline class="st11" points="175.63 168.31 169.88 162.33 161.4 168.62"/>
  <polyline class="st11" points="176.4 189.4 168.97 185.71 163.1 194.47"/>
  <polyline class="st11" points="149.5 201.91 154.15 192.24 162.13 195.81 168.65 186.9"/>
  <path class="st10" d="M133.32,194.39c1.26-2.57,12-22.68,33.62-7.12"/>
  <ellipse class="st22" cx="149.74" cy="162.32" rx=".82" ry="2.19" transform="translate(-61.25 97.09) rotate(-30.13)"/>
  <ellipse class="st22" cx="157.68" cy="160.58" rx="2.19" ry=".82" transform="translate(-6.11 314.93) rotate(-88.82)"/>
  <path class="st12" d="M39.36,95.35c-1.89,1.23-3.18,2.28-4.07,3.18-5.26,5.25-7.92,11.25-7.92,11.25-2.26,4.94-2.82,12.4-2.77,20.94.04,6.53.89,12.16,1.9,16.63"/>
  <path class="st12" d="M114.19,69.6c-2.88.75-5.77,1.51-8.65,2.26"/>
  <path class="st12" d="M133.98,65.65"/>
  <path class="st12" d="M220.88,139.55c-.49-1.41-1.18-3.06-2.18-4.82-.79-1.39-1.62-2.58-2.4-3.56-4.22-20.97-7.71-36.74-9.48-43.35-.38-1.41-1.03-3.7-2.29-6.48-1.85-4.07-4.02-7.06-5.52-8.91-1.42-1.03-2.83-2.05-4.25-3.08"/>
  <path class="st12" d="M40.41,197.41c2.15,3.95,7.48,12.43,17.94,18.29,15.36,8.61,30.58,5.28,34.24,4.38l109.39-23.92c3.35-.95,8.73-2.94,14.18-7.25,4.68-3.7,7.62-7.71,9.34-10.49"/>
  <polyline class="st23" points="102.33 144.96 79.12 143.35 81 132.51 136.14 142.1 132.47 147.05 103.07 145.01"/>
  <line class="st11" x1="101.37" y1="145.09" x2="100.66" y2="145.05"/>
  <polyline class="st23" points="185.17 127.02 205.99 115.6 199.75 106.53 152.71 138.91 158.16 141.85 184.52 127.38"/>
  <line class="st11" x1="186.49" y1="126.48" x2="187.12" y2="126.14"/>
  <path class="st11" d="M149.67,135.65s-1.23,6.08,1.67,7.77"/>
  <path class="st11" d="M137.89,138.23s3.66,5.01,1.73,7.76"/>
  <polyline class="st8" points="60.81 119.5 70.71 119.5 70.71 128.42"/>
  <polyline class="st8" points="92.96 119.5 83.06 119.5 83.06 128.42"/>
  <polyline class="st8" points="92.96 110.39 83.06 110.39 83.06 101.47"/>
  <polyline class="st8" points="60.81 110.39 70.71 110.39 70.71 101.47"/>
  <path class="st9" d="M226.27,177.6c-.98.04-1.24.19-1.24.19-6.88,7.59-18.73,3.35-18.73,3.35-6.46,4.07-9.16,2.64-9.16,2.64l-9.26-3.16c-4.31,1.27-8.62,2.54-12.94,3.81l-5.01,1.64"/>
  <path class="st9" d="M243.88,124.93c1.49-.23,3.01-.24,4.54.04,0,0,17.61-1.32,16.19-9.85,0,0-1.67-6.2,6.52-1.83,8.19,4.36,10.75-24.02-.52-16,0,0,.62-5.96,10.96-1.15,0,0-6.01-17.58-17.69-7.56,0,0,3.57-13.02,18.02-2.53,0,0,2.74-1.76,1.86-3.94,0,0,10.75,9.52,5.98,22.93,0,0,22.72-15.71,1.11-25.65,0,0-10.98-14.42-19.69-5.28,0,0,22.47-20.56,37.65,6.91,0,0,4.36,12.57.25,15.21,0,0,13.58,5.1,1.41-19.38,0,0,2.66-3.13,8.6,2.35,0,0,6.84-.39-4.16-8.37,0,0-6.54-22.85-21.12-10.59,0,0,11.47-19.75,24.69-.82,0,0,5.79,1.14,1.22-6.83,0,0,18.39,11.54,19.29,36.8,0,0,8.2,1.15,2.6-11.73.74-9.01-.29-12.08-1.81-12.61-1.25-.44-2.92.81-2.95.74-.04-.08,2.88-2.35,5.15-1.54,2.67.95,3.04,5.66,3.08,6.25,0,0,10.52,4.61,5.92,12.72,1.02,1.19,2.55,3.29,3.49,6.27,1.22,3.87.82,7.19.5,8.84,1.34-.55,3.29-1.58,4.96-3.52,4.38-5.08,2.93-11.85,2.71-12.77,0,0,7.46,8.14,4.47,15.45,4.06-5.89,7.98-8.04,10.9-8.87,2.02-.58,4.75-.87,6.14-3.08,1.08-1.72,1.53-4.91,1.54-4.94,2.36,1.06,3.92,3.24,3.97,5.59.05,2.11-1.13,3.6-1.51,4.05-.35.75-.86,1.63-1.63,2.48-2.48,2.73-5.81,3.22-6.97,3.33,0,0-8.87-.08-8.52,4.71,0,0,12.77,9.04,16.79,1.96,0,0,1.88,7.89-4.03,7.65-.91.24-2.17.46-3.65.38-5.74-.32-9.83-4.9-10.05-4.64-.26.31,6.64,6.3,7.1,9.7.01.11.28,2.17.58,4.93.01.12.02.19.02.19-1.59-2.88-3.56-4.47-4.72-5.25-3.73-2.53-9.65-3.93-13.34-1.4-.25.17-.45.33-.58.45,1.2.45,5.16,2.12,7.58,6.45,1.59,2.85,1.79,5.56,1.8,6.95,8.93,2.7,4.49,13.29,4.49,13.29,2.54,2.35,3.15,5.24,2.08,6.65-.18.23-.76.9-2.23,1.07.03-.04.06-.08.09-.13,1.19-1.95-4.03-7.24-7.39-10.38-4.83-13.19-9.98-6.7-9.98-6.7,16.76,18.91,11.42,39.95,11.42,39.95-2.19-8.92-5.6-4.1-5.6-4.1,3.48,22.83-18.44,16.43-18.44,16.43,19.02-1.18,7.99-22.24,7.99-22.24,2.45-13.37-2.76-8.93-2.76-8.93-.52,8.07-4.6,7.63-4.6,7.63-8.08-26.11-14.39-13.05-14.39-13.05,4.8-.92,10.31,11.19,10.31,11.19,7.96,30.36-22.49,30.98-22.49,30.98,12.61.62,10.62-17.4,10.62-17.4,8.79-22.1-18.49-17.81-18.49-17.81,12.71,6.42,11.49,20.73,11.49,20.73-.86-2.18-4.06-1.57-4.06-1.57-3.23,17.56-14.79,10.6-14.79,10.6,15.37-.8,7.6-17.68,7.6-17.68-4.16,10.62-8.73,6.73-8.73,6.73,13.69-1.98-7.74-20.76-10.66-11.95-2.92,8.81-5.98,3.17-5.98,3.17-4.85-7.16-18.52,4.03-18.52,4.03-7.27,9.97-26.76,6.58-26.76,6.58-6.36-.48-1.9,3.6-1.9,3.6-3.52-.41-7.05-.83-10.57-1.24"/>
  <path class="st9" d="M220.64,137.71c-.01,1.2.22,4.99,3.87.96,0,0,9-12.15,19.38-13.73"/>
  <path class="st9" d="M203.96,148.81c2.39-1.63,5.36-2.79,8.87-2.53,0,0,1.75-.47,7.7-8.74"/>
  <path class="st9" d="M203.96,148.81c-4.56,3.12-7,7.96-7,7.96-7.48,1.51-8.45,4.4-8.45,4.4l-4.52,8.67-12,6.16c-4.67,1.94-9.34,3.89-14.01,5.83l-1.04.35"/>
  <path class="st3" d="M189.37,167.57s25.32-12.2,35.08-23.05c9.77-10.85,18.31-4.35,18.31-4.35,0,0,8.02-2.1,5.85-7.9-2.17-5.8,12.51.56,12.51.56,0,0,25.8-5.13,22.26-10.22-.39-.55-.56-1.07-.56-1.57-.02-1.83,6.8-5.68,6.56-9.03-.05-.66-.41-1.64-2.09-2.76,1.17.31,2.62.9,3.88,2.11,2.77,2.64,3.5,7.15,2.05,11.58,0,0,18.53-11.82,12.79-17.09,0,0,8.68,12.45,2.07,11.62,0,0,29.64-5.02,23.92-23,0,0,8.64,11.92,1.25,19.51-7.39,7.59.05,2.2.05,2.2,9.76-1.57,16.1-5.68,16.12-9.6,0-.82-.27-2.19-2-3.89,2.2.92,3.78,2.02,4.79,2.83,1.43,1.15,2.32,1.87,2.82,3.16.77,1.99.08,3.93-.23,4.67-1.51,1.25-3.63,2.57-6.2,3.91-3.54,1.84-7.97,3.46-11.51,2.55,0,0,17.7-.35,19.23,7.28,0,0-16-4.2-16.79.67,0,0,10.47,5.72,5.47,15.04,0,0-2.11-9.44-11.86-11.43,0,0,0,0,0,0-1.72-.4-4.8,0-5.84,1.34-1.12,1.43-.42,4.81,2.45,7.44"/>
  <path class="st3" d="M198.56,174.54c27.99-7.45,41.34-9.02,48.14-8.58,1.88.12,8.18.71,12.55-3.17,2.93-2.6,3.6-5.78,3.6-5.78,0,0,7.19-3.77,9.22,1.95,2.03,5.73,8.83-8.73,8.83-8.73,0,0,22.13-13.35,22.71-7.23.1,1.06.57,1.5.61,1.58.5.99,2.41.91,6.35,1.21,2.56.2,3.34.36,4,.99.78.74,1,1.77,1.07,2.53.13-.17.32-.45.48-.81.64-1.44.26-2.87.05-3.67-.51-1.95-2.39-5.14-5.55-8.61,6.68,1.38,13.37,2.75,20.05,4.13"/>
  <path class="st3" d="M314.45,115.63s1.99-1.67,4.45-4.37c4.51-4.95,10.64-13.37,9.11-21.33,0,0,18.14-2.94,15.19,12.18"/>
  <path class="st3" d="M327.46,137.48c1.62-.48,5.76-1.46,9.62.61.67.36,1.25.76,1.75,1.19,1.19.62,2.68,1.64,3.64,3.36,1.72,3.09.47,6.19,1.41,6.64.69.33,2.38-.84,6.65-7,.44-.67,2.01-3.25,1.43-6.53-.82-4.66-7.28-6.44-6.91-7.27.3-.67,4.08,1.1,9.13.72,2.53-.19,4.57-.87,5.9-1.41-.56-1.4-1.55-3.42-3.29-5.47-1.79-2.11-3.68-3.43-4.99-4.21,0,0,17.2-7.75-2.64-18.65,0,0-.38-.24-.96-.41,0,0-1.09-.31-2.18-.02-1.32.36-2.44,1.65-2.84,3.32"/>
</svg>