<?xml version="1.0" encoding="UTF-8"?>
<svg id="Layer_1" xmlns="http://www.w3.org/2000/svg" version="1.1" viewBox="0 0 365 335">
  <!-- Generator: Adobe Illustrator 29.7.1, SVG Export Plug-In . SVG Version: 2.1.1 Build 8)  -->
  <defs>
    <style>
      .st0 {
        fill: #5fa8a1;
      }

      .st1, .st2, .st3, .st4, .st5, .st6, .st7, .st8, .st9, .st10, .st11, .st12, .st13, .st14, .st15, .st16, .st17, .st18, .st19, .st20, .st21, .st22, .st23, .st24 {
        fill: none;
      }

      .st1, .st3, .st5, .st7, .st8, .st10, .st11, .st12, .st13, .st16, .st19, .st24 {
        stroke-linecap: round;
        stroke-linejoin: round;
      }

      .st1, .st3, .st7, .st8, .st14, .st15, .st18, .st19, .st20, .st22, .st23, .st24 {
        stroke: #231f20;
      }

      .st1, .st5, .st6, .st22 {
        stroke-width: .75px;
      }

      .st2, .st4, .st5, .st6, .st9, .st10, .st11, .st12, .st13, .st16, .st17, .st21 {
        stroke: #000;
      }

      .st2, .st4, .st6, .st9, .st14, .st15, .st17, .st18, .st20, .st21, .st22, .st23 {
        stroke-miterlimit: 10;
      }

      .st2, .st14, .st16, .st19 {
        stroke-width: .5px;
      }

      .st25 {
        fill: #25544e;
      }

      .st26 {
        fill: #bf6421;
      }

      .st3, .st9, .st11, .st18 {
        stroke-width: 2px;
      }

      .st27 {
        fill: #fdbb28;
      }

      .st28 {
        fill: #fff;
      }

      .st29 {
        fill: #ddc4ac;
      }

      .st7, .st13, .st15, .st17 {
        stroke-width: 4px;
      }

      .st30 {
        fill: #21140c;
      }

      .st31 {
        fill: #44968e;
      }

      .st8, .st12, .st20, .st21 {
        stroke-width: 3px;
      }

      .st32 {
        fill: #0f2d29;
      }

      .st33 {
        fill: #eabb39;
      }

      .st34 {
        fill: #bc8a26;
      }

      .st35 {
        fill: #c4a894;
      }

      .st36 {
        fill: #3f2919;
      }

      .st37 {
        fill: #194340;
      }

      .st38 {
        fill: #edb38b;
      }

      .st39 {
        fill: #bf0000;
      }

      .st40 {
        fill: #cc6274;
      }

      .st41 {
        fill: #937a69;
      }

      .st42 {
        fill: #af8928;
      }

      .st43 {
        fill: #addcd8;
      }

      .st44 {
        fill: #ef9eb0;
      }

      .st45 {
        fill: #f4dbc6;
      }

      .st46 {
        fill: #fb7800;
      }
    </style>
  </defs>
  <path class="st36" d="M84.58,139.45c-2.21-4.28-4.42-8.55-6.63-12.83l-1.34-9.83-.03-4.39c-.31-3.27-.63-6.55-.94-9.82,3.49.13,6.99.26,10.48.38,3.56,1.12,7.13,2.24,10.69,3.36,2.5.32,5,.63,7.5.95-1.7-.85-3.41-1.69-5.11-2.54-1.99-5.61-2.44-8.75-1.34-9.45.6-.38,1.65-.03,3.16,1.04.4-1.9.8-3.8,1.2-5.7-6.43-1.83-12.85-3.66-19.28-5.5-3.07-2.1-9.21-5.62-17.38-5.74-2.47-.04-4.68.24-6.57.64-5.19,1.02-10.38,2.04-15.57,3.06-5.51,3.64-11.02,7.28-16.53,10.91-3,7.17-6,14.35-9,21.52l4.38,19.15,5.07,10.71c-1.67,2.86-3.34,5.73-5.01,8.59-1.84,6.54-3.68,13.08-5.53,19.62l-2.16,14.43.62,15.87,4.81,17.15,6.29,14.6,3.8,6.95c-2.23,2.5-4.46,5-6.69,7.5-2.2,2.56-4.4,5.12-6.61,7.68-.32,4.58-.64,9.16-.96,13.73,3.84,5.06,7.67,10.11,11.51,15.17,5.61,1.2,11.22,2.41,16.84,3.61,9.03.46,18.06.92,27.1,1.38,10.63-.3,18.97-2.15,24.89-3.94,0,0,3.99-1.2,22.85-8.79l1.83-.62-3.65-9.85.64-21.89,2.02-14.13-.15-2.03-5.19-3.82c-.42-4.05-.83-8.1-1.25-12.15,1.34-2.5,2.69-4.99,4.03-7.49.57-1.05,1.15-2.11,1.72-3.16l-.94-4.3c2.18-.26,4.36-.51,6.55-.77.74-4.87,1.48-9.75,2.22-14.62-3.18-1.26-6.37-2.52-9.55-3.78-2.93-1.94-5.85-3.87-8.78-5.81-2.43-4.03-4.85-8.06-7.28-12.09-1.01-1.66-2.02-3.31-3.03-4.97.21-3.24.41-6.48.62-9.72-3.05-1.33-6.11-2.66-9.16-3.99-1.72-1.43-3.44-2.87-5.16-4.3Z"/>
  <path class="st8" d="M193.96,43.89s7.66.09,9.51-5.99c.16-.52.46-1.09.81-1.09,1.18,0,3.57,6.85,1.53,12.84-1.66,4.89-5.66,7.45-7.24,8.34"/>
  <path class="st8" d="M258.54,66.92c-1.82-.1-4.14-5.1-4.1-10.26.05-6.33,4.56-12.01,5.67-11.63.33.12.43.76.41,1.3-.25,6.35,7.02,8.78,7.02,8.78,0,0,1.35,12.35-8.99,11.81Z"/>
  <path class="st8" d="M283.41,92.52c9.13-.7,14.64-17.97,14.64-17.97-1.22-.73-2.43-1.45-3.65-2.18"/>
  <path class="st8" d="M284.18,93.31s9.03-5.96,11.99,3.4c0,0-4.66,8.22-11.07,5.21"/>
  <path class="st8" d="M263.4,52.65c2.04-4.59,4.02-11.02,5.22-24.84.36-4.16,2.1-5.77,2.79-6.31,3.96-3.08,12.51-1.09,19.9,6.61,0,0,15.38,20.26,1.16,48.51,0,0-9.52,15.02-27.22,12.44-1.56-.23-3.66-.85-5.86-2.38-7.85-5.48-6.94-17.33-6.81-18.72"/>
  <path class="st8" d="M250.55,66.75l2.02,1.19c1.38-1.17,2.57-2.33,3.59-3.46"/>
  <path class="st20" d="M296.83,40.25s-16.81-8.89-29.66-.76"/>
  <path class="st20" d="M260.44,58.59"/>
  <path class="st20" d="M296.95,64.75s-13.34-14.5-29.4-9.61"/>
  <path class="st8" d="M199.34,58.96c-3.14-5.31-4.2-9.84-4.59-12.94-.77-6.04-2.04-11.85,2.62-30.25,1.02-4.05-.09-6.14-.56-6.88-2.73-4.21-11.45-5.14-20.97-.29,0,0-21.18,14.09-17.03,45.43,0,0,4.06,17.31,21.63,20.69,1.55.3,3.73.4,6.32-.32,9.22-2.6,12.24-14.09,12.58-15.45Z"/>
  <path class="st20" d="M166.64,18.26s18.8-2.88,28.27,9.03"/>
  <path class="st20" d="M158.48,41.37s22.76-12.21,36.51,6.17"/>
  <ellipse class="st15" cx="170.45" cy="130.3" rx="17.35" ry="20.12" transform="translate(13.58 276.67) rotate(-80.41)"/>
  <path class="st23" d="M153.24,120.63c2.47-1.26,9.4-4.4,18.45-3.14,10.15,1.41,16.37,7.43,18.2,9.33"/>
  <path class="st23" d="M185.5,142.44c-.31-.95-3.16-9.31-11.84-12.25-6.55-2.22-12.19.08-13.57.69"/>
  <path class="st23" d="M154.82,125.11c2.59-1.22,8.5-3.55,16.03-2.61,11.42,1.43,18.02,9.35,19.45,11.15"/>
  <path class="st23" d="M171.94,153.82c-.79,3.5-8.65,4.92-14.31,4.32-8.62-.92-17.53-7.1-16.72-11,.8-3.84,11.1-6,19.16-3.57,5.94,1.79,12.68,6.68,11.87,10.25Z"/>
  <path class="st22" d="M186.06,132.48c-.25,1.47-1.64,2.46-3.11,2.21s-2.46-1.64-2.21-3.11c.25-1.47,1.64-2.46,3.11-2.21s2.46,1.64,2.21,3.11Z"/>
  <path class="st14" d="M159.36,126.02c-.14.82.41,1.6,1.24,1.74s1.6-.41,1.74-1.24c.14-.82-.41-1.6-1.24-1.74s-1.6.41-1.74,1.24Z"/>
  <path class="st23" d="M151.76,123.2c.8.41,1.88,1.02,3.06,1.91.75.57,2.52,1.97,4.24,4.27.63.84,1.41,2.01,2.15,3.5.69.03,1.64.09,2.74.27,0,0,3.09.49,5.96,1.8,3.17,1.44,7.52,4.99,10.99,10.66,0,0-14.04,8.24-27.58-6.99,0,0-5.38-8.06-1.56-15.41Z"/>
  <circle class="st14" cx="179.69" cy="136.75" r="1.14"/>
  <ellipse class="st15" cx="246.78" cy="143.39" rx="17.35" ry="20.12" transform="translate(64.29 362.84) rotate(-80.41)"/>
  <path class="st23" d="M266.21,139.91c-1.92-2-7.43-7.24-16.39-9.03-10.05-2-17.9,1.64-20.25,2.84"/>
  <path class="st23" d="M228.58,149.91c.6-.8,6.04-7.75,15.2-7.68,6.92.06,11.49,4.08,12.59,5.11"/>
  <path class="st23" d="M263.25,143.62c-2.04-2-6.86-6.15-14.28-7.73-11.26-2.4-20.09,2.91-22.04,4.14"/>
  <path class="st23" d="M237.65,165.11c-.4,3.56,6.55,7.49,12.1,8.78,8.45,1.97,18.89-.94,19.41-4.9.51-3.89-8.51-9.31-16.92-9.66-6.2-.26-14.17,2.15-14.58,5.78Z"/>
  <path class="st22" d="M231.32,140.32c-.25,1.47.74,2.86,2.21,3.11s2.86-.74,3.11-2.21-.74-2.86-2.21-3.11c-1.47-.25-2.86.74-3.11,2.21Z"/>
  <path class="st14" d="M258.67,142.99c-.14.82-.92,1.37-1.74,1.24-.82-.14-1.37-.92-1.24-1.74s.92-1.37,1.74-1.24,1.37.92,1.24,1.74Z"/>
  <path class="st23" d="M266.77,142.82c-.89.12-2.11.35-3.52.8-.9.29-3.02,1.03-5.41,2.64-.87.59-1.99,1.43-3.18,2.6-.66-.2-1.58-.45-2.68-.65,0,0-3.07-.55-6.22-.26-3.47.32-8.75,2.24-13.88,6.46,0,0,10.56,12.39,28.35,2.46,0,0,7.73-5.84,6.53-14.04Z"/>
  <circle class="st14" cx="235.94" cy="146.44" r="1.14"/>
  <path class="st3" d="M220.88,313.96c.19-.3,1.22-2.03.65-4.18-.43-1.62-1.53-2.53-1.91-2.82"/>
  <path class="st3" d="M207.31,308.33c.29.58.77,1.74.76,3.28-.01,1.7-.63,2.95-.95,3.52"/>
  <path class="st8" d="M192.83,290.07c-2.63,8.64-.62,17.52,5.21,22.43,5.02,4.23,11.2,4.12,13.12,4.08,9.04-.19,14.69-6.05,15.74-7.18.6-.71,4.19-5.07,3.39-11.18-.6-4.54-3.28-7.4-4.2-8.29.68-.86,1.39-1.83,2.09-2.91.96-1.49,1.72-2.92,2.33-4.21"/>
  <path class="st3" d="M137.01,313.53c-.19-.3-1.22-2.03-.65-4.18.43-1.62,1.53-2.53,1.91-2.82"/>
  <path class="st3" d="M150.59,307.9c-.29.58-.77,1.74-.76,3.28.01,1.7.63,2.95.95,3.52"/>
  <path class="st8" d="M164.13,287.06s7.37,16.21-4.27,25c-1.65,1.17-6.43,4.22-13.12,4.08-9.04-.19-14.69-6.05-15.74-7.18-.6-.71-4.19-5.07-3.39-11.18.6-4.54,3.28-7.4,4.2-8.29-2.45-1.82-10.03-7.91-13.23-19.06-.57-1.98-.88-3.89-.88-3.89-.33-2.15-.34-4-.28-5.4"/>
  <path class="st8" d="M216.26,277.2c-.28.48-.58.97-.93,1.46-2.72,3.9-6.18,5.82-7.95,6.65-4.5,1.96-12.68,4.84-23.26,4.75-10.81-.09-19.09-3.23-23.57-5.31-2.07-1.14-5.6-3.49-8.19-7.75-1.02-1.67-1.67-3.28-2.1-4.65,0,0,0,0,0,0-.16-.72-.36-1.58-.57-2.58"/>
  <path class="st3" d="M133.99,213.77c.75-.05,1.86-.04,3.13.29,1.14.29,2.03.74,2.64,1.11"/>
  <path class="st3" d="M133.46,220.64c.75-.05,1.86-.04,3.13.29,1.14.29,2.03.74,2.64,1.11"/>
  <path class="st3" d="M131.36,226.78c.75-.05,1.86-.04,3.13.29,1.14.29,2.03.74,2.64,1.11"/>
  <path class="st3" d="M265.82,214.7c-.75-.05-1.86-.04-3.13.29-1.14.29-2.03.74-2.64,1.11"/>
  <path class="st3" d="M266.36,221.57c-.75-.05-1.86-.04-3.13.29-1.14.29-2.03.74-2.64,1.11"/>
  <path class="st3" d="M268.46,227.71c-.75-.05-1.86-.04-3.13.29-1.14.29-2.03.74-2.64,1.11"/>
  <path class="st8" d="M138.37,66.1c-8.58-3.18-7.93-21.78-7.93-21.78,19.2-6.24,26.26,8.81,26.26,8.81,0,0-1.13,19.35-18.34,12.97Z"/>
  <path class="st8" d="M159.51,35.48c-.62-.61-1.88-1.68-3.79-2.29-2.32-.74-4.3-.38-5.16-.17-.66.1-1.76.37-2.49,1.25-1.17,1.41-.67,3.49-.39,4.68,1.32,5.5,7.28,11.46,9.02,13.15"/>
  <path class="st8" d="M134.71,74.56c-7.02.98-8.74-8.56-8.74-8.56,5.86-7.87,12.44.72,12.44.72,0,0,2.35,6.99-3.7,7.83Z"/>
  <path class="st7" d="M118.59,109.72c-12.87-2.17-25.74-4.35-38.6-6.52-.45-.08-.9-.15-1.34-.23-.9.06-1.91.3-2.48,1.05-2.61,3.39,5.05,15.29,14.47,22.07,2.95,2.13,7.81,5.76,15.11,6.69,3.72.47,6.87.11,9-.3"/>
  <path class="st8" d="M106.93,149.29c-3.41-.18-12.65-1.12-20.6-8.14-14.22-12.56-10.66-32.52-10.45-33.62"/>
  <path class="st3" d="M87.27,130.56s.76,6.47,5.63,4.2c.07.46.6,3.74,3.48,5.4,2.78,1.6,6.58,1.02,9.2-1.56"/>
  <path class="st3" d="M102.34,107.78c-6.07-3.71-4.29-13.92-4.29-13.92,3.33,6.54,11.71,9.36,11.71,9.36.05.04,1.27,1.05,1.04,2.62-.15,1.03-.87,1.9-1.86,2.25-2.2-.1-4.4-.2-6.59-.31Z"/>
  <path class="st3" d="M209.18,52.24c.15.41,1.27,3.35,4.5,4.53,3.44,1.25,6.34-.56,6.67-.77-1.19,3.89-2.38,7.78-3.57,11.67-.38-.09-6.38-1.68-8.2-7.41-1.23-3.85.2-7.16.6-8.01Z"/>
  <path class="st3" d="M251.48,59.67c-.28.34-2.3,2.75-5.74,2.79-3.66.05-5.81-2.61-6.05-2.92-.15,4.06-.31,8.13-.46,12.19.39.04,6.57.51,10.18-4.31,2.42-3.24,2.16-6.83,2.07-7.76Z"/>
  <path class="st7" d="M278.79,160.18c1.08-.15,3.2-.48,5.77-1.22,11.37-3.3,22.28-12,20.92-16.09-.3-.9-1.17-1.45-2-1.8-.45-.08-.9-.15-1.34-.23-7.5-1.27-15-2.53-22.49-3.8"/>
  <path class="st8" d="M278.49,175.91c1.92-.28,3.64-.75,5.18-1.32,14.87-5.55,19.83-23.87,20.91-28.32"/>
  <path class="st3" d="M286.26,164.28s-2.85,5.86-6.7,2.12"/>
  <path class="st3" d="M279.64,137.04c6.95-1.51,8.63-11.74,8.63-11.74,0,0-1.82,2.23-8.02,5.04"/>
  <path class="st8" d="M227.1,75.51c2.88.45,5.96.94,8.55-.68,3.39-2.12,3.72-6.46,3.94-9.32,0,0,.48-6.38-3.49-12.49-.5-.77-1.22-1.69-1.22-1.69-.79-1.02-1.27-1.5-1.48-1.7-.8-.76-1.31-1.05-1.84-1.19-.22-.06-.4-.08-.51-.09-.73-.1-1.43.04-2.83.69-2.12.98-3.09,1.63-4.02,2.41-4.98,4.19-6.34,10.39-6.34,10.39-.69,3.14-1.56,7.11.91,10.14,2.09,2.55,5.46,3.08,8.34,3.53Z"/>
  <path class="st24" d="M222.44,54.99c1.21.87,3.54,2.31,6.82,2.87,4.11.7,7.39-.38,8.81-.95"/>
  <path class="st24" d="M219.28,59.72c1.55,1.21,4.31,3.03,8.2,3.96,5.52,1.33,10.08.09,12.05-.57"/>
  <path class="st24" d="M218.1,64.68c1.4,1.16,4.67,3.56,9.55,4.4,4.94.84,8.85-.37,10.55-1.01"/>
  <path class="st8" d="M98.12,148.06"/>
  <path class="st8" d="M121.95,278.41c-11.95,5.47-31.86,12.64-57.15,12.86-14.04.12-26.06-1.92-35.36-4.29-11.18-8.2-13.32-14.86-13.57-19.78-.69-13.81,15.71-23.86,15.71-23.86-4.98-7.68-18.52-30.76-15.46-61.52,1.68-16.96,7.78-29.89,12.25-37.58-1.36-1.88-2.76-4.06-4.07-6.56-2.97-5.68-4.45-11.02-5.22-15.2-.41-4.15-.9-15.3,6.25-25.17,2.01-2.77,4.22-4.89,6.25-6.49,17.92-13.69,39.63-14.93,52.4-4.7,7.51,6.02,10.21,14.63,11.26,19.64"/>
  <path class="st8" d="M28.38,144.24s29.7,28.32,67.86,2.67"/>
  <path class="st8" d="M27.41,236.64s30.91,28.32,70.61,2.67"/>
  <path class="st8" d="M26.45,147.73s30.97,46.31,70.74,4.37"/>
  <path class="st8" d="M28.38,237.47s30.33,46.31,69.29,4.37"/>
  <line class="st8" x1="102.78" y1="89.71" x2="84.75" y2="86.7"/>
  <path class="st3" d="M65.31,187.76c-1.49.09-3.06.13-4.69.13s-3.17-.05-4.64-.13"/>
  <path class="st3" d="M52.77,187.5c-5.33-.57-8.97-1.71-8.97-3.02,0-1.89,7.53-3.42,16.82-3.42s16.82,1.53,16.82,3.42c0,1.11-2.59,2.09-6.61,2.72"/>
  <line class="st3" x1="77.45" y1="185.44" x2="77.45" y2="247.11"/>
  <line class="st3" x1="43.8" y1="185.17" x2="43.8" y2="246.85"/>
  <path class="st3" d="M54.75,212.63c2.41.7,5.05.92,7.78.2v36.45"/>
  <polyline class="st24" points="52.09 211.28 51.69 215.84 54.21 212.74"/>
  <polyline class="st24" points="53.19 187.25 53.77 191.75 55.41 187.99"/>
  <polyline class="st24" points="70.43 186.8 69.37 194.04 65.95 187.95"/>
  <path class="st3" d="M43.8,205.63s3.2,3.56,7.91,5.82"/>
  <path class="st1" d="M56.25,183.45c8.05-.48,12.14-.35,12.29.4.07.38-.84.91-2.74,1.59"/>
  <path class="st12" d="M131.47,55.41c-2.13.42-3.66.9-4.78,1.37-6.58,2.79-11.11,7.19-11.11,7.19-3.79,3.6-6.97,10.05-10,17.69-2.31,5.84-3.57,11.18-4.27,15.53"/>
  <path class="st12" d="M207.51,59.3c-2.95-.38-5.89-.75-8.84-1.13"/>
  <path class="st12" d="M226.59,62.89"/>
  <path class="st12" d="M268.15,196.16c8.48-7.04,14.2-20.31,8.38-45.22,3.77-20.23,6.31-35.56,7.11-42.09.17-1.4.41-3.67.28-6.6-.18-4.3-1.05-7.75-1.72-9.93-.56-1.09-1.42-2.61-2.68-4.28"/>
  <path class="st12" d="M98.28,157.46c1.28,3.41,3.37,7.79,6.9,12.19,7.65,9.55,17.34,13.38,21.91,14.84"/>
  <polygon class="st19" points="206.14 167.97 207.51 165.37 205.11 165.65 206.14 167.97"/>
  <polygon class="st19" points="213.62 170.37 214.03 167.46 215.81 169.09 213.62 170.37"/>
  <ellipse class="st18" cx="208.09" cy="174.52" rx="10.14" ry="8.13" transform="translate(-21.74 319.22) rotate(-72.18)"/>
  <path class="st23" d="M199.65,178.2s9.42-7.95,13.15,4.23"/>
  <line class="st8" x1="277.18" y1="205.79" x2="278.52" y2="195.46"/>
  <line class="st8" x1="267.45" y1="281.15" x2="273.49" y2="234.4"/>
  <polyline class="st8" points="240.93 284.16 241.86 284.5 267.37 281.81 267.45 281.15"/>
  <polyline class="st8" points="117.41 259.43 117.37 259.78 137.13 270.98 162.65 268.29 188.64 277.63 217.09 275.32 240.93 284.16"/>
  <polyline class="st8" points="128.86 172.88 148.88 184.1 174.72 181.46 201.04 190.83 229.83 188.57 254.92 197.79 278.59 194.87"/>
  <path class="st8" d="M120.96,231.92c-1.18,9.17-2.37,18.33-3.55,27.5"/>
  <line class="st8" x1="124.79" y1="202.29" x2="124.69" y2="203.05"/>
  <line class="st8" x1="128.58" y1="172.92" x2="124.79" y2="202.29"/>
  <line class="st8" x1="149.06" y1="184.12" x2="137.83" y2="271.07"/>
  <line class="st8" x1="173.86" y1="182.21" x2="162.75" y2="268.29"/>
  <line class="st8" x1="173.97" y1="181.35" x2="162.83" y2="267.64"/>
  <line class="st8" x1="200.35" y1="191.08" x2="189.21" y2="277.37"/>
  <line class="st8" x1="229.77" y1="188.7" x2="218.63" y2="274.99"/>
  <line class="st8" x1="254.09" y1="198.02" x2="242.95" y2="284.31"/>
  <path class="st8" d="M273.47,234.4c1.59-.18,3.17-.36,4.76-.54.57-.21,1.35-.54,2.2-1.07,5.16-3.25,7.8-10.87,6.1-17.4-1.16-4.49-4.08-7.33-5.66-8.64"/>
  <path class="st8" d="M277.79,201.14c1.77-.52,3.59.39,4.16,1.92.47,1.25.05,2.75-1.07,3.69-1.77-.27-3.54-.53-5.31-.8-1.65-.07-6.94-.15-11.07,2.62-4.39,2.93-4.57,7.14-4.71,10.15-.11,2.47-.39,8.88,5.74,13.01,2.53,1.7,5.28,2.43,7.03,2.77.3-.03.6-.07.9-.1"/>
  <path class="st8" d="M126.92,232.53c-1.59-.18-3.17-.36-4.76-.54-.57-.21-1.35-.54-2.2-1.07-5.16-3.25-7.8-10.87-6.1-17.4,1.16-4.49,4.08-7.33,5.66-8.64"/>
  <path class="st8" d="M124.69,199.13c-2.91-1.09-5.66.22-6.26,2.07-.57,1.75.95,3.55,1.07,3.69,1.77-.27,3.54-.53,5.31-.8,1.65-.07,6.94-.15,11.07,2.62,4.39,2.93,4.57,7.14,4.71,10.15.11,2.47.39,8.88-5.74,13.01-2.53,1.7-5.28,2.43-7.03,2.77-.3-.03-.6-.07-.9-.1"/>
  <polygon class="st3" points="243 326.67 219.42 328.94 220.73 322.57 242.08 323.24 243 326.67"/>
  <polygon class="st3" points="276.36 326.67 252.78 328.94 254.09 322.57 275.44 323.24 276.36 326.67"/>
  <polygon class="st3" points="309.72 326.67 286.14 328.94 287.45 322.57 308.8 323.24 309.72 326.67"/>
  <polygon class="st3" points="343.08 326.67 319.49 328.94 320.8 322.57 342.15 323.24 343.08 326.67"/>
  <path class="st46" d="M157.79,52.24c.14-4.41.28-8.81.42-13.22.2-1,.4-2.01.6-3.01-1.92-1.31-3.85-2.62-5.77-3.93l-3.71.52-1.14,2.01v5.96c1.14,1.67,2.28,3.33,3.42,5,2.06,2.22,4.12,4.44,6.18,6.66Z"/>
  <polygon class="st46" points="194.99 43.75 199.66 42.7 204.6 39.07 206.7 37.39 206.04 41.74 206.54 46.08 203.19 54.98 200.66 56.16 198.82 58.36 195.59 50.81 194.99 43.75"/>
  <polygon class="st32" points="153.48 119.92 154.44 120.21 158.94 118.26 164.46 116.86 167.37 116.45 170.82 116.45 177.91 117.56 184.04 119.69 186.16 120.21 186.06 117.28 177.48 113.06 165.07 113.06 156.11 115.37 153.48 119.92"/>
  <polygon class="st37" points="152.53 120.21 151.37 122.93 150.12 126.21 151.56 126.72 153.15 127.41 153.81 126.43 155.26 125.58 157.4 124.5 160.53 123.42 162.71 122.64 165.93 122.03 169.14 121.76 170.67 121.77 173.59 122 178.06 122.93 182.55 124.61 185.88 126.39 188.16 127.91 191.08 129 189.51 124.02 186.53 119.97 184.42 120.06 180.23 118.37 174.27 116.64 166.32 116.45 161.33 117.52 152.53 120.21"/>
  <polygon class="st43" points="158.95 132.04 160.16 133.76 165.12 134.05 171.88 135.5 176.37 137.64 178.69 139.81 182.16 142.92 185.43 141.86 186.53 138.96 186.16 137.83 183.99 134.95 181.23 132.84 177.34 130.55 173.55 129.43 169.24 129 165.45 129.48 163.05 130.36 158.95 132.04"/>
  <polygon class="st0" points="187.82 138.36 190.31 130.7 189.03 128.55 186.42 126.72 182.74 124.69 179.04 123.29 174.42 122.17 167.75 121.76 165.31 122.03 161.14 123.2 155.3 125.33 153 126.86 152.8 127.41 154.34 128.25 157.87 131.15 159.37 132.24 162.34 130.55 168.18 129 172.02 129.21 175.08 129.9 177.86 130.7 181.23 132.84 184.24 135.61 186.75 138.96 187.82 138.36"/>
  <polygon class="st28" points="182.53 126.82 184.93 127.29 186.16 128.96 185.79 131.05 184.34 132.35 181.33 131.62 180.42 130.05 180.42 128.17 182.53 126.82"/>
  <polygon class="st28" points="150.12 126.61 151.11 126.61 154.78 128.62 158.95 132.04 159.89 133.4 160.48 134.18 161.1 134.4 165.95 134.12 169.91 134.95 176.87 138.29 181.07 141.8 181.74 142.96 179.68 146.69 165.41 148.07 154.39 143.87 150.73 138.03 150.12 126.61"/>
  <polygon class="st28" points="158.67 125.99 159.96 126.26 160.62 127.22 160.42 128.41 159.64 129.15 158.02 128.74 157.53 127.84 157.53 126.76 158.67 125.99"/>
  <polygon class="st28" points="179.97 133.76 180.8 133.96 181.23 134.68 181.11 135.58 180.6 136.14 179.55 135.82 179.23 135.15 179.23 134.34 179.97 133.76"/>
  <path class="st31" d="M130.43,55.41c-2.82,1.06-5.65,2.12-8.47,3.18l-8,5.9c-2.55,5.33-5.11,10.66-7.66,15.99-1.17,3.74-2.34,7.49-3.52,11.23-.73,1.67-1.45,3.34-2.18,5.01.58.76,1.17,1.52,1.75,2.29.76.6,1.52,1.2,2.28,1.79,2,1.22,4.01,2.43,6.01,3.65-4.04,15.15-8.08,30.3-12.13,45.45-.28,1.87-.55,5.3.6,9.34,1.16,4.02,3.2,6.78,4.43,8.22,2.42,2.82,4.24,4.92,6.33,6.85,2.12,1.95,5.14,4.48,9.13,7.04,23.42,5.1,46.85,10.2,70.27,15.3l44.62,8.69,20.39-.56,15.15-8.49,8.53-15.18.46-17.51-1.51-12.41c2.42-14.71,4.84-29.42,7.26-44.13-.26-3.21-.51-6.42-.77-9.63-.78-2.46-1.57-4.92-2.35-7.38-.44-.81-.91-1.62-1.41-2.43-7.31-11.62-19.14-17.56-28.79-20.7-17.39-2.78-34.79-5.56-52.18-8.34-12.09-1.85-25.67-3.23-40.51-3.63-9.85-.26-19.11-.06-27.73.45Z"/>
  <path class="st27" d="M161.38,60.82c1.06,1.33,2.12,2.66,3.18,4,1.37,1.38,2.96,2.84,4.8,4.3,1.62,1.3,3.19,2.41,4.66,3.36,4.36.72,8.71,1.44,13.07,2.15l7.44-5.47c1.61-3.15,3.21-6.3,4.82-9.45-.5-.99-1-1.98-1.51-2.97-1.39-4.09-2.77-8.17-4.16-12.26.19-5.38.38-10.77.57-16.15,1.23-4.68,2.47-9.36,3.7-14.04-.99-2.4-1.98-4.8-2.97-7.2-3.08-.54-6.16-1.07-9.23-1.61-3.3,1.33-6.6,2.66-9.9,3.98-2.43,2.44-4.85,4.88-7.28,7.32-.95,1.42-1.92,2.94-2.87,4.55-.85,1.42-1.63,2.81-2.35,4.16-.77,1.3-1.53,2.6-2.3,3.9l-3.26,17.78,2.74,11.32c.28.78.56,1.55.84,2.33Z"/>
  <path class="st27" d="M286.67,82.58c-1.46.87-2.92,1.74-4.39,2.62-1.77.8-3.77,1.61-6.01,2.33-1.97.64-3.84,1.13-5.55,1.5-1.99,0-4.59-.19-7.52-.98-1.93-.52-3.58-1.19-4.93-1.85-1.45-2.41-2.9-4.82-4.36-7.23-.45-3.43-.89-6.86-1.34-10.29.47-.93.94-1.85,1.41-2.78,2.74-3.33,5.48-6.67,8.22-10,1.72-5.1,3.44-10.21,5.16-15.31.5-4.82.99-9.63,1.49-14.45,1.08-1.7,2.17-3.41,3.25-5.11,1.3-.31,3.3-.62,5.72-.37,2.44.25,4.34.97,5.56,1.54,2.89,2.35,5.78,4.7,8.67,7.04,1.36,3.28,2.73,6.57,4.09,9.85.93,2.06,1.35,3.81,1.55,5.02.24,1.43.27,2.63.34,5.04.05,1.73.03,3.16.02,4.14-.27,3.75-.82,7.91-1.82,12.37-.43,1.9-.9,3.7-1.4,5.41-1.22,2.31-2.45,4.63-3.67,6.94-1.22,1.05-2.47,2.25-3.69,3.63-.28.31-.55.63-.81.94Z"/>
  <path class="st46" d="M229.33,48.39l-6.71,3.82-4.58,9.2-1.71,7.89s1.77,2.61,2.26,2.8,6.43,3.21,6.43,3.21l6.19.26,6.59-2.84,2.18-8.59-4.42-12.33-3.33-2.97-2.9-.46Z"/>
  <polygon class="st27" points="216.66 68.07 213.56 66.62 210.38 63.74 208.28 59.5 207.75 54.52 208.03 54.26 209.09 53.68 211.01 55.94 213.29 56.49 215.26 57.36 217.34 56.98 218.1 57.72 217.25 64.78 216.66 68.07"/>
  <path class="st27" d="M238.68,71.49l3.42-.19,4.02-1.49,3.53-3.15,2.35-4.43-.17-.34-.76-.94-2.62,1.38-2.33-.33-2.15.07-1.79-1.13c-.52.23-1.04.46-1.56.69-.42,2.2-.84,4.39-1.26,6.59l-.68,3.27Z"/>
  <path class="st46" d="M146.04,44.39l-9.43-1.09-4.88,1.29-1.18.83-.29,2.69.86,5.84,2.27,7.46,3.37,2.94,2.82,1.11c1.06.56,2.12,1.13,3.18,1.69,2.78-.6,5.55-1.2,8.33-1.81,1.29-1.94,2.59-3.87,3.88-5.81.33-1.98.67-3.96,1-5.94l-1.12-3.13s-8.41-5.95-8.83-6.07Z"/>
  <path class="st46" d="M131.88,63.41l-2.58.42-2.44,1.95c.21,1.12.43,2.25.64,3.37,1.01,1.33,2.02,2.66,3.04,3.98,1.19.25,2.38.5,3.57.75.5-.06,1.33-.23,2.2-.77,1.31-.81,1.9-1.96,2.11-2.44.06-.47.2-2.14-.87-3.73-.73-1.1-1.69-1.64-2.16-1.87-1.17-.56-2.34-1.11-3.5-1.67Z"/>
  <polygon class="st46" points="293.62 92.76 294.9 95.05 295 98.61 291.94 100.5 287.5 102.4 284.02 101.28 283.96 93.54 290.29 91.62 293.62 92.76"/>
  <path class="st46" d="M266.89,55.97c-1.37-.92-2.75-1.85-4.12-2.77l-2.54-5.37-1.01-2.38c-.61,1.1-1.23,2.2-1.84,3.31-.75,1.21-1.5,2.41-2.26,3.62-.06,2.73-.11,5.46-.17,8.19.13.91.26,1.82.39,2.73l.53,2.66c1.06.19,2.82.38,4.89-.03,2.29-.45,3.88-1.41,4.73-2.02.59-.42,2.22-2.01,2.34-4.47.08-1.67-.6-2.93-.94-3.47Z"/>
  <polygon class="st46" points="294.35 73.15 297.67 75.68 294.85 80.63 290.62 87.07 285.09 91.75 281.04 90.4 279.26 86.94 291.72 78.98 294.35 73.15"/>
  <path class="st46" d="M99.33,95.89c1.58,1.5,3.17,3,4.75,4.5,2.05,1.27,4.09,2.54,6.14,3.81l.61,4.19c-1.64-.29-3.28-.57-4.91-.86-1.53-.24-3.07-.48-4.6-.73-.88-1.28-1.75-2.55-2.63-3.83l-.73-6.44,1.39-.64Z"/>
  <path class="st46" d="M280.93,129.9c.08.02,4.31-1.57,4.31-1.57l1.95-1.12-.58,2.07-.76,2.7-2.99,3.23-2.48.84-1.04-.48,1.6-5.66Z"/>
  <path class="st38" d="M169.52,148.83c.26.29.53.57.79.86.47.61.95,1.22,1.42,1.83-.05.94-.1,1.88-.15,2.83-.47.47-.94.94-1.4,1.4-.46.35-.93.7-1.39,1.05-.49.13-.98.27-1.46.4-1.28.28-2.55.55-3.83.83-1.67.03-3.33.07-5,.1-1.4-.15-2.79-.3-4.19-.45l-3.64-1.25c-1.46-.73-2.92-1.46-4.38-2.19-1.23-1-2.45-1.99-3.68-2.99-.63-.97-1.25-1.93-1.88-2.9.19-.63.38-1.25.56-1.88l1.33-1.53,3.2-1.49,2.29-.52,3.14-.31,4.08-.09c2.18.31,5.23.99,8.54,2.62,2.36,1.17,4.23,2.5,5.61,3.66Z"/>
  <path class="st38" d="M266.14,164.1c.29.25.58.49.87.74.53.53,1.06,1.07,1.59,1.6.19.9.38,1.8.57,2.7-.28.3-.56.64-.85,1.02-.17.23-.33.45-.48.67-.51.33-1.01.67-1.52,1-.36.24-.76.47-1.19.69-1.45.73-2.82,1.08-3.93,1.24-1.55.23-3.11.47-4.66.7-1.41-.08-2.82-.16-4.24-.23l-3.69-.8c-1.5-.54-3.01-1.08-4.51-1.63-1.31-.82-2.61-1.65-3.92-2.47-.72-.86-1.44-1.72-2.16-2.58-.06-.66-.12-1.32-.19-1.98.45-.64.89-1.28,1.34-1.91,1.02-.59,2.04-1.17,3.06-1.76.79-.12,1.59-.23,2.38-.35l3.03-.63,3.97-.52c2.16.06,5.21.39,8.62,1.6,2.44.87,4.4,1.95,5.88,2.91Z"/>
  <path class="st27" d="M76.99,108.7c-.45,3.34-.9,6.68-1.35,10.01,1.39,4.38,2.77,8.77,4.16,13.15,2.06,2.83,4.13,5.66,6.19,8.49,3.88,2.24,7.75,4.48,11.63,6.73,3.24.94,6.48,1.87,9.72,2.81.61-.29,1.5-.77,2.43-1.56,1.54-1.3,2.31-2.68,2.82-3.61,2.18-3.99,2.88-9.37,3.03-10.58-1.98.09-3.95.17-5.93.26l-11.59-3.34c-2.88-2.03-5.77-4.06-8.65-6.1-2.63-2.99-5.26-5.99-7.89-8.98-1.52-2.43-3.04-4.86-4.55-7.29Z"/>
  <polygon class="st31" points="119.21 204.49 118.04 201.44 123.01 198.37 124.69 198.73 124.79 202.29 125.7 204.06 132.72 204.88 138.27 208.86 140.12 214.91 140.12 221.32 139.23 224.94 135.23 229.6 129.47 231.92 123.59 232.53 117.41 229.08 115.23 224.5 113.34 217.2 114.46 212.61 119.21 204.49"/>
  <path class="st31" d="M278.52,201l3.03.66,1.24,3.21-1.6,1.56,2.75,4.28,1.33,3.97,2.11,3.55.19,4.31s-1.68,3.54-1.87,3.88-6.56,7.71-6.56,7.71h-7.76l-5.83-1.63-6.04-6.75v-7.56l1.53-6.37,5.6-4.84,7.95-.72,2.57.14,1.33-5.4Z"/>
  <polygon class="st31" points="117.92 260.09 117.37 266.19 120.63 275.88 126.92 285.12 131.95 290.07 128.54 294.32 128.12 301.04 129.33 306.53 136.67 312.86 140.69 315.13 152.94 315.35 160.29 311.3 163.47 308.33 167.19 299.7 166.43 294.25 164.4 287.72 157.51 281.61 151.2 274.82 150.77 269.77 137.23 270.21 117.92 260.09"/>
  <polygon class="st31" points="231.94 280.82 226.43 289.5 229.77 295.88 230.51 299.7 229.18 306.53 224.89 311.3 220.16 314.7 211.16 316.58 202.16 315.35 194.78 309.37 192.1 301.89 192.1 294.69 192.83 290.07 199.1 287.72 210.21 284.16 214.37 279.92 217.63 275.52 231.94 280.82"/>
  <polygon class="st31" points="118.31 109.67 75.64 102.59 77.09 110.66 84.75 122.01 93.32 127.97 105.59 132.03 115.29 133 118.31 109.67"/>
  <polygon class="st31" points="280.26 137.04 305.59 142.1 303.45 147.83 296.17 153.72 288.27 157.46 279.4 159.31 277.18 156.37 276.05 146.44 280.26 137.04"/>
  <polygon class="st27" points="149.97 271.07 153.78 279.37 160.04 285.25 171.98 288.65 189.21 290.07 205.23 286.78 214.55 281.15 216.26 277.2 215.19 275.52 189.21 277.58 165.05 269.15 162.08 268.29 149.69 269.65 149.97 271.07"/>
  <polygon class="st40" points="199.99 177.44 200.89 170.93 205.11 165.63 210.33 164.99 213.62 166.67 216.25 171.21 215.81 175.65 214.72 179.5 212.5 181.71 211.16 178.4 208.67 176.16 206.31 175.65 203.73 176.01 199.99 177.44"/>
  <polygon class="st44" points="199.99 177.44 200.98 181.08 203.14 183.23 208.5 184.71 211.95 182.94 212.81 181.41 210.29 177.61 207.99 176.02 204.28 175.93 201.13 177.1 199.99 177.44"/>
  <polygon class="st27" points="303.65 149.65 300.65 157.38 292.19 170.1 281.81 175.2 278.12 175.2 278.49 160.18 303.65 149.65"/>
  <polygon class="st32" points="156.08 118.06 156.94 118.49 161.5 117.41 166.93 117.01 169.74 117.1 172.99 117.65 179.52 119.8 184.98 122.73 186.9 123.55 187.26 120.85 179.81 115.6 168.09 113.62 159.27 114.31 156.08 118.06"/>
  <path class="st37" d="M155.71,118.54l-1.46,2.34-1.63,2.85,1.3.67,1.4.86.76-.81,1.49-.58,2.17-.69,3.12-.56,2.17-.41,3.13-.12,3.08.2,1.45.22,2.73.62,4.1,1.48c1.29.74,2.58,1.48,3.87,2.23.92.71,1.84,1.43,2.76,2.14.78.78,1.57,1.57,2.35,2.35.84.23,1.69.46,2.53.69l-.81-4.8-2.27-4.14-2.01-.21-3.74-2.14-5.42-2.43-7.51-1.28-4.87.29-8.71,1.25Z"/>
  <path class="st43" d="M160.32,130.62c.28.8.56,1.6.84,2.39,1.22.06,2.44.11,3.66.17,2.08.71,4.15,1.41,6.23,2.12l3.91,2.68,1.85,2.36,2.8,3.41,3.25-.46,1.48-2.48-.17-1.1-1.6-2.99-2.28-2.37-3.32-2.73-3.41-1.63c-1.34-.25-2.69-.5-4.03-.75-1.2.03-2.4.05-3.6.08-.87.08-1.75.17-2.62.25-1,.34-1.99.69-2.99,1.03Z"/>
  <path class="st0" d="M186.14,140.62l3.41-6.7c-.35-.69-.69-1.39-1.04-2.08-.78-.7-1.57-1.4-2.35-2.11-.99-.8-1.97-1.61-2.96-2.41l-3.31-1.81-4.22-1.69-6.26-1.32-2.35-.1-4.12.49-5.82,1.13-2.39,1.09-.27.48,1.35.99,2.94,3.16,1.27,1.22,3.05-1.14,5.75-.6,3.6.74,2.81,1.07,2.52,1.12,2.9,2.45,2.47,2.98,1.91,3.44,1.1-.41Z"/>
  <path class="st28" d="M182.99,129.47c.23-.03.74-.07,1.31.17.45.19.73.47.88.64.3.58.6,1.15.91,1.73l-.67,1.86-1.57.96-2.74-1.15-.61-1.58c.25-.56.49-1.11.74-1.67.58-.32,1.17-.64,1.75-.96Z"/>
  <polygon class="st28" points="151.87 123.67 152.81 123.82 155.96 126.26 159.37 130.06 160.04 131.46 160.48 132.27 161.03 132.57 165.65 133.08 169.27 134.48 175.32 138.65 178.75 142.55 179.2 143.71 176.67 146.81 162.98 145.8 153.23 140.18 150.68 134.24 151.87 123.67"/>
  <polygon class="st28" points="160.7 124.74 161.87 125.2 162.35 126.18 161.98 127.24 161.13 127.8 159.66 127.16 159.34 126.26 159.5 125.27 160.7 124.74"/>
  <polygon class="st32" points="264.53 137.1 263.57 137.2 259.68 134.59 254.74 132.31 252.08 131.41 248.84 130.78 241.97 130.5 235.83 131.33 233.74 131.43 234.35 128.77 243.17 126.47 254.84 128.73 262.85 132.47 264.53 137.1"/>
  <path class="st37" d="M264.71,137.8l.55,2.7.53,3.24-1.45.17-1.62.31-.43-1.03-1.19-1.07-1.79-1.41-2.72-1.62-1.89-1.14-2.89-1.21-2.96-.89-1.44-.3-2.78-.38-4.36-.06-4.41.73c-1.11.35-2.22.69-3.33,1.04-1.01.46-2.02.92-3.03,1.38-.87-.08-1.74-.16-2.61-.24l2.45-4.21,3.58-3.08,1.95.51,4.25-.7,5.93-.37,7.48,1.44,4.45,1.98,7.72,4.22Z"/>
  <path class="st43" d="M256.16,147.43c-.54.65-1.08,1.3-1.62,1.95-1.16-.38-2.33-.75-3.49-1.13-2.19-.07-4.39-.13-6.58-.2l-4.6,1.14-2.56,1.56-3.82,2.21-2.88-1.57-.52-2.84.55-.97,2.55-2.24,2.96-1.42,4.07-1.39,3.76-.33c1.35.24,2.69.48,4.04.71,1.11.45,2.23.89,3.34,1.34.79.39,1.58.77,2.37,1.16.81.67,1.63,1.35,2.44,2.02Z"/>
  <path class="st0" d="M228.46,147.66l-.85-7.47c.57-.53,1.14-1.05,1.71-1.58.98-.38,1.96-.76,2.94-1.15,1.2-.41,2.41-.81,3.61-1.22l3.73-.53,4.55-.1,6.33.96,2.24.73,3.68,1.9,5.05,3.1,1.86,1.85.09.54-1.61.45-3.86,1.93-1.62.7-2.45-2.13-5.17-2.58-3.63-.57-3.01.02-2.76.16-3.58,1.28-3.36,1.92-3,2.55-.89-.77Z"/>
  <path class="st28" d="M235.18,138.56c-.2-.11-.67-.33-1.29-.3-.49.02-.85.19-1.05.29-.49.43-.97.87-1.46,1.3l-.02,1.97,1.13,1.45,2.97-.11,1.13-1.27c-.04-.61-.07-1.22-.11-1.82-.44-.5-.87-1.01-1.31-1.51Z"/>
  <path class="st28" d="M265.18,142.96l-.94-.13-3.74,1.38c-1.38.98-2.75,1.96-4.13,2.94-.4.32-.81.65-1.21.97-.26.15-.52.31-.78.46l-.62.12-4.56-.9-3.87.24-7.03,2.16-4.44,2.68-.78.97,1.47,3.72,13.36,3.15,10.99-2.42,4.22-4.9c.69-1.14,1.64-3.06,2.04-5.6.31-1.98.18-3.67,0-4.85Z"/>
  <polygon class="st28" points="257.86 141.36 256.6 141.37 255.81 142.12 255.78 143.25 256.38 144.07 257.98 143.98 258.6 143.25 258.79 142.27 257.86 141.36"/>
  <polygon class="st28" points="179.61 135.6 180.47 135.94 180.82 136.68 180.55 137.48 179.92 137.9 178.84 137.42 178.6 136.75 178.73 136 179.61 135.6"/>
  <polygon class="st28" points="235.83 145.12 236.7 145.46 237.05 146.2 236.77 147 236.14 147.42 235.06 146.94 234.83 146.26 234.95 145.52 235.83 145.12"/>
  <polygon class="st28" points="205.27 166.36 205.92 167.46 206.23 167.8 207.4 165.59 205.27 166.36"/>
  <polygon class="st28" points="214.12 167.8 215.22 169.43 214.24 169.99 213.62 170.4 214.12 167.8"/>
  <polygon class="st45" points="124.69 203.05 128.86 172.88 147.65 184.12 173.86 181.35 200.35 191.08 230.08 189.5 253.51 197.79 278.59 194.87 276.05 205.63 264.53 206.75 259.53 218.18 263.25 230.95 273.47 234.5 267.45 281.15 242.95 284.31 219.63 275.52 191.22 277.42 186.98 276.8 160.67 268.29 140.74 270.6 135 269.77 117.92 260.09 121.97 231.92 131.36 231.16 136.88 227.09 140.86 220.57 139.77 210.37 132.72 204.88 124.69 203.05"/>
  <path class="st29" d="M66.84,250.06c-1.36.06-2.64.05-3.83,0l-19.92-3.21.7-63.68,12.45-2.11,17.4,1.26,4.3,1.8-.5,5.4v57.61c-1.38.72-2.75,1.44-4.13,2.17-1.9.37-4.07.67-6.48.78Z"/>
  <path class="st33" d="M28.8,144.24s13.4,10.02,14.3,10.02,25.09,3.86,25.09,3.86l28.05-10.06,1.88,4.54-4.35,2.91-19.26,13.55-20.2-.6-17.71-8.85-8.54-9.74-2.41-.61,3.16-5.04Z"/>
  <path class="st33" d="M32.89,240.95s26.53,20.55,64.77,0l-11.03,11.74-20.17,6.73-14.75-2.54-13.44-8.44-6.02-5.09.64-2.4Z"/>
  <path class="st39" d="M221.53,322.34c-.53,2.28-1.06,4.55-1.59,6.83l22.85-2.66v-2.78c-7.09-.46-14.18-.93-21.27-1.39Z"/>
  <path class="st39" d="M254.37,322.34c-.53,2.28-1.06,4.55-1.59,6.83l22.85-2.66v-2.78c-7.09-.46-14.18-.93-21.27-1.39Z"/>
  <path class="st39" d="M287.72,322.11c-.53,2.28-1.06,4.55-1.59,6.83l22.85-2.66v-2.78c-7.09-.46-14.18-.93-21.27-1.39Z"/>
  <path class="st39" d="M320.56,322.34c-.53,2.28-1.06,4.55-1.59,6.83l22.85-2.66v-2.78c-7.09-.46-14.18-.93-21.27-1.39Z"/>
  <path class="st30" d="M98.14,287.76c3.9-.84,8.38-2.12,13.18-4.12,2.56-1.06,4.89-2.2,6.98-3.34,1.22-.38,2.43-.75,3.65-1.13-1.33-2.91-2.67-5.82-4-8.72l.64-21.89,2.02-14.13-.15-2.03-3.79-3.82c-1.23-4.16-2.46-8.33-3.68-12.49l3.66-8.46,3.13-1.85-.94-4.3c-.02-1.46,1-2.74,2.43-3.04,1.42-.3,2.86.45,3.43,1.79l2.53-18.54c-.84.4-1.69.8-2.53,1.2-4.55-2.22-9.1-4.44-13.64-6.66-2.61-2.71-5.21-5.43-7.82-8.14-1.44-2.56-2.89-5.12-4.33-7.69-.03-2.31-.06-4.63-.09-6.94"/>
  <path class="st30" d="M85.52,86.7"/>
  <polygon class="st30" points="86.6 87.32 102.78 91.25 99.72 96.42 97.87 95.29 98.95 105.61 94.26 105.61 91.13 95.17 86.6 87.32"/>
  <path class="st25" d="M127.94,177.91c-5.16-1.18-12.55-3.71-18.46-9.4-1.66-1.6-2.82-3.08-3.13-3.48-1.82-2.34-4.82-6.92-6.29-14.07-.62,1.58-1.45,4.38-1.06,7.77.57,4.87,3.38,8.08,5.27,10.24,2.79,3.2,6.16,5.43,10.53,8.31.77.51,1.42.92,1.87,1.2,4.15,2.58,7.72,4.34,10.25,5.47l1.02-6.03Z"/>
  <path class="st34" d="M216.26,274.99c-4.13,3.06-13.5,9.1-26.71,10.06-21.74,1.58-36.71-11.84-39.44-14.38.98,2.95,2.89,7.32,6.75,11.58,1.87,2.06,3.78,3.65,5.47,4.84,6.33.95,12.67,1.91,19,2.86l20.51-2.28,11.47-6.24c.98-2.14,1.97-4.29,2.95-6.43Z"/>
  <path class="st34" d="M74.9,110.54c1.32,3.9,2.74,7.02,3.9,9.3,1.74,3.43,5.31,9.62,10.44,14.64,0,0,3.52,3.44,7.51,5.71.65.37,1.3.69,1.3.69s1.38.67,3.06,1.21c1.63.52,5.83,1.56,11.48,2.63.54-1.08,1.08-2.31,1.55-3.7.95-2.79,1.33-5.34,1.48-7.37-4.4-.15-10-.82-16.2-2.77-3.17-1-5.97-2.17-8.39-3.35-5.04-4.56-10.01-9.66-14.8-15.39-.45-.53-.89-1.07-1.32-1.61Z"/>
  <path class="st34" d="M304.44,150.05c-1.48,2.82-4.86,8.36-11.41,12.81-5.95,4.04-11.72,5.27-14.82,5.71.33-3.32.65-6.64.98-9.96,5.41-1.25,10.83-2.5,16.24-3.75,2.1-.98,4.28-2.09,6.51-3.35.86-.48,1.7-.97,2.51-1.47Z"/>
  <path class="st34" d="M197.74,58.11c-.92,1.19-7.46,9.44-16.87,9.23-10.46-.24-20.79-10.85-21.35-25.64-.06,4.38-.12,8.75-.17,13.13l9.22,14.04,8.77,5.59,10.74.18,8.14-7.4c.68-1.6,1.36-3.19,2.04-4.79-.18-1.44-.35-2.89-.53-4.33Z"/>
  <path class="st34" d="M258.26,65.2c-.28,1.21-2.11,9.73,2.89,15.57,5.55,6.48,17.59,7.37,27.23-.14-2.74,2.36-5.47,4.73-8.21,7.09l-13.64,1.63-8.07-2.57-5.66-6.69.47-9.08.99-4.39,4-1.41Z"/>
  <path class="st34" d="M248.49,68.25c-1.22.53-2.54.55-3.71.1-.9-.34-1.48-.88-1.86-1.25-2.11-2.12-2.18-5.17-2.64-5.12-.09.01-.21.15-.3.69.35,1.06.4,1.91.39,2.49-.01.43-.09.55-.11,1.29-.01.72-.02,1.43-.04,2.15-.03,1.1-.06,2.19-.09,3.29,1.21-.43,2.47-.91,3.78-1.47,1.65-.7,3.17-1.43,4.58-2.17Z"/>
  <path class="st34" d="M208.51,61.19c1.07.9,2.4,1.32,3.72,1.22,1.01-.07,1.76-.44,2.25-.71,2.77-1.5,3.75-4.57,4.2-4.38.09.04.16.21.09.79-.67.97-.98,1.81-1.14,2.4-.12.43-.07.58-.28,1.33-.2.73-.4,1.45-.61,2.18-.3,1.12-.6,2.23-.9,3.35-1.09-.79-2.22-1.66-3.37-2.62-1.45-1.2-2.77-2.4-3.97-3.56Z"/>
  <path class="st26" d="M217.27,66.83c.44.53,4.76,5.56,11.76,5.13,6.43-.39,10.01-5.08,10.51-5.75-.68,2.51-1.36,5.02-2.03,7.53l-13.44,1.52-6.89-3.21.1-5.23Z"/>
  <path class="st26" d="M133.45,59.89c5.91,3.25,12.82,2.45,16.82-1.62,3.75-3.82,3.51-9.04,3.44-10.05,1.22,1.11,2.44,2.22,3.67,3.33-.15,2.52-.31,5.04-.46,7.56-1.47,2.09-2.95,4.18-4.42,6.27-2.61.8-5.23,1.59-7.84,2.39-1.3-.17-2.59-.33-3.89-.5-1.08-.53-2.48-1.37-3.89-2.67-1.09-1-1.89-2.01-2.47-2.85-.32-.62-.64-1.24-.96-1.86Z"/>
  <path class="st26" d="M127.27,69.66c3.05,1.72,6.63,1.3,8.7-.86,1.94-2.02,1.81-4.78,1.78-5.31.63.59,1.26,1.17,1.9,1.76-.08,1.33-.16,2.66-.24,3.99-.76,1.1-1.52,2.21-2.29,3.31-1.35.42-2.7.84-4.06,1.26-.67-.09-1.34-.17-2.01-.26-.56-.28-1.28-.73-2.01-1.41-.56-.53-.98-1.06-1.27-1.51-.17-.33-.33-.65-.5-.98Z"/>
  <path class="st26" d="M152.26,49.16c.59-.08,2.14-.36,3.47-1.63,2.08-1.99,1.87-4.74,1.84-5.12v9.87c-.8-.07-1.6-.15-2.4-.22-.97-.96-1.94-1.93-2.91-2.89Z"/>
  <path class="st26" d="M291.32,100.03c-.5,0-2.86-.1-4.81-2.02-1.96-1.94-2.1-4.34-2.11-4.84l-1.94,1.39.86,2.35c.42.87.85,1.75,1.27,2.62.43.7.86,1.39,1.29,2.09.65.53,1.31,1.05,1.96,1.58l1.9-.56c.53-.87,1.06-1.73,1.59-2.6Z"/>
  <path class="st26" d="M290.17,87.49c-.86.26-3.42.89-6.16-.3-1.2-.52-2.07-1.24-2.63-1.8-.14,2.07-.27,4.13-.41,6.2,1.32-.07,2.64-.14,3.96-.2,1.74-1.3,3.49-2.6,5.23-3.89Z"/>
  <path class="st26" d="M266.8,55.11c-.12.53-1.05,4.32-5,6.05-2.78,1.22-5.44.71-6.29.51.88,1.75,1.75,3.5,2.63,5.26,2.8-1.3,5.61-2.6,8.41-3.89.5-1.88,1.01-3.76,1.51-5.64-.42-.76-.85-1.53-1.27-2.29Z"/>
  <path class="st26" d="M194.53,44.03c.03.74.25,4.97,3.73,7.87,1.97,1.64,4.07,2.1,5.12,2.26-1.19,1.34-2.39,2.68-3.58,4.01l-4.93-7.89-1.69-4.64,1.36-1.61Z"/>
  <path class="st25" d="M150.77,274.99c.76,1.32,1.92,3.31,3.38,5.71,4.46,7.32,4.98,7.42,6.12,9.69,4.13,8.24,2.11,16.48,3.15,16.6.49.06,1.2-2.28,1.68-4.52.73-3.4,1.34-8.51.35-15.01-3.34-1.54-6.67-3.08-10.01-4.61-1.55-2.62-3.11-5.24-4.66-7.86Z"/>
  <path class="st25" d="M213.98,281.91c-1.9,1.24-4.55,3.06-7.54,5.45-4.78,3.81-5.81,4.64-6.66,5.87-2.23,3.24-2.7,6.53-2.85,7.72-.74,5.67,1.43,9.73.86,9.96-.54.21-2.89-3.2-4.13-7.47-1.61-5.53-.77-10.47,0-13.38,4.01-1.05,8.02-2.1,12.03-3.14l8.28-5Z"/>
  <path class="st25" d="M124.41,281.91c.27-.23,2.47,2.92,7.08,5.55,3.7,2.12,6.97,2.76,6.84,3.54-.08.49-1.43.66-2.57.81-1.94.25-3.55-.02-4.55-.26-5.91-7.62-6.99-9.46-6.79-9.64Z"/>
  <path class="st26" d="M97.74,97.71c.83,1.39,2.14,3.21,4.14,4.91,3.77,3.21,7.83,4.15,9.84,4.47h-10.65l-2.59-5.27-.74-4.11Z"/>
  <path class="st26" d="M287.26,127.96c-.72,1.13-1.78,2.57-3.16,3.83-2.61,2.37-4.89,2.7-5.98,2.74,1.82.44,3.63.87,5.45,1.31l2.44-4.34,1.25-3.54Z"/>
  <path class="st25" d="M120.96,231.06c2.07-.17,7.41-.9,12.42-4.98,4.09-3.32,5.96-7.24,6.73-9.19-.16,1.75-.48,3.78-1.05,6-.44,1.71-.97,3.24-1.5,4.57-1.63,1.06-3.26,2.11-4.89,3.17l-5.23,1.96-6.49-1.53Z"/>
  <path class="st25" d="M279.46,232.27c-2.07-.17-7.41-.9-12.42-4.98-4.09-3.32-5.96-7.24-6.73-9.19.16,1.75.48,3.78,1.05,6,.44,1.71.97,3.24,1.5,4.57,1.63,1.06,3.26,2.11,4.89,3.17l5.23,1.96,6.49-1.53Z"/>
  <polygon class="st35" points="150.11 183.98 173.97 181.35 162.83 267.64 137.83 271.07 149.06 184.12 150.11 183.98"/>
  <polygon class="st35" points="202.93 190.4 230.67 187.78 217.72 274.07 188.67 277.49 201.71 190.55 202.93 190.4"/>
  <polyline class="st35" points="276.52 206.09 270.94 206.2 264.3 208.79 260.58 214.67 259.75 222.58 262.01 226.98 268.09 232.63 272.82 235.33 266.94 281.83 242.47 285.26 253.46 198.31 254.49 198.17 277.85 195.54 276.52 206.09"/>
  <ellipse class="st41" cx="60.37" cy="184.42" rx="16.04" ry="2.84"/>
  <polygon class="st41" points="65.15 186.8 69.18 193.17 70.78 186.57 65.15 186.8"/>
  <polygon class="st41" points="56.25 187.16 54.1 191.01 52.52 186.89 56.25 187.16"/>
  <path class="st41" d="M43.8,240.32c2.41,1.38,9.94,5.28,19.76,3.83,6.79-1,11.57-4.11,13.89-5.87-.02,3.39-.05,6.77-.07,10.16l-17.01.84-16.04-2.87c-.18-2.03-.35-4.06-.53-6.08Z"/>
  <path class="st42" d="M27.62,146.81c1.88,2.21,14.34,16.39,35.23,16.82,19.56.4,32.11-11.55,34.33-13.74-.64,1.8-1.29,3.61-1.93,5.41l-18.22,10.91s-11.56,2.85-11.71,2.86c-.16.01-15.48-1.43-15.48-1.43l-14.65-8.95-8.17-10.17.61-1.72Z"/>
  <path class="st42" d="M30.44,237.47c1.78,2.21,13.56,16.39,33.32,16.82,18.5.4,30.37-11.55,32.47-13.74-.61,1.8-1.22,3.61-1.83,5.41l-17.24,10.91s-10.93,2.85-11.08,2.86c-.15.01-14.64-1.43-14.64-1.43l-13.85-8.95-7.73-10.17.58-1.72Z"/>
  <path class="st30" d="M28.03,247.82c-.91,1.16-7.4,9.71-4.94,21.13,2.26,10.46,10.35,15.55,11.74,16.39,9.28,2.72,34.22,8.63,56.04-4.39,3.23-1.93,6.1-4.1,8.64-6.38,0,4.1,0,8.21,0,12.31l-25.62,5.44-27.89-1.73-16-3.12-9.85-9.57-4.47-11.11,4.85-13.66,7.5-5.3Z"/>
  <path class="st25" d="M252.9,196.03c2.6-.79,5.53-1.99,8.53-3.8,10.84-6.57,15.41-16.98,17.09-21.61-.54,4.5-1.08,9-1.61,13.5l-6.65,8.6-4.55,4.19c-1.7.19-3.71.28-5.96.16-2.66-.15-4.97-.57-6.85-1.04Z"/>
  <path class="st12" d="M193.96,43.89s7.66.09,9.51-5.99c.16-.52.46-1.09.81-1.09,1.18,0,3.57,6.85,1.53,12.84-1.66,4.89-5.66,7.45-7.24,8.34"/>
  <path class="st12" d="M258.54,66.92c-1.82-.1-4.14-5.1-4.1-10.26.05-6.33,4.56-12.01,5.67-11.63.33.12.43.76.41,1.3-.25,6.35,7.02,8.78,7.02,8.78,0,0,1.35,12.35-8.99,11.81Z"/>
  <path class="st12" d="M283.41,92.52c9.13-.7,14.64-17.97,14.64-17.97-1.22-.73-2.43-1.45-3.65-2.18"/>
  <path class="st12" d="M284.18,93.31s9.03-5.96,11.99,3.4c0,0-4.66,8.22-11.07,5.21"/>
  <path class="st12" d="M263.4,52.65c2.04-4.59,4.02-11.02,5.22-24.84.36-4.16,2.1-5.77,2.79-6.31,3.96-3.08,12.51-1.09,19.9,6.61,0,0,15.38,20.26,1.16,48.51,0,0-9.52,15.02-27.22,12.44-1.56-.23-3.66-.85-5.86-2.38-7.85-5.48-6.94-17.33-6.81-18.72"/>
  <path class="st12" d="M250.55,66.75l2.02,1.19c1.38-1.17,2.57-2.33,3.59-3.46"/>
  <path class="st21" d="M296.83,40.25s-16.81-8.89-29.66-.76"/>
  <path class="st21" d="M260.44,58.59"/>
  <path class="st21" d="M296.95,64.75s-13.34-14.5-29.4-9.61"/>
  <path class="st12" d="M199.34,58.96c-3.14-5.31-4.2-9.84-4.59-12.94-.77-6.04-2.04-11.85,2.62-30.25,1.02-4.05-.09-6.14-.56-6.88-2.73-4.21-11.45-5.14-20.97-.29,0,0-21.18,14.09-17.03,45.43,0,0,4.06,17.31,21.63,20.69,1.55.3,3.73.4,6.32-.32,9.22-2.6,12.24-14.09,12.58-15.45Z"/>
  <path class="st21" d="M166.64,18.26s18.8-2.88,28.27,9.03"/>
  <path class="st21" d="M158.48,41.37s22.76-12.21,36.51,6.17"/>
  <ellipse class="st17" cx="170.45" cy="130.3" rx="17.35" ry="20.12" transform="translate(13.58 276.67) rotate(-80.41)"/>
  <path class="st4" d="M153.24,120.63c2.47-1.26,9.4-4.4,18.45-3.14,10.15,1.41,16.37,7.43,18.2,9.33"/>
  <path class="st4" d="M185.5,142.44c-.31-.95-3.16-9.31-11.84-12.25-6.55-2.22-12.19.08-13.57.69"/>
  <path class="st4" d="M154.82,125.11c2.59-1.22,8.5-3.55,16.03-2.61,11.42,1.43,18.02,9.35,19.45,11.15"/>
  <path class="st4" d="M171.94,153.82c-.79,3.5-8.65,4.92-14.31,4.32-8.62-.92-17.53-7.1-16.72-11,.8-3.84,11.1-6,19.16-3.57,5.94,1.79,12.68,6.68,11.87,10.25Z"/>
  <path class="st6" d="M186.06,132.48c-.25,1.47-1.64,2.46-3.11,2.21s-2.46-1.64-2.21-3.11c.25-1.47,1.64-2.46,3.11-2.21s2.46,1.64,2.21,3.11Z"/>
  <path class="st2" d="M159.36,126.02c-.14.82.41,1.6,1.24,1.74s1.6-.41,1.74-1.24c.14-.82-.41-1.6-1.24-1.74s-1.6.41-1.74,1.24Z"/>
  <path class="st4" d="M151.76,123.2c.8.41,1.88,1.02,3.06,1.91.75.57,2.52,1.97,4.24,4.27.63.84,1.41,2.01,2.15,3.5.69.03,1.64.09,2.74.27,0,0,3.09.49,5.96,1.8,3.17,1.44,7.52,4.99,10.99,10.66,0,0-14.04,8.24-27.58-6.99,0,0-5.38-8.06-1.56-15.41Z"/>
  <circle class="st2" cx="179.69" cy="136.75" r="1.14"/>
  <ellipse class="st17" cx="246.78" cy="143.39" rx="17.35" ry="20.12" transform="translate(64.29 362.84) rotate(-80.41)"/>
  <path class="st4" d="M266.21,139.91c-1.92-2-7.43-7.24-16.39-9.03-10.05-2-17.9,1.64-20.25,2.84"/>
  <path class="st4" d="M228.58,149.91c.6-.8,6.04-7.75,15.2-7.68,6.92.06,11.49,4.08,12.59,5.11"/>
  <path class="st4" d="M263.25,143.62c-2.04-2-6.86-6.15-14.28-7.73-11.26-2.4-20.09,2.91-22.04,4.14"/>
  <path class="st4" d="M237.65,165.11c-.4,3.56,6.55,7.49,12.1,8.78,8.45,1.97,18.89-.94,19.41-4.9.51-3.89-8.51-9.31-16.92-9.66-6.2-.26-14.17,2.15-14.58,5.78Z"/>
  <path class="st6" d="M231.32,140.32c-.25,1.47.74,2.86,2.21,3.11s2.86-.74,3.11-2.21-.74-2.86-2.21-3.11c-1.47-.25-2.86.74-3.11,2.21Z"/>
  <path class="st2" d="M258.67,142.99c-.14.82-.92,1.37-1.74,1.24-.82-.14-1.37-.92-1.24-1.74s.92-1.37,1.74-1.24,1.37.92,1.24,1.74Z"/>
  <path class="st4" d="M266.77,142.82c-.89.12-2.11.35-3.52.8-.9.29-3.02,1.03-5.41,2.64-.87.59-1.99,1.43-3.18,2.6-.66-.2-1.58-.45-2.68-.65,0,0-3.07-.55-6.22-.26-3.47.32-8.75,2.24-13.88,6.46,0,0,10.56,12.39,28.35,2.46,0,0,7.73-5.84,6.53-14.04Z"/>
  <circle class="st2" cx="235.94" cy="146.44" r="1.14"/>
  <path class="st11" d="M220.88,313.96c.19-.3,1.22-2.03.65-4.18-.43-1.62-1.53-2.53-1.91-2.82"/>
  <path class="st11" d="M207.31,308.33c.29.58.77,1.74.76,3.28-.01,1.7-.63,2.95-.95,3.52"/>
  <path class="st12" d="M192.83,290.07c-2.63,8.64-.62,17.52,5.21,22.43,5.02,4.23,11.2,4.12,13.12,4.08,9.04-.19,14.69-6.05,15.74-7.18.6-.71,4.19-5.07,3.39-11.18-.6-4.54-3.28-7.4-4.2-8.29.68-.86,1.39-1.83,2.09-2.91.96-1.49,1.72-2.92,2.33-4.21l.7-1.66"/>
  <path class="st11" d="M137.01,313.53c-.19-.3-1.22-2.03-.65-4.18.43-1.62,1.53-2.53,1.91-2.82"/>
  <path class="st11" d="M150.59,307.9c-.29.58-.77,1.74-.76,3.28.01,1.7.63,2.95.95,3.52"/>
  <path class="st12" d="M164.13,287.06s7.37,16.21-4.27,25c-1.65,1.17-6.43,4.22-13.12,4.08-9.04-.19-14.69-6.05-15.74-7.18-.6-.71-4.19-5.07-3.39-11.18.6-4.54,3.28-7.4,4.2-8.29-2.45-1.82-10.03-7.91-13.23-19.06-.57-1.98-.88-3.89-.88-3.89-.33-2.15-.34-4-.28-5.4"/>
  <path class="st12" d="M216.26,277.2c-.28.48-.58.97-.93,1.46-2.72,3.9-6.18,5.82-7.95,6.65-4.5,1.96-12.68,4.84-23.26,4.75-10.81-.09-19.09-3.23-23.57-5.31-2.07-1.14-5.6-3.49-8.19-7.75-1.02-1.67-1.67-3.28-2.1-4.65,0,0,0,0,0,0-.16-.72-.36-1.58-.57-2.58"/>
  <path class="st11" d="M133.99,213.77c.75-.05,1.86-.04,3.13.29,1.14.29,2.03.74,2.64,1.11"/>
  <path class="st11" d="M133.46,220.64c.75-.05,1.86-.04,3.13.29,1.14.29,2.03.74,2.64,1.11"/>
  <path class="st11" d="M131.36,226.78c.75-.05,1.86-.04,3.13.29,1.14.29,2.03.74,2.64,1.11"/>
  <path class="st11" d="M265.82,214.7c-.75-.05-1.86-.04-3.13.29-1.14.29-2.03.74-2.64,1.11"/>
  <path class="st11" d="M266.36,221.57c-.75-.05-1.86-.04-3.13.29-1.14.29-2.03.74-2.64,1.11"/>
  <path class="st11" d="M268.46,227.71c-.75-.05-1.86-.04-3.13.29-1.14.29-2.03.74-2.64,1.11"/>
  <path class="st12" d="M134.65,63.17c-4.65-6.22-4.21-18.86-4.21-18.86,19.2-6.24,26.26,8.81,26.26,8.81,0,0-1.13,19.35-18.34,12.97-.28-.1-.55-.23-.81-.36"/>
  <path class="st12" d="M159.13,35.13c-.7-.61-1.83-1.43-3.41-1.94-2.32-.74-4.3-.38-5.16-.17-.66.1-1.76.37-2.49,1.25-1.17,1.41-.67,3.49-.39,4.68,1.32,5.5,7.28,11.46,9.02,13.15"/>
  <path class="st12" d="M137.54,65.75c.55.56.87.97.87.97,0,0,2.35,6.99-3.7,7.83-7.02.98-8.74-8.56-8.74-8.56,2.93-3.94,6.04-3.75,8.42-2.59"/>
  <path class="st12" d="M134.39,63.41c1.34.65,2.44,1.62,3.15,2.34"/>
  <path class="st13" d="M118.59,109.72c-12.87-2.17-25.74-4.35-38.6-6.52-.45-.08-.9-.15-1.34-.23-.9.06-1.91.3-2.48,1.05-2.61,3.39,5.05,15.29,14.47,22.07,2.95,2.13,7.81,5.76,15.11,6.69,3.72.47,6.87.11,9-.3"/>
  <path class="st12" d="M106.93,149.29c-3.41-.18-12.65-1.12-20.6-8.14-14.22-12.56-10.66-32.52-10.45-33.62"/>
  <path class="st11" d="M87.27,130.56s.76,6.47,5.63,4.2c.07.46.6,3.74,3.48,5.4,2.78,1.6,6.58,1.02,9.2-1.56"/>
  <path class="st11" d="M102.34,107.78c-6.07-3.71-4.29-13.92-4.29-13.92,3.33,6.54,11.71,9.36,11.71,9.36.05.04,1.27,1.05,1.04,2.62-.15,1.03-.87,1.9-1.86,2.25-2.2-.1-4.4-.2-6.59-.31Z"/>
  <path class="st11" d="M209.18,52.24c.15.41,1.27,3.35,4.5,4.53,3.44,1.25,6.34-.56,6.67-.77-1.19,3.89-2.38,7.78-3.57,11.67-.38-.09-6.38-1.68-8.2-7.41-1.23-3.85.2-7.16.6-8.01Z"/>
  <path class="st11" d="M251.48,59.67c-.28.34-2.3,2.75-5.74,2.79-3.66.05-5.81-2.61-6.05-2.92-.15,4.06-.31,8.13-.46,12.19.39.04,6.57.51,10.18-4.31,2.42-3.24,2.16-6.83,2.07-7.76Z"/>
  <path class="st13" d="M278.79,160.18c1.08-.15,3.2-.48,5.77-1.22,11.37-3.3,22.28-12,20.92-16.09-.3-.9-1.17-1.45-2-1.8-.45-.08-.9-.15-1.34-.23-7.5-1.27-15-2.53-22.49-3.8"/>
  <path class="st12" d="M278.49,175.91c1.92-.28,3.64-.75,5.18-1.32,14.87-5.55,19.83-23.87,20.91-28.32"/>
  <path class="st11" d="M286.26,164.28s-2.85,5.86-6.7,2.12"/>
  <path class="st11" d="M279.64,137.04c6.95-1.51,8.63-11.74,8.63-11.74,0,0-1.82,2.23-8.02,5.04"/>
  <path class="st12" d="M227.1,75.51c2.88.45,5.96.94,8.55-.68,3.39-2.12,3.72-6.46,3.94-9.32,0,0,.48-6.38-3.49-12.49-.5-.77-1.22-1.69-1.22-1.69-.79-1.02-1.27-1.5-1.48-1.7-.8-.76-1.31-1.05-1.84-1.19-.22-.06-.4-.08-.51-.09-.73-.1-1.43.04-2.83.69-2.12.98-3.09,1.63-4.02,2.41-4.98,4.19-6.34,10.39-6.34,10.39-.69,3.14-1.56,7.11.91,10.14,2.09,2.55,5.46,3.08,8.34,3.53Z"/>
  <path class="st10" d="M222.44,54.99c1.21.87,3.54,2.31,6.82,2.87,4.11.7,7.39-.38,8.81-.95"/>
  <path class="st10" d="M219.28,59.72c1.55,1.21,4.31,3.03,8.2,3.96,5.52,1.33,10.08.09,12.05-.57"/>
  <path class="st10" d="M218.1,64.68c1.4,1.16,4.67,3.56,9.55,4.4,4.94.84,8.85-.37,10.55-1.01"/>
  <path class="st12" d="M98.12,148.06c.26,46.21.52,92.41.78,138.62"/>
  <path class="st12" d="M121.95,278.41c-11.95,5.47-31.86,12.64-57.15,12.86-14.04.12-26.06-1.92-35.36-4.29-11.18-8.2-13.32-14.86-13.57-19.78-.69-13.81,15.71-23.86,15.71-23.86-4.98-7.68-18.52-30.76-15.46-61.52,1.68-16.96,7.78-29.89,12.25-37.58-1.36-1.88-2.76-4.06-4.07-6.56-2.97-5.68-4.45-11.02-5.22-15.2-.41-4.15-.9-15.3,6.25-25.17,2.01-2.77,4.22-4.89,6.25-6.49,17.92-13.69,39.63-14.93,52.4-4.7,7.51,6.02,10.21,14.63,11.26,19.64"/>
  <path class="st12" d="M28.38,144.24s29.5,28.12,67.46,2.94"/>
  <path class="st12" d="M27.41,236.64s30.91,28.32,70.61,2.67"/>
  <path class="st12" d="M26.45,147.73s30.97,46.31,70.74,4.37"/>
  <path class="st12" d="M28.38,237.47s30.33,46.31,69.29,4.37"/>
  <line class="st12" x1="84.75" y1="86.7" x2="102.78" y2="89.71"/>
  <path class="st11" d="M65.31,187.76c-1.49.09-3.06.13-4.69.13s-3.17-.05-4.64-.13"/>
  <path class="st11" d="M52.77,187.5c-5.33-.57-8.97-1.71-8.97-3.02,0-1.89,7.53-3.42,16.82-3.42s16.82,1.53,16.82,3.42c0,1.11-2.59,2.09-6.61,2.72"/>
  <line class="st11" x1="77.45" y1="185.44" x2="77.45" y2="247.11"/>
  <line class="st11" x1="43.8" y1="185.17" x2="43.8" y2="246.85"/>
  <path class="st11" d="M54.75,212.63c2.41.7,5.05.92,7.78.2v36.45"/>
  <polyline class="st10" points="52.09 211.28 51.69 215.84 54.21 212.74"/>
  <polyline class="st10" points="53.19 187.25 53.77 191.75 55.41 187.99"/>
  <polyline class="st10" points="70.43 186.8 69.37 194.04 65.95 187.95"/>
  <path class="st11" d="M43.8,205.63s3.2,3.56,7.91,5.82"/>
  <path class="st5" d="M56.25,183.45c8.05-.48,12.14-.35,12.29.4.07.38-.84.91-2.74,1.59"/>
  <path class="st12" d="M131.47,55.41c-2.13.42-3.66.9-4.78,1.37-6.58,2.79-11.11,7.19-11.11,7.19-3.79,3.6-6.97,10.05-10,17.69-2.31,5.84-3.57,11.18-4.27,15.53"/>
  <path class="st12" d="M207.51,59.3c-2.95-.38-5.89-.75-8.84-1.13"/>
  <path class="st12" d="M226.59,62.89"/>
  <path class="st12" d="M268.15,196.16c8.48-7.04,14.2-20.31,8.38-45.22,3.77-20.23,6.31-35.56,7.11-42.09.17-1.4.41-3.67.28-6.6-.18-4.3-1.05-7.75-1.72-9.93-.56-1.09-1.42-2.61-2.68-4.28"/>
  <path class="st12" d="M98.28,157.46c1.28,3.41,3.37,7.79,6.9,12.19,7.65,9.55,17.34,13.38,21.91,14.84"/>
  <polygon class="st16" points="206.14 167.97 207.51 165.37 205.11 165.65 206.14 167.97"/>
  <polygon class="st16" points="213.62 170.37 214.03 167.46 215.81 169.09 213.62 170.37"/>
  <ellipse class="st9" cx="208.09" cy="174.52" rx="10.14" ry="8.13" transform="translate(-21.74 319.22) rotate(-72.18)"/>
  <path class="st4" d="M199.65,178.2s9.42-7.95,13.15,4.23"/>
  <line class="st12" x1="277.18" y1="205.79" x2="278.52" y2="195.46"/>
  <line class="st12" x1="267.45" y1="281.15" x2="273.49" y2="234.4"/>
  <polyline class="st12" points="240.93 284.16 241.86 284.5 267.37 281.81 267.45 281.15"/>
  <polyline class="st12" points="117.41 259.43 117.37 259.78 137.13 270.98 162.65 268.29 188.64 277.63 217.09 275.32 240.93 284.16"/>
  <polyline class="st12" points="128.86 172.88 148.88 184.1 174.72 181.46 201.04 190.83 229.83 188.57 254.92 197.79 278.59 194.87"/>
  <path class="st12" d="M120.96,231.92c-1.18,9.17-2.37,18.33-3.55,27.5"/>
  <line class="st12" x1="124.79" y1="202.29" x2="124.69" y2="203.05"/>
  <line class="st12" x1="128.58" y1="172.92" x2="124.79" y2="202.29"/>
  <line class="st12" x1="148.93" y1="184.11" x2="137.83" y2="270.07"/>
  <line class="st12" x1="173.86" y1="182.21" x2="162.75" y2="268.29"/>
  <line class="st12" x1="173.86" y1="182.21" x2="162.83" y2="267.64"/>
  <line class="st12" x1="200.35" y1="191.08" x2="189.21" y2="277.37"/>
  <line class="st12" x1="229.77" y1="188.7" x2="218.63" y2="274.99"/>
  <line class="st12" x1="254.09" y1="198.02" x2="242.95" y2="284.31"/>
  <path class="st12" d="M273.47,234.4c1.59-.18,3.17-.36,4.76-.54.57-.21,1.35-.54,2.2-1.07,5.16-3.25,7.8-10.87,6.1-17.4-1.16-4.49-4.08-7.33-5.66-8.64"/>
  <path class="st12" d="M277.79,201.14c1.77-.52,3.59.39,4.16,1.92.47,1.25.05,2.75-1.07,3.69-1.77-.27-3.54-.53-5.31-.8-1.65-.07-6.94-.15-11.07,2.62-4.39,2.93-4.57,7.14-4.71,10.15-.11,2.47-.39,8.88,5.74,13.01,2.53,1.7,5.28,2.43,7.03,2.77.3-.03.6-.07.9-.1"/>
  <path class="st12" d="M126.92,232.53c-1.59-.18-3.17-.36-4.76-.54-.57-.21-1.35-.54-2.2-1.07-5.16-3.25-7.8-10.87-6.1-17.4,1.16-4.49,4.08-7.33,5.66-8.64"/>
  <path class="st12" d="M124.69,199.13c-2.91-1.09-5.66.22-6.26,2.07-.57,1.75.95,3.55,1.07,3.69,1.77-.27,3.54-.53,5.31-.8,1.65-.07,6.94-.15,11.07,2.62,4.39,2.93,4.57,7.14,4.71,10.15.11,2.47.39,8.88-5.74,13.01-2.53,1.7-5.28,2.43-7.03,2.77-.3-.03-.6-.07-.9-.1"/>
  <polygon class="st11" points="243 326.67 219.42 328.94 220.73 322.57 242.08 323.24 243 326.67"/>
  <polygon class="st11" points="276.36 326.67 252.78 328.94 254.09 322.57 275.44 323.24 276.36 326.67"/>
  <polygon class="st11" points="309.72 326.67 286.14 328.94 287.45 322.57 308.8 323.24 309.72 326.67"/>
  <polygon class="st11" points="343.08 326.67 319.49 328.94 320.8 322.57 342.15 323.24 343.08 326.67"/>
</svg>