<?xml version="1.0" encoding="UTF-8"?>
<svg id="Layer_1" xmlns="http://www.w3.org/2000/svg" version="1.1" viewBox="0 0 365 335">
  <!-- Generator: Adobe Illustrator 29.7.1, SVG Export Plug-In . SVG Version: 2.1.1 Build 8)  -->
  <defs>
    <style>
      .st0 {
        fill: #5fa8a1;
      }

      .st1, .st2, .st3, .st4, .st5, .st6, .st7, .st8, .st9, .st10, .st11, .st12, .st13, .st14, .st15, .st16, .st17, .st18 {
        fill: none;
      }

      .st1, .st3, .st4, .st7, .st8, .st9, .st10, .st13, .st15 {
        stroke: #000;
      }

      .st1, .st3, .st4, .st11, .st12, .st13, .st14, .st15, .st16, .st17 {
        stroke-miterlimit: 10;
      }

      .st1, .st11 {
        stroke-width: .5px;
      }

      .st19 {
        fill: #eaacc5;
      }

      .st20 {
        fill: #25544e;
      }

      .st21 {
        fill: #bf6421;
      }

      .st2, .st5, .st6, .st7, .st8, .st9, .st10, .st18 {
        stroke-linecap: round;
        stroke-linejoin: round;
      }

      .st2, .st5, .st6, .st11, .st12, .st14, .st16, .st17, .st18 {
        stroke: #231f20;
      }

      .st2, .st8 {
        stroke-width: 2px;
      }

      .st22 {
        fill: #fdbb28;
      }

      .st23 {
        fill: #ffda00;
      }

      .st4, .st16 {
        stroke-width: .75px;
      }

      .st24 {
        fill: #9298a0;
      }

      .st25 {
        fill: #fff;
      }

      .st5, .st10, .st12, .st13 {
        stroke-width: 4px;
      }

      .st26 {
        fill: #44968e;
      }

      .st6, .st9, .st14, .st15 {
        stroke-width: 3px;
      }

      .st27 {
        fill: #c1789a;
      }

      .st28 {
        fill: #c1a487;
      }

      .st29 {
        fill: #bc8a26;
      }

      .st30 {
        fill: #80c9ed;
        opacity: .5;
      }

      .st31 {
        fill: #194340;
      }

      .st32 {
        fill: #555a60;
      }

      .st33 {
        fill: #edb38b;
      }

      .st34 {
        fill: #b79b13;
      }

      .st35 {
        fill: #addcd8;
      }

      .st36 {
        fill: #edd2b4;
      }

      .st37 {
        fill: #ef9eb0;
      }

      .st38 {
        fill: #fb7800;
      }
    </style>
  </defs>
  <path class="st6" d="M149.6,253.02s24.23,13.31,53.78,7.19"/>
  <path class="st6" d="M162.56,42.64s7.92-1.24,8.77-7.84c.07-.56.29-1.21.65-1.27,1.21-.21,4.87,6.45,3.82,12.98-.86,5.33-4.54,8.67-6.02,9.87"/>
  <path class="st6" d="M233.21,55.14c-1.89.22-5.16-4.54-6.02-9.87-1.05-6.54,2.61-13.19,3.82-12.98.36.06.57.71.65,1.27.85,6.59,8.77,7.84,8.77,7.84,0,0,3.54,12.51-7.22,13.75Z"/>
  <path class="st6" d="M263.33,77.22c9.29-2.31,11.98-21.09,11.98-21.09-1.38-.54-2.76-1.08-4.14-1.61"/>
  <path class="st6" d="M264.26,77.9s8.28-7.72,12.96,1.42c0,0-3.37,9.3-10.51,7.3"/>
  <path class="st6" d="M235.73,39.57c1.3-5.09,2.23-12.07,1.06-26.54-.35-4.35,1.16-6.32,1.78-7,3.55-3.87,12.71-3.3,21.68,3.35,0,0,19.4,18.23,9.65,49.84,0,0-7.2,17.15-25.92,17.58-1.65.04-3.92-.24-6.46-1.44-9.06-4.28-10.18-16.67-10.29-18.13"/>
  <path class="st6" d="M224.94,56.37l2.29.88c1.22-1.44,2.24-2.85,3.1-4.2"/>
  <path class="st14" d="M268.06,20.95s-18.89-6.25-30.74,4.39"/>
  <path class="st14" d="M233.72,46.22"/>
  <path class="st14" d="M272.46,46.22s-16.3-12.64-32.01-4.79"/>
  <path class="st6" d="M170.75,57.25c-4.16-4.93-6.04-9.42-6.99-12.55-1.85-6.1-4.17-11.87-2.56-31.66.35-4.35-1.16-6.32-1.78-7-3.55-3.87-12.71-3.3-21.68,3.35,0,0-19.4,18.23-9.65,49.84,0,0,7.2,17.15,25.92,17.58,1.65.04,3.92-.24,6.46-1.44,9.06-4.28,10.18-16.67,10.29-18.13Z"/>
  <path class="st14" d="M129.92,20.95s18.89-6.25,30.74,4.39"/>
  <path class="st14" d="M125.52,46.22s21.35-16.56,38.74,0"/>
  <path class="st12" d="M171.08,125.39c2.3,2.91,3.64,6.42,3.64,10.21,0,10.03-9.43,18.15-21.06,18.15s-21.06-8.13-21.06-18.15c0-3.99,1.49-7.67,4.02-10.67"/>
  <path class="st12" d="M128.99,124.94c8.47.44,17.38.69,26.69.66,8.2-.03,16.08-.26,23.62-.66"/>
  <path class="st17" d="M171.31,145.51c-.48-.93-4.88-9.05-14.35-10.57-7.15-1.15-12.56,2.21-13.88,3.08"/>
  <path class="st17" d="M136.63,132.98c2.46-1.71,8.15-5.15,16.08-5.48,12.03-.51,20.22,6.5,22.01,8.11"/>
  <path class="st17" d="M154.01,159.89c-.21,3.75-8.06,6.58-14.01,6.95-9.06.56-19.32-4.27-19.17-8.44.15-4.11,10.4-8.12,19.14-7.02,6.44.81,14.25,4.68,14.04,8.51Z"/>
  <path class="st16" d="M170.15,135.13c0,1.56-1.26,2.82-2.82,2.82s-2.82-1.26-2.82-2.82,1.26-2.82,2.82-2.82,2.82,1.26,2.82,2.82Z"/>
  <path class="st11" d="M141.47,133.12c0,.87.71,1.58,1.58,1.58s1.58-.71,1.58-1.58-.71-1.58-1.58-1.58-1.58.71-1.58,1.58Z"/>
  <path class="st17" d="M133.14,131.54c.9.28,2.12.73,3.49,1.43.88.45,2.94,1.59,5.12,3.66.8.76,1.81,1.83,2.82,3.24.72-.09,1.7-.19,2.88-.2,0,0,3.27-.03,6.46.82,3.52.94,8.63,3.83,13.2,9.08,0,0-13.05,10.94-29.68-2.41,0,0-6.95-7.38-4.29-15.63Z"/>
  <circle class="st11" cx="164.32" cy="140.65" r="1.19"/>
  <path class="st12" d="M218.01,125.39c-2.3,2.91-3.64,6.42-3.64,10.21,0,10.03,9.43,18.15,21.06,18.15s21.06-8.13,21.06-18.15c0-3.99-1.49-7.67-4.02-10.67"/>
  <path class="st12" d="M260.1,124.94c-8.47.44-17.38.69-26.69.66-8.2-.03-16.08-.26-23.62-.66"/>
  <path class="st17" d="M217.78,145.51c.48-.93,4.88-9.05,14.35-10.57,7.15-1.15,12.56,2.21,13.88,3.08"/>
  <path class="st17" d="M252.46,132.98c-2.46-1.71-8.15-5.15-16.08-5.48-12.03-.51-20.22,6.5-22.01,8.11"/>
  <path class="st16" d="M218.94,135.13c0,1.56,1.26,2.82,2.82,2.82s2.82-1.26,2.82-2.82c0-1.56-1.26-2.82-2.82-2.82s-2.82,1.26-2.82,2.82Z"/>
  <path class="st11" d="M247.47,133.12c0,.87-.71,1.58-1.58,1.58s-1.58-.71-1.58-1.58c0-.87.71-1.58,1.58-1.58s1.58.71,1.58,1.58Z"/>
  <path class="st17" d="M255.95,131.54c-.9.28-2.12.73-3.49,1.43-.88.45-2.94,1.59-5.12,3.66-.8.76-1.81,1.83-2.82,3.24-.72-.09-1.7-.19-2.88-.2,0,0-3.27-.03-6.46.82-3.52.94-8.63,3.83-13.2,9.08,0,0,13.05,10.94,29.68-2.41,0,0,6.95-7.38,4.29-15.63Z"/>
  <circle class="st11" cx="224.77" cy="140.65" r="1.19"/>
  <path class="st17" d="M223.77,160.09c.21,3.75,8.06,6.58,14.01,6.95,9.06.56,19.32-4.27,19.17-8.44-.15-4.11-10.4-8.12-19.14-7.02-6.44.81-14.25,4.68-14.04,8.51Z"/>
  <path class="st2" d="M225.26,329.87c.2-.31,1.28-2.12.68-4.37-.45-1.69-1.6-2.65-1.99-2.95"/>
  <path class="st2" d="M211.06,323.99c.3.61.81,1.82.8,3.43-.01,1.78-.66,3.09-1,3.68"/>
  <path class="st6" d="M236.55,256.47"/>
  <path class="st6" d="M195.91,304.87c-2.75,9.04-.65,18.33,5.45,23.47,5.25,4.43,11.72,4.31,13.73,4.27,9.46-.2,15.37-6.33,16.47-7.52.63-.74,4.39-5.3,3.54-11.69-.63-4.76-3.44-7.74-4.39-8.67.75-.95,1.48-1.96,2.18-3.04,5.81-9.03,6.65-18.8,6.38-25.59-46.18-20.87-69.32-31.32-69.32-31.32s23.44,10.59,70.4,31.81"/>
  <path class="st2" d="M137.51,329.42c-.2-.31-1.28-2.12-.68-4.37.45-1.69,1.6-2.65,1.99-2.95"/>
  <path class="st2" d="M151.71,323.53c-.3.61-.81,1.82-.8,3.43.01,1.78.66,3.09,1,3.68"/>
  <path class="st6" d="M165.87,301.73s7.71,16.96-4.47,26.16c-1.73,1.22-6.72,4.42-13.73,4.27-9.46-.2-15.37-6.33-16.47-7.52-.63-.74-4.39-5.3-3.54-11.69.63-4.76,3.44-7.74,4.39-8.67-4.78-3.97-10-9.54-13.85-17.16-14.26-28.24,3.11-59.18,5.22-62.81"/>
  <path class="st6" d="M224.58,270.27c-.23,5.42-.92,10.71-2.03,15.88,0,0,0,0,0,0-.44,1.72-1.3,4.21-3.1,6.79-2.85,4.08-6.46,6.09-8.32,6.96-4.71,2.05-13.27,5.06-24.34,4.97-11.31-.09-19.98-3.38-24.66-5.55-2.16-1.19-5.86-3.65-8.57-8.11-1.06-1.75-1.75-3.43-2.2-4.87,0,0,0,0,0,0-2.3-9.9-3.88-23.33-.96-38.45.12-.86.25-1.71.37-2.57"/>
  <path class="st6" d="M221.5,216.85l-95.64-42.76-19.11,42.76c9.73,4.35,19.47,8.7,29.2,13.05"/>
  <path class="st6" d="M236.54,256.48c-.79-.87-1.59-1.82-2.38-2.83,0,0-15.07-17.61-12.67-36.79"/>
  <path class="st6" d="M210.4,199.97c2.81-.15,7.07-.09,11.97,1.19,2.03.53,8.4,2.36,20.18,11.96,4.64,3.78,10.78,9.31,17.26,16.86.69,1.26,5.21,9.92,1.37,19.29-.7,1.72-4.34,9.92-12.65,11.98-2.72.67-5.11.48-6.7.21-1.63-1.32-3.45-2.96-5.28-4.98"/>
  <path class="st2" d="M261.36,247.89c-.31-.72-.85-1.75-1.77-2.78-.82-.92-1.67-1.53-2.3-1.91"/>
  <path class="st2" d="M257.29,254.03c-.31-.72-.85-1.75-1.77-2.78-.82-.92-1.67-1.53-2.3-1.91"/>
  <path class="st2" d="M251.44,258.33c-.31-.72-.85-1.75-1.77-2.78-.82-.92-1.67-1.53-2.3-1.91"/>
  <path class="st6" d="M136.39,227.5c-1.19,4.36.73,8.38,1.13,9.16,2.69,5.35,8.38,7.17,10.58,7.88.81.26,2.73.82,7.42,1.05,6.57.32,11.37-.48,14.79-.79,4.14-.38,10.3-.87,17.95-1.22,1.34-.53,10.37-4.24,13.46-13.88.43-1.36,3.58-10.9-1.98-17.31-1.92-2.21-4.23-3.31-5.78-3.87-4.3-.44-9.89-.63-16.34.13-1.58.19-7.84,1-16.7,3.93-12.5,4.14-22.46,7.38-24.52,14.93Z"/>
  <path class="st2" d="M200.97,230.86c-.7.35-1.78.79-3.14.98-1.22.17-2.26.1-2.99-.02"/>
  <path class="st2" d="M201.8,223.54c-.7.35-1.78.79-3.14.98-1.22.17-2.26.1-2.99-.02"/>
  <path class="st2" d="M200.92,216.48c-.7.35-1.78.79-3.14.98-1.22.17-2.26.1-2.99-.02"/>
  <path class="st6" d="M109.08,75.24c-9.41-1.79-11.98-21.09-11.98-21.09,18.72-9.78,28.63,4.51,28.63,4.51,0,0,2.2,20.16-16.66,16.57Z"/>
  <path class="st6" d="M125.55,39.97c-.75-.52-2.23-1.41-4.31-1.7-2.52-.36-4.51.35-5.36.72-.67.21-1.75.68-2.35,1.73-.96,1.66-.09,3.72.42,4.89,2.32,5.44,9.51,10.56,11.6,12"/>
  <path class="st6" d="M106.78,84.61c-7.07,2.23-10.51-7.3-10.51-7.3,4.68-9.14,12.96-1.42,12.96-1.42,0,0,3.64,6.8-2.45,8.73Z"/>
  <path class="st5" d="M96.27,123.69h-42.39c-.92.22-1.91.64-2.38,1.51-2.1,3.95,7.88,14.89,18.78,20.24,3.42,1.68,9.06,4.58,16.76,4.27,3.92-.16,7.1-1.08,9.23-1.88"/>
  <path class="st6" d="M51.83,128.87c-.03,1.17-.22,22.39,16.64,32.87,1.76,1.1,3.53,1.96,5.27,2.65l2.89.98,1.76-3.93c1.76-3.94,6.39-5.71,10.33-3.95l7.58,3.39c6.08,1.81,6.67,3.47,6.69,4.19.02.56-.29.91-1.43,3.28-.59,1.22-1.03,2.22-1.31,2.86-4.24,9.49-8.49,18.99-12.73,28.48-.24.54-.57,1.3-.99,2.21-1.51,3.32-1.74,3.56-1.92,3.71-1.8,1.44-6.14-1.16-7.43-1.97l-7.58-3.39c-3.94-1.76-5.71-6.39-3.95-10.33l10.98-24.55"/>
  <path class="st2" d="M87.89,155.75"/>
  <path class="st2" d="M67.6,150.65s1.91,6.54,6.54,3.35c-.76,1.97-.1,4.08,1.41,5.04,1.6,1.02,3.44.28,3.63.2"/>
  <path class="st2" d="M79.18,124.52c-6.91-2.77-6.86-13.61-6.86-13.61,4.58,6.17,13.71,7.61,13.71,7.61.06.03,1.49.86,1.53,2.52.02,1.09-.57,2.11-1.53,2.64-2.29.28-4.57.56-6.86.83Z"/>
  <path class="st2" d="M179.72,48.6c.23.4,1.9,3.24,5.44,3.88,3.76.69,6.45-1.68,6.75-1.96-.55,4.22-1.1,8.44-1.65,12.66-.4-.03-6.87-.62-9.75-6.22-1.94-3.76-1.04-7.43-.78-8.37Z"/>
  <path class="st2" d="M224.66,48.89c-.23.4-1.9,3.24-5.44,3.88-3.76.69-6.45-1.68-6.75-1.96.55,4.22,1.1,8.44,1.65,12.66.4-.03,6.87-.62,9.75-6.22,1.94-3.76,1.04-7.43.78-8.37Z"/>
  <path class="st5" d="M270.36,147.83c1.09-.34,3.22-1.05,5.74-2.27,11.15-5.38,20.89-16.26,18.78-20.24-.46-.87-1.46-1.29-2.38-1.51h-25.29"/>
  <path class="st6" d="M272.79,164.11c1.93-.62,3.63-1.4,5.11-2.26,14.37-8.32,16.29-28.09,16.64-32.87"/>
  <path class="st2" d="M278.78,150.76s-1.91,6.54-6.54,3.35"/>
  <path class="st2" d="M267.2,123.81c6.91-2.77,6.86-13.61,6.86-13.61,0,0-1.49,2.61-7.4,6.6"/>
  <path class="st6" d="M202.26,69.49c3.05-.04,6.32-.07,8.7-2.19,3.13-2.78,2.71-7.31,2.44-10.3,0,0-.61-6.67-5.78-12.28-.65-.71-1.55-1.53-1.55-1.53-1-.92-1.57-1.32-1.82-1.49-.96-.65-1.53-.85-2.11-.9-.24-.02-.43,0-.55,0-.77.02-1.47.29-2.8,1.21-2.01,1.38-2.9,2.22-3.72,3.18-4.41,5.19-4.73,11.82-4.73,11.82-.16,3.36-.37,7.61,2.71,10.3,2.6,2.26,6.17,2.23,9.22,2.19Z"/>
  <path class="st18" d="M193.89,49.13c1.4.69,4.05,1.77,7.54,1.78,4.37,0,7.56-1.68,8.92-2.51"/>
  <path class="st18" d="M191.44,54.55c1.81.97,4.98,2.37,9.15,2.66,5.93.41,10.42-1.66,12.33-2.69"/>
  <path class="st18" d="M191.1,59.88c1.64.95,5.43,2.86,10.62,2.87,5.24.01,9.07-1.92,10.71-2.88"/>
  <path class="st6" d="M102.99,215.18c-2.49.76-5.54,1.48-9.07,1.85-4.6.49-8.59.26-11.68-.16,8.21,2.55,22.22,9.36,17.65,20.21,1.22-.93,5.1-3.63,10.48-3.37,2.72.13,4.85.97,6.18,1.64"/>
  <path class="st2" d="M108.61,218.06c-6.01,1.69-12.12,3.16-18.19,2.27"/>
  <path class="st2" d="M118.53,222.12c-6.69,3.67-13.87,8.66-18.63,14.96"/>
  <path class="st6" d="M149.58,273.69s36.28,19.93,74.19-.2"/>
  <path class="st6" d="M112.64,258.95c-3.37,4.81-6.73,9.62-10.1,14.43-2.18,3.33-6.06,8.22-12.36,12.05-13.74,8.37-28.24,5.16-31.67,4.31.29,2.45,1.15,6.49,4.06,10.18,1.04,1.32,4.37,5.16,14.51,7.76,5.3,1.36,14.73,2.96,26.98.64,3.05-.54,6.97-1.53,11.26-3.45,3.77-1.68,6.8-3.61,9.09-5.31"/>
  <path class="st2" d="M187.49,179.03c1.1-1.36,2.2-2.72,3.3-4.08.2-.35,1.34-2.37.53-4.37-1.02-2.5-4.46-3.41-6.89-2.49-1.48.56-2.32,1.7-2.67,2.25-.52,1.6-1.04,3.2-1.56,4.8"/>
  <rect class="st6" x="142.13" y="143.16" width="44.38" height="16.56" rx="7.32" ry="7.32"/>
  <rect class="st6" x="202.95" y="143.16" width="44.38" height="16.56" rx="7.32" ry="7.32"/>
  <line class="st6" x1="186.52" y1="151.44" x2="202.95" y2="151.44"/>
  <path class="st6" d="M180.78,175.57c1.72,1.33,5.69,4.02,11.48,4.78,5.28.69,9.46-.57,11.48-1.33"/>
  <path class="st6" d="M262.16,235.03l9.61,4.3-19.11,42.76c-4.1-1.83-8.2-3.67-12.3-5.5"/>
  <rect class="st6" x="93.4" y="167.17" width="23.94" height="46.84" transform="translate(86.96 -26.41) rotate(24.09)"/>
  <path class="st6" d="M270.63,238.82c8.61,8.79,17.21,17.58,25.82,26.37l-8.06,18.03c-12.29-.55-24.58-1.1-36.87-1.65"/>
  <polygon class="st6" points="309.79 281.96 288.39 283.22 296.45 265.19 309.79 281.96"/>
  <path class="st6" d="M61.07,289.76c.37-1.57,1.06-3.84,2.41-6.35,1.32-2.46,2.08-3.71,3.09-3.96,2.07-.52,5.21,3.3,7.95,9.02"/>
  <path class="st6" d="M76.21,288.44c-.08-1.61-.06-3.99.53-6.78.58-2.73.96-4.14,1.86-4.67,1.84-1.08,5.93,1.71,10.16,6.44"/>
  <path class="st6" d="M89.82,283.53c-.7-1.45-1.59-3.65-2.12-6.46-.52-2.74-.71-4.19-.09-5.02,1.28-1.71,6.13-.71,11.86,2.01"/>
  <path class="st6" d="M100.17,273.17c-.82-1.39-1.89-3.51-2.65-6.26-.75-2.69-1.06-4.12-.51-5,1.13-1.81,6.04-1.22,11.98,1.02"/>
  <path class="st6" d="M108.6,263.24c-.78-1.41-1.79-3.56-2.47-6.33-.67-2.71-.94-4.15-.36-5.01.89-1.33,3.86-1.25,7.77-.12"/>
  <path class="st9" d="M100.1,65.42c-2.12.8-3.62,1.56-4.69,2.25-6.3,4.03-10.21,9.36-10.21,9.36-3.28,4.38-5.44,11.59-7.23,19.99-1.37,6.43-1.74,12.16-1.7,16.77"/>
  <path class="st9" d="M179.23,56.18c-3.1.13-6.21.25-9.31.38"/>
  <path class="st9" d="M199.55,56.55"/>
  <path class="st9" d="M183.57,199.9c18.26-.12,36.51-.24,54.77-.37,0,0,52.32-2.98,28.07-60.83.36-21.53.32-37.79,0-44.67-.07-1.47-.22-3.86-.86-6.86-.94-4.4-2.43-7.81-3.51-9.95-1.17-1.31-2.34-2.63-3.51-3.94"/>
  <polygon class="st38" points="125.56 56.8 125.38 44.2 125.38 40.49 116.93 38.69 113.36 41.24 113.1 44.2 116.58 50.47 121.56 55.38 125.56 56.8"/>
  <polygon class="st38" points="164.03 43.2 168.29 41.02 172.17 36.26 173.77 34.12 174.22 38.49 175.8 42.57 174.79 52.02 172.63 53.8 171.4 56.39 166.38 49.89 164.03 43.2"/>
  <polygon class="st38" points="60.1 289.71 69.26 290.85 75.49 290.85 74.75 289.27 70.08 281.26 66.52 278.83 64 282.5 60.1 289.71"/>
  <polygon class="st38" points="76.17 289.82 84.95 286.98 90.59 284.35 89.26 283.23 81.64 277.94 77.39 277.25 76.65 281.64 76.17 289.82"/>
  <polygon class="st38" points="89.88 284.58 97.38 279.2 101.95 274.98 100.34 274.32 91.47 271.6 87.21 272.23 87.85 276.64 89.88 284.58"/>
  <polygon class="st38" points="100.61 274.5 106.78 267.65 110.35 262.55 108.64 262.24 99.39 261.48 95.37 263.01 96.93 267.18 100.61 274.5"/>
  <path class="st38" d="M105.62,251.48l.75,6.78,1.17,4.43c.79-.44,1.59-.87,2.38-1.31.69-1.13,1.37-2.27,2.06-3.4.45-1.12.89-2.23,1.34-3.35-.26-.67-.52-1.34-.79-2l-6.9-1.15Z"/>
  <path class="st22" d="M223.95,269.17l-1.4,16.99-4.32,8.36s-6.61,5.18-7.1,5.38-17.54,4.64-17.54,4.64h-11.25l-12.84-2.38-11.04-5.33-4.89-5.62-2.5-8.72-2.25-15.27v-10.74l.79-9.56,4.4-1.26,20.3-.33,5.76,4.02,43.89,19.82Z"/>
  <path class="st26" d="M100.1,65.42l-11.92,7.42-6.96,12.11-3.81,17.02-1.15,12.65c2.71,1.04,5.42,2.07,8.13,3.11,1.17.81,2.33,1.63,3.5,2.44l-.33,2.49,8.71,1.04-1.06,35.88,84.99,37.95,7.47,4.21,1.82-1.87,45.45-.3,19.88-4.59,13.18-11.32,5.36-16.56-3.01-17.26-3.93-11.87-.11-45.53-1.75-9-3.91-7.76-1.78-2-33.93-17.3h-54.19l-70.65,9.05Z"/>
  <polygon class="st26" points="138.04 224.08 143.05 219.7 160.91 212.57 183.57 208.13 196.56 209.74 202.99 217.03 201.71 229.68 195.66 238.82 186.7 243.64 174.72 244.41 149.6 244.78 140.46 240.47 136.63 236.66 138.04 224.08"/>
  <polygon class="st26" points="85.62 218.06 92.79 220.59 105.11 219.32 106.32 218.06 102.11 215.18 85.62 218.06"/>
  <polygon class="st26" points="122.25 226.45 123.26 224.62 135.94 229.91 140.02 240.79 148.81 244.41 150.21 246.75 148.81 277.99 152.14 288.44 156.78 295.27 165.35 300.16 167.12 307.24 168.28 318.06 161.41 327.89 150.91 331.56 138.82 330.65 131.31 326.21 126.81 315.38 132.08 303.89 123.45 295.42 115.21 279.83 112.99 269.4 112.64 253.02 122.25 226.45"/>
  <polygon class="st26" points="58.67 290.79 66.17 290.79 79.91 289.76 93 283.53 99.9 276.97 107.45 266.36 110.71 261.71 112.64 260.2 115.19 282.08 124.43 296.38 124.43 299.56 107.41 308.71 93.34 309.48 77.02 308.33 63.84 301.31 59.51 294.21 58.67 290.79"/>
  <polygon class="st26" points="239.29 276.76 238.77 285.71 233.98 299.9 230.71 304.73 235 310.24 235 317.81 231.96 324.6 225.51 329.42 221.24 332.17 206.73 331.1 197.9 325.76 193.96 314.07 195.91 304.87 207.62 300.79 218.85 294.41 224.58 278.84 223.95 270.41 239.29 276.76"/>
  <polygon class="st26" points="188.92 200.45 193.96 204.54 212.79 211.88 220.74 215.61 221.5 223.54 226.97 242.52 233.47 252.78 241.7 261.02 249.4 261 258.94 254.03 263.44 241.18 260.99 232.57 256.37 226.13 233.66 205.75 219.2 199.92 188.92 200.45"/>
  <polygon class="st26" points="52.51 123.69 96.27 123.69 97.96 140.65 96.27 148.5 79.94 149.74 59.79 137.96 52.51 129.73 52.51 123.69"/>
  <polygon class="st26" points="267.2 123.81 293.95 124.38 294.54 128.99 289.58 136.59 270.36 147.83 266.09 138.79 267.2 123.81"/>
  <polygon class="st37" points="180.46 174.45 186 177.86 188.27 178.83 190.88 174.75 190.88 169.47 186 166.88 182.1 169.79 180.46 174.45"/>
  <path class="st22" d="M94.54,222.12l4.4,6.7,2.31,6.57s5.14-1.34,5.48-1.42,6.79.22,6.79.22l4.38,1.2,4.35-8.95v-3.56l-13.64-4.83-14.65,2.42.58,1.65Z"/>
  <polygon class="st22" points="293.86 134.7 289.81 148.19 281.85 159.04 276.13 162.79 272.82 162.79 269.75 146.55 286.23 139.46 293.86 134.7"/>
  <polygon class="st22" points="130.17 61.22 134.09 67.82 145.14 75.19 159.65 76.34 167.31 69.83 171 59.41 169.81 56.25 162.81 43.6 161.37 25.81 160.9 10.76 159.66 6.51 151.7 4.1 141.47 7.57 133.92 14.84 129.49 25.81 127.05 30.21 125.09 49.53 129.11 61.41 130.17 61.22"/>
  <polygon class="st22" points="268.47 60.74 264.55 67.35 253.49 74.72 238.98 75.87 231.32 69.36 227.64 58.93 228.82 55.77 235.82 43.13 237.26 25.34 237.73 10.29 238.97 6.04 246.93 3.63 257.16 7.1 264.71 14.36 269.14 25.34 271.58 29.74 273.55 49.05 269.53 60.94 268.47 60.74"/>
  <path class="st22" d="M96.96,159.85c1.17-4.71.69-10.2.57-11.48-2.13.56-4.26,1.13-6.38,1.69l-13.4-.86-10.15-5.59-11.43-6.86-4.94-7.22,1.24,10.87,6.76,13.27,8.05,7.95,8.61,3.19"/>
  <path class="st38" d="M199.95,42.06l-6.28,4.9-3.2,9.96-.46,8.18s2.25,2.33,2.79,2.45,7.15,2.19,7.15,2.19l6.41-.73,6.32-3.9.83-8.96-6.57-11.65-3.92-2.44h-3.06Z"/>
  <polygon class="st22" points="215.06 63.56 218.53 62.28 222.09 59.57 224.49 55.44 225.14 50.47 224.83 50.19 223.66 49.55 221.5 51.7 218.95 52.13 216.76 52.89 214.45 52.38 213.59 53.08 214.45 60.22 215.06 63.56"/>
  <polygon class="st22" points="189.64 63.18 186.17 61.9 182.61 59.2 180.21 55.07 179.56 50.09 179.87 49.82 181.04 49.17 183.21 51.33 185.75 51.75 187.94 52.51 190.25 52 191.11 52.7 190.25 59.84 189.64 63.18"/>
  <path class="st38" d="M113.4,50.9l-9.78.55-4.74,2.3-1.05,1.13.17,2.99,1.88,6.21,3.59,7.73,3.93,2.59,3.06.69c1.17.42,2.35.84,3.52,1.26,2.72-1.17,5.45-2.34,8.17-3.51.98-2.35,1.97-4.71,2.95-7.06v-6.67l-1.67-3.21s-9.59-4.95-10.04-5Z"/>
  <polygon class="st38" points="100.14 73.63 97.99 75.39 96.63 78.72 99.14 81.5 103.11 84.73 107.14 84.79 109.96 77.49 104.02 73.63 100.14 73.63"/>
  <polygon class="st38" points="272.9 75.3 275.05 77.06 276.42 80.39 273.9 83.17 269.94 86.4 265.9 86.46 263.08 79.16 269.02 75.3 272.9 75.3"/>
  <path class="st38" d="M239.01,41.97l-4.26-2.18-3.88-4.75-1.61-2.15-.45,4.37-1.58,4.08,1.01,9.45,2.16,1.77,1.22,2.59c1.06-.14,2.79-.5,4.65-1.57,2.06-1.18,3.31-2.68,3.96-3.57.12-.15,2.03-2.6,1.02-5.36-.58-1.58-1.8-2.41-2.25-2.68Z"/>
  <polygon class="st38" points="271 54.76 275.24 56.55 273.55 62.52 270.74 70.42 266.07 76.82 261.36 76.46 258.53 73.28 269.75 61.61 271 54.76"/>
  <polygon class="st38" points="73.54 112.34 79.44 116.4 86.66 118.82 87.56 122.26 83.85 123.16 77.85 123.67 74.48 120.41 72.32 113.45 73.54 112.34"/>
  <path class="st38" d="M267.52,115.94c.1,0,4.19-3.1,4.19-3.1l1.77-1.86v5.72l-2.25,4.53-2.43,1.71-1.28-.21v-6.8Z"/>
  <path class="st33" d="M155.88,155.53l1.02.95,1.48,1.29,1.36,3.25-.89,2.17-1.84.99-1.14.67-3.84,1.77-5.13,1.04h-4.38l-4-.52-4.89-1.73-4.69-2.51-1.89-2.34-.25-1.66,1.05-1.84,2.98-2.2,2.25-1.01,3.17-.97,4.18-.94c2.18-.09,5.2.02,8.66.91,2.81.72,5.08,1.75,6.77,2.66Z"/>
  <path class="st33" d="M233.97,155.8l-1.02.95-1.48,1.29-1.36,3.25.89,2.17,1.84.99,1.14.67,3.84,1.77,5.13,1.04h4.38s4-.52,4-.52l4.89-1.73,4.69-2.51,1.89-2.34.25-1.66-1.05-1.84-2.98-2.2-2.25-1.01-3.17-.97-4.18-.94c-2.18-.09-5.2.02-8.66.91-2.81.72-5.08,1.75-6.77,2.66Z"/>
  <path class="st31" d="M217.15,127.47c-.19.3-2.78,5.23-2.78,5.23l1.39,1.29,6.22-3.46,8-2.67-.72-1.01-11.92-.38-.19.99Z"/>
  <polygon class="st31" points="239.27 127.19 251.47 126.04 253.19 128.49 256.26 131.98 253.88 132.31 252.19 133.12 249.65 131.12 244.32 128.93 239.69 127.82 239.27 127.19"/>
  <polygon class="st0" points="251.85 132.85 246.11 138.08 240.36 135.46 235.96 134.7 231.9 134.98 227.29 136.38 223.89 138.08 220.31 141.84 217.78 142.67 215.04 139.35 215.04 134.37 220.17 131.54 225.14 129.21 231.6 127.58 238.78 127.82 244.32 128.93 249.01 130.85 251.85 132.85"/>
  <polygon class="st35" points="245.89 138.15 244.64 139.82 237.62 140.1 233.66 141.09 231.78 141.84 225.14 146.17 223.16 148.43 218.09 145.51 220.45 141.57 224.28 138.28 227.49 136.32 233.44 134.77 238.32 134.77 241.19 135.7 244.32 137.02 245.89 138.15"/>
  <polygon class="st25" points="255.49 132.31 255.77 140.1 250.81 147.83 245.15 150.76 237.68 153.67 228.93 152.88 222.65 149.36 223.76 147.25 226.9 144.86 231.9 141.6 235.9 140.1 241.35 139.72 244.13 139.78 244.93 139.11 247 136.82 252.43 132.94 254.92 131.96 255.49 132.31"/>
  <path class="st25" d="M224.59,139.47l.79.31.43.69v.98l-1.04.38h-.73l-.41-.9s.03-.75.08-.83.87-.63.87-.63Z"/>
  <path class="st25" d="M246.01,134.69l-1.18-.27-.51-1.56s.46-.8.51-.89.78-.32.78-.32h.86l.48.13.31.54.23.86-.26.82-.59.7h-.61Z"/>
  <polygon class="st25" points="220.32 132.83 221.98 132.32 223.16 132.67 224.5 134.17 224.37 135.82 223.23 137.58 221.44 137.84 219.84 137.39 219.24 136.18 218.76 134.69 219.79 133.12 220.32 132.83"/>
  <path class="st31" d="M171.84,127.33c.19.3,2.78,5.23,2.78,5.23l-1.39,1.29-6.22-3.46-8-2.67.72-1.01,11.92-.38.19.99Z"/>
  <polygon class="st31" points="149.71 127.06 137.51 125.91 135.79 128.35 132.72 131.84 135.1 132.17 136.79 132.98 139.33 130.98 144.66 128.79 149.29 127.68 149.71 127.06"/>
  <polygon class="st0" points="137.14 132.71 142.87 137.94 148.62 135.33 153.02 134.56 157.08 134.84 161.69 136.25 165.09 137.94 168.68 141.7 171.2 142.53 173.94 139.21 173.94 134.24 168.81 131.41 163.84 129.08 157.38 127.44 150.2 127.68 144.66 128.79 139.97 130.72 137.14 132.71"/>
  <polygon class="st35" points="143.09 138.01 144.34 139.68 151.36 139.97 155.32 140.96 157.2 141.7 163.84 146.03 165.82 148.3 170.89 145.37 168.53 141.43 164.7 138.15 161.49 136.19 155.54 134.64 150.66 134.64 147.79 135.56 144.66 136.88 143.09 138.01"/>
  <polygon class="st25" points="133.49 132.17 133.22 139.97 138.17 147.7 143.83 150.63 151.3 153.53 160.05 152.74 166.33 149.22 165.22 147.12 162.09 144.72 157.08 141.47 153.09 139.97 147.63 139.58 144.85 139.65 144.05 138.98 141.98 136.68 136.55 132.8 134.07 131.83 133.49 132.17"/>
  <path class="st25" d="M164.39,139.33l-.79.31-.43.69v.98s1.04.38,1.04.38h.73s.41-.9.41-.9c0,0-.03-.75-.08-.83s-.87-.63-.87-.63Z"/>
  <path class="st25" d="M142.97,134.55l1.18-.27.51-1.56s-.46-.8-.51-.89-.78-.32-.78-.32h-.86s-.48.13-.48.13l-.31.54-.23.86.26.82.59.7h.61Z"/>
  <polygon class="st25" points="168.66 132.69 167 132.18 165.82 132.53 164.48 134.03 164.61 135.68 165.76 137.44 167.54 137.7 169.14 137.25 169.75 136.04 170.22 134.55 169.19 132.98 168.66 132.69"/>
  <polygon class="st30" points="145.19 144.38 154.15 142.82 179.3 143.16 185.9 146.58 186.38 153.8 184.93 157.3 181.8 159.24 170.15 159.8 153.67 159.24 145.86 158.55 143.09 155.2 143.05 149.17 145.19 144.38"/>
  <polygon class="st30" points="205.62 144.27 214.57 142.7 239.72 143.05 246.33 146.47 246.81 153.68 245.35 157.19 242.22 159.13 230.58 159.69 214.09 159.13 206.29 158.44 203.51 155.09 203.48 149.05 205.62 144.27"/>
  <polygon class="st36" points="271.05 240.92 296.45 265.19 288.39 283.22 253.21 282.08 271.05 240.92"/>
  <polygon points="297.47 266.48 309.44 281.53 288.82 283.2 295.87 266.48 297.47 266.48"/>
  <polygon class="st23" points="125.85 174.09 106.74 216.85 135.94 229.91 140.46 219.72 173.53 208.13 192.26 208.13 200.97 213.03 203.48 222.12 200.15 235.03 187.9 244.05 172.58 244.78 185.25 251.69 253.21 282.08 272.24 238.82 262.99 235.4 261.36 250.91 254.77 257.08 243.62 262.07 237.68 258.95 225.71 239.9 221.98 230.47 221.5 216.48 125.85 174.09"/>
  <path class="st24" d="M103.78,164.8c1.96.68,22.07,9.29,22.07,9.29l-17.74,43.37-23.5-11.85,19.17-40.81Z"/>
  <polygon class="st19" points="66.73 198.05 82.25 205.93 87.21 203.01 102.99 165.07 96.3 160.88 84.88 156.84 79.05 160.27 65.13 191.56 65.13 194.66 66.73 198.05"/>
  <path class="st20" d="M182.75,199.53c1.72.03,3.55.06,5.52.09,19.9.3,26.69.18,26.76,1.31.08,1.34-9.46,3.33-10.48,3.53-1.74.36-5.07.97-9.77,1.17"/>
  <path class="st20" d="M181.74,199.2c16.69.03,35.95,0,57.34-.19,2.74-.07,14.44-.68,24.07-10.04,8.01-7.8,9.85-17.04,10.33-20.16-2.88,4.92-7.67,11.63-15.35,17.25-13.75,10.05-28.02,10.21-55.1,9.81-10.28-.15-19.34-.34-27.35-.56"/>
  <path class="st29" d="M222.17,285.46c-3.45,3.26-13.61,11.97-29.1,13.53-23.67,2.39-39.77-13.91-41.84-16.07,1.05,3.29,3.08,8.16,7.17,12.91,1.98,2.3,4.01,4.07,5.81,5.4,6.72,1.07,13.44,2.14,20.15,3.21l21.74-2.51,12.15-6.94c1.31-3.18,2.61-6.35,3.92-9.53Z"/>
  <path class="st29" d="M95.57,160.78c.53-.07.98-.13,1.35-.19.22-1.11.41-2.29.55-3.55.34-3.09.3-5.89.09-8.29-4.23.91-10.35,1.66-17.56.65-3.72-.52-6.95-1.41-9.61-2.35-6.44-2.48-13.45-6.67-18.24-13.84-.33-.49-.63-.98-.93-1.47,1.61,3.91,3.4,6.93,4.78,9.01,4.62,6.95,10.1,11.53,13.39,13.63.77.49,2.36,1.45,4.05,2.39,2.22,1.24,3.37,1.88,4.92,2.49.28.11.55.21.81.3l4.89-2.61,6.97,1.29,4.54,2.54Z"/>
  <path class="st29" d="M293.76,133c-.74,3.09-2.67,9.3-7.94,15.21-4.79,5.37-10.08,7.98-12.98,9.16-.5-3.3-.99-6.6-1.49-9.89,4.94-2.53,9.89-5.07,14.83-7.6,1.8-1.47,3.64-3.08,5.5-4.84.72-.68,1.41-1.36,2.08-2.03Z"/>
  <path class="st29" d="M167.27,53.68c-.31,1.4-2.61,11.17-10.82,14.8-9.12,4.04-22.34-.93-28.82-13.47,1.73,3.8,3.45,7.6,5.18,11.4l13.65,8.38,9.84,1.27,9.34-4.2,4.03-9.69,1.14-5.06-3.54-3.43Z"/>
  <path class="st29" d="M231.51,53.68c.31,1.4,2.61,11.17,10.82,14.8,9.12,4.04,22.34-.93,28.82-13.47-1.73,3.8-3.45,7.6-5.18,11.4l-13.65,8.38-9.84,1.27-9.34-4.2-4.03-9.69-1.14-5.06,3.54-3.43Z"/>
  <path class="st29" d="M223.83,59.35c-1.46.64-3.05.66-4.46.12-1.08-.41-1.78-1.06-2.23-1.5-2.53-2.54-2.62-6.21-3.17-6.15-.11.01-.25.17-.36.83.42,1.27.48,2.29.46,2.99-.02.51-.11.66-.13,1.55-.01.86-.03,1.72-.04,2.58-.04,1.32-.07,2.63-.11,3.95,1.45-.51,2.97-1.1,4.54-1.77,1.98-.84,3.81-1.72,5.5-2.6Z"/>
  <path class="st29" d="M180.02,58.61c1.46.64,3.05.66,4.46.13,1.08-.41,1.78-1.06,2.23-1.5,2.53-2.54,2.62-6.21,3.17-6.15.11.01.25.17.36.83-.42,1.27-.48,2.29-.46,2.99.02.51.11.66.13,1.55.01.86.03,1.72.04,2.58.04,1.32.07,2.63.11,3.95-1.45-.51-2.97-1.1-4.54-1.77-1.98-.84-3.81-1.72-5.5-2.6Z"/>
  <path class="st21" d="M191.71,60.04c.43.54,4.6,5.69,11.61,5.46,6.43-.21,10.15-4.8,10.66-5.45-.75,2.49-1.5,4.98-2.24,7.47l-13.48,1.14-6.79-3.41.24-5.22Z"/>
  <path class="st21" d="M101.2,68.02c5.89,3.24,12.78,2.44,16.77-1.61,3.74-3.8,3.5-9.01,3.43-10.02,1.22,1.11,2.44,2.21,3.65,3.32-.15,2.51-.31,5.02-.46,7.54-1.47,2.08-2.94,4.17-4.41,6.25-2.61.79-5.21,1.59-7.82,2.38-1.29-.16-2.58-.33-3.88-.49-1.07-.53-2.47-1.37-3.88-2.67-1.08-1-1.88-2-2.46-2.84-.32-.62-.64-1.23-.96-1.85Z"/>
  <path class="st21" d="M97.56,81.01c3.04,1.71,6.61,1.29,8.67-.85,1.93-2.01,1.81-4.76,1.77-5.29.63.58,1.26,1.17,1.89,1.75-.08,1.33-.16,2.65-.24,3.98-.76,1.1-1.52,2.2-2.28,3.3-1.35.42-2.7.84-4.04,1.26-.67-.09-1.34-.17-2-.26-.55-.28-1.28-.72-2.01-1.41-.56-.53-.97-1.06-1.27-1.5-.17-.33-.33-.65-.5-.98Z"/>
  <path class="st21" d="M120.21,53.16c.59-.08,2.13-.36,3.46-1.63,2.07-1.99,1.87-4.73,1.83-5.11v9.84c-.8-.07-1.59-.15-2.39-.22-.97-.96-1.93-1.92-2.9-2.88Z"/>
  <path class="st21" d="M272.36,84.02c-.51.02-2.92.03-4.99-1.82-2.09-1.86-2.33-4.28-2.37-4.78l-1.91,1.48.98,2.33c.47.86.94,1.72,1.41,2.59.47.68.94,1.36,1.41,2.05.69.5,1.38,1,2.07,1.5l1.9-.65c.5-.9,1-1.8,1.5-2.7Z"/>
  <path class="st21" d="M269.85,71.85c-.92.27-3.68.96-6.63-.32-1.3-.56-2.23-1.33-2.83-1.94-.15,2.22-.29,4.45-.44,6.67,1.42-.07,2.84-.15,4.27-.22,1.88-1.4,3.75-2.79,5.63-4.19Z"/>
  <path class="st21" d="M163.97,42.26c.13.73.91,4.89,4.75,7.3,2.17,1.36,4.32,1.54,5.37,1.56-1.01,1.49-2.01,2.97-3.02,4.46l-5.94-7.16-2.29-4.37,1.13-1.78Z"/>
  <path class="st21" d="M241.18,45.43c-.21.47-1.77,3.83-5.55,4.85-2.66.72-4.87-.14-5.58-.45.42,1.74.83,3.49,1.25,5.23,2.7-.79,5.4-1.57,8.1-2.36.81-1.66,1.62-3.32,2.43-4.98-.22-.77-.43-1.53-.65-2.3Z"/>
  <path class="st20" d="M58.67,291.79c10.97,8.87,19.54,10.55,24.91,10.62.1,0,.4,0,.82,0,3.58-.04,15.2-.62,22.2-7.97,3.36-3.53,4.8-7.25,5.34-8.74,1.69-4.62,1.65-8.65,1.6-11.45-.09-4.73-1.02-8.15-.89-8.17.12-.02.8,3.41,2.27,9.64.41,1.72.71,2.98,1.15,4.72,1.62,6.36,2.57,8.85,2.96,9.84.8,2.03,1.21,3.11,2.11,4.5,1.54,2.41,3.37,4.08,4.68,5.13-8.36,3.02-16.71,6.03-25.07,9.05-5.02.3-11.42.25-18.68-.86-5.13-.79-9.6-1.94-13.31-3.12-2.35-1.64-4.7-3.29-7.05-4.93-1.01-2.75-2.02-5.5-3.03-8.25Z"/>
  <path class="st20" d="M152.73,289.83c.76,1.32,1.92,3.31,3.38,5.71,4.46,7.32,4.98,7.42,6.12,9.69,4.13,8.24,2.11,16.48,3.15,16.6.49.06,1.2-2.28,1.68-4.52.73-3.4,1.34-8.51.35-15.01-3.34-1.54-6.67-3.08-10.01-4.61-1.55-2.62-3.11-5.24-4.66-7.86Z"/>
  <path class="st20" d="M215.94,296.76c-1.9,1.24-4.55,3.06-7.54,5.45-4.78,3.81-5.81,4.64-6.66,5.87-2.23,3.24-2.7,6.53-2.85,7.72-.74,5.67,1.43,9.73.86,9.96-.54.21-2.89-3.2-4.13-7.47-1.61-5.53-.77-10.47,0-13.38,4.01-1.05,8.02-2.1,12.03-3.14l8.28-5Z"/>
  <path class="st20" d="M125.83,296.3c.27-.23,2.47,2.92,7.08,5.55,3.7,2.12,6.97,2.76,6.84,3.54-.08.49-1.43.66-2.57.81-1.94.25-3.55-.02-4.55-.26-5.91-7.62-6.99-9.46-6.79-9.64Z"/>
  <path class="st21" d="M72.32,111.35c.97,1.63,2.5,3.75,4.84,5.74,4.41,3.75,9.14,4.85,11.49,5.22h-12.44l-3.02-6.16-.87-4.8Z"/>
  <path class="st21" d="M273.05,110.96c-.49,1.63-1.25,3.75-2.42,5.74-2.21,3.75-4.57,4.85-5.75,5.22,2.08,0,4.15,0,6.23,0l1.51-6.16.43-4.8Z"/>
  <path class="st29" d="M97.62,223.25c1.55.1,5.63.25,10.26-.95,3.72-.97,6-2.33,7.03-3.04-2.83-.42-5.66-.85-8.49-1.27l-4.02,1.73-12.01,1.06,7.22,2.48Z"/>
  <polygon class="st20" points="238.98 282.08 223.95 274.21 224.58 269.78 238.98 274.93 238.98 282.08"/>
  <path class="st20" d="M124.12,224.62c4.33,2.15,8.65,4.31,12.98,6.46l-1.08,4.34c-5.53-2.29-11.07-4.59-16.6-6.88,1.57-1.31,3.13-2.61,4.7-3.92Z"/>
  <path class="st29" d="M224.47,273.44c-22.2-9.3-44.4-18.6-66.61-27.9l8.55-1.17c15.73,6.48,31.46,12.95,47.2,19.43,4.03,1.99,8.06,3.98,12.09,5.98-.41,1.22-.83,2.44-1.24,3.66Z"/>
  <path class="st20" d="M149.49,248.3c-2-.42-11.65-2.65-15.24-10.68-.48-1.07-.9-2.35-1.13-3.88,1.84,1.11,3.68,2.23,5.52,3.34,1.54,1.85,4.91,5.38,10.43,7.56.39.15.78.3,1.16.43"/>
  <path class="st29" d="M150.22,245.06c6.28,2.13,11.7,1.24,13.9.77.72.62,1.45,1.25,2.17,1.87-.78.23-8.63,2.44-16.8.6"/>
  <path class="st27" d="M67.1,189.1c1.32,5.09,5.13,8.99,9.64,9.77,6.21,1.07,13.24-3.87,14.55-11.81-.38,2.35-1,5.08-2.04,8.04-1.62,4.61-3.72,8.26-5.55,10.94-4.81-1.82-9.62-3.63-14.43-5.45l-5.23-5.62,3.06-5.87Z"/>
  <path class="st32" d="M89.34,198.49c2.41,5.07,5.59,9.42,9.64,9.77,9.95.84,19.43-23.02,20.45-22.47.62.33-3.19,9.01-7.94,18.7-2.22,4.53-4.15,8.27-5.55,10.94-4.81-1.82-9.62-3.63-14.43-5.45-2.3-1.45-4.6-2.91-6.9-4.36,1.58-2.38,3.15-4.75,4.73-7.13Z"/>
  <polyline class="st34" points="185.68 243.01 256.06 274.47 253.09 281.11 171.81 244.78"/>
  <polyline class="st34" points="135.64 228.61 107.87 216.19 110.84 209.55 139.83 222.51"/>
  <path class="st34" d="M240.91,267.7c1.35.64,5.59,2.43,10.61,1.08,5.47-1.48,9.73-6.14,11.18-12.06l-4.35,14.31-3.93,4.9-8.76-2.49c-1.58-1.91-3.17-3.83-4.75-5.74Z"/>
  <path class="st28" d="M256.87,272.4c2.8,1.91,7.72,4.71,14.43,5.94,9.43,1.72,17.03-.66,20.4-1.96-1.1,2.28-2.21,4.56-3.31,6.85l-34.46-1.54,2.94-9.28Z"/>
  <path class="st20" d="M225.28,236.66c6.23,12.53,16.87,19.8,26.23,18.32,2-.32,5.11-1.21,8.51-4.07-2.04,2.61-4.07,5.22-6.11,7.82l-11.61,3.34-14.11-15.03-2.91-10.38Z"/>
  <path class="st20" d="M137.1,235.03c25.26,9.36,48.92,6.73,58.97-6.42,2.01-2.63,4.15-6.56,5.07-12.38.62,3.17,1.23,6.35,1.85,9.52-.93,2.07-1.85,4.14-2.78,6.21l-7.21,9.07-4.08,1.43-19.67,3.1-22.11-.77-9.41-7.74-.63-2.01Z"/>
  <path class="st9" d="M149.6,253.02s24.23,13.31,53.78,7.19"/>
  <path class="st9" d="M162.56,42.64s7.92-1.24,8.77-7.84c.07-.56.29-1.21.65-1.27,1.21-.21,4.87,6.45,3.82,12.98-.86,5.33-4.54,8.67-6.02,9.87"/>
  <path class="st9" d="M233.21,55.14c-1.89.22-5.16-4.54-6.02-9.87-1.05-6.54,2.61-13.19,3.82-12.98.36.06.57.71.65,1.27.85,6.59,8.77,7.84,8.77,7.84,0,0,3.54,12.51-7.22,13.75Z"/>
  <path class="st9" d="M263.33,77.22c9.29-2.31,11.98-21.09,11.98-21.09-1.38-.54-2.76-1.08-4.14-1.61"/>
  <path class="st9" d="M264.26,77.9s8.28-7.72,12.96,1.42c0,0-3.37,9.3-10.51,7.3"/>
  <path class="st9" d="M235.73,39.57c1.3-5.09,2.23-12.07,1.06-26.54-.35-4.35,1.16-6.32,1.78-7,3.55-3.87,12.71-3.3,21.68,3.35,0,0,19.4,18.23,9.65,49.84,0,0-7.2,17.15-25.92,17.58-1.65.04-3.92-.24-6.46-1.44-9.06-4.28-10.18-16.67-10.29-18.13"/>
  <path class="st9" d="M224.94,56.37l2.29.88c1.22-1.44,2.24-2.85,3.1-4.2"/>
  <path class="st15" d="M268.06,20.95s-18.89-6.25-30.74,4.39"/>
  <path class="st15" d="M233.72,46.22"/>
  <path class="st15" d="M272.46,46.22s-16.3-12.64-32.01-4.79"/>
  <path class="st9" d="M170.75,57.25c-4.16-4.93-6.04-9.42-6.99-12.55-1.85-6.1-4.17-11.87-2.56-31.66.35-4.35-1.16-6.32-1.78-7-3.55-3.87-12.71-3.3-21.68,3.35,0,0-19.4,18.23-9.65,49.84,0,0,7.2,17.15,25.92,17.58,1.65.04,3.92-.24,6.46-1.44,9.06-4.28,10.18-16.67,10.29-18.13Z"/>
  <path class="st15" d="M129.92,20.95s18.89-6.25,30.74,4.39"/>
  <path class="st15" d="M125.52,46.22s21.35-16.56,38.74,0"/>
  <path class="st13" d="M171.08,125.39c2.3,2.91,3.64,6.42,3.64,10.21,0,10.03-9.43,18.15-21.06,18.15s-21.06-8.13-21.06-18.15c0-3.99,1.49-7.67,4.02-10.67"/>
  <path class="st13" d="M128.99,124.94c8.47.44,17.38.69,26.69.66,8.2-.03,16.08-.26,23.62-.66"/>
  <path class="st3" d="M171.31,145.51c-.48-.93-4.88-9.05-14.35-10.57-7.15-1.15-12.56,2.21-13.88,3.08"/>
  <path class="st3" d="M136.63,132.98c2.46-1.71,8.15-5.15,16.08-5.48,12.03-.51,20.22,6.5,22.01,8.11"/>
  <path class="st3" d="M159.87,160.65c-.21,3.75-8.06,6.58-14.01,6.95-9.06.56-19.32-4.27-19.17-8.44.15-4.11,10.4-8.12,19.14-7.02,6.44.81,14.25,4.68,14.04,8.51Z"/>
  <path class="st4" d="M170.15,135.13c0,1.56-1.26,2.82-2.82,2.82s-2.82-1.26-2.82-2.82,1.26-2.82,2.82-2.82,2.82,1.26,2.82,2.82Z"/>
  <path class="st1" d="M141.47,133.12c0,.87.71,1.58,1.58,1.58s1.58-.71,1.58-1.58-.71-1.58-1.58-1.58-1.58.71-1.58,1.58Z"/>
  <path class="st3" d="M133.14,131.54c.9.28,2.12.73,3.49,1.43.88.45,2.94,1.59,5.12,3.66.8.76,1.81,1.83,2.82,3.24.72-.09,1.7-.19,2.88-.2,0,0,3.27-.03,6.46.82,3.52.94,8.63,3.83,13.2,9.08,0,0-13.05,10.94-29.68-2.41,0,0-6.95-7.38-4.29-15.63Z"/>
  <circle class="st1" cx="164.32" cy="140.65" r="1.19"/>
  <path class="st13" d="M218.01,125.39c-2.3,2.91-3.64,6.42-3.64,10.21,0,10.03,9.43,18.15,21.06,18.15s21.06-8.13,21.06-18.15c0-3.99-1.49-7.67-4.02-10.67"/>
  <path class="st13" d="M260.1,124.94c-8.47.44-17.38.69-26.69.66-8.2-.03-16.08-.26-23.62-.66"/>
  <path class="st3" d="M217.78,145.51c.48-.93,4.88-9.05,14.35-10.57,7.15-1.15,12.56,2.21,13.88,3.08"/>
  <path class="st3" d="M252.46,132.98c-2.46-1.71-8.15-5.15-16.08-5.48-12.03-.51-20.22,6.5-22.01,8.11"/>
  <path class="st4" d="M218.94,135.13c0,1.56,1.26,2.82,2.82,2.82s2.82-1.26,2.82-2.82c0-1.56-1.26-2.82-2.82-2.82s-2.82,1.26-2.82,2.82Z"/>
  <path class="st1" d="M247.47,133.12c0,.87-.71,1.58-1.58,1.58s-1.58-.71-1.58-1.58c0-.87.71-1.58,1.58-1.58s1.58.71,1.58,1.58Z"/>
  <path class="st3" d="M255.95,131.54c-.9.28-2.12.73-3.49,1.43-.88.45-2.94,1.59-5.12,3.66-.8.76-1.81,1.83-2.82,3.24-.72-.09-1.7-.19-2.88-.2,0,0-3.27-.03-6.46.82-3.52.94-8.63,3.83-13.2,9.08,0,0,13.05,10.94,29.68-2.41,0,0,6.95-7.38,4.29-15.63Z"/>
  <circle class="st1" cx="224.77" cy="140.65" r="1.19"/>
  <path class="st3" d="M229.98,161.12c.21,3.75,8.06,6.58,14.01,6.95,9.06.56,19.32-4.27,19.17-8.44-.15-4.11-10.4-8.12-19.14-7.02-6.44.81-14.25,4.68-14.04,8.51Z"/>
  <path class="st8" d="M225.26,329.87c.2-.31,1.28-2.12.68-4.37-.45-1.69-1.6-2.65-1.99-2.95"/>
  <path class="st8" d="M211.06,323.99c.3.61.81,1.82.8,3.43-.01,1.78-.66,3.09-1,3.68"/>
  <path class="st9" d="M236.55,256.47"/>
  <path class="st9" d="M195.91,304.87c-2.75,9.04-.65,18.33,5.45,23.47,5.25,4.43,11.72,4.31,13.73,4.27,9.46-.2,15.37-6.33,16.47-7.52.63-.74,4.39-5.3,3.54-11.69-.63-4.76-3.44-7.74-4.39-8.67.75-.95,1.48-1.96,2.18-3.04,5.81-9.03,6.65-18.8,6.38-25.59-46.18-20.87-69.32-31.32-69.32-31.32s23.44,10.59,70.4,31.81"/>
  <path class="st8" d="M137.51,329.42c-.2-.31-1.28-2.12-.68-4.37.45-1.69,1.6-2.65,1.99-2.95"/>
  <path class="st8" d="M151.71,323.53c-.3.61-.81,1.82-.8,3.43.01,1.78.66,3.09,1,3.68"/>
  <path class="st9" d="M165.87,301.73s7.71,16.96-4.47,26.16c-1.73,1.22-6.72,4.42-13.73,4.27-9.46-.2-15.37-6.33-16.47-7.52-.63-.74-4.39-5.3-3.54-11.69.63-4.76,3.44-7.74,4.39-8.67-4.78-3.97-10-9.54-13.85-17.16-14.26-28.24,3.11-59.18,5.22-62.81"/>
  <path class="st9" d="M224.58,270.27c-.23,5.42-.92,10.71-2.03,15.88,0,0,0,0,0,0-.44,1.72-1.3,4.21-3.1,6.79-2.85,4.08-6.46,6.09-8.32,6.96-4.71,2.05-13.27,5.06-24.34,4.97-11.31-.09-19.98-3.38-24.66-5.55-2.16-1.19-5.86-3.65-8.57-8.11-1.06-1.75-1.75-3.43-2.2-4.87,0,0,0,0,0,0-2.3-9.9-3.88-23.33-.96-38.45.1-.69.2-1.38.3-2.07"/>
  <path class="st9" d="M221.5,216.85l-95.64-42.76-19.11,42.76c9.73,4.35,19.47,8.7,29.2,13.05"/>
  <path class="st9" d="M236.54,256.48c-.79-.87-1.59-1.82-2.38-2.83,0,0-15.07-17.61-12.67-36.79"/>
  <path class="st9" d="M210.4,199.97c2.81-.15,7.07-.09,11.97,1.19,2.03.53,8.4,2.36,20.18,11.96,4.64,3.78,10.78,9.31,17.26,16.86.69,1.26,5.21,9.92,1.37,19.29-.7,1.72-4.34,9.92-12.65,11.98-2.72.67-5.11.48-6.7.21-1.63-1.32-3.45-2.96-5.28-4.98"/>
  <path class="st8" d="M261.36,247.89c-.31-.72-.85-1.75-1.77-2.78-.82-.92-1.67-1.53-2.3-1.91"/>
  <path class="st8" d="M257.29,254.03c-.31-.72-.85-1.75-1.77-2.78-.82-.92-1.67-1.53-2.3-1.91"/>
  <path class="st8" d="M251.44,258.33c-.31-.72-.85-1.75-1.77-2.78-.82-.92-1.67-1.53-2.3-1.91"/>
  <path class="st9" d="M136.39,227.5c-1.19,4.36.73,8.38,1.13,9.16,2.69,5.35,8.38,7.17,10.58,7.88.81.26,2.73.82,7.42,1.05,6.57.32,11.37-.48,14.79-.79,4.14-.38,10.3-.87,17.95-1.22,1.34-.53,10.37-4.24,13.46-13.88.43-1.36,3.58-10.9-1.98-17.31-1.92-2.21-4.23-3.31-5.78-3.87-4.3-.44-9.89-.63-16.34.13-1.58.19-7.84,1-16.7,3.93-12.5,4.14-22.46,7.38-24.52,14.93Z"/>
  <path class="st8" d="M200.97,230.86c-.7.35-1.78.79-3.14.98-1.22.17-2.26.1-2.99-.02"/>
  <path class="st8" d="M201.8,223.54c-.7.35-1.78.79-3.14.98-1.22.17-2.26.1-2.99-.02"/>
  <path class="st8" d="M200.92,216.48c-.7.35-1.78.79-3.14.98-1.22.17-2.26.1-2.99-.02"/>
  <path class="st9" d="M109.08,75.24c-9.41-1.79-11.98-21.09-11.98-21.09,18.72-9.78,28.63,4.51,28.63,4.51,0,0,2.2,20.16-16.66,16.57Z"/>
  <path class="st9" d="M125.55,39.97c-.75-.52-2.23-1.41-4.31-1.7-2.52-.36-4.51.35-5.36.72-.67.21-1.75.68-2.35,1.73-.96,1.66-.09,3.72.42,4.89,2.32,5.44,9.51,10.56,11.6,12"/>
  <path class="st9" d="M106.78,84.61c-7.07,2.23-10.51-7.3-10.51-7.3,4.68-9.14,12.96-1.42,12.96-1.42,0,0,3.64,6.8-2.45,8.73Z"/>
  <path class="st10" d="M96.27,123.69h-42.39c-.92.22-1.91.64-2.38,1.51-2.1,3.95,7.88,14.89,18.78,20.24,3.42,1.68,9.06,4.58,16.76,4.27,3.92-.16,7.1-1.08,9.23-1.88"/>
  <path class="st9" d="M51.83,128.87c-.03,1.17-.22,22.39,16.64,32.87,1.76,1.1,3.53,1.96,5.27,2.65l2.89.98,1.76-3.93c1.76-3.94,6.39-5.71,10.33-3.95l7.58,3.39c6.08,1.81,6.67,3.47,6.69,4.19.02.56-.29.91-1.43,3.28-.59,1.22-1.03,2.22-1.31,2.86-4.24,9.49-8.49,18.99-12.73,28.48-.24.54-.57,1.3-.99,2.21-1.51,3.32-1.74,3.56-1.92,3.71-1.8,1.44-6.14-1.16-7.43-1.97l-7.58-3.39c-3.94-1.76-5.71-6.39-3.95-10.33l10.98-24.55"/>
  <path class="st8" d="M87.89,155.75"/>
  <path class="st8" d="M67.6,150.65s1.91,6.54,6.54,3.35c-.76,1.97-.1,4.08,1.41,5.04,1.6,1.02,3.44.28,3.63.2"/>
  <path class="st8" d="M79.18,124.52c-6.91-2.77-6.86-13.61-6.86-13.61,4.58,6.17,13.71,7.61,13.71,7.61.06.03,1.49.86,1.53,2.52.02,1.09-.57,2.11-1.53,2.64-2.29.28-4.57.56-6.86.83Z"/>
  <path class="st8" d="M179.72,48.6c.23.4,1.9,3.24,5.44,3.88,3.76.69,6.45-1.68,6.75-1.96-.55,4.22-1.1,8.44-1.65,12.66-.4-.03-6.87-.62-9.75-6.22-1.94-3.76-1.04-7.43-.78-8.37Z"/>
  <path class="st8" d="M224.66,48.89c-.23.4-1.9,3.24-5.44,3.88-3.76.69-6.45-1.68-6.75-1.96.55,4.22,1.1,8.44,1.65,12.66.4-.03,6.87-.62,9.75-6.22,1.94-3.76,1.04-7.43.78-8.37Z"/>
  <path class="st10" d="M270.36,147.83c1.09-.34,3.22-1.05,5.74-2.27,11.15-5.38,20.89-16.26,18.78-20.24-.46-.87-1.46-1.29-2.38-1.51h-25.29"/>
  <path class="st9" d="M272.79,164.11c1.93-.62,3.63-1.4,5.11-2.26,14.37-8.32,16.29-28.09,16.64-32.87"/>
  <path class="st8" d="M278.78,150.76s-1.91,6.54-6.54,3.35"/>
  <path class="st8" d="M267.2,123.81c6.91-2.77,6.86-13.61,6.86-13.61,0,0-1.49,2.61-7.4,6.6"/>
  <path class="st9" d="M202.26,69.49c3.05-.04,6.32-.07,8.7-2.19,3.13-2.78,2.71-7.31,2.44-10.3,0,0-.61-6.67-5.78-12.28-.65-.71-1.55-1.53-1.55-1.53-1-.92-1.57-1.32-1.82-1.49-.96-.65-1.53-.85-2.11-.9-.24-.02-.43,0-.55,0-.77.02-1.47.29-2.8,1.21-2.01,1.38-2.9,2.22-3.72,3.18-4.41,5.19-4.73,11.82-4.73,11.82-.16,3.36-.37,7.61,2.71,10.3,2.6,2.26,6.17,2.23,9.22,2.19Z"/>
  <path class="st7" d="M193.89,49.13c1.4.69,4.05,1.77,7.54,1.78,4.37,0,7.56-1.68,8.92-2.51"/>
  <path class="st7" d="M191.44,54.55c1.81.97,4.98,2.37,9.15,2.66,5.93.41,10.42-1.66,12.33-2.69"/>
  <path class="st7" d="M191.1,59.88c1.64.95,5.43,2.86,10.62,2.87,5.24.01,9.07-1.92,10.71-2.88"/>
  <path class="st9" d="M102.99,215.18c-2.49.76-5.54,1.48-9.07,1.85-4.6.49-8.59.26-11.68-.16,8.21,2.55,22.22,9.36,17.65,20.21,1.22-.93,5.1-3.63,10.48-3.37,2.72.13,4.85.97,6.18,1.64"/>
  <path class="st8" d="M108.61,218.06c-6.01,1.69-12.12,3.16-18.19,2.27"/>
  <path class="st8" d="M118.53,222.12c-6.69,3.67-13.87,8.66-18.63,14.96"/>
  <path class="st9" d="M149.58,273.69s36.28,19.93,74.19-.2"/>
  <path class="st9" d="M112.64,258.95c-3.37,4.81-6.73,9.62-10.1,14.43-2.18,3.33-6.06,8.22-12.36,12.05-13.74,8.37-28.24,5.16-31.67,4.31.29,2.45,1.15,6.49,4.06,10.18,1.04,1.32,4.37,5.16,14.51,7.76,5.3,1.36,14.73,2.96,26.98.64,3.05-.54,6.97-1.53,11.26-3.45,3.77-1.68,6.8-3.61,9.09-5.31"/>
  <path class="st8" d="M187.49,179.03c1.1-1.36,2.2-2.72,3.3-4.08.2-.35,1.34-2.37.53-4.37-1.02-2.5-4.46-3.41-6.89-2.49-1.48.56-2.32,1.7-2.67,2.25-.52,1.6-1.04,3.2-1.56,4.8"/>
  <rect class="st9" x="142.13" y="143.16" width="44.38" height="16.56" rx="7.32" ry="7.32"/>
  <rect class="st9" x="202.95" y="143.16" width="44.38" height="16.56" rx="7.32" ry="7.32"/>
  <line class="st9" x1="186.52" y1="151.44" x2="202.95" y2="151.44"/>
  <path class="st9" d="M180.78,175.57c1.72,1.33,5.69,4.02,11.48,4.78,5.28.69,9.46-.57,11.48-1.33"/>
  <path class="st9" d="M262.16,235.03l9.61,4.3-19.11,42.76c-4.1-1.83-8.2-3.67-12.3-5.5"/>
  <rect class="st9" x="93.4" y="167.17" width="23.94" height="46.84" transform="translate(86.96 -26.41) rotate(24.09)"/>
  <path class="st9" d="M270.63,238.82c8.61,8.79,17.21,17.58,25.82,26.37l-8.06,18.03c-12.29-.55-24.58-1.1-36.87-1.65"/>
  <polygon class="st9" points="309.79 281.96 288.39 283.22 296.45 265.19 309.79 281.96"/>
  <path class="st9" d="M61.07,289.76c.37-1.57,1.06-3.84,2.41-6.35,1.32-2.46,2.08-3.71,3.09-3.96,2.07-.52,5.21,3.3,7.95,9.02"/>
  <path class="st9" d="M76.21,288.44c-.08-1.61-.06-3.99.53-6.78.58-2.73.96-4.14,1.86-4.67,1.84-1.08,5.93,1.71,10.16,6.44"/>
  <path class="st9" d="M89.82,283.53c-.7-1.45-1.59-3.65-2.12-6.46-.52-2.74-.71-4.19-.09-5.02,1.28-1.71,6.13-.71,11.86,2.01"/>
  <path class="st9" d="M100.17,273.17c-.82-1.39-1.89-3.51-2.65-6.26-.75-2.69-1.06-4.12-.51-5,1.13-1.81,6.04-1.22,11.98,1.02"/>
  <path class="st9" d="M108.6,263.24c-.78-1.41-1.79-3.56-2.47-6.33-.67-2.71-.94-4.15-.36-5.01.89-1.33,3.86-1.25,7.77-.12"/>
  <path class="st9" d="M100.1,65.42c-2.12.8-3.62,1.56-4.69,2.25-6.3,4.03-10.21,9.36-10.21,9.36-3.28,4.38-5.44,11.59-7.23,19.99-1.37,6.43-1.74,12.16-1.7,16.77"/>
  <path class="st9" d="M179.23,56.18c-3.1.13-6.21.25-9.31.38"/>
  <path class="st9" d="M199.55,56.55"/>
  <path class="st9" d="M183.57,199.9c18.26-.12,36.51-.24,54.77-.37,0,0,52.32-2.98,28.07-60.83.36-21.53.32-37.79,0-44.67-.07-1.47-.22-3.86-.86-6.86-.94-4.4-2.43-7.81-3.51-9.95-1.17-1.31-2.34-2.63-3.51-3.94"/>
</svg>