<?xml version="1.0" encoding="UTF-8"?>
<svg id="Layer_1" xmlns="http://www.w3.org/2000/svg" version="1.1" viewBox="0 0 365 335">
  <!-- Generator: Adobe Illustrator 29.7.1, SVG Export Plug-In . SVG Version: 2.1.1 Build 8)  -->
  <defs>
    <style>
      .st0 {
        fill: #5fa8a1;
      }

      .st1, .st2, .st3, .st4, .st5, .st6, .st7, .st8, .st9, .st10, .st11, .st12, .st13, .st14, .st15 {
        stroke-linecap: round;
        stroke-linejoin: round;
      }

      .st1, .st2, .st3, .st6, .st7, .st8, .st9, .st10, .st11, .st12, .st13, .st15 {
        fill: none;
      }

      .st1, .st2, .st4, .st5, .st6, .st7, .st13, .st14, .st15 {
        stroke: #231f20;
      }

      .st1, .st3 {
        stroke-width: .75px;
      }

      .st16 {
        fill: #25544e;
      }

      .st17 {
        fill: #bf6421;
      }

      .st2, .st4, .st9 {
        stroke-width: 2px;
      }

      .st18, .st4 {
        fill: #fdbb28;
      }

      .st3, .st8, .st9, .st10, .st11, .st12 {
        stroke: #000;
      }

      .st5, .st7, .st10 {
        stroke-width: 3px;
      }

      .st5, .st14, .st19 {
        fill: #fb7800;
      }

      .st20 {
        fill: #fff;
      }

      .st6, .st11 {
        stroke-width: 4px;
      }

      .st21 {
        fill: #44968e;
      }

      .st22 {
        fill: #0f2d29;
      }

      .st23 {
        fill: #bc8a26;
      }

      .st24 {
        fill: #194340;
      }

      .st12, .st13 {
        stroke-width: .5px;
      }

      .st25 {
        fill: #edb38b;
      }

      .st26 {
        fill: #cc6274;
      }

      .st27 {
        fill: #addcd8;
      }

      .st28 {
        fill: #ef9eb0;
      }
    </style>
  </defs>
  <path class="st7" d="M207.91,162.06h-56.94c.08,2.4.73,14.49,10.56,23.21,1.97,1.75,8.22,7.12,17.91,7.6,2.42.12,10.94.24,18.48-5.79,11.39-9.1,10.11-23.89,9.99-25.02Z"/>
  <path class="st2" d="M159.37,183.14c3.43-1.85,10.95-5.31,21.07-5.22,10.19.09,17.69,3.72,21.08,5.63"/>
  <polygon class="st2" points="166.56 169.29 171.63 162.49 164.34 162.73 166.56 169.29"/>
  <polygon class="st2" points="192.57 169.29 187.5 162.49 194.79 162.73 192.57 169.29"/>
  <path class="st2" d="M146.91,330.91c-.25-.27-1.67-1.82-1.55-4.14.09-1.75,1-2.92,1.32-3.29"/>
  <path class="st2" d="M159.42,322.29c-.17.65-.41,1.95-.07,3.52.38,1.74,1.26,2.89,1.71,3.4"/>
  <ellipse class="st6" cx="140.19" cy="136.22" rx="20.78" ry="18.14"/>
  <path class="st6" d="M85.09,124.07h-30.91c-.91.22-1.89.64-2.35,1.51-2.07,3.95,7.77,14.88,18.54,20.23,6.48,3.22,12.56,4.06,16.54,4.26"/>
  <path class="st7" d="M90.72,166.94c-3.68.41-13.04.89-22.14-4.83-16.64-10.47-16.46-31.68-16.43-32.85"/>
  <path class="st2" d="M67.72,151.02s1.89,6.54,6.46,3.35c.15.46,1.25,3.75,4.48,4.96,3.1,1.16,6.88-.1,9.1-3.21"/>
  <path class="st7" d="M152,58.81c-4.11-4.93-5.97-9.41-6.9-12.54-1.83-6.1-4.11-11.87-2.53-31.65.35-4.35-1.14-6.32-1.76-6.99-3.51-3.87-12.55-3.3-21.4,3.35,0,0-19.15,18.22-9.52,49.82,0,0,7.11,17.15,25.58,17.57,1.63.04,3.87-.23,6.38-1.43,8.94-4.28,10.05-16.66,10.16-18.12"/>
  <path class="st7" d="M109.56,59.71s-9.79-14.29-28.26-4.51c0,0,2.65,18.77,11.82,21.08"/>
  <path class="st7" d="M107.17,39.46c-.74-.52-2.2-1.41-4.25-1.7-2.49-.36-4.45.35-5.29.72-.66.21-1.73.68-2.32,1.73-.95,1.66-.08,3.71.41,4.89,2.29,5.44,9.38,10.55,11.45,11.99"/>
  <path class="st7" d="M92.2,76.95s-8.18-7.72-12.79,1.42c0,0,3.33,9.29,10.38,7.3"/>
  <path class="st2" d="M85.91,118.08s-9.01-1.44-13.53-7.61c0,0-.05,10.84,6.77,13.61"/>
  <path class="st7" d="M111.69,22.53s18.65-6.24,30.34,4.39"/>
  <path class="st7" d="M107.35,47.79s21.08-16.55,38.24,0"/>
  <path class="st7" d="M144.44,44.11s7.82-1.24,8.66-7.83c.07-.56.28-1.21.64-1.27,1.2-.21,4.81,6.44,3.77,12.98-.85,5.33-4.48,8.67-5.94,9.86"/>
  <path class="st7" d="M214.14,44.68s-7.82-1.24-8.66-7.83c-.84-6.59-11.34,13.82,2.94,22.53"/>
  <path class="st15" d="M120.99,129.25c2.3-1.73,8.82-6.17,18.25-6.45,10.58-.31,17.95,4.81,20.14,6.45"/>
  <path class="st15" d="M157.6,146.12c-.48-.93-4.82-9.05-14.16-10.57-7.05-1.15-12.4,2.21-13.7,3.08"/>
  <path class="st15" d="M123.37,133.59c2.42-1.7,8.04-5.14,15.87-5.48,11.88-.51,19.96,6.5,21.73,8.11"/>
  <path class="st15" d="M145.75,160.21c-.2,3.75-7.96,6.58-13.83,6.95-8.94.56-19.07-4.26-18.92-8.43.15-4.1,10.27-8.12,18.9-7.02,6.36.81,14.06,4.68,13.86,8.5Z"/>
  <path class="st1" d="M156.46,135.75c0,1.56-1.25,2.82-2.79,2.82s-2.79-1.26-2.79-2.82,1.25-2.82,2.79-2.82,2.79,1.26,2.79,2.82Z"/>
  <path class="st13" d="M128.15,133.74c0,.87.7,1.58,1.56,1.58s1.56-.71,1.56-1.58-.7-1.58-1.56-1.58-1.56.71-1.56,1.58Z"/>
  <path class="st15" d="M119.92,132.16c.89.28,2.09.73,3.45,1.43.86.45,2.9,1.59,5.05,3.66.79.76,1.78,1.82,2.79,3.24.71-.09,1.68-.19,2.84-.2,0,0,3.23-.03,6.38.82,3.47.94,8.52,3.83,13.03,9.08,0,0-12.88,10.94-29.3-2.41,0,0-6.86-7.37-4.24-15.62Z"/>
  <ellipse class="st13" cx="150.7" cy="141.26" rx="1.17" ry="1.19"/>
  <ellipse class="st6" cx="220.17" cy="136.42" rx="20.78" ry="18.14"/>
  <path class="st6" d="M274.44,124.27c9.83,0,19.67,0,29.5,0h1.41c.91.22,1.89.64,2.35,1.51,2.07,3.95-7.77,14.88-18.54,20.23-6.48,3.22-12.56,4.06-16.54,4.26"/>
  <path class="st7" d="M269.03,167.16c3.82.4,13,.76,21.92-4.86,16.64-10.47,16.46-31.68,16.43-32.85"/>
  <path class="st2" d="M291.81,151.22s-1.89,6.54-6.46,3.35c-.15.46-1.25,3.75-4.48,4.96-3.1,1.16-6.88-.1-9.1-3.21"/>
  <path class="st7" d="M208.36,59.01c4.11-4.93,5.97-9.41,6.9-12.54,1.83-6.1,4.11-11.87,2.53-31.65-.35-4.35,1.14-6.32,1.76-6.99,3.51-3.87,12.55-3.3,21.4,3.35,0,0,19.15,18.22,9.52,49.82,0,0-7.11,17.15-25.58,17.57-1.63.04-3.87-.23-6.38-1.43-8.94-4.28-10.05-16.66-10.16-18.12Z"/>
  <path class="st2" d="M274.44,118.28s9.01-1.44,13.53-7.61c0,0,.05,10.84-6.77,13.61"/>
  <path class="st7" d="M248.66,22.73s-18.65-6.24-30.34,4.39"/>
  <path class="st7" d="M253,47.99s-21.08-16.55-38.24,0"/>
  <path class="st15" d="M239.36,129.45c-2.3-1.73-8.82-6.17-18.25-6.45-10.58-.31-17.95,4.81-20.14,6.45"/>
  <path class="st15" d="M202.75,146.32c.48-.93,4.82-9.05,14.16-10.57,7.05-1.15,12.4,2.21,13.7,3.08"/>
  <path class="st15" d="M236.98,133.79c-2.42-1.7-8.04-5.14-15.87-5.48-11.88-.51-19.96,6.5-21.73,8.11"/>
  <path class="st15" d="M214.61,160.41c.2,3.75,7.96,6.58,13.83,6.95,8.94.56,19.07-4.26,18.92-8.43-.15-4.1-10.27-8.12-18.9-7.02-6.36.81-14.06,4.68-13.86,8.5Z"/>
  <path class="st1" d="M203.9,135.95c0,1.56,1.25,2.82,2.79,2.82s2.79-1.26,2.79-2.82c0-1.56-1.25-2.82-2.79-2.82-1.54,0-2.79,1.26-2.79,2.82Z"/>
  <path class="st13" d="M232.21,133.94c0,.87-.7,1.58-1.56,1.58s-1.56-.71-1.56-1.58.7-1.58,1.56-1.58,1.56.71,1.56,1.58Z"/>
  <path class="st15" d="M240.43,132.36c-.89.28-2.09.73-3.45,1.43-.86.45-2.9,1.59-5.05,3.66-.79.76-1.78,1.82-2.79,3.24-.71-.09-1.68-.19-2.84-.2,0,0-3.23-.03-6.38.82-3.47.94-8.52,3.83-13.03,9.08,0,0,12.88,10.94,29.3-2.41,0,0,6.86-7.37,4.24-15.62Z"/>
  <ellipse class="st13" cx="209.65" cy="141.46" rx="1.17" ry="1.19"/>
  <path class="st15" d="M169.32,60.5c1.62.95,5.36,2.86,10.48,2.87,5.17.01,8.95-1.92,10.57-2.88"/>
  <path class="st7" d="M250.36,61.01c3.76,1.94,9.26,5.4,13.88,11.36,5.03,6.47,8.93,15.79,8.66,50.41-.08,9.7-.49,23.11-2,39.18-1.3,4.04-3.86,10.42-9.1,16.55-11.56,13.53-28.2,16.57-46.36,19.89-7.4,1.35-18.33,2.82-31.84,2.65h-7.41c-13.51.17-24.43-1.3-31.84-2.65-18.16-3.32-34.8-6.35-46.36-19.89-5.24-6.14-7.81-12.52-9.1-16.55-1.51-16.06-1.93-29.48-2-39.18-.27-34.63,3.64-43.94,8.66-50.41,4.8-6.18,10.54-9.68,14.3-11.57"/>
  <path class="st7" d="M168.37,58.81h-16.38"/>
  <path class="st7" d="M134.68,305.23c-1.69-1.65-3.62-3.81-5.45-6.55-1.21-1.81-5.61-8.67-7.28-22.47-1.59-13.17.23-24.92,2.7-33.92"/>
  <path class="st7" d="M171.89,303.71c2.17,5.43,3.66,13.52-2.23,20.35-1.42,1.54-5.59,5.68-12.39,6.95-9.18,1.72-16.14-3.09-17.45-4.03-.76-.6-5.32-4.3-5.81-10.73-.36-4.78,1.74-8.26,2.47-9.37-.55-.48-1.16-1.03-1.8-1.66"/>
  <path class="st2" d="M214.25,330.91c.25-.27,1.67-1.82,1.55-4.14-.09-1.75-1-2.92-1.32-3.29"/>
  <path class="st2" d="M201.73,322.29c.17.65.41,1.95.07,3.52-.38,1.74-1.26,2.89-1.71,3.4"/>
  <path class="st7" d="M189.26,303.71c-2.17,5.43-3.66,13.52,2.23,20.35,1.42,1.54,5.59,5.68,12.39,6.95,9.18,1.72,16.14-3.09,17.45-4.03.76-.6,5.32-4.3,5.81-10.73.36-4.78-1.74-8.26-2.47-9.37,2-1.74,4.72-4.43,7.25-8.2,1.21-1.81,5.61-8.67,7.28-22.47,1.59-13.11-.22-24.82-2.67-33.8"/>
  <path class="st7" d="M192.22,58.72c5.05.03,10.1.06,15.15.09"/>
  <path class="st7" d="M226.94,232.96c1.83,2.41,4.32,5.24,7.64,7.97,5.63,4.64,11.24,7.06,15.12,8.36,1.57-.31,3.84-.98,6.1-2.56,6.93-4.85,7.35-13.79,7.38-15.64.2-10.1-7.07-16.58-8.15-17.52-5.43-3.21-12.79-6.86-21.93-9.65-8.86-2.7-16.77-3.79-22.94-4.19"/>
  <path class="st7" d="M154.2,215.46"/>
  <path class="st7" d="M121.35,257.48c-3.06,3.8-9.05,10.18-18.63,14.61-14.07,6.5-27.03,4.7-31.87,3.77.19,1.18.58,2.86,1.44,4.72,2.99,6.46,9.11,9.31,13.27,11.18,8.32,3.74,15.72,3.84,21.27,3.85,4.54.01,11.31-.43,19.33-2.72"/>
  <path class="st7" d="M180.11,210.68c3.43-.02,11.06-.06,17.89,3.56,12.11,6.4,15.93,20.94,17.94,31.01,3.83,19.2-.68,39.75-.68,39.75-.43,1.72-1.28,4.21-3.06,6.78-2.81,4.07-6.38,6.09-8.21,6.96-4.64,2.05-13.1,5.06-24.03,4.97-11.16-.09-19.72-3.38-24.34-5.55-2.14-1.19-5.78-3.65-8.46-8.11-1.05-1.75-1.73-3.43-2.17-4.87,0,0,0,0,0,0-1.36-6.03-4.85-22.24-.68-39.75,2.37-9.97,5.84-24.51,17.94-31.01,6.86-3.69,14.5-3.73,17.86-3.75Z"/>
  <path class="st2" d="M104.67,196.55s-25.56,1.27-40.06,12.9"/>
  <path class="st2" d="M84.44,221.24s5.14-13.09,21.54-23.98"/>
  <path class="st7" d="M121.07,204.91s-8.34-11.37-18.09-14.76c-9.75-3.39-39.6.55-50.2-4.6,0,0,20.46,12.3,11.83,23.91,0,0,20.9-5.37,19.79,13.23.93-.42,3.33-1.33,6.31-.77,4.41.84,6.66,4.26,7.06,4.88"/>
  <path class="st2" d="M115.47,207.25s-2.28-5.8-9.49-9.99c-2.4-1.4-5.35-2.61-8.95-3.38-14.39-3.05-26.46,1.63-37.29-2.98"/>
  <path class="st7" d="M149.48,229.27s30.44,14.62,61.2,0"/>
  <path class="st7" d="M143.4,251.37s35.81,19.92,73.23-.2"/>
  <path class="st7" d="M143.3,273.6s35.81,19.92,73.23-.2"/>
  <path class="st2" d="M262.87,229.74c-.55-.56-1.41-1.33-2.63-1.97-1.09-.57-2.08-.84-2.81-.98"/>
  <path class="st2" d="M261.3,236.91c-.55-.56-1.41-1.33-2.63-1.97-1.09-.57-2.08-.84-2.81-.98"/>
  <path class="st2" d="M257.75,243.76c-.55-.56-1.41-1.33-2.63-1.97-1.09-.57-2.08-.84-2.81-.98"/>
  <path class="st7" d="M134.02,232.96c-1.83,2.41-4.32,5.24-7.64,7.97-5.63,4.64-11.24,7.06-15.12,8.36-1.57-.31-3.84-.98-6.1-2.56-6.93-4.85-7.35-13.79-7.38-15.64-.2-10.1,7.07-16.58,8.15-17.52,5.61-3.24,12.96-6.82,21.93-9.65,7.95-2.51,15.16-3.78,21.09-4.43"/>
  <path class="st2" d="M98.09,229.74c.55-.56,1.41-1.33,2.63-1.97,1.09-.57,2.08-.84,2.81-.98"/>
  <path class="st2" d="M99.66,236.91c.55-.56,1.41-1.33,2.63-1.97,1.09-.57,2.08-.84,2.81-.98"/>
  <path class="st2" d="M103.21,243.76c.55-.56,1.41-1.33,2.63-1.97,1.09-.57,2.08-.84,2.81-.98"/>
  <path class="st7" d="M252.08,61.92s9.79-14.29,28.26-4.51c0,0-2.65,18.77-11.82,21.08"/>
  <path class="st7" d="M254.47,41.68c.74-.52,2.2-1.41,4.25-1.7,2.49-.36,4.45.35,5.29.72.66.21,1.73.68,2.32,1.73.95,1.66.08,3.71-.41,4.89-2.29,5.44-9.38,10.55-11.45,11.99"/>
  <path class="st7" d="M269.44,79.16s8.18-7.72,12.79,1.42c0,0-3.33,9.29-10.38,7.3"/>
  <path class="st7" d="M72.06,276.54c.44-1.55,1.22-3.79,2.67-6.25,1.42-2.4,2.24-3.62,3.25-3.83,2.09-.44,5.07,3.51,7.56,9.35"/>
  <path class="st7" d="M87.24,275.86c-.01-1.61.11-3.98.82-6.75.69-2.7,1.13-4.1,2.05-4.59,1.88-1.01,5.85,1.95,9.88,6.85"/>
  <path class="st7" d="M101.9,272.34c-.46-1.54-1.01-3.86-1.1-6.71-.09-2.79-.06-4.25.69-4.98,1.53-1.49,6.16.24,11.4,3.82"/>
  <path class="st7" d="M113.56,264.63c-.67-1.47-1.51-3.69-1.99-6.5-.46-2.75-.63-4.21.01-5.03,1.11-1.42,4.7-.86,9.2,1.05"/>
  <path class="st2" d="M105.93,197.86s-1.14,18.01-3.56,19.59"/>
  <path class="st2" d="M256.18,196.55s25.56,1.27,40.06,12.9"/>
  <path class="st2" d="M276.41,221.24s-5.14-13.09-21.54-23.98"/>
  <path class="st7" d="M239.78,204.91s8.34-11.37,18.09-14.76c9.75-3.39,39.6.55,50.2-4.6,0,0-20.46,12.3-11.83,23.91,0,0-20.9-5.37-19.79,13.23-.93-.42-3.33-1.33-6.31-.77-4.41.84-6.66,4.26-7.06,4.88"/>
  <path class="st2" d="M245.38,207.25s2.28-5.8,9.49-9.99c2.4-1.4,5.35-2.61,8.95-3.38,14.39-3.05,26.46,1.63,37.29-2.98"/>
  <path class="st2" d="M254.92,197.86s1.14,18.01,3.56,19.59"/>
  <path class="st4" d="M162.2,42.83c.05.24.84,3.79,4.3,5.12,2.37.91,5.07.43,7.02-1.25-1.11,1.04-2.53,2.61-3.75,4.78-1.73,3.08-2.27,5.96-2.45,7.74-.6-.29-5.28-2.67-6.45-8.09-.9-4.18.86-7.48,1.33-8.3Z"/>
  <path class="st4" d="M196.47,42.83c-.42,2.4-2.07,4.38-4.3,5.12-2.72.91-5.04-.44-5.39-.65,1.04,1.06,2.8,3.15,3.81,6.28.74,2.29.81,4.31.75,5.64.6-.29,5.28-2.67,6.45-8.09.9-4.18-.86-7.48-1.33-8.3Z"/>
  <path class="st5" d="M180.12,70.52c3.05-.04,6.32-.07,8.71-2.19,3.13-2.78,2.71-7.32,2.44-10.3,0,0-.61-6.67-5.78-12.28-.65-.71-1.55-1.54-1.55-1.54-1-.92-1.57-1.32-1.82-1.49-.96-.65-1.53-.85-2.11-.9-.24-.02-.43,0-.55,0-.77.02-1.47.29-2.8,1.21-2.01,1.38-2.9,2.22-3.73,3.19-4.41,5.19-4.74,11.83-4.74,11.83-.16,3.36-.37,7.62,2.71,10.3,2.6,2.27,6.17,2.23,9.22,2.19Z"/>
  <path class="st14" d="M171.74,50.15c1.35.67,4.02,1.77,7.54,1.78,3.59.01,6.31-1.11,7.66-1.78"/>
  <path class="st15" d="M179.9,42.18"/>
  <polygon class="st19" points="168.69 58.3 168.09 62.09 169.16 64.87 169.62 66.69 170.64 67.5 172.97 68.32 175.94 69.7 184.47 70.14 190.6 65.06 190.6 58.95 185.62 57.42 168.69 58.3"/>
  <path class="st19" d="M272.92,118.68c1.76-.41,3.52-.82,5.28-1.22l6.17-3.06,2-1.61,1.73-1.93-.48,4.28c-1.18,2.2-2.36,4.41-3.54,6.61-2.33.93-4.66,1.85-6.99,2.78-1.04-.29-2.09-.57-3.13-.86-.34-1.66-.69-3.32-1.03-4.98Z"/>
  <polygon class="st19" points="86.29 118.6 82.41 116.65 76.25 113.58 74.24 111.97 72.52 110.04 73 114.32 75.71 120.8 81.55 124.9 84.64 124.04 86.29 118.6"/>
  <polygon class="st19" points="107.26 55.65 107.08 43.06 107.08 39.35 98.63 37.55 95.06 40.1 94.8 43.06 98.28 49.33 103.26 54.24 107.26 55.65"/>
  <polygon class="st19" points="252.08 59.3 252.28 46.17 252.28 42.29 261.47 40.42 265.36 43.07 265.64 46.17 261.85 52.71 256.44 57.83 252.08 59.3"/>
  <path class="st19" d="M146,43.69l4.47-1.73c1.31-1.5,2.63-3,3.94-4.51.6-.49,1.21-.98,1.81-1.47.14,1.35.27,2.71.41,4.06l1.15,4.22-1.98,9.3-2.33,1.54-1.48,2.45-4.33-6.97-1.66-6.9Z"/>
  <path class="st19" d="M214.8,46.46l-4.58-2.37-4.1-4.92-1.7-2.22c-.9,1.16-1.8,2.31-2.69,3.47.1,1.64.2,3.27.31,4.91l.89,9.5,2.3,1.87,1.27,2.64,5.59-6.28,2.71-6.6Z"/>
  <path class="st19" d="M264.28,54.03l9.78.55,4.74,2.3,1.05,1.13-.17,2.99-1.88,6.21-3.59,7.73-3.93,2.59-3.06.69-2.94-4.9-3.81-5.06-5.38-4.27-2.52-1.75,1.67-3.21s9.59-4.95,10.04-5Z"/>
  <path class="st19" d="M96.56,51.93l-9.78.55-4.74,2.3-1.05,1.13.17,2.99,1.88,6.21,3.59,7.73,3.93,2.59,3.06.69,2.94-4.9,3.81-5.06,5.38-4.27,2.52-1.75-1.67-3.21s-9.59-4.95-10.04-5Z"/>
  <polygon class="st19" points="278.99 76.56 281.14 78.32 282.51 81.65 279.99 84.43 276.02 87.66 271.99 87.73 269.17 80.42 275.11 76.56 278.99 76.56"/>
  <polygon class="st19" points="82.66 74.18 80.51 75.94 79.15 79.27 81.66 82.04 85.63 85.28 89.66 85.34 92.48 78.04 86.54 74.18 82.66 74.18"/>
  <path class="st21" d="M221.49,199.86l8.01,3.64c-4.01,7.15-8.01,14.3-12.02,21.45-2.03,1.59-4.07,3.19-6.1,4.78-.92-2.42-1.84-4.85-2.76-7.27-.83-.93-1.66-1.85-2.49-2.78-2.71-2.11-5.43-4.21-8.14-6.32-1.96-.6-3.91-1.2-5.87-1.8l-8.3.03-10.7,2.25-8.19,3.51-5.81,7.45-4.87,11.87-3.53,16.58-1.09,11.96,1.25,13.6,4.98,14.1,14.26,8.93,3.06,4.78.05,8c-.94,3.2-1.87,6.41-2.81,9.61-2.62,1.95-5.23,3.89-7.85,5.84-2,.63-4.01,1.25-6.01,1.88-2.02.01-4.03.02-6.05.04-1.91-.77-3.81-1.54-5.72-2.31-2.02-.83-4.04-1.66-6.06-2.49-1.35-2.1-2.71-4.21-4.06-6.31-.24-2.81-.48-5.62-.72-8.43.79-1.96,1.58-3.91,2.37-5.87-.31-.23-.62-.45-.93-.68-1.57-1.73-3.14-3.46-4.71-5.18-2.62-5.19-5.23-10.39-7.85-15.58-.44-4.51-.88-9.02-1.32-13.53.01-3.82.03-7.63.04-11.45.6-3.93,1.2-7.86,1.79-11.79.79-2.31,1.58-4.61,2.37-6.92-1.82,1.25-3.64,2.5-5.46,3.74-2.18,1.06-4.36,2.13-6.54,3.19-1.13.3-2.27.6-3.4.9-2.65-1.28-5.31-2.57-7.96-3.85-1.07-2.22-2.13-4.43-3.2-6.65-.47-4-.93-8-1.4-12,1.92-3.84,3.84-7.68,5.75-11.51,5.75-2.96,11.51-5.91,17.26-8.87,4.47-1.14,8.95-2.28,13.42-3.41,3.31-.96,6.61-1.92,9.92-2.88,4.84-.09,9.69-.17,14.53-.26l32.46,2.36,17.11-1.47,13.28-.89Z"/>
  <path class="st21" d="M139.47,199.17l-8.01,3.64c4.01,7.15,8.01,14.3,12.02,21.45,2.03,1.59,4.07,3.19,6.1,4.78.92-2.42,1.84-4.85,2.76-7.27.83-.93,1.66-1.85,2.49-2.78,2.71-2.11,5.43-4.21,8.14-6.32,1.96-.6,3.91-1.2,5.87-1.8l8.3.03,10.7,2.25,8.19,3.51,5.81,7.45,4.87,11.87,3.53,16.58,1.09,11.96-1.25,13.6-4.98,14.1-14.26,8.93-3.06,4.78-.05,8c.94,3.2,1.87,6.41,2.81,9.61,2.62,1.95,5.23,3.89,7.85,5.84,2,.63,4.01,1.25,6.01,1.88,2.02.01,4.03.02,6.05.04,1.91-.77,3.81-1.54,5.72-2.31,2.02-.83,4.04-1.66,6.06-2.49,1.35-2.1,2.71-4.21,4.06-6.31.24-2.81.48-5.62.72-8.43-.79-1.96-1.58-3.91-2.37-5.87.31-.23.62-.45.93-.68,1.57-1.73,3.14-3.46,4.71-5.18,2.62-5.19,5.23-10.39,7.85-15.58.44-4.51.88-9.02,1.32-13.53-.01-3.82-.03-7.63-.04-11.45-.6-3.93-1.2-7.86-1.79-11.79-.79-2.31-1.58-4.61-2.37-6.92,1.82,1.25,3.64,2.5,5.46,3.74,2.18,1.06,4.36,2.13,6.54,3.19,1.13.3,2.27.6,3.4.9,2.65-1.28,5.31-2.57,7.96-3.85,1.07-2.22,2.13-4.43,3.2-6.65.47-4,.93-8,1.4-12-1.92-3.84-3.84-7.68-5.75-11.51-5.75-2.96-11.51-5.91-17.26-8.87-4.47-1.14-8.95-2.28-13.42-3.41-3.31-.96-6.61-1.92-9.92-2.88-4.84-.09-9.69-.17-14.53-.26l-32.46,2.36-17.11-1.47-13.28-.89Z"/>
  <path class="st18" d="M115.47,207.65c-4.56,3.26-9.13,6.53-13.69,9.79-1.34,2.61-2.67,5.22-4.01,7.83-4.44-1.34-8.89-2.69-13.33-4.03l.49-2.46-.77-4.16c-1.15-1.13-2.29-2.25-3.44-3.38l-4.23-2.24-7.18-.47-3.24.23.97-4.6-.52-4.02-2.39-3.36c-.76-1.49-1.53-2.99-2.29-4.48,1.47.23,2.94.47,4.4.7,4.33-.21,8.66-.43,12.99-.64l8.76-.52c1.85.28,3.71.56,5.56.84,1.98.34,3.96.68,5.94,1.02,2.46,1.06,4.92,2.13,7.39,3.19l2.68,2.43,2.44,3.19c1.16,1.72,2.32,3.44,3.48,5.16Z"/>
  <path class="st18" d="M245.8,206.76c4.56,3.26,9.13,6.53,13.69,9.79,1.34,2.61,2.67,5.22,4.01,7.83,4.44-1.34,8.89-2.69,13.33-4.03-.16-.82-.33-1.64-.49-2.46l.77-4.16c1.15-1.13,2.29-2.25,3.44-3.38,1.41-.75,2.82-1.5,4.23-2.24l7.18-.47,3.24.23-.97-4.6.52-4.02,2.39-3.36c.76-1.49,1.53-2.99,2.29-4.48-1.47.23-2.94.47-4.4.7-4.33-.21-8.66-.43-12.99-.64l-8.76-.52c-1.85.28-3.71.56-5.56.84-1.98.34-3.96.68-5.94,1.02-2.46,1.06-4.92,2.13-7.39,3.19l-2.68,2.43-2.44,3.19c-1.16,1.72-2.32,3.44-3.48,5.16Z"/>
  <path class="st21" d="M60.31,190.53l-2.78-2.43c2.57.28,5.27.5,8.11.62,5.14.22,9.91.11,14.24-.2,4.94.32,9.87.63,14.81.95,3.76.66,7.53,1.33,11.29,1.99,2.24,1.53,4.47,3.07,6.71,4.6l7.73,9.17c-.57.67-1.14,1.35-1.7,2.02-.96.05-1.93.09-2.89.14-2.2-2.63-4.4-5.27-6.59-7.9-2.16-1.36-4.33-2.73-6.49-4.09-3.47-.83-6.94-1.67-10.4-2.5h-8.49c-1.89-.1-3.79-.21-5.68-.31-2.34.28-4.68.55-7.02.83-3.35-.41-6.7-.83-10.04-1.24l-.78-1.65Z"/>
  <path class="st21" d="M300.44,190.04l2.78-2.43c-2.57.28-5.27.5-8.11.62-5.14.22-9.91.11-14.24-.2-4.94.32-9.87.63-14.81.95-3.76.66-7.53,1.33-11.29,1.99-2.24,1.53-4.47,3.07-6.71,4.6-2.58,3.06-5.15,6.12-7.73,9.17.57.67,1.14,1.35,1.7,2.02.96.05,1.93.09,2.89.14,2.2-2.63,4.4-5.27,6.59-7.9,2.16-1.36,4.33-2.73,6.49-4.09,3.47-.83,6.94-1.67,10.4-2.5,2.83,0,5.66,0,8.49,0,1.89-.1,3.79-.21,5.68-.31,2.34.28,4.68.55,7.02.83,3.35-.41,6.7-.83,10.04-1.24l.78-1.65Z"/>
  <path class="st21" d="M121.35,270.1c1.3,6.43,2.59,12.86,3.89,19.29l2.2,4.31c-3.26.29-6.51.57-9.77.86-2.81.35-5.62.7-8.43,1.05-6.41-.67-12.82-1.33-19.23-2-4.66-2.24-9.33-4.48-13.99-6.72-1.08-1.77-2.15-3.54-3.23-5.31-.5-1.23-1-2.46-1.5-3.69.9-.68,1.81-1.36,2.71-2.03,3.73.06,7.47.12,11.2.18,4.29-.69,8.59-1.39,12.88-2.08,1.81-.75,3.62-1.5,5.43-2.25,3.25-1.76,6.5-3.52,9.74-5.28,2.3-2.09,4.6-4.18,6.89-6.27.7,1,1.4,1.99,2.11,2.99-.31,2.31-.61,4.63-.92,6.94Z"/>
  <path class="st18" d="M87.45,150.27c-1.82-.66-3.63-1.32-5.45-1.98l-11.88-4.09-9.33-6.12-7.93-4.48c-.23,1.83-.47,3.66-.7,5.49,2.13,4.56,4.27,9.12,6.4,13.67,2.44,2.54,4.88,5.08,7.33,7.62,2.14,1.27,4.84,2.64,8.05,3.81,2.9,1.05,5.56,1.7,7.84,2.12,3.65-.21,7.31-.43,10.96-.64-1.76-5.13-3.52-10.27-5.28-15.4Z"/>
  <path class="st18" d="M270.92,152.03c1.82-.66,3.63-1.32,5.45-1.98l11.88-4.09,9.33-6.12,7.93-4.48c.23,1.83.47,3.66.7,5.49-2.13,4.56-4.27,9.12-6.4,13.67-2.44,2.54-4.88,5.08-7.33,7.62-2.14,1.27-4.84,2.64-8.05,3.81-2.9,1.05-5.56,1.7-7.84,2.12-3.65-.21-7.31-.43-10.96-.64,1.76-5.13,3.52-10.27,5.28-15.4Z"/>
  <polygon class="st19" points="72.88 275.66 82.65 276.21 85.82 275.66 82.34 270.11 77.4 266.23 75.34 268.64 72.88 275.66"/>
  <polygon class="st19" points="88.14 275.21 97.77 273.46 100.72 272.19 96.04 267.61 90.34 264.99 88.89 267.81 88.14 275.21"/>
  <polygon class="st19" points="103.08 271.58 111.36 266.36 113.62 264.08 107.57 261.58 101.3 261.28 101.02 264.44 103.08 271.58"/>
  <path class="st19" d="M114.19,263.76c1.85-1.83,3.7-3.67,5.55-5.5l1.6-2.67c-1.4-.66-2.81-1.33-4.21-1.99-1.64-.1-3.28-.21-4.92-.31-.25.83-.49,1.66-.74,2.49.9,2.66,1.81,5.32,2.71,7.98Z"/>
  <path class="st21" d="M120.2,57.67l-10.36,1.32-7.02,4.91c-1.98,2.41-3.95,4.83-5.93,7.24-1.55,2.38-3.17,5.17-4.69,8.38-1.82,3.83-3.11,7.42-4.03,10.55-.26,4.71-.53,9.42-.79,14.12-.59,5.09-1.18,10.18-1.77,15.26.14,6.43.51,13.28,1.2,20.5.89,9.33,2.18,17.98,3.68,25.87l3.61,6.99c3.66,4.11,7.33,8.22,10.99,12.32,4.34,2.26,8.67,4.51,13.01,6.77l27.65,6.61,29.75,2.42,36.6-2.12,27.2-6.05,6.05-2.27c5.11-3.9,10.22-7.79,15.33-11.69.98-.78,2.34-1.99,3.73-3.65,2.7-3.22,3.92-6.25,4.62-8.01,3.54-8.81,4.44-22.94,4.51-24.13.14-7.73.28-15.46.42-23.19-.67-8.68-1.33-17.35-2-26.03-1.7-5.91-3.41-11.81-5.11-17.72-3.44-4.3-6.89-8.61-10.33-12.91-3.39-1.87-6.78-3.74-10.17-5.61l-51.27,1.09-74.87-.99Z"/>
  <polygon class="st21" points="85.64 123.8 53.39 123.6 51.01 125.11 53.24 130.3 63.2 142.39 75.8 147.74 87.45 150.56 85.64 123.8"/>
  <polygon class="st21" points="273.9 124.21 306.14 124.01 308.52 125.52 306.29 130.71 296.33 142.8 283.73 148.15 272.08 150.97 273.9 124.21"/>
  <polygon class="st18" points="165.6 301.19 155.13 298.12 144.79 288.55 142.56 276.78 141.56 265.21 143.77 242.97 151.56 223.19 161.16 215.03 175.17 210.97 186.54 211.7 197.9 214.63 202.49 218.21 210.79 228.52 215 242.37 217.68 256.08 217.3 273.23 215.51 287.02 209.15 295.69 197.64 302.21 183.09 304.05 165.6 301.19"/>
  <polygon class="st18" points="111.71 62.79 115.63 69.39 126.68 76.76 141.19 77.92 148.85 71.41 152.54 60.98 151.36 57.82 144.35 45.17 142.91 27.39 142.45 12.33 141.2 8.08 133.24 5.67 123.01 9.15 115.47 16.41 111.03 27.39 108.6 31.78 106.63 51.1 110.65 62.98 111.71 62.79"/>
  <polygon class="st18" points="248.79 62.79 244.88 69.39 233.82 76.76 219.31 77.92 211.65 71.41 207.96 60.98 209.15 57.82 216.15 45.17 217.59 27.39 218.06 12.33 219.3 8.08 227.26 5.67 237.49 9.15 245.04 16.41 249.47 27.39 251.91 31.78 253.88 51.1 249.85 62.98 248.79 62.79"/>
  <path class="st26" d="M163.07,162.29h-11.78l1.24,7.91,4.64,10.79,2.35,2.11s5.07-2.6,5.45-2.82,7.09-2.13,7.09-2.13l7.62-.68,10.73,1.3,10.03,3.21,3.47-2.66,3.77-12.65v-5.65l-44.62,1.28Z"/>
  <polygon class="st28" points="159.53 183.11 162.86 186.19 175.37 192 188.08 191.77 197.27 186.12 200.84 183.06 190.9 178.98 181.76 177.57 169.44 178.46 160.12 181.85 159.53 183.11"/>
  <path class="st19" d="M177.37,43.15l-5.68,5.23-2.4,10,.11,8.08s2.31,2.14,2.83,2.22,6.99,1.68,6.99,1.68l6.09-1.14,5.79-4.25.19-8.86-7.08-11.02-3.92-2.14-2.93.2Z"/>
  <polygon class="st25" points="142.07 155.08 143.1 156.03 144.59 157.32 145.96 160.57 145.07 162.74 143.22 163.73 142.07 164.41 138.2 166.18 133.04 167.22 128.62 167.22 124.59 166.71 119.66 164.98 114.94 162.47 113.04 160.12 112.79 158.47 113.85 156.62 116.85 154.42 119.12 153.42 122.31 152.45 126.52 151.51 142.07 155.08"/>
  <polygon class="st25" points="218.29 155.08 217.26 156.03 215.77 157.32 214.39 160.57 215.29 162.74 217.14 163.73 218.29 164.41 222.15 166.18 227.32 167.22 231.73 167.22 235.76 166.71 240.69 164.98 245.41 162.47 247.32 160.12 247.57 158.47 246.51 156.62 243.5 154.42 241.24 153.42 238.05 152.45 233.84 151.51 218.29 155.08"/>
  <polygon class="st22" points="124 126.46 124.96 126.75 129.46 124.8 134.99 123.4 137.89 122.99 141.34 122.99 148.43 124.1 154.56 126.23 156.68 126.75 156.59 123.82 148 119.6 135.59 119.6 126.64 121.91 124 126.46"/>
  <polygon class="st24" points="123.05 126.75 121.89 129.46 120.64 132.75 122.09 133.26 123.67 133.95 124.33 132.97 125.78 132.12 127.92 131.04 131.05 129.95 133.23 129.18 136.45 128.56 139.66 128.3 141.2 128.31 144.11 128.54 148.58 129.46 153.07 131.15 156.41 132.93 158.69 134.44 161.6 135.53 160.03 130.55 157.05 126.51 154.94 126.6 150.75 124.91 144.79 123.18 136.84 122.99 131.86 124.06 123.05 126.75"/>
  <polygon class="st27" points="129.47 138.57 130.68 140.29 135.64 140.59 142.41 142.04 146.89 144.18 149.21 146.35 152.68 149.46 155.95 148.4 157.05 145.5 156.68 144.37 154.51 141.49 151.75 139.38 147.86 137.09 144.07 135.97 139.76 135.53 135.97 136.02 133.57 136.9 129.47 138.57"/>
  <polygon class="st0" points="158.34 144.9 160.83 137.23 159.55 135.09 156.94 133.26 153.26 131.23 149.56 129.83 144.94 128.71 138.27 128.3 135.83 128.56 131.66 129.74 125.82 131.87 123.52 133.4 123.32 133.95 124.86 134.79 128.39 137.69 129.89 138.78 132.86 137.09 138.7 135.53 142.54 135.75 145.6 136.44 148.38 137.23 151.75 139.38 154.76 142.15 157.27 145.5 158.34 144.9"/>
  <polygon class="st20" points="153.05 132.99 155.45 133.46 156.68 135.13 156.31 137.21 154.87 138.51 151.85 137.79 150.94 136.22 150.94 134.34 153.05 132.99"/>
  <polygon class="st20" points="120.64 133.14 121.63 133.14 125.3 135.16 129.47 138.57 130.41 139.94 131 140.72 131.62 140.94 136.47 140.66 140.43 141.49 147.39 144.83 151.59 148.34 152.26 149.49 150.2 153.23 135.93 154.6 124.91 150.4 121.25 144.57 120.64 133.14"/>
  <polygon class="st20" points="129.33 132.16 130.62 132.42 131.28 133.38 131.08 134.58 130.3 135.32 128.68 134.9 128.19 134.01 128.19 132.93 129.33 132.16"/>
  <polygon class="st20" points="150.49 140.29 151.32 140.5 151.75 141.22 151.63 142.12 151.12 142.68 150.07 142.36 149.75 141.69 149.75 140.88 150.49 140.29"/>
  <polygon class="st22" points="236.31 126.38 235.35 126.68 230.85 124.72 225.33 123.32 222.42 122.92 218.97 122.92 211.88 124.02 205.75 126.15 203.63 126.68 203.73 123.75 212.31 119.53 224.72 119.53 233.68 121.83 236.31 126.38"/>
  <polygon class="st24" points="237.26 126.68 238.42 129.39 239.67 132.67 238.23 133.18 236.65 133.88 235.98 132.89 234.53 132.04 232.39 130.97 229.26 129.88 227.08 129.1 223.86 128.49 220.65 128.22 219.12 128.23 216.2 128.46 211.73 129.39 207.24 131.07 203.91 132.85 201.63 134.37 198.71 135.46 200.29 130.48 203.26 126.43 205.37 126.53 209.56 124.83 215.52 123.1 223.48 122.92 228.46 123.99 237.26 126.68"/>
  <polygon class="st27" points="230.84 138.5 229.63 140.22 224.67 140.51 217.91 141.96 213.42 144.1 211.1 146.27 207.63 149.39 204.36 148.32 203.26 145.43 203.63 144.29 205.8 141.41 208.56 139.3 212.45 137.01 216.24 135.89 220.55 135.46 224.34 135.94 226.74 136.83 230.84 138.5"/>
  <polygon class="st0" points="201.97 144.82 199.48 137.16 200.76 135.02 203.37 133.18 207.06 131.16 210.75 129.76 215.37 128.63 222.04 128.22 224.48 128.49 228.66 129.66 234.49 131.79 236.79 133.33 237 133.88 235.45 134.72 231.92 137.61 230.42 138.71 227.45 137.01 221.61 135.46 217.78 135.67 214.71 136.37 211.93 137.16 208.56 139.3 205.55 142.07 203.05 145.43 201.97 144.82"/>
  <polygon class="st20" points="207.39 133.25 205.09 133.72 203.9 135.39 204.25 137.47 205.65 138.77 208.55 138.05 209.43 136.48 209.43 134.6 207.39 133.25"/>
  <polygon class="st20" points="239.67 133.07 238.68 133.07 235.01 135.09 230.84 138.5 229.9 139.86 229.31 140.64 228.7 140.87 223.85 140.58 219.88 141.41 212.92 144.75 208.72 148.27 208.05 149.42 210.11 153.15 224.39 154.53 235.4 150.33 239.06 144.49 239.67 133.07"/>
  <polygon class="st20" points="230.99 132.36 229.7 132.62 229.03 133.58 229.23 134.78 230.01 135.52 231.63 135.1 232.12 134.21 232.12 133.13 230.99 132.36"/>
  <polygon class="st20" points="209.92 140.22 209.08 140.42 208.65 141.14 208.78 142.04 209.28 142.6 210.34 142.29 210.65 141.61 210.65 140.8 209.92 140.22"/>
  <polygon class="st20" points="164.78 162.72 166.41 168.27 172.25 162.05 164.78 162.72"/>
  <polygon class="st20" points="187.5 162.49 192.57 169.29 194.79 162.49 187.5 162.49"/>
  <path class="st16" d="M208.76,200.2c.35,2.02-13.74,6.98-28.91,7.05-15.55.07-29.99-5.01-29.64-7.05.25-1.45,9.92-1.45,29.27-1.46,19.35,0,29.02,0,29.27,1.46Z"/>
  <path class="st16" d="M272.53,153.93c-3.82,7.6-10.69,18.57-22.68,27.4-18.78,13.83-38.54,13.9-68.5,14.01-29.98.11-49.67.19-68.68-13.4-12.5-8.94-19.69-20.2-23.69-28.01-.05,4.1.46,12.84,6.01,21.41,5.24,8.09,12.2,11.94,15.28,13.42,9.67,4.72,18.06,7.22,24.05,8.62,11.04,2.59,20.03,2.92,33.56,3.42,8.79.32,16.12.25,21.27.11,5.75-.32,11.51-.64,17.26-.96,9.72-1.31,19.44-2.62,29.16-3.94,4.63-1.16,13.46-4.06,21.64-11.68,12.39-11.55,14.77-26,15.32-30.4Z"/>
  <path class="st23" d="M214.62,285.73c-3.62,2.83-17.02,12.6-36.44,11.94-17.09-.58-28.75-8.9-32.64-11.94.93,2.34,2.48,5.47,5.06,8.68,1.96,2.44,3.98,4.25,5.66,5.55,6.69,1.25,13.37,2.49,20.06,3.74l21.8-1.94,12.33-6.61c1.39-3.14,2.78-6.28,4.17-9.42Z"/>
  <path class="st23" d="M51.95,134.51c1.43,2.44,3.48,5.6,6.32,9.01,1.96,2.36,5.48,6.54,10.72,10.33,3.48,2.51,9.95,6.45,19.5,8.37-.68-3.96-1.35-7.92-2.03-11.89l-17.84-4.82c-4.37-3.26-9.1-6.47-14.19-9.53-.83-.5-1.66-.99-2.49-1.47Z"/>
  <path class="st23" d="M307.38,134.72c-1.43,2.44-3.48,5.6-6.32,9.01-1.96,2.36-5.48,6.54-10.72,10.33-3.48,2.51-9.95,6.45-19.5,8.37.68-3.96,1.35-7.92,2.03-11.89l17.84-4.82c4.37-3.26,9.1-6.47,14.19-9.53.83-.5,1.66-.99,2.49-1.47Z"/>
  <path class="st23" d="M148.33,56.08c-.31,1.4-2.61,11.17-10.82,14.8-9.12,4.04-22.34-.93-28.82-13.47,1.73,3.8,3.45,7.6,5.18,11.4l13.65,8.38,9.84,1.27,9.34-4.2,4.03-9.69,1.14-5.06-3.54-3.43Z"/>
  <path class="st23" d="M212.6,56.08c.31,1.4,2.61,11.17,10.82,14.8,9.12,4.04,22.34-.93,28.82-13.47-1.73,3.8-3.45,7.6-5.18,11.4l-13.65,8.38-9.84,1.27-9.34-4.2-4.03-9.69-1.14-5.06,3.54-3.43Z"/>
  <path class="st23" d="M160.73,52.04c1.33,1.62,3.51,2.28,5.48,1.66,2.07-.65,3.51-2.56,3.58-4.76.01.64.03,1.29.05,1.94.01.42.03.84.04,1.26-.33.76-.67,1.51-1,2.27-.32.61-.64,1.21-.96,1.82-.48.94-.96,1.87-1.44,2.81-.88-.93-1.78-1.93-2.69-3.02-1.14-1.36-2.16-2.7-3.08-3.98Z"/>
  <path class="st23" d="M198.51,52.04c-1.33,1.62-3.51,2.28-5.48,1.66-2.07-.65-3.51-2.56-3.58-4.76-.01.64-.03,1.29-.05,1.94-.01.42-.03.84-.04,1.26.33.76.67,1.51,1,2.27.32.61.64,1.21.96,1.82.48.94.96,1.87,1.44,2.81.88-.93,1.78-1.93,2.69-3.02,1.14-1.36,2.16-2.7,3.08-3.98Z"/>
  <path class="st17" d="M86.67,68.27c.95.14,6.41.84,11.27-2.96,4.33-3.39,5.25-8.07,5.44-9.19,1.94,1.42,2.82,2.04,3.24,2.32.06.04.29.2.61.41.44.3.79.56,1.01.72-.67,1.26-1.33,2.53-2,3.79l-6.41,2.61-3.18,5.34-2.67,4.31c-1.07-.53-2.47-1.37-3.88-2.67-1.08-1-1.88-2-2.46-2.84-.32-.62-.64-1.23-.96-1.85Z"/>
  <path class="st17" d="M83.2,82.69c.51.02,2.92.03,4.99-1.82,2.09-1.86,2.33-4.28,2.37-4.78l1.91,1.48-.98,2.33c-.47.86-.94,1.72-1.41,2.59-.47.68-.94,1.36-1.41,2.05-.69.5-1.38,1-2.07,1.5l-1.9-.65c-.5-.9-1-1.8-1.5-2.7Z"/>
  <path class="st17" d="M102.55,52c.59-.08,2.13-.36,3.46-1.63,2.07-1.99,1.87-4.73,1.83-5.11v9.84c-.8-.07-1.59-.15-2.39-.22-.97-.96-1.93-1.92-2.9-2.88Z"/>
  <path class="st17" d="M275.44,70.09c-.95.14-6.41.84-11.27-2.96-4.33-3.39-5.25-8.07-5.44-9.19-1.94,1.42-2.82,2.04-3.24,2.32-.06.04-.29.2-.61.41-.44.3-.79.56-1.01.72.67,1.26,1.33,2.53,2,3.79l6.41,2.61,3.18,5.34,2.67,4.31c1.07-.53,2.47-1.37,3.88-2.67,1.08-1,1.88-2,2.46-2.84.32-.62.64-1.23.96-1.85Z"/>
  <path class="st17" d="M277.6,85.34c-.51.02-2.92.03-4.99-1.82-2.09-1.86-2.33-4.28-2.37-4.78l-1.91,1.48.98,2.33c.47.86.94,1.72,1.41,2.59.47.68.94,1.36,1.41,2.05.69.5,1.38,1,2.07,1.5l1.9-.65c.5-.9,1-1.8,1.5-2.7Z"/>
  <path class="st17" d="M257.55,56.33c-.59-.08-2.13-.36-3.46-1.63-2.07-1.99-1.87-4.73-1.83-5.11,0,3.28,0,6.56,0,9.84.8-.07,1.59-.15,2.39-.22.97-.96,1.93-1.92,2.9-2.88Z"/>
  <path class="st17" d="M169.65,61.12c.43.54,4.61,5.69,11.61,5.45,6.43-.22,10.15-4.8,10.66-5.45-.75,2.49-1.49,4.98-2.24,7.47l-13.48,1.15-6.79-3.4.24-5.22Z"/>
  <path class="st17" d="M145.65,43.37c.09.73.69,4.93,4.41,7.51,2.1,1.46,4.24,1.74,5.3,1.8-1.07,1.44-2.14,2.88-3.22,4.31l-5.61-7.42-2.09-4.47,1.21-1.72Z"/>
  <path class="st17" d="M213.98,44.96c-.09.73-.69,4.93-4.41,7.51-2.1,1.46-4.24,1.74-5.3,1.8,1.07,1.44,2.14,2.88,3.22,4.31l5.61-7.42,2.09-4.47-1.21-1.72Z"/>
  <path class="st16" d="M72.88,278.92c11.61,12.15,28.3,14.58,38.78,7.57,8.55-5.72,10.29-15.93,10.66-18.48-.43,3.29-.68,7.67-.05,12.76.69,5.61,2.22,10.16,3.58,13.41-4.13.48-8.25.96-12.38,1.44l-30.99-4.32-6.83-5.34c-.92-2.34-1.85-4.69-2.77-7.04Z"/>
  <path class="st16" d="M98.5,240.08c3.29,2.48,6.22,3.33,8.01,3.67,7.09,1.34,13.33-2.05,21.22-6.34,2.01-1.09,3.9-2.55,3.9-2.55,1.27-.91,2.31-1.72,3.05-2.33-1.03,1.34-2.59,3.16-4.74,5.04-1.73,1.52-3.19,2.66-4.67,3.47-4.99,2.75-9.97,5.5-14.96,8.25l-7.75-2.89-3.57-5.24-.49-1.08Z"/>
  <path class="st16" d="M262.03,240.08c-3.27,2.48-6.18,3.33-7.96,3.67-7.05,1.34-13.26-2.05-21.1-6.34-2-1.09-3.87-2.55-3.88-2.55-1.27-.91-2.29-1.72-3.04-2.33,1.03,1.34,2.57,3.16,4.71,5.04,1.72,1.52,3.17,2.66,4.64,3.47,4.96,2.75,9.92,5.5,14.88,8.25l7.71-2.89,3.55-5.24.49-1.08Z"/>
  <path class="st16" d="M155.13,298.22c1.65.85,3.7,2.01,5.94,3.54,2.29,1.57,4.06,2.78,6.02,4.88.86.92,2.62,2.84,4.09,5.74,1.85,3.67,1.97,6.41,2.32,6.38.35-.03.63-2.68.3-14.22-3.94-1.26-7.88-2.52-11.82-3.78-2.29-.85-4.57-1.7-6.86-2.55Z"/>
  <path class="st16" d="M206.17,298.22c-1.65.85-3.7,2.01-5.94,3.54-2.29,1.57-4.06,2.78-6.02,4.88-.86.92-2.62,2.84-4.09,5.74-1.85,3.67-1.97,6.41-2.32,6.38-.35-.03-.63-2.68-.3-14.22,3.94-1.26,7.88-2.52,11.82-3.78,2.29-.85,4.57-1.7,6.86-2.55Z"/>
  <path class="st17" d="M87.16,122.11c-.79.04-6.69.25-10.43-4.25-1.69-2.04-2.27-4.22-2.49-5.49-.25.95-.62,2.85-.12,5.16.45,2.09,1.42,3.55,2,4.32,3.02.78,6.05,1.56,9.07,2.34l1.96-2.08Z"/>
  <path class="st17" d="M273.13,121.73c.79.06,6.68.41,10.53-4.01,1.74-2,2.37-4.16,2.62-5.43.23.96.56,2.87,0,5.16-.5,2.08-1.5,3.52-2.11,4.27-3.04.71-6.09,1.42-9.13,2.12l-1.91-2.12Z"/>
  <path class="st23" d="M110.92,210.68c-1.13-3.35-3.86-9.72-10.11-12.93-2.94-1.51-5.45-1.7-10.12-2-11.77-.77-15.81,2.5-22.97.1-2.07-.7-4.93-2.04-7.98-4.94,3.28.73,7,1.36,11.1,1.74,5.14.48,9.79.48,13.8.25,5.39.45,10.78.9,16.17,1.35l12.53,9.45,2.14,3.95-4.55,3.02Z"/>
  <path class="st23" d="M249.93,210.81c1.13-3.35,3.86-9.72,10.11-12.93,2.94-1.51,5.45-1.7,10.12-2,11.77-.77,15.81,2.5,22.97.1,2.07-.7,4.93-2.04,7.98-4.94-3.28.73-7,1.36-11.1,1.74-5.14.48-9.79.48-13.8.25-5.39.45-10.78.9-16.17,1.35l-12.53,9.45-2.14,3.95,4.55,3.02Z"/>
  <path class="st16" d="M134.25,233.97c-1.54,5.18-3.31,10.6-5.36,16.22-2.51,6.88-5.15,13.28-7.82,19.18,1.06-8.54,2.13-17.07,3.19-25.61,3.33-3.26,6.66-6.53,9.99-9.79Z"/>
  <path class="st16" d="M227.16,234.57c1.54,5.18,3.31,10.6,5.36,16.22,2.51,6.88,5.15,13.28,7.82,19.18-1.06-8.54-2.13-17.07-3.19-25.61-3.33-3.26-6.66-6.53-9.99-9.79Z"/>
  <path class="st16" d="M131.46,300.65c8.69,4.46,10.27,6.07,10.04,6.7-.12.32-.7.34-2.23.7-2.01.48-3.58,1.06-4.58,1.47.25-1.04.5-2.09.75-3.13l-3.98-5.74Z"/>
  <path class="st16" d="M229.58,301.53c-8.69,4.46-10.27,6.07-10.04,6.7.12.32.7.34,2.23.7,2.01.48,3.58,1.06,4.58,1.47-.25-1.04-.5-2.09-.75-3.13l3.98-5.74Z"/>
  <path class="st10" d="M207.91,162.06h-56.94c.08,2.4.73,14.49,10.56,23.21,1.97,1.75,8.22,7.12,17.91,7.6,2.42.12,10.94.24,18.48-5.79,11.39-9.1,10.11-23.89,9.99-25.02Z"/>
  <path class="st9" d="M159.37,183.14c3.43-1.85,10.95-5.31,21.07-5.22,10.19.09,17.69,3.72,21.08,5.63"/>
  <polygon class="st9" points="166.56 169.29 171.63 162.49 164.34 162.73 166.56 169.29"/>
  <polygon class="st9" points="192.57 169.29 187.5 162.49 194.79 162.73 192.57 169.29"/>
  <path class="st9" d="M146.91,330.91c-.25-.27-1.67-1.82-1.55-4.14.09-1.75,1-2.92,1.32-3.29"/>
  <path class="st9" d="M159.42,322.29c-.17.65-.41,1.95-.07,3.52.38,1.74,1.26,2.89,1.71,3.4"/>
  <ellipse class="st11" cx="140.19" cy="136.22" rx="20.78" ry="18.14"/>
  <path class="st11" d="M85.09,124.07h-30.91c-.91.22-1.89.64-2.35,1.51-2.07,3.95,7.77,14.88,18.54,20.23,6.48,3.22,12.56,4.06,16.54,4.26"/>
  <path class="st10" d="M90.69,166.94c-3.71.41-13.04.87-22.11-4.84-16.64-10.47-16.46-31.68-16.43-32.85"/>
  <path class="st9" d="M67.72,151.02s1.89,6.54,6.46,3.35c.15.46,1.25,3.75,4.48,4.96,3.1,1.16,6.88-.1,9.1-3.21"/>
  <path class="st10" d="M152,58.81c-4.11-4.93-5.97-9.41-6.9-12.54-1.83-6.1-4.11-11.87-2.53-31.65.35-4.35-1.14-6.32-1.76-6.99-3.51-3.87-12.55-3.3-21.4,3.35,0,0-19.15,18.22-9.52,49.82,0,0,7.11,17.15,25.58,17.57,1.63.04,3.87-.23,6.38-1.43,8.94-4.28,10.05-16.66,10.16-18.12"/>
  <path class="st10" d="M109.56,59.71s-9.79-14.29-28.26-4.51c0,0,2.41,17.08,10.6,20.66"/>
  <path class="st10" d="M107.17,39.46c-.74-.52-2.2-1.41-4.25-1.7-2.49-.36-4.45.35-5.29.72-.66.21-1.73.68-2.32,1.73-.95,1.66-.08,3.71.41,4.89,2.29,5.44,9.38,10.55,11.45,11.99"/>
  <path class="st10" d="M92.2,76.95s-8.18-7.72-12.79,1.42c0,0,3.2,8.93,9.97,7.41"/>
  <path class="st9" d="M85.91,118.08s-9.01-1.44-13.53-7.61c0,0-.05,10.84,6.77,13.61"/>
  <path class="st10" d="M111.69,22.53s18.65-6.24,30.34,4.39"/>
  <path class="st10" d="M107.35,47.79s21.08-16.55,38.24,0"/>
  <path class="st10" d="M144.44,44.11s7.82-1.24,8.66-7.83c.07-.56.28-1.21.64-1.27,1.2-.21,4.81,6.44,3.77,12.98-.85,5.33-4.48,8.67-5.94,9.86"/>
  <path class="st10" d="M214.14,44.68s-7.82-1.24-8.66-7.83c-.84-6.59-11.34,13.82,2.94,22.53"/>
  <path class="st8" d="M120.99,129.25c2.3-1.73,8.82-6.17,18.25-6.45,10.58-.31,17.95,4.81,20.14,6.45"/>
  <path class="st8" d="M157.6,146.12c-.48-.93-4.82-9.05-14.16-10.57-7.05-1.15-12.4,2.21-13.7,3.08"/>
  <path class="st8" d="M123.37,133.59c2.42-1.7,8.04-5.14,15.87-5.48,11.88-.51,19.96,6.5,21.73,8.11"/>
  <path class="st8" d="M145.75,160.21c-.2,3.75-7.96,6.58-13.83,6.95-8.94.56-19.07-4.26-18.92-8.43.15-4.1,10.27-8.12,18.9-7.02,6.36.81,14.06,4.68,13.86,8.5Z"/>
  <path class="st3" d="M156.46,135.75c0,1.56-1.25,2.82-2.79,2.82s-2.79-1.26-2.79-2.82,1.25-2.82,2.79-2.82,2.79,1.26,2.79,2.82Z"/>
  <path class="st12" d="M128.15,133.74c0,.87.7,1.58,1.56,1.58s1.56-.71,1.56-1.58-.7-1.58-1.56-1.58-1.56.71-1.56,1.58Z"/>
  <path class="st8" d="M119.92,132.16c.89.28,2.09.73,3.45,1.43.86.45,2.9,1.59,5.05,3.66.79.76,1.78,1.82,2.79,3.24.71-.09,1.68-.19,2.84-.2,0,0,3.23-.03,6.38.82,3.47.94,8.52,3.83,13.03,9.08,0,0-12.88,10.94-29.3-2.41,0,0-6.86-7.37-4.24-15.62Z"/>
  <ellipse class="st12" cx="150.7" cy="141.26" rx="1.17" ry="1.19"/>
  <ellipse class="st11" cx="220.17" cy="136.42" rx="20.78" ry="18.14"/>
  <path class="st11" d="M274.44,124.27c9.83,0,19.67,0,29.5,0h1.41c.91.22,1.89.64,2.35,1.51,2.07,3.95-7.77,14.88-18.54,20.23-6.48,3.22-12.56,4.06-16.54,4.26"/>
  <path class="st10" d="M269.08,167.16c3.85.4,12.99.73,21.87-4.86,16.64-10.47,16.46-31.68,16.43-32.85"/>
  <path class="st9" d="M291.81,151.22s-1.89,6.54-6.46,3.35c-.15.46-1.25,3.75-4.48,4.96-3.1,1.16-6.88-.1-9.1-3.21"/>
  <path class="st10" d="M208.36,59.01c4.11-4.93,5.97-9.41,6.9-12.54,1.83-6.1,4.11-11.87,2.53-31.65-.35-4.35,1.14-6.32,1.76-6.99,3.51-3.87,12.55-3.3,21.4,3.35,0,0,19.15,18.22,9.52,49.82,0,0-7.11,17.15-25.58,17.57-1.63.04-3.87-.23-6.38-1.43-8.94-4.28-10.05-16.66-10.16-18.12Z"/>
  <path class="st9" d="M274.44,118.28s9.01-1.44,13.53-7.61c0,0,.05,10.84-6.77,13.61"/>
  <path class="st10" d="M248.66,22.73s-18.65-6.24-30.34,4.39"/>
  <path class="st10" d="M253,47.99s-21.08-16.55-38.24,0"/>
  <path class="st8" d="M239.36,129.45c-2.3-1.73-8.82-6.17-18.25-6.45-10.58-.31-17.95,4.81-20.14,6.45"/>
  <path class="st8" d="M202.75,146.32c.48-.93,4.82-9.05,14.16-10.57,7.05-1.15,12.4,2.21,13.7,3.08"/>
  <path class="st8" d="M236.98,133.79c-2.42-1.7-8.04-5.14-15.87-5.48-11.88-.51-19.96,6.5-21.73,8.11"/>
  <path class="st8" d="M214.61,160.41c.2,3.75,7.96,6.58,13.83,6.95,8.94.56,19.07-4.26,18.92-8.43-.15-4.1-10.27-8.12-18.9-7.02-6.36.81-14.06,4.68-13.86,8.5Z"/>
  <path class="st3" d="M203.9,135.95c0,1.56,1.25,2.82,2.79,2.82s2.79-1.26,2.79-2.82c0-1.56-1.25-2.82-2.79-2.82-1.54,0-2.79,1.26-2.79,2.82Z"/>
  <path class="st12" d="M232.21,133.94c0,.87-.7,1.58-1.56,1.58s-1.56-.71-1.56-1.58.7-1.58,1.56-1.58,1.56.71,1.56,1.58Z"/>
  <path class="st8" d="M240.43,132.36c-.89.28-2.09.73-3.45,1.43-.86.45-2.9,1.59-5.05,3.66-.79.76-1.78,1.82-2.79,3.24-.71-.09-1.68-.19-2.84-.2,0,0-3.23-.03-6.38.82-3.47.94-8.52,3.83-13.03,9.08,0,0,12.88,10.94,29.3-2.41,0,0,6.86-7.37,4.24-15.62Z"/>
  <ellipse class="st12" cx="209.65" cy="141.46" rx="1.17" ry="1.19"/>
  <path class="st10" d="M250.48,61.07c3.75,1.95,9.19,5.41,13.77,11.3,5.03,6.47,8.93,15.79,8.66,50.41-.08,9.7-.49,23.11-2,39.18-1.3,4.04-3.86,10.42-9.1,16.55-11.56,13.53-28.2,16.57-46.36,19.89-7.4,1.35-18.33,2.82-31.84,2.65h-7.41c-13.51.17-24.43-1.3-31.84-2.65-18.16-3.32-34.8-6.35-46.36-19.89-5.24-6.14-7.81-12.52-9.1-16.55-1.51-16.06-1.93-29.48-2-39.18-.27-34.63,3.64-43.94,8.66-50.41,4.8-6.18,10.54-9.68,14.3-11.57"/>
  <path class="st10" d="M167.79,58.81h-15.8"/>
  <path class="st10" d="M134.68,305.23c-1.69-1.65-3.62-3.81-5.45-6.55-1.21-1.81-5.61-8.67-7.28-22.47-1.59-13.17.23-24.92,2.7-33.92"/>
  <path class="st10" d="M171.89,303.71c2.17,5.43,3.66,13.52-2.23,20.35-1.42,1.54-5.59,5.68-12.39,6.95-9.18,1.72-16.14-3.09-17.45-4.03-.76-.6-5.32-4.3-5.81-10.73-.36-4.78,1.74-8.26,2.47-9.37-.55-.48-1.16-1.03-1.8-1.66"/>
  <path class="st9" d="M214.25,330.91c.25-.27,1.67-1.82,1.55-4.14-.09-1.75-1-2.92-1.32-3.29"/>
  <path class="st9" d="M201.73,322.29c.17.65.41,1.95.07,3.52-.38,1.74-1.26,2.89-1.71,3.4"/>
  <path class="st10" d="M189.26,303.71c-2.17,5.43-3.66,13.52,2.23,20.35,1.42,1.54,5.59,5.68,12.39,6.95,9.18,1.72,16.14-3.09,17.45-4.03.76-.6,5.32-4.3,5.81-10.73.36-4.78-1.74-8.26-2.47-9.37,2-1.74,4.72-4.43,7.25-8.2,1.21-1.81,5.61-8.67,7.28-22.47,1.58-13.1-.21-24.79-2.66-33.77"/>
  <path class="st10" d="M192.22,58.72c5.05.03,10.1.06,15.15.09"/>
  <path class="st10" d="M226.94,232.96c1.83,2.41,4.32,5.24,7.64,7.97,5.63,4.64,11.24,7.06,15.12,8.36,1.57-.31,3.84-.98,6.1-2.56,6.93-4.85,7.35-13.79,7.38-15.64.2-10.1-7.07-16.58-8.15-17.52-5.43-3.21-12.79-6.86-21.93-9.65-8.86-2.7-16.77-3.79-22.94-4.19"/>
  <path class="st10" d="M154.2,215.46"/>
  <path class="st10" d="M121.35,257.48c-3.06,3.8-9.05,10.18-18.63,14.61-14.07,6.5-27.03,4.7-31.87,3.77.19,1.18.58,2.86,1.44,4.72,2.99,6.46,9.11,9.31,13.27,11.18,8.32,3.74,15.72,3.84,21.27,3.85,4.54.01,11.31-.43,19.33-2.72"/>
  <path class="st10" d="M180.11,210.68c3.43-.02,11.06-.06,17.89,3.56,12.11,6.4,15.93,20.94,17.94,31.01,3.83,19.2-.68,39.75-.68,39.75-.43,1.72-1.28,4.21-3.06,6.78-2.81,4.07-6.38,6.09-8.21,6.96-4.64,2.05-13.1,5.06-24.03,4.97-11.16-.09-19.72-3.38-24.34-5.55-2.14-1.19-5.78-3.65-8.46-8.11-1.05-1.75-1.73-3.43-2.17-4.87,0,0,0,0,0,0-1.36-6.03-4.85-22.24-.68-39.75,2.37-9.97,5.84-24.51,17.94-31.01,6.86-3.69,14.5-3.73,17.86-3.75Z"/>
  <path class="st9" d="M104.67,196.55s-25.56,1.27-40.06,12.9"/>
  <path class="st9" d="M84.44,221.24s5.14-13.09,21.54-23.98"/>
  <path class="st10" d="M121.07,204.91s-8.34-11.37-18.09-14.76c-9.75-3.39-39.6.55-50.2-4.6,0,0,20.46,12.3,11.83,23.91,0,0,20.9-5.37,19.79,13.23.93-.42,3.33-1.33,6.31-.77,4.41.84,6.66,4.26,7.06,4.88"/>
  <path class="st9" d="M115.47,207.25s-2.28-5.8-9.49-9.99c-2.4-1.4-5.35-2.61-8.95-3.38-14.39-3.05-26.46,1.63-37.29-2.98"/>
  <path class="st10" d="M149.48,229.27s30.44,14.62,61.2,0"/>
  <path class="st10" d="M143.4,251.37s35.81,19.92,73.23-.2"/>
  <path class="st10" d="M143.3,273.6s35.81,19.92,73.23-.2"/>
  <path class="st9" d="M262.87,229.74c-.55-.56-1.41-1.33-2.63-1.97-1.09-.57-2.08-.84-2.81-.98"/>
  <path class="st9" d="M261.3,236.91c-.55-.56-1.41-1.33-2.63-1.97-1.09-.57-2.08-.84-2.81-.98"/>
  <path class="st9" d="M257.75,243.76c-.55-.56-1.41-1.33-2.63-1.97-1.09-.57-2.08-.84-2.81-.98"/>
  <path class="st10" d="M134.02,232.96c-1.83,2.41-4.32,5.24-7.64,7.97-5.63,4.64-11.24,7.06-15.12,8.36-1.57-.31-3.84-.98-6.1-2.56-6.93-4.85-7.35-13.79-7.38-15.64-.2-10.1,7.07-16.58,8.15-17.52,5.61-3.24,12.96-6.82,21.93-9.65,7.95-2.51,15.16-3.78,21.09-4.43"/>
  <path class="st9" d="M98.09,229.74c.55-.56,1.41-1.33,2.63-1.97,1.09-.57,2.08-.84,2.81-.98"/>
  <path class="st9" d="M99.66,236.91c.55-.56,1.41-1.33,2.63-1.97,1.09-.57,2.08-.84,2.81-.98"/>
  <path class="st9" d="M103.21,243.76c.55-.56,1.41-1.33,2.63-1.97,1.09-.57,2.08-.84,2.81-.98"/>
  <path class="st10" d="M252.08,61.92s9.79-14.29,28.26-4.51c0,0-2.65,18.77-11.82,21.08"/>
  <path class="st10" d="M254.47,41.68c.74-.52,2.2-1.41,4.25-1.7,2.49-.36,4.45.35,5.29.72.66.21,1.73.68,2.32,1.73.95,1.66.08,3.71-.41,4.89-2.29,5.44-9.38,10.55-11.45,11.99"/>
  <path class="st10" d="M269.44,79.16s8.18-7.72,12.79,1.42c0,0-3.33,9.29-10.38,7.3"/>
  <path class="st10" d="M72.06,276.54c.44-1.55,1.22-3.79,2.67-6.25,1.42-2.4,2.24-3.62,3.25-3.83,2.09-.44,5.07,3.51,7.56,9.35"/>
  <path class="st10" d="M87.24,275.86c-.01-1.61.11-3.98.82-6.75.69-2.7,1.13-4.1,2.05-4.59,1.88-1.01,5.85,1.95,9.88,6.85"/>
  <path class="st10" d="M101.9,272.34c-.46-1.54-1.01-3.86-1.1-6.71-.09-2.79-.06-4.25.69-4.98,1.53-1.49,6.16.24,11.4,3.82"/>
  <path class="st10" d="M113.56,264.63c-.67-1.47-1.51-3.69-1.99-6.5-.46-2.75-.63-4.21.01-5.03,1.11-1.42,4.7-.86,9.2,1.05"/>
  <path class="st9" d="M105.93,197.86s-1.14,18.01-3.56,19.59"/>
  <path class="st9" d="M256.18,196.55s25.56,1.27,40.06,12.9"/>
  <path class="st9" d="M276.41,221.24s-5.14-13.09-21.54-23.98"/>
  <path class="st10" d="M239.78,204.91s8.34-11.37,18.09-14.76c9.75-3.39,39.6.55,50.2-4.6,0,0-20.46,12.3-11.83,23.91,0,0-20.9-5.37-19.79,13.23-.93-.42-3.33-1.33-6.31-.77-4.41.84-6.66,4.26-7.06,4.88"/>
  <path class="st9" d="M245.38,207.25s2.28-5.8,9.49-9.99c2.4-1.4,5.35-2.61,8.95-3.38,14.39-3.05,26.46,1.63,37.29-2.98"/>
  <path class="st9" d="M254.92,197.86s1.14,18.01,3.56,19.59"/>
  <path class="st9" d="M162.2,42.83c.36,2.38,2.02,4.36,4.3,5.12,2.24.75,4.73.2,6.45-1.44-1.14,1.64-2.41,3.75-3.52,6.32-1.03,2.37-1.68,4.55-2.1,6.38-.6-.29-5.28-2.67-6.45-8.09-.9-4.18.86-7.48,1.33-8.3Z"/>
  <path class="st9" d="M196.47,42.83c-.42,2.4-2.07,4.38-4.3,5.12-2.72.91-5.04-.44-5.39-.65,1.04,1.06,2.8,3.15,3.81,6.28.74,2.29.81,4.31.75,5.64.6-.29,5.28-2.67,6.45-8.09.9-4.18-.86-7.48-1.33-8.3Z"/>
  <path class="st10" d="M180.12,70.52c3.05-.04,6.32-.07,8.71-2.19,3.13-2.78,2.71-7.32,2.44-10.3,0,0-.61-6.67-5.78-12.28-.65-.71-1.55-1.54-1.55-1.54-1-.92-1.57-1.32-1.82-1.49-.96-.65-1.53-.85-2.11-.9-.24-.02-.43,0-.55,0-.77.02-1.47.29-2.8,1.21-2.01,1.38-2.9,2.22-3.73,3.19-4.41,5.19-4.74,11.83-4.74,11.83-.16,3.36-.37,7.62,2.71,10.3,2.6,2.27,6.17,2.23,9.22,2.19Z"/>
  <path class="st8" d="M171.74,50.15c1.35.67,4.02,1.77,7.54,1.78,3.59.01,6.31-1.11,7.66-1.78"/>
  <path class="st8" d="M169.42,55.07c1.46.96,4.95,2.98,9.86,3.17,5.24.21,9.08-1.78,10.57-2.66"/>
  <path class="st8" d="M168.95,60.91c1.64.95,5.44,2.86,10.62,2.87,5.24.01,9.08-1.92,10.72-2.88"/>
  <path class="st8" d="M179.9,42.18"/>
</svg>