<?xml version="1.0" encoding="UTF-8"?>
<svg id="Layer_1" xmlns="http://www.w3.org/2000/svg" version="1.1" viewBox="0 0 365 335">
  <!-- Generator: Adobe Illustrator 29.7.1, SVG Export Plug-In . SVG Version: 2.1.1 Build 8)  -->
  <defs>
    <style>
      .st0 {
        fill: #5fa8a1;
      }

      .st1 {
        fill: #00b0ed;
        opacity: .69;
      }

      .st2, .st3, .st4, .st5, .st6, .st7, .st8, .st9, .st10, .st11, .st12, .st13, .st14, .st15, .st16, .st17, .st18, .st19, .st20, .st21, .st22, .st23 {
        stroke-linecap: round;
        stroke-linejoin: round;
      }

      .st2, .st3, .st4, .st7, .st8, .st9, .st11, .st12, .st13, .st14, .st17, .st21, .st24, .st23 {
        fill: none;
      }

      .st2, .st3, .st5, .st6, .st7, .st9, .st10, .st15, .st16, .st18, .st19, .st21, .st22, .st24, .st23 {
        stroke: #231f20;
      }

      .st2, .st4 {
        stroke-width: .75px;
      }

      .st25 {
        fill: #25544e;
      }

      .st26 {
        fill: #bf6421;
      }

      .st3, .st5, .st12, .st15, .st16 {
        stroke-width: 2px;
      }

      .st27, .st5, .st18 {
        fill: #fdbb28;
      }

      .st4, .st11, .st12, .st13, .st14, .st17, .st20 {
        stroke: #000;
      }

      .st28 {
        opacity: .67;
      }

      .st6, .st9, .st10, .st13, .st18, .st20 {
        stroke-width: 3px;
      }

      .st6, .st15, .st22, .st29 {
        fill: #fb7800;
      }

      .st30 {
        fill: #fff;
      }

      .st7, .st14, .st19 {
        stroke-width: 4px;
      }

      .st8 {
        stroke: #40b7d3;
      }

      .st31, .st10, .st16, .st19, .st20 {
        fill: #44968e;
      }

      .st32 {
        fill: #439690;
      }

      .st33 {
        fill: #0f2d29;
      }

      .st34 {
        fill: #bc8a26;
      }

      .st35 {
        fill: #fb7300;
      }

      .st36 {
        fill: #194340;
      }

      .st17, .st21 {
        stroke-width: .5px;
      }

      .st37 {
        fill: #edb38b;
      }

      .st24 {
        stroke-miterlimit: 10;
      }

      .st38 {
        fill: #addcd8;
      }
    </style>
  </defs>
  <path class="st10" d="M126.5,275.58c-.52,2.78-.94,6.26-.86,10.26.08,4.51.75,8.36,1.5,11.33"/>
  <path class="st10" d="M237.54,275.58c.52,2.78.94,6.26.86,10.26-.08,4.51-.75,8.36-1.5,11.33"/>
  <path class="st9" d="M143.35,317.75c.27.59,2.42,5.4,0,9.15-1.79,2.78-5.07,3.38-6.57,3.66-10.99,2.04-23.01-12.9-24.36-14.61-4.86-4.55-5.17-12.13-.98-16.87,4.44-5.01,12.61-5.33,17.62-.36,1.93,1.37,4.11,3.18,6.26,5.54,4.47,4.91,6.8,10,8.03,13.48Z"/>
  <path class="st9" d="M117.3,295.55s.9,12.59,6.61,14.28"/>
  <path class="st9" d="M112.02,299.88s.9,12.59,6.61,14.28"/>
  <path class="st24" d="M220.88,317.75c-.27.59-2.42,5.4,0,9.15,1.79,2.78,5.07,3.38,6.57,3.66,10.99,2.04,23.01-12.9,24.36-14.61,4.86-4.55,5.17-12.13.98-16.87-4.44-5.01-12.61-5.33-17.62-.36-1.93,1.37-4.11,3.18-6.26,5.54-4.47,4.91-6.8,10-8.03,13.48Z"/>
  <path class="st9" d="M246.93,295.55s-.9,12.59-6.61,14.28"/>
  <path class="st9" d="M252.21,299.88s-.9,12.59-6.61,14.28"/>
  <path class="st10" d="M144.49,318.87s36.31,17.09,75.25,0"/>
  <path class="st9" d="M182.19,236.98c3.36-.02,10.83-.06,17.52,3.44,11.85,6.19,15.6,20.25,17.56,29.98,3.75,18.57-.67,38.44-.67,38.44-.42,1.66-1.25,4.07-2.99,6.56-2.75,3.94-6.25,5.89-8.04,6.73-4.55,1.98-12.82,4.89-23.52,4.8-10.93-.09-19.31-3.26-23.83-5.36-2.09-1.15-5.66-3.52-8.28-7.84-1.03-1.69-1.69-3.32-2.13-4.7,0,0,0,0,0,0-1.33-5.83-4.75-21.5-.67-38.43,2.32-9.64,5.71-23.69,17.56-29.98,6.71-3.56,14.2-3.6,17.48-3.62Z"/>
  <path class="st3" d="M247.97,220.69s23.92,7.36,34.82,21.75"/>
  <path class="st3" d="M261.11,248.69s-1.67-13.5-14.56-27.65"/>
  <path class="st10" d="M108.98,247.62c-3.66-.6-5.79,2.24-5.79,2.24-3.49-17.68-21.99-7.61-21.99-7.61,5.34-12.95-17.06-19.53-17.06-19.53,11.3,2.26,38.64-8.63,48.71-7.81,10.07.82,20.76,9.45,20.76,9.45"/>
  <path class="st16" d="M128.87,227.91s-3.58-4.88-11.44-7.06c-2.62-.73-5.72-1.15-9.31-1-14.39.62-24.68,7.91-36.08,6.22"/>
  <path class="st3" d="M116.01,220.5s-23.92,7.36-34.82,21.75"/>
  <path class="st3" d="M102.87,248.5s1.67-13.5,14.56-27.65"/>
  <path class="st10" d="M230.38,224.56s10.69-8.63,20.76-9.45c10.07-.82,37.41,10.07,48.71,7.81,0,0-22.4,6.58-17.06,19.53,0,0-18.5-10.07-21.99,7.61,0,0-2.13-2.84-5.79-2.24"/>
  <path class="st16" d="M235.11,228.1s3.58-4.88,11.44-7.06c2.62-.73,5.72-1.15,9.31-1,14.39.62,24.68,7.91,36.08,6.22"/>
  <path class="st9" d="M152.26,254.38s29.8,14.14,59.92,0"/>
  <path class="st9" d="M146.31,274.81s35.06,19.26,71.7-.19"/>
  <path class="st9" d="M146.22,296.3s35.06,19.26,71.7-.19"/>
  <path class="st9" d="M134.55,315.44"/>
  <path class="st9" d="M112.33,315.45"/>
  <path class="st10" d="M125.71,281.88s-15.69,27.39-41.7,16.5c0,0-4.57,14.04,26.7,16.94"/>
  <path class="st10" d="M157.43,215.46c-2.56.17-5.81.6-9.57,1.61,0,0-.37.1-.7.19-2.52.74-8.53,3.01-18.79,11.37-4.48,3.65-10.42,9-16.68,16.29-.66,1.22-5.04,9.58-1.33,18.64.68,1.66,4.19,9.59,12.22,11.58,2.62.65,4.93.47,6.47.21,1.55-1.26,3.39-2.91,5.29-5.03,2.77-3.08,4.58-5.94,5.61-7.74,2.07-3.61,3.37-7.02,4.2-9.84"/>
  <path class="st10" d="M158.99,215.38c-.49.02-1.01.04-1.56.08"/>
  <path class="st10" d="M219.62,252.65c.83,2.81,2.12,6.22,4.2,9.84,3.53,6.13,7.81,10.26,10.91,12.77,1.54.26,3.85.44,6.47-.21,8.03-1.99,11.54-9.92,12.22-11.58,3.71-9.06-.66-17.42-1.33-18.64-6.26-7.29-12.2-12.64-16.68-16.29-11.38-9.28-17.54-11.05-19.5-11.56-4.74-1.23-8.85-1.29-11.57-1.15"/>
  <path class="st3" d="M109.42,261.66c.3-.7.82-1.69,1.71-2.68.8-.89,1.61-1.48,2.23-1.85"/>
  <path class="st3" d="M113.36,267.6c.3-.7.82-1.69,1.71-2.68.8-.89,1.61-1.48,2.23-1.85"/>
  <path class="st3" d="M119,272.56c.3-.7.82-1.69,1.71-2.68.8-.89,1.61-1.48,2.23-1.85"/>
  <path class="st3" d="M253.61,262.15c-.3-.7-.82-1.69-1.71-2.68-.8-.89-1.61-1.48-2.23-1.85"/>
  <path class="st3" d="M249.67,268.09c-.3-.7-.82-1.69-1.71-2.68-.8-.89-1.61-1.48-2.23-1.85"/>
  <path class="st3" d="M244.02,273.05c-.3-.7-.82-1.69-1.71-2.68-.8-.89-1.61-1.48-2.23-1.85"/>
  <ellipse class="st7" cx="139.07" cy="147.16" rx="22.54" ry="19.43"/>
  <path class="st9" d="M182.22,187.09c-1.7,4.45-6.03,7.34-10.7,7.17-2.64-.1-5.12-1.16-7.01-2.9-1.25-1.15-2.26-2.6-2.89-4.27"/>
  <polygon class="st3" points="162.81 199.21 171.91 195.45 164.5 191.36 162.81 199.21"/>
  <path class="st19" d="M79.32,134.15h-33.53c-.98.23-2.05.68-2.54,1.62-2.24,4.23,8.43,15.94,20.1,21.67,7.03,3.45,13.62,4.34,17.94,4.57"/>
  <path class="st18" d="M85.68,180.03c-3.8.44-14.18,1.12-24.27-5.15-18.05-11.22-17.85-33.93-17.81-35.19"/>
  <path class="st3" d="M60.48,163.01s2.05,7,7,3.59c.16.49,1.36,4.02,4.85,5.31,3.37,1.24,7.46-.1,9.87-3.44"/>
  <path class="st27" d="M151.88,64.25c-4.46-5.28-6.47-10.08-7.49-13.43-1.98-6.53-4.46-12.71-2.75-33.9.38-4.66-1.24-6.77-1.91-7.49-3.8-4.14-13.61-3.54-23.21,3.59,0,0-20.77,19.51-10.33,53.36,0,0,7.71,18.36,27.75,18.82,1.76.04,4.2-.25,6.92-1.54,9.7-4.59,10.9-17.85,11.01-19.41"/>
  <path class="st6" d="M105.85,65.21s-10.62-15.31-30.65-4.83c0,0,2.87,20.1,12.82,22.57"/>
  <path class="st6" d="M103.26,43.53c-.8-.56-2.39-1.51-4.61-1.82-2.7-.38-4.82.38-5.73.77-.71.23-1.87.73-2.52,1.85-1.03,1.78-.09,3.98.45,5.24,2.48,5.83,10.18,11.3,12.42,12.84"/>
  <path class="st6" d="M87.03,83.68s-8.87-8.26-13.88,1.52c0,0,3.61,9.95,11.25,7.82"/>
  <path class="st15" d="M80.21,127.73s-9.78-1.55-14.68-8.15c0,0-.06,11.61,7.34,14.57"/>
  <path class="st18" d="M108.17,25.4s20.22-6.69,32.91,4.7"/>
  <path class="st18" d="M103.46,52.44s22.86-17.73,41.47,0"/>
  <path class="st6" d="M143.68,48.5s8.48-1.33,9.39-8.39c.08-.6.31-1.29.69-1.36,1.3-.22,5.22,6.9,4.09,13.9-.92,5.71-4.86,9.28-6.44,10.56"/>
  <path class="st6" d="M219.28,49.11s-8.48-1.33-9.39-8.39c-.91-7.06-12.3,14.8,3.19,24.14"/>
  <path class="st5" d="M163.44,46.71c.05.26.89,4.05,4.6,5.48,2.54.97,5.43.46,7.52-1.33-1.19,1.11-2.7,2.79-4.01,5.11-1.85,3.29-2.43,6.38-2.63,8.28-.65-.31-5.65-2.86-6.91-8.65-.97-4.47.92-8,1.43-8.88Z"/>
  <path class="st5" d="M200.12,46.71c-.45,2.57-2.22,4.68-4.6,5.48-2.91.97-5.4-.48-5.77-.7,1.11,1.14,2.99,3.37,4.08,6.72.79,2.45.87,4.61.81,6.03.65-.31,5.65-2.86,6.91-8.65.97-4.47-.92-8-1.43-8.88Z"/>
  <path class="st23" d="M118.25,139.69c2.49-1.86,9.56-6.61,19.79-6.91,11.47-.34,19.47,5.15,21.84,6.91"/>
  <path class="st23" d="M157.96,157.76c-.52-.99-5.22-9.69-15.36-11.32-7.65-1.23-13.45,2.36-14.86,3.3"/>
  <path class="st23" d="M120.83,144.35c2.63-1.83,8.72-5.51,17.21-5.87,12.88-.55,21.65,6.96,23.57,8.69"/>
  <path class="st2" d="M156.72,146.65c0,1.67-1.35,3.02-3.02,3.02s-3.02-1.35-3.02-3.02,1.35-3.02,3.02-3.02,3.02,1.35,3.02,3.02Z"/>
  <path class="st21" d="M126.01,144.5c0,.93.76,1.69,1.69,1.69s1.69-.76,1.69-1.69-.76-1.69-1.69-1.69-1.69.76-1.69,1.69Z"/>
  <path class="st23" d="M117.1,142.81c.96.3,2.27.78,3.74,1.54.94.48,3.15,1.71,5.48,3.92.85.81,1.93,1.95,3.02,3.47.77-.1,1.82-.2,3.08-.22,0,0,3.5-.04,6.92.87,3.77,1,9.24,4.11,14.13,9.72,0,0-13.97,11.71-31.77-2.58,0,0-7.44-7.9-4.6-16.73Z"/>
  <circle class="st21" cx="150.48" cy="152.56" r="1.27"/>
  <ellipse class="st7" cx="225.81" cy="147.38" rx="22.54" ry="19.43"/>
  <path class="st9" d="M182.66,187.3c1.7,4.45,6.03,7.34,10.7,7.17,2.64-.1,5.12-1.16,7.01-2.9,1.25-1.15,2.26-2.6,2.89-4.27"/>
  <polygon class="st3" points="202.08 199.43 192.97 195.67 200.38 191.57 202.08 199.43"/>
  <path class="st19" d="M284.67,134.36c10.67,0,21.33,0,32,0,.51,0,1.02,0,1.53,0,.98.23,2.05.68,2.54,1.62,2.24,4.23-8.43,15.94-20.1,21.67-7.03,3.45-13.62,4.34-17.94,4.57"/>
  <path class="st18" d="M278.31,180.24c3.8.44,14.18,1.12,24.27-5.15,18.05-11.22,17.85-33.93,17.81-35.19"/>
  <path class="st3" d="M303.51,163.22s-2.05,7-7,3.59c-.16.49-1.36,4.02-4.85,5.31-3.37,1.24-7.46-.1-9.87-3.44"/>
  <path class="st18" d="M213,64.46c4.46-5.28,6.47-10.08,7.49-13.43,1.98-6.53,4.46-12.71,2.75-33.9-.38-4.66,1.24-6.77,1.91-7.49,3.8-4.14,13.61-3.54,23.21,3.59,0,0,20.77,19.51,10.33,53.36,0,0-7.71,18.36-27.75,18.82-1.76.04-4.2-.25-6.92-1.54-9.7-4.59-10.9-17.85-11.01-19.41Z"/>
  <path class="st15" d="M284.67,127.94s9.78-1.55,14.68-8.15c0,0,.06,11.61-7.34,14.57"/>
  <path class="st18" d="M256.71,25.61s-20.22-6.69-32.91,4.7"/>
  <path class="st18" d="M261.42,52.66s-22.86-17.73-41.47,0"/>
  <path class="st23" d="M246.63,139.91c-2.49-1.86-9.56-6.61-19.79-6.91-11.47-.34-19.47,5.15-21.84,6.91"/>
  <path class="st23" d="M206.92,157.98c.52-.99,5.22-9.69,15.36-11.32,7.65-1.23,13.45,2.36,14.86,3.3"/>
  <path class="st23" d="M244.05,144.56c-2.63-1.83-8.72-5.51-17.21-5.87-12.88-.55-21.65,6.96-23.57,8.69"/>
  <path class="st2" d="M208.17,146.87c0,1.67,1.35,3.02,3.02,3.02,1.67,0,3.02-1.35,3.02-3.02,0-1.67-1.35-3.02-3.02-3.02s-3.02,1.35-3.02,3.02Z"/>
  <path class="st21" d="M238.87,144.71c0,.93-.76,1.69-1.69,1.69s-1.69-.76-1.69-1.69.76-1.69,1.69-1.69,1.69.76,1.69,1.69Z"/>
  <path class="st23" d="M247.79,143.03c-.96.3-2.27.78-3.74,1.54-.94.48-3.15,1.71-5.48,3.92-.85.81-1.93,1.95-3.02,3.47-.77-.1-1.82-.2-3.08-.22,0,0-3.5-.04-6.92.87-3.77,1-9.24,4.11-14.13,9.72,0,0,13.97,11.71,31.77-2.58,0,0,7.44-7.9,4.6-16.73Z"/>
  <circle class="st21" cx="214.41" cy="152.77" r="1.27"/>
  <path class="st6" d="M182.62,76.34c3.26-.04,6.76-.08,9.32-2.35,3.35-2.97,2.9-7.83,2.61-11.02,0,0-.66-7.14-6.19-13.14-.7-.76-1.66-1.64-1.66-1.64-1.07-.98-1.68-1.41-1.95-1.6-1.02-.69-1.64-.91-2.26-.97-.26-.02-.46,0-.59,0-.83.02-1.57.31-3,1.29-2.15,1.48-3.11,2.37-3.99,3.41-4.72,5.56-5.07,12.66-5.07,12.66-.18,3.6-.4,8.15,2.9,11.02,2.78,2.42,6.61,2.38,9.87,2.35Z"/>
  <path class="st22" d="M173.65,54.55c1.45.72,4.3,1.89,8.07,1.9,3.84.01,6.75-1.18,8.2-1.9"/>
  <path class="st22" d="M171.17,59.81c1.56,1.03,5.3,3.19,10.55,3.4,5.6.22,9.71-1.91,11.31-2.85"/>
  <path class="st23" d="M170.67,66.06c1.76,1.02,5.82,3.06,11.37,3.08,5.61.01,9.71-2.06,11.47-3.08"/>
  <path class="st10" d="M169.64,64.25h-17.76"/>
  <path class="st23" d="M182.39,46.03"/>
  <path class="st10" d="M195.5,64.16c5.48.03,10.95.06,16.43.09"/>
  <path class="st6" d="M259.13,64.37s10.62-15.31,30.65-4.83c0,0-2.87,20.1-12.82,22.57"/>
  <path class="st6" d="M261.33,42.39c.88-.55,2.29-1.25,4.15-1.52,2.7-.38,4.82.38,5.73.77.71.23,1.87.73,2.52,1.85,1.03,1.78.09,3.98-.45,5.24-2.48,5.83-10.18,11.3-12.42,12.84"/>
  <path class="st6" d="M277.11,82.84s8.87-8.26,13.88,1.52c0,0-3.61,9.95-11.25,7.82"/>
  <path class="st29" d="M86.16,298.93c.42-1.5,1.18-3.67,2.59-6.04,1.37-2.32,2.16-3.49,3.15-3.7,2.02-.42,4.9,3.4,7.31,9.03"/>
  <path class="st29" d="M100.83,298.27c-.01-1.56.11-3.85.79-6.52.67-2.61,1.1-3.96,1.98-4.43,1.82-.97,5.65,1.89,9.55,6.62"/>
  <path class="st6" d="M114.17,294.08c-.61-1.43-1.39-3.59-1.79-6.32-.39-2.66-.52-4.08.12-4.85,1.3-1.6,5.94-.44,11.37,2.42"/>
  <path class="st9" d="M121.11,273.74"/>
  <path class="st6" d="M120.73,274.64c-.15.85,0,2.1.26,3.95.4,2.73,1.17,4.89,1.79,6.32"/>
  <path class="st23" d="M144.69,173.76c-.22,4.01-8.63,7.05-15,7.44-9.69.6-20.68-4.57-20.52-9.03.16-4.39,11.14-8.69,20.49-7.51,6.9.87,15.25,5.02,15.03,9.11Z"/>
  <path class="st23" d="M220.44,173.98c.22,4.01,8.63,7.05,15,7.44,9.69.6,20.68-4.57,20.52-9.03-.16-4.39-11.14-8.69-20.49-7.51-6.9.87-15.25,5.02-15.03,9.11Z"/>
  <path class="st10" d="M105.62,66.36c-11.12,4.48-34.76,23.8-22.22,107.04,0,0,7.46,38.09,60.65,40.67,0,0,23.1,2.25,31.98,2.74h11.92c8.88-.49,31.98-2.74,31.98-2.74,53.19-2.58,60.65-40.67,60.65-40.67,12.54-83.24-11.1-102.56-22.22-107.04"/>
  <polygon class="st27" points="63.22 160.77 69.27 173.48 77.16 175.43 82.2 177.27 83.82 177.27 82.2 167.69 79.83 161.49 64.64 158.05 63.22 160.77"/>
  <polygon class="st29" points="72.21 130.53 72.21 132.38 73.3 133.88 75.55 134.19 77.54 133.44 79.41 132.36 79.59 128.48 79.11 128.48 72.21 130.53"/>
  <polygon class="st29" points="170.67 64.16 170.02 68.21 171.17 71.19 171.66 73.13 172.75 74 175.25 74.88 178.43 76.35 187.55 76.82 194.11 71.39 194.11 64.86 188.78 63.22 170.67 64.16"/>
  <polygon class="st27" points="108.17 59.81 106.88 66.98 109.75 72.83 116.72 80.42 122.36 81.95 129.02 84.92 133.95 85.2 141.63 84.41 148.33 76.35 150.04 70.02 150.04 66.36 108.17 59.81"/>
  <polygon class="st27" points="214.44 64.78 214.44 74.98 217.72 76.82 222.77 81.81 224.02 83.87 229.47 85.2 235.89 84.95 243.82 82.95 250.93 76.35 256.82 70.02 259.63 63.22 214.44 64.78"/>
  <polygon class="st31" points="127.14 275.58 125.71 286.38 127.14 295.16 129.06 298.73 145.2 320.02 153.6 321.38 156.56 321.38 148.17 311.63 145.2 301.64 145.36 292.7 145.82 276.72 153.47 250.69 164.71 240.6 160.63 231.46 174.79 223.79 171.24 215.38 150.76 217.48 127.14 275.58"/>
  <polygon class="st31" points="212.81 316.94 210.22 320.39 210.72 322.67 217.53 319.8 221.57 314.15 234.28 298.93 237.65 297.17 237.72 287.13 236.9 275.48 228.24 268.85 223.97 264.38 221.7 258.58 218.78 250.93 218.78 246.65 215.53 230.7 214.66 222.8 205.29 216.61 170.68 216.8 151.37 231.66 212.81 316.94"/>
  <polygon class="st29" points="87.1 298.93 91.79 300.65 103.14 300.45 112.05 297.17 118.15 292.7 87.1 298.93"/>
  <polygon class="st35" points="122.94 283.31 124.85 282.19 126.38 276.25 122.58 275.14 119.57 278.07 122.94 283.31"/>
  <polygon class="st27" points="128.87 228.97 111.01 247.85 108.52 246.74 104.85 247.85 103.06 247.42 101.49 243.53 98.6 240.19 92.49 239.41 84.96 240.19 81.64 240.97 81.79 236.35 80.52 232.56 77.42 229.72 73.64 226.98 79.29 226.06 92.27 222.85 101.26 220.85 108.12 219.85 114.39 220.19 121.77 222.48 125 224.37 128.12 227.04 128.87 228.97"/>
  <polygon class="st27" points="235.11 228.6 239.04 232.99 242.22 235.75 246.16 239.44 251.04 244.46 253.78 247.52 255.75 247.52 257.85 247.52 260.24 249.45 261.96 244.52 265.11 241.86 268.56 240.07 271.83 239.6 274.86 239.81 278.26 240.61 279.86 241.15 282.3 241.82 282.3 236.75 283.42 232.56 286.87 229.65 289.86 227.48 284.57 226.24 273.61 223.6 261.93 220.69 249.84 220.01 244.19 221.82 239.04 224.54 235.11 228.6"/>
  <polygon class="st31" points="120.67 295.16 124.86 296 126.5 293.31 124.91 286.71 123.86 285.78 119.57 291.89 120.67 295.16"/>
  <polygon class="st27" points="282.7 179.87 278.7 179.14 280.38 172.58 283.32 162.51 290.83 160.53 298.96 159.71 299.35 162.51 282.7 179.87"/>
  <polygon class="st29" points="213.48 63.22 219.63 52.1 218.06 49.29 213.48 63.22"/>
  <polygon class="st29" points="260.42 65.34 265.45 61.51 263.71 52.1 262.37 51.61 260.42 65.34"/>
  <polygon class="st29" points="285.57 127.66 284.6 131.49 284.97 133.98 289.47 134.85 290.95 134.6 291.69 130.55 285.57 127.66"/>
  <polygon class="st37" points="140.5 168.11 141.61 169.13 143.2 170.51 144.67 173.99 143.72 176.31 141.73 177.37 140.5 178.09 136.37 179.99 130.84 181.1 126.12 181.1 121.8 180.55 116.53 178.71 111.48 176.02 109.44 173.51 109.17 171.74 110.31 169.76 113.52 167.41 115.94 166.33 119.36 165.3 123.86 164.29 140.5 168.11"/>
  <polygon class="st37" points="224.98 168.39 222.03 170.61 220.53 173.07 220.66 174.94 223.25 177.76 228.33 180.07 233.4 181.21 239.21 181.46 241.5 181.11 247.54 179.55 252.64 177 255.34 174.39 255.96 172.56 255.17 170.4 252.92 168.39 249.49 166.85 246.63 165.73 241.93 164.85 238.87 164.15 224.98 168.39"/>
  <path class="st27" d="M162.02,242.27l15.51-5.29,13.25.57,8.93,2.87,7.3,5.06,7,12.88,4,18.11.77,19.63-4.37,18.05-9.5,8.52-12.21,3.8-21.84-.73-9.37-3.07-8.42-4.96-2.82-3.49-3.45-7.2-1.59-18.88.92-12.47,1.25-6.03,1.28-7.49,2.71-5.59s9.81-14.32,10.64-14.29Z"/>
  <path class="st32" d="M216.82,247.29s7.4,3.33,7.34,3.52-2.53,3.82-2.53,3.82l-3.62.31-1.19-7.65Z"/>
  <polygon class="st32" points="219.04 314.15 221.55 315.98 221.14 319.9 217.91 319.27 219.04 314.15"/>
  <polygon class="st32" points="152.6 64.16 152.6 68.35 163.87 72.93 169.2 69.13 169.2 63.57 152.6 64.16"/>
  <polygon class="st32" points="195.78 64.2 195.78 66.64 200.09 72.5 213 74.21 213 67.12 212.64 64.59 195.78 64.2"/>
  <polygon class="st29" points="278.06 85.04 280.41 85.04 283.39 92.36 282.36 93.03 280.72 93.03 278.06 85.04"/>
  <polygon class="st33" points="121.85 136.48 122.88 136.79 127.69 134.7 133.6 133.2 136.71 132.77 140.4 132.77 147.99 133.95 154.55 136.23 156.82 136.79 156.72 133.66 147.53 129.14 134.25 129.14 124.67 131.61 121.85 136.48"/>
  <polygon class="st36" points="120.83 136.79 119.59 139.69 118.25 143.21 119.8 143.75 121.49 144.5 122.2 143.45 123.76 142.53 126.04 141.38 129.39 140.22 131.73 139.39 135.17 138.73 138.61 138.45 140.25 138.46 143.37 138.7 148.15 139.69 152.96 141.49 156.52 143.4 158.96 145.02 162.08 146.19 160.4 140.86 157.21 136.53 154.96 136.63 150.48 134.82 144.09 132.97 135.58 132.77 130.25 133.91 120.83 136.79"/>
  <polygon class="st38" points="127.7 149.44 129 151.28 134.3 151.6 141.54 153.15 146.35 155.44 148.82 157.76 152.54 161.09 156.04 159.95 157.21 156.86 156.82 155.64 154.49 152.56 151.55 150.3 147.38 147.85 143.32 146.65 138.71 146.19 134.66 146.71 132.09 147.65 127.7 149.44"/>
  <polygon class="st0" points="158.59 156.21 161.26 148.01 159.89 145.72 157.1 143.75 153.15 141.59 149.2 140.09 144.26 138.89 137.12 138.45 134.51 138.73 130.04 139.99 123.8 142.27 121.34 143.91 121.12 144.5 122.77 145.39 126.54 148.49 128.15 149.66 131.33 147.85 137.58 146.19 141.68 146.42 144.96 147.16 147.93 148.01 151.55 150.3 154.76 153.27 157.44 156.86 158.59 156.21"/>
  <polygon class="st33" points="242.98 136.62 241.94 136.94 237.06 134.81 231.07 133.28 227.92 132.84 224.18 132.84 216.48 134.05 209.84 136.37 207.53 136.94 207.64 133.75 216.95 129.15 230.41 129.15 240.13 131.66 242.98 136.62"/>
  <polygon class="st36" points="244.01 136.94 245.27 139.89 246.63 143.47 245.06 144.03 243.35 144.79 242.63 143.72 241.05 142.79 238.73 141.61 235.34 140.43 232.97 139.58 229.48 138.91 225.99 138.62 224.33 138.64 221.17 138.88 216.32 139.89 211.45 141.73 207.83 143.67 205.36 145.32 202.2 146.51 203.9 141.08 207.14 136.67 209.42 136.77 213.96 134.93 220.44 133.04 229.06 132.84 234.46 134.01 244.01 136.94"/>
  <polygon class="st38" points="237.05 149.82 235.73 151.7 230.36 152.02 223.02 153.6 218.15 155.93 215.64 158.3 211.87 161.69 208.33 160.53 207.14 157.38 207.53 156.14 209.89 153 212.88 150.7 217.11 148.2 221.21 146.98 225.89 146.51 229.99 147.04 232.6 148 237.05 149.82"/>
  <polygon class="st0" points="205.73 156.72 203.03 148.36 204.42 146.03 207.25 144.03 211.25 141.82 215.25 140.3 220.27 139.07 227.5 138.62 230.15 138.91 234.68 140.19 241.01 142.52 243.5 144.19 243.73 144.79 242.05 145.7 238.22 148.86 236.59 150.05 233.37 148.21 227.03 146.51 222.88 146.74 219.55 147.5 216.54 148.36 212.88 150.7 209.62 153.72 206.9 157.38 205.73 156.72"/>
  <polygon class="st30" points="152.93 143.75 155.5 144.26 156.82 146.04 156.42 148.27 154.87 149.66 151.65 148.89 150.67 147.21 150.67 145.2 152.93 143.75"/>
  <polygon class="st30" points="210.37 143.91 212.94 144.42 214.26 146.2 213.87 148.43 212.32 149.82 209.09 149.05 208.12 147.37 208.12 145.36 210.37 143.91"/>
  <polygon class="st30" points="214.03 151.5 215.03 151.71 215.55 152.48 215.39 153.45 214.79 154.04 213.52 153.71 213.14 152.99 213.14 152.12 214.03 151.5"/>
  <polygon class="st30" points="118.25 143.63 119.32 143.63 123.24 145.79 127.7 149.44 128.71 150.9 129.34 151.74 130 151.98 135.19 151.67 139.43 152.56 146.87 156.13 151.37 159.89 152.09 161.13 149.88 165.12 134.61 166.6 122.82 162.1 118.9 155.85 118.25 143.63"/>
  <polygon class="st30" points="127.26 142.8 128.64 143.09 129.35 144.12 129.14 145.39 128.3 146.19 126.56 145.75 126.04 144.78 126.04 143.63 127.26 142.8"/>
  <polygon class="st30" points="236.71 143.02 238.09 143.31 238.8 144.33 238.59 145.61 237.75 146.41 236.02 145.96 235.49 145 235.49 143.85 236.71 143.02"/>
  <polygon class="st30" points="247.65 143.85 248.27 149 246.63 155.34 238.87 162.51 226.87 166.34 213.13 163.45 212.37 161.27 213.42 160.2 216.11 157.78 220.43 154.8 224.3 153 229.93 151.86 231.86 151.92 234.25 151.92 235.62 151.92 237.87 149.18 241.34 146.22 244.64 144.27 247.14 143.24 247.65 143.85"/>
  <polygon class="st37" points="224.98 168.39 222.03 170.61 220.53 173.07 220.66 174.94 223.25 177.76 228.33 180.07 233.4 181.21 239.21 181.46 241.5 181.11 247.54 179.55 252.64 177 255.34 174.39 255.96 172.56 255.17 170.4 252.92 168.39 249.49 166.85 246.63 165.73 241.93 164.85 238.87 164.15 224.98 168.39"/>
  <polygon class="st31" points="144.16 325.1 142.55 314.15 133.94 302.68 123.04 295.16 113.64 297.17 110.84 314.15 121.73 325.25 132.56 330.75 138.85 330.75 144.16 325.1"/>
  <polyline class="st31" points="252.21 298.27 245.59 296 238.41 295.16 226.67 307.02 221.55 315.98 220.49 324.52 220.88 326.9 225.8 330.19 229.63 330.75 237.72 328.4 244.41 322.67 252.31 315.45 255.54 308.96 254.9 303.98 253.61 299.88"/>
  <polygon class="st30" points="150.19 151.28 151.09 151.5 151.55 152.27 151.41 153.23 150.87 153.83 149.74 153.5 149.4 152.77 149.4 151.91 150.19 151.28"/>
  <path class="st25" d="M213.32,215.21c.37,2.16-14.71,7.47-30.94,7.55-16.64.08-32.09-5.37-31.71-7.55.27-1.55,10.62-1.55,31.32-1.56,20.7,0,31.05,0,31.32,1.56Z"/>
  <path class="st25" d="M281.01,166.37c-4.09,8.13-11.44,19.87-24.27,29.31-20.09,14.8-41.24,14.88-73.3,15-32.08.12-53.15.2-73.49-14.34-13.37-9.56-21.07-21.61-25.35-29.97-.05,4.39.49,13.74,6.43,22.91,5.61,8.66,13.05,12.78,16.35,14.36,10.34,5.05,19.33,7.72,25.73,9.22,11.81,2.77,21.43,3.12,35.92,3.65,9.41.34,17.25.27,22.76.12,6.16-.34,12.31-.69,18.47-1.03,10.4-1.4,20.8-2.81,31.2-4.21,4.96-1.24,14.41-4.34,23.15-12.5,13.25-12.36,15.8-27.82,16.39-32.53Z"/>
  <path class="st25" d="M126.51,294.37s23.78,9.39,20.81,25.75"/>
  <path class="st25" d="M237.89,294.37s-23.78,9.39-20.81,25.75"/>
  <path class="st25" d="M146,310.38c.96,1.58,2.16,3.31,3.61,5.02,2.45,2.87,4.85,4.75,6.77,5.99-2.32-.25-4.65-.49-6.97-.74l-3.78-2.31.36-7.96Z"/>
  <path class="st25" d="M218.43,310.38c-.96,1.58-2.16,3.31-3.61,5.02-2.45,2.87-4.85,4.75-6.77,5.99,2.32-.25,4.65-.49,6.97-.74l3.78-2.31-.36-7.96Z"/>
  <path class="st34" d="M216.61,311.71c-5.24,3.03-17.61,9.24-34.47,9-15.73-.23-27.29-5.97-32.52-9,3.5,4.07,7.01,8.13,10.51,12.2l20.23,3.25,20.88-2.07,11.8-7.08,3.56-6.3Z"/>
  <path class="st25" d="M145.91,252.97c-.41,6.14-2.38,10.52-3.69,12.91-1.42,2.58-6.04,11.01-13.57,11.76-.93.09-1.7.05-2.19,0,1.52-1.33,3.03-2.66,4.55-3.99,4.97-6.89,9.94-13.79,14.91-20.68Z"/>
  <path class="st25" d="M218.53,252.97c.41,6.14,2.38,10.52,3.69,12.91,1.42,2.58,6.04,11.01,13.57,11.76.93.09,1.7.05,2.19,0-1.52-1.33-3.03-2.66-4.55-3.99-4.97-6.89-9.94-13.79-14.91-20.68Z"/>
  <path class="st34" d="M44.05,145.48c1.53,2.61,3.73,5.99,6.76,9.64,2.09,2.52,5.86,7,11.47,11.05,3.72,2.69,10.65,6.91,20.87,8.95-.72-4.24-1.45-8.48-2.17-12.72l-19.09-5.15c-4.68-3.49-9.73-6.92-15.18-10.2-.89-.54-1.78-1.06-2.66-1.57Z"/>
  <path class="st34" d="M319.52,145.29c-1.53,2.61-3.73,5.99-6.76,9.64-2.09,2.52-5.86,7-11.47,11.05-3.72,2.69-10.65,6.91-20.87,8.95.72-4.24,1.45-8.48,2.17-12.72l19.09-5.15c4.68-3.49,9.73-6.92,15.18-10.2.89-.54,1.78-1.06,2.66-1.57Z"/>
  <path class="st26" d="M145.99,47.05c.04.79.31,5.31,4.05,8.39,2.12,1.74,4.37,2.22,5.49,2.38-1.27,1.44-2.54,2.88-3.81,4.32l-5.34-8.4-1.84-4.95,1.44-1.73Z"/>
  <path class="st34" d="M125.3,230.38c-.13-.87-.45-2.21-1.36-3.5-4.63-6.57-19.68-4.77-27.92-2.58-4.46,1.19-8.55,2.92-15.6,3.2-2.51.1-4.59-.02-5.99-.14,2.39-.74,4.79-1.48,7.18-2.22l21.86-5.12,14.54.67,10.09,6.74-2.79,2.95Z"/>
  <path class="st34" d="M238.45,231.21c.13-.87.45-2.21,1.36-3.5,4.63-6.57,19.68-4.77,27.92-2.58,4.46,1.19,8.55,2.92,15.6,3.2,2.51.1,4.59-.02,5.99-.14-2.39-.74-4.79-1.48-7.18-2.22l-21.86-5.12-14.54.67-10.09,6.74,2.79,2.95Z"/>
  <path class="st34" d="M148.57,61.76c-.33,1.5-2.79,11.96-11.58,15.84-9.76,4.32-23.9-1-30.84-14.42,1.85,4.07,3.69,8.14,5.54,12.2l14.61,8.96,10.53,1.36,10-4.5,4.31-10.37,1.22-5.42-3.79-3.67Z"/>
  <path class="st34" d="M217.7,61.3c.33,1.5,2.79,11.96,11.58,15.84,9.76,4.32,23.9-1,30.84-14.42-1.85,4.07-3.69,8.14-5.54,12.2l-14.61,8.96-10.53,1.36-10-4.5-4.31-10.37-1.22-5.42,3.79-3.67Z"/>
  <path class="st34" d="M162.23,56.86c1.42,1.73,3.75,2.44,5.87,1.78,2.21-.69,3.76-2.74,3.83-5.09.01.68.03,1.38.05,2.07.01.45.03.9.05,1.34-.36.81-.71,1.62-1.07,2.43-.34.65-.68,1.3-1.02,1.95-.51,1-1.03,2-1.54,3-.94-.99-1.9-2.07-2.87-3.23-1.22-1.46-2.31-2.89-3.29-4.26Z"/>
  <path class="st34" d="M202.66,56.86c-1.42,1.73-3.75,2.44-5.87,1.78-2.21-.69-3.76-2.74-3.83-5.09-.01.68-.03,1.38-.05,2.07-.01.45-.03.9-.05,1.34.36.81.71,1.62,1.07,2.43.34.65.68,1.3,1.02,1.95.51,1,1.03,2,1.54,3,.94-.99,1.9-2.07,2.87-3.23,1.22-1.46,2.31-2.89,3.29-4.26Z"/>
  <path class="st26" d="M170.71,66.58c.46.58,4.93,6.09,12.42,5.84,6.88-.23,10.86-5.14,11.41-5.84-.8,2.66-1.6,5.33-2.4,7.99l-14.42,1.23-7.27-3.64.26-5.59Z"/>
  <path class="st26" d="M79.83,75.11c1.9.07,7.71.05,13.4-3.89,5.2-3.6,7.32-8.39,8.03-10.23,1.16,1.06,2.32,2.12,3.48,3.18l-2.63,4.98-6.86,2.8-3.41,5.72-2.86,4.61-5.11-1.39c-1.35-1.92-2.69-3.85-4.04-5.77Z"/>
  <path class="st26" d="M77.89,91.02c.54.02,3.12.04,5.34-1.95,2.23-1.99,2.49-4.58,2.54-5.12.68.53,1.37,1.06,2.05,1.59l-1.05,2.49c-.5.92-1.01,1.84-1.51,2.77-.5.73-1,1.46-1.5,2.19-.74.54-1.48,1.07-2.21,1.61l-2.04-.69c-.54-.96-1.07-1.92-1.61-2.88Z"/>
  <path class="st26" d="M97.78,57.82c.63-.08,2.28-.38,3.7-1.74,2.21-2.13,2-5.06,1.96-5.46v10.53c-.85-.08-1.7-.16-2.56-.24-1.03-1.03-2.07-2.06-3.1-3.09Z"/>
  <path class="st26" d="M267.4,56.49c-.63-.08-2.28-.38-3.7-1.74-2.21-2.13-2-5.06-1.96-5.46,0,3.51,0,7.02,0,10.53.85-.08,1.7-.16,2.56-.24,1.03-1.03,2.07-2.06,3.1-3.09Z"/>
  <path class="st26" d="M284.7,90.52c-.54.02-3.12.04-5.34-1.95-2.23-1.99-2.49-4.58-2.54-5.12l-2.05,1.59,1.05,2.49c.5.92,1.01,1.84,1.51,2.77.5.73,1,1.46,1.5,2.19.74.54,1.48,1.07,2.21,1.61l2.04-.69c.54-.96,1.07-1.92,1.61-2.88Z"/>
  <path class="st26" d="M284.84,75.48c-1.9.07-7.71.05-13.4-3.89-5.2-3.6-7.32-8.39-8.03-10.23-1.16,1.06-2.32,2.12-3.48,3.18l2.63,4.98,6.86,2.8,3.41,5.72,2.86,4.61,5.11-1.39c1.35-1.92,2.69-3.85,4.04-5.77Z"/>
  <path class="st26" d="M217.96,48.33c-.04.79-.31,5.31-4.05,8.39-2.12,1.74-4.37,2.22-5.49,2.38,1.27,1.44,2.54,2.88,3.81,4.32l5.34-8.4,1.84-4.95-1.44-1.73Z"/>
  <path class="st26" d="M81.52,132.41c-.84.06-7.15.43-11.27-4.29-1.86-2.13-2.53-4.46-2.8-5.81-.25,1.03-.6,3.07,0,5.52.54,2.22,1.61,3.77,2.25,4.57,3.26.76,6.51,1.51,9.77,2.27l2.05-2.27Z"/>
  <path class="st26" d="M284.08,131.57c.84.06,7.15.43,11.27-4.29,1.86-2.13,2.53-4.46,2.8-5.81.25,1.03.6,3.07,0,5.52-.54,2.22-1.61,3.77-2.25,4.57-3.26.76-6.51,1.51-9.77,2.27l-2.05-2.27Z"/>
  <path class="st13" d="M126.5,275.58c-.52,2.78-.94,6.26-.86,10.26.08,4.51.75,8.36,1.5,11.33"/>
  <path class="st13" d="M237.54,275.58c.52,2.78.94,6.26.86,10.26-.08,4.51-.75,8.36-1.5,11.33"/>
  <path class="st13" d="M143.35,317.75c.27.59,2.42,5.4,0,9.15-1.79,2.78-5.07,3.38-6.57,3.66-10.99,2.04-23.01-12.9-24.36-14.61-4.86-4.55-5.17-12.13-.98-16.87,4.44-5.01,12.61-5.33,17.62-.36,1.93,1.37,4.11,3.18,6.26,5.54,4.47,4.91,6.8,10,8.03,13.48Z"/>
  <path class="st13" d="M117.3,295.55s.9,12.59,6.61,14.28"/>
  <path class="st13" d="M112.02,299.88s.9,12.59,6.61,14.28"/>
  <path class="st13" d="M220.88,317.75c-.27.59-2.42,5.4,0,9.15,1.79,2.78,5.07,3.38,6.57,3.66,10.99,2.04,23.01-12.9,24.36-14.61,4.86-4.55,5.17-12.13.98-16.87-4.44-5.01-12.61-5.33-17.62-.36-1.93,1.37-4.11,3.18-6.26,5.54-4.47,4.91-6.8,10-8.03,13.48Z"/>
  <path class="st13" d="M246.93,295.55s-.9,12.59-6.61,14.28"/>
  <path class="st13" d="M252.21,299.88s-.9,12.59-6.61,14.28"/>
  <path class="st13" d="M144.49,318.87s36.31,17.09,75.25,0"/>
  <path class="st12" d="M144.23,123.62s13.41-.13,18.2-8.39"/>
  <path class="st12" d="M220.71,123.93s-13.41-.13-18.2-8.39"/>
  <path class="st1" d="M119.63,152.55l3.65-.54,3.49,2.39s2.28,2.59,2.52,2.69,4.17-.82,4.17-.82l2.69-3.44,2.24-.94,4.48,1.72s2.19,2.52,2.35,2.53,3.31.13,3.31.13l2.28-2.34,1.43-1.95,2.77-1.2,2.88.33,1.69,3.84-4.97,7.67-10.82,2.62-14.33-.77-10.11-4.58-.42-5.94.7-1.37Z"/>
  <g class="st28">
    <path class="st8" d="M118.5,153.95c1-1.36,2.71-2.13,4.45-1.98,1.79.15,3.34,1.23,4.01,2.8.73,1.51,2.41,2.42,4.17,2.25,1.69-.16,3.14-1.28,3.64-2.82"/>
    <path class="st8" d="M151,153.45c.73-1.5,2.27-2.53,4.02-2.68,1.8-.15,3.53.66,4.48,2.09"/>
    <path class="st8" d="M134.75,154.26c.89-1.43,2.53-2.31,4.28-2.3,1.8.02,3.44.98,4.23,2.5.86,1.45,2.61,2.23,4.35,1.94,1.67-.28,3.03-1.5,3.4-3.07"/>
    <path class="st8" d="M134.76,154.21c-.5,1.54-1.95,2.66-3.64,2.82-1.76.16-3.44-.74-4.17-2.25-.66-1.57-2.21-2.65-4.01-2.8-1.74-.14-3.45.62-4.45,1.98"/>
    <path class="st8" d="M151,153.45c.73-1.5,2.27-2.53,4.02-2.68,1.8-.15,3.53.66,4.48,2.09"/>
    <path class="st8" d="M134.75,154.26c.89-1.43,2.53-2.31,4.28-2.3,1.8.02,3.44.98,4.23,2.5.86,1.45,2.61,2.23,4.35,1.94,1.67-.28,3.03-1.5,3.4-3.07"/>
    <path class="st8" d="M159.5,153.01c-.19,6.83-9.32,12.33-20.55,12.33-10.58,0-19.29-4.88-20.43-11.14"/>
  </g>
  <path class="st1" d="M245.13,152.67l-3.65-.53-3.49,2.37s-2.28,2.57-2.52,2.66-4.17-.81-4.17-.81l-2.69-3.41-2.24-.93-4.48,1.7s-2.19,2.5-2.35,2.51-3.31.12-3.31.12l-2.28-2.32-1.43-1.93-2.77-1.19-2.88.32-1.69,3.8,4.97,7.59,10.82,2.59,14.33-.76,10.11-4.54.42-5.88-.7-1.36Z"/>
  <g>
    <path class="st8" d="M246.26,154.07c-1-1.35-2.71-2.1-4.45-1.96-1.79.15-3.34,1.22-4.01,2.77-.73,1.5-2.41,2.39-4.17,2.23-1.69-.16-3.14-1.26-3.64-2.79"/>
    <path class="st8" d="M213.76,153.56c-.73-1.49-2.27-2.51-4.02-2.65-1.8-.15-3.53.65-4.48,2.07"/>
    <path class="st8" d="M230.01,154.37c-.89-1.42-2.53-2.29-4.28-2.27-1.8.02-3.44.97-4.23,2.47-.86,1.44-2.61,2.21-4.35,1.92-1.67-.28-3.03-1.48-3.4-3.04"/>
    <path class="st8" d="M230,154.32c.5,1.53,1.95,2.63,3.64,2.79,1.76.16,3.44-.74,4.17-2.23.66-1.55,2.21-2.63,4.01-2.77,1.74-.14,3.45.61,4.45,1.96"/>
    <path class="st8" d="M213.76,153.56c-.73-1.49-2.27-2.51-4.02-2.65-1.8-.15-3.53.65-4.48,2.07"/>
    <path class="st8" d="M230.01,154.37c-.89-1.42-2.53-2.29-4.28-2.27-1.8.02-3.44.97-4.23,2.47-.86,1.44-2.61,2.21-4.35,1.92-1.67-.28-3.03-1.48-3.4-3.04"/>
    <path class="st8" d="M205.27,153.13c.19,6.76,9.32,12.2,20.55,12.2,10.58,0,19.29-4.83,20.43-11.03"/>
  </g>
  <path class="st13" d="M172.04,183.65c.61-.58,3.41-3.17,8-3.84.54-.08,2.57-.35,4.91.11,4.34.85,6.15,3.49,6.59,4.19"/>
  <path class="st11" d="M179.47,181.11c.14.16.73.9.75,1.98,0,.13,0,.6-.21,1.12-.39.97-1.17,1.29-1.37,1.36"/>
  <path class="st11" d="M186,181.11c.14.16.73.9.75,1.98,0,.13,0,.6-.21,1.12-.39.97-1.17,1.29-1.37,1.36"/>
  <path class="st13" d="M182.19,236.98c3.36-.02,10.83-.06,17.52,3.44,11.85,6.19,15.6,20.25,17.56,29.98,3.75,18.57-.67,38.44-.67,38.44-.42,1.66-1.25,4.07-2.99,6.56-2.75,3.94-6.25,5.89-8.04,6.73-4.55,1.98-12.82,4.89-23.52,4.8-10.93-.09-19.31-3.26-23.83-5.36-2.09-1.15-5.66-3.52-8.28-7.84-1.03-1.69-1.69-3.32-2.13-4.7,0,0,0,0,0,0-1.33-5.83-4.75-21.5-.67-38.43,2.32-9.64,5.71-23.69,17.56-29.98,6.71-3.56,14.2-3.6,17.48-3.62Z"/>
  <path class="st12" d="M247.97,220.69s23.92,7.36,34.82,21.75"/>
  <path class="st12" d="M261.11,248.69s-1.67-13.5-14.56-27.65"/>
  <path class="st13" d="M108.98,247.62c-3.66-.6-5.79,2.24-5.79,2.24-3.49-17.68-21.99-7.61-21.99-7.61,5.34-12.95-17.06-19.53-17.06-19.53,11.3,2.26,38.64-8.63,48.71-7.81,10.07.82,20.76,9.45,20.76,9.45"/>
  <path class="st12" d="M128.87,227.91s-3.58-4.88-11.44-7.06c-2.62-.73-5.72-1.15-9.31-1-14.39.62-24.68,7.91-36.08,6.22"/>
  <path class="st12" d="M116.01,220.5s-23.92,7.36-34.82,21.75"/>
  <path class="st12" d="M102.87,248.5s1.67-13.5,14.56-27.65"/>
  <path class="st13" d="M230.38,224.56s10.69-8.63,20.76-9.45c10.07-.82,37.41,10.07,48.71,7.81,0,0-22.4,6.58-17.06,19.53,0,0-18.5-10.07-21.99,7.61,0,0-2.13-2.84-5.79-2.24"/>
  <path class="st12" d="M235.11,228.1s3.58-4.88,11.44-7.06c2.62-.73,5.72-1.15,9.31-1,14.39.62,24.68,7.91,36.08,6.22"/>
  <path class="st13" d="M152.26,254.38s29.8,14.14,59.92,0"/>
  <path class="st13" d="M146.31,274.81s35.06,19.26,71.7-.19"/>
  <path class="st13" d="M146.22,296.3s35.06,19.26,71.7-.19"/>
  <path class="st13" d="M134.55,315.44"/>
  <path class="st13" d="M112.33,315.45"/>
  <path class="st13" d="M125.71,281.88s-15.69,27.39-41.7,16.5c0,0-4.57,14.04,26.7,16.94"/>
  <path class="st13" d="M156.56,215.53c-2.41.21-5.35.65-8.7,1.54,0,0-.37.1-.7.19-2.52.74-8.53,3.01-18.79,11.37-4.48,3.65-10.42,9-16.68,16.29-.66,1.22-5.04,9.58-1.33,18.64.68,1.66,4.19,9.59,12.22,11.58,2.62.65,4.93.47,6.47.21,1.55-1.26,3.39-2.91,5.29-5.03,2.77-3.08,4.58-5.94,5.61-7.74,2.07-3.61,3.37-7.02,4.2-9.84"/>
  <path class="st13" d="M219.62,252.65c.83,2.81,2.12,6.22,4.2,9.84,3.53,6.13,7.81,10.26,10.91,12.77,1.54.26,3.85.44,6.47-.21,8.03-1.99,11.54-9.92,12.22-11.58,3.71-9.06-.66-17.42-1.33-18.64-6.26-7.29-12.2-12.64-16.68-16.29-11.38-9.28-17.54-11.05-19.5-11.56-4.74-1.23-8.85-1.29-11.57-1.15"/>
  <path class="st12" d="M109.42,261.66c.3-.7.82-1.69,1.71-2.68.8-.89,1.61-1.48,2.23-1.85"/>
  <path class="st12" d="M113.36,267.6c.3-.7.82-1.69,1.71-2.68.8-.89,1.61-1.48,2.23-1.85"/>
  <path class="st12" d="M119,272.56c.3-.7.82-1.69,1.71-2.68.8-.89,1.61-1.48,2.23-1.85"/>
  <path class="st12" d="M253.61,262.15c-.3-.7-.82-1.69-1.71-2.68-.8-.89-1.61-1.48-2.23-1.85"/>
  <path class="st12" d="M249.67,268.09c-.3-.7-.82-1.69-1.71-2.68-.8-.89-1.61-1.48-2.23-1.85"/>
  <path class="st12" d="M244.02,273.05c-.3-.7-.82-1.69-1.71-2.68-.8-.89-1.61-1.48-2.23-1.85"/>
  <ellipse class="st14" cx="139.07" cy="147.16" rx="22.54" ry="19.43"/>
  <path class="st14" d="M79.32,134.15h-33.53c-.98.23-2.05.68-2.54,1.62-2.24,4.23,8.43,15.94,20.1,21.67,7.03,3.45,13.62,4.34,17.94,4.57"/>
  <path class="st13" d="M85.68,180.03c-3.8.44-14.18,1.12-24.27-5.15-18.05-11.22-17.85-33.93-17.81-35.19"/>
  <path class="st12" d="M60.48,163.01s2.05,7,7,3.59c.16.49,1.36,4.02,4.85,5.31,3.37,1.24,7.46-.1,9.87-3.44"/>
  <path class="st13" d="M151.88,64.25c-4.46-5.28-6.47-10.08-7.49-13.43-1.98-6.53-4.46-12.71-2.75-33.9.38-4.66-1.24-6.77-1.91-7.49-3.8-4.14-13.61-3.54-23.21,3.59,0,0-20.77,19.51-10.33,53.36,0,0,7.71,18.36,27.75,18.82,1.76.04,4.2-.25,6.92-1.54,9.7-4.59,10.9-17.85,11.01-19.41"/>
  <path class="st13" d="M105.85,65.21s-10.62-15.31-30.65-4.83c0,0,2.87,20.1,12.82,22.57"/>
  <path class="st13" d="M103.26,43.53c-.8-.56-2.39-1.51-4.61-1.82-2.7-.38-4.82.38-5.73.77-.71.23-1.87.73-2.52,1.85-1.03,1.78-.09,3.98.45,5.24,2.48,5.83,10.18,11.3,12.42,12.84"/>
  <path class="st13" d="M87.03,83.68s-8.87-8.26-13.88,1.52c0,0,3.61,9.95,11.25,7.82"/>
  <path class="st12" d="M80.21,127.73s-9.78-1.55-14.68-8.15c0,0-.06,11.61,7.34,14.57"/>
  <path class="st13" d="M108.17,25.4s20.22-6.69,32.91,4.7"/>
  <path class="st13" d="M103.46,52.44s22.86-17.73,41.47,0"/>
  <path class="st13" d="M143.68,48.5s8.48-1.33,9.39-8.39c.08-.6.31-1.29.69-1.36,1.3-.22,5.22,6.9,4.09,13.9-.92,5.71-4.86,9.28-6.44,10.56"/>
  <path class="st13" d="M219.28,49.11s-8.48-1.33-9.39-8.39c-.91-7.06-12.3,14.8,3.19,24.14"/>
  <path class="st12" d="M163.44,46.71c.39,2.54,2.17,4.66,4.6,5.48,2.4.8,5.06.21,6.9-1.54-1.22,1.76-2.57,4.01-3.77,6.76-1.1,2.53-1.8,4.87-2.25,6.83-.65-.31-5.65-2.86-6.91-8.65-.97-4.47.92-8,1.43-8.88Z"/>
  <path class="st12" d="M200.12,46.71c-.45,2.57-2.22,4.68-4.6,5.48-2.91.97-5.4-.48-5.77-.7,1.11,1.14,2.99,3.37,4.08,6.72.79,2.45.87,4.61.81,6.03.65-.31,5.65-2.86,6.91-8.65.97-4.47-.92-8-1.43-8.88Z"/>
  <path class="st11" d="M118.25,139.69c2.49-1.86,9.56-6.61,19.79-6.91,11.47-.34,19.47,5.15,21.84,6.91"/>
  <path class="st11" d="M157.96,157.76c-.52-.99-5.22-9.69-15.36-11.32-7.65-1.23-13.45,2.36-14.86,3.3"/>
  <path class="st11" d="M120.83,144.35c2.63-1.83,8.72-5.51,17.21-5.87,12.88-.55,21.65,6.96,23.57,8.69"/>
  <path class="st4" d="M156.72,146.65c0,1.67-1.35,3.02-3.02,3.02s-3.02-1.35-3.02-3.02,1.35-3.02,3.02-3.02,3.02,1.35,3.02,3.02Z"/>
  <path class="st17" d="M126.01,144.5c0,.93.76,1.69,1.69,1.69s1.69-.76,1.69-1.69-.76-1.69-1.69-1.69-1.69.76-1.69,1.69Z"/>
  <path class="st11" d="M117.1,142.81c.96.3,2.27.78,3.74,1.54.94.48,3.15,1.71,5.48,3.92.85.81,1.93,1.95,3.02,3.47.77-.1,1.82-.2,3.08-.22,0,0,3.5-.04,6.92.87,3.77,1,9.24,4.11,14.13,9.72,0,0-13.97,11.71-31.77-2.58,0,0-7.44-7.9-4.6-16.73Z"/>
  <circle class="st17" cx="150.48" cy="152.56" r="1.27"/>
  <ellipse class="st14" cx="225.81" cy="147.38" rx="22.54" ry="19.43"/>
  <path class="st14" d="M284.67,134.36c10.67,0,21.33,0,32,0,.51,0,1.02,0,1.53,0,.98.23,2.05.68,2.54,1.62,2.24,4.23-8.43,15.94-20.1,21.67-7.03,3.45-13.62,4.34-17.94,4.57"/>
  <path class="st13" d="M278.31,180.24c3.8.44,14.18,1.12,24.27-5.15,18.05-11.22,17.85-33.93,17.81-35.19"/>
  <path class="st12" d="M303.51,163.22s-2.05,7-7,3.59c-.16.49-1.36,4.02-4.85,5.31-3.37,1.24-7.46-.1-9.87-3.44"/>
  <path class="st13" d="M213,64.46c4.46-5.28,6.47-10.08,7.49-13.43,1.98-6.53,4.46-12.71,2.75-33.9-.38-4.66,1.24-6.77,1.91-7.49,3.8-4.14,13.61-3.54,23.21,3.59,0,0,20.77,19.51,10.33,53.36,0,0-7.71,18.36-27.75,18.82-1.76.04-4.2-.25-6.92-1.54-9.7-4.59-10.9-17.85-11.01-19.41Z"/>
  <path class="st12" d="M284.67,127.94s9.78-1.55,14.68-8.15c0,0,.06,11.61-7.34,14.57"/>
  <path class="st13" d="M256.71,25.61s-20.22-6.69-32.91,4.7"/>
  <path class="st13" d="M261.42,52.66s-22.86-17.73-41.47,0"/>
  <path class="st11" d="M246.63,139.91c-2.49-1.86-9.56-6.61-19.79-6.91-11.47-.34-19.47,5.15-21.84,6.91"/>
  <path class="st11" d="M206.92,157.98c.52-.99,5.22-9.69,15.36-11.32,7.65-1.23,13.45,2.36,14.86,3.3"/>
  <path class="st11" d="M244.05,144.56c-2.63-1.83-8.72-5.51-17.21-5.87-12.88-.55-21.65,6.96-23.57,8.69"/>
  <path class="st4" d="M208.17,146.87c0,1.67,1.35,3.02,3.02,3.02,1.67,0,3.02-1.35,3.02-3.02,0-1.67-1.35-3.02-3.02-3.02s-3.02,1.35-3.02,3.02Z"/>
  <path class="st17" d="M238.87,144.71c0,.93-.76,1.69-1.69,1.69s-1.69-.76-1.69-1.69.76-1.69,1.69-1.69,1.69.76,1.69,1.69Z"/>
  <path class="st11" d="M247.79,143.03c-.96.3-2.27.78-3.74,1.54-.94.48-3.15,1.71-5.48,3.92-.85.81-1.93,1.95-3.02,3.47-.77-.1-1.82-.2-3.08-.22,0,0-3.5-.04-6.92.87-3.77,1-9.24,4.11-14.13,9.72,0,0,13.97,11.71,31.77-2.58,0,0,7.44-7.9,4.6-16.73Z"/>
  <circle class="st17" cx="214.41" cy="152.77" r="1.27"/>
  <path class="st13" d="M182.62,76.34c3.26-.04,6.76-.08,9.32-2.35,3.35-2.97,2.9-7.83,2.61-11.02,0,0-.66-7.14-6.19-13.14-.7-.76-1.66-1.64-1.66-1.64-1.07-.98-1.68-1.41-1.95-1.6-1.02-.69-1.64-.91-2.26-.97-.26-.02-.46,0-.59,0-.83.02-1.57.31-3,1.29-2.15,1.48-3.11,2.37-3.99,3.41-4.72,5.56-5.07,12.66-5.07,12.66-.18,3.6-.4,8.15,2.9,11.02,2.78,2.42,6.61,2.38,9.87,2.35Z"/>
  <path class="st11" d="M173.65,54.55c1.45.72,4.3,1.89,8.07,1.9,3.84.01,6.75-1.18,8.2-1.9"/>
  <path class="st11" d="M171.17,59.81c1.56,1.03,5.3,3.19,10.55,3.4,5.6.22,9.71-1.91,11.31-2.85"/>
  <path class="st11" d="M170.67,66.06c1.76,1.02,5.82,3.06,11.37,3.08,5.61.01,9.71-2.06,11.47-3.08"/>
  <path class="st20" d="M169.64,64.25h-17.76"/>
  <path class="st11" d="M182.39,46.03"/>
  <path class="st20" d="M195.5,64.16c5.48.03,10.95.06,16.43.09"/>
  <path class="st13" d="M259.55,63.82c2.16-2.65,12.51-13.54,30.23-4.28,0,0-2.87,20.1-12.82,22.57"/>
  <path class="st13" d="M261.43,42.33c.89-.54,2.26-1.2,4.05-1.46,2.7-.38,4.82.38,5.73.77.71.23,1.87.73,2.52,1.85,1.03,1.78.09,3.98-.45,5.24-2.48,5.83-10.18,11.3-12.42,12.84"/>
  <path class="st13" d="M277.11,82.84s8.87-8.26,13.88,1.52c0,0-3.61,9.95-11.25,7.82"/>
  <path class="st13" d="M86.16,298.93c.42-1.5,1.18-3.67,2.59-6.04,1.37-2.32,2.16-3.49,3.15-3.7,2.02-.42,4.9,3.4,7.31,9.03"/>
  <path class="st13" d="M100.83,298.27c-.01-1.56.11-3.85.79-6.52.67-2.61,1.1-3.96,1.98-4.43,1.82-.97,5.65,1.89,9.55,6.62"/>
  <path class="st13" d="M114.17,294.08c-.61-1.43-1.39-3.59-1.79-6.32-.39-2.66-.52-4.08.12-4.85,1.3-1.6,5.94-.44,11.37,2.42"/>
  <path class="st13" d="M121.11,273.74"/>
  <path class="st13" d="M122.79,284.91c-.61-1.43-1.39-3.59-1.79-6.32-.27-1.86-.42-3.1-.26-3.95"/>
  <path class="st11" d="M144.69,173.76c-.22,4.01-8.63,7.05-15,7.44-9.69.6-20.68-4.57-20.52-9.03.16-4.39,11.14-8.69,20.49-7.51,6.9.87,15.25,5.02,15.03,9.11Z"/>
  <path class="st11" d="M220.44,173.98c.22,4.01,8.63,7.05,15,7.44,9.69.6,20.68-4.57,20.52-9.03-.16-4.39-11.14-8.69-20.49-7.51-6.9.87-15.25,5.02-15.03,9.11Z"/>
  <path class="st13" d="M105.62,66.36c-11.12,4.48-34.76,23.8-22.22,107.04,0,0,7.46,38.09,60.65,40.67,0,0,23.1,2.25,31.98,2.74h11.92c8.88-.49,31.98-2.74,31.98-2.74,53.19-2.58,60.65-40.67,60.65-40.67,12.35-81.95-10.38-101.94-21.7-106.82"/>
</svg>