<?xml version="1.0" encoding="UTF-8"?>
<svg id="Layer_1" xmlns="http://www.w3.org/2000/svg" version="1.1" viewBox="0 0 365 335">
  <!-- Generator: Adobe Illustrator 29.7.1, SVG Export Plug-In . SVG Version: 2.1.1 Build 8)  -->
  <defs>
    <style>
      .st0 {
        fill: #5fa8a1;
      }

      .st1, .st2, .st3, .st4, .st5, .st6, .st7, .st8, .st9, .st10, .st11, .st12, .st13, .st14, .st15, .st16, .st17, .st18, .st19, .st20, .st21 {
        stroke-linecap: round;
        stroke-linejoin: round;
      }

      .st1, .st2, .st3, .st6, .st7, .st9, .st10, .st11, .st12, .st15, .st19, .st22, .st21 {
        fill: none;
      }

      .st1, .st2, .st4, .st5, .st6, .st7, .st8, .st13, .st14, .st16, .st17, .st19, .st20, .st22, .st21 {
        stroke: #231f20;
      }

      .st1, .st3 {
        stroke-width: .75px;
      }

      .st23 {
        fill: #25544e;
      }

      .st24 {
        fill: #bf6421;
      }

      .st2, .st4, .st10, .st13, .st14 {
        stroke-width: 2px;
      }

      .st25, .st4, .st16 {
        fill: #fdbb28;
      }

      .st3, .st9, .st10, .st11, .st12, .st15, .st18 {
        stroke: #000;
      }

      .st5, .st7, .st8, .st11, .st16, .st18 {
        stroke-width: 3px;
      }

      .st5, .st13, .st20, .st26 {
        fill: #fb7800;
      }

      .st27 {
        fill: #fff;
      }

      .st6, .st12, .st17 {
        stroke-width: 4px;
      }

      .st28, .st8, .st14, .st17, .st18 {
        fill: #44968e;
      }

      .st29 {
        fill: #439690;
      }

      .st30 {
        fill: #0f2d29;
      }

      .st31 {
        fill: #bc8a26;
      }

      .st32 {
        fill: #fb7300;
      }

      .st33 {
        fill: #194340;
      }

      .st15, .st19 {
        stroke-width: .5px;
      }

      .st34 {
        fill: #edb38b;
      }

      .st22 {
        stroke-miterlimit: 10;
      }

      .st35 {
        fill: #addcd8;
      }
    </style>
  </defs>
  <path class="st8" d="M132.09,265.15c-.49,2.6-.87,5.85-.81,9.59.08,4.21.71,7.81,1.4,10.59"/>
  <path class="st8" d="M235.85,265.15c.49,2.6.87,5.85.81,9.59-.08,4.21-.71,7.81-1.4,10.59"/>
  <path class="st7" d="M147.83,304.55c.26.55,2.26,5.05,0,8.55-1.68,2.59-4.74,3.16-6.14,3.42-10.27,1.91-21.51-12.06-22.76-13.65-4.54-4.25-4.83-11.34-.91-15.76,4.15-4.68,11.79-4.98,16.46-.33,1.8,1.28,3.84,2.97,5.85,5.17,4.18,4.58,6.35,9.34,7.5,12.6Z"/>
  <path class="st7" d="M123.48,283.8s.84,11.77,6.18,13.34"/>
  <path class="st7" d="M118.55,287.85s.84,11.77,6.18,13.34"/>
  <path class="st22" d="M220.28,304.55c-.26.55-2.26,5.05,0,8.55,1.68,2.59,4.74,3.16,6.14,3.42,10.27,1.91,21.51-12.06,22.76-13.65,4.54-4.25,4.83-11.34.91-15.76-4.15-4.68-11.79-4.98-16.46-.33-1.8,1.28-3.84,2.97-5.85,5.17-4.18,4.58-6.35,9.34-7.5,12.6Z"/>
  <path class="st7" d="M244.63,283.8s-.84,11.77-6.18,13.34"/>
  <path class="st7" d="M249.56,287.85s-.84,11.77-6.18,13.34"/>
  <path class="st8" d="M148.9,305.6s33.93,15.97,70.32,0"/>
  <path class="st7" d="M184.13,229.08c3.14-.02,10.12-.05,16.37,3.21,11.08,5.79,14.58,18.92,16.41,28.02,3.5,17.35-.62,35.92-.62,35.92-.39,1.55-1.17,3.8-2.8,6.13-2.57,3.68-5.84,5.5-7.51,6.29-4.25,1.85-11.98,4.57-21.98,4.49-10.21-.08-18.04-3.05-22.27-5.01-1.96-1.08-5.29-3.29-7.74-7.32-.96-1.58-1.58-3.1-1.99-4.4,0,0,0,0,0,0-1.25-5.45-4.44-20.09-.62-35.92,2.17-9,5.34-22.14,16.41-28.02,6.27-3.33,13.27-3.37,16.34-3.38Z"/>
  <path class="st2" d="M245.6,213.85s22.36,6.88,32.54,20.33"/>
  <path class="st2" d="M257.88,240.02s-1.56-12.61-13.61-25.84"/>
  <path class="st8" d="M115.71,239.01c-3.42-.56-5.41,2.1-5.41,2.1-3.27-16.52-20.55-7.11-20.55-7.11,4.99-12.1-15.94-18.25-15.94-18.25,10.56,2.11,36.11-8.07,45.53-7.3,9.41.77,19.4,8.83,19.4,8.83"/>
  <path class="st14" d="M134.3,220.6s-3.35-4.56-10.69-6.6c-2.45-.68-5.34-1.08-8.7-.93-13.45.58-23.07,7.39-33.72,5.81"/>
  <path class="st2" d="M122.28,213.67s-22.36,6.88-32.54,20.33"/>
  <path class="st2" d="M110,239.84s1.56-12.61,13.61-25.84"/>
  <path class="st8" d="M229.16,217.47s9.99-8.07,19.4-8.83c9.41-.77,34.96,9.41,45.53,7.3,0,0-20.94,6.15-15.94,18.25,0,0-17.29-9.41-20.55,7.11,0,0-1.99-2.65-5.41-2.1"/>
  <path class="st14" d="M233.58,220.78s3.35-4.56,10.69-6.6c2.45-.68,5.34-1.08,8.7-.93,13.45.58,23.07,7.39,33.72,5.81"/>
  <path class="st7" d="M156.16,245.34s27.85,13.21,55.99,0"/>
  <path class="st7" d="M150.6,264.42s32.77,18,67.01-.18"/>
  <path class="st7" d="M150.51,284.51s32.77,18,67.01-.18"/>
  <path class="st7" d="M139.61,302.39"/>
  <path class="st7" d="M118.84,302.41"/>
  <path class="st8" d="M131.34,271.03s-14.66,25.6-38.97,15.42c0,0-4.27,13.13,24.96,15.83"/>
  <path class="st8" d="M160.99,208.96c-2.39.16-5.43.56-8.94,1.5,0,0-.34.09-.66.18-2.36.69-7.97,2.81-17.56,10.62-4.19,3.41-9.74,8.41-15.59,15.22-.62,1.14-4.71,8.96-1.24,17.42.64,1.55,3.92,8.96,11.42,10.82,2.45.61,4.61.44,6.05.19,1.45-1.17,3.17-2.72,4.95-4.7,2.59-2.88,4.28-5.55,5.25-7.24,1.94-3.37,3.15-6.56,3.93-9.2"/>
  <path class="st8" d="M162.45,208.89c-.45.02-.94.04-1.46.07"/>
  <path class="st8" d="M219.11,243.72c.77,2.62,1.98,5.81,3.93,9.2,3.29,5.73,7.3,9.59,10.19,11.93,1.44.24,3.6.41,6.05-.19,7.5-1.86,10.79-9.27,11.42-10.82,3.47-8.46-.62-16.28-1.24-17.42-5.85-6.82-11.4-11.81-15.59-15.22-10.64-8.67-16.39-10.33-18.22-10.81-4.43-1.15-8.27-1.21-10.81-1.07"/>
  <path class="st2" d="M116.12,252.14c.28-.65.77-1.58,1.6-2.51.74-.83,1.51-1.38,2.08-1.73"/>
  <path class="st2" d="M119.8,257.68c.28-.65.77-1.58,1.6-2.51.74-.83,1.51-1.38,2.08-1.73"/>
  <path class="st2" d="M125.08,262.32c.28-.65.77-1.58,1.6-2.51.74-.83,1.51-1.38,2.08-1.73"/>
  <path class="st2" d="M250.87,252.59c-.28-.65-.77-1.58-1.6-2.51-.74-.83-1.51-1.38-2.08-1.73"/>
  <path class="st2" d="M247.19,258.14c-.28-.65-.77-1.58-1.6-2.51-.74-.83-1.51-1.38-2.08-1.73"/>
  <path class="st2" d="M241.91,262.78c-.28-.65-.77-1.58-1.6-2.51-.74-.83-1.51-1.38-2.08-1.73"/>
  <ellipse class="st6" cx="144.19" cy="145.52" rx="21.07" ry="18.16"/>
  <path class="st7" d="M184.51,182.83c-1.59,4.16-5.63,6.86-10,6.7-2.47-.09-4.78-1.08-6.56-2.71-1.17-1.08-2.11-2.43-2.7-3.99"/>
  <polygon class="st2" points="166.37 194.16 174.88 190.65 167.96 186.82 166.37 194.16"/>
  <path class="st17" d="M88.35,133.36h-31.33c-.92.22-1.91.64-2.38,1.51-2.1,3.95,7.88,14.9,18.79,20.25,6.57,3.22,12.73,4.06,16.77,4.27"/>
  <path class="st16" d="M94.3,176.23c-3.55.41-13.26,1.05-22.68-4.81-16.86-10.48-16.68-31.71-16.65-32.88"/>
  <path class="st2" d="M70.74,160.33s1.92,6.54,6.54,3.35c.15.46,1.27,3.76,4.54,4.96,3.15,1.16,6.97-.1,9.23-3.21"/>
  <path class="st25" d="M156.16,68.03c-4.16-4.93-6.05-9.42-7-12.55-1.85-6.1-4.17-11.88-2.57-31.68.35-4.35-1.16-6.32-1.78-7-3.55-3.87-12.72-3.3-21.69,3.35,0,0-19.41,18.23-9.65,49.87,0,0,7.2,17.16,25.93,17.59,1.65.04,3.92-.24,6.46-1.44,9.06-4.29,10.18-16.68,10.29-18.14"/>
  <path class="st5" d="M113.15,68.93s-9.92-14.3-28.65-4.52c0,0,2.68,18.79,11.98,21.1"/>
  <path class="st5" d="M110.73,48.67c-.75-.52-2.23-1.41-4.31-1.7-2.52-.36-4.51.35-5.36.72-.67.21-1.75.68-2.35,1.73-.96,1.66-.09,3.72.42,4.9,2.32,5.45,9.51,10.56,11.61,12"/>
  <path class="st5" d="M95.55,86.19s-8.29-7.72-12.97,1.42c0,0,3.37,9.3,10.52,7.31"/>
  <path class="st13" d="M89.18,127.36s-9.14-1.45-13.72-7.62c0,0-.06,10.85,6.86,13.62"/>
  <path class="st16" d="M115.31,31.72s18.9-6.25,30.75,4.39"/>
  <path class="st16" d="M110.91,57s21.36-16.57,38.76,0"/>
  <path class="st5" d="M148.5,53.32s7.93-1.24,8.78-7.84c.07-.56.29-1.21.65-1.27,1.21-.21,4.87,6.45,3.82,12.99-.86,5.33-4.54,8.67-6.02,9.87"/>
  <path class="st5" d="M219.15,53.89s-7.93-1.24-8.78-7.84c-.85-6.6-11.49,13.83,2.98,22.56"/>
  <path class="st4" d="M166.97,51.64c.05.24.84,3.79,4.3,5.12,2.37.91,5.07.43,7.02-1.25-1.11,1.04-2.53,2.61-3.75,4.78-1.73,3.08-2.27,5.96-2.45,7.74-.6-.29-5.28-2.67-6.45-8.09-.9-4.18.86-7.48,1.33-8.3Z"/>
  <path class="st4" d="M201.24,51.64c-.42,2.4-2.07,4.38-4.3,5.12-2.72.91-5.04-.44-5.39-.65,1.04,1.06,2.8,3.15,3.81,6.28.74,2.29.81,4.31.75,5.64.6-.29,5.28-2.67,6.45-8.09.9-4.18-.86-7.48-1.33-8.3Z"/>
  <path class="st21" d="M124.74,138.54c2.33-1.73,8.94-6.18,18.49-6.46,10.72-.32,18.2,4.81,20.41,6.46"/>
  <path class="st21" d="M161.84,155.43c-.48-.93-4.88-9.05-14.35-10.58-7.15-1.15-12.57,2.21-13.89,3.08"/>
  <path class="st21" d="M127.15,142.89c2.46-1.71,8.15-5.15,16.09-5.49,12.04-.51,20.23,6.51,22.02,8.12"/>
  <path class="st1" d="M160.68,145.04c0,1.56-1.26,2.82-2.82,2.82s-2.82-1.26-2.82-2.82,1.26-2.82,2.82-2.82,2.82,1.26,2.82,2.82Z"/>
  <path class="st19" d="M131.99,143.03c0,.87.71,1.58,1.58,1.58s1.58-.71,1.58-1.58-.71-1.58-1.58-1.58-1.58.71-1.58,1.58Z"/>
  <path class="st21" d="M123.65,141.45c.9.28,2.12.73,3.49,1.44.88.45,2.94,1.59,5.12,3.67.8.76,1.81,1.83,2.83,3.24.72-.09,1.7-.19,2.88-.2,0,0,3.27-.03,6.46.82,3.52.94,8.64,3.84,13.21,9.09,0,0-13.06,10.95-29.69-2.41,0,0-6.96-7.38-4.3-15.63Z"/>
  <circle class="st19" cx="154.85" cy="150.56" r="1.19"/>
  <ellipse class="st6" cx="225.25" cy="145.72" rx="21.07" ry="18.16"/>
  <path class="st7" d="M184.93,183.03c1.59,4.16,5.63,6.86,10,6.7,2.47-.09,4.78-1.08,6.56-2.71,1.17-1.08,2.11-2.43,2.7-3.99"/>
  <polygon class="st2" points="203.07 194.36 194.56 190.85 201.49 187.02 203.07 194.36"/>
  <path class="st17" d="M280.26,133.56c9.97,0,19.94,0,29.9,0,.48,0,.95,0,1.43,0,.92.22,1.91.64,2.38,1.51,2.1,3.95-7.88,14.9-18.79,20.25-6.57,3.22-12.73,4.06-16.77,4.27"/>
  <path class="st16" d="M274.31,176.43c3.55.41,13.26,1.05,22.68-4.81,16.86-10.48,16.68-31.71,16.65-32.88"/>
  <path class="st2" d="M297.87,160.53s-1.92,6.54-6.54,3.35c-.15.46-1.27,3.76-4.54,4.96-3.15,1.16-6.97-.1-9.23-3.21"/>
  <path class="st16" d="M213.29,68.23c4.16-4.93,6.05-9.42,7-12.55,1.85-6.1,4.17-11.88,2.57-31.68-.35-4.35,1.16-6.32,1.78-7,3.55-3.87,12.72-3.3,21.69,3.35,0,0,19.41,18.23,9.65,49.87,0,0-7.2,17.16-25.93,17.59-1.65.04-3.92-.24-6.46-1.44-9.06-4.29-10.18-16.68-10.29-18.14Z"/>
  <path class="st13" d="M280.26,127.56s9.14-1.45,13.72-7.62c0,0,.06,10.85-6.86,13.62"/>
  <path class="st16" d="M254.13,31.92s-18.9-6.25-30.75,4.39"/>
  <path class="st16" d="M258.53,57.2s-21.36-16.57-38.76,0"/>
  <path class="st21" d="M244.71,138.74c-2.33-1.73-8.94-6.18-18.49-6.46-10.72-.32-18.2,4.81-20.41,6.46"/>
  <path class="st21" d="M207.6,155.63c.48-.93,4.88-9.05,14.35-10.58,7.15-1.15,12.57,2.21,13.89,3.08"/>
  <path class="st21" d="M242.3,143.09c-2.46-1.71-8.15-5.15-16.09-5.49-12.04-.51-20.23,6.51-22.02,8.12"/>
  <path class="st1" d="M208.76,145.24c0,1.56,1.26,2.82,2.82,2.82,1.56,0,2.82-1.26,2.82-2.82,0-1.56-1.26-2.82-2.82-2.82s-2.82,1.26-2.82,2.82Z"/>
  <path class="st19" d="M237.45,143.23c0,.87-.71,1.58-1.58,1.58s-1.58-.71-1.58-1.58.71-1.58,1.58-1.58,1.58.71,1.58,1.58Z"/>
  <path class="st21" d="M245.79,141.65c-.9.28-2.12.73-3.49,1.44-.88.45-2.94,1.59-5.12,3.67-.8.76-1.81,1.83-2.83,3.24-.72-.09-1.7-.19-2.88-.2,0,0-3.27-.03-6.46.82-3.52.94-8.64,3.84-13.21,9.09,0,0,13.06,10.95,29.69-2.41,0,0,6.96-7.38,4.3-15.63Z"/>
  <circle class="st19" cx="214.59" cy="150.76" r="1.19"/>
  <path class="st5" d="M184.89,79.34c3.05-.04,6.32-.07,8.71-2.19,3.13-2.78,2.71-7.32,2.44-10.3,0,0-.61-6.67-5.78-12.28-.65-.71-1.55-1.54-1.55-1.54-1-.92-1.57-1.32-1.82-1.49-.96-.65-1.53-.85-2.11-.9-.24-.02-.43,0-.55,0-.77.02-1.47.29-2.8,1.21-2.01,1.38-2.9,2.22-3.73,3.19-4.41,5.19-4.74,11.83-4.74,11.83-.16,3.36-.37,7.62,2.71,10.3,2.6,2.27,6.17,2.23,9.22,2.19Z"/>
  <path class="st20" d="M176.51,58.97c1.35.67,4.02,1.77,7.54,1.78,3.59.01,6.31-1.11,7.66-1.78"/>
  <path class="st20" d="M174.19,63.88c1.46.96,4.95,2.98,9.86,3.17,5.24.21,9.08-1.78,10.57-2.66"/>
  <path class="st21" d="M173.72,69.72c1.64.95,5.44,2.86,10.62,2.87,5.24.01,9.08-1.92,10.72-2.88"/>
  <path class="st8" d="M172.76,68.03h-16.6"/>
  <path class="st21" d="M184.67,51"/>
  <path class="st8" d="M196.93,67.95c5.12.03,10.23.06,15.35.09"/>
  <path class="st5" d="M256.46,68.36c2.44-2.86,12.01-12.1,28.02-3.73,0,0-2.68,18.79-11.98,21.1"/>
  <path class="st5" d="M256.15,68.45s.05-.06.07-.09"/>
  <path class="st5" d="M255.6,69.15s.18-.27.55-.7"/>
  <path class="st5" d="M258.46,48.59c.82-.51,2.14-1.16,3.87-1.41,2.52-.36,4.51.35,5.36.72.67.21,1.75.68,2.35,1.73.96,1.66.09,3.72-.42,4.9-2.32,5.45-9.51,10.56-11.61,12"/>
  <path class="st5" d="M273.19,86.41s8.29-7.72,12.97,1.42c0,0-3.37,9.3-10.52,7.31"/>
  <path class="st26" d="M94.38,286.97c.4-1.4,1.1-3.43,2.42-5.64,1.28-2.17,2.02-3.27,2.94-3.46,1.89-.39,4.58,3.17,6.83,8.44"/>
  <path class="st26" d="M108.09,286.35c-.01-1.46.1-3.6.74-6.09.62-2.44,1.02-3.7,1.85-4.14,1.7-.91,5.28,1.77,8.92,6.19"/>
  <path class="st5" d="M120.56,282.44c-.57-1.34-1.3-3.36-1.67-5.91-.37-2.49-.48-3.81.11-4.54,1.22-1.49,5.55-.41,10.62,2.26"/>
  <path class="st7" d="M127.05,263.42"/>
  <path class="st5" d="M126.69,264.26c-.14.79,0,1.96.25,3.69.38,2.55,1.1,4.57,1.67,5.91"/>
  <path class="st21" d="M149.44,170.38c-.21,3.75-8.07,6.59-14.02,6.95-9.06.56-19.33-4.27-19.18-8.44.15-4.11,10.41-8.12,19.15-7.02,6.45.81,14.25,4.69,14.04,8.51Z"/>
  <path class="st21" d="M220.23,170.58c.21,3.75,8.07,6.59,14.02,6.95,9.06.56,19.33-4.27,19.18-8.44-.15-4.11-10.41-8.12-19.15-7.02-6.45.81-14.25,4.69-14.04,8.51Z"/>
  <path class="st8" d="M112.93,70.01c-10.39,4.18-32.49,22.24-20.77,100.03,0,0,6.97,35.6,56.68,38,0,0,21.59,2.1,29.89,2.56h11.14c8.3-.46,29.89-2.56,29.89-2.56,49.71-2.41,56.68-38,56.68-38,11.72-77.79-10.37-95.85-20.77-100.03"/>
  <polygon class="st25" points="73.3 158.23 78.96 170.11 86.33 171.93 91.05 173.66 92.56 173.66 91.05 164.7 88.83 158.91 74.63 155.69 73.3 158.23"/>
  <polygon class="st26" points="81.7 129.98 81.7 131.7 82.72 133.11 84.83 133.39 86.68 132.69 88.44 131.69 88.6 128.06 88.15 128.06 81.7 129.98"/>
  <polygon class="st26" points="173.72 67.95 173.12 71.74 174.19 74.52 174.65 76.34 175.67 77.14 178 77.96 180.97 79.35 189.5 79.78 195.63 74.71 195.63 68.6 190.65 67.07 173.72 67.95"/>
  <polygon class="st25" points="115.31 63.88 114.11 70.59 116.79 76.05 123.31 83.14 128.57 84.57 134.8 87.35 139.4 87.61 146.58 86.87 152.85 79.35 154.44 73.43 154.44 70.01 115.31 63.88"/>
  <polygon class="st25" points="214.63 68.53 214.63 78.06 217.69 79.78 222.42 84.45 223.58 86.37 228.67 87.61 234.68 87.38 242.08 85.51 248.73 79.35 254.24 73.43 256.86 67.07 214.63 68.53"/>
  <polygon class="st28" points="132.68 265.15 131.34 275.24 132.68 283.44 134.47 286.78 149.56 306.68 157.4 307.94 160.17 307.94 152.33 298.84 149.56 289.5 149.71 281.15 150.14 266.21 157.29 241.88 167.79 232.46 163.98 223.92 177.22 216.75 173.89 208.89 154.75 210.85 132.68 265.15"/>
  <polygon class="st28" points="212.75 303.79 210.32 307.02 210.79 309.15 217.16 306.47 220.93 301.19 232.81 286.97 235.96 285.32 236.03 275.94 235.26 265.06 227.16 258.85 223.18 254.68 221.05 249.26 218.33 242.11 218.33 238.11 215.28 223.2 214.48 215.82 205.71 210.03 173.37 210.21 155.33 224.1 212.75 303.79"/>
  <polygon class="st26" points="95.26 286.97 99.64 288.57 110.25 288.39 118.58 285.32 124.28 281.15 95.26 286.97"/>
  <polygon class="st32" points="128.76 272.37 130.54 271.32 131.97 265.77 128.42 264.73 125.61 267.48 128.76 272.37"/>
  <polygon class="st25" points="134.3 221.59 117.61 239.23 115.28 238.19 111.85 239.23 110.18 238.83 108.71 235.2 106.01 232.07 100.3 231.35 93.26 232.07 90.16 232.8 90.3 228.49 89.11 224.94 86.21 222.28 82.69 219.73 87.96 218.87 100.09 215.87 108.49 214 114.91 213.06 120.77 213.38 127.66 215.53 130.68 217.29 133.59 219.78 134.3 221.59"/>
  <polygon class="st25" points="233.58 221.24 237.26 225.34 240.23 227.92 243.91 231.37 248.47 236.06 251.03 238.92 252.87 238.92 254.84 238.92 257.06 240.73 258.67 236.12 261.62 233.63 264.84 231.96 267.9 231.52 270.73 231.72 273.91 232.46 275.4 232.97 277.68 233.59 277.68 228.85 278.73 224.94 281.95 222.22 284.75 220.19 279.8 219.04 269.56 216.57 258.65 213.85 247.35 213.21 242.07 214.9 237.26 217.44 233.58 221.24"/>
  <polygon class="st28" points="126.63 283.44 130.55 284.23 132.09 281.71 130.6 275.55 129.62 274.68 125.61 280.39 126.63 283.44"/>
  <polygon class="st25" points="278.42 176.08 274.68 175.4 276.25 169.27 279 159.86 286.02 158.01 293.62 157.24 293.98 159.86 278.42 176.08"/>
  <polygon class="st26" points="213.73 67.07 219.48 56.68 218.01 54.05 213.73 67.07"/>
  <polygon class="st26" points="257.6 69.06 262.3 65.48 260.67 56.68 259.42 56.22 257.6 69.06"/>
  <polygon class="st26" points="281.1 127.29 280.19 130.87 280.54 133.2 284.74 134.02 286.13 133.78 286.82 129.99 281.1 127.29"/>
  <polygon class="st34" points="145.53 165.1 146.56 166.05 148.05 167.34 149.42 170.59 148.53 172.76 146.68 173.75 145.53 174.42 141.67 176.2 136.5 177.24 132.09 177.24 128.05 176.72 123.12 175 118.4 172.49 116.5 170.14 116.25 168.48 117.31 166.64 120.31 164.44 122.58 163.43 125.77 162.46 129.98 161.52 145.53 165.1"/>
  <polygon class="st34" points="224.48 165.36 221.72 167.44 220.32 169.73 220.44 171.48 222.86 174.12 227.61 176.27 232.34 177.34 237.77 177.57 239.91 177.24 245.56 175.79 250.33 173.4 252.85 170.96 253.43 169.25 252.69 167.23 250.59 165.36 247.38 163.92 244.71 162.87 240.32 162.05 237.45 161.4 224.48 165.36"/>
  <polygon class="st27" points="201.65 187.76 201.92 192.24 203.07 193.45 199.68 193.45 195.45 191.22 201.65 187.76"/>
  <polygon class="st27" points="168.33 188.47 173.5 190.69 171.97 191.47 167.18 193.2 168.33 188.47"/>
  <path class="st25" d="M165.27,234.01l14.5-4.94,12.38.53,8.35,2.69,6.82,4.73,6.54,12.03,3.74,16.92.72,18.35-4.08,16.87-8.88,7.96-11.41,3.55-20.41-.68-8.76-2.87-7.87-4.64-2.64-3.26-3.23-6.73-1.49-17.64.86-11.65,1.16-5.63,1.2-7,2.54-5.22s9.17-13.38,9.95-13.36Z"/>
  <path class="st29" d="M216.49,238.71s6.92,3.11,6.86,3.29-2.36,3.57-2.36,3.57l-3.39.29-1.11-7.15Z"/>
  <polygon class="st29" points="218.57 301.19 220.91 302.9 220.53 306.56 217.51 305.98 218.57 301.19"/>
  <polygon class="st29" points="156.83 67.95 156.83 71.87 167.37 76.14 172.35 72.6 172.35 67.39 156.83 67.95"/>
  <polygon class="st29" points="197.19 67.99 197.19 70.27 201.21 75.75 213.29 77.34 213.29 70.72 212.95 68.35 197.19 67.99"/>
  <polygon class="st26" points="274.08 89.46 276.28 89.46 279.06 96.31 278.1 96.93 276.57 96.93 274.08 89.46"/>
  <polygon class="st30" points="128.1 135.53 129.06 135.83 133.56 133.87 139.08 132.47 141.99 132.07 145.43 132.07 152.52 133.18 158.65 135.3 160.78 135.83 160.68 132.9 152.09 128.68 139.69 128.68 130.73 130.98 128.1 135.53"/>
  <polygon class="st33" points="127.15 135.83 125.99 138.54 124.74 141.82 126.18 142.33 127.76 143.03 128.42 142.05 129.88 141.19 132.01 140.12 135.15 139.03 137.33 138.26 140.55 137.64 143.76 137.37 145.29 137.39 148.21 137.61 152.67 138.54 157.17 140.22 160.5 142 162.78 143.52 165.69 144.61 164.12 139.63 161.14 135.58 159.04 135.68 154.85 133.98 148.88 132.25 140.93 132.07 135.95 133.14 127.15 135.83"/>
  <polygon class="st35" points="133.57 147.65 134.78 149.37 139.73 149.66 146.5 151.12 150.99 153.25 153.3 155.43 156.78 158.54 160.05 157.47 161.14 154.58 160.78 153.45 158.6 150.56 155.85 148.45 151.95 146.16 148.16 145.04 143.85 144.61 140.07 145.09 137.67 145.98 133.57 147.65"/>
  <polygon class="st0" points="162.44 153.97 164.93 146.31 163.64 144.17 161.04 142.33 157.35 140.31 153.66 138.91 149.04 137.78 142.37 137.37 139.93 137.64 135.75 138.81 129.92 140.94 127.62 142.48 127.41 143.03 128.96 143.87 132.48 146.76 133.99 147.86 136.96 146.17 142.8 144.61 146.63 144.82 149.7 145.52 152.47 146.31 155.85 148.45 158.86 151.23 161.36 154.58 162.44 153.97"/>
  <polygon class="st30" points="241.3 135.66 240.33 135.96 235.76 133.97 230.17 132.55 227.22 132.13 223.73 132.13 216.54 133.26 210.33 135.43 208.17 135.96 208.27 132.98 216.98 128.68 229.55 128.68 238.63 131.03 241.3 135.66"/>
  <polygon class="st33" points="242.26 135.96 243.44 138.73 244.71 142.07 243.24 142.59 241.64 143.3 240.97 142.3 239.5 141.43 237.33 140.33 234.15 139.22 231.94 138.44 228.68 137.81 225.42 137.54 223.87 137.55 220.91 137.78 216.39 138.73 211.83 140.44 208.45 142.25 206.14 143.8 203.19 144.91 204.78 139.84 207.8 135.71 209.94 135.81 214.18 134.08 220.23 132.32 228.29 132.13 233.34 133.22 242.26 135.96"/>
  <polygon class="st35" points="235.75 148.01 234.53 149.76 229.5 150.06 222.64 151.54 218.09 153.71 215.75 155.93 212.22 159.1 208.91 158.01 207.8 155.06 208.17 153.91 210.37 150.97 213.17 148.83 217.12 146.49 220.96 145.35 225.33 144.91 229.16 145.4 231.6 146.3 235.75 148.01"/>
  <polygon class="st0" points="206.49 154.45 203.96 146.64 205.27 144.46 207.91 142.59 211.64 140.53 215.39 139.1 220.07 137.96 226.83 137.54 229.31 137.81 233.54 139.01 239.46 141.18 241.79 142.74 242 143.3 240.43 144.15 236.85 147.1 235.33 148.22 232.32 146.49 226.4 144.91 222.51 145.13 219.4 145.83 216.59 146.64 213.17 148.83 210.12 151.65 207.58 155.06 206.49 154.45"/>
  <polygon class="st27" points="157.14 142.33 159.54 142.8 160.78 144.47 160.41 146.56 158.96 147.86 155.94 147.13 155.03 145.56 155.03 143.68 157.14 142.33"/>
  <polygon class="st27" points="210.83 142.48 213.23 142.95 214.46 144.62 214.09 146.71 212.64 148.01 209.63 147.28 208.72 145.71 208.72 143.83 210.83 142.48"/>
  <polygon class="st27" points="214.24 149.57 215.18 149.77 215.66 150.49 215.52 151.39 214.95 151.95 213.77 151.64 213.41 150.96 213.41 150.15 214.24 149.57"/>
  <polygon class="st27" points="124.74 142.22 125.73 142.22 129.4 144.24 133.57 147.65 134.51 149.01 135.09 149.8 135.71 150.02 140.56 149.73 144.52 150.56 151.48 153.9 155.69 157.42 156.35 158.57 154.29 162.31 140.02 163.68 129.01 159.48 125.34 153.64 124.74 142.22"/>
  <polygon class="st27" points="133.15 141.45 134.44 141.72 135.1 142.67 134.91 143.87 134.13 144.61 132.5 144.19 132.01 143.3 132.01 142.22 133.15 141.45"/>
  <polygon class="st27" points="154.58 149.37 155.42 149.57 155.85 150.29 155.72 151.19 155.22 151.75 154.16 151.44 153.85 150.76 153.85 149.95 154.58 149.37"/>
  <polygon class="st27" points="235.44 141.65 236.73 141.92 237.39 142.87 237.19 144.07 236.41 144.81 234.79 144.4 234.3 143.5 234.3 142.42 235.44 141.65"/>
  <polygon class="st27" points="245.66 142.42 246.25 147.24 244.71 153.16 237.45 159.86 226.25 163.44 213.4 160.74 212.69 158.71 213.68 157.7 216.19 155.44 220.23 152.66 223.84 150.97 229.1 149.91 230.91 149.96 233.14 149.96 234.42 149.96 236.52 147.4 239.76 144.63 242.85 142.81 245.19 141.85 245.66 142.42"/>
  <polygon class="st34" points="224.48 165.36 221.72 167.44 220.32 169.73 220.44 171.48 222.86 174.12 227.61 176.27 232.34 177.34 237.77 177.57 239.91 177.24 245.56 175.79 250.33 173.4 252.85 170.96 253.43 169.25 252.69 167.23 250.59 165.36 247.38 163.92 244.71 162.87 240.32 162.05 237.45 161.4 224.48 165.36"/>
  <polygon class="st28" points="148.59 311.43 147.09 301.19 139.03 290.48 128.85 283.44 120.06 285.32 117.45 301.19 127.62 311.57 137.75 316.71 143.63 316.71 148.59 311.43"/>
  <polyline class="st28" points="249.56 286.35 243.38 284.23 236.66 283.44 225.7 294.52 220.91 302.9 219.92 310.88 220.28 313.1 224.88 316.19 228.46 316.7 236.03 314.51 242.28 309.15 249.65 302.41 252.67 296.34 252.08 291.69 250.87 287.85"/>
  <path class="st23" d="M213.22,210.91c.35,2.02-13.74,6.98-28.91,7.05-15.55.07-29.99-5.01-29.64-7.05.25-1.45,9.92-1.45,29.27-1.46,19.35,0,29.02,0,29.27,1.46Z"/>
  <path class="st23" d="M276.11,163.44c-3.82,7.6-10.69,18.57-22.68,27.4-18.78,13.83-38.54,13.9-68.5,14.01-29.98.11-49.67.19-68.68-13.4-12.5-8.94-19.69-20.2-23.69-28.01-.05,4.1.46,12.84,6.01,21.41,5.24,8.09,12.2,11.94,15.28,13.42,9.67,4.72,18.06,7.22,24.05,8.62,11.04,2.59,20.03,2.92,33.56,3.42,8.79.32,16.12.25,21.27.11,5.75-.32,11.51-.64,17.26-.96,9.72-1.31,19.44-2.62,29.16-3.94,4.63-1.16,13.46-4.06,21.64-11.68,12.39-11.55,14.77-26,15.32-30.4Z"/>
  <path class="st23" d="M131.27,282.49s22.22,8.78,19.44,24.06"/>
  <path class="st23" d="M236.66,282.49s-22.22,8.78-19.44,24.06"/>
  <path class="st23" d="M149.49,297.43c.9,1.48,2.02,3.09,3.38,4.69,2.29,2.68,4.53,4.44,6.33,5.6-2.17-.23-4.34-.46-6.51-.69l-3.53-2.16.33-7.44Z"/>
  <path class="st23" d="M218.69,297.46c-.9,1.48-2.02,3.09-3.38,4.69-2.29,2.68-4.53,4.44-6.33,5.6,2.17-.23,4.34-.46,6.51-.69l3.53-2.16-.33-7.44Z"/>
  <path class="st31" d="M215.48,298.69c-4.89,2.83-16.46,8.64-32.21,8.41-14.7-.21-25.5-5.58-30.39-8.41,3.27,3.8,6.55,7.6,9.82,11.4l18.91,3.04,19.51-1.94,11.03-6.61,3.33-5.89Z"/>
  <path class="st23" d="M149.87,244.34c-.38,5.74-2.22,9.83-3.45,12.06-1.32,2.41-5.64,10.29-12.69,10.99-.87.09-1.59.05-2.05,0,1.42-1.24,2.83-2.49,4.25-3.73,4.64-6.44,9.29-12.89,13.93-19.33Z"/>
  <path class="st23" d="M217.73,244.34c.38,5.74,2.22,9.83,3.45,12.06,1.32,2.41,5.64,10.29,12.69,10.99.87.09,1.59.05,2.05,0-1.42-1.24-2.83-2.49-4.25-3.73-4.64-6.44-9.29-12.89-13.93-19.33Z"/>
  <path class="st23" d="M92.89,287.85c.51.8,5.58,8.41,14.3,8.59,3.85.08,6.84-1.32,8.43-2.23-.11.98-.23,1.96-.34,2.94l2.17,4.05-8.7-.18-10.59-3.87-6.54-5.68c.43-1.2.85-2.41,1.28-3.61Z"/>
  <path class="st31" d="M55.67,143.57c1.43,2.44,3.48,5.6,6.32,9.01,1.96,2.36,5.48,6.54,10.72,10.33,3.48,2.51,9.95,6.45,19.5,8.37-.68-3.96-1.35-7.92-2.03-11.89l-17.84-4.82c-4.37-3.26-9.1-6.47-14.19-9.53-.83-.5-1.66-.99-2.49-1.47Z"/>
  <path class="st31" d="M313.12,143.39c-1.43,2.44-3.48,5.6-6.32,9.01-1.96,2.36-5.48,6.54-10.72,10.33-3.48,2.51-9.95,6.45-19.5,8.37.68-3.96,1.35-7.92,2.03-11.89l17.84-4.82c4.37-3.26,9.1-6.47,14.19-9.53.83-.5,1.66-.99,2.49-1.47Z"/>
  <path class="st31" d="M152.79,64.98c-.31,1.4-2.61,11.17-10.82,14.8-9.12,4.04-22.34-.93-28.82-13.47,1.73,3.8,3.45,7.6,5.18,11.4l13.65,8.38,9.84,1.27,9.34-4.2,4.03-9.69,1.14-5.06-3.54-3.43Z"/>
  <path class="st31" d="M217.39,64.56c.31,1.4,2.61,11.17,10.82,14.8,9.12,4.04,22.34-.93,28.82-13.47-1.73,3.8-3.45,7.6-5.18,11.4l-13.65,8.38-9.84,1.27-9.34-4.2-4.03-9.69-1.14-5.06,3.54-3.43Z"/>
  <path class="st31" d="M165.56,60.4c1.33,1.62,3.51,2.28,5.48,1.66,2.07-.65,3.51-2.56,3.58-4.76.01.64.03,1.29.05,1.94.01.42.03.84.04,1.26-.33.76-.67,1.51-1,2.27-.32.61-.64,1.21-.96,1.82-.48.94-.96,1.87-1.44,2.81-.88-.93-1.78-1.93-2.69-3.02-1.14-1.36-2.16-2.7-3.08-3.98Z"/>
  <path class="st31" d="M203.34,60.4c-1.33,1.62-3.51,2.28-5.48,1.66-2.07-.65-3.51-2.56-3.58-4.76-.01.64-.03,1.29-.05,1.94-.01.42-.03.84-.04,1.26.33.76.67,1.51,1,2.27.32.61.64,1.21.96,1.82.48.94.96,1.87,1.44,2.81.88-.93,1.78-1.93,2.69-3.02,1.14-1.36,2.16-2.7,3.08-3.98Z"/>
  <path class="st24" d="M173.36,70.23c.43.54,4.61,5.69,11.61,5.45,6.43-.22,10.15-4.8,10.66-5.45-.75,2.49-1.49,4.98-2.24,7.47l-13.48,1.15-6.79-3.4.24-5.22Z"/>
  <path class="st24" d="M89.07,78.18c1.78.07,7.21.05,12.53-3.64,4.86-3.36,6.84-7.84,7.5-9.56,1.08.99,2.17,1.98,3.25,2.97l-2.45,4.65-6.41,2.61-3.18,5.34-2.67,4.31-4.78-1.29c-1.26-1.8-2.52-3.59-3.78-5.39Z"/>
  <path class="st24" d="M86.74,92.33c.51.02,2.92.03,4.99-1.82,2.09-1.86,2.33-4.28,2.37-4.78l1.91,1.48-.98,2.33c-.47.86-.94,1.72-1.41,2.59-.47.68-.94,1.36-1.41,2.05-.69.5-1.38,1-2.07,1.5l-1.9-.65c-.5-.9-1-1.8-1.5-2.7Z"/>
  <path class="st24" d="M106.09,62.37c.59-.08,2.13-.36,3.46-1.63,2.07-1.99,1.87-4.73,1.83-5.11v9.84c-.8-.07-1.59-.15-2.39-.22-.97-.96-1.93-1.92-2.9-2.88Z"/>
  <path class="st24" d="M263.84,61.65c-.59-.08-2.13-.36-3.46-1.63-2.07-1.99-1.87-4.73-1.83-5.11,0,3.28,0,6.56,0,9.84.8-.07,1.59-.15,2.39-.22.97-.96,1.93-1.92,2.9-2.88Z"/>
  <path class="st24" d="M282.2,92.91c-.51.02-2.92.03-4.99-1.82-2.09-1.86-2.33-4.28-2.37-4.78l-1.91,1.48.98,2.33c.47.86.94,1.72,1.41,2.59.47.68.94,1.36,1.41,2.05.69.5,1.38,1,2.07,1.5l1.9-.65c.5-.9,1-1.8,1.5-2.7Z"/>
  <path class="st24" d="M280.14,78.18c-1.78.07-7.21.05-12.53-3.64-4.86-3.36-6.84-7.84-7.5-9.56-1.08.99-2.17,1.98-3.25,2.97l2.45,4.65,6.41,2.61,3.18,5.34,2.67,4.31,4.78-1.29c1.26-1.8,2.52-3.59,3.78-5.39Z"/>
  <path class="st24" d="M151.02,52.72c.03.74.29,4.97,3.79,7.84,1.98,1.63,4.09,2.08,5.13,2.22-1.19,1.35-2.37,2.69-3.56,4.04l-4.99-7.85-1.72-4.63,1.35-1.62Z"/>
  <path class="st24" d="M218.41,54.05c-.03.74-.29,4.97-3.79,7.84-1.98,1.63-4.09,2.08-5.13,2.22,1.19,1.35,2.37,2.69,3.56,4.04l4.99-7.85,1.72-4.63-1.35-1.62Z"/>
  <path class="st31" d="M131.69,223.06c-.12-.81-.42-2.07-1.27-3.27-4.33-6.14-18.39-4.46-26.09-2.41-4.17,1.11-7.99,2.73-14.58,2.99-2.35.09-4.29-.02-5.6-.13,2.24-.69,4.47-1.38,6.71-2.08l20.43-4.79,13.58.63,9.43,6.3-2.61,2.76Z"/>
  <path class="st31" d="M236.75,223.06c.12-.81.42-2.07,1.27-3.27,4.33-6.14,18.39-4.46,26.09-2.41,4.17,1.11,7.99,2.73,14.58,2.99,2.35.09,4.29-.02,5.6-.13-2.24-.69-4.47-1.38-6.71-2.08l-20.43-4.79-13.58.63-9.43,6.3,2.61,2.76Z"/>
  <path class="st24" d="M90.13,131.01c-.79.06-6.68.41-10.53-4.01-1.74-2-2.37-4.16-2.62-5.43-.23.96-.56,2.87,0,5.16.5,2.08,1.5,3.52,2.11,4.27,3.04.71,6.09,1.42,9.13,2.12l1.91-2.12Z"/>
  <path class="st24" d="M279.43,131.21c.79.06,6.68.41,10.53-4.01,1.74-2,2.37-4.16,2.62-5.43.23.96.56,2.87,0,5.16-.5,2.08-1.5,3.52-2.11,4.27-3.04.71-6.09,1.42-9.13,2.12l-1.91-2.12Z"/>
  <path class="st11" d="M132.09,265.15c-.49,2.6-.87,5.85-.81,9.59.08,4.21.71,7.81,1.4,10.59"/>
  <path class="st11" d="M235.85,265.15c.49,2.6.87,5.85.81,9.59-.08,4.21-.71,7.81-1.4,10.59"/>
  <path class="st11" d="M147.83,304.55c.26.55,2.26,5.05,0,8.55-1.68,2.59-4.74,3.16-6.14,3.42-10.27,1.91-21.51-12.06-22.76-13.65-4.54-4.25-4.83-11.34-.91-15.76,4.15-4.68,11.79-4.98,16.46-.33,1.8,1.28,3.84,2.97,5.85,5.17,4.18,4.58,6.35,9.34,7.5,12.6Z"/>
  <path class="st11" d="M123.48,283.8s.84,11.77,6.18,13.34"/>
  <path class="st11" d="M118.55,287.85s.84,11.77,6.18,13.34"/>
  <path class="st11" d="M220.28,304.55c-.26.55-2.26,5.05,0,8.55,1.68,2.59,4.74,3.16,6.14,3.42,10.27,1.91,21.51-12.06,22.76-13.65,4.54-4.25,4.83-11.34.91-15.76-4.15-4.68-11.79-4.98-16.46-.33-1.8,1.28-3.84,2.97-5.85,5.17-4.18,4.58-6.35,9.34-7.5,12.6Z"/>
  <path class="st11" d="M244.63,283.8s-.84,11.77-6.18,13.34"/>
  <path class="st11" d="M249.56,287.85s-.84,11.77-6.18,13.34"/>
  <path class="st11" d="M148.9,305.6s33.93,15.97,70.32,0"/>
  <path class="st11" d="M184.13,229.08c3.14-.02,10.12-.05,16.37,3.21,11.08,5.79,14.58,18.92,16.41,28.02,3.5,17.35-.62,35.92-.62,35.92-.39,1.55-1.17,3.8-2.8,6.13-2.57,3.68-5.84,5.5-7.51,6.29-4.25,1.85-11.98,4.57-21.98,4.49-10.21-.08-18.04-3.05-22.27-5.01-1.96-1.08-5.29-3.29-7.74-7.32-.96-1.58-1.58-3.1-1.99-4.4,0,0,0,0,0,0-1.25-5.45-4.44-20.09-.62-35.92,2.17-9,5.34-22.14,16.41-28.02,6.27-3.33,13.27-3.37,16.34-3.38Z"/>
  <path class="st10" d="M245.6,213.85s22.36,6.88,32.54,20.33"/>
  <path class="st10" d="M257.88,240.02s-1.56-12.61-13.61-25.84"/>
  <path class="st11" d="M115.71,239.01c-3.42-.56-5.41,2.1-5.41,2.1-3.27-16.52-20.55-7.11-20.55-7.11,4.99-12.1-15.94-18.25-15.94-18.25,10.56,2.11,36.11-8.07,45.53-7.3,9.41.77,19.4,8.83,19.4,8.83"/>
  <path class="st10" d="M134.3,220.6s-3.35-4.56-10.69-6.6c-2.45-.68-5.34-1.08-8.7-.93-13.45.58-23.07,7.39-33.72,5.81"/>
  <path class="st10" d="M122.28,213.67s-22.36,6.88-32.54,20.33"/>
  <path class="st10" d="M110,239.84s1.56-12.61,13.61-25.84"/>
  <path class="st11" d="M229.16,217.47s9.99-8.07,19.4-8.83c9.41-.77,34.96,9.41,45.53,7.3,0,0-20.94,6.15-15.94,18.25,0,0-17.29-9.41-20.55,7.11,0,0-1.99-2.65-5.41-2.1"/>
  <path class="st10" d="M233.58,220.78s3.35-4.56,10.69-6.6c2.45-.68,5.34-1.08,8.7-.93,13.45.58,23.07,7.39,33.72,5.81"/>
  <path class="st11" d="M156.16,245.34s27.85,13.21,55.99,0"/>
  <path class="st11" d="M150.6,264.42s32.77,18,67.01-.18"/>
  <path class="st11" d="M150.51,284.51s32.77,18,67.01-.18"/>
  <path class="st11" d="M139.61,302.39"/>
  <path class="st11" d="M118.84,302.41"/>
  <path class="st11" d="M131.34,271.03s-14.66,25.6-38.97,15.42c0,0-4.27,13.13,24.96,15.83"/>
  <path class="st11" d="M160.18,209.03c-2.25.19-5,.6-8.13,1.44,0,0-.34.09-.66.18-2.36.69-7.97,2.81-17.56,10.62-4.19,3.41-9.74,8.41-15.59,15.22-.62,1.14-4.71,8.96-1.24,17.42.64,1.55,3.92,8.96,11.42,10.82,2.45.61,4.61.44,6.05.19,1.45-1.17,3.17-2.72,4.95-4.7,2.59-2.88,4.28-5.55,5.25-7.24,1.94-3.37,3.15-6.56,3.93-9.2"/>
  <path class="st11" d="M219.11,243.72c.77,2.62,1.98,5.81,3.93,9.2,3.29,5.73,7.3,9.59,10.19,11.93,1.44.24,3.6.41,6.05-.19,7.5-1.86,10.79-9.27,11.42-10.82,3.47-8.46-.62-16.28-1.24-17.42-5.85-6.82-11.4-11.81-15.59-15.22-10.64-8.67-16.39-10.33-18.22-10.81-4.43-1.15-8.27-1.21-10.81-1.07"/>
  <path class="st10" d="M116.12,252.14c.28-.65.77-1.58,1.6-2.51.74-.83,1.51-1.38,2.08-1.73"/>
  <path class="st10" d="M119.8,257.68c.28-.65.77-1.58,1.6-2.51.74-.83,1.51-1.38,2.08-1.73"/>
  <path class="st10" d="M125.08,262.32c.28-.65.77-1.58,1.6-2.51.74-.83,1.51-1.38,2.08-1.73"/>
  <path class="st10" d="M250.87,252.59c-.28-.65-.77-1.58-1.6-2.51-.74-.83-1.51-1.38-2.08-1.73"/>
  <path class="st10" d="M247.19,258.14c-.28-.65-.77-1.58-1.6-2.51-.74-.83-1.51-1.38-2.08-1.73"/>
  <path class="st10" d="M241.91,262.78c-.28-.65-.77-1.58-1.6-2.51-.74-.83-1.51-1.38-2.08-1.73"/>
  <ellipse class="st12" cx="144.19" cy="145.52" rx="21.07" ry="18.16"/>
  <path class="st11" d="M184.51,182.83c-1.59,4.16-5.63,6.86-10,6.7-2.47-.09-4.78-1.08-6.56-2.71-1.17-1.08-2.11-2.43-2.7-3.99"/>
  <polygon class="st10" points="166.37 194.16 174.88 190.65 167.96 186.82 166.37 194.16"/>
  <path class="st12" d="M88.35,133.36h-31.33c-.92.22-1.91.64-2.38,1.51-2.1,3.95,7.88,14.9,18.79,20.25,6.57,3.22,12.73,4.06,16.77,4.27"/>
  <path class="st11" d="M94.3,176.23c-3.55.41-13.26,1.05-22.68-4.81-16.86-10.48-16.68-31.71-16.65-32.88"/>
  <path class="st10" d="M70.74,160.33s1.92,6.54,6.54,3.35c.15.46,1.27,3.76,4.54,4.96,3.15,1.16,6.97-.1,9.23-3.21"/>
  <path class="st11" d="M156.16,68.03c-4.16-4.93-6.05-9.42-7-12.55-1.85-6.1-4.17-11.88-2.57-31.68.35-4.35-1.16-6.32-1.78-7-3.55-3.87-12.72-3.3-21.69,3.35,0,0-19.41,18.23-9.65,49.87,0,0,7.2,17.16,25.93,17.59,1.65.04,3.92-.24,6.46-1.44,9.06-4.29,10.18-16.68,10.29-18.14"/>
  <path class="st11" d="M113.15,68.93s-9.92-14.3-28.65-4.52c0,0,2.68,18.79,11.98,21.1"/>
  <path class="st11" d="M110.73,48.67c-.75-.52-2.23-1.41-4.31-1.7-2.52-.36-4.51.35-5.36.72-.67.21-1.75.68-2.35,1.73-.96,1.66-.09,3.72.42,4.9,2.32,5.45,9.51,10.56,11.61,12"/>
  <path class="st11" d="M95.55,86.19s-8.29-7.72-12.97,1.42c0,0,3.37,9.3,10.52,7.31"/>
  <path class="st10" d="M89.18,127.36s-9.14-1.45-13.72-7.62c0,0-.06,10.85,6.86,13.62"/>
  <path class="st11" d="M115.31,31.72s18.9-6.25,30.75,4.39"/>
  <path class="st11" d="M110.91,57s21.36-16.57,38.76,0"/>
  <path class="st11" d="M148.5,53.32s7.93-1.24,8.78-7.84c.07-.56.29-1.21.65-1.27,1.21-.21,4.87,6.45,3.82,12.99-.86,5.33-4.54,8.67-6.02,9.87"/>
  <path class="st11" d="M219.15,53.89s-7.93-1.24-8.78-7.84c-.85-6.6-11.49,13.83,2.98,22.56"/>
  <path class="st10" d="M166.97,51.64c.36,2.38,2.02,4.36,4.3,5.12,2.24.75,4.73.2,6.45-1.44-1.14,1.64-2.41,3.75-3.52,6.32-1.03,2.37-1.68,4.55-2.1,6.38-.6-.29-5.28-2.67-6.45-8.09-.9-4.18.86-7.48,1.33-8.3Z"/>
  <path class="st10" d="M201.24,51.64c-.42,2.4-2.07,4.38-4.3,5.12-2.72.91-5.04-.44-5.39-.65,1.04,1.06,2.8,3.15,3.81,6.28.74,2.29.81,4.31.75,5.64.6-.29,5.28-2.67,6.45-8.09.9-4.18-.86-7.48-1.33-8.3Z"/>
  <path class="st9" d="M124.74,138.54c2.33-1.73,8.94-6.18,18.49-6.46,10.72-.32,18.2,4.81,20.41,6.46"/>
  <path class="st9" d="M161.84,155.43c-.48-.93-4.88-9.05-14.35-10.58-7.15-1.15-12.57,2.21-13.89,3.08"/>
  <path class="st9" d="M127.15,142.89c2.46-1.71,8.15-5.15,16.09-5.49,12.04-.51,20.23,6.51,22.02,8.12"/>
  <path class="st3" d="M160.68,145.04c0,1.56-1.26,2.82-2.82,2.82s-2.82-1.26-2.82-2.82,1.26-2.82,2.82-2.82,2.82,1.26,2.82,2.82Z"/>
  <path class="st15" d="M131.99,143.03c0,.87.71,1.58,1.58,1.58s1.58-.71,1.58-1.58-.71-1.58-1.58-1.58-1.58.71-1.58,1.58Z"/>
  <path class="st9" d="M123.65,141.45c.9.28,2.12.73,3.49,1.44.88.45,2.94,1.59,5.12,3.67.8.76,1.81,1.83,2.83,3.24.72-.09,1.7-.19,2.88-.2,0,0,3.27-.03,6.46.82,3.52.94,8.64,3.84,13.21,9.09,0,0-13.06,10.95-29.69-2.41,0,0-6.96-7.38-4.3-15.63Z"/>
  <circle class="st15" cx="154.85" cy="150.56" r="1.19"/>
  <ellipse class="st12" cx="225.25" cy="145.72" rx="21.07" ry="18.16"/>
  <path class="st11" d="M184.93,183.03c1.59,4.16,5.63,6.86,10,6.7,2.47-.09,4.78-1.08,6.56-2.71,1.17-1.08,2.11-2.43,2.7-3.99"/>
  <polygon class="st10" points="203.07 194.36 194.56 190.85 201.49 187.02 203.07 194.36"/>
  <path class="st12" d="M280.26,133.56c9.97,0,19.94,0,29.9,0,.48,0,.95,0,1.43,0,.92.22,1.91.64,2.38,1.51,2.1,3.95-7.88,14.9-18.79,20.25-6.57,3.22-12.73,4.06-16.77,4.27"/>
  <path class="st11" d="M274.31,176.43c3.55.41,13.26,1.05,22.68-4.81,16.86-10.48,16.68-31.71,16.65-32.88"/>
  <path class="st10" d="M297.87,160.53s-1.92,6.54-6.54,3.35c-.15.46-1.27,3.76-4.54,4.96-3.15,1.16-6.97-.1-9.23-3.21"/>
  <path class="st11" d="M213.29,68.23c4.16-4.93,6.05-9.42,7-12.55,1.85-6.1,4.17-11.88,2.57-31.68-.35-4.35,1.16-6.32,1.78-7,3.55-3.87,12.72-3.3,21.69,3.35,0,0,19.41,18.23,9.65,49.87,0,0-7.2,17.16-25.93,17.59-1.65.04-3.92-.24-6.46-1.44-9.06-4.29-10.18-16.68-10.29-18.14Z"/>
  <path class="st10" d="M280.26,127.56s9.14-1.45,13.72-7.62c0,0,.06,10.85-6.86,13.62"/>
  <path class="st11" d="M254.13,31.92s-18.9-6.25-30.75,4.39"/>
  <path class="st11" d="M258.53,57.2s-21.36-16.57-38.76,0"/>
  <path class="st9" d="M244.71,138.74c-2.33-1.73-8.94-6.18-18.49-6.46-10.72-.32-18.2,4.81-20.41,6.46"/>
  <path class="st9" d="M207.6,155.63c.48-.93,4.88-9.05,14.35-10.58,7.15-1.15,12.57,2.21,13.89,3.08"/>
  <path class="st9" d="M242.3,143.09c-2.46-1.71-8.15-5.15-16.09-5.49-12.04-.51-20.23,6.51-22.02,8.12"/>
  <path class="st3" d="M208.76,145.24c0,1.56,1.26,2.82,2.82,2.82,1.56,0,2.82-1.26,2.82-2.82,0-1.56-1.26-2.82-2.82-2.82s-2.82,1.26-2.82,2.82Z"/>
  <path class="st15" d="M237.45,143.23c0,.87-.71,1.58-1.58,1.58s-1.58-.71-1.58-1.58.71-1.58,1.58-1.58,1.58.71,1.58,1.58Z"/>
  <path class="st9" d="M245.79,141.65c-.9.28-2.12.73-3.49,1.44-.88.45-2.94,1.59-5.12,3.67-.8.76-1.81,1.83-2.83,3.24-.72-.09-1.7-.19-2.88-.2,0,0-3.27-.03-6.46.82-3.52.94-8.64,3.84-13.21,9.09,0,0,13.06,10.95,29.69-2.41,0,0,6.96-7.38,4.3-15.63Z"/>
  <circle class="st15" cx="214.59" cy="150.76" r="1.19"/>
  <path class="st11" d="M184.89,79.34c3.05-.04,6.32-.07,8.71-2.19,3.13-2.78,2.71-7.32,2.44-10.3,0,0-.61-6.67-5.78-12.28-.65-.71-1.55-1.54-1.55-1.54-1-.92-1.57-1.32-1.82-1.49-.96-.65-1.53-.85-2.11-.9-.24-.02-.43,0-.55,0-.77.02-1.47.29-2.8,1.21-2.01,1.38-2.9,2.22-3.73,3.19-4.41,5.19-4.74,11.83-4.74,11.83-.16,3.36-.37,7.62,2.71,10.3,2.6,2.27,6.17,2.23,9.22,2.19Z"/>
  <path class="st9" d="M176.51,58.97c1.35.67,4.02,1.77,7.54,1.78,3.59.01,6.31-1.11,7.66-1.78"/>
  <path class="st9" d="M174.19,63.88c1.46.96,4.95,2.98,9.86,3.17,5.24.21,9.08-1.78,10.57-2.66"/>
  <path class="st9" d="M173.72,69.72c1.64.95,5.44,2.86,10.62,2.87,5.24.01,9.08-1.92,10.72-2.88"/>
  <path class="st18" d="M172.76,68.03h-16.6"/>
  <path class="st9" d="M184.67,51"/>
  <path class="st18" d="M196.93,67.95c5.12.03,10.23.06,15.35.09"/>
  <path class="st11" d="M256.59,68.22c2.63-3.01,12.15-11.82,27.9-3.59,0,0-2.68,18.79-11.98,21.1"/>
  <path class="st11" d="M258.53,48.55c.83-.51,2.12-1.13,3.8-1.37,2.52-.36,4.51.35,5.36.72.67.21,1.75.68,2.35,1.73.96,1.66.09,3.72-.42,4.9-2.32,5.45-9.51,10.56-11.61,12"/>
  <path class="st11" d="M273.19,86.41s8.29-7.72,12.97,1.42c0,0-3.37,9.3-10.52,7.31"/>
  <path class="st11" d="M94.38,286.97c.4-1.4,1.1-3.43,2.42-5.64,1.28-2.17,2.02-3.27,2.94-3.46,1.89-.39,4.58,3.17,6.83,8.44"/>
  <path class="st11" d="M108.09,286.35c-.01-1.46.1-3.6.74-6.09.62-2.44,1.02-3.7,1.85-4.14,1.7-.91,5.28,1.77,8.92,6.19"/>
  <path class="st11" d="M120.56,282.44c-.57-1.34-1.3-3.36-1.67-5.91-.37-2.49-.48-3.81.11-4.54,1.22-1.49,5.55-.41,10.62,2.26"/>
  <path class="st11" d="M127.05,263.42"/>
  <path class="st11" d="M128.61,273.87c-.57-1.34-1.3-3.36-1.67-5.91-.26-1.73-.39-2.9-.25-3.69"/>
  <path class="st9" d="M149.44,170.38c-.21,3.75-8.07,6.59-14.02,6.95-9.06.56-19.33-4.27-19.18-8.44.15-4.11,10.41-8.12,19.15-7.02,6.45.81,14.25,4.69,14.04,8.51Z"/>
  <path class="st9" d="M220.23,170.58c.21,3.75,8.07,6.59,14.02,6.95,9.06.56,19.33-4.27,19.18-8.44-.15-4.11-10.41-8.12-19.15-7.02-6.45.81-14.25,4.69-14.04,8.51Z"/>
  <path class="st11" d="M112.93,70.01c-10.39,4.18-32.49,22.24-20.77,100.03,0,0,6.97,35.6,56.68,38,0,0,21.59,2.1,29.89,2.56h11.14c8.3-.46,29.89-2.56,29.89-2.56,49.71-2.41,56.68-38,56.68-38,11.44-75.96-9.35-94.96-20.02-99.71"/>
</svg>