<?xml version="1.0" encoding="UTF-8"?>
<svg id="Layer_1" xmlns="http://www.w3.org/2000/svg" version="1.1" viewBox="0 0 365 335">
  <!-- Generator: Adobe Illustrator 29.7.1, SVG Export Plug-In . SVG Version: 2.1.1 Build 8)  -->
  <defs>
    <style>
      .st0, .st1, .st2, .st3, .st4, .st5, .st6, .st7, .st8, .st9, .st10, .st11, .st12 {
        fill: none;
      }

      .st0, .st1, .st3, .st13, .st14, .st4, .st5, .st6, .st7, .st8, .st9, .st15, .st10, .st16, .st17, .st11, .st12 {
        stroke-linecap: round;
        stroke-linejoin: round;
      }

      .st0, .st1, .st14, .st4, .st5, .st15, .st16, .st17, .st11, .st12 {
        stroke: #231f20;
      }

      .st0, .st3 {
        stroke-width: .75px;
      }

      .st18 {
        fill: #25544e;
      }

      .st19 {
        fill: #bf6421;
      }

      .st1, .st7, .st15 {
        stroke-width: 2px;
      }

      .st2 {
        stroke-miterlimit: 10;
      }

      .st2, .st3, .st13, .st6, .st7, .st8, .st9, .st10 {
        stroke: #000;
      }

      .st20, .st16 {
        fill: #fdbb28;
      }

      .st13, .st14, .st5, .st8, .st16 {
        stroke-width: 3px;
      }

      .st13, .st14, .st21 {
        fill: #fb7800;
      }

      .st22 {
        fill: #fff;
      }

      .st4, .st9, .st17 {
        stroke-width: 4px;
      }

      .st23, .st15, .st17 {
        fill: #44968e;
      }

      .st24 {
        fill: #0f2d29;
      }

      .st25 {
        fill: #bc8a26;
      }

      .st26 {
        fill: #194340;
      }

      .st10, .st11 {
        stroke-width: .5px;
      }

      .st27 {
        fill: #edb38b;
      }

      .st28 {
        fill: #addcd8;
      }
    </style>
  </defs>
  <path class="st5" d="M210.74,163.11h-56.94c.08,2.4.73,14.49,10.56,23.21,1.97,1.75,8.22,7.12,17.91,7.6,2.42.12,10.94.24,18.48-5.79,11.39-9.1,10.11-23.89,9.99-25.02Z"/>
  <path class="st1" d="M162.2,184.2c3.43-1.85,10.95-5.31,21.07-5.22,10.19.09,17.69,3.72,21.08,5.63"/>
  <ellipse class="st4" cx="141.4" cy="134.67" rx="21.06" ry="18.15"/>
  <path class="st12" d="M121.96,127.69c2.33-1.73,8.93-6.18,18.49-6.46,10.72-.31,18.19,4.81,20.4,6.46"/>
  <path class="st12" d="M159.04,144.57c-.48-.93-4.88-9.05-14.35-10.57-7.15-1.15-12.56,2.21-13.88,3.08"/>
  <path class="st12" d="M124.36,132.04c2.46-1.71,8.15-5.15,16.08-5.48,12.03-.51,20.22,6.5,22.01,8.11"/>
  <path class="st0" d="M157.88,134.19c0,1.56-1.26,2.82-2.82,2.82s-2.82-1.26-2.82-2.82,1.26-2.82,2.82-2.82,2.82,1.26,2.82,2.82Z"/>
  <path class="st11" d="M129.2,132.18c0,.87.71,1.58,1.58,1.58s1.58-.71,1.58-1.58-.71-1.58-1.58-1.58-1.58.71-1.58,1.58Z"/>
  <path class="st12" d="M120.87,130.6c.9.28,2.12.73,3.49,1.43.88.45,2.94,1.59,5.12,3.66.8.76,1.81,1.83,2.82,3.24.72-.09,1.7-.19,2.88-.2,0,0,3.27-.03,6.46.82,3.52.94,8.63,3.83,13.2,9.08,0,0-13.05,10.94-29.68-2.41,0,0-6.95-7.38-4.29-15.63Z"/>
  <circle class="st11" cx="152.05" cy="139.71" r="1.19"/>
  <ellipse class="st4" cx="224.43" cy="134.87" rx="21.06" ry="18.15"/>
  <path class="st12" d="M243.87,127.89c-2.33-1.73-8.93-6.18-18.49-6.46-10.72-.31-18.19,4.81-20.4,6.46"/>
  <path class="st12" d="M206.78,144.77c.48-.93,4.88-9.05,14.35-10.57,7.15-1.15,12.56,2.21,13.88,3.08"/>
  <path class="st12" d="M241.46,132.24c-2.46-1.71-8.15-5.15-16.08-5.48-12.03-.51-20.22,6.5-22.01,8.11"/>
  <path class="st0" d="M207.94,134.4c0,1.56,1.26,2.82,2.82,2.82s2.82-1.26,2.82-2.82c0-1.56-1.26-2.82-2.82-2.82s-2.82,1.26-2.82,2.82Z"/>
  <path class="st11" d="M236.62,132.38c0,.87-.71,1.58-1.58,1.58s-1.58-.71-1.58-1.58.71-1.58,1.58-1.58,1.58.71,1.58,1.58Z"/>
  <path class="st12" d="M244.95,130.8c-.9.28-2.12.73-3.49,1.43-.88.45-2.94,1.59-5.12,3.66-.8.76-1.81,1.83-2.82,3.24-.72-.09-1.7-.19-2.88-.2,0,0-3.27-.03-6.46.82-3.52.94-8.63,3.83-13.2,9.08,0,0,13.05,10.94,29.68-2.41,0,0,6.95-7.38,4.29-15.63Z"/>
  <circle class="st11" cx="213.77" cy="139.91" r="1.19"/>
  <path class="st1" d="M137.83,329.89c-.2-.31-1.28-2.12-.68-4.37.45-1.69,1.6-2.65,1.99-2.95"/>
  <path class="st1" d="M152.03,324c-.3.61-.81,1.82-.8,3.43.01,1.78.66,3.09,1,3.68"/>
  <path class="st1" d="M227.64,329.27c.2-.31,1.28-2.12.68-4.37-.45-1.69-1.6-2.65-1.99-2.95"/>
  <path class="st1" d="M213.44,323.39c.3.61.81,1.82.8,3.43-.01,1.78-.66,3.09-1,3.68"/>
  <polygon class="st1" points="169.39 170.34 174.46 163.54 167.17 163.79 169.39 170.34"/>
  <polygon class="st1" points="195.4 170.34 190.33 163.54 197.62 163.79 195.4 170.34"/>
  <path class="st17" d="M86.33,124.07h-31.32c-.92.22-1.91.64-2.38,1.51-2.1,3.95,7.88,14.89,18.78,20.24,6.56,3.22,12.72,4.06,16.76,4.27"/>
  <path class="st16" d="M92.28,166.93c-3.55.41-13.25,1.05-22.67-4.81-16.86-10.48-16.67-31.7-16.64-32.87"/>
  <path class="st1" d="M68.73,151.03s1.91,6.54,6.54,3.35c.15.46,1.27,3.76,4.53,4.96,3.14,1.16,6.97-.1,9.22-3.21"/>
  <path class="st16" d="M154.11,58.78c-4.16-4.93-6.04-9.42-6.99-12.55-1.85-6.1-4.17-11.87-2.56-31.66.35-4.35-1.16-6.32-1.78-7-3.55-3.87-12.71-3.3-21.68,3.35,0,0-19.4,18.23-9.65,49.84,0,0,7.2,17.15,25.92,17.58,1.65.04,3.92-.24,6.46-1.44,9.06-4.28,10.18-16.67,10.29-18.13Z"/>
  <path class="st13" d="M111.12,59.68s-9.92-14.3-28.63-4.51c0,0,2.68,18.78,11.98,21.09"/>
  <path class="st5" d="M108.7,39.42c-.75-.52-2.23-1.41-4.31-1.7-2.52-.36-4.51.35-5.36.72-.67.21-1.75.68-2.35,1.73-.96,1.66-.09,3.72.42,4.89,2.32,5.44,9.51,10.56,11.6,12"/>
  <path class="st1" d="M87.16,118.07s-9.13-1.45-13.71-7.61c0,0-.06,10.84,6.86,13.61"/>
  <path class="st16" d="M113.28,22.48s18.89-6.25,30.74,4.39"/>
  <path class="st16" d="M108.88,47.75s21.35-16.56,38.74,0"/>
  <path class="st5" d="M146.45,44.07s7.92-1.24,8.77-7.84c.08-.65.32-1.23.65-1.27,1.22-.15,5.23,7.93,2.72,15.27-1.32,3.87-4.01,6.23-5.47,7.32"/>
  <path class="st5" d="M218.92,44.76s-7.92-1.24-8.77-7.84c-.08-.65-.32-1.23-.65-1.27-1.22-.15-5.23,7.93-2.72,15.27,1.32,3.87,4.01,6.23,5.47,7.32"/>
  <path class="st1" d="M164.34,42.4c.11.44.96,3.61,3.99,5.12,3.23,1.61,6.19-.02,6.52-.21-1.92,3.83-3.84,7.65-5.76,11.48-.56-.29-4.9-2.67-5.99-8.08-.84-4.18.8-7.47,1.24-8.3Z"/>
  <path class="st1" d="M201.04,42.4c-.12.44-1.03,3.61-4.3,5.12-3.47,1.61-6.66-.02-7.02-.21,2.07,3.83,4.13,7.65,6.2,11.48.6-.29,5.28-2.67,6.45-8.08.9-4.18-.86-7.47-1.33-8.3Z"/>
  <path class="st12" d="M147.78,160.23c-.21,3.75-8.06,6.58-14.01,6.95-9.06.56-19.32-4.27-19.17-8.44.15-4.11,10.4-8.12,19.14-7.02,6.44.81,14.25,4.68,14.04,8.51Z"/>
  <path class="st17" d="M278.99,124.27c9.96,0,19.93,0,29.89,0h1.43c.92.22,1.91.64,2.38,1.51,2.1,3.95-7.88,14.89-18.78,20.24-6.56,3.22-12.72,4.06-16.76,4.27"/>
  <path class="st16" d="M274.04,166.94c3.63.38,12.76.83,21.67-4.62,16.89-10.32,16.67-31.78,16.64-32.87"/>
  <path class="st1" d="M296.59,151.23s-1.91,6.54-6.54,3.35c-.15.46-1.27,3.76-4.53,4.96-3.14,1.16-6.97-.1-9.22-3.21"/>
  <path class="st16" d="M211.21,58.98c4.16-4.93,6.04-9.42,6.99-12.55,1.85-6.1,4.17-11.87,2.56-31.66-.35-4.35,1.16-6.32,1.78-7,3.55-3.87,12.71-3.3,21.68,3.35,0,0,19.4,18.23,9.65,49.84,0,0-7.2,17.15-25.92,17.58-1.65.04-3.92-.24-6.46-1.44-9.06-4.28-10.18-16.67-10.29-18.13"/>
  <path class="st5" d="M254.2,59.88s9.92-14.3,28.63-4.51c0,0-2.68,18.78-11.98,21.09"/>
  <path class="st5" d="M256.62,39.62c.75-.52,2.23-1.41,4.31-1.7,2.52-.36,4.51.35,5.36.72.67.21,1.75.68,2.35,1.73.96,1.66.09,3.72-.42,4.89-2.32,5.44-9.51,10.56-11.6,12"/>
  <path class="st5" d="M271.79,77.12s8.28-7.72,12.96,1.42c0,0-3.37,9.3-10.51,7.3"/>
  <path class="st14" d="M93.51,77.23s-8.28-7.72-12.96,1.42c0,0,3.37,9.3,10.51,7.3"/>
  <path class="st1" d="M278.16,118.27s9.13-1.45,13.71-7.61c0,0,.06,10.84-6.86,13.61"/>
  <path class="st16" d="M252.04,22.68s-18.89-6.25-30.74,4.39"/>
  <path class="st16" d="M256.44,47.95s-21.35-16.56-38.74,0"/>
  <path class="st12" d="M217.54,160.43c.21,3.75,8.06,6.58,14.01,6.95,9.06.56,19.32-4.27,19.17-8.44-.15-4.11-10.4-8.12-19.14-7.02-6.44.81-14.25,4.68-14.04,8.51Z"/>
  <path class="st5" d="M183.2,70.08c3.05-.04,6.32-.07,8.7-2.19,3.13-2.78,2.71-7.31,2.44-10.3,0,0-.61-6.67-5.78-12.28-.65-.71-1.55-1.53-1.55-1.53-1-.92-1.57-1.32-1.82-1.49-.96-.65-1.53-.85-2.11-.9-.24-.02-.43,0-.55,0-.77.02-1.47.29-2.8,1.21-2.01,1.38-2.9,2.22-3.72,3.18-4.41,5.19-4.73,11.82-4.73,11.82-.16,3.36-.37,7.61,2.71,10.3,2.6,2.26,6.17,2.23,9.22,2.19Z"/>
  <path class="st12" d="M174.82,49.71c1.4.69,4.05,1.77,7.54,1.78,4.37,0,7.56-1.68,8.92-2.51"/>
  <path class="st12" d="M172.38,55.14c1.81.97,4.98,2.37,9.15,2.66,5.93.41,10.42-1.66,12.33-2.69"/>
  <path class="st12" d="M172.03,60.47c1.64.95,5.43,2.86,10.62,2.87,5.24.01,9.07-1.92,10.71-2.88"/>
  <path class="st23" d="M111.32,60.46c-10.39,4.18-32.47,22.23-20.76,99.98,0,0,6.97,35.58,56.66,37.99,0,0,21.58,2.1,29.88,2.56h11.13c8.3-.46,29.88-2.56,29.88-2.56,49.69-2.41,56.66-37.99,56.66-37.99,11.71-77.75-10.37-95.8-20.76-99.98"/>
  <line class="st5" x1="170.7" y1="58.78" x2="154.11" y2="58.91"/>
  <path class="st12" d="M182.61,41.75"/>
  <path class="st5" d="M156.34,215.5"/>
  <path class="st20" d="M182.59,210.72c3.48-.02,11.2-.06,18.13,3.56,12.26,6.41,16.14,20.95,18.17,31.03,3.88,19.21-.69,39.77-.69,39.77-.44,1.72-1.3,4.21-3.1,6.79-2.85,4.08-6.46,6.09-8.32,6.96-4.71,2.05-13.27,5.06-24.34,4.97-11.31-.09-19.98-3.38-24.66-5.55-2.16-1.19-5.86-3.65-8.57-8.11-1.06-1.75-1.75-3.43-2.2-4.87,0,0,0,0,0,0-1.38-6.04-4.92-22.25-.69-39.77,2.4-9.97,5.91-24.52,18.17-31.03,6.95-3.69,14.69-3.73,18.09-3.75Z"/>
  <path class="st5" d="M129.07,203.63c-4.72-3.22-10-5.74-15.69-6.59-18.12-2.71-34.41,11.02-52.57,7.56,8.21,2.55,22.22,9.36,17.65,20.21,1.22-.93,5.1-3.63,10.48-3.37,2.72.13,4.85.97,6.18,1.64"/>
  <path class="st15" d="M123.56,205.4c-7.48-4.72-16.65-4.1-24.96-2.38-9.28,1.92-18.99,6.44-28.61,5.03"/>
  <path class="st1" d="M115.49,202.3s-24.76,7.62-36.03,22.51"/>
  <path class="st1" d="M109.16,212.99c.53-1.47,1.42-3.46,2.95-5.54,1.69-2.3,3.51-3.84,4.85-4.8"/>
  <path class="st5" d="M236.3,203.3c4.6-3.06,9.7-5.44,15.2-6.26,18.12-2.71,34.41,11.02,52.57,7.56-8.21,2.55-22.22,9.36-17.65,20.21-1.22-.93-5.1-3.63-10.48-3.37-2.72.13-4.85.97-6.18,1.64"/>
  <path class="st15" d="M241.32,205.4c7.48-4.72,16.65-4.1,24.96-2.38,9.28,1.92,18.99,6.44,28.61,5.03"/>
  <path class="st1" d="M249.39,202.3s24.76,7.62,36.03,22.51"/>
  <path class="st1" d="M255.72,212.99c-.53-1.47-1.42-3.46-2.95-5.54-1.69-2.3-3.51-3.84-4.85-4.8"/>
  <path class="st5" d="M151.56,229.32s30.84,14.63,62,0"/>
  <path class="st5" d="M145.4,252.41s36.28,19.93,74.19-.2"/>
  <path class="st5" d="M145.31,273.67s36.28,19.93,74.19-.2"/>
  <path class="st1" d="M93.85,236.09c.45-.64,1.19-1.54,2.3-2.35.99-.73,1.95-1.16,2.64-1.4"/>
  <path class="st1" d="M96.58,242.93c.45-.64,1.19-1.54,2.3-2.35.99-.73,1.95-1.16,2.64-1.4"/>
  <path class="st1" d="M101.26,249.15c.45-.64,1.19-1.54,2.3-2.35.99-.73,1.95-1.16,2.64-1.4"/>
  <path class="st1" d="M271.69,236.09c-.45-.64-1.19-1.54-2.3-2.35-.99-.73-1.95-1.16-2.64-1.4"/>
  <path class="st1" d="M268.95,242.93c-.45-.64-1.19-1.54-2.3-2.35-.99-.73-1.95-1.16-2.64-1.4"/>
  <path class="st1" d="M264.28,249.15c-.45-.64-1.19-1.54-2.3-2.35-.99-.73-1.95-1.16-2.64-1.4"/>
  <path class="st5" d="M127.18,253.51"/>
  <path class="st5" d="M73.98,279.76c.44-1.55,1.22-3.79,2.67-6.25,1.42-2.4,2.24-3.62,3.25-3.83,2.09-.44,5.07,3.51,7.56,9.35"/>
  <path class="st5" d="M89.16,279.08c-.01-1.61.11-3.98.82-6.75.69-2.7,1.13-4.1,2.05-4.59,1.88-1.01,5.85,1.95,9.88,6.85"/>
  <path class="st5" d="M102.96,274.74c-.64-1.48-1.44-3.72-1.85-6.54-.41-2.76-.54-4.22.12-5.02,1.35-1.65,6.15-.46,11.76,2.51"/>
  <path class="st5" d="M113.49,265.36c-.86-1.37-1.99-3.45-2.84-6.18-.83-2.66-1.18-4.09-.65-4.98,1.08-1.84,6.01-1.4,12.01.67"/>
  <path class="st5" d="M119.55,247.26"/>
  <path class="st5" d="M122.77,253.24c-.83-1.15-1.9-2.84-2.84-5.04"/>
  <g>
    <path class="st23" d="M127.43,296.54l-1.52,1.14c-60.19,3.62-53.28-17.65-53.28-17.65,3.43.85,17.93,4.06,31.67-4.31,6.29-3.83,10.17-8.72,12.36-12.05,3.48-4.98,6.97-9.96,10.45-14.95l.17.04c-2.9,11.38-6.82,32.98.15,47.78Z"/>
    <path class="st5" d="M127.11,248.72c-3.48,4.99-6.97,9.97-10.45,14.95-2.19,3.33-6.07,8.22-12.36,12.05-13.74,8.37-28.24,5.16-31.67,4.31,0,0-6.91,21.27,53.28,17.65"/>
  </g>
  <polygon class="st27" points="143.88 155.1 144.91 156.05 146.4 157.34 147.77 160.59 146.88 162.76 145.03 163.75 143.88 164.42 140.02 166.19 134.86 167.23 130.44 167.23 126.41 166.72 121.48 164.99 116.77 162.48 114.87 160.14 114.61 158.48 115.67 156.64 118.67 154.44 120.94 153.43 124.13 152.47 128.34 151.52 143.88 155.1"/>
  <polygon class="st27" points="221.51 155.1 220.48 156.05 218.99 157.34 217.61 160.59 218.51 162.76 220.36 163.75 221.51 164.42 225.37 166.19 230.53 167.23 234.94 167.23 238.98 166.72 243.9 164.99 248.62 162.48 250.52 160.14 250.77 158.48 249.72 156.64 246.71 154.44 244.45 153.43 241.26 152.47 237.05 151.52 221.51 155.1"/>
  <polygon class="st24" points="125.29 125.23 126.25 125.52 130.75 123.57 136.27 122.17 139.17 121.76 142.62 121.76 149.71 122.87 155.83 125 157.95 125.52 157.86 122.59 149.27 118.38 136.87 118.38 127.92 120.68 125.29 125.23"/>
  <polygon class="st26" points="124.34 125.08 123.18 127.93 121.93 131.38 123.37 131.91 124.95 132.64 125.62 131.61 127.07 130.71 129.2 129.59 132.34 128.44 134.51 127.63 137.73 126.99 140.94 126.71 142.48 126.72 145.39 126.96 149.85 127.93 154.35 129.69 157.68 131.56 159.96 133.16 162.87 134.3 161.3 129.07 158.32 124.83 156.21 124.93 152.03 123.15 146.07 121.33 138.12 121.14 133.14 122.26 124.34 125.08"/>
  <polygon class="st28" points="130.76 136.61 131.97 138.29 136.92 138.57 143.68 139.99 148.17 142.07 150.48 144.19 153.96 147.22 157.22 146.18 158.32 143.36 157.95 142.26 155.78 139.45 153.03 137.4 149.13 135.16 145.35 134.08 141.04 133.65 137.26 134.13 134.85 134.98 130.76 136.61"/>
  <polygon class="st22" points="154.32 131.37 156.72 131.85 157.95 133.56 157.59 135.69 156.14 137.02 153.12 136.28 152.21 134.68 152.21 132.75 154.32 131.37"/>
  <polygon class="st22" points="130.43 130.77 131.63 131.03 132.25 131.93 132.06 133.06 131.34 133.76 129.83 133.37 129.38 132.52 129.38 131.5 130.43 130.77"/>
  <polygon class="st22" points="151.8 138.52 152.8 138.72 153.31 139.43 153.16 140.32 152.56 140.88 151.3 140.57 150.92 139.9 150.92 139.1 151.8 138.52"/>
  <polygon class="st22" points="121.93 130.91 122.92 130.91 126.59 132.93 130.76 136.34 131.7 137.7 132.28 138.48 132.9 138.71 137.75 138.42 141.71 139.25 148.67 142.59 152.87 146.1 153.53 147.25 151.47 150.99 137.21 152.36 126.2 148.16 122.54 142.33 121.93 130.91"/>
  <polygon class="st24" points="240.51 125.23 239.55 125.52 235.05 123.57 229.53 122.17 226.63 121.76 223.18 121.76 216.09 122.87 209.97 125 207.85 125.52 207.94 122.59 216.53 118.38 228.93 118.38 237.88 120.68 240.51 125.23"/>
  <polygon class="st26" points="241.46 125.08 242.62 127.93 243.87 131.38 242.43 131.91 240.85 132.64 240.18 131.61 238.73 130.71 236.6 129.59 233.46 128.44 231.29 127.63 228.07 126.99 224.86 126.71 223.32 126.72 220.41 126.96 215.95 127.93 211.45 129.69 208.12 131.56 205.84 133.16 202.93 134.3 204.5 129.07 207.48 124.83 209.59 124.93 213.77 123.15 219.73 121.33 227.68 121.14 232.66 122.26 241.46 125.08"/>
  <polygon class="st28" points="235.04 136.77 233.83 138.54 228.88 138.84 222.12 140.33 217.63 142.53 215.32 144.75 211.84 147.95 208.58 146.86 207.48 143.88 207.85 142.72 210.02 139.76 212.77 137.6 216.67 135.24 220.45 134.1 224.76 133.65 228.54 134.15 230.95 135.06 235.04 136.77"/>
  <polygon class="st22" points="211.48 131.37 209.08 131.87 207.85 133.66 208.21 135.89 209.66 137.28 212.68 136.51 213.59 134.83 213.59 132.82 211.48 131.37"/>
  <polygon class="st22" points="235.42 130.89 234.22 131.14 233.61 132.05 233.79 133.17 234.51 133.88 236.02 133.49 236.48 132.64 236.48 131.62 235.42 130.89"/>
  <polygon class="st22" points="214.09 138.73 213.09 138.93 212.58 139.64 212.73 140.53 213.33 141.09 214.59 140.78 214.97 140.11 214.97 139.31 214.09 138.73"/>
  <polygon class="st22" points="243.87 131.38 242.88 131.38 239.21 133.42 235.05 136.87 234.11 138.25 233.52 139.03 232.9 139.26 228.05 138.97 224.09 139.81 217.14 143.19 212.94 146.74 212.27 147.9 214.33 151.68 228.59 153.07 239.6 148.82 243.26 142.92 243.87 131.38"/>
  <polygon class="st20" points="293.2 147.22 282.62 150.3 278.27 150.22 276.29 152.36 274.04 165.37 274.04 166.94 284.75 163.11 293.2 147.22"/>
  <polygon class="st20" points="73.45 146.76 69.99 148.3 72.62 151.74 84.62 164.8 91.92 164.8 89.03 150.3 73.45 146.76"/>
  <polygon class="st21" points="87.16 118.07 83.96 117.27 78.17 114.66 74.33 111.52 74.33 117.27 77.26 121.95 83.85 124.66 87.27 124.66 87.16 118.07"/>
  <polygon class="st21" points="278.09 119.22 281.97 117.27 288.14 114.2 290.14 112.59 291.87 110.66 291.38 114.94 288.67 121.42 282.83 125.52 279.74 124.66 278.09 119.22"/>
  <polygon class="st20" points="149.79 52.53 154.11 61.9 146.45 76.45 137.36 78.34 124.36 75.37 112.44 62.73 111.12 55.72 149.79 52.53"/>
  <polygon class="st20" points="212.25 58.25 210.98 61.9 217.41 74.19 221.5 77.11 235.01 77.51 249.46 67.88 253.88 60.96 240.51 54.31 212.25 58.25"/>
  <polygon class="st20" points="173.23 47.95 171.19 57.06 169.09 58.78 166.19 57.56 163.1 50.69 162.87 46.26 163.98 43.13 165.62 45.12 166.13 46.26 168.86 47.75 172.38 48.13 173.23 47.95"/>
  <polygon class="st20" points="195.17 59.22 198.28 57.23 201.18 53.81 202.63 49.27 202.19 44.27 201.83 44.07 200.55 43.69 198.9 46.26 196.51 47.22 194.53 48.44 192.17 48.44 191.48 49.3 193.86 56.1 195.17 59.22"/>
  <polygon class="st21" points="108.88 55.72 108.7 43.13 108.7 39.42 100.25 37.62 96.68 40.17 96.42 43.13 99.91 49.4 104.88 54.31 108.88 55.72"/>
  <polygon class="st21" points="147.14 43.69 151.6 41.95 155.95 37.62 157.76 35.65 157.76 40.04 158.91 44.27 156.94 53.57 154.61 55.11 153.12 57.56 148.8 50.59 147.14 43.69"/>
  <path class="st21" d="M181.13,42.4l-6.28,4.9-3.2,9.96-.46,8.18s2.25,2.33,2.79,2.45,7.15,2.19,7.15,2.19l6.41-.73,6.32-3.9.83-8.96-6.57-11.65-3.92-2.44h-3.06Z"/>
  <polygon class="st21" points="207.61 37.12 206.01 44.81 206.01 51.49 210.98 57.19 216.18 51.49 218.44 45.65 217.32 43.69 207.61 37.12"/>
  <polygon class="st21" points="259.25 38.31 266.28 38.64 268.52 40.59 269.07 45.6 264.16 50.24 256.62 56.48 255.52 57.26 256.98 39.38 259.25 38.31"/>
  <path class="st21" d="M266.66,52.26l9.78.55,4.74,2.3,1.05,1.13-.17,2.99-1.88,6.21-3.59,7.73-3.93,2.59-3.06.69-2.94-4.9-3.81-5.06-5.38-4.27-2.52-1.75,1.67-3.21s9.59-4.95,10.04-5Z"/>
  <polygon class="st21" points="281.23 74.69 283.38 76.45 284.75 79.78 282.23 82.55 278.27 85.79 274.23 85.85 271.41 78.55 277.35 74.69 281.23 74.69"/>
  <polygon class="st21" points="73.35 280.2 82.51 281.34 88.73 281.34 88 279.76 83.33 271.75 79.76 269.32 77.24 272.99 73.35 280.2"/>
  <path class="st21" d="M91.01,280.7c.09-.05,11.48-3.72,11.48-3.72l.47-2.24-2.83-3.45-7.24-3.75-2.55,2.41v3.19l-1.37,5.14,2.05,2.41Z"/>
  <polygon class="st21" points="114.39 266.32 110.69 264.21 104.79 262.2 102.17 263.07 101.53 264.47 100.94 266.99 101.9 269.65 103.35 274.91 105.65 275.1 113.85 266.74 114.39 266.32"/>
  <polygon class="st21" points="115.4 264.66 121.35 254.99 113.82 253.24 109.89 254.44 109.89 256.71 111.23 261.55 113.5 265.81 115.4 264.66"/>
  <polygon class="st21" points="121.05 250.51 123.34 252.68 125.86 250.51 127.75 245.39 126.31 244.32 120.88 247.26 121.05 250.51"/>
  <polygon class="st20" points="123.71 205.84 103.73 216.6 98.43 221.7 95.82 223.68 92.07 221.92 86.34 221.1 82.03 221.77 79.11 224.33 79.06 218.33 79.06 215.5 72.67 210.23 72.39 208.32 78.3 207.82 87.22 205.84 98.05 203.14 102.66 202.3 109.16 201.37 115.49 202.3 119.55 203.42 123.71 205.84"/>
  <polygon class="st20" points="242.79 205.16 244.99 203.55 253.32 201.75 264.28 202.3 269.21 203.7 282.07 207.17 293.82 208.32 288.46 213.55 285.54 220.12 285.42 223.11 281.08 223.11 276.29 221.43 271.22 223.11 267.72 222.3 242.79 205.16"/>
  <polygon class="st23" points="220.46 199.62 240.18 205.16 260.59 216.88 270.26 224.33 271.69 239.18 268.3 244.32 264.28 250.72 257.79 252.21 251.82 250.72 233.47 239.18 237.64 249.15 241.08 269.65 240.51 280.7 239.22 290.93 233.61 302.74 232.27 304.22 235.01 307.6 236.62 320.8 230.79 327.56 222.42 331.93 210.72 330.5 204.98 329.27 197.62 321.95 196.04 309.05 197.62 301.14 203.37 300.19 214.97 293.22 217.81 286.42 221.26 263.86 218.01 241.25 210.98 223.11 220.46 199.62"/>
  <polygon class="st23" points="216.17 199.02 224.18 202.66 216.17 223.11 211.45 226.33 208 218.54 204.86 216.98 194.21 210.74 186.81 210.72 178.51 210.74 167.81 212.99 159.62 216.5 153.81 223.95 148.93 235.83 145.4 252.41 144.32 264.37 145.57 277.97 150.55 292.07 164.81 301 167.87 305.78 167.91 313.78 165.56 323.39 159.23 329.89 151.24 331.11 144.32 331.76 137.83 329.89 132.54 326.22 128.74 320.41 127.75 310.97 131 305.75 132.3 304.33 128.22 298.1 123.53 281.34 123.53 269.32 125.36 255.95 129.24 241.87 126.31 242.93 116.27 249.15 109.16 252.68 102.5 251.1 96.77 245.14 93.85 237.95 94.94 226.08 99.06 220.12 118.13 208.85 129.94 203.44 139.54 200.71 153.33 199.02 185.79 201.37 202.89 199.91 216.17 199.02"/>
  <polygon class="st23" points="236.45 203.2 241.07 205.67 245.46 203.45 247.92 202.3 257.68 201.82 267.78 202.66 279.84 206.64 293.2 208.93 298.63 206.65 297.36 205.03 282.34 202.48 271.67 199.62 261.8 196.68 251.82 197.35 242.9 199.62 236.45 203.2"/>
  <polygon class="st23" points="127.67 203.6 123.05 206.07 118.66 203.85 116.2 202.69 106.44 202.22 96.35 203.05 84.28 207.04 70.93 209.33 65.49 207.04 66.76 205.43 81.78 202.88 92.45 200.02 102.32 197.08 112.3 197.75 121.22 200.02 127.67 203.6"/>
  <polygon class="st22" points="166.26 178.14 171.15 180.59 171.15 181.79 169.3 183.18 164.49 184.61 164.49 183.05 166.26 178.14"/>
  <polygon class="st22" points="193.19 181.38 198.84 178.97 200.04 180.79 201.04 185.41 199.41 184.61 193.19 181.74 193.19 181.38"/>
  <polygon class="st23" points="155.91 62.82 170.98 61.9 171.27 57.59 164.72 58.78 155.02 58.91 155.91 62.82"/>
  <polygon class="st23" points="210.68 60.84 210.68 58.78 198.62 58.25 194.53 59.22 194.68 61.9 202.61 63.34 210.68 60.84"/>
  <path class="st19" d="M88.15,68.25c.95.14,6.41.84,11.27-2.96,4.33-3.39,5.25-8.07,5.44-9.19,1.94,1.42,2.82,2.04,3.24,2.32.06.04.29.2.61.41.44.3.79.56,1.01.72-.67,1.26-1.33,2.53-2,3.79l-6.41,2.61-3.18,5.34-2.67,4.31c-1.07-.53-2.47-1.37-3.88-2.67-1.08-1-1.88-2-2.46-2.84-.32-.62-.64-1.23-.96-1.85Z"/>
  <path class="st19" d="M277.28,68.31c-.95.14-6.41.84-11.27-2.96-4.33-3.39-5.25-8.07-5.44-9.19-1.94,1.42-2.82,2.04-3.24,2.32-.06.04-.29.2-.61.41-.44.3-.79.56-1.01.72.67,1.26,1.33,2.53,2,3.79l6.41,2.61,3.18,5.34,2.67,4.31c1.07-.53,2.47-1.37,3.88-2.67,1.08-1,1.88-2,2.46-2.84.32-.62.64-1.23.96-1.85Z"/>
  <path class="st18" d="M211.77,200.01c.35,2.02-13.74,6.98-28.91,7.05-15.55.07-29.99-5.01-29.64-7.05.25-1.45,9.92-1.45,29.27-1.46,19.35,0,29.02,0,29.27,1.46Z"/>
  <path class="st18" d="M274.69,153.69c-3.82,7.6-10.69,18.57-22.68,27.4-18.78,13.83-38.54,13.9-68.5,14.01-29.98.11-49.67.19-68.68-13.4-12.5-8.94-19.69-20.2-23.69-28.01-.05,4.1.46,12.84,6.01,21.41,5.24,8.09,12.2,11.94,15.28,13.42,9.67,4.72,18.06,7.22,24.05,8.62,11.04,2.59,20.03,2.92,33.56,3.42,8.79.32,16.12.25,21.27.11,5.75-.32,11.51-.64,17.26-.96,9.72-1.31,19.44-2.62,29.16-3.94,4.63-1.16,13.46-4.06,21.64-11.68,12.39-11.55,14.77-26,15.32-30.4Z"/>
  <path class="st25" d="M217.37,285.69c-3.62,2.83-17.02,12.6-36.44,11.94-17.09-.58-28.75-8.9-32.64-11.94.93,2.34,2.48,5.47,5.06,8.68,1.96,2.44,3.98,4.25,5.66,5.55,6.69,1.25,13.37,2.49,20.06,3.74l21.8-1.94,12.33-6.61c1.39-3.14,2.78-6.28,4.17-9.42Z"/>
  <path class="st18" d="M139.82,231.88c-.88,3.44-2.29,7.71-4.64,12.2-2.7,5.16-5.73,8.89-8.2,11.45.56-4.04,1.13-8.08,1.69-12.12,3.71-3.84,7.43-7.68,11.14-11.53Z"/>
  <path class="st18" d="M225.92,232.33c.88,3.44,2.29,7.71,4.64,12.2,2.7,5.16,5.73,8.89,8.2,11.45-.56-4.04-1.13-8.08-1.69-12.12-3.71-3.84-7.43-7.68-11.14-11.53Z"/>
  <path class="st25" d="M52.96,133.65c1.43,2.44,3.48,5.6,6.32,9.01,1.96,2.36,5.48,6.54,10.72,10.33,3.48,2.51,9.95,6.45,19.5,8.37-.68-3.96-1.35-7.92-2.03-11.89l-17.84-4.82c-4.37-3.26-9.1-6.47-14.19-9.53-.83-.5-1.66-.99-2.49-1.47Z"/>
  <path class="st25" d="M312.09,133.74c-1.43,2.44-3.48,5.6-6.32,9.01-1.96,2.36-5.48,6.54-10.72,10.33-3.48,2.51-9.95,6.45-19.5,8.37.68-3.96,1.35-7.92,2.03-11.89l17.84-4.82c4.37-3.26,9.1-6.47,14.19-9.53.83-.5,1.66-.99,2.49-1.47Z"/>
  <path class="st25" d="M150.02,56.24c-.31,1.4-2.61,11.17-10.82,14.8-9.12,4.04-22.34-.93-28.82-13.47,1.73,3.8,3.45,7.6,5.18,11.4l13.65,8.38,9.84,1.27,9.34-4.2,4.03-9.69,1.14-5.06-3.54-3.43Z"/>
  <path class="st25" d="M214.62,55.82c.31,1.4,2.61,11.17,10.82,14.8,9.12,4.04,22.34-.93,28.82-13.47-1.73,3.8-3.45,7.6-5.18,11.4l-13.65,8.38-9.84,1.27-9.34-4.2-4.03-9.69-1.14-5.06,3.54-3.43Z"/>
  <path class="st25" d="M163.72,51.87c1.33,1.62,3.51,2.28,5.48,1.66,2.07-.65,3.51-2.56,3.58-4.76.01.64.03,1.29.05,1.94.01.42.03.84.04,1.26-.33.76-.67,1.51-1,2.27-.32.61-.64,1.21-.96,1.82-.48.94-.96,1.87-1.44,2.81-.88-.93-1.78-1.93-2.69-3.02-1.14-1.36-2.16-2.7-3.08-3.98Z"/>
  <path class="st25" d="M201.5,51.87c-1.33,1.62-3.51,2.28-5.48,1.66-2.07-.65-3.51-2.56-3.58-4.76-.01.64-.03,1.29-.05,1.94-.01.42-.03.84-.04,1.26.33.76.67,1.51,1,2.27.32.61.64,1.21.96,1.82.48.94.96,1.87,1.44,2.81.88-.93,1.78-1.93,2.69-3.02,1.14-1.36,2.16-2.7,3.08-3.98Z"/>
  <path class="st19" d="M172.04,61.13c.43.54,4.61,5.69,11.61,5.45,6.43-.22,10.15-4.8,10.66-5.45-.75,2.49-1.49,4.98-2.24,7.47l-13.48,1.15-6.79-3.4.24-5.22Z"/>
  <path class="st19" d="M85.15,82.95c.51.02,2.92.03,4.99-1.82,2.09-1.86,2.33-4.28,2.37-4.78l1.91,1.48-.98,2.33c-.47.86-.94,1.72-1.41,2.59-.47.68-.94,1.36-1.41,2.05-.69.5-1.38,1-2.07,1.5l-1.9-.65c-.5-.9-1-1.8-1.5-2.7Z"/>
  <path class="st19" d="M280.18,82.95c-.51.02-2.92.03-4.99-1.82-2.09-1.86-2.33-4.28-2.37-4.78l-1.91,1.48.98,2.33c.47.86.94,1.72,1.41,2.59.47.68.94,1.36,1.41,2.05.69.5,1.38,1,2.07,1.5l1.9-.65c.5-.9,1-1.8,1.5-2.7Z"/>
  <path class="st19" d="M104.86,52.4c.59-.08,2.13-.36,3.46-1.63,2.07-1.99,1.87-4.73,1.83-5.11v9.84c-.8-.07-1.59-.15-2.39-.22-.97-.96-1.93-1.92-2.9-2.88Z"/>
  <path class="st19" d="M261.75,52.77c-.59-.08-2.13-.36-3.46-1.63-2.07-1.99-1.87-4.73-1.83-5.11,0,3.28,0,6.56,0,9.84.8-.07,1.59-.15,2.39-.22.97-.96,1.93-1.92,2.9-2.88Z"/>
  <path class="st19" d="M146.94,43.58c.13.73.91,4.89,4.75,7.3,2.17,1.36,4.32,1.54,5.37,1.56-1.01,1.49-2.01,2.97-3.02,4.46l-5.94-7.16-2.29-4.37,1.13-1.78Z"/>
  <path class="st19" d="M218.53,44.71c-.17.72-1.24,4.82-5.22,6.97-2.25,1.22-4.41,1.25-5.47,1.2.9,1.55,1.81,3.1,2.71,4.65l6.41-6.75,2.58-4.21-1.01-1.85Z"/>
  <path class="st25" d="M246.74,208.93c1.34-1,3.49-2.37,6.38-3.28,6.13-1.93,11.77-.54,20.99,1.83,5.7,1.47,8.74,2.76,14.58,2.99,2.35.09,4.29-.02,5.6-.13-2.24-.69-4.47-1.38-6.71-2.08l-20.43-4.79c-5.11-.58-10.22-1.15-15.33-1.73-3.25,1.14-6.49,2.27-9.74,3.41.73.61,1.47,1.22,2.22,1.83.82.66,1.63,1.31,2.43,1.94Z"/>
  <path class="st25" d="M118.64,208.93c-1.34-1-3.49-2.37-6.38-3.28-6.13-1.93-11.77-.54-20.99,1.83-5.7,1.47-8.74,2.76-14.58,2.99-2.35.09-4.29-.02-5.6-.13,2.24-.69,4.47-1.38,6.71-2.08l20.43-4.79c5.11-.58,10.22-1.15,15.33-1.73,3.25,1.14,6.49,2.27,9.74,3.41-.73.61-1.47,1.22-2.22,1.83-.82.66-1.63,1.31-2.43,1.94Z"/>
  <path class="st18" d="M72.49,280.7c11.98,12.66,29.22,15.19,40.04,7.89,8.82-5.96,10.63-16.61,11-19.27-.45,3.43-.7,8-.05,13.3.72,5.85,2.29,10.6,3.7,13.98-4.26.5-8.52,1-12.78,1.5l-31.99-4.5-7.05-5.57c-.95-2.44-1.91-4.89-2.86-7.33Z"/>
  <path class="st18" d="M94.94,241.45c3.96,3.03,7.48,4.06,9.64,4.47,8.54,1.63,16.06-2.5,25.55-7.72,2.42-1.33,4.69-3.11,4.69-3.11,1.53-1.11,2.78-2.1,3.68-2.84-1.25,1.63-3.12,3.84-5.7,6.14-2.08,1.85-3.84,3.24-5.62,4.23-6,3.35-12.01,6.7-18.01,10.06l-9.33-3.52-4.3-6.39-.59-1.31Z"/>
  <path class="st18" d="M271.17,241.45c-3.96,3.03-7.48,4.06-9.64,4.47-8.54,1.63-16.06-2.5-25.55-7.72-2.42-1.33-4.69-3.11-4.69-3.11-1.53-1.11-2.78-2.1-3.68-2.84,1.25,1.63,3.12,3.84,5.7,6.14,2.08,1.85,3.84,3.24,5.62,4.23,6,3.35,12.01,6.7,18.01,10.06l9.33-3.52,4.3-6.39.59-1.31Z"/>
  <path class="st18" d="M149.23,292.87c1.75,1.3,4.18,3.21,6.93,5.7,1.83,1.66,4.4,4,6.12,6.14,1.77,2.21,4.91,7.06,5.32,15.83.1-6.38.2-12.77.3-19.15l-11.06-3.29-7.62-5.23Z"/>
  <path class="st18" d="M215.58,292.87c-1.75,1.3-4.18,3.21-6.93,5.7-1.83,1.66-4.4,4-6.12,6.14-1.77,2.21-4.91,7.06-5.32,15.83-.1-6.38-.2-12.77-.3-19.15l11.06-3.29,7.62-5.23Z"/>
  <path class="st19" d="M87.64,121.9c-.79.04-6.69.25-10.43-4.25-1.69-2.04-2.27-4.22-2.49-5.49-.25.95-.62,2.85-.12,5.16.45,2.09,1.42,3.55,2,4.32,3.02.78,6.05,1.56,9.07,2.34l1.96-2.08Z"/>
  <path class="st19" d="M277.33,121.75c.79.06,6.68.41,10.53-4.01,1.74-2,2.37-4.16,2.62-5.43.23.96.56,2.87,0,5.16-.5,2.08-1.5,3.52-2.11,4.27-3.04.71-6.09,1.42-9.13,2.12l-1.91-2.12Z"/>
  <path class="st8" d="M129.5,241.08s-15.3,44.31,3.1,62.97c0,0-9.35,7.65-2.02,20.33,0,0,12.18,14.13,31.37,3.28,0,0,11.6-9.09,4.47-26.16,0,0-12.97-3.44-17.07-11.53"/>
  <path class="st8" d="M235.36,241.25h0s15.3,44.31-3.1,62.97c0,0,9.35,7.65,2.02,20.33,0,0-12.18,14.13-31.37,3.28-1.63-1.53-4.12-4.31-5.63-8.48-3.05-8.45.35-15.99,1.16-17.68"/>
  <path class="st8" d="M182.49,173.89c-1.59,4.16-5.63,6.86-10,6.7-2.47-.09-4.78-1.08-6.55-2.71-1.17-1.08-2.11-2.43-2.7-3.99"/>
  <polygon class="st7" points="164.36 185.21 172.87 181.7 165.94 177.88 164.36 185.21"/>
  <path class="st8" d="M182.91,174.09c1.59,4.16,5.63,6.86,10,6.7,2.47-.09,4.78-1.08,6.55-2.71,1.17-1.08,2.11-2.43,2.7-3.99"/>
  <polygon class="st7" points="201.04 185.41 192.53 181.9 199.46 178.08 201.04 185.41"/>
  <ellipse class="st9" cx="141.4" cy="134.67" rx="21.06" ry="18.15"/>
  <path class="st6" d="M121.96,127.69c2.33-1.73,8.93-6.18,18.49-6.46,10.72-.31,18.19,4.81,20.4,6.46"/>
  <path class="st6" d="M159.04,144.57c-.48-.93-4.88-9.05-14.35-10.57-7.15-1.15-12.56,2.21-13.88,3.08"/>
  <path class="st6" d="M124.36,132.04c2.46-1.71,8.15-5.15,16.08-5.48,12.03-.51,20.22,6.5,22.01,8.11"/>
  <path class="st3" d="M157.88,134.19c0,1.56-1.26,2.82-2.82,2.82s-2.82-1.26-2.82-2.82,1.26-2.82,2.82-2.82,2.82,1.26,2.82,2.82Z"/>
  <path class="st10" d="M129.2,132.18c0,.87.71,1.58,1.58,1.58s1.58-.71,1.58-1.58-.71-1.58-1.58-1.58-1.58.71-1.58,1.58Z"/>
  <path class="st6" d="M120.87,130.6c.9.28,2.12.73,3.49,1.43.88.45,2.94,1.59,5.12,3.66.8.76,1.81,1.83,2.82,3.24.72-.09,1.7-.19,2.88-.2,0,0,3.27-.03,6.46.82,3.52.94,8.63,3.83,13.2,9.08,0,0-13.05,10.94-29.68-2.41,0,0-6.95-7.38-4.29-15.63Z"/>
  <circle class="st10" cx="152.05" cy="139.71" r="1.19"/>
  <ellipse class="st9" cx="224.43" cy="134.87" rx="21.06" ry="18.15"/>
  <path class="st6" d="M243.87,127.89c-2.33-1.73-8.93-6.18-18.49-6.46-10.72-.31-18.19,4.81-20.4,6.46"/>
  <path class="st6" d="M206.78,144.77c.48-.93,4.88-9.05,14.35-10.57,7.15-1.15,12.56,2.21,13.88,3.08"/>
  <path class="st6" d="M241.46,132.24c-2.46-1.71-8.15-5.15-16.08-5.48-12.03-.51-20.22,6.5-22.01,8.11"/>
  <path class="st3" d="M207.94,134.4c0,1.56,1.26,2.82,2.82,2.82s2.82-1.26,2.82-2.82c0-1.56-1.26-2.82-2.82-2.82s-2.82,1.26-2.82,2.82Z"/>
  <path class="st10" d="M236.62,132.38c0,.87-.71,1.58-1.58,1.58s-1.58-.71-1.58-1.58.71-1.58,1.58-1.58,1.58.71,1.58,1.58Z"/>
  <path class="st6" d="M244.95,130.8c-.9.28-2.12.73-3.49,1.43-.88.45-2.94,1.59-5.12,3.66-.8.76-1.81,1.83-2.82,3.24-.72-.09-1.7-.19-2.88-.2,0,0-3.27-.03-6.46.82-3.52.94-8.63,3.83-13.2,9.08,0,0,13.05,10.94,29.68-2.41,0,0,6.95-7.38,4.29-15.63Z"/>
  <circle class="st10" cx="213.77" cy="139.91" r="1.19"/>
  <path class="st7" d="M137.83,329.89c-.2-.31-1.28-2.12-.68-4.37.45-1.69,1.6-2.65,1.99-2.95"/>
  <path class="st7" d="M152.03,324c-.3.61-.81,1.82-.8,3.43.01,1.78.66,3.09,1,3.68"/>
  <path class="st7" d="M227.64,329.27c.2-.31,1.28-2.12.68-4.37-.45-1.69-1.6-2.65-1.99-2.95"/>
  <path class="st7" d="M213.44,323.39c.3.61.81,1.82.8,3.43-.01,1.78-.66,3.09-1,3.68"/>
  <path class="st9" d="M86.33,124.07h-31.32c-.92.22-1.91.64-2.38,1.51-2.1,3.95,7.88,14.89,18.78,20.24,6.56,3.22,12.72,4.06,16.76,4.27"/>
  <path class="st8" d="M92.28,166.93c-3.55.41-13.25,1.05-22.67-4.81-16.86-10.48-16.67-31.7-16.64-32.87"/>
  <path class="st7" d="M68.73,151.03s1.91,6.54,6.54,3.35c.15.46,1.27,3.76,4.53,4.96,3.14,1.16,6.97-.1,9.22-3.21"/>
  <path class="st8" d="M154.11,58.78c-4.16-4.93-6.04-9.42-6.99-12.55-1.85-6.1-4.17-11.87-2.56-31.66.35-4.35-1.16-6.32-1.78-7-3.55-3.87-12.71-3.3-21.68,3.35,0,0-19.4,18.23-9.65,49.84,0,0,7.2,17.15,25.92,17.58,1.65.04,3.92-.24,6.46-1.44,9.06-4.28,10.18-16.67,10.29-18.13Z"/>
  <path class="st2" d="M111.12,59.67s-9.92-14.29-28.63-4.51c0,0,2.68,18.78,11.97,21.09"/>
  <path class="st8" d="M108.7,39.42c-.75-.52-2.23-1.41-4.31-1.7-2.52-.36-4.51.35-5.36.72-.67.21-1.75.68-2.35,1.73-.96,1.66-.09,3.72.42,4.89,2.32,5.44,9.51,10.56,11.6,12"/>
  <path class="st7" d="M87.16,118.07s-9.13-1.45-13.71-7.61c0,0-.06,10.84,6.86,13.61"/>
  <path class="st8" d="M113.28,22.48s18.89-6.25,30.74,4.39"/>
  <path class="st8" d="M108.88,47.75s21.35-16.56,38.74,0"/>
  <path class="st8" d="M146.45,44.07s7.92-1.24,8.77-7.84c.08-.65.32-1.23.65-1.27,1.22-.15,5.23,7.93,2.72,15.27-1.32,3.87-4.01,6.23-5.47,7.32"/>
  <path class="st8" d="M218.92,44.76s-7.92-1.24-8.77-7.84c-.08-.65-.32-1.23-.65-1.27-1.22-.15-5.23,7.93-2.72,15.27,1.18,3.44,3.43,5.68,4.93,6.91"/>
  <path class="st7" d="M164.34,42.4c.11.44.96,3.61,3.99,5.12,3.23,1.61,6.19-.02,6.52-.21-1.92,3.83-3.84,7.65-5.76,11.48-.56-.29-4.9-2.67-5.99-8.08-.84-4.18.8-7.47,1.24-8.3Z"/>
  <path class="st7" d="M201.04,42.4c-.12.44-1.03,3.61-4.3,5.12-3.47,1.61-6.66-.02-7.02-.21,2.07,3.83,4.13,7.65,6.2,11.48.6-.29,5.28-2.67,6.45-8.08.9-4.18-.86-7.47-1.33-8.3Z"/>
  <path class="st6" d="M147.78,160.23c-.21,3.75-8.06,6.58-14.01,6.95-9.06.56-19.32-4.27-19.17-8.44.15-4.11,10.4-8.12,19.14-7.02,6.44.81,14.25,4.68,14.04,8.51Z"/>
  <path class="st9" d="M278.99,124.27c9.96,0,19.93,0,29.89,0h1.43c.92.22,1.91.64,2.38,1.51,2.1,3.95-7.88,14.89-18.78,20.24-6.56,3.22-12.72,4.06-16.76,4.27"/>
  <path class="st8" d="M274.04,166.94c3.63.38,12.76.83,21.67-4.62,16.89-10.32,16.67-31.78,16.64-32.87"/>
  <path class="st7" d="M296.59,151.23s-1.91,6.54-6.54,3.35c-.15.46-1.27,3.76-4.53,4.96-3.14,1.16-6.97-.1-9.22-3.21"/>
  <path class="st8" d="M211.21,58.98c4.16-4.93,6.04-9.42,6.99-12.55,1.85-6.1,4.17-11.87,2.56-31.66-.35-4.35,1.16-6.32,1.78-7,3.55-3.87,12.71-3.3,21.68,3.35,0,0,19.4,18.23,9.65,49.84,0,0-7.2,17.15-25.92,17.58-1.65.04-3.92-.24-6.46-1.44-9.06-4.28-10.18-16.67-10.29-18.13"/>
  <path class="st8" d="M254.2,59.88s9.92-14.3,28.63-4.51c0,0-2.68,18.78-11.98,21.09"/>
  <path class="st8" d="M256.62,39.62c.75-.52,2.23-1.41,4.31-1.7,2.52-.36,4.51.35,5.36.72.67.21,1.75.68,2.35,1.73.96,1.66.09,3.72-.42,4.89-2.32,5.44-9.51,10.56-11.6,12"/>
  <path class="st8" d="M271.79,77.12s8.28-7.72,12.96,1.42c0,0-3.37,9.3-10.51,7.3"/>
  <path class="st8" d="M93.51,77.23s-8.28-7.72-12.96,1.42c0,0,3.37,9.3,10.51,7.3"/>
  <path class="st7" d="M278.16,118.27s9.13-1.45,13.71-7.61c0,0,.06,10.84-6.86,13.61"/>
  <path class="st8" d="M252.04,22.68s-18.89-6.25-30.74,4.39"/>
  <path class="st8" d="M256.44,47.95s-21.35-16.56-38.74,0"/>
  <path class="st6" d="M217.54,160.43c.21,3.75,8.06,6.58,14.01,6.95,9.06.56,19.32-4.27,19.17-8.44-.15-4.11-10.4-8.12-19.14-7.02-6.44.81-14.25,4.68-14.04,8.51Z"/>
  <path class="st8" d="M183.2,70.08c3.05-.04,6.32-.07,8.7-2.19,3.13-2.78,2.71-7.31,2.44-10.3,0,0-.61-6.67-5.78-12.28-.65-.71-1.55-1.53-1.55-1.53-1-.92-1.57-1.32-1.82-1.49-.96-.65-1.53-.85-2.11-.9-.24-.02-.43,0-.55,0-.77.02-1.47.29-2.8,1.21-2.01,1.38-2.9,2.22-3.72,3.18-4.41,5.19-4.73,11.82-4.73,11.82-.16,3.36-.37,7.61,2.71,10.3,2.6,2.26,6.17,2.23,9.22,2.19Z"/>
  <path class="st6" d="M174.82,49.71c1.4.69,4.05,1.77,7.54,1.78,4.37,0,7.56-1.68,8.92-2.51"/>
  <path class="st6" d="M172.38,55.14c1.81.97,4.98,2.37,9.15,2.66,5.93.41,10.42-1.66,12.33-2.69"/>
  <path class="st6" d="M172.03,60.47c1.64.95,5.43,2.86,10.62,2.87,5.24.01,9.07-1.92,10.71-2.88"/>
  <path class="st8" d="M111.32,60.46c-10.39,4.18-32.47,22.23-20.76,99.98,0,0,6.97,35.58,56.66,37.99,0,0,21.58,2.1,29.88,2.56h11.13c8.3-.46,29.88-2.56,29.88-2.56,49.69-2.41,56.66-37.99,56.66-37.99,11.71-77.75-10.37-95.8-20.76-99.98"/>
  <line class="st8" x1="170.7" y1="58.78" x2="154.11" y2="58.91"/>
  <line class="st8" x1="211.08" y1="58.78" x2="194.49" y2="58.91"/>
  <path class="st6" d="M182.61,41.75"/>
  <path class="st8" d="M156.34,215.5"/>
  <path class="st8" d="M182.59,210.72c3.48-.02,11.2-.06,18.13,3.56,12.26,6.41,16.14,20.95,18.17,31.03,3.88,19.21-.69,39.77-.69,39.77-.44,1.72-1.3,4.21-3.1,6.79-2.85,4.08-6.46,6.09-8.32,6.96-4.71,2.05-13.27,5.06-24.34,4.97-11.31-.09-19.98-3.38-24.66-5.55-2.16-1.19-5.86-3.65-8.57-8.11-1.06-1.75-1.75-3.43-2.2-4.87,0,0,0,0,0,0-1.38-6.04-4.92-22.25-.69-39.77,2.4-9.97,5.91-24.52,18.17-31.03,6.95-3.69,14.69-3.73,18.09-3.75Z"/>
  <path class="st8" d="M129.07,203.63c-4.72-3.22-10-5.74-15.69-6.59-18.12-2.71-34.41,11.02-52.57,7.56,8.21,2.55,22.22,9.36,17.65,20.21,1.22-.93,5.1-3.63,10.48-3.37,2.72.13,4.85.97,6.18,1.64"/>
  <path class="st7" d="M123.56,205.4c-7.48-4.72-16.65-4.1-24.96-2.38-9.28,1.92-18.99,6.44-28.61,5.03"/>
  <path class="st7" d="M115.49,202.3s-24.76,7.62-36.03,22.51"/>
  <path class="st7" d="M109.16,212.99c.53-1.47,1.42-3.46,2.95-5.54,1.69-2.3,3.51-3.84,4.85-4.8"/>
  <path class="st8" d="M236.45,203.2c4.56-3.01,9.62-5.35,15.05-6.16,18.12-2.71,34.41,11.02,52.57,7.56-8.21,2.55-22.22,9.36-17.65,20.21-1.22-.93-5.1-3.63-10.48-3.37-2.72.13-4.85.97-6.18,1.64"/>
  <path class="st7" d="M241.32,205.4c7.48-4.72,16.65-4.1,24.96-2.38,9.28,1.92,18.99,6.44,28.61,5.03"/>
  <path class="st7" d="M249.39,202.3s23.81,7.33,35.36,21.66"/>
  <path class="st7" d="M255.72,212.99c-.53-1.47-1.42-3.46-2.95-5.54-1.69-2.3-3.51-3.84-4.85-4.8"/>
  <path class="st8" d="M151.56,229.32s30.84,14.63,62,0"/>
  <path class="st8" d="M145.4,252.41s36.28,19.93,74.19-.2"/>
  <path class="st8" d="M145.31,273.67s36.28,19.93,74.19-.2"/>
  <path class="st7" d="M93.85,236.09c.45-.64,1.19-1.54,2.3-2.35.99-.73,1.95-1.16,2.64-1.4"/>
  <path class="st7" d="M96.58,242.93c.45-.64,1.19-1.54,2.3-2.35.99-.73,1.95-1.16,2.64-1.4"/>
  <path class="st7" d="M101.26,249.15c.45-.64,1.19-1.54,2.3-2.35.99-.73,1.95-1.16,2.64-1.4"/>
  <path class="st7" d="M271.69,236.09c-.45-.64-1.19-1.54-2.3-2.35-.99-.73-1.95-1.16-2.64-1.4"/>
  <path class="st7" d="M268.95,242.93c-.45-.64-1.19-1.54-2.3-2.35-.99-.73-1.95-1.16-2.64-1.4"/>
  <path class="st7" d="M264.28,249.15c-.45-.64-1.19-1.54-2.3-2.35-.99-.73-1.95-1.16-2.64-1.4"/>
  <path class="st8" d="M127.18,253.51"/>
  <path class="st8" d="M126.98,249.48c-3.33,4.73-6.67,9.46-10,14.19-2.2,3.33-6.11,8.22-12.44,12.05-13.84,8.37-28.44,5.16-31.89,4.31,0,0-6.97,21.27,53.66,17.65"/>
  <path class="st8" d="M73.98,279.76c.44-1.55,1.22-3.79,2.67-6.25,1.42-2.4,2.24-3.62,3.25-3.83,2.09-.44,5.07,3.51,7.56,9.35"/>
  <path class="st8" d="M89.16,279.08c-.01-1.61.11-3.98.82-6.75.69-2.7,1.13-4.1,2.05-4.59,1.88-1.01,5.85,1.95,9.88,6.85"/>
  <path class="st8" d="M102.96,274.74c-.64-1.48-1.44-3.72-1.85-6.54-.41-2.76-.54-4.22.12-5.02,1.35-1.65,6.15-.46,11.76,2.51"/>
  <path class="st8" d="M113.49,265.36c-.86-1.37-1.99-3.45-2.84-6.18-.83-2.66-1.18-4.09-.65-4.98,1.08-1.84,6.01-1.4,12.01.67"/>
  <path class="st8" d="M119.55,247.26"/>
  <path class="st8" d="M122.77,253.24c-.83-1.15-1.9-2.84-2.84-5.04"/>
  <path class="st8" d="M100.36,220.12c-3.37,2.57-4.5,4.05-5.6,8.11-1.21,4.48-1.34,9.33.4,13.69.45,1.13,3.54,8.73,10.39,10.44,5,1.25,9.28-1.33,15.95-5.5,4.48-2.8,10.8-7.43,17.17-14.82"/>
  <path class="st8" d="M125.36,205.16c-9.04,3.66-17.48,8.74-25,14.96"/>
  <path class="st8" d="M150.69,198.86c-8.34.87-16.57,2.85-24.37,5.91"/>
  <path class="st8" d="M265.17,220.12c3.37,2.57,4.5,4.05,5.6,8.11,1.21,4.48,1.34,9.33-.4,13.69-.45,1.13-3.54,8.73-10.39,10.44-5,1.25-9.28-1.33-15.95-5.5-4.48-2.8-10.8-7.43-17.17-14.82"/>
  <path class="st8" d="M240.18,205.16c9.04,3.66,17.48,8.74,25,14.96"/>
  <path class="st8" d="M214.85,198.86c8.34.87,16.57,2.85,24.37,5.91"/>
</svg>