<?xml version="1.0" encoding="UTF-8"?>
<svg id="Layer_1" xmlns="http://www.w3.org/2000/svg" version="1.1" viewBox="0 0 1080 1080">
  <!-- Generator: Adobe Illustrator 29.8.2, SVG Export Plug-In . SVG Version: 2.1.1 Build 3)  -->
  <defs>
    <style>
      .st0 {
        opacity: .49;
      }

      .st0, .st1, .st2 {
        fill: #2c193f;
      }

      .st3 {
        fill: #ffefe5;
      }

      .st4, .st5, .st6 {
        stroke-linecap: round;
        stroke-linejoin: round;
      }

      .st4, .st5, .st6, .st7, .st8, .st9, .st10 {
        fill: none;
      }

      .st4, .st6, .st8, .st9 {
        stroke-width: .98px;
      }

      .st4, .st8 {
        stroke: #ffefe5;
      }

      .st11 {
        fill: #fff;
      }

      .st5, .st6, .st7, .st9, .st10 {
        stroke: #2c193f;
      }

      .st5, .st10 {
        stroke-width: .84px;
      }

      .st12 {
        fill: #ffa0a0;
      }

      .st7 {
        stroke-width: .44px;
      }

      .st7, .st8, .st9, .st10 {
        stroke-miterlimit: 10;
      }

      .st13 {
        opacity: .21;
      }

      .st13, .st14 {
        fill: #ffc0ff;
      }

      .st15 {
        fill: #c17eff;
      }

      .st16 {
        fill: #ff8362;
      }

      .st17 {
        fill: #ffc348;
      }

      .st18 {
        fill: #677df1;
      }

      .st2 {
        opacity: .37;
      }
    </style>
  </defs>
  <rect class="st3" x=".72" width="1078.55" height="1078.55"/>
  <g>
    <path class="st11" d="M78.79,509.46c-6.85,0-12.4-5.55-12.4-12.4v-203.88c0-1.23,0-2.44.04-3.67,0-1.13.03-2.23.07-3.36,1.77-56.69,25.23-109.8,66.07-149.45,40.92-39.74,94.88-61.62,151.94-61.62h16.13c31.56,0,62,6.6,90.49,19.61.16.07.32.14.48.21l2.5,1.18c19.78,9.4,37.94,21.66,54.07,36.5.85.76,1.72,1.56,2.55,2.36,43.82,41.51,68.02,97.75,68.02,158.25v203.88c0,6.85-5.55,12.4-12.4,12.4H78.79Z"/>
    <g>
      <path class="st15" d="M506.77,291.59v166.15l-41.61,24.28-337.81,2.11-48.12-21.64v-170.9c0-1.16,0-2.29.04-3.45,0-1.03.02-2.05.06-3.08,3.45-110.58,94.19-199.17,205.62-199.17h16.13c30.6,0,59.62,6.68,85.73,18.67h.02c.85.39,1.65.79,2.5,1.18,18.71,8.89,35.87,20.55,50.96,34.44.74.66,1.51,1.36,2.23,2.07,39.57,37.48,64.25,90.53,64.25,149.34Z"/>
      <g>
        <g>
          <path class="st3" d="M267.02,297.01c-3.64-20.63-23.22-37.81-46.52-40.83-19.83-2.58-41.62,4.07-61.32,18.75l-.17.12c-1.2.89-2.32,1.72-3.6,2.15-4.01,1.34-8.02-1.61-11.91-4.49-.74-.54-1.47-1.07-2.19-1.59-11.76-8.19-29.07-8.21-44.12-.04-6.76,3.66-12.61,8.54-17.88,13.98-.04,1.03-.06,2.05-.06,3.08,5.54-5.97,11.72-11.33,18.94-15.24,7.21-3.91,14.95-5.87,22.27-5.87s14.14,1.94,19.68,5.79c.7.5,1.43,1.03,2.15,1.57,4.09,3.02,8.74,6.45,13.79,4.78,1.59-.54,2.89-1.51,4.18-2.46l.17-.12c19.27-14.35,40.52-20.86,59.81-18.36,22.18,2.87,40.83,19,44.63,38.47-.1.08-.21.17-.29.25-.06.06-.17.17-.21.19l-185.15,4.94v2.07l185.19-4.94c.83,0,1.32-.48,1.61-.76.14-.14.25-.23.33-.27l.83-.29-.17-.87Z"/>
          <path class="st3" d="M442.52,142.25h-186.43c-.14.02-.29.04-.45.04-1.2,0-2.96-.62-3.45-.85-.45-.23-1.01-.54-1.16-1.16l-.14-.58.43-.41c12.94-12.42,32.85-26.48,54.12-22.78,3.66.64,7.19,1.78,10.63,2.89,3.2,1.03,6.51,2.11,9.84,2.73,10.71,2.01,22.76-.14,37.91-6.82,3.7-1.63,7.4-3.43,11-5.17,3.93-1.88,7.92-3.8,11.99-5.58h.02c.85.39,1.65.79,2.5,1.18-4.63,1.94-9.16,4.11-13.6,6.26-3.62,1.76-7.36,3.56-11.08,5.19-15.55,6.86-27.97,9.08-39.13,6.97-3.45-.64-6.82-1.74-10.07-2.79-3.37-1.07-6.86-2.21-10.36-2.81-19.89-3.45-38.72,9.43-51.33,21.27.7.23,1.61.43,1.94.39l.21-.1.06.06h184.32c.74.66,1.51,1.36,2.23,2.07Z"/>
        </g>
        <g>
          <g>
            <rect class="st14" x="122.44" y="187.33" width="112.13" height="2.07"/>
            <rect class="st14" x="122.44" y="221.07" width="112.13" height="2.07"/>
            <rect class="st14" x="167.55" y="164.55" width="2.07" height="23.82"/>
            <rect class="st14" x="210.22" y="188.37" width="2.07" height="33.24"/>
          </g>
          <g>
            <rect class="st14" x="378.66" y="268.97" width="112.13" height="2.07"/>
            <rect class="st14" x="378.66" y="302.71" width="112.13" height="2.07"/>
            <rect class="st14" x="423.77" y="246.19" width="2.07" height="23.82"/>
            <rect class="st14" x="466.44" y="270.01" width="2.07" height="33.24"/>
          </g>
          <g>
            <rect class="st14" x="141.49" y="365.93" width="112.13" height="2.07"/>
            <rect class="st14" x="141.49" y="399.67" width="112.13" height="2.07"/>
            <rect class="st14" x="186.6" y="343.15" width="2.07" height="23.82"/>
            <rect class="st14" x="229.27" y="366.96" width="2.07" height="33.24"/>
          </g>
        </g>
        <g>
          <polygon class="st12" points="291.51 390.35 264.06 437.51 305.23 454.75 337.25 392.46 291.51 390.35"/>
          <path class="st1" d="M506.77,457.52v37.96H79.23v-33.74c35.17-20.01,119.49-34.09,217.92-34.09,91.38,0,170.6,12.14,209.63,29.87Z"/>
          <path class="st3" d="M173.8,444.02l49.09,39.06h198.46l-55.95-40.64s-192.13,1.58-191.6,1.58Z"/>
          <path class="st11" d="M287.15,445.41c-1.46.61-2.73,1.81-3.09,3.35-.54,2.3,1.02,4.51,2.49,6.36-5.81-3.76-13.64-4.17-19.81-1.03-1.04.53-2.1,1.21-2.58,2.28-.35.76-.36,1.63-.24,2.46.58,3.92,4.42,7.07,8.37,6.87-2.49.22-4.88,1.49-6.45,3.43-1.73,2.14-2.35,5.45-.65,7.62,1.27,1.63,3.48,2.21,5.55,2.33,7.21.41,14.45-4.07,17.32-10.7-1.54,2.86-1.74,6.51-.15,9.34,1.59,2.83,5.08,4.59,8.24,3.81,2.5-.61,4.49-2.67,5.4-5.07.91-2.4.83-5.1.17-7.58,2.27,4.07,7.57,5.3,12.24,5.24,2.42-.03,4.93-.32,6.99-1.6,2.06-1.27,3.53-3.75,2.99-6.11-.52-2.23-2.6-3.73-4.69-4.67-2.78-1.25-5.84-1.86-8.89-1.78,2.04-.61,3.97-1.76,5.19-3.5,1.22-1.74,1.62-4.12.72-6.05-1.27-2.71-4.61-3.81-7.6-3.78-2.33.02-4.64.58-6.75,1.57-1.78.83-3.43,2.86-5.19,3.37-1.09-4.35-4.57-8.24-9.57-6.15Z"/>
          <polygon class="st16" points="332.68 333.35 277.43 389.65 316.84 416.39 370.68 357.27 332.68 333.35"/>
          <path class="st16" d="M402.7,288.31s40.47-2.46,64.75,37.65c24.28,40.12,22.52,90.79,22.52,90.79h-57.71v20.41h-126.68s13.37-64.75,17.95-85.51c4.57-20.76,19.71-30.61,19.71-30.61l59.47-32.73Z"/>
          <g>
            <polygon class="st14" points="329.48 355.86 290.79 426.15 311.82 439.29 351.69 365.01 329.48 355.86"/>
            <polygon class="st3" points="311.82 439.29 301.18 443.23 293.1 446.24 292.32 439.42 290.79 426.15 311.82 439.29"/>
            <polygon class="st14" points="292.39 439.88 298.98 444.1 292.91 446.65 292.39 439.88"/>
          </g>
          <path class="st12" d="M371.03,262.62l31.67,25.69s-40.82,48.21-43.63,46.1c-2.81-2.11,2.46-9.85,2.46-9.85l-6.33-8.45,15.83-53.49Z"/>
          <g>
            <path class="st1" d="M317.96,183.07c.3-13.33,5.48-26.68,15.03-35.98,9.55-9.3,23.52-14.18,36.64-11.81,5.83,1.05,11.61,3.63,15.29,8.27,2.44,3.07,3.93,6.97,7.04,9.36,3.74,2.87,8.95,2.86,13.58,1.99,4.63-.87,9.2-2.48,13.91-2.34,7.12.21,13.51,4.34,19.05,8.82,5.43,4.39,10.7,9.64,12.39,16.41l-58.75,46.12-74.18-40.84Z"/>
            <path class="st12" d="M372.79,258.75c0-31.48-25.52-57.01-57.01-57.01s-57.01,25.52-57.01,57.01c0,15.14,5.91,28.88,15.54,39.09l-.4.32s48.91,43.28,64.75,39.41c15.64-3.82,38.46-34.74,29.88-57.2,2.74-6.67,4.26-13.96,4.26-21.62Z"/>
            <g>
              <path class="st6" d="M310.95,326.92c2.27-4.77,3.29-10.12,2.95-15.39"/>
              <path class="st1" d="M300.67,290.56c2.46,1.82,3.36,4.77,2.02,6.59s-4.43,1.81-6.89,0c-2.46-1.82-3.37-4.77-2.02-6.59,1.34-1.82,4.43-1.81,6.89,0Z"/>
              <path class="st6" d="M281.6,283.37c2.24-3.59,6.22-6.04,10.43-6.44"/>
            </g>
            <path class="st1" d="M257.73,243.97s33.08,18.65,53.13,5.28c0,0,18.3,21.47,42.23,22.87,0,0-4.22-23.93,10.91-22.87,15.13,1.06,15.99,22.33,15.99,22.33l15.33,10.75s8.45-27.1,3.17-44.69c-5.28-17.59-12.67-51.02-47.86-57.71-35.19-6.69-74.95,16.19-92.9,64.04Z"/>
            <g>
              <polygon class="st16" points="320.36 182.39 286.93 168.31 315.79 141.57 320.36 182.39"/>
              <polygon class="st16" points="319.23 181.79 349.77 162.21 355.47 201.14 319.23 181.79"/>
            </g>
            <g>
              <path class="st12" d="M365.46,244.38c7.97-.74,16.47,4.54,18.11,12.37.73,3.48.13,7.12-1,10.49-.67,2.01-1.55,3.97-2.85,5.64-8.65,11.17-21.86,2.94-28.56-5.38-7.98-9.91,3.73-22.16,14.3-23.13Z"/>
              <path class="st6" d="M368.81,269.6c-5.25-4.25-7.16-12.16-4.42-18.34"/>
              <path class="st6" d="M363.96,263.15c2.22-3.26,6.6-4.89,10.41-3.88"/>
            </g>
          </g>
          <g>
            <path class="st12" d="M417.13,403.37s.7-31.67,28.85-40.12c28.15-8.45,40.12,12.67,40.47,14.43.35,1.76,10.56,54.89-5.28,67.21-13.27,10.32-36.6,9.85-69.67,8.8-33.08-1.06-89.38,2.82-91.84-15.83,0,0-13.02-1.41-10.91-13.37,0,0-7.39-2.46-5.28-9.5,0,0-15.48-1.76-14.78-8.09.7-6.33,55.6-9.85,55.6-9.85l72.84,6.33Z"/>
            <line class="st6" x1="339.36" y1="396.69" x2="442.47" y2="403.37"/>
            <path class="st6" d="M288.69,406.89s-1.94,2.82,3.52,5.28c5.45,2.46,32.55,4.93,32.55,4.93"/>
            <path class="st6" d="M303.47,415.86s-1.23,6.51,5.28,8.62c6.51,2.11,17.95,2.29,17.95,2.29"/>
            <path class="st6" d="M308.22,426.07s-.53,5.81,3.34,8.45c3.87,2.64,11.79,4.05,17.07,3.17"/>
          </g>
          <path class="st17" d="M287.13,454.81c-1.91,1.49-3.24,3.87-3.01,6.28.27,2.82,2.64,5.13,5.36,5.94,2.71.81,5.67.33,8.31-.67,1.99-.75,3.93-1.85,5.18-3.58,1.25-1.72,1.67-4.17.59-6.01-.52-.88-1.32-1.55-2.18-2.1-4.3-2.77-10.11-3.09-14.25.13Z"/>
        </g>
      </g>
    </g>
  </g>
  <g>
    <path class="st11" d="M571.87,509.46c-6.85,0-12.4-5.55-12.4-12.4v-203.88c0-1.23,0-2.44.04-3.67,0-1.13.03-2.23.07-3.36,1.77-56.69,25.24-109.8,66.07-149.45,40.92-39.74,94.88-61.62,151.94-61.62h16.13c31.56,0,62,6.6,90.49,19.61.16.07.32.14.48.21l2.5,1.18c19.78,9.4,37.94,21.66,54.07,36.5.85.76,1.72,1.56,2.55,2.36,43.82,41.51,68.02,97.75,68.02,158.25v203.88c0,6.85-5.55,12.4-12.4,12.4h-427.55Z"/>
    <g>
      <path class="st18" d="M1000.66,291.16v106.23l-12.15,77.06-376.52,9.5-38.88-85.16v-107.64c0-1.16,0-2.29.04-3.45,0-1.03.02-2.05.06-3.08,2.38-76.43,46.45-142.34,110.23-175.77.68-.37,1.39-.72,2.07-1.05,28.01-14.31,59.73-22.35,93.32-22.35h16.13c30.6,0,59.62,6.68,85.73,18.67h.02c.85.39,1.65.79,2.5,1.18,2.4,1.14,4.8,2.34,7.15,3.58.68.35,1.39.72,2.07,1.12,15.15,8.15,29.17,18.17,41.74,29.75.74.66,1.51,1.36,2.23,2.07,39.57,37.48,64.25,90.53,64.25,149.34Z"/>
      <g>
        <rect class="st1" x="572.98" y="397.35" width="427.55" height="96.24"/>
        <g>
          <g>
            <path class="st3" d="M985.69,228.48l-19,188.62h-301.21l14.08-197.06c72.48-24.64,132.31,11.25,132.31,11.25,82.34-52.78,173.82-2.81,173.82-2.81Z"/>
            <path class="st13" d="M985.69,228.48l-19,188.62h-176.3c2.81-22.12,21.48-185.81,21.48-185.81,82.34-52.78,173.82-2.81,173.82-2.81Z"/>
            <g>
              <line class="st6" x1="961.41" y1="218.28" x2="938.54" y2="417.1"/>
              <line class="st6" x1="967.39" y1="220.74" x2="945.58" y2="416.04"/>
              <line class="st6" x1="973.38" y1="222.85" x2="952.97" y2="416.74"/>
              <line class="st6" x1="978.65" y1="224.97" x2="960.36" y2="416.74"/>
              <line class="st6" x1="983.93" y1="227.08" x2="965.28" y2="416.39"/>
            </g>
            <path class="st6" d="M811.87,231.29s-21.14,128.99-21.48,185.81"/>
          </g>
          <g>
            <polyline class="st6" points="698.64 304.62 715.88 260.28 724.67 303.56"/>
            <line class="st6" x1="707.61" y1="281.4" x2="719.75" y2="281.75"/>
            <line class="st6" x1="753.53" y1="263.45" x2="752.47" y2="315.53"/>
            <path class="st6" d="M754.16,266.58c4.16-1.8,9.71-1.22,12.32,2.49,2.9,4.13,1.01,9.89-1.68,14.17-1.83,2.92-3.99,5.63-6.43,8.06,2.58-1.15,5.43-1.87,8.23-1.51,2.8.36,5.54,1.93,6.83,4.44,1.09,2.15,1.03,4.73.47,7.08-2.16,9.06-12.1,15.51-21.26,13.79"/>
            <path class="st6" d="M742.26,345.33c.04-5.05-5.49-8.8-10.52-8.37-5.03.43-9.3,3.9-12.48,7.82-3.93,4.85-6.73,10.73-7.34,16.94-.61,6.21,1.11,12.75,5.22,17.45,4.11,4.7,10.69,7.31,16.81,6.09,2.54-.51,4.95-1.64,6.94-3.3"/>
          </g>
          <g>
            <path class="st6" d="M838.69,270.09c6.26-5.16,12.51-10.32,18.77-15.48-1.09,16.04-1.68,32.12-1.77,48.2"/>
            <path class="st6" d="M892.5,288.29c1.56-7.23,7.9-13.18,15.21-14.27,2.42-.36,5.22-.09,6.8,1.78,1.34,1.58,1.43,3.85,1.32,5.92-.55,10.17-4.53,20.12-11.11,27.9-1.77,2.08-3.85,4.1-6.49,4.79-2.64.69-5.93-.4-6.84-2.98-.73-2.05.27-4.43,1.97-5.79,1.7-1.36,3.94-1.86,6.11-1.94,7.89-.3,15.1,4.24,21.24,9.2"/>
            <path class="st6" d="M838.84,337c3.11-2.73,6.94-4.62,10.99-5.43,4.33-.86,9.69.02,11.66,3.98,1.12,2.26.81,5.02-.22,7.33s-2.71,4.25-4.36,6.16c4.59-1.65,10.23.58,12.44,4.92,2.79,5.47-.02,12.4-4.61,16.48-5.77,5.13-14.26,6.98-21.65,4.73-.4-.12-.8-.72-.4-.82"/>
          </g>
        </g>
        <g>
          <g>
            <rect class="st18" x="734.75" y="396.99" width="89.08" height="77.94"/>
            <circle class="st17" cx="791.8" cy="436.1" r="16.19"/>
            <rect class="st2" x="734.75" y="396.99" width="24.27" height="77.94"/>
            <rect class="st7" x="761.92" y="400.79" width="59.23" height="70.59"/>
          </g>
          <g>
            <rect class="st16" x="833.98" y="397.7" width="89.08" height="77.94"/>
            <path class="st17" d="M873.79,449.82l17.95-29.21,16.54,28.85s-34.13.35-34.49.35Z"/>
            <rect class="st2" x="833.98" y="397.7" width="24.27" height="77.94"/>
            <rect class="st7" x="861.15" y="401.49" width="59.23" height="70.59"/>
          </g>
          <g>
            <rect class="st14" x="782.95" y="322.04" width="89.08" height="77.94"/>
            <path class="st11" d="M822.77,374.17l17.95-29.21,16.54,28.85s-34.13.35-34.49.35Z"/>
            <rect class="st2" x="782.95" y="322.04" width="24.27" height="77.94"/>
            <rect class="st7" x="810.13" y="325.83" width="59.23" height="70.59"/>
          </g>
        </g>
        <g>
          <g>
            <g>
              <polygon class="st14" points="622.68 388.49 599.05 392.77 597.25 369.59 596.11 354.77 592.56 308.71 617.34 308.42 620.34 353.37 621.42 369.59 622.68 388.49"/>
              <polygon class="st11" points="592.55 308.71 599.38 299.65 604.56 292.75 608.9 298.08 617.34 308.42 592.55 308.71"/>
              <polygon class="st14" points="608.59 297.72 600.75 297.73 604.49 292.3 608.59 297.72"/>
            </g>
            <g>
              <polygon class="st17" points="655.14 316.69 653.28 351.46 652.3 369.59 650.86 396.82 626.87 398.23 628.09 369.59 628.82 352.87 630.49 314 655.14 316.69"/>
              <polygon class="st11" points="630.49 314.01 638.36 305.83 644.33 299.61 647.99 305.41 655.14 316.69 630.49 314.01"/>
              <polygon class="st17" points="647.73 305.02 639.95 304.09 644.31 299.15 647.73 305.02"/>
            </g>
            <g>
              <polygon class="st16" points="683.91 303.77 681.43 349.81 680.38 369.59 679.61 383.88 655.63 385.31 656.31 369.59 657.1 351.24 659.25 301.08 683.91 303.77"/>
              <polygon class="st1" points="620.34 353.37 621.42 369.59 597.25 369.59 596.11 354.77 620.34 353.37"/>
              <polygon class="st1" points="628.82 352.87 653.28 351.46 652.3 369.59 628.09 369.59 628.82 352.87"/>
              <polygon class="st1" points="681.43 349.81 680.38 369.59 656.31 369.59 657.1 351.24 681.43 349.81"/>
              <polygon class="st11" points="659.26 301.08 667.12 292.9 673.09 286.68 676.76 292.48 683.91 303.76 659.26 301.08"/>
              <polygon class="st16" points="676.5 292.09 668.72 291.16 673.08 286.22 676.5 292.09"/>
            </g>
          </g>
          <g>
            <polygon class="st15" points="691.52 359.38 685.26 395.39 678.54 433.95 672.52 468.48 610.58 468.48 602.29 431.8 592.74 389.52 585.94 359.38 691.52 359.38"/>
            <path class="st17" d="M626.77,409.18c0,12.53-10.17,22.7-22.7,22.7-.6,0-1.2-.02-1.78-.08l-9.55-42.28c3.33-1.94,7.22-3.04,11.33-3.04,12.53,0,22.7,10.15,22.7,22.7Z"/>
            <path class="st17" d="M657.74,461.96c0,2.27-.33,4.44-.95,6.51h-43.5c-.62-2.07-.95-4.24-.95-6.51,0-12.53,10.15-22.7,22.7-22.7s22.7,10.17,22.7,22.7Z"/>
            <path class="st17" d="M685.26,395.39l-6.72,38.56c-2.48.93-5.15,1.45-7.96,1.45-12.53,0-22.7-10.17-22.7-22.7s10.17-22.7,22.7-22.7c5.6,0,10.71,2.03,14.68,5.4Z"/>
            <path class="st17" d="M668.28,365.19c0,12.53-10.15,22.7-22.7,22.7s-22.68-10.17-22.68-22.7c0-2.01.27-3.97.76-5.81h43.85c.5,1.84.76,3.8.76,5.81Z"/>
          </g>
        </g>
        <g>
          <path class="st1" d="M685.51,107.81v37.81c0,.56-.45,1.03-1.03,1.03s-1.03-.48-1.03-1.03v-36.76c.68-.37,1.39-.72,2.07-1.05Z"/>
          <path class="st1" d="M782.1,85.46v84.43c0,.58-.45,1.03-1.03,1.03s-1.03-.45-1.03-1.03v-84.43h2.07Z"/>
          <path class="st1" d="M892.43,110v59.89c0,.58-.48,1.03-1.03,1.03s-1.03-.45-1.03-1.03v-61.01c.68.35,1.39.72,2.07,1.12Z"/>
          <path class="st17" d="M714.56,201.62c-5.34,2.99-11.48,4.7-18.04,4.7-20.45,0-37.02-16.58-37.02-37.04s16.57-37.02,37.02-37.02c6.55,0,12.7,1.69,18.04,4.69-11.34,6.31-19,18.43-19,32.33s7.66,26.03,19,32.33Z"/>
          <path class="st3" d="M925.89,176.24h-175.31c4.42-6.22,10.98-10.92,18.34-12.96,9.51-2.65,20.16-.81,28.22,4.88,9.28-13.58,23.71-24.46,40.09-26.01,16.37-1.53,34.11,8.17,38.68,23.96,9.08-6.33,21.23-8.02,31.69-4.42,7.53,2.6,14.04,7.88,18.3,14.55Z"/>
        </g>
      </g>
    </g>
  </g>
  <g>
    <path class="st11" d="M78.79,991.33c-6.85,0-12.4-5.55-12.4-12.4v-203.88c0-1.23,0-2.44.04-3.67,0-1.13.03-2.23.07-3.36.25-8.4,1.04-17.13,2.34-25.82.12-.78.23-1.55.37-2.32,10.9-67.23,53.54-126.31,114.07-158.07.79-.43,1.6-.83,2.38-1.22,30.77-15.69,64.03-23.65,98.85-23.65h16.12c15.53,0,30.98,1.63,45.96,4.86,10.56-2.83,22.02-4.26,34.15-4.26,3.02,0,6.13.09,9.24.26,12.83.72,24.09,12.77,36.27,38.95,7.68,5.42,15.04,11.36,21.91,17.69.86.76,1.73,1.57,2.56,2.37,10.48,9.92,20.1,21.04,28.45,32.95,21.36,30.38,34.64,65.92,38.4,102.78.35,3.21.62,6.54.79,9.82.24,4.28.37,8.57.37,12.69v203.61c0,6.61-5.18,12.05-11.78,12.39l-5.33.27c-.21.01-.42.02-.63.02H78.79Z"/>
    <g>
      <path class="st18" d="M507.39,776.35l-67.03,102.02-340.98,101.86h-19.54v-203.88c0-1.16,0-2.29.04-3.45,0-1.03.02-2.05.06-3.08.25-8.29,1.01-16.46,2.21-24.48.1-.7.21-1.39.33-2.07,10.5-64.98,51.44-119.74,107.69-149.22.68-.37,1.39-.72,2.07-1.05,28.01-14.31,59.73-22.35,93.32-22.35h16.13c15.92,0,31.4,1.8,46.27,5.23h.02c13.73,3.14,26.9,7.69,39.44,13.44h.02c.85.39,1.65.79,2.5,1.18,2.4,1.14,4.8,2.34,7.15,3.58.68.35,1.39.72,2.07,1.12,6.31,3.39,12.4,7.11,18.3,11.12,8.27,5.64,16.1,11.87,23.44,18.63.74.66,1.51,1.36,2.23,2.07,9.99,9.45,19.02,19.89,26.94,31.18,19.68,27.99,32.56,61.09,36.22,96.92.33,3.06.58,6.12.74,9.22.23,3.99.35,8,.35,12.03Z"/>
      <g>
        <g>
          <rect class="st14" x="154.82" y="619.41" width="112.13" height="2.07"/>
          <rect class="st14" x="154.82" y="653.15" width="112.13" height="2.07"/>
          <rect class="st14" x="199.92" y="596.63" width="2.07" height="23.82"/>
          <rect class="st14" x="242.59" y="620.44" width="2.07" height="33.24"/>
        </g>
        <g>
          <rect class="st14" x="293.46" y="743.27" width="112.13" height="2.07"/>
          <rect class="st14" x="293.46" y="777.01" width="112.13" height="2.07"/>
          <rect class="st14" x="338.57" y="720.49" width="2.07" height="23.82"/>
          <rect class="st14" x="381.24" y="744.31" width="2.07" height="33.24"/>
        </g>
        <g>
          <path class="st14" d="M167.72,743.28v2.07h-85.57c.1-.7.21-1.39.33-2.07h85.24Z"/>
          <rect class="st14" x="79.84" y="777.02" width="87.88" height="2.07"/>
          <rect class="st14" x="100.69" y="720.49" width="2.07" height="23.82"/>
          <rect class="st14" x="143.36" y="744.31" width="2.07" height="33.24"/>
        </g>
      </g>
      <g>
        <g>
          <g>
            <path class="st14" d="M292.3,915.05H117.05s-1.32-23.48,12.67-63.32c6.62-18.81,20.78-30.27,33.9-37.09,6.02-3.14,11.83-5.29,16.56-6.74,6.82-2.11,11.45-2.77,11.45-2.77l28.07-.12s8.29-.19,19.04,3.1c5.21,1.59,11.02,3.99,16.72,7.65,2.01,1.28,3.99,2.71,5.93,4.3,19,15.57,30.89,94.99,30.89,94.99Z"/>
            <path class="st15" d="M166.59,890.7c11.16-26.52.37-65.45-2.96-76.06,6.02-3.14,11.83-5.29,16.56-6.74,4.49,9.74,18.05,35.12,38.47,37.4,20.24,2.25,20.71-25.78,20.09-37.19,5.21,1.59,11.02,3.99,16.72,7.65,2.07,20.55,7.09,70.79,9.72,99.29h-98.61v-24.35Z"/>
          </g>
          <g>
            <path class="st16" d="M190.53,791.37l1.12,13.77s18.02,18.59,23.5,17.11c8.45-2.29,5.53-18.23,5.53-18.23l-1.12-9.31-29.04-3.35Z"/>
            <g>
              <path class="st16" d="M248.34,782.52c-.67,3.21-1.57,5.71-2.78,7.09-6.87,7.82-61.8,14.58-69.43-.71-1.91-3.83-3.52-9.06-4.89-14.75-9.87-8.1-16.09-19.95-16.09-33.16,0-24.4,21.22-44.18,47.39-44.18s47.4,19.78,47.4,44.18c0,1.29-.08,2.56-.19,3.82.12,3.1.25,6.92.28,11.04.08,9.09-.23,19.58-1.71,26.68Z"/>
              <path class="st16" d="M167.82,760.09s-17.87-10.8-21.96,2.23c-4.1,13.03,7.45,23.45,17.5,24.94,10.05,1.49,17.5-4.1,17.5-4.1l-13.03-23.08Z"/>
              <g>
                <path class="st1" d="M169.49,779.82c-.21,0-.42-.13-.51-.33-1.02-2.37-2.48-5.42-4.72-7.93-2.22-2.49-4.99-4.13-7.79-4.62-3.18-.56-6.43.45-8.3,2.56-.2.23-.55.25-.78.05-.23-.2-.25-.55-.05-.78,2.12-2.39,5.78-3.54,9.32-2.91,3.04.53,6.03,2.3,8.42,4.97,2.35,2.63,3.86,5.78,4.91,8.23.12.28,0,.6-.29.72-.07.03-.15.04-.22.04Z"/>
                <path class="st1" d="M157.34,778.8c-.24,0-.45-.15-.53-.39-.62-2.01-.11-4.34,1.3-5.93,1.41-1.58,3.69-2.42,5.83-2.13.3.04.51.32.47.62-.04.3-.33.49-.62.47-1.79-.25-3.69.45-4.86,1.76-1.16,1.31-1.58,3.22-1.07,4.87.09.29-.07.6-.36.69-.05.02-.11.02-.16.02Z"/>
              </g>
              <g>
                <g>
                  <circle class="st12" cx="195.46" cy="774.43" r="13.4"/>
                  <path class="st12" d="M248.34,782.52h-.11c-7.4,0-13.4-6-13.4-13.4s6-13.4,13.4-13.4c.62,0,1.23.05,1.81.12.08,9.09-.23,19.58-1.71,26.68Z"/>
                </g>
                <g>
                  <g>
                    <path class="st1" d="M205.79,755.38c.31,3.22-1.49,6.03-4.02,6.28-2.53.24-4.84-2.17-5.15-5.4-.31-3.22,1.49-6.03,4.02-6.28s4.84,2.17,5.15,5.4Z"/>
                    <path class="st1" d="M241.65,751.93c.31,3.22-1.49,6.03-4.02,6.28s-4.84-2.17-5.15-5.4c-.31-3.22,1.49-6.03,4.02-6.28,2.53-.24,4.84,2.17,5.15,5.4Z"/>
                  </g>
                  <path class="st1" d="M220.99,773.12c-4.85,0-7.39-5.33-7.5-5.57-.14-.29-.01-.64.28-.77.29-.14.64-.01.77.28.02.05,2.5,5.2,6.87,4.88,4.42-.34,5.81-2.76,5.86-2.86.15-.28.5-.39.79-.23.28.15.39.5.24.78-.07.13-1.7,3.08-6.8,3.47-.17.01-.35.02-.51.02Z"/>
                  <g>
                    <path class="st1" d="M192.89,743.78s-.08,0-.12-.01c-.31-.06-.52-.37-.45-.68,0-.05,1.01-4.65,7.55-4.65.32,0,.58.26.58.58s-.26.58-.58.58c-5.56,0-6.38,3.57-6.41,3.72-.06.27-.3.46-.57.46Z"/>
                    <path class="st1" d="M240.82,736.43c-.18,0-.36-.08-.47-.24-2.13-2.95-6.23-1.53-6.41-1.47-.3.12-.63-.05-.74-.35-.11-.3.05-.63.35-.74.05-.02,5.1-1.78,7.74,1.88.19.26.13.62-.13.81-.1.07-.22.11-.34.11Z"/>
                  </g>
                </g>
              </g>
            </g>
          </g>
        </g>
        <g>
          <g>
            <path class="st3" d="M350.1,829.28l-140.93,86.04-122.99-71.26,1.05-2.11.97-9.43.14-1.41.81-7.75.14-1.45.56-5.29s114.01,25.32,119.82,70.72c0,0,43.81-87.61,125.63-98.18l1.72,4.63.5,1.36,2.81,7.63.5,1.32,9.26,25.16Z"/>
            <g>
              <path class="st1" d="M340.84,804.12c-37.81,13.62-86.95,37.48-125.84,77.59-.14.14-.33.23-.52.23-.17,0-.33-.06-.45-.17-.29-.25-.35-.66-.12-.97,15.55-21.79,36.72-39.05,53.44-51.66,11.14-8.41,24.56-17.97,39.38-24.99,9.74-4.61,19.87-8.06,30.31-10.34l.5,1.36c-10.4,2.25-20.51,5.69-30.18,10.27-14.72,6.97-28.05,16.46-39.16,24.83-14.45,10.92-32.27,25.32-46.83,43.12,37.77-35.91,83.38-57.8,118.98-70.6l.5,1.32Z"/>
              <path class="st1" d="M208.45,889.15c.04.33-.14.66-.45.79-.08.04-.17.04-.27.04-.23,0-.43-.1-.58-.29-4.32-6.16-12.22-10.98-19.21-15.24-2.01-1.22-3.97-2.42-5.79-3.6-28.41-18.56-60.61-31.67-93.94-38.33l.14-1.41c33.55,6.66,65.99,19.85,94.58,38.54,1.8,1.18,3.74,2.36,5.75,3.58,6.02,3.66,12.71,7.73,17.35,12.8-1.55-3.54-4.49-6.55-7.53-9.32-14.26-12.98-31.92-23.98-53.98-33.62-17.97-7.86-36.88-13.95-55.36-19.72l.14-1.45c18.61,5.79,37.69,11.93,55.8,19.87,22.2,9.7,39.98,20.78,54.35,33.86,4.16,3.78,8.12,8.02,8.99,13.5Z"/>
            </g>
            <polygon class="st17" points="352.94 808.79 349.79 867.48 348.37 894.27 348.29 895.97 343.78 980.23 242.95 959.66 122.25 980.23 99.63 980.23 83.09 835.77 87.72 837.42 129.48 852.45 171.4 867.52 184.14 872.11 184.16 872.11 190.75 874.49 199.5 877.63 199.52 877.63 202.66 878.77 208.02 880.69 209.07 881.06 209.73 881.31 210.37 881 214.45 878.94 215.79 878.25 221.27 875.46 221.29 875.44 259.51 856.11 276.49 847.51 344.19 813.21 352.94 808.79"/>
          </g>
          <g>
            <path class="st1" d="M212.77,915.05l4.47,65.18h-1.45l-4.47-65.18-.06-1.01-1.98-29.05v-.02l-.25-3.6c-.02-.1,0-.21.04-.31.1-.25.33-.43.62-.45.27,0,.54.14.68.39.04.08.08.17.08.27l.29,4.09v.02l1.9,27.81v.02l.12,1.84Z"/>
            <g>
              <path class="st12" d="M267.82,980.23H120.77c-1.67-1.43-2.63-2.77-3.12-3.95-1.24-2.98.5-5.02,1.18-5.66.14-.14.25-.23.25-.23,0,0-.33-.1-.85-.33-2.46-.97-9.34-4.05-7.59-7.24.08-.17.27-.29.54-.41,6.28-3.14,61.03.41,61.03.41,0,0-32.02-17.59-30.24-21.46,1.76-3.87,30.24,1.76,54.89,1.41,24.62-.35,49.97-6.35,49.97-6.35v-1.41l21,45.21Z"/>
              <path class="st1" d="M169.05,978.5s-.06,0-.09,0c-.1-.01-9.82-1.25-23.2-2.46-13.62-1.24-28.15-5.13-32.68-7.84-1.98-1.19-3.12-2.47-3.38-3.81-.23-1.16.3-1.91.37-1.99.24-.32.69-.38,1-.14.31.23.38.67.15.99-.02.03-.23.37-.11.91.14.62.72,1.62,2.71,2.81,4.38,2.63,19.03,6.46,32.07,7.64,13.41,1.22,23.15,2.45,23.25,2.47.39.05.67.41.62.8-.05.36-.35.63-.71.63Z"/>
              <path class="st1" d="M131.81,980.23h-5.13c-4.2-1.32-7.46-2.71-9.03-3.95-.31-.25-.56-.48-.72-.7-.7-.93-.93-1.88-.72-2.83.25-1.1,1.07-1.94,1.7-2.46.12-.08.25-.17.33-.23.29-.19.5-.29.52-.31.35-.19.79-.04.97.31.14.27.08.6-.1.81-.06.06-.12.12-.21.17-.41.23-1.59,1.03-1.8,2.03-.12.54.02,1.08.46,1.65,1.12,1.47,6.51,3.62,13.75,5.52Z"/>
            </g>
          </g>
        </g>
        <g>
          <g>
            <path class="st12" d="M417.95,722.25l-33.88-23.86c-6.66,7.22-15.35,12.39-21.36,13.46-5.9,1.07-15.86-6.43-24.85-14.93-.36-.34-.71-.69-1.07-1.03-2.12-2.02-4.16-4.1-6.09-6.11l-10.63,4.85c-1.78.82-3.47-1.24-2.35-2.82l6.43-9.14c-2.12-2.42-3.82-4.47-4.87-5.8-9.53-9.43-15.31-22.64-14.87-37.22.78-25.66,21.36-46.96,46.98-48.54,29.19-1.81,53.41,21.3,53.41,50.09,0,3.21-.32,6.34-.9,9.37,14.66,9.09,39.36,24.36,40.05,24.59.97.32-26,47.11-26,47.11Z"/>
            <path class="st16" d="M292.86,627.38s10.07,17.22,31.19,17.87c21.12.65,25.99-1.62,25.99-1.62l15.92,21.44,9.1-20.79,19.17,17.22s25.34,12.67,46.46,11.05c0,0-27.29-99.75-50.36-101.05-80.52-4.54-96.83,54.91-97.48,55.89Z"/>
            <path class="st1" d="M332.64,669.11c1.95,1.95,2.45,4.61,1.12,5.94-1.33,1.33-3.99.83-5.94-1.12-1.95-1.95-2.45-4.61-1.12-5.94,1.33-1.33,3.99-.83,5.94,1.12Z"/>
            <path class="st1" d="M341.81,685.37c-.55,4.08-1.91,8-3.95,11.55-.36-.34-.71-.69-1.07-1.03,1.87-3.3,3.09-6.93,3.59-10.71.06-.38.42-.67.8-.61.4.06.67.42.63.8Z"/>
            <g>
              <path class="st12" d="M370.99,640.73c2.71-1.9,6.06-2.94,9.35-2.64,3.29.31,6.48,2.03,8.32,4.77,2.34,3.48,2.3,8.02,1.72,12.18-.35,2.51-.88,5.05-2.22,7.19-4.26,6.82-17.37,8.33-22.29,1.42-4.78-6.71-1.15-18.53,5.12-22.93Z"/>
              <g>
                <path class="st1" d="M374.4,664.01c-.3,0-.59-.2-.68-.5-1.22-3.86-1.25-7.83-.1-11.17,1.32-3.84,4.21-6.86,7.72-8.07.38-.12.78.07.91.44s-.07.78-.44.91c-3.1,1.07-5.65,3.76-6.83,7.18-1.05,3.06-1.01,6.71.11,10.28.12.38-.09.78-.47.9-.07.02-.14.03-.22.03Z"/>
                <path class="st1" d="M374.06,655.86c-.17,0-.33-.06-.47-.18-.3-.26-.33-.71-.07-1.01,2.51-2.9,7-3.85,10.46-2.21.36.17.51.6.34.95-.17.36-.6.51-.95.34-2.9-1.37-6.67-.58-8.77,1.85-.14.16-.34.25-.54.25Z"/>
              </g>
            </g>
            <path class="st1" d="M317.94,663.2c-.07,0-.14-.01-.22-.03-.38-.12-.58-.52-.47-.9.98-3.07,4.17-5.2,7.34-5,.39.03.69.37.67.76-.03.39-.36.67-.76.67-2.57-.18-5.12,1.59-5.88,4.01-.1.3-.38.5-.68.5Z"/>
          </g>
          <path class="st16" d="M507.04,764.32c-1.96-2.71-4.4-5.19-6.51-7.77-9.78-11.91-19.56-23.84-29.85-35.33-10.69-11.91-21.85-24.46-30.62-38.14-1.55-2.42-3.04-4.9-4.42-7.4-.58-1.01-1.14-2.05-1.65-3.08-.87-1.63-1.67-3.29-2.44-4.96-1.82-3.99-3.39-8.1-4.65-12.32,3.06.87,6.16,1.51,9.28,1.94,11.1,1.59,22.55.95,33.9.93,19.68,27.99,32.56,61.09,36.22,96.92.33,3.06.58,6.12.74,9.22Z"/>
          <path class="st15" d="M507.39,776.35v203.61l-5.33.27h-238.22l-26.69-51.5,36.55-13.69,17.53-6.55,48.09-18.01.66-.25s.1-.23.29-.66c.99-2.32,4.53-10.5,9.53-22.1,15.46-35.79,44.99-103.88,56.96-130.28,2.71-5.97,5.35-11.76,7.92-17.26,9.32-20.18,17.22-36.57,20.96-44.26.6-1.22,1.07-2.23,1.47-3,.27-.56.48-.99.6-1.28.17-.31.25-.48.25-.48l.62-.08s.7.41,2.01,1.28c8.89,5.89,45.21,32.37,65.72,82.98.33,3.06.58,6.12.74,9.22.23,3.99.35,8,.35,12.03Z"/>
          <g>
            <path class="st1" d="M364.35,917.92c-.3,0-.58-.19-.68-.5-6.31-19.56-23.77-26.45-23.94-26.52-.37-.14-.55-.56-.41-.92.14-.37.56-.55.92-.41.18.07,18.27,7.18,24.79,27.42.12.38-.09.78-.46.9-.07.02-.15.04-.22.04Z"/>
            <path class="st1" d="M466.39,834.9c-1.86,5.4-45.63,132.17-53.46,140-1.34,1.34-6.06,3.18-12.96,5.33h-4.96c9.2-2.63,15.42-4.86,16.91-6.35,7.61-7.59,52.68-138.12,53.13-139.44.12-.37.54-.58.91-.45.37.14.56.54.43.91Z"/>
          </g>
        </g>
      </g>
      <g>
        <path class="st1" d="M149.26,757.5s-8.18-35.1-2.38-41.43c5.81-6.33,25.6-12.14,25.6-12.14l14.78,17.68s-2.11,13.2-8.97,13.72c0,0,3.96,10.03,0,14.25-3.96,4.22-9.5,5.28-9.5,5.28l3.17,11.88s-7.39-15.57-22.7-9.24Z"/>
        <path class="st1" d="M187.52,720.55s14.78,12.4,20.85,7.13c6.07-5.28,2.64-14.25,2.64-14.25,0,0,13.2,16.36,20.85,12.4,7.65-3.96-.79-15.83-.79-15.83,0,0,20.59,11.35,22.96,2.9,2.38-8.45-18.47-14.78-18.47-14.78,0,0,12.23-6.86,3.52-14.52-8.71-7.65-67.39,21.11-67.39,21.11l9.5,19.53,6.33-3.69Z"/>
      </g>
    </g>
  </g>
  <g>
    <path class="st11" d="M571.87,991.32c-6.85,0-12.4-5.55-12.4-12.4v-203.88c0-1.23,0-2.44.04-3.67,0-1.12.03-2.23.07-3.36.28-8.8,1.08-17.57,2.38-25.96.07-.58.16-1.14.25-1.71l.08-.52c8.25-50.64,34.11-96.62,73.04-130.13l3.03-24.04c.15-1.23.49-2.41.98-3.51,1.21-2.76,2.98-4.49,4.95-5.58.27-.16.54-.31.82-.45,1.66-.83,3.46-1.27,5.27-1.31,1.19-.13,2.31-.16,3.28-.2,2.22-.07,5.45-.16,9.51-.25,7.54-.17,17.99-.36,30.23-.57,26.63-11.18,54.94-16.85,84.18-16.85h16.12c27.25,0,53.85,4.97,79.07,14.78.89.24,1.76.59,2.58,1.02,2.9,1.17,5.81,2.42,8.86,3.81.16.06.31.13.47.2l2.51,1.18c2.64,1.25,5.21,2.53,7.71,3.85.7.36,1.51.79,2.31,1.25,15.87,8.55,30.69,19.11,44.04,31.4.86.76,1.73,1.57,2.56,2.38,43.29,41.01,67.48,96.55,67.98,156.3.02.64.02,1.29.02,1.93v203.88c0,6.85-5.55,12.4-12.4,12.4h-427.55Z"/>
    <g>
      <path class="st15" d="M999.6,773.89v203.88h-97.13l-7.92-8.96-8.71,8.96h-228.81l-10.03-9.75-7.65,9.75h-23.49l-5.28-6.85-8.97,6.85h-29.55v-203.88c0-1.16,0-2.29.04-3.45,0-1.03.02-2.05.06-3.08.27-8.39,1.01-16.64,2.27-24.75.08-.7.21-1.39.31-2.07,8.21-50.38,34.73-94.6,72.48-125.63.91-.74,1.82-1.49,2.73-2.21.06-.06.14-.1.21-.17,4.01-3.16,8.12-6.18,12.36-9.08.48-.31.93-.62,1.41-.91,0,0,0-.02.02-.02,2.79-1.86,5.62-3.66,8.52-5.35,0,0,0-.02.02-.02,3.25-1.94,6.53-3.8,9.9-5.56.68-.37,1.39-.72,2.07-1.05,3.85-1.96,7.77-3.8,11.76-5.52l.02-.02c24.99-10.83,52.55-16.81,81.54-16.81h16.13c26.67,0,52.16,5.09,75.56,14.33h.04l.02.02h.02c.08.04.14.06.21.1h.02c3.35,1.32,6.62,2.73,9.86,4.22h.02c.85.39,1.65.79,2.5,1.18,2.4,1.14,4.8,2.34,7.15,3.58.68.35,1.39.72,2.07,1.12,15.15,8.15,29.17,18.17,41.74,29.75.74.66,1.51,1.36,2.23,2.07,39.2,37.13,63.78,89.52,64.23,147.67.02.56.02,1.12.02,1.67Z"/>
      <g>
        <g>
          <rect class="st14" x="831.63" y="644.48" width="112.13" height="2.07"/>
          <rect class="st14" x="831.63" y="678.22" width="112.13" height="2.07"/>
          <rect class="st14" x="876.74" y="621.7" width="2.07" height="23.82"/>
          <rect class="st14" x="919.41" y="645.52" width="2.07" height="33.24"/>
        </g>
        <g>
          <path class="st14" d="M999.58,772.22c.02.56.02,1.12.02,1.67v.39h-79.34v-2.07h79.32Z"/>
          <rect class="st14" x="920.26" y="805.96" width="79.34" height="2.07"/>
          <rect class="st14" x="965.37" y="749.44" width="2.07" height="23.82"/>
        </g>
        <g>
          <path class="st14" d="M621.18,740.55v2.07h-46.74c.08-.7.21-1.39.31-2.07h46.43Z"/>
          <rect class="st14" x="572.06" y="774.29" width="49.12" height="2.07"/>
          <rect class="st14" x="596.82" y="741.58" width="2.07" height="33.24"/>
        </g>
      </g>
      <rect class="st0" x="572.06" y="936.53" width="427.55" height="41.24"/>
      <g>
        <g>
          <polygon class="st1" points="664.94 594.49 664.57 597.38 663.97 602.22 663.93 602.55 662.05 617.23 646.4 740.59 645.24 749.58 616.28 977.77 601.48 977.77 647.23 614.91 650.86 586.05 655.56 588.87 664.14 594.01 664.94 594.49"/>
          <polygon class="st16" points="902.52 977.77 885.67 977.77 872.07 811.25 871.1 799.42 854.37 594.43 853.57 584.65 869.53 582.54 869.55 582.54 869.75 582.52 869.75 582.64 869.78 582.64 902.52 977.77"/>
          <path class="st16" d="M650.87,586.05l-7.74,225.21h244.91l-18.3-228.73s-219.58,2.82-218.87,3.52Z"/>
          <path class="st1" d="M662.74,597.51l-6.94,201.91h219.58l-16.41-205.07s-196.86,2.52-196.23,3.15Z"/>
          <polygon class="st16" points="664.24 588.87 664.14 594.01 664.05 597.4 663.97 602.22 663.95 602.3 663.95 602.53 659.86 799.42 659.61 811.25 656.16 977.77 639.39 977.77 644.31 811.25 646.4 740.65 646.4 740.59 650.16 612.54 650.86 588.87 664.24 588.87"/>
          <line class="st9" x1="643.13" y1="811.26" x2="888.04" y2="811.26"/>
        </g>
        <g>
          <g>
            <path class="st8" d="M693.36,716.94c2.31-18.54,6.51-36.84,12.51-54.53,0-.03.02-.05.03-.08,1.11-3.26,5.8-3.1,6.7.22.62,2.28,1.09,4.6,1.57,6.91,3.05,14.89,6.1,29.78,9.15,44.67"/>
            <line class="st8" x1="699.08" y1="684.22" x2="717.43" y2="684.22"/>
          </g>
          <g>
            <line class="st4" x1="753.15" y1="659.61" x2="753.15" y2="712.2"/>
            <g>
              <path class="st4" d="M753.74,659.39c1.45-.89,2.9-1.78,4.36-2.67,2.71-1.66,5.5-3.36,8.63-3.92,3.13-.56,6.71.25,8.6,2.81,1.92,2.62,1.59,6.32.27,9.29-1.76,3.99-5.02,7.16-8.69,9.52-3.66,2.36-7.74,3.98-11.79,5.58"/>
              <path class="st4" d="M755.03,680.77c7.15-3.95,15.9-4.87,23.71-2.49,3.26.99,6.47,2.63,8.51,5.36,1.39,1.86,2.16,4.14,2.53,6.43.82,4.96-.2,10.36-3.44,14.21-4.14,4.94-10.97,6.55-17.34,7.52-5.41.83-7.94.85-15.46-.73"/>
            </g>
          </g>
          <path class="st4" d="M840.21,664.94c-.99-4.6-2.95-9.64-7.31-11.42-2.1-.86-4.48-.81-6.68-.28-5.19,1.25-9.53,5.06-12.2,9.68-2.67,4.62-3.8,10-4.11,15.33-.37,6.32.39,12.8,3.1,18.52,2.71,5.72,7.51,10.6,13.52,12.57,6.01,1.97,13.19.68,17.58-3.87"/>
          <path class="st4" d="M686.35,735.05c39.95-8.41,81.06-9.14,121.88-9.83,13-.22,26.11-.43,38.86,2.11"/>
        </g>
      </g>
      <g>
        <path class="st14" d="M591.81,856.7l35.04,19.77s1.35-29.65,22.91-32.8c21.56-3.14,26.06,17.07,26.06,17.07,0,0-4.49,23.81-18.87,41.33-14.38,17.52-29.65,35.04-29.65,35.04l32.35,10.78,45.83-44.48h46.27l49.42,44.48,22.91-10.33s-32.8-62.9-31.9-70.98c.9-8.09,14.83-26.51,14.83-26.51l-4.94,19.32,15.17,14.41c1.5,1.43,3.91,1.25,5.19-.38l34-43.24s23.81-12.58,21.56-16.17c-2.25-3.59-21.56-5.84-21.56-5.84,0,0-17.97-38.19-53.91-31.45-35.94,6.74-55.71,57.96-55.71,57.96h-53.46s-19.32-38.64-64.69-26.06c-27.3,7.57-36.84,48.07-36.84,48.07Z"/>
        <path class="st14" d="M716.08,977.49c-84.16,0-137.32-46.18-139.62-48.21l16.33-18.45-8.16,9.22,8.14-9.24c.52.45,52.49,45.2,131.96,41.86,78.11-3.27,115.59-26.67,136.98-43.99l15.5,19.15c-24.11,19.52-66.04,45.88-151.45,49.46-3.26.14-6.5.2-9.68.2Z"/>
        <path class="st10" d="M693.35,834.69s-2.25,47.62,21.56,48.52c23.81.9,31.9-48.52,31.9-48.52"/>
        <path class="st10" d="M630.45,932.63s22.91,11.23,31.9,12.13"/>
        <path class="st10" d="M794.43,941.61s14.83-2.25,26.51-9.43"/>
        <path class="st10" d="M826.46,813.75c.28,4.15-1.39,8.27-3.91,11.58-2.52,3.31-5.85,5.92-9.26,8.31-1.66,1.16-3.37,2.31-4.63,3.89-.91,1.14-1.54,2.47-2.11,3.81-2.41,5.66-3.78,11.76-4.05,17.91"/>
        <path class="st10" d="M835.92,845.77c1.36-2.17,2.97-4.19,4.78-6"/>
        <path class="st10" d="M857.18,822.11c5.14-4.34,11.58-7.12,18.26-7.88"/>
        <path class="st5" d="M758.87,809.82c7.52,1.72,15.17-2.34,21.06-7.31,5.21-4.39,9.72-9.62,13.31-15.42,10.49,6.23,24.63,5.64,34.56-1.44.19,3.62,2.17,6.96,4.46,9.77,2.29,2.82,5.17,5.08,8.13,7.19,2.25,1.6,4.58,3.14,7.19,4.04,3.06,1.06,6.37,1.19,9.61,1.12"/>
      </g>
      <g>
        <path class="st17" d="M988.5,927.91c0,.99-.02,1.98-.1,2.96-.04.87-.1,1.72-.21,2.56-1.08,9.57-4.9,18.32-10.67,25.41-.41.52-.83,1.01-1.28,1.51-8.97,10.19-22.14,16.64-36.82,16.64-6.18,0-12.09-1.14-17.53-3.23-.54-.21-1.1-.41-1.63-.66-5.5-2.32-10.5-5.64-14.74-9.7-.45-.43-.89-.85-1.28-1.28-8.62-8.85-13.91-20.9-13.91-34.21,0-9.18,2.52-17.76,6.91-25.1.37-.64.76-1.28,1.2-1.9,8.08-12.28,21.56-20.71,37.09-21.93.72-.06,1.47-.1,2.23-.12.56-.04,1.12-.04,1.67-.04,27.1,0,49.08,21.98,49.08,49.1Z"/>
        <g>
          <path class="st1" d="M988.4,930.87c-.04.87-.1,1.72-.21,2.56-1.51,1.28-3.14,2.34-4.88,3.14-3.58,1.7-7.81,2.52-12.94,2.52h-.41c-8-.08-14.72-2.17-19.47-6.06-5.85-4.8-8.37-12.78-5.97-19,.33-.87.76-1.74,1.18-2.58,1.05-2.09,2.03-4.07,1.57-6.06-.54-2.48-3-3.82-5.56-5.23-1.26-.68-2.54-1.41-3.66-2.27-4.51-3.47-6.16-10.21-3.97-16.02.37-.99.87-1.96,1.45-2.89.72-.06,1.47-.1,2.23-.12-.87,1.14-1.55,2.36-2.05,3.64-1.88,5.02-.43,11.04,3.41,14.02,1.01.79,2.23,1.47,3.43,2.11,2.81,1.55,5.71,3.14,6.43,6.39.6,2.6-.58,4.96-1.7,7.24-.41.81-.81,1.61-1.14,2.44-2.11,5.52.19,12.67,5.46,17.01,5.6,4.57,13.09,5.58,18.38,5.64,5.04.04,9.16-.72,12.59-2.34,2.11-1.01,4.05-2.38,5.83-4.13Z"/>
          <path class="st1" d="M922.64,944.14c-.66,3.7-3.04,6.76-5.04,9.01-3.51,3.95-7.59,7.42-12.07,10.25-.45-.43-.89-.85-1.28-1.28,4.49-2.77,8.56-6.22,12.05-10.15,1.84-2.07,4.03-4.88,4.63-8.15.83-4.61-2.07-9.65-6.47-11.29-.52-.19-1.07-.35-1.63-.5-1.86-.54-3.76-1.1-4.94-2.77-1.1-1.55-1.07-3.56-.93-5.13s.41-3.14.66-4.67c.35-1.98.7-4.03.76-6.04.1-3.97-1.12-7.28-3.39-9.08-1.92-1.55-4.73-2.11-7.75-1.55.37-.64.76-1.28,1.2-1.9,2.96-.25,5.66.5,7.65,2.07,2.71,2.15,4.18,6,4.05,10.52-.06,2.13-.43,4.24-.79,6.28-.25,1.47-.52,3.02-.64,4.53-.12,1.26-.17,2.85.62,3.95.81,1.18,2.36,1.61,3.97,2.09.6.17,1.2.33,1.78.56,5.17,1.88,8.56,7.84,7.57,13.23Z"/>
          <path class="st1" d="M977.53,958.84c-.41.52-.83,1.01-1.28,1.51-2.07-5.95-7.92-10.58-14.22-10.98-2.73-.17-6.24.6-7.9,3.18-.72,1.14-1.01,2.5-1.3,3.95-.25,1.1-.48,2.21-.93,3.31-2.23,5.42-8.46,7.32-11.95,7.96-1.65.29-3.35.48-4.96.66-3.1.35-6.02.66-8.79,1.72-1.65.62-2.83,1.39-3.58,2.34-.31.41-.56.83-.72,1.28-.54-.21-1.1-.41-1.63-.66.23-.58.56-1.16.97-1.7.95-1.22,2.38-2.17,4.34-2.92,2.98-1.12,6.14-1.47,9.2-1.8,1.61-.19,3.27-.37,4.84-.66,2.54-.48,8.68-2.07,10.67-6.9.37-.93.58-1.92.81-3,.33-1.53.66-3.12,1.55-4.53,2.05-3.22,6.24-4.2,9.49-3.99,6.68.39,12.86,5.09,15.4,11.23Z"/>
        </g>
      </g>
    </g>
  </g>
</svg>