<?xml version="1.0" encoding="UTF-8"?>
<svg id="Layer_1" xmlns="http://www.w3.org/2000/svg" version="1.1" viewBox="0 0 365 335">
  <!-- Generator: Adobe Illustrator 29.7.1, SVG Export Plug-In . SVG Version: 2.1.1 Build 8)  -->
  <defs>
    <style>
      .st0 {
        fill: #5fa8a1;
      }

      .st1, .st2, .st3, .st4, .st5, .st6, .st7, .st8, .st9, .st10, .st11, .st12, .st13, .st14, .st15, .st16, .st17, .st18, .st19, .st20 {
        fill: none;
      }

      .st1, .st3, .st5, .st7, .st8, .st9, .st10, .st11, .st12, .st20 {
        stroke-linecap: round;
        stroke-linejoin: round;
      }

      .st1, .st3, .st7, .st8, .st13, .st14, .st16, .st18, .st19, .st20 {
        stroke: #231f20;
      }

      .st1, .st5, .st6, .st18 {
        stroke-width: .75px;
      }

      .st2, .st4, .st5, .st6, .st9, .st10, .st11, .st12, .st15, .st17 {
        stroke: #000;
      }

      .st2, .st4, .st6, .st13, .st14, .st15, .st16, .st17, .st18, .st19 {
        stroke-miterlimit: 10;
      }

      .st2, .st13 {
        stroke-width: .5px;
      }

      .st21 {
        fill: #25544e;
      }

      .st22 {
        fill: #bf6421;
      }

      .st3, .st10 {
        stroke-width: 2px;
      }

      .st23 {
        fill: #fdbb28;
      }

      .st24 {
        fill: #fff;
      }

      .st25 {
        fill: #ddc4ac;
      }

      .st7, .st12, .st14, .st15 {
        stroke-width: 4px;
      }

      .st26 {
        fill: #21140c;
      }

      .st27 {
        fill: #44968e;
      }

      .st8, .st11, .st16, .st17 {
        stroke-width: 3px;
      }

      .st28 {
        fill: #0f2d29;
      }

      .st29 {
        fill: #eabb39;
      }

      .st30 {
        fill: #bc8a26;
      }

      .st31 {
        fill: #c4a894;
      }

      .st32 {
        fill: #3f2919;
      }

      .st33 {
        fill: #194340;
      }

      .st34 {
        fill: #edb38b;
      }

      .st35 {
        fill: #bf0000;
      }

      .st36 {
        fill: #937a69;
      }

      .st37 {
        fill: #af8928;
      }

      .st38 {
        fill: #addcd8;
      }

      .st39 {
        fill: #f4dbc6;
      }

      .st40 {
        fill: #fb7800;
      }
    </style>
  </defs>
  <path class="st26" d="M91.48,289.97c6.31-1.86,21.63-6.84,21.63-6.84l1.83-.62-3.65-9.85.64-21.89,2.02-14.13-.15-2.03-5.19-3.82-2.29-12.5,3.66-8.46,3.13-1.85-.94-4.3,4.86-1.38,3.53-18.41-5.62-1.69-9.07-5.61-5.97-10.6,1.17-7.61-8.93-2.72"/>
  <path class="st32" d="M91.48,289.97c-1.51.44-2.51.71-2.66.69-.76-.13-26.56,3.83-26.56,3.83h-24l-20.56-7.12-7.79-11.66-.38-13.07,5.72-8.01,8.93-7.83-3.8-6.95-6.29-14.6-4.81-17.15-.62-15.87,2.16-14.43,4.72-19.65,5.81-8.56-5.07-10.71-4.38-19.15,7.51-21.97,16.93-10.85,23.23-2.11,17.38,4.55,19.93,2.43-1.85,8.77-.54,7.75-3.67-3.7v5.95s4.02,5.69,4.02,5.69l-4.02-.09-20.24.48.03,4.39,1.34,9.83,2.55,12.13c1.69,1.67,3.39,3.33,5.08,5,1.37,1.72,2.74,3.44,4.11,5.16l7.78,2.37"/>
  <path class="st3" d="M241.37,109.89s-12.53.12-17.01,7.84"/>
  <path class="st3" d="M169.9,107.6s12.53.12,17.01,7.84"/>
  <path class="st8" d="M214.83,167.89c3.18.41,5.24,1.47,5.12,2.61-.07.65-.83,1.25-2.07,1.71-.82.31-1.86.55-3.05.71"/>
  <path class="st8" d="M214.98,167.06c3.18-.59,5.24-2.08,5.12-3.69-.07-.91-.83-1.77-2.07-2.42-.82-.43-1.86-.78-3.05-1"/>
  <path class="st8" d="M179.48,42.62s7.61-.9,8.66-7.17c.09-.53.32-1.14.66-1.19,1.17-.15,4.42,6.33,3.18,12.54-1.01,5.06-4.65,8.12-6.1,9.21"/>
  <path class="st8" d="M246.5,57.09c-1.81.14-4.77-4.52-5.39-9.64-.77-6.28,2.96-12.5,4.11-12.26.34.07.52.7.57,1.23.58,6.33,8.1,7.8,8.1,7.8,0,0,2.93,12.07-7.39,12.87Z"/>
  <path class="st8" d="M274.47,79.26c8.96-1.87,12.19-19.71,12.19-19.71-1.3-.56-2.6-1.13-3.9-1.69"/>
  <path class="st8" d="M275.34,79.94s8.19-7.08,12.33,1.82c0,0-3.55,8.76-10.3,6.6"/>
  <path class="st8" d="M249.47,42.31c1.43-4.81,2.56-11.44,1.96-25.31-.18-4.17,1.33-5.99,1.95-6.62,3.53-3.57,12.26-2.7,20.59,3.98,0,0,17.88,18.1,7.43,47.95,0,0-7.49,16.12-25.38,15.86-1.57-.02-3.74-.37-6.12-1.6-8.5-4.42-9.12-16.29-9.18-17.69"/>
  <path class="st8" d="M238.55,57.96l2.16.92c1.22-1.34,2.24-2.64,3.12-3.9"/>
  <path class="st16" d="M281.01,25.69s-17.82-6.64-29.51,3.09"/>
  <path class="st16" d="M247.31,48.59"/>
  <path class="st16" d="M284.3,49.98s-15.11-12.65-30.4-5.72"/>
  <path class="st8" d="M186.77,56.86c-3.8-4.86-5.43-9.21-6.23-12.24-1.55-5.89-3.55-11.49-1.31-30.33.49-4.14-.88-6.08-1.45-6.75-3.25-3.82-12.02-3.61-20.83,2.42,0,0-19.18,16.71-11,47.26,0,0,6.26,16.64,24.12,17.72,1.57.09,3.75-.08,6.22-1.14,8.81-3.77,10.32-15.56,10.48-16.95Z"/>
  <path class="st16" d="M149.08,20.73s18.27-5.29,29.2,5.3"/>
  <path class="st16" d="M143.97,44.7s20.99-15.05,37,1.39"/>
  <ellipse class="st14" cx="167.35" cy="131.34" rx="17.35" ry="20.12" transform="translate(29.82 293.65) rotate(-87.85)"/>
  <path class="st19" d="M149.04,123.98c2.28-1.57,8.75-5.58,17.89-5.5,10.25.08,17.2,5.25,19.25,6.9"/>
  <path class="st19" d="M183.85,141.43c-.43-.9-4.33-8.82-13.32-10.61-6.78-1.35-12.08,1.66-13.37,2.44"/>
  <path class="st19" d="M151.18,128.22c2.41-1.54,7.96-4.62,15.55-4.66,11.51-.06,19.08,6.94,20.73,8.54"/>
  <path class="st19" d="M171.88,154.47c-.33,3.57-7.94,6-13.63,6.13-8.67.21-18.3-4.77-18-8.75.29-3.92,10.23-7.38,18.53-6.02,6.12,1.01,13.44,4.99,13.1,8.63Z"/>
  <path class="st18" d="M183.11,131.48c-.06,1.49-1.31,2.65-2.8,2.59-1.49-.06-2.65-1.31-2.59-2.8s1.31-2.65,2.8-2.59c1.49.06,2.65,1.31,2.6,2.8Z"/>
  <path class="st13" d="M155.8,128.53c-.03.83.62,1.53,1.45,1.56s1.53-.62,1.56-1.45-.62-1.53-1.45-1.56-1.53.62-1.56,1.45Z"/>
  <path class="st19" d="M147.9,126.72c.85.3,2,.77,3.28,1.5.82.46,2.75,1.63,4.76,3.68.73.75,1.66,1.81,2.58,3.2.69-.06,1.63-.12,2.76-.09,0,0,3.12.09,6.14,1.01,3.33,1.02,8.11,3.97,12.28,9.15,0,0-12.86,9.98-28.26-3.36,0,0-6.38-7.29-3.54-15.08Z"/>
  <circle class="st13" cx="177.35" cy="136.54" r="1.14"/>
  <ellipse class="st14" cx="244.73" cy="134.44" rx="17.35" ry="20.12" transform="translate(101.2 373.95) rotate(-87.85)"/>
  <path class="st19" d="M263.55,128.48c-2.16-1.74-8.31-6.22-17.42-6.83-10.22-.69-17.54,3.94-19.72,5.43"/>
  <path class="st19" d="M227.53,143.26c.49-.87,4.98-8.47,14.08-9.58,6.87-.84,11.92,2.56,13.15,3.44"/>
  <path class="st19" d="M261.1,132.54c-2.28-1.72-7.6-5.21-15.16-5.81-11.47-.92-19.55,5.49-21.31,6.96"/>
  <path class="st19" d="M238.49,157.16c.06,3.59,7.47,6.58,13.13,7.14,8.63.86,18.61-3.38,18.61-7.37,0-3.93-9.65-8.13-18.03-7.39-6.18.55-13.77,3.96-13.71,7.62Z"/>
  <path class="st18" d="M229.01,133.4c-.06,1.49,1.11,2.74,2.6,2.8,1.49.06,2.74-1.11,2.8-2.59.06-1.49-1.11-2.74-2.59-2.8s-2.74,1.11-2.8,2.59Z"/>
  <path class="st13" d="M256.47,132.5c-.03.83-.73,1.48-1.56,1.45s-1.48-.73-1.45-1.56.73-1.48,1.56-1.45,1.48.73,1.45,1.56Z"/>
  <path class="st19" d="M264.48,131.3c-.87.24-2.05.62-3.38,1.25-.85.4-2.86,1.42-5.02,3.32-.79.69-1.79,1.68-2.81,2.99-.68-.12-1.62-.24-2.74-.3,0,0-3.12-.15-6.2.55-3.39.77-8.38,3.35-12.93,8.2,0,0,12.07,10.92,28.43-1.23,0,0,6.91-6.8,4.66-14.77Z"/>
  <circle class="st13" cx="234.38" cy="138.87" r="1.14"/>
  <path class="st3" d="M213.86,317.17c.19-.3,1.22-2.03.65-4.18-.43-1.62-1.53-2.53-1.91-2.82"/>
  <path class="st3" d="M200.29,311.54c.29.58.77,1.74.76,3.28-.01,1.7-.63,2.95-.95,3.52"/>
  <path class="st8" d="M185.81,293.28c-2.63,8.64-.62,17.52,5.21,22.43,5.02,4.23,11.2,4.12,13.12,4.08,9.04-.19,14.69-6.05,15.74-7.18.6-.71,4.19-5.07,3.39-11.18-.6-4.54-3.28-7.4-4.2-8.29.68-.86,1.39-1.83,2.09-2.91.96-1.49,1.72-2.92,2.33-4.21"/>
  <path class="st3" d="M129.99,316.74c-.19-.3-1.22-2.03-.65-4.18.43-1.62,1.53-2.53,1.91-2.82"/>
  <path class="st3" d="M143.56,311.11c-.29.58-.77,1.74-.76,3.28.01,1.7.63,2.95.95,3.52"/>
  <path class="st8" d="M157.1,290.27s7.37,16.21-4.27,25c-1.65,1.17-6.43,4.22-13.12,4.08-9.04-.19-14.69-6.05-15.74-7.18-.6-.71-4.19-5.07-3.39-11.18.6-4.54,3.28-7.4,4.2-8.29-2.45-1.82-10.03-7.91-13.23-19.06-.57-1.98-.88-3.89-.88-3.89-.33-2.15-.34-4-.28-5.4"/>
  <path class="st8" d="M209.23,280.41c-.28.48-.58.97-.93,1.46-2.72,3.9-6.18,5.82-7.95,6.65-4.5,1.96-12.68,4.84-23.26,4.75-10.81-.09-19.09-3.23-23.57-5.31-2.07-1.14-5.6-3.49-8.19-7.75-1.02-1.67-1.67-3.28-2.1-4.65,0,0,0,0,0,0-.16-.72-.36-1.58-.57-2.58"/>
  <path class="st3" d="M126.97,216.98c.75-.05,1.86-.04,3.13.29,1.14.29,2.03.74,2.64,1.11"/>
  <path class="st3" d="M126.44,223.85c.75-.05,1.86-.04,3.13.29,1.14.29,2.03.74,2.64,1.11"/>
  <path class="st3" d="M124.34,229.99c.75-.05,1.86-.04,3.13.29,1.14.29,2.03.74,2.64,1.11"/>
  <path class="st3" d="M258.8,217.91c-.75-.05-1.86-.04-3.13.29-1.14.29-2.03.74-2.64,1.11"/>
  <path class="st3" d="M259.33,224.78c-.75-.05-1.86-.04-3.13.29-1.14.29-2.03.74-2.64,1.11"/>
  <path class="st3" d="M261.44,230.92c-.75-.05-1.86-.04-3.13.29-1.14.29-2.03.74-2.64,1.11"/>
  <path class="st8" d="M127.23,71.83c-8.92-2.05-10.68-20.57-10.68-20.57,18.23-8.67,27.18,5.34,27.18,5.34,0,0,1.38,19.33-16.5,15.23Z"/>
  <path class="st8" d="M144.23,38.74c-.69-.52-2.08-1.42-4.05-1.78-2.4-.43-4.32.18-5.14.49-.64.18-1.7.59-2.31,1.56-.98,1.55-.21,3.55.22,4.69,2.02,5.28,8.7,10.42,10.65,11.87"/>
  <path class="st8" d="M124.7,80.7c-6.83,1.88-9.78-7.35-9.78-7.35,4.8-8.56,12.43-.89,12.43-.89,0,0,3.24,6.63-2.65,8.25Z"/>
  <path class="st7" d="M113.26,117.64c-13.04-.49-26.08-.98-39.12-1.47l-1.36-.05c-.89.18-1.85.54-2.32,1.36-2.14,3.7,6.99,14.5,17.21,20.01,3.2,1.73,8.49,4.7,15.85,4.68,3.75-.01,6.82-.78,8.88-1.47"/>
  <path class="st8" d="M106.82,158.39c-3.41.27-12.69.52-21.48-5.41-15.72-10.61-14.78-30.87-14.71-31.99"/>
  <path class="st3" d="M84.91,142.36s1.59,6.31,6.13,3.43c.13.44,1.08,3.63,4.15,4.9,2.96,1.22,6.66.16,8.92-2.74"/>
  <path class="st3" d="M96.9,117.83c-6.5-2.89-6.06-13.25-6.06-13.25,4.15,6.05,12.82,7.76,12.82,7.76.06.03,1.4.88,1.37,2.47-.02,1.04-.62,1.99-1.55,2.47-2.19.18-4.38.37-6.58.55Z"/>
  <path class="st3" d="M195.65,48.93c.2.39,1.69,3.16,5.05,3.9,3.57.79,6.22-1.38,6.51-1.63-.68,4.01-1.35,8.02-2.03,12.03-.39-.04-6.54-.84-9.09-6.29-1.71-3.66-.73-7.13-.44-8.02Z"/>
  <path class="st3" d="M238.56,50.82c-.23.37-1.93,3.02-5.33,3.51-3.62.52-6.1-1.84-6.37-2.11.37,4.05.75,8.1,1.12,12.15.39-.01,6.58-.35,9.54-5.59,1.98-3.52,1.26-7.05,1.04-7.96Z"/>
  <path class="st7" d="M278.65,146.95c1.05-.28,3.11-.89,5.56-1.96,10.84-4.74,20.54-14.78,18.66-18.66-.41-.85-1.35-1.29-2.22-1.53-.45-.02-.91-.03-1.36-.05-7.6-.29-15.2-.57-22.8-.86"/>
  <path class="st8" d="M280.39,162.59c1.87-.52,3.52-1.21,4.96-1.98,14.02-7.43,16.57-26.24,17.07-30.79"/>
  <path class="st3" d="M286.59,150.05s-2.06,6.18-6.37,2.96"/>
  <path class="st3" d="M276.5,123.89c6.7-2.4,7.04-12.75,7.04-12.75,0,0-1.51,2.44-7.3,6.04"/>
  <path class="st8" d="M216.43,69.68c2.91.08,6.03.16,8.39-1.78,3.09-2.54,2.85-6.89,2.7-9.75,0,0-.35-6.39-5.08-11.93-.6-.7-1.43-1.52-1.43-1.52-.92-.91-1.45-1.32-1.69-1.49-.89-.65-1.43-.87-1.98-.94-.23-.03-.41-.02-.52-.03-.74,0-1.41.22-2.72,1.05-1.97,1.25-2.85,2.01-3.67,2.91-4.4,4.8-4.95,11.12-4.95,11.12-.28,3.2-.63,7.26,2.22,9.93,2.4,2.26,5.81,2.35,8.73,2.42Z"/>
  <path class="st20" d="M209.16,49.94c1.31.71,3.81,1.84,7.13,1.97,4.17.16,7.28-1.33,8.61-2.08"/>
  <path class="st20" d="M206.63,55.03c1.69,1,4.67,2.44,8.64,2.87,5.65.6,10.01-1.22,11.87-2.13"/>
  <path class="st20" d="M206.11,60.11c1.53.97,5.09,2.93,10.04,3.12,5,.2,8.73-1.51,10.33-2.36"/>
  <path class="st8" d="M91.49,156.19c.13,44.52.26,89.04.39,133.57"/>
  <path class="st8" d="M114.93,281.62c-11.95,5.47-31.86,12.64-57.15,12.86-14.04.12-26.06-1.92-35.36-4.29-11.18-8.2-13.32-14.86-13.57-19.78-.69-13.81,15.71-23.86,15.71-23.86-4.98-7.68-18.52-30.76-15.46-61.52,1.68-16.96,7.78-29.89,12.25-37.58-1.36-1.88-2.76-4.06-4.07-6.56-2.97-5.68-4.45-11.02-5.22-15.2-.41-4.15-.9-15.3,6.25-25.17,2.01-2.77,4.22-4.89,6.25-6.49,13.51-10.66,35.22-11.82,52.4-4.7,4.29,1.78,10.81,5.1,17.54,11.45"/>
  <path class="st8" d="M21.35,147.45c2.87,2.63,15.71,13.82,34.92,13.42,13.75-.29,23.55-6.36,27.43-9.08"/>
  <path class="st8" d="M20.39,239.85s30.91,28.32,70.61,2.67"/>
  <path class="st8" d="M19.42,150.94s30.97,46.31,70.74,4.37"/>
  <path class="st8" d="M21.35,240.68s30.33,46.31,69.29,4.37"/>
  <line class="st8" x1="77.73" y1="89.91" x2="95.76" y2="92.92"/>
  <path class="st3" d="M60.68,191.42c-1.49.09-3.06.13-4.69.13s-3.17-.05-4.64-.13"/>
  <path class="st3" d="M48.14,191.16c-5.33-.57-8.97-1.71-8.97-3.02,0-1.89,7.53-3.42,16.82-3.42s16.82,1.53,16.82,3.42c0,1.11-2.59,2.09-6.61,2.72"/>
  <line class="st3" x1="72.82" y1="189.11" x2="72.82" y2="250.78"/>
  <line class="st3" x1="39.17" y1="188.84" x2="39.17" y2="250.51"/>
  <path class="st3" d="M50.12,216.3c2.41.7,5.05.92,7.78.2v36.45"/>
  <polyline class="st20" points="47.46 214.95 47.06 219.5 49.58 216.41"/>
  <polyline class="st20" points="48.56 190.92 49.14 195.42 50.79 191.66"/>
  <polyline class="st20" points="65.8 190.46 64.74 197.71 61.32 191.61"/>
  <path class="st3" d="M39.17,209.3s3.2,3.56,7.91,5.82"/>
  <path class="st1" d="M51.62,187.11c8.05-.48,12.14-.35,12.29.4.07.38-.84.91-2.74,1.59"/>
  <path class="st11" d="M119,62.13c-2.05.69-3.51,1.36-4.56,1.98-6.16,3.62-10.09,8.57-10.09,8.57-3.29,4.06-5.61,10.87-7.62,18.83-1.54,6.09-2.09,11.55-2.23,15.95"/>
  <path class="st11" d="M194.91,56.14c-2.97,0-5.94.02-8.91.03"/>
  <path class="st11" d="M214.3,57.23"/>
  <path class="st11" d="M270.03,75.32c1.46,1.49,2.52,2.88,3.21,3.89.95,2.08,2.26,5.39,3,9.63.5,2.89.57,5.18.58,6.58.06,6.58-.48,22.11-1.6,42.66,8.99,23.94,5.04,37.85-2.46,45.92-1.67,1.88-4.24,4.3-7.9,6.27-7.22,3.89-14.18,3.62-17.21,3.3-8.28-.6-16.55-1.2-24.83-1.8"/>
  <path class="st11" d="M100.1,159.01c-.25,2.17-.62,7.89,2.74,13.63,5.59,9.57,16.57,10.75,17.77,10.86"/>
  <line class="st8" x1="270.16" y1="209" x2="271.5" y2="198.67"/>
  <line class="st8" x1="260.43" y1="284.36" x2="266.47" y2="237.61"/>
  <polyline class="st8" points="233.91 287.37 234.84 287.71 260.35 285.02 260.43 284.36"/>
  <polyline class="st8" points="110.39 262.64 110.35 262.99 130.11 274.19 155.63 271.5 181.62 280.84 210.07 278.53 233.91 287.37"/>
  <polyline class="st8" points="121.84 176.09 141.86 187.31 167.7 184.67 194.02 194.05 222.81 191.78 247.9 201 271.57 198.08"/>
  <path class="st8" d="M113.94,235.13c-1.18,9.17-2.37,18.33-3.55,27.5"/>
  <line class="st8" x1="117.77" y1="205.5" x2="117.67" y2="206.26"/>
  <line class="st8" x1="121.56" y1="176.13" x2="117.77" y2="205.5"/>
  <line class="st8" x1="142.04" y1="187.33" x2="130.81" y2="274.28"/>
  <line class="st8" x1="166.84" y1="185.42" x2="155.73" y2="271.5"/>
  <line class="st8" x1="166.95" y1="184.56" x2="155.81" y2="270.85"/>
  <line class="st8" x1="193.33" y1="194.29" x2="182.19" y2="280.58"/>
  <line class="st8" x1="222.75" y1="191.91" x2="211.61" y2="278.2"/>
  <line class="st8" x1="247.07" y1="201.23" x2="235.93" y2="287.52"/>
  <path class="st8" d="M266.45,237.61c1.59-.18,3.17-.36,4.76-.54.57-.21,1.35-.54,2.2-1.07,5.16-3.25,7.8-10.87,6.1-17.4-1.16-4.49-4.08-7.33-5.66-8.64"/>
  <path class="st8" d="M270.76,204.35c1.77-.52,3.59.39,4.16,1.92.47,1.25.05,2.75-1.07,3.69-1.77-.27-3.54-.53-5.31-.8-1.65-.07-6.94-.15-11.07,2.62-4.39,2.93-4.57,7.14-4.71,10.15-.11,2.47-.39,8.88,5.74,13.01,2.53,1.7,5.28,2.43,7.03,2.77.3-.03.6-.07.9-.1"/>
  <path class="st8" d="M119.9,235.74c-1.59-.18-3.17-.36-4.76-.54-.57-.21-1.35-.54-2.2-1.07-5.16-3.25-7.8-10.87-6.1-17.4,1.16-4.49,4.08-7.33,5.66-8.64"/>
  <path class="st8" d="M117.67,202.34c-2.91-1.09-5.66.22-6.26,2.07-.57,1.75.95,3.55,1.07,3.69,1.77-.27,3.54-.53,5.31-.8,1.65-.07,6.94-.15,11.07,2.62,4.39,2.93,4.57,7.14,4.71,10.15.11,2.47.39,8.88-5.74,13.01-2.53,1.7-5.28,2.43-7.03,2.77-.3-.03-.6-.07-.9-.1"/>
  <polygon class="st3" points="290.53 323.81 266.95 326.09 268.26 319.72 289.61 320.38 290.53 323.81"/>
  <polygon class="st3" points="323.89 323.81 300.31 326.09 301.62 319.72 322.97 320.38 323.89 323.81"/>
  <polygon class="st3" points="357.24 323.81 333.66 326.09 334.97 319.72 356.32 320.38 357.24 323.81"/>
  <polygon class="st3" points="256.15 324.34 232.57 326.61 233.88 320.24 255.23 320.91 256.15 324.34"/>
  <path class="st40" d="M145.32,55.64c-.64-4.36-1.28-8.72-1.91-13.08.02-1.02.04-2.05.06-3.07-2.12-.95-4.25-1.9-6.37-2.85l-3.56,1.17-.77,2.18c.35,1.96.7,3.91,1.05,5.87,1.41,1.44,2.83,2.88,4.24,4.32,2.42,1.82,4.84,3.64,7.25,5.46Z"/>
  <polygon class="st40" points="180.1 43.04 184.53 41.21 188.79 36.79 190.56 34.78 190.65 39.17 191.89 43.37 190.11 52.71 187.81 54.3 186.38 56.78 181.91 49.9 180.1 43.04"/>
  <path class="st27" d="M121.31,59.68c-2.71,1.32-5.42,2.64-8.14,3.96-2.47,2.21-4.94,4.42-7.41,6.63-2.39,4.86-4.77,9.72-7.16,14.57-1.04,4.19-2.07,8.38-3.11,12.57v6.2c-.15,1.09-.3,2.18-.46,3.27.26.76.52,1.52.79,2.28,2.97,1.16,5.94,2.33,8.92,3.49-1.6,14.79-3.2,29.57-4.8,44.36-.43,1.85-.91,5.11-.05,8.98.97,4.35,3.13,7.16,4.21,8.54,2.37,3.02,5.03,4.87,6.92,5.94,4.28,2.42,8.32,2.91,10.53,3.01,24.24,3.74,48.47,7.49,72.71,11.23,7.49-1.39,16.4-2.42,26.42-2.37,5.49.02,10.59.37,15.24.89,3.47.31,7.4.48,11.71.33,4.29-.14,8.18-.56,11.6-1.1,2.84-.72,7.67-2.37,12.25-6.38,1.85-1.62,5.31-4.72,7.28-10.01.7-1.88,1.06-3.63,1.24-5.13-.39-5.83-.79-11.65-1.18-17.48l-2.67-12.22c.22-14.85.43-29.7.65-44.55-.2-2.67-.39-5.34-.59-8.01-1-2.59-2-5.17-2.99-7.76-1.6-3.18-4.2-7.33-8.38-11.23-9.55-8.92-20.86-10.47-25.14-10.83-16.72-.82-33.44-1.64-50.16-2.46-22.75,1.08-45.49,2.17-68.24,3.25Z"/>
  <path class="st23" d="M148.95,64.45c1.23,1.17,2.46,2.35,3.7,3.52,1.55,1.18,3.32,2.4,5.34,3.61,1.78,1.06,3.49,1.95,5.08,2.69,4.41.12,8.83.23,13.24.35l6.62-6.44c1.16-3.34,2.32-6.68,3.48-10.02-.63-.91-1.27-1.83-1.9-2.74-1.93-3.86-3.87-7.72-5.8-11.58-.55-5.36-1.09-10.72-1.64-16.08.58-4.81,1.17-9.61,1.75-14.42.08-.53.13-1.12.12-1.76-.06-2.66-1.16-4.7-1.91-5.84-3.83.18-7.66.36-11.49.54-3.09,1.77-6.17,3.53-9.26,5.3-2.07,2.75-4.14,5.49-6.21,8.24-.75,1.54-1.5,3.17-2.22,4.9-.64,1.53-1.23,3.01-1.75,4.45-.58,1.39-1.16,2.78-1.75,4.18l-.8,18.06,4.26,10.84c.38.73.77,1.46,1.15,2.19Z"/>
  <path class="st23" d="M277.68,68.54c-1.31,1.09-2.62,2.18-3.92,3.27-1.62,1.07-3.48,2.18-5.57,3.24-1.85.94-3.61,1.71-5.25,2.34-1.96.32-4.56.53-7.58.2-1.99-.22-3.73-.62-5.16-1.06-2.13-2.02-4.25-4.04-6.38-6.06-.88-3.46-1.76-6.92-2.64-10.38.54-.98,1.08-1.96,1.61-2.94,2.19-3.72,4.37-7.44,6.56-11.16.9-5.31,1.81-10.62,2.71-15.93-.26-4.83-.52-9.67-.78-14.5.8-1.85,1.61-3.7,2.41-5.55,1.24-.51,3.16-1.12,5.59-1.26,2.45-.13,4.44.28,5.73.65,3.22,1.87,6.44,3.74,9.66,5.6,1.86,3.03,3.72,6.06,5.58,9.09,1.24,1.88,1.92,3.55,2.31,4.71.46,1.37.68,2.55,1.12,4.92.31,1.7.53,3.12.66,4.09.32,3.74.43,7.94.13,12.51-.12,1.94-.31,3.8-.54,5.56-.85,2.48-1.69,4.95-2.54,7.43-1.04,1.22-2.09,2.61-3.08,4.16-.23.35-.44.71-.65,1.05Z"/>
  <path class="st40" d="M214.11,42.69l-5.68,5.23-2.4,10,.11,8.08s2.31,2.14,2.83,2.22,6.99,1.68,6.99,1.68l6.09-1.14,5.79-4.25.19-8.86-7.08-11.02-3.92-2.14-2.93.2Z"/>
  <polygon class="st23" points="204.2 63.73 201.1 62.27 197.92 59.39 195.82 55.15 195.29 50.17 195.58 49.91 196.63 49.33 198.55 51.59 200.84 52.14 202.8 53.01 204.88 52.63 205.64 53.37 204.79 60.43 204.2 63.73"/>
  <polygon class="st23" points="227.83 64.62 231.11 63.63 234.67 61.24 237.37 57.36 238.62 52.5 238.37 52.21 237.41 51.48 235.18 53.43 232.84 53.65 230.77 54.23 228.77 53.54 227.91 54.17 227.73 61.28 227.83 64.62"/>
  <path class="st40" d="M133.06,49.28l-9.43-1.09-4.88,1.29-1.18.83-.29,2.69.86,5.84,2.27,7.46,3.37,2.94,2.82,1.11c1.06.56,2.12,1.13,3.18,1.69,2.78-.6,5.55-1.2,8.33-1.81,1.29-1.94,2.59-3.87,3.88-5.81.33-1.98.67-3.96,1-5.94l-1.12-3.13s-8.41-5.95-8.83-6.07Z"/>
  <path class="st40" d="M121.16,69.88l-2.58.42-2.44,1.95c.21,1.12.43,2.25.64,3.37,1.01,1.33,2.02,2.66,3.04,3.98,1.19.25,2.38.5,3.57.75.5-.06,1.33-.23,2.2-.77,1.31-.81,1.9-1.96,2.11-2.44.06-.47.2-2.14-.87-3.73-.73-1.1-1.69-1.64-2.16-1.87-1.17-.56-2.34-1.11-3.5-1.67Z"/>
  <polygon class="st40" points="285.29 78.26 286.57 80.56 286.67 84.11 283.61 86 279.17 87.9 275.69 86.78 275.63 79.04 281.96 77.13 285.29 78.26"/>
  <path class="st40" d="M253,44.43c-1.52-.66-3.04-1.32-4.55-1.98l-3.46-4.82-1.42-2.16c-.41,1.19-.81,2.39-1.22,3.58-.52,1.32-1.05,2.64-1.57,3.97.43,2.7.87,5.39,1.3,8.09.29.87.58,1.74.88,2.61l1,2.52c1.07,0,2.84-.14,4.8-.9,2.17-.85,3.56-2.08,4.29-2.83.5-.52,1.83-2.38,1.5-4.82-.22-1.66-1.12-2.78-1.55-3.25Z"/>
  <polygon class="st40" points="282.54 58.58 286.26 60.47 284.37 65.85 281.36 72.94 276.77 78.55 272.53 77.95 270.16 74.86 281 64.79 282.54 58.58"/>
  <path class="st40" d="M92.32,106.07c1.77,1.24,3.54,2.49,5.31,3.73,2.34,1.2,4.69,2.4,7.03,3.61-.1,1.46-.19,2.93-.29,4.39-1.64-.29-3.28-.57-4.91-.86-1.53-.24-3.07-.48-4.6-.73-.88-1.28-1.75-2.55-2.63-3.83-.28-.5-.79-1.53-.82-2.94-.04-1.67.61-2.89.91-3.38Z"/>
  <path class="st40" d="M277.22,116.78c.09,0,3.59-2.85,3.59-2.85l1.5-1.68.1,2.14.13,2.81-1.82,4.01-2.09,1.58-1.14-.13-.27-5.88Z"/>
  <path class="st34" d="M168.82,150.01c.3.25.6.5.89.76.55.55,1.09,1.09,1.64,1.64.07.94.14,1.88.2,2.82-.41.52-.81,1.05-1.22,1.57-.42.4-.83.81-1.25,1.21-.47.19-.94.39-1.4.58-1.23.43-2.47.87-3.7,1.3-1.65.24-3.3.48-4.95.72-1.4.02-2.81.05-4.21.07l-3.77-.78c-1.54-.54-3.08-1.08-4.61-1.62-1.34-.83-2.68-1.67-4.02-2.51-.74-.88-1.49-1.76-2.23-2.64.11-.64.22-1.29.33-1.93l1.13-1.68,2.99-1.88,2.21-.8,3.08-.7,4.04-.6c2.21.03,5.31.33,8.8,1.54,2.49.86,4.51,1.95,6.03,2.93Z"/>
  <path class="st34" d="M266.78,152.65c.32.23.64.45.96.68.59.5,1.18.99,1.78,1.49.15.93.3,1.86.45,2.8-.36.56-.72,1.11-1.08,1.67-.38.44-.76.88-1.14,1.31l-1.35.7c-1.19.54-2.38,1.08-3.57,1.61-1.62.38-3.24.76-4.87,1.15-1.4.14-2.79.29-4.19.43l-3.82-.46c-1.58-.41-3.16-.81-4.74-1.22-1.41-.72-2.81-1.43-4.22-2.15-.82-.81-1.63-1.63-2.45-2.44.05-.65.11-1.3.16-1.95l.98-1.77,2.82-2.13,2.13-.99,3.01-.96,3.97-.94c2.2-.16,5.32-.13,8.9.78,2.56.65,4.66,1.56,6.26,2.4Z"/>
  <path class="st23" d="M70.85,121.69c.03,3.37.06,6.74.08,10.11,2,4.14,3.99,8.28,5.99,12.42,2.45,2.51,4.89,5.02,7.34,7.52,4.16,1.67,8.31,3.34,12.47,5.01,3.34.47,6.68.93,10.02,1.4.57-.37,1.38-.98,2.18-1.89,1.34-1.5,1.91-2.99,2.28-3.97,1.59-4.26,1.52-9.69,1.49-10.9-1.94.37-3.89.73-5.83,1.1l-11.95-1.65c-3.14-1.6-6.29-3.2-9.43-4.8-3.03-2.59-6.06-5.18-9.09-7.77-1.85-2.19-3.69-4.38-5.54-6.56Z"/>
  <polygon class="st27" points="112.37 207.34 111.2 204.29 116.18 201.23 117.86 201.58 117.96 205.14 118.86 206.91 125.88 207.74 131.43 211.71 133.29 217.76 133.29 224.18 132.39 227.79 128.39 232.46 122.64 234.78 116.76 235.39 110.58 231.93 108.39 227.35 106.5 220.06 107.63 215.46 112.37 207.34"/>
  <path class="st27" d="M271.16,204.4l3.03.66,1.24,3.21-1.6,1.56,2.75,4.28,1.33,3.97,2.11,3.55.19,4.31s-1.68,3.54-1.87,3.88-6.56,7.71-6.56,7.71h-7.76l-5.83-1.63-6.04-6.75v-7.56l1.53-6.37,5.6-4.84,7.95-.72,2.57.14,1.33-5.4Z"/>
  <polygon class="st27" points="110.52 264.23 109.97 270.33 113.23 280.02 119.52 289.26 124.56 294.21 121.15 298.46 120.73 305.19 121.94 310.67 129.27 317 133.29 319.27 145.55 319.49 152.9 315.44 156.08 312.47 159.79 303.84 159.03 298.39 157.01 291.86 150.12 285.75 143.81 278.96 143.38 273.91 129.84 274.36 110.52 264.23"/>
  <polygon class="st27" points="225.22 283.68 219.71 292.35 223.05 298.73 223.79 302.55 222.47 309.38 218.17 314.15 213.45 317.55 204.45 319.43 195.45 318.2 188.06 312.23 185.39 304.74 185.39 297.55 186.12 292.92 192.38 290.58 203.49 287.01 207.65 282.77 210.92 278.37 225.22 283.68"/>
  <polygon class="st27" points="113.84 117.8 70.6 116.61 73.14 124.41 82.28 134.61 91.58 139.34 104.28 141.68 114.03 141.32 113.84 117.8"/>
  <polygon class="st27" points="275.88 124.41 301.72 124.39 300.74 130.43 294.76 137.64 287.76 142.86 279.42 146.41 276.67 143.97 273.61 134.46 275.88 124.41"/>
  <polygon class="st23" points="142.95 274.28 146.76 282.59 153.02 288.46 164.96 291.86 182.19 293.28 198.21 289.99 207.53 284.36 209.23 280.41 208.16 278.73 182.19 280.79 158.03 272.36 155.06 271.5 142.67 272.87 142.95 274.28"/>
  <polygon class="st23" points="302.42 133.85 300.49 141.91 293.8 155.65 284.19 162.09 280.53 162.59 278.9 147.65 302.42 133.85"/>
  <polygon class="st28" points="151.95 120.72 152.86 121.05 157.27 119.51 162.63 118.54 165.43 118.34 168.73 118.55 175.44 120 181.18 122.35 183.18 122.96 183.26 120.24 175.3 115.8 163.44 115.05 154.74 116.65 151.95 120.72"/>
  <path class="st33" d="M151.32,121.64l-1.21,2.48-1.33,3,1.36.53,1.49.71.67-.89,1.42-.73,2.09-.91,3.04-.89,2.12-.63,3.11-.44,3.08-.12,1.47.07,2.78.33,4.24,1.04c1.36.6,2.72,1.21,4.08,1.81.99.61,1.98,1.23,2.97,1.84.86.7,1.72,1.4,2.58,2.09.86.14,1.73.28,2.59.42l-1.31-4.69-2.69-3.88h-2.02s-3.94-1.74-3.94-1.74l-5.64-1.85-7.6-.49-4.81.8-8.53,2.15Z"/>
  <path class="st38" d="M157.52,133.13c.38.75.76,1.51,1.14,2.27,1.22-.1,2.44-.21,3.65-.31,2.15.43,4.3.86,6.45,1.3l4.22,2.15,2.14,2.1,3.22,3.02,3.16-.87,1.15-2.65-.31-1.07-1.98-2.76-2.56-2.06-3.65-2.27-3.59-1.17c-1.36-.07-2.73-.15-4.09-.22-1.19.18-2.37.36-3.56.55-.86.2-1.71.39-2.57.59-.94.47-1.89.94-2.83,1.41Z"/>
  <path class="st0" d="M184.51,139.98l2.7-7.02c-.42-.65-.84-1.31-1.25-1.96-.85-.62-1.71-1.23-2.56-1.85-1.06-.7-2.13-1.39-3.19-2.09l-3.48-1.46-4.38-1.24-6.36-.66-2.35.14-4.04.92-5.67,1.73-2.26,1.33-.22.5,1.45.85,3.25,2.84,1.39,1.08,2.91-1.45,5.66-1.2,3.66.36,2.9.77,2.63.85,3.14,2.14,2.77,2.7,2.26,3.22,1.05-.52Z"/>
  <path class="st24" d="M179.59,128.81c.22-.06.73-.15,1.32.03.46.14.78.39.94.55.36.54.72,1.08,1.08,1.62l-.47,1.92-1.46,1.12-2.84-.85-.78-1.51c.19-.58.38-1.16.56-1.74.55-.38,1.1-.76,1.64-1.13Z"/>
  <polygon class="st24" points="148.84 127.25 149.79 127.31 153.18 129.4 156.97 132.82 157.78 134.15 158.3 134.91 158.88 135.15 163.53 135.18 167.27 136.19 173.73 139.71 177.54 143.23 178.11 144.34 175.92 147.69 162.2 148.1 151.91 143.54 148.76 137.89 148.84 127.25"/>
  <polygon class="st24" points="156.93 127.09 158.14 127.42 158.72 128.34 158.46 129.44 157.68 130.08 156.15 129.6 155.73 128.74 155.8 127.74 156.93 127.09"/>
  <polygon class="st24" points="177.24 135.39 178.11 135.73 178.46 136.46 178.18 137.27 177.55 137.69 176.47 137.21 176.24 136.53 176.36 135.79 177.24 135.39"/>
  <polygon class="st28" points="261.36 126.04 260.42 126.25 256.25 124.14 251.06 122.47 248.31 121.9 245.02 121.68 238.17 122.23 232.18 123.8 230.11 124.15 230.39 121.44 238.87 118.09 250.73 118.91 259.14 121.64 261.36 126.04"/>
  <path class="st33" d="M261.87,127.04l.88,2.61c.16.73.33,1.46.49,2.19-.28.03-.55.06-.83.1-.44.14-.87.28-1.31.42-.2-.13-.4-.26-.6-.39-.4-.23-.8-.45-1.19-.68-.55-.38-1.11-.76-1.66-1.14-1.03-.38-2.07-.76-3.1-1.14-.74-.36-1.49-.71-2.23-1.07-.98-.2-1.96-.41-2.93-.61l-2.91-.47c-.65-.05-1.3-.11-1.95-.16-.97.06-1.94.11-2.91.17l-4.34.47c-1.43.42-2.86.84-4.29,1.26-1.06.48-2.12.96-3.18,1.43-.95.58-1.89,1.16-2.84,1.73-.87.03-1.75.05-2.62.08l1.92-4.48,3.18-3.5,2,.27,4.14-1.21,5.84-1.09c1.13-.13,2.44-.2,3.9-.15,1.56.06,2.94.24,4.11.47,1.57.43,3.14.86,4.71,1.3,2.57,1.19,5.14,2.38,7.71,3.57Z"/>
  <path class="st38" d="M253.98,136.2c.32.38.4.91.22,1.37-.19.48-.65.82-1.17.85-1.21.04-2.43.08-3.64.12l-6.53.8c-1.42.56-2.85,1.11-4.27,1.67l-2.22,2.02-3.33,2.9-3.13-.99c-.47-.91-.93-1.82-1.4-2.73.23-.34.47-.68.7-1.02l2.08-2.68,2.64-1.96,3.73-2.13,3.63-1.04c1.37-.02,2.73-.04,4.1-.06,1,.09,2.21.28,3.54.68.91.27,1.71.6,2.4.92.88.43,1.77.86,2.65,1.29Z"/>
  <path class="st0" d="M227.07,139.35c-.44-1.95-.87-3.9-1.31-5.85.22-.46.43-.91.65-1.37.73-.6,1.62-1.26,2.67-1.88,1.25-.74,2.43-1.27,3.44-1.65l3.64-.98,4.5-.65h6.07c.98.14,1.96.28,2.94.41,1.47.47,2.94.94,4.4,1.4,1.68.84,3.36,1.68,5.04,2.51.46.32.92.64,1.38.96-.29.35-.59.7-.88,1.05l-.89.64c-1.07.87-2.15,1.74-3.22,2.61-.25.23-.51.45-.76.68-1.23-.74-2.45-1.47-3.68-2.21-1.67-.41-3.35-.81-5.02-1.22l-3.67-.12-2.98.38c-.9.24-1.79.47-2.69.71-1.04.56-2.09,1.13-3.13,1.69-.86.81-1.72,1.61-2.59,2.42-.94.94-1.87,1.88-2.81,2.82-.37-.79-.74-1.57-1.12-2.36Z"/>
  <path class="st24" d="M232.61,130.96c-.21-.09-.7-.25-1.32-.14-.48.09-.82.31-1.01.44-.43.52-.86,1.03-1.29,1.54l.21,2.06,1.3,1.36,2.93-.51.97-1.47c-.11-.63-.21-1.26-.32-1.89-.49-.47-.98-.94-1.48-1.4Z"/>
  <polygon class="st24" points="263.41 131.68 262.46 131.66 258.92 133.49 254.88 136.61 253.96 137.87 253.39 138.59 252.79 138.79 248.15 138.45 244.35 139.17 237.64 142.19 233.57 145.4 232.91 146.47 234.84 149.97 248.49 151.44 259.09 147.68 262.68 142.3 263.41 131.68"/>
  <polygon class="st24" points="255.42 131.01 254.17 131.18 253.47 132.02 253.58 133.14 254.28 133.88 255.86 133.61 256.38 132.8 256.45 131.8 255.42 131.01"/>
  <polygon class="st24" points="234.65 137.75 233.75 137.97 233.3 138.66 233.47 139.49 234.04 139.99 235.18 139.66 235.5 139.02 235.47 138.27 234.65 137.75"/>
  <polygon class="st39" points="117.68 206.78 121.86 176.6 140.65 187.85 166.85 185.08 193.34 194.8 223.07 193.23 246.5 201.52 271.59 198.59 269.04 209.36 257.52 210.47 252.52 221.9 256.24 234.68 266.46 238.23 260.45 284.88 235.95 288.03 212.62 279.25 184.21 281.15 179.97 280.53 153.67 272.02 133.73 274.32 128 273.5 110.91 263.82 114.96 235.65 124.35 234.89 129.87 230.81 133.85 224.3 132.76 214.1 125.71 208.61 117.68 206.78"/>
  <path class="st25" d="M62.01,252.91c-1.36.06-2.64.05-3.83,0l-19.92-3.21c.49-20.96.98-41.91,1.47-62.87,3.9-.97,7.79-1.95,11.69-2.92l17.4,1.26,4.3,1.8-.5,5.4v57.61c-1.38.72-2.75,1.44-4.13,2.17-1.9.37-4.07.67-6.48.78Z"/>
  <path class="st29" d="M21.72,147.54s13.4,10.02,14.3,10.02,25.09,3.86,25.09,3.86l28.05-10.06,1.88,4.54-4.35,2.91-19.26,13.55-20.2-.6-17.71-8.85-8.54-9.74-2.41-.61,3.16-5.04Z"/>
  <path class="st29" d="M25.7,244.26s26.53,20.55,64.77,0l-11.03,11.74-20.17,6.73-14.75-2.54-13.44-8.44-6.02-5.09.64-2.4Z"/>
  <path class="st35" d="M234.16,320.24c-.53,2.28-1.06,4.55-1.59,6.83l22.85-2.66v-2.78c-7.09-.46-14.18-.93-21.27-1.39Z"/>
  <path class="st35" d="M268.9,319.49c-.53,2.28-1.06,4.55-1.59,6.83l22.85-2.66v-2.78c-7.09-.46-14.18-.93-21.27-1.39Z"/>
  <path class="st35" d="M302.26,319.49c-.53,2.28-1.06,4.55-1.59,6.83l22.85-2.66v-2.78c-7.09-.46-14.18-.93-21.27-1.39Z"/>
  <path class="st35" d="M335.25,319.49c-.53,2.28-1.06,4.55-1.59,6.83l22.85-2.66v-2.78c-7.09-.46-14.18-.93-21.27-1.39Z"/>
  <polygon class="st26" points="84.93 92.09 94.51 101.04 96.68 92.63 84.93 92.09"/>
  <path class="st21" d="M121.46,181.42c-2.65-.94-6.52-2.67-10.43-5.89-.82-.68-2.09-1.78-3.4-3.22-2-2.19-5.35-6.52-7.38-13.53-.49,1.63-1.1,4.48-.44,7.83.94,4.78,3.92,7.69,6.06,9.8,4.2,4.15,8.94,5.9,11.61,6.86,1.05.38,1.85.61,2.21.71.46.13.83.24,1.1.32"/>
  <path class="st30" d="M70.13,124.55c1.97,3.58,3.91,6.38,5.44,8.41,2.29,3.04,6.85,8.46,12.69,12.43,0,0,4,2.72,8.24,4.22.7.25,1.37.43,1.37.43,1.04.19,2.09.4,3.16.62,3.47.72,6.77,1.55,9.92,2.44.58-1.64,1.18-3.77,1.51-6.31.34-2.69.27-5.03.09-6.84-4.11.53-9.29.77-15.2.03-3.22-.4-6.12-1.03-8.66-1.74-5.67-3.54-11.37-7.63-17-12.36-.53-.44-1.05-.89-1.56-1.33Z"/>
  <path class="st30" d="M302.34,131.68c-.86,3.06-3.02,9.19-8.5,14.9-4.98,5.19-10.37,7.59-13.31,8.66-.37-3.31-.74-6.63-1.11-9.94,5.04-2.35,10.07-4.69,15.11-7.04,1.85-1.4,3.75-2.94,5.68-4.63.74-.65,1.46-1.31,2.15-1.95Z"/>
  <path class="st22" d="M206.26,59.82c.38.58,4.15,6.03,11.15,6.35,6.43.29,10.5-3.99,11.06-4.6-.94,2.42-1.88,4.85-2.82,7.27l-13.52.09-6.51-3.93.65-5.19Z"/>
  <path class="st22" d="M119.49,65.13c5.91,3.25,12.82,2.45,16.82-1.62,3.75-3.82,3.51-9.04,3.44-10.05,1.22,1.11,2.44,2.22,3.67,3.33-.15,2.52-.31,5.04-.46,7.56-1.47,2.09-2.95,4.18-4.42,6.27-2.61.8-5.23,1.59-7.84,2.39-1.3-.17-2.59-.33-3.89-.5-1.08-.53-2.48-1.37-3.89-2.67-1.09-1-1.89-2.01-2.47-2.85-.32-.62-.64-1.24-.96-1.86Z"/>
  <path class="st22" d="M115.75,76.33c3.05,1.72,6.63,1.3,8.7-.86,1.94-2.02,1.81-4.78,1.78-5.31.63.59,1.26,1.17,1.9,1.76-.08,1.33-.16,2.66-.24,3.99-.76,1.1-1.52,2.21-2.29,3.31-1.35.42-2.7.84-4.06,1.26-.67-.09-1.34-.17-2.01-.26-.56-.28-1.28-.73-2.01-1.41-.56-.53-.98-1.06-1.27-1.51-.17-.33-.33-.65-.5-.98Z"/>
  <path class="st22" d="M139.05,51.15c.59-.08,2.14-.36,3.47-1.63,2.08-1.99,1.87-4.74,1.84-5.12v9.87c-.8-.07-1.6-.15-2.4-.22-.97-.96-1.94-1.93-2.91-2.89Z"/>
  <path class="st22" d="M285.39,84.9c-.7.12-3.97.62-6.99-1.49-2.04-1.42-2.93-3.31-3.27-4.14l-1.53,1.83,1.42,2.05c.41.84.83,1.69,1.24,2.53.36.9.73,1.79,1.09,2.69,1.21-.09,2.43-.19,3.64-.28l1.69-1.02c.9-.72,1.8-1.45,2.7-2.17Z"/>
  <path class="st22" d="M281.28,73.08c-.87.41-3.49,1.49-6.58.67-1.36-.36-2.39-.98-3.08-1.48.19,2.2.37,4.4.56,6.6,1.39-.28,2.78-.57,4.17-.85,1.64-1.65,3.28-3.3,4.93-4.95Z"/>
  <path class="st30" d="M184.72,54.23c-.6,1.38-4.95,10.96-14.13,13.03-10.2,2.3-22.79-5.49-26.92-19.71,1,4.26,2.01,8.52,3.01,12.78l12.35,11.39,9.87,3.3,10.47-2.43,6.11-9.15c.27-1.71.54-3.43.82-5.14-.52-1.36-1.04-2.72-1.56-4.08Z"/>
  <path class="st30" d="M245.52,56.68c-.13,1.04-.94,8.37,4.52,13.37,6.08,5.56,17.78,6.31,26.22-.15-2.37,2.03-4.74,4.07-7.11,6.1l-12.95,1.42-8.06-2.2-6.21-5.74-.57-7.8.46-3.78,3.7-1.22Z"/>
  <path class="st30" d="M236.77,60.91c-1.39.51-2.91.49-4.27.02-1.05-.36-1.73-.91-2.16-1.3-2.48-2.17-2.62-5.24-3.15-5.2-.11,0-.23.14-.33.69.43,1.07.51,1.92.5,2.51,0,.43-.1.55-.09,1.29,0,.72,0,1.43,0,2.15-.01,1.1-.02,2.2-.03,3.3,1.38-.4,2.82-.86,4.32-1.39,1.88-.67,3.62-1.37,5.22-2.07Z"/>
  <path class="st30" d="M196.02,57.43c1.07.9,2.4,1.32,3.72,1.22,1.01-.07,1.76-.44,2.25-.71,2.77-1.5,3.75-4.57,4.2-4.38.09.04.16.21.09.79-.67.97-.98,1.81-1.14,2.4-.12.43-.07.58-.28,1.33-.2.73-.4,1.45-.61,2.18-.3,1.12-.6,2.23-.9,3.35-1.09-.79-2.22-1.66-3.37-2.62-1.45-1.2-2.77-2.4-3.97-3.56Z"/>
  <path class="st22" d="M254,45.57c-.12.53-1.05,4.32-5,6.05-2.78,1.22-5.44.71-6.29.51.88,1.75,1.75,3.5,2.63,5.26,2.8-1.3,5.61-2.6,8.41-3.89.5-1.88,1.01-3.76,1.51-5.64-.42-.76-.85-1.53-1.27-2.29Z"/>
  <path class="st22" d="M181.47,40.48c.03.74.25,4.97,3.73,7.87,1.97,1.64,4.07,2.1,5.12,2.26-1.19,1.34-2.39,2.68-3.58,4.01l-4.93-7.89-1.69-4.64,1.36-1.61Z"/>
  <path class="st30" d="M209.02,278.33c-4.13,3.06-13.5,9.1-26.71,10.06-21.74,1.58-36.71-11.84-39.44-14.38.98,2.95,2.89,7.32,6.75,11.58,1.87,2.06,3.78,3.65,5.47,4.84,6.33.95,12.67,1.91,19,2.86l20.51-2.28,11.47-6.24c.98-2.14,1.97-4.29,2.95-6.43Z"/>
  <path class="st21" d="M143.54,278.33c.76,1.32,1.92,3.31,3.38,5.71,4.46,7.32,4.98,7.42,6.12,9.69,4.13,8.24,2.11,16.48,3.15,16.6.49.06,1.2-2.28,1.68-4.52.73-3.4,1.34-8.51.35-15.01-3.34-1.54-6.67-3.08-10.01-4.61-1.55-2.62-3.11-5.24-4.66-7.86Z"/>
  <path class="st21" d="M206.75,285.25c-1.9,1.24-4.55,3.06-7.54,5.45-4.78,3.81-5.81,4.64-6.66,5.87-2.23,3.24-2.7,6.53-2.85,7.72-.74,5.67,1.43,9.73.86,9.96-.54.21-2.89-3.2-4.13-7.47-1.61-5.53-.77-10.47,0-13.38,4.01-1.05,8.02-2.1,12.03-3.14l8.28-5Z"/>
  <path class="st21" d="M117.59,284.53c.27-.23,2.47,2.92,7.08,5.55,3.7,2.12,6.97,2.76,6.84,3.54-.08.49-1.43.66-2.57.81-1.94.25-3.55-.02-4.55-.26-5.91-7.62-6.99-9.46-6.79-9.64Z"/>
  <path class="st22" d="M91.04,106.83c.83,1.39,2.14,3.21,4.14,4.91,3.77,3.21,7.83,4.15,9.84,4.47h-10.65l-2.59-5.27-.74-4.11Z"/>
  <path class="st22" d="M282.54,114.49c-.62,1.14-1.52,2.6-2.67,3.9-2.17,2.44-3.97,2.88-4.83,2.97,1.41.34,2.81.68,4.22,1.01l2.13-4.36,1.16-3.52Z"/>
  <path class="st21" d="M114.08,234.03c2.07-.17,7.41-.9,12.42-4.98,4.09-3.32,5.96-7.24,6.73-9.19-.16,1.75-.48,3.78-1.05,6-.44,1.71-.97,3.24-1.5,4.57-1.63,1.06-3.26,2.11-4.89,3.17l-5.23,1.96-6.49-1.53Z"/>
  <path class="st21" d="M272.58,236.28c-2.07-.17-7.41-.9-12.42-4.98-4.09-3.32-5.96-7.24-6.73-9.19.16,1.75.48,3.78,1.05,6,.44,1.71.97,3.24,1.5,4.57,1.63,1.06,3.26,2.11,4.89,3.17l5.23,1.96,6.49-1.53Z"/>
  <polygon class="st31" points="143.09 187.73 166.95 185.11 155.81 271.4 130.81 274.82 142.04 187.88 143.09 187.73"/>
  <polygon class="st31" points="195.76 193.61 223.49 190.99 210.54 277.28 181.49 280.7 194.54 193.76 195.76 193.61"/>
  <polyline class="st31" points="269.38 209.49 263.81 209.6 257.17 212.19 253.45 218.08 252.61 225.98 254.87 230.38 260.96 236.04 265.69 238.73 259.81 285.23 235.34 288.66 246.33 201.72 247.36 201.57 270.72 198.94 269.38 209.49"/>
  <ellipse class="st36" cx="55.69" cy="187.97" rx="16.04" ry="2.84"/>
  <polygon class="st36" points="60.38 190.1 64.4 196.47 66.01 189.87 60.38 190.1"/>
  <polygon class="st36" points="51.54 190.58 49.38 194.44 47.81 190.32 51.54 190.58"/>
  <path class="st36" d="M38.87,244.64c2.41,1.38,9.94,5.28,19.76,3.83,6.79-1,11.57-4.11,13.89-5.87-.02,3.39-.05,6.77-.07,10.16l-17.01.84-16.04-2.87c-.18-2.03-.35-4.06-.53-6.08Z"/>
  <path class="st37" d="M20.07,149.48c1.94,2.27,14.45,16.39,35.23,16.82,17.94.37,29.89-9.72,32.59-12.12-.07,1.27-.13,2.53-.2,3.8-5.98,3.79-11.96,7.57-17.93,11.36-5.04,2.1-9.18,2.64-12,2.76,0,0-3.2.13-15.49-1.77h0l-14.65-8.95-8.17-10.17.61-1.72Z"/>
  <path class="st37" d="M26.45,244.26c2.19,2.18,13.31,12.85,30.91,13.01,18.76.18,30.52-11.7,32.47-13.74-.61,1.8-1.22,3.61-1.83,5.41l-17.24,10.91s-10.93,2.85-11.08,2.86c-.15.01-14.64-1.43-14.64-1.43l-13.85-8.95-7.73-10.17c1,.69,1.99,1.39,2.99,2.08Z"/>
  <path class="st26" d="M20.39,250.51c-.91,1.16-7.4,9.71-4.94,21.13,2.26,10.46,10.35,15.55,11.74,16.39,9.28,2.72,34.22,8.63,56.04-4.39,3.23-1.93,6.1-4.1,8.64-6.38,0,4.1,0,8.21,0,12.31l-25.62,5.44-27.89-1.73-16-3.12-9.85-9.57-4.47-11.11,4.85-13.66,7.5-5.3Z"/>
  <path class="st21" d="M280.39,162.59c-5.37,13.65-13.44,19.42-17.09,21.61-11.18,6.71-26.09,7.01-34.98,7.21-3.25.08-6.69,0-6.7.19-.02.38,13.77,1.26,26.02,1.98l15.05-2.6,9.43-6.3,6.65-8.6c.54-4.5,1.08-9,1.61-13.5Z"/>
  <path class="st10" d="M241.37,109.89s-12.53.12-17.01,7.84"/>
  <path class="st10" d="M169.9,107.6s12.53.12,17.01,7.84"/>
  <path class="st11" d="M214.83,167.89c3.18.41,5.24,1.47,5.12,2.61-.07.65-.83,1.25-2.07,1.71-.82.31-1.86.55-3.05.71"/>
  <path class="st11" d="M214.98,167.06c3.18-.59,5.24-2.08,5.12-3.69-.07-.91-.83-1.77-2.07-2.42-.82-.43-1.86-.78-3.05-1"/>
  <path class="st11" d="M179.48,42.62s7.61-.9,8.66-7.17c.09-.53.32-1.14.66-1.19,1.17-.15,4.42,6.33,3.18,12.54-1.01,5.06-4.65,8.12-6.1,9.21"/>
  <path class="st11" d="M246.5,57.09c-1.81.14-4.77-4.52-5.39-9.64-.77-6.28,2.96-12.5,4.11-12.26.34.07.52.7.57,1.23.58,6.33,8.1,7.8,8.1,7.8,0,0,2.93,12.07-7.39,12.87Z"/>
  <path class="st11" d="M274.47,79.26c8.96-1.87,12.19-19.71,12.19-19.71-1.3-.56-2.6-1.13-3.9-1.69"/>
  <path class="st11" d="M275.34,79.94s8.19-7.08,12.33,1.82c0,0-3.55,8.76-10.3,6.6"/>
  <path class="st11" d="M249.47,42.31c1.43-4.81,2.56-11.44,1.96-25.31-.18-4.17,1.33-5.99,1.95-6.62,3.53-3.57,12.26-2.7,20.59,3.98,0,0,17.88,18.1,7.43,47.95,0,0-7.49,16.12-25.38,15.86-1.57-.02-3.74-.37-6.12-1.6-8.5-4.42-9.12-16.29-9.18-17.69"/>
  <path class="st11" d="M238.55,57.96l2.16.92c1.22-1.34,2.24-2.64,3.12-3.9"/>
  <path class="st17" d="M281.01,25.69s-17.82-6.64-29.51,3.09"/>
  <path class="st17" d="M247.31,48.59"/>
  <path class="st17" d="M284.3,49.98s-15.11-12.65-30.4-5.72"/>
  <path class="st11" d="M186.77,56.86c-3.8-4.86-5.43-9.21-6.23-12.24-1.55-5.89-3.55-11.49-1.31-30.33.49-4.14-.88-6.08-1.45-6.75-3.25-3.82-12.02-3.61-20.83,2.42,0,0-19.18,16.71-11,47.26,0,0,6.26,16.64,24.12,17.72,1.57.09,3.75-.08,6.22-1.14,8.81-3.77,10.32-15.56,10.48-16.95Z"/>
  <path class="st17" d="M149.08,20.73s18.27-5.29,29.2,5.3"/>
  <path class="st17" d="M143.97,44.7s20.99-15.05,37,1.39"/>
  <ellipse class="st15" cx="167.35" cy="131.34" rx="17.35" ry="20.12" transform="translate(29.82 293.65) rotate(-87.85)"/>
  <path class="st4" d="M149.04,123.98c2.28-1.57,8.75-5.58,17.89-5.5,10.25.08,17.2,5.25,19.25,6.9"/>
  <path class="st4" d="M183.85,141.43c-.43-.9-4.33-8.82-13.32-10.61-6.78-1.35-12.08,1.66-13.37,2.44"/>
  <path class="st4" d="M151.18,128.22c2.41-1.54,7.96-4.62,15.55-4.66,11.51-.06,19.08,6.94,20.73,8.54"/>
  <path class="st4" d="M171.88,154.47c-.33,3.57-7.94,6-13.63,6.13-8.67.21-18.3-4.77-18-8.75.29-3.92,10.23-7.38,18.53-6.02,6.12,1.01,13.44,4.99,13.1,8.63Z"/>
  <path class="st6" d="M183.11,131.48c-.06,1.49-1.31,2.65-2.8,2.59-1.49-.06-2.65-1.31-2.59-2.8s1.31-2.65,2.8-2.59c1.49.06,2.65,1.31,2.6,2.8Z"/>
  <path class="st2" d="M155.8,128.53c-.03.83.62,1.53,1.45,1.56s1.53-.62,1.56-1.45-.62-1.53-1.45-1.56-1.53.62-1.56,1.45Z"/>
  <path class="st4" d="M147.9,126.72c.85.3,2,.77,3.28,1.5.82.46,2.75,1.63,4.76,3.68.73.75,1.66,1.81,2.58,3.2.69-.06,1.63-.12,2.76-.09,0,0,3.12.09,6.14,1.01,3.33,1.02,8.11,3.97,12.28,9.15,0,0-12.86,9.98-28.26-3.36,0,0-6.38-7.29-3.54-15.08Z"/>
  <circle class="st2" cx="177.35" cy="136.54" r="1.14"/>
  <ellipse class="st15" cx="244.73" cy="134.44" rx="17.35" ry="20.12" transform="translate(101.2 373.95) rotate(-87.85)"/>
  <path class="st4" d="M263.55,128.48c-2.16-1.74-8.31-6.22-17.42-6.83-10.22-.69-17.54,3.94-19.72,5.43"/>
  <path class="st4" d="M227.53,143.26c.49-.87,4.98-8.47,14.08-9.58,6.87-.84,11.92,2.56,13.15,3.44"/>
  <path class="st4" d="M261.1,132.54c-2.28-1.72-7.6-5.21-15.16-5.81-11.47-.92-19.55,5.49-21.31,6.96"/>
  <path class="st4" d="M238.49,157.16c.06,3.59,7.47,6.58,13.13,7.14,8.63.86,18.61-3.38,18.61-7.37,0-3.93-9.65-8.13-18.03-7.39-6.18.55-13.77,3.96-13.71,7.62Z"/>
  <path class="st6" d="M229.01,133.4c-.06,1.49,1.11,2.74,2.6,2.8,1.49.06,2.74-1.11,2.8-2.59.06-1.49-1.11-2.74-2.59-2.8s-2.74,1.11-2.8,2.59Z"/>
  <path class="st2" d="M256.47,132.5c-.03.83-.73,1.48-1.56,1.45s-1.48-.73-1.45-1.56.73-1.48,1.56-1.45,1.48.73,1.45,1.56Z"/>
  <path class="st4" d="M264.48,131.3c-.87.24-2.05.62-3.38,1.25-.85.4-2.86,1.42-5.02,3.32-.79.69-1.79,1.68-2.81,2.99-.68-.12-1.62-.24-2.74-.3,0,0-3.12-.15-6.2.55-3.39.77-8.38,3.35-12.93,8.2,0,0,12.07,10.92,28.43-1.23,0,0,6.91-6.8,4.66-14.77Z"/>
  <circle class="st2" cx="234.38" cy="138.87" r="1.14"/>
  <path class="st10" d="M213.86,317.17c.19-.3,1.22-2.03.65-4.18-.43-1.62-1.53-2.53-1.91-2.82"/>
  <path class="st10" d="M200.29,311.54c.29.58.77,1.74.76,3.28-.01,1.7-.63,2.95-.95,3.52"/>
  <path class="st11" d="M185.81,293.28c-2.63,8.64-.62,17.52,5.21,22.43,5.02,4.23,11.2,4.12,13.12,4.08,9.04-.19,14.69-6.05,15.74-7.18.6-.71,4.19-5.07,3.39-11.18-.6-4.54-3.28-7.4-4.2-8.29.68-.86,1.39-1.83,2.09-2.91.96-1.49,1.72-2.92,2.33-4.21"/>
  <path class="st10" d="M129.99,316.74c-.19-.3-1.22-2.03-.65-4.18.43-1.62,1.53-2.53,1.91-2.82"/>
  <path class="st10" d="M143.56,311.11c-.29.58-.77,1.74-.76,3.28.01,1.7.63,2.95.95,3.52"/>
  <path class="st11" d="M157.1,290.27s7.37,16.21-4.27,25c-1.65,1.17-6.43,4.22-13.12,4.08-9.04-.19-14.69-6.05-15.74-7.18-.6-.71-4.19-5.07-3.39-11.18.6-4.54,3.28-7.4,4.2-8.29-2.45-1.82-10.03-7.91-13.23-19.06-.57-1.98-.88-3.89-.88-3.89-.33-2.15-.34-4-.28-5.4"/>
  <path class="st11" d="M209.23,280.41c-.28.48-.58.97-.93,1.46-2.72,3.9-6.18,5.82-7.95,6.65-4.5,1.96-12.68,4.84-23.26,4.75-10.81-.09-19.09-3.23-23.57-5.31-2.07-1.14-5.6-3.49-8.19-7.75-1.02-1.67-1.67-3.28-2.1-4.65,0,0,0,0,0,0-.16-.72-.36-1.58-.57-2.58"/>
  <path class="st10" d="M126.97,216.98c.75-.05,1.86-.04,3.13.29,1.14.29,2.03.74,2.64,1.11"/>
  <path class="st10" d="M126.44,223.85c.75-.05,1.86-.04,3.13.29,1.14.29,2.03.74,2.64,1.11"/>
  <path class="st10" d="M124.34,229.99c.75-.05,1.86-.04,3.13.29,1.14.29,2.03.74,2.64,1.11"/>
  <path class="st10" d="M258.8,217.91c-.75-.05-1.86-.04-3.13.29-1.14.29-2.03.74-2.64,1.11"/>
  <path class="st10" d="M259.33,224.78c-.75-.05-1.86-.04-3.13.29-1.14.29-2.03.74-2.64,1.11"/>
  <path class="st10" d="M261.44,230.92c-.75-.05-1.86-.04-3.13.29-1.14.29-2.03.74-2.64,1.11"/>
  <path class="st11" d="M127.23,71.83c-8.92-2.05-10.68-20.57-10.68-20.57,18.23-8.67,27.18,5.34,27.18,5.34,0,0,1.38,19.33-16.5,15.23Z"/>
  <path class="st11" d="M144.23,38.74c-.69-.52-2.08-1.42-4.05-1.78-2.4-.43-4.32.18-5.14.49-.64.18-1.7.59-2.31,1.56-.98,1.55-.21,3.55.22,4.69,2.02,5.28,8.7,10.42,10.65,11.87"/>
  <path class="st11" d="M124.7,80.7c-6.83,1.88-9.78-7.35-9.78-7.35,4.8-8.56,12.43-.89,12.43-.89,0,0,3.24,6.63-2.65,8.25Z"/>
  <path class="st12" d="M113.26,117.64c-13.04-.49-26.08-.98-39.12-1.47l-1.36-.05c-.89.18-1.85.54-2.32,1.36-2.14,3.7,6.99,14.5,17.21,20.01,3.2,1.73,8.49,4.7,15.85,4.68,3.75-.01,6.82-.78,8.88-1.47"/>
  <path class="st11" d="M106.82,158.39c-3.41.27-12.69.52-21.48-5.41-15.72-10.61-14.78-30.87-14.71-31.99"/>
  <path class="st10" d="M84.91,142.36s1.59,6.31,6.13,3.43c.13.44,1.08,3.63,4.15,4.9,2.96,1.22,6.66.16,8.92-2.74"/>
  <path class="st10" d="M96.9,117.83c-6.5-2.89-6.06-13.25-6.06-13.25,4.15,6.05,12.82,7.76,12.82,7.76.06.03,1.4.88,1.37,2.47-.02,1.04-.62,1.99-1.55,2.47-2.19.18-4.38.37-6.58.55Z"/>
  <path class="st10" d="M195.65,48.93c.2.39,1.69,3.16,5.05,3.9,3.57.79,6.22-1.38,6.51-1.63-.68,4.01-1.35,8.02-2.03,12.03-.39-.04-6.54-.84-9.09-6.29-1.71-3.66-.73-7.13-.44-8.02Z"/>
  <path class="st10" d="M238.56,50.82c-.23.37-1.93,3.02-5.33,3.51-3.62.52-6.1-1.84-6.37-2.11.37,4.05.75,8.1,1.12,12.15.39-.01,6.58-.35,9.54-5.59,1.98-3.52,1.26-7.05,1.04-7.96Z"/>
  <path class="st12" d="M278.65,146.95c1.05-.28,3.11-.89,5.56-1.96,10.84-4.74,20.54-14.78,18.66-18.66-.41-.85-1.35-1.29-2.22-1.53-.45-.02-.91-.03-1.36-.05-7.6-.29-15.2-.57-22.8-.86"/>
  <path class="st11" d="M280.39,162.59c1.87-.52,3.52-1.21,4.96-1.98,14.02-7.43,16.57-26.24,17.07-30.79"/>
  <path class="st10" d="M286.59,150.05s-2.06,6.18-6.37,2.96"/>
  <path class="st10" d="M276.5,123.89c6.7-2.4,7.04-12.75,7.04-12.75,0,0-1.51,2.44-7.3,6.04"/>
  <path class="st11" d="M216.43,69.68c2.91.08,6.03.16,8.39-1.78,3.09-2.54,2.85-6.89,2.7-9.75,0,0-.35-6.39-5.08-11.93-.6-.7-1.43-1.52-1.43-1.52-.92-.91-1.45-1.32-1.69-1.49-.89-.65-1.43-.87-1.98-.94-.23-.03-.41-.02-.52-.03-.74,0-1.41.22-2.72,1.05-1.97,1.25-2.85,2.01-3.67,2.91-4.4,4.8-4.95,11.12-4.95,11.12-.28,3.2-.63,7.26,2.22,9.93,2.4,2.26,5.81,2.35,8.73,2.42Z"/>
  <path class="st9" d="M209.16,49.94c1.31.71,3.81,1.84,7.13,1.97,4.17.16,7.28-1.33,8.61-2.08"/>
  <path class="st9" d="M206.63,55.03c1.69,1,4.67,2.44,8.64,2.87,5.65.6,10.01-1.22,11.87-2.13"/>
  <path class="st9" d="M206.11,60.11c1.53.97,5.09,2.93,10.04,3.12,5,.2,8.73-1.51,10.33-2.36"/>
  <path class="st11" d="M91.49,156.19c.13,44.46.26,88.92.39,133.37"/>
  <path class="st11" d="M114.93,281.62c-11.95,5.47-31.86,12.64-57.15,12.86-14.04.12-26.06-1.92-35.36-4.29-11.18-8.2-13.32-14.86-13.57-19.78-.69-13.81,15.71-23.86,15.71-23.86-4.98-7.68-18.52-30.76-15.46-61.52,1.68-16.96,7.78-29.89,12.25-37.58-1.36-1.88-2.76-4.06-4.07-6.56-2.97-5.68-4.45-11.02-5.22-15.2-.41-4.15-.9-15.3,6.25-25.17,2.01-2.77,4.22-4.89,6.25-6.49,13.51-10.66,35.22-11.82,52.4-4.7,4.29,1.78,10.81,5.1,17.54,11.45"/>
  <path class="st11" d="M21.35,147.45c2.87,2.63,15.71,13.82,34.92,13.42,13.75-.29,23.55-6.36,27.43-9.08"/>
  <path class="st11" d="M20.39,239.85s30.91,28.32,70.61,2.67"/>
  <path class="st11" d="M19.42,150.94s30.71,45.93,70.25,4.89"/>
  <path class="st11" d="M21.35,240.68s30.33,46.31,69.29,4.37"/>
  <line class="st11" x1="77.73" y1="89.91" x2="95.76" y2="92.92"/>
  <path class="st10" d="M60.68,191.42c-1.49.09-3.06.13-4.69.13s-3.17-.05-4.64-.13"/>
  <path class="st10" d="M48.14,191.16c-5.33-.57-8.97-1.71-8.97-3.02,0-1.89,7.53-3.42,16.82-3.42s16.82,1.53,16.82,3.42c0,1.11-2.59,2.09-6.61,2.72"/>
  <line class="st10" x1="72.82" y1="189.11" x2="72.82" y2="250.78"/>
  <line class="st10" x1="39.17" y1="188.84" x2="39.17" y2="250.51"/>
  <path class="st10" d="M50.12,216.3c2.41.7,5.05.92,7.78.2v36.45"/>
  <polyline class="st9" points="47.46 214.95 47.06 219.5 49.58 216.41"/>
  <polyline class="st9" points="48.56 190.92 49.14 195.42 50.79 191.66"/>
  <polyline class="st9" points="65.8 190.46 64.74 197.71 61.32 191.61"/>
  <path class="st10" d="M39.17,209.3s3.2,3.56,7.91,5.82"/>
  <path class="st5" d="M51.62,187.11c8.05-.48,12.14-.35,12.29.4.07.38-.84.91-2.74,1.59"/>
  <path class="st11" d="M119,62.13c-2.05.69-3.51,1.36-4.56,1.98-6.16,3.62-10.09,8.57-10.09,8.57-3.29,4.06-5.61,10.87-7.62,18.83-1.54,6.09-2.09,11.55-2.23,15.95"/>
  <path class="st11" d="M194.91,56.14c-2.97,0-5.94.02-8.91.03"/>
  <path class="st11" d="M214.3,57.23"/>
  <path class="st11" d="M270.03,75.32c1.46,1.49,2.52,2.88,3.21,3.89.95,2.08,2.26,5.39,3,9.63.5,2.89.57,5.18.58,6.58.06,6.58-.48,22.11-1.6,42.66,8.99,23.94,5.04,37.85-2.46,45.92-1.67,1.88-4.24,4.3-7.9,6.27-7.22,3.89-14.18,3.62-17.21,3.3-8.28-.6-16.55-1.2-24.83-1.8"/>
  <path class="st11" d="M100.1,159.01c-.25,2.17-.62,7.89,2.74,13.63,5.59,9.57,16.57,10.75,17.77,10.86"/>
  <line class="st11" x1="270.16" y1="209" x2="271.5" y2="198.67"/>
  <line class="st11" x1="260.43" y1="284.36" x2="266.47" y2="237.61"/>
  <polyline class="st11" points="233.91 287.37 234.84 287.71 260.35 285.02 260.43 284.36"/>
  <polyline class="st11" points="110.39 262.64 110.35 262.99 130.11 274.19 155.63 271.5 181.62 280.84 210.07 278.53 233.91 287.37"/>
  <polyline class="st11" points="121.84 176.09 141.86 187.31 167.7 184.67 194.02 194.05 222.81 191.78 247.9 201 271.57 198.08"/>
  <path class="st11" d="M113.94,235.13c-1.18,9.17-2.37,18.33-3.55,27.5"/>
  <line class="st11" x1="117.77" y1="205.5" x2="117.67" y2="206.26"/>
  <line class="st11" x1="121.56" y1="176.13" x2="117.77" y2="205.5"/>
  <line class="st11" x1="142.04" y1="187.33" x2="130.81" y2="274.28"/>
  <line class="st11" x1="166.84" y1="185.42" x2="155.73" y2="271.5"/>
  <line class="st11" x1="166.95" y1="184.56" x2="155.81" y2="270.85"/>
  <line class="st11" x1="193.33" y1="194.29" x2="182.19" y2="280.58"/>
  <line class="st11" x1="222.75" y1="191.91" x2="211.61" y2="278.2"/>
  <line class="st11" x1="247.07" y1="201.23" x2="235.93" y2="287.52"/>
  <path class="st11" d="M266.45,237.61c1.59-.18,3.17-.36,4.76-.54.57-.21,1.35-.54,2.2-1.07,5.16-3.25,7.8-10.87,6.1-17.4-1.16-4.49-4.08-7.33-5.66-8.64"/>
  <path class="st11" d="M270.76,204.35c1.77-.52,3.59.39,4.16,1.92.47,1.25.05,2.75-1.07,3.69-1.77-.27-3.54-.53-5.31-.8-1.65-.07-6.94-.15-11.07,2.62-4.39,2.93-4.57,7.14-4.71,10.15-.11,2.47-.39,8.88,5.74,13.01,2.53,1.7,5.28,2.43,7.03,2.77.3-.03.6-.07.9-.1"/>
  <path class="st11" d="M119.9,235.74c-1.59-.18-3.17-.36-4.76-.54-.57-.21-1.35-.54-2.2-1.07-5.16-3.25-7.8-10.87-6.1-17.4,1.16-4.49,4.08-7.33,5.66-8.64"/>
  <path class="st11" d="M117.67,202.34c-2.91-1.09-5.66.22-6.26,2.07-.57,1.75.95,3.55,1.07,3.69,1.77-.27,3.54-.53,5.31-.8,1.65-.07,6.94-.15,11.07,2.62,4.39,2.93,4.57,7.14,4.71,10.15.11,2.47.39,8.88-5.74,13.01-2.53,1.7-5.28,2.43-7.03,2.77-.3-.03-.6-.07-.9-.1"/>
  <polygon class="st10" points="290.53 323.81 266.95 326.09 268.26 319.72 289.61 320.38 290.53 323.81"/>
  <polygon class="st10" points="323.89 323.81 300.31 326.09 301.62 319.72 322.97 320.38 323.89 323.81"/>
  <polygon class="st10" points="357.24 323.81 333.66 326.09 334.97 319.72 356.32 320.38 357.24 323.81"/>
  <polygon class="st10" points="256.15 324.34 232.57 326.61 233.88 320.24 255.23 320.91 256.15 324.34"/>
</svg>