<?xml version="1.0" encoding="UTF-8"?>
<svg id="Layer_1" xmlns="http://www.w3.org/2000/svg" version="1.1" viewBox="0 0 365 335">
  <!-- Generator: Adobe Illustrator 29.7.1, SVG Export Plug-In . SVG Version: 2.1.1 Build 8)  -->
  <defs>
    <style>
      .st0 {
        fill: #25544e;
      }

      .st1 {
        fill: #bf6421;
      }

      .st2, .st3, .st4, .st5, .st6, .st7, .st8, .st9 {
        fill: none;
        stroke-linecap: round;
        stroke-linejoin: round;
      }

      .st2, .st3, .st4, .st9 {
        stroke: #231f20;
      }

      .st2, .st6 {
        stroke-width: 2px;
      }

      .st10 {
        fill: #fdbb28;
      }

      .st11 {
        fill: #fff;
      }

      .st3, .st8 {
        stroke-width: 4px;
      }

      .st12 {
        fill: #44968e;
      }

      .st4, .st7 {
        stroke-width: 3px;
      }

      .st13 {
        fill: #231f20;
      }

      .st5, .st6, .st7, .st8 {
        stroke: #000;
      }

      .st14 {
        fill: #bc8a26;
      }

      .st15 {
        fill: #edb38b;
      }

      .st16 {
        fill: #cc6274;
      }

      .st17 {
        fill: #ef9eb0;
      }

      .st18 {
        fill: #fb7800;
      }
    </style>
  </defs>
  <path class="st4" d="M125.92,240.36s-15.3,44.31,3.1,62.97c0,0-9.35,7.65-2.02,20.33,0,0,12.18,14.13,31.37,3.28,0,0,11.6-9.09,4.47-26.16,0,0-12.97-3.44-17.07-11.53"/>
  <path class="st4" d="M230.17,236.29c.54,1.42,1.08,2.83,1.62,4.25,0,0,15.3,44.31-3.1,62.97,0,0,9.35,7.65,2.02,20.33,0,0-12.18,14.13-31.37,3.28,0,0-11.6-9.09-4.47-26.16"/>
  <path class="st4" d="M207.17,162.39h-56.94c.08,2.4.73,14.49,10.56,23.21,1.97,1.75,8.22,7.12,17.91,7.6,2.42.12,10.94.24,18.48-5.79,11.39-9.1,10.11-23.89,9.99-25.02Z"/>
  <path class="st2" d="M158.63,183.47c3.43-1.85,10.95-5.31,21.07-5.22,10.19.09,17.69,3.72,21.08,5.63"/>
  <path class="st2" d="M260.07,213.23c1.88,1.29,3.92,2.83,6,4.67,2.63,2.32,4.79,4.62,6.55,6.71"/>
  <path class="st2" d="M250.87,232.31c-.66-3.05-1.32-6.1-1.98-9.14"/>
  <path class="st2" d="M134.26,329.16c-.2-.31-1.28-2.12-.68-4.37.45-1.69,1.6-2.65,1.99-2.95"/>
  <path class="st2" d="M148.46,323.28c-.3.61-.81,1.82-.8,3.43.01,1.78.66,3.09,1,3.68"/>
  <path class="st2" d="M224.07,328.55c.2-.31,1.28-2.12.68-4.37-.45-1.69-1.6-2.65-1.99-2.95"/>
  <path class="st2" d="M209.87,322.66c.3.61.81,1.82.8,3.43-.01,1.78-.66,3.09-1,3.68"/>
  <polygon class="st2" points="165.82 169.62 170.89 162.82 163.6 163.06 165.82 169.62"/>
  <polygon class="st2" points="191.83 169.62 186.76 162.82 194.05 163.06 191.83 169.62"/>
  <path class="st3" d="M82.76,123.35h-31.32c-.92.22-1.91.64-2.38,1.51-2.1,3.95,7.88,14.89,18.78,20.24,6.56,3.22,12.72,4.06,16.76,4.27"/>
  <path class="st4" d="M88.7,166.2c-3.55.41-13.25,1.05-22.67-4.81-16.86-10.48-16.67-31.7-16.64-32.87"/>
  <path class="st2" d="M65.16,150.31s1.91,6.54,6.54,3.35c.15.46,1.27,3.76,4.53,4.96,3.14,1.16,6.97-.1,9.22-3.21"/>
  <path class="st4" d="M150.54,58.05c-4.16-4.93-6.04-9.42-6.99-12.55-1.85-6.1-4.17-11.87-2.56-31.66.35-4.35-1.16-6.32-1.78-7-3.55-3.87-12.71-3.3-21.68,3.35,0,0-19.4,18.23-9.65,49.84,0,0,7.2,17.15,25.92,17.58,1.65.04,3.92-.24,6.46-1.44,9.06-4.28,10.18-16.67,10.29-18.13Z"/>
  <path class="st4" d="M107.54,58.95s-9.92-14.3-28.63-4.51c0,0,2.68,18.78,11.98,21.09"/>
  <path class="st4" d="M105.13,38.7c-.75-.52-2.23-1.41-4.31-1.7-2.52-.36-4.51.35-5.36.72-.67.21-1.75.68-2.35,1.73-.96,1.66-.09,3.72.42,4.89,2.32,5.44,9.51,10.56,11.6,12"/>
  <path class="st2" d="M83.59,117.35s-9.13-1.45-13.71-7.61c0,0-.06,10.84,6.86,13.61"/>
  <path class="st4" d="M109.71,21.76s18.89-6.25,30.74,4.39"/>
  <path class="st4" d="M105.31,47.02s21.35-16.56,38.74,0"/>
  <path class="st4" d="M142.88,43.34s7.92-1.24,8.77-7.84c.08-.65.32-1.23.65-1.27,1.22-.15,5.23,7.93,2.72,15.27-1.32,3.87-4.01,6.23-5.47,7.32"/>
  <path class="st4" d="M215.35,45.03s-7.92-1.24-8.77-7.84c-.08-.65-.32-1.23-.65-1.27-1.22-.15-5.23,7.93-2.72,15.27,1.32,3.87,4.01,6.23,5.47,7.32"/>
  <path class="st2" d="M160.88,41.67c.12.44,1.03,3.61,4.3,5.12,3.47,1.61,6.66-.02,7.02-.21-2.07,3.83-4.13,7.65-6.2,11.48-.6-.29-5.28-2.67-6.45-8.08-.9-4.18.86-7.47,1.33-8.3Z"/>
  <path class="st2" d="M197.47,41.67c-.12.44-1.03,3.61-4.3,5.12-3.47,1.61-6.66-.02-7.02-.21,2.07,3.83,4.13,7.65,6.2,11.48.6-.29,5.28-2.67,6.45-8.08.9-4.18-.86-7.47-1.33-8.3Z"/>
  <path class="st9" d="M144.21,159.51c-.21,3.75-8.06,6.58-14.01,6.95-9.06.56-19.32-4.27-19.17-8.44.15-4.11,10.4-8.12,19.14-7.02,6.44.81,14.25,4.68,14.04,8.51Z"/>
  <path class="st3" d="M275.41,123.55c9.96,0,19.93,0,29.89,0h1.43c.92.22,1.91.64,2.38,1.51,2.1,3.95-7.88,14.89-18.78,20.24-6.56,3.22-12.72,4.06-16.76,4.27"/>
  <path class="st4" d="M267.44,165.78c3.1.59,14.08,2.28,24.7-4.18,10.89-6.63,17.19-19.27,16.64-32.87"/>
  <path class="st2" d="M293.01,150.51s-1.91,6.54-6.54,3.35c-.15.46-1.27,3.76-4.53,4.96-3.14,1.16-6.97-.1-9.22-3.21"/>
  <path class="st4" d="M207.64,58.25c4.16-4.93,6.04-9.42,6.99-12.55,1.85-6.1,4.17-11.87,2.56-31.66-.35-4.35,1.16-6.32,1.78-7,3.55-3.87,12.71-3.3,21.68,3.35,0,0,19.4,18.23,9.65,49.84,0,0-7.2,17.15-25.92,17.58-1.65.04-3.92-.24-6.46-1.44-9.06-4.28-10.18-16.67-10.29-18.13"/>
  <path class="st4" d="M250.63,59.15s9.92-14.3,28.63-4.51c0,0-2.68,18.78-11.98,21.09"/>
  <path class="st4" d="M253.04,38.9c.75-.52,2.23-1.41,4.31-1.7,2.52-.36,4.51.35,5.36.72.67.21,1.75.68,2.35,1.73.96,1.66.09,3.72-.42,4.89-2.32,5.44-9.51,10.56-11.6,12"/>
  <path class="st4" d="M268.21,76.4s8.28-7.72,12.96,1.42c0,0-3.37,9.3-10.51,7.3"/>
  <path class="st4" d="M89.93,76.51s-8.28-7.72-12.96,1.42c0,0,3.37,9.3,10.51,7.3"/>
  <path class="st2" d="M274.58,117.55s9.13-1.45,13.71-7.61c0,0,.06,10.84-6.86,13.61"/>
  <path class="st4" d="M248.46,21.96s-18.89-6.25-30.74,4.39"/>
  <path class="st4" d="M252.86,47.22s-21.35-16.56-38.74,0"/>
  <path class="st9" d="M213.96,159.71c.21,3.75,8.06,6.58,14.01,6.95,9.06.56,19.32-4.27,19.17-8.44-.15-4.11-10.4-8.12-19.14-7.02-6.44.81-14.25,4.68-14.04,8.51Z"/>
  <path class="st4" d="M179.63,69.35c3.05-.04,6.32-.07,8.7-2.19,3.13-2.78,2.71-7.31,2.44-10.3,0,0-.61-6.67-5.78-12.28-.65-.71-1.55-1.53-1.55-1.53-1-.92-1.57-1.32-1.82-1.49-.96-.65-1.53-.85-2.11-.9-.24-.02-.43,0-.55,0-.77.02-1.47.29-2.8,1.21-2.01,1.38-2.9,2.22-3.72,3.18-4.41,5.19-4.73,11.82-4.73,11.82-.16,3.36-.37,7.61,2.71,10.3,2.6,2.26,6.17,2.23,9.22,2.19Z"/>
  <path class="st9" d="M171.25,48.99c1.4.69,4.05,1.77,7.54,1.78,4.37,0,7.56-1.68,8.92-2.51"/>
  <path class="st9" d="M168.8,54.42c1.81.97,4.98,2.37,9.15,2.66,5.93.41,10.42-1.66,12.33-2.69"/>
  <path class="st9" d="M168.46,59.74c1.64.95,5.43,2.86,10.62,2.87,5.24.01,9.07-1.92,10.71-2.88"/>
  <path class="st4" d="M107.75,59.74c-10.39,4.18-32.47,22.23-20.76,99.98,0,0,6.97,35.58,56.66,37.99,0,0,27.15,2.64,32.25,2.65l6.62-.09c9.94.12,21.58-.59,34.38-3.07,5.19-1,10.04-2.2,14.56-3.5"/>
  <line class="st4" x1="167.12" y1="58.05" x2="150.54" y2="58.18"/>
  <path class="st9" d="M179.04,41.03"/>
  <path class="st4" d="M207.64,58.25c-5.44-.11-10.87-.22-16.31-.33"/>
  <path class="st4" d="M259.66,179.62c2.47-3.6,5.78-9,8.7-15.96,8.61-20.51,7.3-38.95,5.83-55.81-1.51-17.36-5.76-38.83-22.04-47.66"/>
  <path class="st4" d="M152.77,214.78"/>
  <path class="st4" d="M179.02,210c3.48-.02,11.2-.06,18.13,3.56,12.26,6.41,16.14,20.95,18.17,31.03,3.88,19.21-.69,39.77-.69,39.77-.44,1.72-1.3,4.21-3.1,6.79-2.85,4.08-6.46,6.09-8.32,6.96-4.71,2.05-13.27,5.06-24.34,4.97-11.31-.09-19.98-3.38-24.66-5.55-2.16-1.19-5.86-3.65-8.57-8.11-1.06-1.75-1.75-3.43-2.2-4.87,0,0,0,0,0,0-1.38-6.04-4.92-22.25-.69-39.77,2.4-9.97,5.91-24.52,18.17-31.03,6.95-3.69,14.69-3.73,18.09-3.75Z"/>
  <path class="st4" d="M126.62,202.32c-4.49-2.94-9.47-5.2-14.81-6-18.12-2.71-34.41,11.02-52.57,7.56,8.21,2.55,22.22,9.36,17.65,20.21,1.22-.93,5.1-3.63,10.48-3.37,2.72.13,4.85.97,6.18,1.64"/>
  <path class="st2" d="M120.98,204.68c-7.48-4.72-16.65-4.1-24.96-2.38-9.28,1.92-18.99,6.44-28.61,5.03"/>
  <path class="st2" d="M112.92,201.57s-24.76,7.62-36.03,22.51"/>
  <path class="st2" d="M106.59,212.27c.53-1.47,1.42-3.46,2.95-5.54,1.69-2.3,3.51-3.84,4.85-4.8"/>
  <path class="st4" d="M268.08,202.86c2.35.68,4.94,1.3,7.75,1.78,5.69.98,10.83,1.17,15.13,1-1.43.44-2.97,1.01-4.45,1.15,1.39-.6,2.97-.86,4.45-1.15-8.96,2.73-21.2,8.77-17.65,20.21-4.49-2.31-1.15-2.65,0,0-7.88-6.61-21.11-2.65-22.76,7.87-2.5-3.26.62-2.85,0,0-.26-.51-1.95-3.74-5.73-4.68-2.48-.62-4.54.08-5.32.4"/>
  <path class="st2" d="M265.43,207.16c2.06.71,4.6,1.39,7.56,1.8,3.85.53,7.21.41,9.79.13"/>
  <path class="st4" d="M147.99,228.6s30.84,14.63,62,0"/>
  <path class="st4" d="M141.83,251.69s36.28,19.93,74.19-.2"/>
  <path class="st4" d="M141.73,272.95s36.28,19.93,74.19-.2"/>
  <path class="st2" d="M90.27,235.36c.45-.64,1.19-1.54,2.3-2.35.99-.73,1.95-1.16,2.64-1.4"/>
  <path class="st2" d="M93.01,242.21c.45-.64,1.19-1.54,2.3-2.35.99-.73,1.95-1.16,2.64-1.4"/>
  <path class="st2" d="M97.68,248.43c.45-.64,1.19-1.54,2.3-2.35.99-.73,1.95-1.16,2.64-1.4"/>
  <path class="st2" d="M258.3,180.1c-.76.2-1.85.59-3,1.35-1.03.68-1.75,1.43-2.23,2"/>
  <path class="st2" d="M263.78,185.03c-.76.2-1.85.59-3,1.35-1.03.68-1.75,1.43-2.23,2"/>
  <path class="st2" d="M268.01,191.56c-.76.2-1.85.59-3,1.35-1.03.68-1.75,1.43-2.23,2"/>
  <path class="st4" d="M123.6,252.79"/>
  <path class="st4" d="M124.32,248c-3.54,4.98-7.07,9.96-10.61,14.95-2.21,3.33-6.15,8.22-12.53,12.05-13.93,8.37-28.64,5.16-32.11,4.31,0,0-7.02,21.27,54.03,17.65"/>
  <path class="st4" d="M70.4,279.03c.44-1.55,1.22-3.79,2.67-6.25,1.42-2.4,2.24-3.62,3.25-3.83,2.09-.44,5.07,3.51,7.56,9.35"/>
  <path class="st4" d="M85.58,278.36c-.01-1.61.11-3.98.82-6.75.69-2.7,1.13-4.1,2.05-4.59,1.88-1.01,5.85,1.95,9.88,6.85"/>
  <path class="st4" d="M99.38,274.02c-.64-1.48-1.44-3.72-1.85-6.54-.41-2.76-.54-4.22.12-5.02,1.35-1.65,6.15-.46,11.76,2.51"/>
  <path class="st4" d="M109.91,264.64c-.86-1.37-1.99-3.45-2.84-6.18-.83-2.66-1.18-4.09-.65-4.98,1.08-1.84,6.01-1.4,12.01.67"/>
  <path class="st4" d="M115.98,246.53"/>
  <path class="st4" d="M119.2,252.52c-.83-1.15-1.9-2.84-2.84-5.04"/>
  <path class="st13" d="M153.34,135.98c-8.51-2.17-17.38-2.71-25.95-.89-4.92,1.54-9.72,2.73-14.88,3.28,0,0-1.13-5.33-1.13-5.33,2.06.58,4.12,1.3,6.01,2.36.22.13.3.41.17.63-1.82,1.27-4.07,1.91-6.16,2.57-2.65.78-4.43-2.75-2.28-4.43,0,0,1.15-.91,1.15-.91,4.6-3.77,10.5-5.43,16.38-5.05,5.71-.06,11.5.62,16.89,2.41,3.57,1.15,6.98,2.7,10.12,4.62.38.23.13.86-.31.74h0Z"/>
  <path class="st13" d="M207.9,136.64c8.01-4.95,17.57-7.21,27.01-7.03,5.88-.37,11.78,1.28,16.38,5.05,0,0,1.15.9,1.15.9,1.1.87,1.29,2.46.42,3.56-.66.83-1.74,1.14-2.7.87-1.51-.43-3.04-.97-4.5-1.64-.46-.32-2.02-.63-1.66-1.41,1.83-1.26,4.09-1.88,6.18-2.53,0,0-1.13,5.33-1.13,5.33-5.17-.55-9.96-1.74-14.88-3.28-3.34-.79-6.76-1-10.2-1.08-5.32-.05-10.53.63-15.75,1.98-.42.13-.71-.51-.31-.74h0Z"/>
  <path class="st4" d="M220.24,237.86c3.68-1.14,7.77-2.65,12.09-4.69,1.84-.87,3.73-1.83,5.65-2.89,13.15-7.31,22.01-16.43,27.45-23.12"/>
  <path class="st4" d="M96.79,219.39c-3.37,2.57-4.5,4.05-5.6,8.11-1.21,4.48-1.34,9.33.4,13.69.45,1.13,3.54,8.73,10.39,10.44,5,1.25,9.28-1.33,15.95-5.5,4.48-2.8,10.8-7.43,17.17-14.82"/>
  <path class="st4" d="M121.78,204.43c-9.04,3.66-17.48,8.74-25,14.96"/>
  <path class="st4" d="M147.11,198.14c-8.34.87-16.57,2.85-24.37,5.91"/>
  <path class="st4" d="M199.93,199.71c3.14-.42,7.97-.67,13.61.64,4.16.97,7.47,2.48,9.82,3.8"/>
  <path class="st4" d="M265.04,207.75c2.72-3.24,3.5-4.94,3.68-9.14.2-4.63-.74-9.39-3.39-13.27-.68-1-5.37-7.74-12.43-7.91-1.66-.04-5.07,0-14.36,8.86-4.04,3.85-9.57,9.71-15.18,17.86"/>
  <polygon class="st18" points="274.28 119.13 278.16 117.17 284.33 114.11 286.33 112.49 288.06 110.56 287.58 114.84 284.87 121.33 279.03 125.42 275.94 124.56 274.28 119.13"/>
  <polygon class="st18" points="83.86 118.04 79.98 116.09 73.81 113.02 71.81 111.41 70.08 109.48 70.57 113.76 73.28 120.24 79.12 124.34 82.2 123.48 83.86 118.04"/>
  <polygon class="st10" points="191.03 58.54 194.13 56.54 197.03 53.13 198.48 48.58 198.04 43.58 197.68 43.38 196.4 43 194.75 45.57 192.36 46.54 190.38 47.75 188.02 47.75 187.33 48.62 189.71 55.41 191.03 58.54"/>
  <polygon class="st10" points="166.79 58.54 163.68 56.54 160.78 53.13 159.33 48.58 159.77 43.58 160.13 43.38 161.41 43 163.06 45.57 165.45 46.54 167.43 47.75 169.79 47.75 170.48 48.62 168.1 55.41 166.79 58.54"/>
  <polygon class="st18" points="105.31 55.39 105.13 42.79 105.13 39.08 96.68 37.28 93.11 39.83 92.85 42.79 96.33 49.06 101.31 53.97 105.31 55.39"/>
  <polygon class="st18" points="252.16 55.39 252.34 42.79 252.34 39.08 260.78 37.28 264.36 39.83 264.62 42.79 261.13 49.06 256.15 53.97 252.16 55.39"/>
  <polygon class="st18" points="144.05 43.42 148.51 41.68 152.86 37.35 154.68 35.38 154.68 39.77 155.82 44 153.85 53.29 151.52 54.84 150.03 57.29 145.71 50.32 144.05 43.42"/>
  <polygon class="st18" points="214.78 45.11 210.32 43.37 205.97 39.04 204.15 37.07 204.15 41.46 203 45.69 204.98 54.99 207.31 56.53 208.8 58.98 213.12 52.01 214.78 45.11"/>
  <path class="st18" d="M263.46,51.67l9.78.55,4.74,2.3,1.05,1.13-.17,2.99-1.88,6.21-3.59,7.73-3.93,2.59-3.06.69-2.94-4.9-3.81-5.06-5.38-4.27-2.52-1.75,1.67-3.21s9.59-4.95,10.04-5Z"/>
  <path class="st18" d="M94.61,51.67l-9.78.55-4.74,2.3-1.05,1.13.17,2.99,1.88,6.21,3.59,7.73,3.93,2.59,3.06.69,2.94-4.9,3.81-5.06,5.38-4.27,2.52-1.75-1.67-3.21s-9.59-4.95-10.04-5Z"/>
  <polygon class="st18" points="277.43 73.59 279.59 75.35 280.95 78.68 278.44 81.45 274.47 84.69 270.44 84.75 267.62 77.45 273.55 73.59 277.43 73.59"/>
  <polygon class="st18" points="80.71 73.91 78.56 75.67 77.19 79 79.71 81.77 83.67 85.01 87.71 85.07 90.53 77.77 84.59 73.91 80.71 73.91"/>
  <polygon class="st18" points="70.4 279.81 79.56 280.94 85.78 280.94 85.05 279.36 80.38 271.35 76.82 268.92 74.29 272.59 70.4 279.81"/>
  <polygon class="st18" points="84.26 278.83 93.48 278.75 99.65 277.93 98.72 276.47 93.04 269.14 89.19 267.2 87.17 271.17 84.26 278.83"/>
  <polygon class="st18" points="99.69 274.62 107.26 269.35 111.89 265.19 110.29 264.5 101.46 261.66 97.19 262.24 97.77 266.65 99.69 274.62"/>
  <polygon class="st18" points="109.2 265.48 116.77 260.2 121.4 256.04 119.8 255.36 110.98 252.52 106.7 253.09 107.28 257.51 109.2 265.48"/>
  <polygon class="st18" points="115.39 246.52 118.28 250.36 120.63 252.56 121.12 251.49 123.27 245.68 123.11 243.16 120.37 244.16 115.39 246.52"/>
  <path class="st10" d="M84.89,150.37c-1.82-.66-3.63-1.32-5.45-1.98l-11.88-4.09-9.33-6.12-7.93-4.48c-.23,1.83-.47,3.66-.7,5.49,2.13,4.56,4.27,9.12,6.4,13.67,2.44,2.54,4.88,5.08,7.33,7.62,2.14,1.27,4.84,2.64,8.05,3.81,2.9,1.05,5.56,1.7,7.84,2.12,3.65-.21,7.31-.43,10.96-.64-1.76-5.13-3.52-10.27-5.28-15.4Z"/>
  <path class="st10" d="M273.28,150.61c1.82-.66,3.63-1.32,5.45-1.98l11.88-4.09,9.33-6.12,7.93-4.48c.23,1.83.47,3.66.7,5.49-2.13,4.56-4.27,9.12-6.4,13.67-2.44,2.54-4.88,5.08-7.33,7.62-2.14,1.27-4.84,2.64-8.05,3.81-2.9,1.05-5.56,1.7-7.84,2.12-3.65-.21-7.31-.43-10.96-.64,1.76-5.13,3.52-10.27,5.28-15.4Z"/>
  <path class="st12" d="M118.57,57.11l-10.52,1.32-7.13,4.91c-2.01,2.41-4.01,4.83-6.02,7.24-1.96,3.85-3.92,7.7-5.88,11.55-.99,2.46-1.98,4.92-2.97,7.38l-.8,14.12c-.6,5.09-1.2,10.18-1.8,15.26.14,6.43.52,13.28,1.21,20.5.9,9.33,2.21,17.98,3.74,25.87l3.66,6.99,9.89,10.4,14.47,8.68,28.07,6.61,30.2,2.42,37.16-2.12,27.62-6.05,6.14-2.27c5.19-3.9,10.37-7.79,15.56-11.69,1.9-3.69,3.77-7.71,5.55-12.05,3.5-8.55,5.87-16.59,7.51-23.74.14-7.73.28-15.46.43-23.19-.68-8.68-1.35-17.35-2.03-26.03-1.73-5.91-3.46-11.81-5.19-17.72-3.49-4.3-6.99-8.61-10.48-12.91-3.44-1.87-6.89-3.74-10.33-5.61l-52.05,1.09-76.01-.99Z"/>
  <polygon class="st12" points="208.05 199.37 220.82 202.86 223.37 204.15 236.41 188.38 248.89 177.81 256.9 178.25 261.17 180.1 267.44 188.38 268.75 200.36 267.44 204.43 254.4 219.39 246.06 225.75 229.76 235.1 231.45 239.63 236.53 260.48 237.75 281.75 232.04 299.28 228.69 303.5 233.11 310.96 232.78 319.13 229.65 324.89 223.59 328.94 216.02 331.03 206.91 329.77 196.83 325.5 193.05 316.25 193.63 304.48 193.76 302.09 164.65 301.23 164.25 304.91 163.62 319.45 156.76 327.8 149.7 330.39 138.1 329.77 132.17 327.73 127.89 323.28 124.25 315.47 126.57 306.22 129.29 302.22 124.65 297.37 120.61 289.58 120.61 275.41 120.61 260.48 124.44 247.48 125.33 242.21 114.39 248 104.4 252.52 95.22 247.48 89.59 239.54 89.59 232.31 91.95 225.14 95.48 220.43 113.54 208.25 131.08 200.37 139.12 198.14 208.05 199.37"/>
  <polygon class="st12" points="120.58 204.43 118.43 203.3 107.72 200.37 96.03 202.3 80.29 206.43 73 207.6 68.05 207.6 61.25 204.05 78.77 202.37 89.59 199.14 99.17 195.96 114.39 196.82 126.01 201.93 120.58 204.43"/>
  <polygon class="st12" points="282.78 209.09 286.51 206.79 282.78 205.49 270.23 204.15 266.35 204.15 267.3 207.75 282.78 209.09"/>
  <polygon class="st12" points="69.39 280.04 88.1 279.9 101.18 275 115.16 262.14 121.25 252.32 120.9 286.65 124.32 295.74 117.78 297.95 82.11 294.04 70.4 287.22 69.39 280.04"/>
  <polygon class="st12" points="83.69 123.55 51.44 123.35 49.06 124.86 51.29 130.05 61.25 142.14 73.86 147.49 85.51 150.31 83.69 123.55"/>
  <path class="st12" d="M275.41,123.55c1.58-.56,33.4-.2,33.4-.2l-.03,5.38-6.33,8.1-17.5,10.66-8.84,1.88h-3.62l2.94-25.82Z"/>
  <path class="st18" d="M177.55,41.67l-6.28,4.9-3.2,9.96-.46,8.18s2.25,2.33,2.79,2.45,7.15,2.19,7.15,2.19l6.41-.73,6.32-3.9.83-8.96-6.57-11.65-3.92-2.44h-3.06Z"/>
  <path class="st10" d="M69.88,207.95l8.22,8.81s-.42,6.32-.3,6.18,7.71-2.19,7.71-2.19l7.42.8,9.96-6.1,15.62-10.17v-1.21l-3.54-2.3-6.99-.73-9.07.73-12.18,3.03-16.84,3.16Z"/>
  <path class="st10" d="M240.68,228.63c1.15.19,8.22,2.01,8.22,2.01l4.67-3.37,6.65-4.1h12.06l1.51-6.05,8.22-7.78-15.65-1.87c-2.66,2.95-5.74,6.06-9.3,9.19-5.75,5.06-11.38,8.97-16.37,11.97Z"/>
  <polygon class="st10" points="164.88 299.63 154.41 296.56 144.07 286.99 141.84 275.22 140.84 263.65 143.05 241.41 150.84 221.63 160.44 213.47 174.45 209.41 185.81 210.14 197.18 213.07 201.77 216.65 210.07 226.96 214.28 240.81 216.96 254.52 216.58 271.67 214.79 285.46 208.43 294.13 196.92 300.65 182.37 302.49 164.88 299.63"/>
  <polygon class="st10" points="109.71 61.55 113.62 68.16 124.68 75.52 139.19 76.68 146.85 70.17 150.54 59.74 149.35 56.58 142.35 43.93 140.91 26.15 140.44 11.09 139.2 6.85 131.24 4.44 121.01 7.91 113.46 15.17 109.03 26.15 106.59 30.54 104.62 49.86 108.65 61.74 109.71 61.55"/>
  <polygon class="st10" points="248.32 61.55 244.4 68.16 233.35 75.52 218.84 76.68 211.18 70.17 207.49 59.74 208.67 56.58 215.68 43.93 217.12 26.15 217.58 11.09 218.83 6.85 226.79 4.44 237.02 7.91 244.56 15.17 249 26.15 251.43 30.54 253.4 49.86 249.38 61.74 248.32 61.55"/>
  <polyline class="st10" points="108.65 61.74 109.71 61.55 113.62 68.16"/>
  <path class="st15" d="M140.35,154.37l1.02.95,1.48,1.29,1.36,3.25-.89,2.17-1.84.99-1.14.67-3.84,1.77-5.13,1.04h-4.38l-4-.52-4.89-1.73-4.69-2.51-1.89-2.34-.25-1.66,1.05-1.84,2.98-2.2,2.25-1.01,3.17-.97,4.18-.94c2.18-.09,5.2.02,8.66.91,2.81.72,5.08,1.75,6.77,2.66Z"/>
  <path class="st15" d="M217.95,154.59l-1.02.95-1.48,1.29-1.36,3.25.89,2.17,1.84.99,1.14.67,3.84,1.77,5.13,1.04h4.38s4-.52,4-.52l4.89-1.73,4.69-2.51,1.89-2.34.25-1.66-1.05-1.84-2.98-2.2-2.25-1.01-3.17-.97-4.18-.94c-2.18-.09-5.2.02-8.66.91-2.81.72-5.08,1.75-6.77,2.66Z"/>
  <path class="st16" d="M163.01,163.12h-11.78l1.24,7.91,4.64,10.79,2.35,2.11s5.07-2.6,5.45-2.82,7.09-2.13,7.09-2.13l7.62-.68,10.73,1.3,10.03,3.21,3.47-2.66,3.77-12.65v-5.65l-44.62,1.28Z"/>
  <polygon class="st11" points="187.63 163.07 194.05 163.07 192.56 167.47 191.23 168.82 187.63 163.07"/>
  <path class="st11" d="M163.6,162.39c.04,1.83,1.95,6.43,1.95,6.43l4.72-4.85-6.67-1.58Z"/>
  <polygon class="st17" points="159.47 183.93 162.8 187.01 175.32 192.82 188.02 192.59 197.21 186.95 200.78 183.88 190.84 179.8 181.7 178.39 169.38 179.29 160.06 182.67 159.47 183.93"/>
  <path class="st0" d="M208.33,199.38c.35,2.02-13.74,6.98-28.91,7.05-15.55.07-29.99-5.01-29.64-7.05.25-1.45,9.92-1.45,29.27-1.46,19.35,0,29.02,0,29.27,1.46Z"/>
  <path class="st0" d="M259.73,179.33c8.84-10.59,10.73-22.2,11.22-26.06-3.26,6.48-8.73,15.41-17.71,23.37"/>
  <path class="st0" d="M234.58,188.38c-28.34,7.92-52.06,8.44-67.64,7.58-20.84-1.14-38.63-2.35-55.85-14.69-12.64-9.06-19.81-20.41-23.69-28.01-.05,4.1.46,12.84,6.01,21.41,5.24,8.09,12.2,11.94,15.28,13.42,9.67,4.72,18.06,7.22,24.05,8.62,11.04,2.59,20.03,2.92,33.56,3.42,8.79.32,16.12.25,21.27.11,5.75-.32,11.51-.64,17.26-.96,8.24-1.11,16.48-2.23,24.72-3.34"/>
  <path class="st14" d="M212.56,288.43c-5.22,2.75-17.55,8.41-34.35,8.18-15.68-.21-27.2-5.43-32.41-8.18,3.49,3.7,6.98,7.4,10.48,11.1l20.17,2.96,20.81-1.89,11.77-6.44,3.55-5.73Z"/>
  <path class="st14" d="M49.39,133.64c1.48,2.44,3.62,5.6,6.57,9.01,2.03,2.36,5.7,6.54,11.15,10.33,3.62,2.51,10.35,6.45,20.28,8.37-.7-3.96-1.41-7.92-2.11-11.89l-18.55-4.82c-4.55-3.26-9.46-6.47-14.75-9.53-.86-.5-1.73-.99-2.59-1.47Z"/>
  <path class="st14" d="M308.69,133.95c-1.51,2.44-3.68,5.6-6.67,9.01-2.07,2.36-5.78,6.54-11.32,10.33-3.67,2.51-10.51,6.45-20.59,8.37.71-3.96,1.43-7.92,2.14-11.89l18.84-4.82c4.62-3.26,9.6-6.47,14.98-9.53.88-.5,1.75-.99,2.63-1.47Z"/>
  <path class="st14" d="M146.48,54.96c-.31,1.4-2.61,11.17-10.82,14.8-9.12,4.04-22.34-.93-28.82-13.47,1.73,3.8,3.45,7.6,5.18,11.4l13.65,8.38,9.84,1.27,9.34-4.2,4.03-9.69,1.14-5.06-3.54-3.43Z"/>
  <path class="st14" d="M211.95,54.96c.31,1.4,2.61,11.17,10.82,14.8,9.12,4.04,22.34-.93,28.82-13.47-1.73,3.8-3.45,7.6-5.18,11.4l-13.65,8.38-9.84,1.27-9.34-4.2-4.03-9.69-1.14-5.06,3.54-3.43Z"/>
  <path class="st14" d="M159.85,50.94c1.33,1.62,3.51,2.28,5.48,1.66,2.07-.65,3.51-2.56,3.58-4.76.01.64.03,1.29.05,1.94.01.42.03.84.04,1.26-.33.76-.67,1.51-1,2.27-.32.61-.64,1.21-.96,1.82-.48.94-.96,1.87-1.44,2.81-.88-.93-1.78-1.93-2.69-3.02-1.14-1.36-2.16-2.7-3.08-3.98Z"/>
  <path class="st14" d="M198.25,50.67c-1.33,1.62-3.51,2.28-5.48,1.66-2.07-.65-3.51-2.56-3.58-4.76-.01.64-.03,1.29-.05,1.94-.01.42-.03.84-.04,1.26.33.76.67,1.51,1,2.27.32.61.64,1.21.96,1.82.48.94.96,1.87,1.44,2.81.88-.93,1.78-1.93,2.69-3.02,1.14-1.36,2.16-2.7,3.08-3.98Z"/>
  <path class="st1" d="M84.1,67.32c.96.14,6.49.85,11.42-2.98,4.39-3.41,5.32-8.12,5.51-9.24,1.97,1.43,2.85,2.05,3.28,2.33.06.04.29.2.61.42.44.31.8.56,1.03.72-.67,1.27-1.35,2.54-2.02,3.81l-6.5,2.63-3.23,5.37-2.71,4.33c-1.09-.54-2.5-1.38-3.93-2.68-1.1-1-1.91-2.01-2.49-2.86-.32-.62-.65-1.24-.97-1.86Z"/>
  <path class="st1" d="M81.29,82.83c.51.02,2.92.03,4.99-1.82,2.09-1.86,2.33-4.28,2.37-4.78l1.91,1.48-.98,2.33c-.47.86-.94,1.72-1.41,2.59-.47.68-.94,1.36-1.41,2.05-.69.5-1.38,1-2.07,1.5l-1.9-.65c-.5-.9-1-1.8-1.5-2.7Z"/>
  <path class="st1" d="M100,51.08c.59-.08,2.13-.36,3.46-1.63,2.07-1.99,1.87-4.73,1.83-5.11v9.84c-.8-.07-1.59-.15-2.39-.22-.97-.96-1.93-1.92-2.9-2.88Z"/>
  <path class="st1" d="M274.28,67.3c-.96.14-6.49.85-11.42-2.98-4.39-3.41-5.32-8.12-5.51-9.24-1.97,1.43-2.85,2.05-3.28,2.33-.06.04-.29.2-.61.42-.44.31-.8.56-1.03.72.68,1.27,1.35,2.54,2.02,3.81,2.1.93,4.21,1.85,6.31,2.78,1.14,1.74,2.28,3.48,3.41,5.22l2.71,4.33c1.09-.54,2.5-1.38,3.93-2.68,1.1-1,1.91-2.01,2.49-2.86.32-.62.65-1.24.97-1.86Z"/>
  <path class="st1" d="M276.95,82.32c-.51.02-2.92.03-4.99-1.82-2.09-1.86-2.33-4.28-2.37-4.78-.64.49-1.28.99-1.91,1.48l.98,2.33c.47.86.94,1.72,1.41,2.59.47.68.94,1.36,1.41,2.05.69.5,1.38,1,2.07,1.5l1.9-.65c.5-.9,1-1.8,1.5-2.7Z"/>
  <path class="st1" d="M258.24,51.33c-.59-.08-2.13-.36-3.46-1.63-2.07-1.99-1.87-4.73-1.83-5.11,0,3.28,0,6.56,0,9.84.8-.07,1.59-.15,2.39-.22.97-.96,1.93-1.92,2.9-2.88Z"/>
  <path class="st1" d="M144.79,43.05c.09.73.69,4.93,4.41,7.51,2.1,1.46,4.24,1.74,5.3,1.8-1.07,1.44-2.14,2.88-3.22,4.31l-5.61-7.42-2.09-4.47,1.21-1.72Z"/>
  <path class="st1" d="M212.43,44.6c-.09.73-.69,4.93-4.41,7.51-2.1,1.46-4.24,1.74-5.3,1.8,1.07,1.44,2.14,2.88,3.22,4.31l5.61-7.42,2.09-4.47-1.21-1.72Z"/>
  <path class="st14" d="M116.7,208.54c-.09-.24-.27-.65-.55-1.1-4.6-7.29-22.94-2.29-26.19-1.35-4.72,1.36-6.57,2.03-10.44,2.88-.89.19-2.39.51-4.39.62-2.38.13-4.36-.08-5.75-.31,2.28-.77,4.56-1.54,6.84-2.31l20.82-5.34c4.59-.09,9.19-.18,13.78-.28,3.46,1.01,6.93,2.01,10.39,3.02l-4.52,4.17Z"/>
  <path class="st0" d="M69.48,280.61c11.61,12.15,28.3,14.58,38.78,7.57,8.55-5.72,10.29-15.93,10.66-18.48-.43,3.29-.68,7.67-.05,12.76.69,5.61,2.22,10.16,3.58,13.41-4.13.48-8.25.96-12.38,1.44l-30.99-4.32-6.83-5.34c-.92-2.34-1.85-4.69-2.77-7.04Z"/>
  <path class="st0" d="M91.95,241.2c3.96,3.03,7.48,4.06,9.64,4.47,8.54,1.63,16.06-2.5,25.55-7.72,2.42-1.33,4.69-3.11,4.69-3.11,1.53-1.11,2.78-2.1,3.68-2.84-1.25,1.63-3.12,3.84-5.7,6.14-2.08,1.85-3.84,3.24-5.62,4.23-6,3.35-12.01,6.7-18.01,10.06l-9.33-3.52-4.3-6.39-.59-1.31Z"/>
  <path class="st0" d="M145.81,291.77c1.75,1.3,4.18,3.21,6.93,5.7,1.83,1.66,4.4,4,6.12,6.14,1.77,2.21,4.91,7.06,5.32,15.83.1-6.38.2-12.77.3-19.15l-11.06-3.29-7.62-5.23Z"/>
  <path class="st0" d="M212.16,291.77c-1.75,1.3-4.18,3.21-6.93,5.7-1.83,1.66-4.4,4-6.12,6.14-1.77,2.21-4.91,7.06-5.32,15.83-.1-6.38-.2-12.77-.3-19.15l11.06-3.29,7.62-5.23Z"/>
  <path class="st1" d="M84.16,121.27c-.79.04-6.69.25-10.43-4.25-1.69-2.04-2.27-4.22-2.49-5.49-.25.95-.62,2.85-.12,5.16.45,2.09,1.42,3.55,2,4.32,3.02.78,6.05,1.56,9.07,2.34l1.96-2.08Z"/>
  <path class="st1" d="M274.22,121.11c.79.06,6.68.41,10.53-4.01,1.74-2,2.37-4.16,2.62-5.43.23.96.56,2.87,0,5.16-.5,2.08-1.5,3.52-2.11,4.27-3.04.71-6.09,1.42-9.13,2.12l-1.91-2.12Z"/>
  <path class="st1" d="M168.53,60.03c.43.54,4.61,5.69,11.61,5.45,6.43-.22,10.15-4.8,10.66-5.45-.75,2.49-1.49,4.98-2.24,7.47l-13.48,1.15-6.79-3.4.24-5.22Z"/>
  <path class="st0" d="M222.33,237.22c3.42,4.91,7.55,11.96,10.63,21.06,2.45,7.25,3.54,13.78,4.02,18.96.16-5.72-.1-12.63-1.32-20.35-1.43-8.98-3.77-16.55-6.06-22.48-2.42.94-4.84,1.87-7.26,2.81Z"/>
  <path class="st14" d="M281.51,210.55c-3.38.8-7.39,1.44-11.85,1.55-2.79.07-5.34-.08-7.62-.35.66-1.27,1.32-2.55,1.98-3.82.52.07,1.3.19,2.23.38,2.95.59,4.97,1.49,5.49,1.5,2.4.07,6.12-.05,10.98-1.07-.41.6-.81,1.21-1.22,1.81Z"/>
  <path class="st0" d="M262.91,182.39c.38,10.44-2.27,17.39-4.61,21.66-5.42,9.91-15.55,17.18-31.57,28.67-3.51,2.52-6.74,4.71-6.49,5.14.47.83,13.2-5.51,23.94-11.03l19.6-18.2,4.96-6.87-1.13-11.75c-1.57-2.54-3.14-5.08-4.71-7.62Z"/>
  <path class="st7" d="M125.92,240.36s-15.3,44.31,3.1,62.97c0,0-9.35,7.65-2.02,20.33,0,0,12.18,14.13,31.37,3.28,0,0,11.6-9.09,4.47-26.16,0,0-12.97-3.44-17.07-11.53"/>
  <path class="st7" d="M230.17,236.29c.54,1.42,1.08,2.83,1.62,4.25,0,0,15.3,44.31-3.1,62.97,0,0,9.35,7.65,2.02,20.33,0,0-12.18,14.13-31.37,3.28,0,0-11.6-9.09-4.47-26.16"/>
  <path class="st7" d="M207.17,162.39h-56.94c.08,2.4.73,14.49,10.56,23.21,1.97,1.75,8.22,7.12,17.91,7.6,2.42.12,10.94.24,18.48-5.79,11.39-9.1,10.11-23.89,9.99-25.02Z"/>
  <path class="st6" d="M158.63,183.47c3.43-1.85,10.95-5.31,21.07-5.22,10.19.09,17.69,3.72,21.08,5.63"/>
  <path class="st6" d="M260.07,213.23c1.88,1.29,3.92,2.83,6,4.67,2.63,2.32,4.79,4.62,6.55,6.71"/>
  <path class="st6" d="M250.87,232.31c-.66-3.05-1.32-6.1-1.98-9.14"/>
  <path class="st6" d="M134.26,329.16c-.2-.31-1.28-2.12-.68-4.37.45-1.69,1.6-2.65,1.99-2.95"/>
  <path class="st6" d="M148.46,323.28c-.3.61-.81,1.82-.8,3.43.01,1.78.66,3.09,1,3.68"/>
  <path class="st6" d="M224.07,328.55c.2-.31,1.28-2.12.68-4.37-.45-1.69-1.6-2.65-1.99-2.95"/>
  <path class="st6" d="M209.87,322.66c.3.61.81,1.82.8,3.43-.01,1.78-.66,3.09-1,3.68"/>
  <polygon class="st6" points="165.82 169.62 170.89 162.82 163.6 163.06 165.82 169.62"/>
  <polygon class="st6" points="191.83 169.62 186.76 162.82 194.05 163.06 191.83 169.62"/>
  <path class="st8" d="M82.76,123.35h-31.32c-.92.22-1.91.64-2.38,1.51-2.1,3.95,7.88,14.89,18.78,20.24,6.56,3.22,12.72,4.06,16.76,4.27"/>
  <path class="st7" d="M88.7,166.2c-3.55.41-13.25,1.05-22.67-4.81-16.86-10.48-16.67-31.7-16.64-32.87"/>
  <path class="st6" d="M65.16,150.31s1.91,6.54,6.54,3.35c.15.46,1.27,3.76,4.53,4.96,3.14,1.16,6.97-.1,9.22-3.21"/>
  <path class="st7" d="M150.54,58.05c-4.16-4.93-6.04-9.42-6.99-12.55-1.85-6.1-4.17-11.87-2.56-31.66.35-4.35-1.16-6.32-1.78-7-3.55-3.87-12.71-3.3-21.68,3.35,0,0-19.4,18.23-9.65,49.84,0,0,7.2,17.15,25.92,17.58,1.65.04,3.92-.24,6.46-1.44,9.06-4.28,10.18-16.67,10.29-18.13Z"/>
  <path class="st7" d="M107.54,58.95s-9.92-14.3-28.63-4.51c0,0,2.68,18.78,11.98,21.09"/>
  <path class="st7" d="M105.13,38.7c-.75-.52-2.23-1.41-4.31-1.7-2.52-.36-4.51.35-5.36.72-.67.21-1.75.68-2.35,1.73-.96,1.66-.09,3.72.42,4.89,2.32,5.44,9.51,10.56,11.6,12"/>
  <path class="st6" d="M83.59,117.35s-9.13-1.45-13.71-7.61c0,0-.06,10.84,6.86,13.61"/>
  <path class="st7" d="M109.71,21.76s18.89-6.25,30.74,4.39"/>
  <path class="st7" d="M105.31,47.02s21.35-16.56,38.74,0"/>
  <path class="st7" d="M142.88,43.34s7.92-1.24,8.77-7.84c.08-.65.32-1.23.65-1.27,1.22-.15,5.23,7.93,2.72,15.27-1.32,3.87-4.01,6.23-5.47,7.32"/>
  <path class="st7" d="M215.35,45.03s-7.92-1.24-8.77-7.84c-.08-.65-.32-1.23-.65-1.27-1.22-.15-5.23,7.93-2.72,15.27,1.16,3.39,3.36,5.62,4.87,6.85"/>
  <path class="st6" d="M160.88,41.67c.07.32.9,3.72,4.3,5.12,3.24,1.33,6.09-.27,6.41-.45-1.86,3.91-3.73,7.81-5.59,11.72-.6-.29-5.28-2.67-6.45-8.08-.9-4.18.86-7.47,1.33-8.3Z"/>
  <path class="st6" d="M197.47,41.67c-.12.44-1.03,3.61-4.3,5.12-3.47,1.61-6.66-.02-7.02-.21,2.07,3.83,4.13,7.65,6.2,11.48.6-.29,5.28-2.67,6.45-8.08.9-4.18-.86-7.47-1.33-8.3Z"/>
  <path class="st5" d="M144.21,159.51c-.21,3.75-8.06,6.58-14.01,6.95-9.06.56-19.32-4.27-19.17-8.44.15-4.11,10.4-8.12,19.14-7.02,6.44.81,14.25,4.68,14.04,8.51Z"/>
  <path class="st8" d="M275.91,123.55c9.8,0,19.6,0,29.39,0h1.43c.92.22,1.91.64,2.38,1.51,2.1,3.95-7.88,14.89-18.78,20.24-6.56,3.22-12.72,4.06-16.76,4.27"/>
  <path class="st7" d="M267.44,165.78c3.1.59,14.08,2.28,24.7-4.18,10.89-6.63,17.19-19.27,16.64-32.87"/>
  <path class="st6" d="M293.01,150.51s-1.91,6.54-6.54,3.35c-.15.46-1.27,3.76-4.53,4.96-3.14,1.16-6.97-.1-9.22-3.21"/>
  <path class="st7" d="M207.64,58.25c4.16-4.93,6.04-9.42,6.99-12.55,1.85-6.1,4.17-11.87,2.56-31.66-.35-4.35,1.16-6.32,1.78-7,3.55-3.87,12.71-3.3,21.68,3.35,0,0,19.4,18.23,9.65,49.84,0,0-7.2,17.15-25.92,17.58-1.65.04-3.92-.24-6.46-1.44-9.06-4.28-10.18-16.67-10.29-18.13"/>
  <path class="st7" d="M250.63,59.15s9.92-14.3,28.63-4.51c0,0-2.68,18.78-11.98,21.09"/>
  <path class="st7" d="M253.04,38.9c.75-.52,2.23-1.41,4.31-1.7,2.52-.36,4.51.35,5.36.72.67.21,1.75.68,2.35,1.73.96,1.66.09,3.72-.42,4.89-2.32,5.44-9.51,10.56-11.6,12"/>
  <path class="st7" d="M268.21,76.4s8.28-7.72,12.96,1.42c0,0-3.37,9.3-10.51,7.3"/>
  <path class="st7" d="M89.93,76.51s-8.28-7.72-12.96,1.42c0,0,3.37,9.3,10.51,7.3"/>
  <path class="st6" d="M274.58,117.55s9.13-1.45,13.71-7.61c0,0,.06,10.84-6.86,13.61"/>
  <path class="st7" d="M248.46,21.96s-18.89-6.25-30.74,4.39"/>
  <path class="st7" d="M252.86,47.22s-21.35-16.56-38.74,0"/>
  <path class="st5" d="M213.96,159.71c.21,3.75,8.06,6.58,14.01,6.95,9.06.56,19.32-4.27,19.17-8.44-.15-4.11-10.4-8.12-19.14-7.02-6.44.81-14.25,4.68-14.04,8.51Z"/>
  <path class="st7" d="M179.63,69.35c3.05-.04,6.32-.07,8.7-2.19,3.13-2.78,2.71-7.31,2.44-10.3,0,0-.61-6.67-5.78-12.28-.65-.71-1.55-1.53-1.55-1.53-1-.92-1.57-1.32-1.82-1.49-.96-.65-1.53-.85-2.11-.9-.24-.02-.43,0-.55,0-.77.02-1.47.29-2.8,1.21-2.01,1.38-2.9,2.22-3.72,3.18-4.41,5.19-4.73,11.82-4.73,11.82-.16,3.36-.37,7.61,2.71,10.3,2.6,2.26,6.17,2.23,9.22,2.19Z"/>
  <path class="st5" d="M171.25,48.99c1.4.69,4.05,1.77,7.54,1.78,4.37,0,7.56-1.68,8.92-2.51"/>
  <path class="st5" d="M168.8,54.42c1.81.97,4.98,2.37,9.15,2.66,5.93.41,10.42-1.66,12.33-2.69"/>
  <path class="st5" d="M168.46,59.74c1.64.95,5.43,2.86,10.62,2.87,5.24.01,9.07-1.92,10.71-2.88"/>
  <path class="st7" d="M107.75,59.74c-10.39,4.18-32.47,22.23-20.76,99.98,0,0,6.97,35.58,56.66,37.99,0,0,27.15,2.64,32.25,2.65l6.62-.09c9.94.12,21.58-.59,34.38-3.07,5.04-.97,9.76-2.13,14.16-3.38"/>
  <line class="st7" x1="167.12" y1="58.05" x2="150.54" y2="58.18"/>
  <path class="st5" d="M179.04,41.03"/>
  <path class="st7" d="M207.64,58.25c-5.44-.11-10.87-.22-16.31-.33"/>
  <path class="st7" d="M259.7,179.55c2.46-3.6,5.75-8.97,8.66-15.9,8.61-20.51,7.3-38.95,5.83-55.81-1.51-17.36-5.76-38.83-22.04-47.66"/>
  <path class="st7" d="M152.77,214.78"/>
  <path class="st7" d="M179.02,210c3.48-.02,11.2-.06,18.13,3.56,12.26,6.41,16.14,20.95,18.17,31.03,3.88,19.21-.69,39.77-.69,39.77-.44,1.72-1.3,4.21-3.1,6.79-2.85,4.08-6.46,6.09-8.32,6.96-4.71,2.05-13.27,5.06-24.34,4.97-11.31-.09-19.98-3.38-24.66-5.55-2.16-1.19-5.86-3.65-8.57-8.11-1.06-1.75-1.75-3.43-2.2-4.87,0,0,0,0,0,0-1.38-6.04-4.92-22.25-.69-39.77,2.4-9.97,5.91-24.52,18.17-31.03,6.95-3.69,14.69-3.73,18.09-3.75Z"/>
  <path class="st7" d="M126.62,202.32c-4.49-2.94-9.47-5.2-14.81-6-18.12-2.71-34.41,11.02-52.57,7.56,8.21,2.55,22.22,9.36,17.65,20.21,1.22-.93,5.1-3.63,10.48-3.37,2.72.13,4.85.97,6.18,1.64"/>
  <path class="st6" d="M120.98,204.68c-7.48-4.72-16.65-4.1-24.96-2.38-9.28,1.92-18.99,6.44-28.61,5.03"/>
  <path class="st6" d="M112.92,201.57s-24.76,7.62-36.03,22.51"/>
  <path class="st6" d="M106.59,212.27c.53-1.47,1.42-3.46,2.95-5.54,1.69-2.3,3.51-3.84,4.85-4.8"/>
  <path class="st7" d="M268.08,202.86c2.35.68,4.94,1.3,7.75,1.78,5.69.98,10.83,1.17,15.13,1-1.43.44-2.97,1.01-4.45,1.15,1.39-.6,2.97-.86,4.45-1.15-8.96,2.73-21.2,8.77-17.65,20.21-4.49-2.31-1.15-2.65,0,0-7.88-6.61-21.11-2.65-22.76,7.87-2.5-3.26.62-2.85,0,0-.26-.51-1.95-3.74-5.73-4.68-2.48-.62-4.54.08-5.32.4"/>
  <path class="st6" d="M265.43,207.16c2.06.71,4.6,1.39,7.56,1.8,3.85.53,7.21.41,9.79.13"/>
  <path class="st7" d="M147.99,228.6s30.84,14.63,62,0"/>
  <path class="st7" d="M141.83,251.69s36.28,19.93,74.19-.2"/>
  <path class="st7" d="M141.73,272.95s36.28,19.93,74.19-.2"/>
  <path class="st6" d="M90.27,235.36c.45-.64,1.19-1.54,2.3-2.35.99-.73,1.95-1.16,2.64-1.4"/>
  <path class="st6" d="M93.01,242.21c.45-.64,1.19-1.54,2.3-2.35.99-.73,1.95-1.16,2.64-1.4"/>
  <path class="st6" d="M97.68,248.43c.45-.64,1.19-1.54,2.3-2.35.99-.73,1.95-1.16,2.64-1.4"/>
  <path class="st6" d="M258.3,180.1c-.76.2-1.85.59-3,1.35-1.03.68-1.75,1.43-2.23,2"/>
  <path class="st6" d="M263.78,185.03c-.76.2-1.85.59-3,1.35-1.03.68-1.75,1.43-2.23,2"/>
  <path class="st6" d="M268.01,191.56c-.76.2-1.85.59-3,1.35-1.03.68-1.75,1.43-2.23,2"/>
  <path class="st7" d="M123.6,252.79"/>
  <path class="st7" d="M123.1,249.71c-3.13,4.41-6.26,8.82-9.39,13.24-2.21,3.33-6.15,8.22-12.53,12.05-13.93,8.37-28.64,5.16-32.11,4.31,0,0-7.02,21.27,54.03,17.65"/>
  <path class="st7" d="M70.4,279.03c.44-1.55,1.22-3.79,2.67-6.25,1.42-2.4,2.24-3.62,3.25-3.83,2.09-.44,5.07,3.51,7.56,9.35"/>
  <path class="st7" d="M85.58,278.36c-.01-1.61.11-3.98.82-6.75.69-2.7,1.13-4.1,2.05-4.59,1.88-1.01,5.85,1.95,9.88,6.85"/>
  <path class="st7" d="M99.38,274.02c-.64-1.48-1.44-3.72-1.85-6.54-.41-2.76-.54-4.22.12-5.02,1.35-1.65,6.15-.46,11.76,2.51"/>
  <path class="st7" d="M109.91,264.64c-.86-1.37-1.99-3.45-2.84-6.18-.83-2.66-1.18-4.09-.65-4.98,1.08-1.84,6.01-1.4,12.01.67"/>
  <path class="st7" d="M115.98,246.53"/>
  <path class="st7" d="M119.2,252.52c-.83-1.15-1.9-2.84-2.84-5.04"/>
  <path d="M153.34,135.98c-8.51-2.17-17.38-2.71-25.95-.89-4.92,1.54-9.72,2.73-14.88,3.28,0,0-1.13-5.33-1.13-5.33,2.06.58,4.12,1.3,6.01,2.36.22.13.3.41.17.63-1.82,1.27-4.07,1.91-6.16,2.57-2.65.78-4.43-2.75-2.28-4.43,0,0,1.15-.91,1.15-.91,4.6-3.77,10.5-5.43,16.38-5.05,5.71-.06,11.5.62,16.89,2.41,3.57,1.15,6.98,2.7,10.12,4.62.38.23.13.86-.31.74h0Z"/>
  <path d="M207.9,136.64c8.01-4.95,17.57-7.21,27.01-7.03,5.88-.37,11.78,1.28,16.38,5.05,0,0,1.15.9,1.15.9,1.1.87,1.29,2.46.42,3.56-.66.83-1.74,1.14-2.7.87-1.51-.43-3.04-.97-4.5-1.64-.46-.32-2.02-.63-1.66-1.41,1.83-1.26,4.09-1.88,6.18-2.53,0,0-1.13,5.33-1.13,5.33-5.17-.55-9.96-1.74-14.88-3.28-3.34-.79-6.76-1-10.2-1.08-5.32-.05-10.53.63-15.75,1.98-.42.13-.71-.51-.31-.74h0Z"/>
  <path class="st7" d="M220.24,237.86c3.68-1.14,7.77-2.65,12.09-4.69,1.84-.87,3.73-1.83,5.65-2.89,13.15-7.31,22.01-16.43,27.45-23.12"/>
  <path class="st7" d="M96.79,219.39c-3.37,2.57-4.5,4.05-5.6,8.11-1.21,4.48-1.34,9.33.4,13.69.45,1.13,3.54,8.73,10.39,10.44,5,1.25,9.28-1.33,15.95-5.5,4.48-2.8,10.8-7.43,17.17-14.82"/>
  <path class="st7" d="M121.78,204.43c-9.04,3.66-17.48,8.74-25,14.96"/>
  <path class="st7" d="M147.11,198.14c-8.34.87-16.57,2.85-24.37,5.91"/>
  <path class="st7" d="M199.93,199.71c3.14-.42,7.97-.67,13.61.64,4.16.97,7.47,2.48,9.82,3.8"/>
  <path class="st7" d="M265.04,207.75c2.72-3.24,3.5-4.94,3.68-9.14.2-4.63-.74-9.39-3.39-13.27-.68-1-5.37-7.74-12.43-7.91-1.66-.04-5.07,0-14.36,8.86-4.04,3.85-9.57,9.71-15.18,17.86"/>
</svg>