<?xml version="1.0" encoding="UTF-8"?>
<svg id="Layer_1" xmlns="http://www.w3.org/2000/svg" version="1.1" viewBox="0 0 365 335">
  <!-- Generator: Adobe Illustrator 29.7.1, SVG Export Plug-In . SVG Version: 2.1.1 Build 8)  -->
  <defs>
    <style>
      .st0 {
        fill: #5fa8a1;
      }

      .st1, .st2, .st3, .st4, .st5, .st6, .st7, .st8, .st9, .st10, .st11, .st12, .st13, .st14, .st15, .st16, .st17, .st18 {
        fill: none;
      }

      .st1, .st3, .st4, .st7, .st8, .st9, .st10, .st13, .st15 {
        stroke: #000;
      }

      .st1, .st3, .st4, .st11, .st12, .st13, .st14, .st15, .st16, .st17 {
        stroke-miterlimit: 10;
      }

      .st1, .st11 {
        stroke-width: .5px;
      }

      .st19 {
        fill: #25544e;
      }

      .st20 {
        fill: #bf6421;
      }

      .st2, .st5, .st6, .st7, .st8, .st9, .st10, .st18 {
        stroke-linecap: round;
        stroke-linejoin: round;
      }

      .st2, .st5, .st6, .st11, .st12, .st14, .st16, .st17, .st18 {
        stroke: #231f20;
      }

      .st2, .st8 {
        stroke-width: 2px;
      }

      .st21 {
        fill: #fdbb28;
      }

      .st4, .st16 {
        stroke-width: .75px;
      }

      .st22 {
        fill: #fff;
      }

      .st5, .st10, .st12, .st13 {
        stroke-width: 4px;
      }

      .st23 {
        fill: #44968e;
      }

      .st6, .st9, .st14, .st15 {
        stroke-width: 3px;
      }

      .st24 {
        fill: #0f2d29;
      }

      .st25 {
        fill: #bc8a26;
      }

      .st26 {
        fill: #194340;
      }

      .st27 {
        fill: #edb38b;
      }

      .st28 {
        fill: #addcd8;
      }

      .st29 {
        fill: #fb7800;
      }
    </style>
  </defs>
  <path class="st6" d="M167.18,42.83s7.92-1.24,8.77-7.84c.07-.56.29-1.21.65-1.27,1.21-.21,4.87,6.45,3.82,12.98-.86,5.33-4.54,8.67-6.02,9.87"/>
  <path class="st6" d="M237.83,55.33c-1.89.22-5.16-4.54-6.02-9.87-1.05-6.54,2.61-13.19,3.82-12.98.36.06.57.71.65,1.27.85,6.59,8.77,7.84,8.77,7.84,0,0,3.54,12.51-7.22,13.75Z"/>
  <path class="st6" d="M206.17,173.84c-1.59,4.16-5.63,6.86-10,6.7-2.47-.09-4.78-1.08-6.55-2.71-1.17-1.08-2.11-2.43-2.7-3.99"/>
  <polygon class="st2" points="188.04 185.16 196.55 181.65 189.62 177.82 188.04 185.16"/>
  <path class="st6" d="M206.59,174.04c1.59,4.16,5.63,6.86,10,6.7,2.47-.09,4.78-1.08,6.55-2.71,1.17-1.08,2.11-2.43,2.7-3.99"/>
  <polygon class="st2" points="224.72 185.36 216.22 181.85 223.14 178.02 224.72 185.36"/>
  <path class="st6" d="M267.95,77.42c9.29-2.31,11.98-21.09,11.98-21.09-1.38-.54-2.76-1.08-4.14-1.61"/>
  <path class="st6" d="M268.88,78.09s8.28-7.72,12.96,1.42c0,0-3.37,9.3-10.51,7.3"/>
  <path class="st6" d="M240.35,39.76c1.3-5.09,2.23-12.07,1.06-26.54-.35-4.35,1.16-6.32,1.78-7,3.55-3.87,12.71-3.3,21.68,3.35,0,0,19.4,18.23,9.65,49.84,0,0-7.2,17.15-25.92,17.58-1.65.04-3.92-.24-6.46-1.44-9.06-4.28-10.18-16.67-10.29-18.13"/>
  <path class="st6" d="M229.55,56.56l2.29.88c1.22-1.44,2.24-2.85,3.1-4.2"/>
  <path class="st14" d="M272.68,21.14s-18.89-6.25-30.74,4.39"/>
  <path class="st14" d="M238.34,46.41"/>
  <path class="st14" d="M277.08,46.41s-16.3-12.64-32.01-4.79"/>
  <path class="st6" d="M175.36,57.44c-4.16-4.93-6.04-9.42-6.99-12.55-1.85-6.1-4.17-11.87-2.56-31.66.35-4.35-1.16-6.32-1.78-7-3.55-3.87-12.71-3.3-21.68,3.35,0,0-19.4,18.23-9.65,49.84,0,0,7.2,17.15,25.92,17.58,1.65.04,3.92-.24,6.46-1.44,9.06-4.28,10.18-16.67,10.29-18.13Z"/>
  <path class="st14" d="M134.54,21.14s18.89-6.25,30.74,4.39"/>
  <path class="st14" d="M130.14,46.41s21.35-16.56,38.74,0"/>
  <ellipse class="st12" cx="157.99" cy="136.08" rx="21.06" ry="18.15"/>
  <path class="st17" d="M138.55,129.1c2.33-1.73,8.93-6.18,18.49-6.46,10.72-.31,18.19,4.81,20.4,6.46"/>
  <path class="st17" d="M175.64,145.98c-.48-.93-4.88-9.05-14.35-10.57-7.15-1.15-12.56,2.21-13.88,3.08"/>
  <path class="st17" d="M140.96,133.45c2.46-1.71,8.15-5.15,16.08-5.48,12.03-.51,20.22,6.5,22.01,8.11"/>
  <path class="st17" d="M163.63,160.08c-.21,3.75-8.06,6.58-14.01,6.95-9.06.56-19.32-4.27-19.17-8.44.15-4.11,10.4-8.12,19.14-7.02,6.44.81,14.25,4.68,14.04,8.51Z"/>
  <path class="st16" d="M174.47,135.6c0,1.56-1.26,2.82-2.82,2.82s-2.82-1.26-2.82-2.82,1.26-2.82,2.82-2.82,2.82,1.26,2.82,2.82Z"/>
  <path class="st11" d="M145.8,133.59c0,.87.71,1.58,1.58,1.58s1.58-.71,1.58-1.58-.71-1.58-1.58-1.58-1.58.71-1.58,1.58Z"/>
  <path class="st17" d="M137.47,132.01c.9.28,2.12.73,3.49,1.43.88.45,2.94,1.59,5.12,3.66.8.76,1.81,1.83,2.82,3.24.72-.09,1.7-.19,2.88-.2,0,0,3.27-.03,6.46.82,3.52.94,8.63,3.83,13.2,9.08,0,0-13.05,10.94-29.68-2.41,0,0-6.95-7.38-4.29-15.63Z"/>
  <circle class="st11" cx="168.65" cy="141.12" r="1.19"/>
  <ellipse class="st12" cx="239.02" cy="136.28" rx="21.06" ry="18.15"/>
  <path class="st17" d="M258.46,129.3c-2.33-1.73-8.93-6.18-18.49-6.46-10.72-.31-18.19,4.81-20.4,6.46"/>
  <path class="st17" d="M221.38,146.18c.48-.93,4.88-9.05,14.35-10.57,7.15-1.15,12.56,2.21,13.88,3.08"/>
  <path class="st17" d="M256.05,133.65c-2.46-1.71-8.15-5.15-16.08-5.48-12.03-.51-20.22,6.5-22.01,8.11"/>
  <path class="st17" d="M233.38,160.28c.21,3.75,8.06,6.58,14.01,6.95,9.06.56,19.32-4.27,19.17-8.44-.15-4.11-10.4-8.12-19.14-7.02-6.44.81-14.25,4.68-14.04,8.51Z"/>
  <path class="st16" d="M222.54,135.8c0,1.56,1.26,2.82,2.82,2.82s2.82-1.26,2.82-2.82-1.26-2.82-2.82-2.82-2.82,1.26-2.82,2.82Z"/>
  <path class="st11" d="M251.21,133.79c0,.87-.71,1.58-1.58,1.58s-1.58-.71-1.58-1.58.71-1.58,1.58-1.58,1.58.71,1.58,1.58Z"/>
  <path class="st17" d="M259.54,132.21c-.9.28-2.12.73-3.49,1.43-.88.45-2.94,1.59-5.12,3.66-.8.76-1.81,1.83-2.82,3.24-.72-.09-1.7-.19-2.88-.2,0,0-3.27-.03-6.46.82-3.52.94-8.63,3.83-13.2,9.08,0,0,13.05,10.94,29.68-2.41,0,0,6.95-7.38,4.29-15.63Z"/>
  <circle class="st11" cx="228.36" cy="141.32" r="1.19"/>
  <path class="st2" d="M229.88,330.06c.2-.31,1.28-2.12.68-4.37-.45-1.69-1.6-2.65-1.99-2.95"/>
  <path class="st2" d="M215.68,324.18c.3.61.81,1.82.8,3.43-.01,1.78-.66,3.09-1,3.68"/>
  <path class="st6" d="M200.53,305.07c-2.75,9.04-.65,18.33,5.45,23.47,5.25,4.43,11.72,4.31,13.73,4.27,9.46-.2,15.37-6.33,16.47-7.52.63-.74,4.39-5.3,3.54-11.69-.63-4.76-3.44-7.74-4.39-8.67.8-1.01,1.52-2.02,2.18-3.04,9.93-15.38,6.66-34.4,3.65-45.22"/>
  <path class="st2" d="M142.12,329.61c-.2-.31-1.28-2.12-.68-4.37.45-1.69,1.6-2.65,1.99-2.95"/>
  <path class="st2" d="M156.32,323.73c-.3.61-.81,1.82-.8,3.43.01,1.78.66,3.09,1,3.68"/>
  <path class="st6" d="M170.49,301.92s7.71,16.96-4.47,26.16c-1.73,1.22-6.72,4.42-13.73,4.27-9.46-.2-15.37-6.33-16.47-7.52-.63-.74-4.39-5.3-3.54-11.69.63-4.76,3.44-7.74,4.39-8.67-2.57-1.9-10.5-8.28-13.85-19.94-3.21-11.18-.25-20.42.88-23.48"/>
  <path class="st6" d="M191.55,211.99c3.48-.02,11.2-.06,18.13,3.56,12.26,6.41,16.14,20.95,18.17,31.03,3.88,19.21-.69,39.77-.69,39.77-.44,1.72-1.3,4.21-3.1,6.79-2.85,4.08-6.46,6.09-8.32,6.96-4.71,2.05-13.27,5.06-24.34,4.97-11.31-.09-19.98-3.38-24.66-5.55-2.16-1.19-5.86-3.65-8.57-8.11-1.06-1.75-1.75-3.43-2.2-4.87,0,0,0,0,0,0-1.38-6.04-4.92-22.25-.69-39.77,2.4-9.97,5.91-24.52,18.17-31.03,6.95-3.69,14.69-3.73,18.09-3.75Z"/>
  <path class="st6" d="M215.01,200.16c2.81-.15,7.07-.09,11.97,1.19,2.03.53,8.4,2.36,20.18,11.96,4.64,3.78,10.78,9.31,17.26,16.86.69,1.26,5.21,9.92,1.37,19.29-.7,1.72-4.34,9.92-12.65,11.98-2.72.67-5.11.48-6.7.21-2.34-1.89-5.05-4.45-7.66-7.81"/>
  <path class="st2" d="M265.98,248.08c-.31-.72-.85-1.75-1.77-2.78-.82-.92-1.67-1.53-2.3-1.91"/>
  <path class="st2" d="M261.9,254.23c-.31-.72-.85-1.75-1.77-2.78-.82-.92-1.67-1.53-2.3-1.91"/>
  <path class="st2" d="M256.06,258.53c-.31-.72-.85-1.75-1.77-2.78-.82-.92-1.67-1.53-2.3-1.91"/>
  <path class="st6" d="M146.04,237.87c-.85,2.91-2.19,6.44-4.35,10.18-3.65,6.35-8.08,10.62-11.29,13.21-1.59.27-3.98.46-6.7-.21-8.31-2.06-11.94-10.26-12.65-11.98-3.84-9.37.69-18.02,1.37-19.29,6.48-7.55,12.62-13.07,17.26-16.86,11.78-9.6,18.15-11.44,20.18-11.96,4.9-1.28,9.16-1.34,11.97-1.19"/>
  <path class="st2" d="M110.87,247.69c.31-.72.85-1.75,1.77-2.78.82-.92,1.67-1.53,2.3-1.91"/>
  <path class="st2" d="M114.95,253.84c.31-.72.85-1.75,1.77-2.78.82-.92,1.67-1.53,2.3-1.91"/>
  <path class="st2" d="M120.79,258.14c.31-.72.85-1.75,1.77-2.78.82-.92,1.67-1.53,2.3-1.91"/>
  <path class="st6" d="M113.7,75.43c-9.41-1.79-11.98-21.09-11.98-21.09,18.72-9.78,28.63,4.51,28.63,4.51,0,0,2.2,20.16-16.66,16.57Z"/>
  <path class="st6" d="M130.17,40.16c-.75-.52-2.23-1.41-4.31-1.7-2.52-.36-4.51.35-5.36.72-.67.21-1.75.68-2.35,1.73-.96,1.66-.09,3.72.42,4.89,2.32,5.44,9.51,10.56,11.6,12"/>
  <path class="st6" d="M111.4,84.8c-7.07,2.23-10.51-7.3-10.51-7.3,4.68-9.14,12.96-1.42,12.96-1.42,0,0,3.64,6.8-2.45,8.73Z"/>
  <path class="st5" d="M100.89,123.88h-42.39c-.92.22-1.91.64-2.38,1.51-2.1,3.95,7.88,14.89,18.78,20.24,3.42,1.68,9.06,4.58,16.76,4.27,3.92-.16,7.1-1.08,9.23-1.88"/>
  <path class="st6" d="M95.76,166.73c-3.55.41-13.25,1.05-22.67-4.81-16.86-10.48-16.67-31.7-16.64-32.87"/>
  <path class="st2" d="M72.22,150.84s1.91,6.54,6.54,3.35c.15.46,1.27,3.76,4.53,4.96,3.14,1.16,6.97-.1,9.22-3.21"/>
  <path class="st2" d="M83.79,124.71c-6.91-2.77-6.86-13.61-6.86-13.61,4.58,6.17,13.71,7.61,13.71,7.61.06.03,1.49.86,1.53,2.52.02,1.09-.57,2.11-1.53,2.64-2.29.28-4.57.56-6.86.83Z"/>
  <path class="st2" d="M184.34,48.79c.23.4,1.9,3.24,5.44,3.88,3.76.69,6.45-1.68,6.75-1.96-.55,4.22-1.1,8.44-1.65,12.66-.4-.03-6.87-.62-9.75-6.22-1.94-3.76-1.04-7.43-.78-8.37Z"/>
  <path class="st2" d="M229.28,49.09c-.23.4-1.9,3.24-5.44,3.88-3.76.69-6.45-1.68-6.75-1.96.55,4.22,1.1,8.44,1.65,12.66.4-.03,6.87-.62,9.75-6.22,1.94-3.76,1.04-7.43.78-8.37Z"/>
  <path class="st5" d="M274.97,148.02c1.09-.34,3.22-1.05,5.74-2.27,11.15-5.38,20.89-16.26,18.78-20.24-.46-.87-1.46-1.29-2.38-1.51h-25.29"/>
  <path class="st6" d="M277.41,164.31c1.93-.62,3.63-1.4,5.11-2.26,14.37-8.32,16.29-28.09,16.64-32.87"/>
  <path class="st2" d="M283.39,150.96s-1.91,6.54-6.54,3.35"/>
  <path class="st2" d="M271.82,124c6.91-2.77,6.86-13.61,6.86-13.61,0,0-1.49,2.61-7.4,6.6"/>
  <path class="st6" d="M206.88,69.68c3.05-.04,6.32-.07,8.7-2.19,3.13-2.78,2.71-7.31,2.44-10.3,0,0-.61-6.67-5.78-12.28-.65-.71-1.55-1.53-1.55-1.53-1-.92-1.57-1.32-1.82-1.49-.96-.65-1.53-.85-2.11-.9-.24-.02-.43,0-.55,0-.77.02-1.47.29-2.8,1.21-2.01,1.38-2.9,2.22-3.72,3.18-4.41,5.19-4.73,11.82-4.73,11.82-.16,3.36-.37,7.61,2.71,10.3,2.6,2.26,6.17,2.23,9.22,2.19Z"/>
  <path class="st18" d="M198.51,49.32c1.4.69,4.05,1.77,7.54,1.78,4.37,0,7.56-1.68,8.92-2.51"/>
  <path class="st18" d="M196.06,54.74c1.81.97,4.98,2.37,9.15,2.66,5.93.41,10.42-1.66,12.33-2.69"/>
  <path class="st18" d="M195.72,60.07c1.64.95,5.43,2.86,10.62,2.87,5.24.01,9.07-1.92,10.71-2.88"/>
  <path class="st6" d="M135.94,207.78c-2.62-1.14-5.36-1.98-8.21-2.41-18.12-2.71-34.41,11.02-52.57,7.56,8.21,2.55,22.22,9.36,17.65,20.21,1.22-.93,5.1-3.63,10.48-3.37,2.72.13,4.85.97,6.18,1.64"/>
  <path class="st2" d="M132.28,211.52c-6.46-2.22-13.67-1.55-20.33-.17-9.28,1.92-18.99,6.44-28.61,5.03"/>
  <path class="st2" d="M128.84,210.62s-24.76,7.62-36.03,22.51"/>
  <path class="st6" d="M160.46,229.54s30.84,14.63,62,0"/>
  <path class="st6" d="M154.3,251.65s36.28,19.93,74.19-.2"/>
  <path class="st6" d="M154.2,273.88s36.28,19.93,74.19-.2"/>
  <path class="st6" d="M117.62,258.63c-3.49,4.98-6.97,9.96-10.46,14.95-2.18,3.33-6.06,8.22-12.36,12.05-13.74,8.37-28.24,5.16-31.67,4.31.29,2.45,1.15,6.49,4.06,10.18,1.04,1.32,4.37,5.16,14.51,7.76,5.3,1.36,14.73,2.96,26.98.64,3.05-.54,6.97-1.53,11.26-3.45,3.77-1.68,6.8-3.61,9.09-5.31"/>
  <path class="st6" d="M64.58,289.94c.37-1.57,1.06-3.84,2.41-6.35,1.32-2.46,2.08-3.71,3.09-3.96,2.07-.52,5.21,3.3,7.95,9.02"/>
  <path class="st6" d="M79.72,289.6c-.08-1.61-.06-3.99.53-6.78.58-2.73.96-4.14,1.86-4.67,1.84-1.08,5.93,1.71,10.16,6.44"/>
  <path class="st6" d="M94.3,284.69c-.7-1.45-1.59-3.65-2.12-6.46-.52-2.74-.71-4.19-.09-5.02,1.28-1.71,6.13-.71,11.86,2.01"/>
  <path class="st6" d="M103.68,274.33c-.82-1.39-1.89-3.51-2.65-6.26-.75-2.69-1.06-4.12-.51-5,1.13-1.81,6.04-1.22,11.98,1.02"/>
  <path class="st6" d="M112.11,264.4c-.78-1.41-1.79-3.56-2.47-6.33-.67-2.71-.94-4.15-.36-5.01.44-.67,1.41-.98,2.75-.98"/>
  <path class="st9" d="M104.72,65.61c-2.12.8-3.62,1.56-4.69,2.25-6.3,4.03-10.21,9.36-10.21,9.36-3.28,4.38-5.44,11.59-7.23,19.99-1.37,6.43-1.74,12.16-1.7,16.77"/>
  <path class="st9" d="M183.85,56.37c-3.1.13-6.21.25-9.31.38"/>
  <path class="st9" d="M204.16,56.74"/>
  <path class="st9" d="M83.79,166.2c1.26,4.34,4.68,13.83,13.71,21.85,13.26,11.77,28.94,11.77,32.73,11.67h112.72s52.32-2.98,28.07-60.83c.36-21.53.32-37.79,0-44.67-.07-1.47-.22-3.86-.86-6.86-.94-4.4-2.43-7.81-3.51-9.95-.77-1.03-1.92-2.45-3.51-3.94"/>
  <polygon class="st23" points="175.36 57.44 183.85 56.37 188.04 60.74 194.87 63.38 197.66 67.49 206.17 69.69 215.01 68.46 217.8 64.27 221.38 62.95 226.09 60.54 227.91 58.47 229.55 56.56 230.83 56.74 231.62 58.76 231.85 63.39 234.95 68.38 242.14 75.57 251.25 77.01 258.58 74.97 262.59 72.93 268.46 81.52 270.44 88.8 270.44 101.27 271.82 122.08 271.03 138.89 275.36 148.63 275.77 153.07 277.44 167.07 275.48 178.02 271.27 185.76 262.68 193.38 252.62 197.82 236.19 199.72 174.47 199.18 139.17 199.74 124.87 199.44 116.03 197.98 101.52 191.22 90.85 181.69 87.02 172.06 83.79 166.2 80.88 108.8 83.79 89.79 87.02 82.17 93.57 73.03 101.72 66.9 175.36 57.44"/>
  <polygon class="st23" points="99.66 148.44 87.78 149.59 78.37 145.98 60.8 135.17 56.57 126.07 62.7 123.88 76.11 124.71 95.76 123.88 99.66 148.44"/>
  <polygon class="st23" points="272.95 124 288.28 123.88 297.27 124.71 299.49 125.51 299.16 129.18 295.17 132.98 288.79 140.78 285.02 142.31 277.44 145.18 274.38 148.02 264.72 122.83 272.95 124"/>
  <polygon class="st23" points="135.94 207.78 128.84 205.01 121.38 205.01 116.98 205.46 100.24 209.81 82.36 214.31 85.3 217.43 96.09 215.51 110.87 211.59 119.02 210.62 128 211.22 135.94 207.78"/>
  <polygon class="st23" points="148.68 200.11 133.33 210.08 123.73 218.1 110.87 231 109.64 243.39 111.63 250.35 120.79 260.01 128.84 262 133.24 258.77 133.93 270.42 124.87 266.78 123.37 262 120.79 272.37 122.83 289.6 134.65 302.86 136.04 305.07 132.21 313.94 135.68 322.74 138.72 326.4 144.7 330.84 157.68 332.36 162.66 329.61 170.69 322.74 172.75 316.06 170.89 301.25 181.8 305.07 201.37 304.31 148.68 200.11"/>
  <polygon class="st23" points="137.19 260.44 137.95 270.8 129.05 276.93 124.87 270.8 121.38 263.52 135.68 258.14 137.19 260.44"/>
  <path class="st23" d="M200.52,304.31l-2.03,11.69c1.57,3.26,3.13,6.51,4.7,9.77,1.33.96,2.67,1.91,4,2.87l6.09,3.73h9.56c3.9-1.83,7.81-3.67,11.71-5.5,1.38-2.84,2.76-5.69,4.14-8.53l-.51-7.59-2.85-6.94c2.58-4.39,5.16-8.79,7.74-13.18.09-5.65.17-11.29.26-16.94l-1.41-10.21-1.09-4.84-2.9-4.79,7.66,7.81,9.61-.6c2.91-2.58,5.82-5.16,8.73-7.74,1.13-4.64,2.25-9.28,3.38-13.91l-2.19-8.4-9.29-9.12-18.45-15.12-8.82-4.63-11.04-2c-23.23,0-46.47-.01-69.7-.02"/>
  <polygon class="st23" points="123.37 262 129.05 296.91 128.14 300.41 112.91 307.57 105.55 309.69 83.79 309.1 70.5 303.14 66.14 298.62 63.14 291.29 64.58 289.94 76.11 291.2 89.12 288.61 94.43 285.85 103.65 278.18 109.64 268.17 116.98 259.53 123.37 262"/>
  <path class="st21" d="M55.84,129.06l1.24,10.87,6.76,13.27,8.05,7.95,13.79,5.11c3.74.25,7.49.49,11.23.74.6-.46,1.45-1.2,2.27-2.27,1.36-1.78,1.87-3.47,2.2-4.6,1.42-4.86.9-10.88.77-12.22-2.13.56-4.26,1.13-6.38,1.69l-13.4-.86-10.15-5.59-11.43-6.86-4.94-7.22Z"/>
  <path class="st21" d="M274.38,148.02l5.42-1.84,7.51-3.67,5.9-5.5,5.02-4.03.93,4.93-5.32,11.68-3.84,7.47s-4.34,3.21-5.09,3.42-5.12,2.94-5.12,2.94l-2.37.89-3.03-16.28Z"/>
  <polygon class="st29" points="271.82 116.61 274.97 114.23 278.12 112.06 277.44 117.4 275.36 121.31 272.28 122.83 271.82 116.61"/>
  <polygon class="st29" points="270.37 87.1 274.97 87.1 280.36 82.4 281.84 78.26 277.26 74.43 270.71 76.72 267.95 78.83 270.37 87.1"/>
  <polygon class="st29" points="273.94 72.88 277.44 64.66 278.67 57.44 277.44 55.36 276.3 55.36 275.36 58.54 269.89 68.11 265.96 71.56 263.76 73.47 266.66 77.42 271.22 75.78 273.94 72.88"/>
  <path class="st29" d="M234.95,52.6l2.88,2.73,3.24-.62,4.54-4.87-.54-7.11-4.72-2.97-4.26-2.87-.46-4.42s-2.12.97-2.32,1.74c-.19.77-1.69,6.2-1.69,6.2v8.17l3.33,4.01Z"/>
  <path class="st29" d="M200.86,69.69l11.49-.43,5.87-5.88-1.16-5.59-2.08-8.7-1.95-2.68-4.52-4.76s-2.28-.13-2.57,0-5.07,3.1-5.07,3.1l-4.33,8.49-1.22,11.61,3.2,3.93,2.35.91Z"/>
  <polygon class="st29" points="174.53 55.64 171.08 49.84 167.71 42.73 171.66 40.41 177.11 35.46 179.99 37.57 180.53 42.73 180.62 47.14 178.17 53.24 174.53 55.64"/>
  <polygon class="st29" points="129.97 40.97 128.95 38.36 123.95 39.05 117.18 40.97 119.17 47 123.11 51.1 129.16 57.44 131.92 59.68 129.97 40.97"/>
  <polygon class="st29" points="130.41 59.68 129.34 67.25 125.41 74.52 115.36 75.39 107.91 72.42 104.15 64.12 104.15 60.07 101.72 56.09 103.87 52.5 108.56 51.67 116.07 51.1 120.93 52.04 127.33 56.09 130.41 59.68"/>
  <polygon class="st29" points="114.27 77.01 114.27 81.51 111.34 84.39 106.93 85.63 101.72 79.98 102.43 76.44 104.75 73.47 109.44 73.03 114.27 77.01"/>
  <polygon class="st29" points="92.18 120.19 91.85 122.63 86.83 123.83 79.09 123.16 79.09 119.72 77.86 117.16 77 112.36 85.01 117.04 87.59 117.51 91.61 118.66 92.18 120.19"/>
  <polygon class="st29" points="65.28 290.52 75.62 291.19 78.97 290.52 75.29 283.76 70.07 279.04 67.89 281.97 65.28 290.52"/>
  <polygon class="st29" points="85.37 289.36 92.81 287.94 93.24 284.69 85.37 279.04 80.7 279.58 80.7 285.74 80.22 290.91 85.79 289.6 85.37 289.36"/>
  <polygon class="st29" points="97.57 283.76 101.76 281.33 103.95 276.35 103.1 274.33 96.09 271.85 92.81 272.37 92.27 274.33 92.81 282.19 94.96 285.55 97.57 283.76"/>
  <polygon class="st29" points="112.5 264.8 109.53 263.08 103.95 262.01 100.52 263.07 100.24 266.23 101.81 270.44 103.95 274.82 105.55 274.82 112.5 264.8"/>
  <polygon class="st29" points="114.16 262.85 116.98 258.63 112.5 253.84 110.53 252.25 109.53 253.45 109.64 258.63 112.11 262.85 114.16 262.85"/>
  <path class="st21" d="M86.73,217.43l8.39-1.52,7.4-2.04,5.28-1.88,8.21-1.36,6.81-.55s4.59.04,4.98,0,3.52,1.14,3.52,1.14l-11.57,9.79-7.65,8.74-1.28,2.36-3.02-.51-7.57-1.68-6.63,2.19.75-5.74-3.57-5.28-4.05-3.67Z"/>
  <polygon class="st21" points="195.26 63.38 195.3 52.07 192.53 52.93 186.21 51.45 184.52 49.09 184.15 52.22 184.15 55.85 186.11 58.73 192.72 63.38 194.87 63.38 195.26 63.38"/>
  <polygon class="st21" points="219.58 62.95 223.93 62.37 229.08 57.11 230.16 52.36 229.2 50.11 227.43 51.64 222.35 53.6 219 52.84 217.54 52.12 217.9 55.33 219.19 61.84 219.58 62.95"/>
  <polygon class="st21" points="147.4 74.43 137.15 66.39 131.56 56.23 130.41 42.16 131.77 28.61 134.54 20.08 145.01 7.78 157.94 3.83 165.27 7.18 166.23 15.1 166.23 29.27 168.88 48.07 174.53 55.64 173.89 66.8 168.88 73.03 161.89 77.42 155 77.42 147.4 74.43"/>
  <polygon class="st21" points="258.58 74.97 269.18 67.4 275.68 57.44 277.08 44.59 276.27 35.46 273.94 21.23 267.95 11.91 260.4 6.76 253.55 5.14 247.23 4.09 241.42 7.57 241.42 14.21 241.47 33.72 240.78 37.91 244.23 41.91 258.58 74.97"/>
  <polygon class="st21" points="234.32 54.2 231.85 57.44 233.08 65.37 238.34 73.47 242.14 75.57 252.14 77.42 261.07 73.7 257.31 54.71 245.6 46.41 242.92 53.24 239.89 55.33 234.32 54.2"/>
  <polyline class="st23" points="131.92 59.68 135.11 63.67 132.88 64.66 130.41 65.14 131.92 59.11"/>
  <polygon class="st27" points="159.73 154.95 160.76 155.9 162.25 157.19 163.62 160.44 162.73 162.61 160.88 163.6 159.73 164.27 155.86 166.04 150.7 167.09 146.29 167.09 142.26 166.57 137.33 164.84 132.61 162.33 130.71 159.99 130.46 158.33 131.52 156.49 134.52 154.29 136.79 153.29 139.98 152.32 144.18 151.38 159.73 154.95"/>
  <polygon class="st27" points="237.28 154.95 236.25 155.9 234.76 157.19 233.39 160.44 234.28 162.61 236.14 163.6 237.28 164.27 241.15 166.04 246.31 167.09 250.72 167.09 254.75 166.57 259.68 164.84 264.4 162.33 266.3 159.99 266.55 158.33 265.49 156.49 262.49 154.29 260.23 153.29 257.03 152.32 252.83 151.38 237.28 154.95"/>
  <polygon class="st24" points="141.81 125.94 142.77 126.23 147.27 124.28 152.79 122.88 155.7 122.47 159.15 122.47 166.24 123.58 172.37 125.71 174.49 126.23 174.39 123.3 165.81 119.08 153.4 119.08 144.44 121.39 141.81 125.94"/>
  <polygon class="st26" points="140.86 126.23 139.7 128.95 138.45 132.23 139.89 132.74 141.48 133.43 142.14 132.45 143.59 131.6 145.73 130.52 148.86 129.43 151.04 128.66 154.26 128.04 157.47 127.78 159 127.79 161.92 128.02 166.39 128.95 170.88 130.63 174.21 132.41 176.49 133.92 179.41 135.01 177.84 130.03 174.86 125.99 172.75 126.08 168.56 124.39 162.6 122.66 154.65 122.47 149.67 123.54 140.86 126.23"/>
  <polygon class="st28" points="147.28 138.06 148.49 139.78 153.45 140.07 160.21 141.52 164.7 143.66 167.02 145.83 170.49 148.94 173.76 147.88 174.86 144.98 174.49 143.85 172.32 140.97 169.56 138.86 165.67 136.57 161.88 135.45 157.57 135.01 153.78 135.5 151.38 136.38 147.28 138.06"/>
  <polygon class="st0" points="176.15 144.38 178.64 136.71 177.36 134.57 174.75 132.74 171.07 130.71 167.37 129.31 162.75 128.19 156.08 127.78 153.64 128.05 149.47 129.22 143.63 131.35 141.33 132.88 141.13 133.43 142.67 134.27 146.2 137.17 147.7 138.26 150.67 136.57 156.51 135.01 160.35 135.23 163.41 135.92 166.19 136.71 169.56 138.86 172.57 141.63 175.08 144.98 176.15 144.38"/>
  <polygon class="st22" points="170.86 132.84 173.26 133.31 174.49 134.98 174.12 137.07 172.67 138.37 169.66 137.64 168.75 136.07 168.75 134.19 170.86 132.84"/>
  <polygon class="st22" points="138.45 132.63 139.44 132.63 143.11 134.64 147.28 138.06 148.22 139.42 148.81 140.2 149.43 140.42 154.28 140.14 158.24 140.97 165.2 144.31 169.4 147.82 170.07 148.98 168.01 152.71 153.74 154.09 142.72 149.89 139.06 144.05 138.45 132.63"/>
  <polygon class="st22" points="147 132.01 148.29 132.28 148.95 133.23 148.75 134.43 147.97 135.17 146.35 134.76 145.86 133.86 145.86 132.78 147 132.01"/>
  <polygon class="st22" points="168.3 139.78 169.13 139.98 169.56 140.7 169.44 141.6 168.93 142.16 167.88 141.84 167.56 141.17 167.56 140.36 168.3 139.78"/>
  <polygon class="st24" points="255.05 125.94 254.09 126.23 249.59 124.28 244.06 122.88 241.16 122.47 237.71 122.47 230.62 123.58 224.49 125.71 222.37 126.23 222.46 123.3 231.05 119.08 243.46 119.08 252.41 121.39 255.05 125.94"/>
  <polygon class="st26" points="256 126.38 257.16 129.05 258.41 132.28 256.96 132.78 255.38 133.46 254.72 132.49 253.27 131.66 251.13 130.6 248 129.53 245.82 128.77 242.6 128.16 239.39 127.9 237.85 127.91 234.94 128.14 230.47 129.05 225.98 130.7 222.64 132.45 220.36 133.94 217.45 135.01 219.02 130.12 222 126.14 224.11 126.23 228.3 124.57 234.26 122.87 242.21 122.68 247.19 123.74 256 126.38"/>
  <polygon class="st28" points="249.82 138.18 248.59 139.97 243.6 140.28 236.77 141.79 232.24 144.02 229.91 146.28 226.4 149.52 223.11 148.42 222 145.4 222.37 144.22 224.56 141.21 227.34 139.02 231.27 136.63 235.09 135.47 239.44 135.01 243.26 135.52 245.68 136.44 249.82 138.18"/>
  <polygon class="st0" points="220.71 144.38 218.22 136.71 219.5 134.57 222.11 132.74 225.79 130.71 229.49 129.31 234.11 128.19 240.78 127.78 243.22 128.05 247.39 129.22 253.23 131.35 255.53 132.88 255.73 133.43 254.19 134.27 250.66 137.17 249.16 138.26 246.19 136.57 240.35 135.01 236.51 135.23 233.45 135.92 230.67 136.71 227.3 138.86 224.29 141.63 221.78 144.98 220.71 144.38"/>
  <polygon class="st22" points="226.12 133.04 223.72 133.51 222.49 135.18 222.86 137.27 224.3 138.57 227.32 137.84 228.23 136.27 228.23 134.39 226.12 133.04"/>
  <polygon class="st22" points="258.41 132.63 257.42 132.63 253.75 134.64 249.58 138.06 248.64 139.42 248.05 140.2 247.43 140.42 242.58 140.14 238.62 140.97 231.66 144.31 227.46 147.82 226.79 148.98 228.85 152.71 243.12 154.09 254.14 149.89 257.8 144.05 258.41 132.63"/>
  <polygon class="st22" points="250.05 132.21 248.75 132.48 248.09 133.43 248.29 134.63 249.07 135.37 250.69 134.96 251.18 134.06 251.18 132.98 250.05 132.21"/>
  <polygon class="st22" points="228.6 140.24 227.76 140.45 227.33 141.17 227.46 142.07 227.97 142.63 229.02 142.31 229.33 141.64 229.33 140.83 228.6 140.24"/>
  <path class="st22" d="M190.61,178.76l2.74,1.4s3.19,1.17,3.19,1.33-4.53,1.73-4.53,1.73l-3.38,2.13v-4.62l1.98-1.98Z"/>
  <polygon class="st22" points="218.7 182.46 221.44 183.67 223.55 184.63 224.12 182.91 222.91 179.21 220.47 179.5 218.12 181.49 218.7 182.46"/>
  <path class="st21" d="M171.3,217.93l15.78-5.47,13.48.59,9.09,2.97,7.43,5.24,7.12,13.33,4.07,18.74.79,20.32-4.44,18.68-9.66,8.81-12.42,3.93-22.22-.76-9.53-3.18-8.56-5.14-2.87-3.61-3.51-7.45-1.62-19.54.94-12.9,1.27-6.24,1.31-7.75,2.76-5.78s9.98-14.82,10.82-14.79Z"/>
  <path class="st20" d="M106.55,68c5.89,3.24,12.78,2.44,16.77-1.61,3.74-3.8,3.5-9.01,3.43-10.02,1.22,1.11,2.44,2.21,3.65,3.32-.15,2.51-.31,5.02-.46,7.54-1.47,2.08-2.94,4.17-4.41,6.25-2.61.79-5.21,1.59-7.82,2.38-1.29-.16-2.58-.33-3.88-.49-1.07-.53-2.47-1.37-3.88-2.67-1.08-1-1.88-2-2.46-2.84-.32-.62-.64-1.23-.96-1.85Z"/>
  <path class="st20" d="M102.92,80.99c3.04,1.71,6.61,1.29,8.67-.85,1.93-2.01,1.81-4.76,1.77-5.29.63.58,1.26,1.17,1.89,1.75-.08,1.33-.16,2.65-.24,3.98-.76,1.1-1.52,2.2-2.28,3.3-1.35.42-2.7.84-4.04,1.26-.67-.09-1.34-.17-2-.26-.55-.28-1.28-.72-2.01-1.41-.56-.53-.97-1.06-1.27-1.5-.17-.33-.33-.65-.5-.98Z"/>
  <path class="st19" d="M220.45,201.04c.08,1.34-9.46,3.33-10.48,3.53-3.73.76-14.72,2.69-30.93-.67-1.47-.31-12.21-2.54-12.12-3.81.07-1,6.74-.67,26.76-.36,19.9.3,26.69.18,26.76,1.31Z"/>
  <path class="st19" d="M277.26,169.91c-2.88,4.92-7.67,11.63-15.35,17.25-13.75,10.05-28.02,10.21-55.1,9.81-73.75-1.09-84.6-3.95-96.52-10.61-12.1-6.76-20.47-14.72-25.35-19.94.57,3.04,1.8,7.59,4.75,12.34,1.29,2.08,6.03,9.22,18.05,14.99,13.22,6.33,25.55,6.35,29.12,6.36,21.65.05,58.59.42,106,0,2.74-.07,14.44-.68,24.07-10.04,8.01-7.8,9.85-17.04,10.33-20.16Z"/>
  <path class="st25" d="M226.87,286.16c-3.45,3.26-13.61,11.97-29.1,13.53-23.67,2.39-39.77-13.91-41.84-16.07,1.05,3.29,3.08,8.16,7.17,12.91,1.98,2.3,4.01,4.07,5.81,5.4,6.72,1.07,13.44,2.14,20.15,3.21l21.74-2.51,12.15-6.94c1.31-3.18,2.61-6.35,3.92-9.53Z"/>
  <path class="st25" d="M55.84,130.67c1.95,3.81,3.92,6.83,5.48,9.01.84,1.17,6.84,9.47,13.29,13.63.77.49,2.34,1.45,4.02,2.39,2.2,1.24,3.34,1.88,4.88,2.49,2.06.82,3.71,1.14,4.98,1.38,5.07.97,10.14.76,12.89.54.31-1.16.58-2.48.76-3.92.35-2.8.25-5.27.02-7.26-4.56.43-10.39.5-17.01-.61-3.58-.6-6.77-1.44-9.54-2.35-6.08-4.01-12.15-8.59-18.11-13.84-.56-.49-1.11-.98-1.65-1.47Z"/>
  <path class="st25" d="M297.77,132.98c-.74,3.09-2.67,9.3-7.94,15.21-4.79,5.37-10.08,7.98-12.98,9.16-.5-3.3-.99-6.6-1.49-9.89,4.94-2.53,9.89-5.07,14.83-7.6,1.8-1.47,3.64-3.08,5.5-4.84.72-.68,1.41-1.36,2.08-2.03Z"/>
  <path class="st25" d="M171.33,55c-.31,1.4-2.61,11.17-10.82,14.8-9.12,4.04-22.34-.93-28.82-13.47,1.73,3.8,3.45,7.6,5.18,11.4l13.65,8.38,9.84,1.27,9.34-4.2,4.03-9.69,1.14-5.06-3.54-3.43Z"/>
  <path class="st25" d="M235.88,54.42c.31,1.4,2.61,11.17,10.82,14.8,9.12,4.04,22.34-.93,28.82-13.47-1.73,3.8-3.45,7.6-5.18,11.4l-13.65,8.38-9.84,1.27-9.34-4.2-4.03-9.69-1.14-5.06,3.54-3.43Z"/>
  <path class="st25" d="M228.43,59.37c-1.46.64-3.05.66-4.46.12-1.08-.41-1.78-1.06-2.23-1.5-2.53-2.54-2.62-6.21-3.17-6.15-.11.01-.25.17-.36.83.42,1.27.48,2.29.46,2.99-.02.51-.11.66-.13,1.55-.01.86-.03,1.72-.04,2.58-.04,1.32-.07,2.63-.11,3.95,1.45-.51,2.97-1.1,4.54-1.77,1.98-.84,3.81-1.72,5.5-2.6Z"/>
  <path class="st25" d="M184.62,58.63c1.46.64,3.05.66,4.46.13,1.08-.41,1.78-1.06,2.23-1.5,2.53-2.54,2.62-6.21,3.17-6.15.11.01.25.17.36.83-.42,1.27-.48,2.29-.46,2.99.02.51.11.66.13,1.55.01.86.03,1.72.04,2.58.04,1.32.07,2.63.11,3.95-1.45-.51-2.97-1.1-4.54-1.77-1.98-.84-3.81-1.72-5.5-2.6Z"/>
  <path class="st20" d="M196.3,60.07c.43.54,4.61,5.69,11.61,5.45,6.43-.22,10.15-4.8,10.66-5.45-.75,2.49-1.49,4.98-2.24,7.47l-13.48,1.15-6.79-3.4.24-5.22Z"/>
  <path class="st20" d="M276.46,84.39c-.51.02-2.92.03-4.99-1.82-2.09-1.86-2.33-4.28-2.37-4.78l-1.91,1.48.98,2.33c.47.86.94,1.72,1.41,2.59.47.68.94,1.36,1.41,2.05.69.5,1.38,1,2.07,1.5l1.9-.65c.5-.9,1-1.8,1.5-2.7Z"/>
  <path class="st20" d="M125.56,53.14c.59-.08,2.13-.36,3.46-1.63,2.07-1.99,1.87-4.73,1.83-5.11v9.84c-.8-.07-1.59-.15-2.39-.22-.97-.96-1.93-1.92-2.9-2.88Z"/>
  <path class="st20" d="M274.39,72.23c-.92.27-3.68.96-6.63-.32-1.3-.56-2.23-1.33-2.83-1.94-.15,2.22-.29,4.45-.44,6.67,1.42-.07,2.84-.15,4.27-.22,1.88-1.4,3.75-2.79,5.63-4.19Z"/>
  <path class="st20" d="M168.3,42.43c.13.73.91,4.89,4.75,7.3,2.17,1.36,4.32,1.54,5.37,1.56-1.01,1.49-2.01,2.97-3.02,4.46l-5.94-7.16-2.29-4.37,1.13-1.78Z"/>
  <path class="st20" d="M245.81,45.55c-.21.47-1.77,3.83-5.55,4.85-2.66.72-4.87-.14-5.58-.45.42,1.74.83,3.49,1.25,5.23,2.7-.79,5.4-1.57,8.1-2.36.81-1.66,1.62-3.32,2.43-4.98-.22-.77-.43-1.53-.65-2.3Z"/>
  <path class="st25" d="M127.15,216.21c-1.41-.94-3.66-2.2-6.6-2.8-5.94-1.22-10.21,1.16-18.04,3.24-3.18.84-7.84,1.87-13.72,2.43-.81-.72-1.61-1.45-2.42-2.17,3.26-.11,7.3-.54,11.8-1.72,3.16-.83,5.91-1.87,8.22-2.9,5.05-.95,10.11-1.9,15.16-2.85,3.32.89,6.64,1.79,9.96,2.68-.68.66-1.38,1.32-2.08,1.99-.76.72-1.53,1.42-2.28,2.11Z"/>
  <path class="st19" d="M64.19,291.19c10.97,8.87,19.54,10.55,24.91,10.62.1,0,.4,0,.82,0,3.58-.04,15.2-.62,22.2-7.97,3.12-3.28,4.77-7.32,5.34-8.74,1.06-2.61,1.81-5.86,3.34-12.22.93-3.87,1.31-5.74,1.51-5.72.34.04-.88,5.25-.13,12.47.08.78.55,4.99,2.36,10.04.84,2.33,1.5,3.55,2.11,4.5,1.54,2.41,3.37,4.08,4.68,5.13-8.36,3.02-16.71,6.03-25.07,9.05-5.02.3-11.42.25-18.68-.86-5.13-.79-9.6-1.94-13.31-3.12-2.35-1.64-4.7-3.29-7.05-4.93-1.01-2.75-2.02-5.5-3.03-8.25Z"/>
  <path class="st19" d="M116,258.55c4.12.2,7.26-.57,9.23-1.23,8.84-2.95,16.47-11.09,18.45-14.06,1.48-1.97,1.94-2.3,2.08-2.22.13.08.05.54.03.62-.06.35-.2.5-.32.77-.3.63-.04.88-.27,1.44-.16.39-.44.48-.77.89-.46.59-.69,1-1.33,1.77-1.34,1.62-5.84,6.48-12.23,12.86l-8.71,1.65c-2.05-.83-4.11-1.66-6.16-2.5Z"/>
  <path class="st19" d="M237.65,253.01c1.86,2.35,4.19,5.23,6.91,8.45,2.93.04,5.86.08,8.79.12,2.78-2.01,5.55-4.02,8.33-6.03-1.1.61-2.7,1.36-4.72,1.85-1,.24-3.45.81-6.48.41-2.88-.38-5.57-1.76-10.95-4.53-.34-.17-.61-.32-.8-.41"/>
  <path class="st19" d="M157.46,290.13c.76,1.32,1.92,3.31,3.38,5.71,4.46,7.32,4.98,7.42,6.12,9.69,4.13,8.24,2.11,16.48,3.15,16.6.49.06,1.2-2.28,1.68-4.52.73-3.4,1.34-8.51.35-15.01-3.34-1.54-6.67-3.08-10.01-4.61-1.55-2.62-3.11-5.24-4.66-7.86Z"/>
  <path class="st19" d="M220.67,296.61c-1.9,1.24-4.55,3.06-7.54,5.45-4.78,3.81-5.81,4.64-6.66,5.87-2.23,3.24-2.7,6.53-2.85,7.72-.74,5.67,1.43,9.73.86,9.96-.54.21-2.89-3.2-4.13-7.47-1.61-5.53-.77-10.47,0-13.38,4.01-1.05,8.02-2.1,12.03-3.14l8.28-5Z"/>
  <path class="st25" d="M19.92,117.26"/>
  <path class="st19" d="M129.05,295.67c.27-.23,2.47,2.92,7.08,5.55,3.7,2.12,6.97,2.76,6.84,3.54-.08.49-1.43.66-2.57.81-1.94.25-3.55-.02-4.55-.26-5.91-7.62-6.99-9.46-6.79-9.64Z"/>
  <path class="st20" d="M77,112.36c.97,1.63,2.5,3.75,4.84,5.74,4.41,3.75,9.14,4.85,11.49,5.22h-12.44l-3.02-6.16-.87-4.8Z"/>
  <path class="st20" d="M277.44,111.71c-.44,1.56-1.13,3.58-2.18,5.48-1.99,3.58-4.12,4.63-5.17,4.99,1.87,0,3.74,0,5.6,0l1.36-5.88.39-4.59Z"/>
  <path class="st9" d="M167.18,42.83s7.92-1.24,8.77-7.84c.07-.56.29-1.21.65-1.27,1.21-.21,4.87,6.45,3.82,12.98-.86,5.33-4.54,8.67-6.02,9.87"/>
  <path class="st9" d="M237.83,55.33c-1.89.22-5.16-4.54-6.02-9.87-1.05-6.54,2.61-13.19,3.82-12.98.36.06.57.71.65,1.27.85,6.59,8.77,7.84,8.77,7.84,0,0,3.54,12.51-7.22,13.75Z"/>
  <path class="st9" d="M206.17,173.84c-1.59,4.16-5.63,6.86-10,6.7-2.47-.09-4.78-1.08-6.55-2.71-1.17-1.08-2.11-2.43-2.7-3.99"/>
  <polygon class="st8" points="188.04 185.16 196.55 181.65 189.62 177.82 188.04 185.16"/>
  <path class="st9" d="M206.59,174.04c1.59,4.16,5.63,6.86,10,6.7,2.47-.09,4.78-1.08,6.55-2.71,1.17-1.08,2.11-2.43,2.7-3.99"/>
  <polygon class="st8" points="224.72 185.36 216.22 181.85 223.14 178.02 224.72 185.36"/>
  <path class="st9" d="M267.95,77.42c9.29-2.31,11.98-21.09,11.98-21.09-1.38-.54-2.76-1.08-4.14-1.61"/>
  <path class="st9" d="M268.88,78.09s8.28-7.72,12.96,1.42c0,0-3.37,9.3-10.51,7.3"/>
  <path class="st9" d="M240.35,39.76c1.3-5.09,2.23-12.07,1.06-26.54-.35-4.35,1.16-6.32,1.78-7,3.55-3.87,12.71-3.3,21.68,3.35,0,0,19.4,18.23,9.65,49.84,0,0-7.2,17.15-25.92,17.58-1.65.04-3.92-.24-6.46-1.44-9.06-4.28-10.18-16.67-10.29-18.13"/>
  <path class="st9" d="M229.55,56.56l2.29.88c1.22-1.44,2.24-2.85,3.1-4.2"/>
  <path class="st15" d="M272.68,21.14s-18.89-6.25-30.74,4.39"/>
  <path class="st15" d="M238.34,46.41"/>
  <path class="st15" d="M277.08,46.41s-16.3-12.64-32.01-4.79"/>
  <path class="st9" d="M175.36,57.44c-4.16-4.93-6.04-9.42-6.99-12.55-1.85-6.1-4.17-11.87-2.56-31.66.35-4.35-1.16-6.32-1.78-7-3.55-3.87-12.71-3.3-21.68,3.35,0,0-19.4,18.23-9.65,49.84,0,0,7.2,17.15,25.92,17.58,1.65.04,3.92-.24,6.46-1.44,9.06-4.28,10.18-16.67,10.29-18.13Z"/>
  <path class="st15" d="M134.54,21.14s18.89-6.25,30.74,4.39"/>
  <path class="st15" d="M130.14,46.41s21.35-16.56,38.74,0"/>
  <ellipse class="st13" cx="157.99" cy="136.08" rx="21.06" ry="18.15"/>
  <path class="st3" d="M138.55,129.1c2.33-1.73,8.93-6.18,18.49-6.46,10.72-.31,18.19,4.81,20.4,6.46"/>
  <path class="st3" d="M175.64,145.98c-.48-.93-4.88-9.05-14.35-10.57-7.15-1.15-12.56,2.21-13.88,3.08"/>
  <path class="st3" d="M140.96,133.45c2.46-1.71,8.15-5.15,16.08-5.48,12.03-.51,20.22,6.5,22.01,8.11"/>
  <path class="st3" d="M163.63,160.08c-.21,3.75-8.06,6.58-14.01,6.95-9.06.56-19.32-4.27-19.17-8.44.15-4.11,10.4-8.12,19.14-7.02,6.44.81,14.25,4.68,14.04,8.51Z"/>
  <path class="st4" d="M174.47,135.6c0,1.56-1.26,2.82-2.82,2.82s-2.82-1.26-2.82-2.82,1.26-2.82,2.82-2.82,2.82,1.26,2.82,2.82Z"/>
  <path class="st1" d="M145.8,133.59c0,.87.71,1.58,1.58,1.58s1.58-.71,1.58-1.58-.71-1.58-1.58-1.58-1.58.71-1.58,1.58Z"/>
  <path class="st3" d="M137.47,132.01c.9.28,2.12.73,3.49,1.43.88.45,2.94,1.59,5.12,3.66.8.76,1.81,1.83,2.82,3.24.72-.09,1.7-.19,2.88-.2,0,0,3.27-.03,6.46.82,3.52.94,8.63,3.83,13.2,9.08,0,0-13.05,10.94-29.68-2.41,0,0-6.95-7.38-4.29-15.63Z"/>
  <circle class="st1" cx="168.65" cy="141.12" r="1.19"/>
  <ellipse class="st13" cx="239.02" cy="136.28" rx="21.06" ry="18.15"/>
  <path class="st3" d="M258.46,129.3c-2.33-1.73-8.93-6.18-18.49-6.46-10.72-.31-18.19,4.81-20.4,6.46"/>
  <path class="st3" d="M221.38,146.18c.48-.93,4.88-9.05,14.35-10.57,7.15-1.15,12.56,2.21,13.88,3.08"/>
  <path class="st3" d="M256.05,133.65c-2.46-1.71-8.15-5.15-16.08-5.48-12.03-.51-20.22,6.5-22.01,8.11"/>
  <path class="st3" d="M233.38,160.28c.21,3.75,8.06,6.58,14.01,6.95,9.06.56,19.32-4.27,19.17-8.44-.15-4.11-10.4-8.12-19.14-7.02-6.44.81-14.25,4.68-14.04,8.51Z"/>
  <path class="st4" d="M222.54,135.8c0,1.56,1.26,2.82,2.82,2.82s2.82-1.26,2.82-2.82-1.26-2.82-2.82-2.82-2.82,1.26-2.82,2.82Z"/>
  <path class="st1" d="M251.21,133.79c0,.87-.71,1.58-1.58,1.58s-1.58-.71-1.58-1.58.71-1.58,1.58-1.58,1.58.71,1.58,1.58Z"/>
  <path class="st3" d="M259.54,132.21c-.9.28-2.12.73-3.49,1.43-.88.45-2.94,1.59-5.12,3.66-.8.76-1.81,1.83-2.82,3.24-.72-.09-1.7-.19-2.88-.2,0,0-3.27-.03-6.46.82-3.52.94-8.63,3.83-13.2,9.08,0,0,13.05,10.94,29.68-2.41,0,0,6.95-7.38,4.29-15.63Z"/>
  <circle class="st1" cx="228.36" cy="141.32" r="1.19"/>
  <path class="st8" d="M229.88,330.06c.2-.31,1.28-2.12.68-4.37-.45-1.69-1.6-2.65-1.99-2.95"/>
  <path class="st8" d="M215.68,324.18c.3.61.81,1.82.8,3.43-.01,1.78-.66,3.09-1,3.68"/>
  <path class="st9" d="M200.53,305.07c-2.75,9.04-.65,18.33,5.45,23.47,5.25,4.43,11.72,4.31,13.73,4.27,9.46-.2,15.37-6.33,16.47-7.52.63-.74,4.39-5.3,3.54-11.69-.63-4.76-3.44-7.74-4.39-8.67.8-1.01,1.52-2.02,2.18-3.04,9.93-15.38,6.66-34.4,3.65-45.22"/>
  <path class="st8" d="M142.12,329.61c-.2-.31-1.28-2.12-.68-4.37.45-1.69,1.6-2.65,1.99-2.95"/>
  <path class="st8" d="M156.32,323.73c-.3.61-.81,1.82-.8,3.43.01,1.78.66,3.09,1,3.68"/>
  <path class="st9" d="M170.49,301.92s7.71,16.96-4.47,26.16c-1.73,1.22-6.72,4.42-13.73,4.27-9.46-.2-15.37-6.33-16.47-7.52-.63-.74-4.39-5.3-3.54-11.69.63-4.76,3.44-7.74,4.39-8.67-2.57-1.9-10.5-8.28-13.85-19.94-3.21-11.18-.25-20.42.88-23.48"/>
  <path class="st9" d="M191.55,211.99c3.48-.02,11.2-.06,18.13,3.56,12.26,6.41,16.14,20.95,18.17,31.03,3.88,19.21-.69,39.77-.69,39.77-.44,1.72-1.3,4.21-3.1,6.79-2.85,4.08-6.46,6.09-8.32,6.96-4.71,2.05-13.27,5.06-24.34,4.97-11.31-.09-19.98-3.38-24.66-5.55-2.16-1.19-5.86-3.65-8.57-8.11-1.06-1.75-1.75-3.43-2.2-4.87,0,0,0,0,0,0-1.38-6.04-4.92-22.25-.69-39.77,2.4-9.97,5.91-24.52,18.17-31.03,6.95-3.69,14.69-3.73,18.09-3.75Z"/>
  <path class="st9" d="M217.04,199.72c1.43.16,2.91.36,4.43.6,1.93.31,3.77.65,5.51,1.03,0,0,.37.09.73.2,2.61.77,8.83,3.11,19.45,11.76,4.64,3.78,10.78,9.31,17.26,16.86.69,1.26,5.21,9.92,1.37,19.29-.7,1.72-4.34,9.92-12.65,11.98-2.72.67-5.11.48-6.7.21-2.55-2.6-5.11-5.21-7.66-7.81"/>
  <path class="st8" d="M265.98,248.08c-.31-.72-.85-1.75-1.77-2.78-.82-.92-1.67-1.53-2.3-1.91"/>
  <path class="st8" d="M261.9,254.23c-.31-.72-.85-1.75-1.77-2.78-.82-.92-1.67-1.53-2.3-1.91"/>
  <path class="st8" d="M256.06,258.53c-.31-.72-.85-1.75-1.77-2.78-.82-.92-1.67-1.53-2.3-1.91"/>
  <path class="st9" d="M146.04,237.87c-.85,2.91-2.19,6.44-4.35,10.18-3.65,6.35-8.08,10.62-11.29,13.21-1.59.27-3.98.46-6.7-.21-8.31-2.06-11.94-10.26-12.65-11.98-3.84-9.37.69-18.02,1.37-19.29,6.48-7.55,12.62-13.07,17.26-16.86,11.78-9.6,18.15-11.44,20.18-11.96,4.9-1.28,9.16-1.34,11.97-1.19"/>
  <path class="st8" d="M110.87,247.69c.31-.72.85-1.75,1.77-2.78.82-.92,1.67-1.53,2.3-1.91"/>
  <path class="st8" d="M114.95,253.84c.31-.72.85-1.75,1.77-2.78.82-.92,1.67-1.53,2.3-1.91"/>
  <path class="st8" d="M120.79,258.14c.31-.72.85-1.75,1.77-2.78.82-.92,1.67-1.53,2.3-1.91"/>
  <path class="st9" d="M113.7,75.43c-9.41-1.79-11.98-21.09-11.98-21.09,18.72-9.78,28.63,4.51,28.63,4.51,0,0,2.2,20.16-16.66,16.57Z"/>
  <path class="st9" d="M130.17,40.16c-.75-.52-2.23-1.41-4.31-1.7-2.52-.36-4.51.35-5.36.72-.67.21-1.75.68-2.35,1.73-.96,1.66-.09,3.72.42,4.89,2.32,5.44,9.51,10.56,11.6,12"/>
  <path class="st9" d="M111.4,84.8c-7.07,2.23-10.51-7.3-10.51-7.3,4.68-9.14,12.96-1.42,12.96-1.42,0,0,3.64,6.8-2.45,8.73Z"/>
  <path class="st10" d="M100.89,123.88h-42.39c-.92.22-1.91.64-2.38,1.51-2.1,3.95,7.88,14.89,18.78,20.24,3.42,1.68,9.06,4.58,16.76,4.27,3.92-.16,7.1-1.08,9.23-1.88"/>
  <path class="st9" d="M95.76,166.73c-3.55.41-13.25,1.05-22.67-4.81-16.86-10.48-16.67-31.7-16.64-32.87"/>
  <path class="st8" d="M72.22,150.84s1.91,6.54,6.54,3.35c.15.46,1.27,3.76,4.53,4.96,3.14,1.16,6.97-.1,9.22-3.21"/>
  <path class="st8" d="M83.79,124.71c-6.91-2.77-6.86-13.61-6.86-13.61,4.58,6.17,13.71,7.61,13.71,7.61.06.03,1.49.86,1.53,2.52.02,1.09-.57,2.11-1.53,2.64-2.29.28-4.57.56-6.86.83Z"/>
  <path class="st8" d="M184.34,48.79c.23.4,1.9,3.24,5.44,3.88,3.76.69,6.45-1.68,6.75-1.96-.55,4.22-1.1,8.44-1.65,12.66-.4-.03-6.87-.62-9.75-6.22-1.94-3.76-1.04-7.43-.78-8.37Z"/>
  <path class="st8" d="M229.28,49.09c-.23.4-1.9,3.24-5.44,3.88-3.76.69-6.45-1.68-6.75-1.96.55,4.22,1.1,8.44,1.65,12.66.4-.03,6.87-.62,9.75-6.22,1.94-3.76,1.04-7.43.78-8.37Z"/>
  <path class="st10" d="M274.97,148.02c1.09-.34,3.22-1.05,5.74-2.27,11.15-5.38,20.89-16.26,18.78-20.24-.46-.87-1.46-1.29-2.38-1.51h-25.29"/>
  <path class="st9" d="M277.41,164.31c1.93-.62,3.63-1.4,5.11-2.26,14.37-8.32,16.29-28.09,16.64-32.87"/>
  <path class="st8" d="M283.39,150.96s-1.91,6.54-6.54,3.35"/>
  <path class="st8" d="M271.82,124c6.91-2.77,6.86-13.61,6.86-13.61,0,0-1.49,2.61-7.4,6.6"/>
  <path class="st9" d="M206.88,69.68c3.05-.04,6.32-.07,8.7-2.19,3.13-2.78,2.71-7.31,2.44-10.3,0,0-.61-6.67-5.78-12.28-.65-.71-1.55-1.53-1.55-1.53-1-.92-1.57-1.32-1.82-1.49-.96-.65-1.53-.85-2.11-.9-.24-.02-.43,0-.55,0-.77.02-1.47.29-2.8,1.21-2.01,1.38-2.9,2.22-3.72,3.18-4.41,5.19-4.73,11.82-4.73,11.82-.16,3.36-.37,7.61,2.71,10.3,2.6,2.26,6.17,2.23,9.22,2.19Z"/>
  <path class="st7" d="M198.51,49.32c1.4.69,4.05,1.77,7.54,1.78,4.37,0,7.56-1.68,8.92-2.51"/>
  <path class="st7" d="M196.06,54.74c1.81.97,4.98,2.37,9.15,2.66,5.93.41,10.42-1.66,12.33-2.69"/>
  <path class="st7" d="M195.72,60.07c1.64.95,5.43,2.86,10.62,2.87,5.24.01,9.07-1.92,10.71-2.88"/>
  <path class="st9" d="M135.94,207.78c-2.62-1.14-5.36-1.98-8.21-2.41-18.12-2.71-34.41,11.02-52.57,7.56,8.21,2.55,22.22,9.36,17.65,20.21,1.22-.93,5.1-3.63,10.48-3.37,2.72.13,4.85.97,6.18,1.64"/>
  <path class="st8" d="M132.28,211.52c-6.46-2.22-13.67-1.55-20.33-.17-9.28,1.92-18.99,6.44-28.61,5.03"/>
  <path class="st8" d="M128.84,210.62s-24.76,7.62-36.03,22.51"/>
  <path class="st9" d="M161.55,230.01c5.73,2.4,33.19,12.54,60.91-.48"/>
  <path class="st9" d="M154.3,251.65s36.28,19.93,74.19-.2"/>
  <path class="st9" d="M154.2,273.88s36.28,19.93,74.19-.2"/>
  <path class="st9" d="M117.62,258.63c-3.49,4.98-6.97,9.96-10.46,14.95-2.18,3.33-6.06,8.22-12.36,12.05-13.74,8.37-28.24,5.16-31.67,4.31.29,2.45,1.15,6.49,4.06,10.18,1.04,1.32,4.37,5.16,14.51,7.76,5.3,1.36,14.73,2.96,26.98.64,3.05-.54,6.97-1.53,11.26-3.45,3.77-1.68,6.8-3.61,9.09-5.31"/>
  <path class="st9" d="M64.58,289.94c.37-1.57,1.06-3.84,2.41-6.35,1.32-2.46,2.08-3.71,3.09-3.96,2.07-.52,5.21,3.3,7.95,9.02"/>
  <path class="st9" d="M79.72,289.6c-.08-1.61-.06-3.99.53-6.78.58-2.73.96-4.14,1.86-4.67,1.84-1.08,5.93,1.71,10.16,6.44"/>
  <path class="st9" d="M94.3,284.69c-.7-1.45-1.59-3.65-2.12-6.46-.52-2.74-.71-4.19-.09-5.02,1.28-1.71,6.13-.71,11.86,2.01"/>
  <path class="st9" d="M103.68,274.33c-.82-1.39-1.89-3.51-2.65-6.26-.75-2.69-1.06-4.12-.51-5,1.13-1.81,6.04-1.22,11.98,1.02"/>
  <path class="st9" d="M112.11,264.4c-.78-1.41-1.79-3.56-2.47-6.33-.67-2.71-.94-4.15-.36-5.01.44-.67,1.41-.98,2.75-.98"/>
  <path class="st9" d="M104.72,65.61c-2.12.8-3.62,1.56-4.69,2.25-6.3,4.03-10.21,9.36-10.21,9.36-3.28,4.38-5.44,11.59-7.23,19.99-1.37,6.43-1.74,12.16-1.7,16.77"/>
  <path class="st9" d="M183.85,56.37c-3.1.13-6.21.25-9.31.38"/>
  <path class="st9" d="M204.16,56.74"/>
  <path class="st9" d="M83.79,166.2c1.26,4.34,4.68,13.83,13.71,21.85,13.26,11.77,28.94,11.77,32.73,11.67h112.72s52.32-2.98,28.07-60.83c.36-21.53.32-37.79,0-44.67-.07-1.47-.22-3.86-.86-6.86-.94-4.4-2.43-7.81-3.51-9.95-.77-1.03-1.92-2.45-3.51-3.94"/>
</svg>